<svg xmlns="http://www.w3.org/2000/svg" xmlns:xlink="http://www.w3.org/1999/xlink" viewBox="0 0 2048 1536">
  <defs>
    <style>
      .cls-1 {
        fill: none;
      }

      .cls-2 {
        clip-path: url(#clip-path);
      }

      .cls-3 {
        fill: #8d706a;
      }

      .cls-4 {
        fill: #edd3c8;
      }

      .cls-5 {
        clip-path: url(#clip-path-2);
      }

      .cls-6 {
        fill: #9aa6a2;
      }

      .cls-7 {
        clip-path: url(#clip-path-3);
      }
    </style>
    <clipPath id="clip-path">
      <rect class="cls-1" x="1666.47" y="256.56" width="535.57" height="971.15"/>
    </clipPath>
    <clipPath id="clip-path-2">
      <rect class="cls-1" x="1770.82" y="550.26" width="107.3" height="405.5"/>
    </clipPath>
    <clipPath id="clip-path-3">
      <rect class="cls-1" x="1666.47" y="548.8" width="271.22" height="470.22"/>
    </clipPath>
  </defs>
  <g id="parent-building10_layer-base">
    <g class="cls-2">
      <path class="cls-3" d="M1846.1,581v.94c0,2-.07,4-.11,6v-.12l.16-.34,0-.72,0-.72c.15-3.71.34-7.42.53-11.14l.23-4.34a3.53,3.53,0,0,1-.6-.36C1846.23,573.77,1846.16,577.44,1846.1,581Zm50.2,133.21a2.91,2.91,0,0,1,.27.24c0-.9,0-1.72.08-2.55C1896.52,712.66,1896.4,713.44,1896.3,714.21ZM1829.75,718q-.29,3.32-.61,6.66c.34-1.31.71-2.62,1.09-3.92a23.45,23.45,0,0,1,1.23-3.29Zm-30.54,73.35a6,6,0,0,1,1-.2,13.1,13.1,0,0,1,.36-2.34h-.08a6.07,6.07,0,0,1-.63,0l-.68-.08Zm138.56-3.31-.27.07v.36c0,.64-.06,1.28-.06,1.93s0,1.21.09,1.72c.11-1.13.28-2.27.46-3.4,0-.26.08-.52.13-.78Zm-19.86,4.18.4.1v-.48l0-.49h-.07c-.67,0-1.35,0-2-.08l-.76,0-1-.06-1-.06a6.85,6.85,0,0,1,.68.9,7.56,7.56,0,0,1,1.44-.13A8.69,8.69,0,0,1,1917.91,792.24ZM1820.77,922.4c-.18,1-.31,1.9-.4,2.76,0,.39,0,.79,0,1.18s.07.63.12.94.18.69.29,1c.07.18.14.36.22.53a10,10,0,0,1,.61.84l0-.64v-.63c0-2,0-4-.07-6l0-2.85C1821.2,920.52,1821,921.45,1820.77,922.4Zm-62.86,57.73a17.69,17.69,0,0,1,3.26,2.11l.4.31c1.31,1,2.59,2,4.1,3.31l1.3.51q.39-.17.81-.3c.18-2.31.38-4.64.58-7l.07-1.17.08-1.17a5.78,5.78,0,0,1-2.43.53c-1.46,0-3,.07-4.61.16-5.64.45-11.3,1.41-16.77,2.36l-.12,0-2.49.43-3,.48-1.24.21-2.17.35-1.37.23-1.44.24a7.54,7.54,0,0,1,.28,3,6.13,6.13,0,0,1,.76-.07l-.12,0c1.48-.12,3-.18,4.47-.23l.4,0c.81,0,1.62,0,2.42-.09l3.6-.14.65-.15a9.34,9.34,0,0,1,7.46-4.9c.31,0,.62,0,.93,0A10,10,0,0,1,1757.91,980.13Zm-63.12,14.81.2.73.1.33.09.33c.24-.54.55-1.06.84-1.57l.06-.09.28-.49c.12-.2.25-.4.38-.59h-.81l-1.54,0C1694.53,994,1694.66,994.49,1694.79,994.94Zm87.55,56.67a9.38,9.38,0,0,1-5.12-5.35,15.47,15.47,0,0,1-.68-6.47c0-1,0-1.93-.08-2.85l0-.93-.2-3.54a7.69,7.69,0,0,1-1.75.2,9.32,9.32,0,0,1-4.21-1,13.68,13.68,0,0,1-3.14.82,18.13,18.13,0,0,1-2.17.15,9.08,9.08,0,0,1-1.49-.11,19.82,19.82,0,0,1-3.38-.89,16.54,16.54,0,0,1-2.32-1.13,13.49,13.49,0,0,1-3.74-3,10,10,0,0,1-5.7,1.67,9.17,9.17,0,0,1-7.09-3.53,12.14,12.14,0,0,1-1.31-2.16,10.38,10.38,0,0,1-6.08,3.13,10.73,10.73,0,0,1-1.14.07,11.38,11.38,0,0,1-6.62-2.35,8.16,8.16,0,0,1-2.28-2.65,2.13,2.13,0,0,1-.18.41,17.3,17.3,0,0,1-3.81,4.55l-.17.16a8.22,8.22,0,0,1-5.55,2.28,7.4,7.4,0,0,1-2-.28,7.54,7.54,0,0,1-4.32-3.14,7.33,7.33,0,0,1-2.12.64,8.26,8.26,0,0,1-1,.07,7.48,7.48,0,0,1-5.28-2.18l-.11-.11a14.5,14.5,0,0,1-1.45-1.64,5.48,5.48,0,0,1-1.46.61,7.31,7.31,0,0,1-1.93.26,6.23,6.23,0,0,1-3.45-1v.67l0,.5c0,.35,0,.69,0,1,0,.5,0,1,0,1.5l0,1.16a19.44,19.44,0,0,1-.47,3.23,8.86,8.86,0,0,1-3.43,5,7.63,7.63,0,0,1-4.55,1.54,7.08,7.08,0,0,1-1.93-.27,7.46,7.46,0,0,1-5.15-5.15,73.17,73.17,0,0,1-1.74-9.26l-.09-.64c-.06-.43-.12-.86-.19-1.29l-.55-3.73-.56-3.75-.33-2.24c-.74-5-1.5-10.25-2.52-15.38-.34-1.61-.65-3.06-1.08-4.48a23.79,23.79,0,0,1-1-3.14,7.3,7.3,0,0,1,6-9.19l.1,0,.24,0a20.24,20.24,0,0,1,2-1l.8-.33a4.67,4.67,0,0,1-.32-1.67,5.22,5.22,0,0,1,5-5.16h.16l.52,0,.51,0,.45,0h.16c3.69-.26,7.51-.53,11.27-.89l2.49-.23.65-.06c3.21-.31,6.54-.62,9.81-.88,8-.6,17.58-1.29,27.27-1.74l9.61-.46,3-.44.13,0,.25,0c1.72-.25,3.5-.5,5.27-.69,2.24-.24,4.58-.42,7-.55.81,0,1.64-.07,2.46-.07a28.46,28.46,0,0,1,4.84.38,7.06,7.06,0,0,1,2.37.88c.16-3,.35-5.93.55-8.9v-.18c-.19-1.19-.29-2.41-.39-3.59l-.08-.82c-.26-3-.44-6-.61-8.9v-.19l-.1-1.72c-.06-1.11-.1-2.23-.15-3.35v-.43l0-1.16q-.35-8.93-.68-17.86c-.09-2.41-.13-4.82-.17-7.5l0-1.37-.25-15.76V775.18l.23-.09,1.09-.41c1-.35,2-.72,3-1.09l2.06-.77,4.81-1.73,6.86-2.47,2.73-1a29.87,29.87,0,0,0,4.31-1.74l.92,0c.65,0,1.3-.05,1.94-.1l0,0,.15,0h0c.58-.06,1.16-.13,1.74-.17h7.38s0,0,.05,0h0s.06-.12,0-.37v-2.26a3.07,3.07,0,0,0,0-1.13v-.18a5,5,0,0,0,0-2.32V699l.77-.45,3-1.8c1.44-.88,2.89-1.73,4.27-2.7l.58-.34,1.46-.87a2.14,2.14,0,0,0,.6-.21c.61-.31,1.21-.65,1.8-1,1.36-.64,2.71-1.29,4-2a5,5,0,0,0,.54-.2l.6-.19a3.09,3.09,0,0,0,1.11-.67,10.68,10.68,0,0,0,1.73-1.12l.2,0a5.11,5.11,0,0,0,1.17-.19,4.05,4.05,0,0,0,1.08-.59,3,3,0,0,0,.9-1.33c0-.18.08-.29.09-.34l.12-.1H1833s0,0,0,0l0,0s.06-.18,0-.54V587c.11-2.91.21-5.82.32-8.73.14-3.38.29-7.84.26-12.32,0-3.26-.11-6.2-.27-9l0-.57-.05-.61-.18-2.36a22.45,22.45,0,0,1,.24-4.69c.08-.51.17-1,.28-1.52l.14,0a2.42,2.42,0,0,0,1.22-.13l.49-.22c.35-.16.7-.34,1-.53a9.28,9.28,0,0,0,2-1.33l0-.05.69-.4c.61-.36,1.23-.73,1.82-1.13a4.17,4.17,0,0,0,1.71-1.77,2.27,2.27,0,0,0,.16-1.17,1.7,1.7,0,0,0,.68-.65,1,1,0,0,0,.62-.4,1.69,1.69,0,0,0,.24-1,9.93,9.93,0,0,0,1.14-.66.31.31,0,0,0,0-.46.6.6,0,0,0-.47-.23,4.45,4.45,0,0,0-.8.13v0a.11.11,0,0,1,0,0s0-.09,0-.14c0-.71,0-1.43.06-2.14s.06-1.6.06-2.41v.13l0-2.11v0a1.28,1.28,0,0,0,0-.19v-.77a.08.08,0,0,1,0,0V529h0v-.77c0-.1,0-.2,0-.3v0a10.55,10.55,0,0,1,.59-.89c1.76,0,3.52-.08,5.28-.14q5.19-.16,10.4-.25c2.52-.05,5-.06,7.57-.07.06.16.11.32.16.49a13.42,13.42,0,0,1,.54,3.23,6.41,6.41,0,0,1,.06,3.26c0,1-.12,2.13-.22,3.23l0,.47a1.1,1.1,0,0,0-.55.68,1.73,1.73,0,0,0,.64,3,8.82,8.82,0,0,0,2.06.16h.5c.43,0,.87,0,1.31,0l3.17,0,4-.06h1.1a5.87,5.87,0,0,1,1,1.39V686.11l8.91,0c1.37.11,2.77.24,4.21.4s2.74.36,4.26.64a5.3,5.3,0,0,0,.55.1l.25.05.85.17c1,.21,2.37.47,3.63.61H1906l1-.14a12.36,12.36,0,0,1,2-.22,5.72,5.72,0,0,1,1,.09c.8.31,1.59.62,2.38.95a7.77,7.77,0,0,1,1.22,1v72.39l13.09,0c.59.09,1.19.17,1.81.23s.94,0,1.41,0h.86l.86-.11,3.18.07q3.57.09,7.15.32v211a6.15,6.15,0,0,1-3.72,2.89,6.08,6.08,0,0,1-1.61.22,6.16,6.16,0,0,1-5.9-3.85l-.16-.44-.16-.45a15.53,15.53,0,0,1-.94-3.23c-.22-1.61-.34-3.18-.44-4.64-.15-2.41-.17-4.86-.19-7.24v-1.88c0-1,0-2.06,0-3.09v-3.3a8.59,8.59,0,0,1-2.47-.74c-.39,4.87-.85,9.3-1.39,13.56-.11.88-.22,1.76-.29,2.64s-.1,1.95-.14,2.92-.07,1.8-.11,2.7a46.93,46.93,0,0,1-1.06,8.07,18.91,18.91,0,0,1-3.41,7.16,11.14,11.14,0,0,1-4.39,3.45,14,14,0,0,1-3.43.85l-.31,0-.56.1a8.35,8.35,0,0,1-1.31.1,8.78,8.78,0,0,1-2.36-.33,10.22,10.22,0,0,1-8.84,5.21,10.92,10.92,0,0,1-1.35-.09,10.19,10.19,0,0,1-5.82-2.89,10.46,10.46,0,0,1-3-7.2c-.09-2.79-.19-6,0-9.32.06-1.32.15-2.62.24-3.93-.74.07-1.5.15-2.24.15a10.93,10.93,0,0,1-1.39-.09,10.47,10.47,0,0,1-6-3,10.14,10.14,0,0,1-3.06-7.38c.07-1.29.14-2.58.2-3.87l0-.42c.13-2.53.26-5.14.46-7.7l.37-4.75.22-2.92a13.34,13.34,0,0,1-3.25-1.76l-.26-.2a17,17,0,0,1-3.52-3.15,15.53,15.53,0,0,1-1.44-2.22,9.23,9.23,0,0,1-3.83,2.14,9.11,9.11,0,0,1-2.45.34,9.39,9.39,0,0,1-7.48-3.65l-.36-.48c-.24-.3-.48-.61-.7-.93a15.8,15.8,0,0,1-1.46-2.6,16.64,16.64,0,0,1-1.18-4.24l-.14-.78a45.51,45.51,0,0,1-.54-9.26v-.45c0-2.35,0-4.84-.12-7.62,0-.39,0-.78,0-1.17l-.24,1.71-.32,1.93-1.21,7.3-.08.44c-.82,5-1.65,9.93-2.45,14.9-.35,2.16-.73,4.31-1.1,6.45l-.57,3.3-.5,2.92-.49,2.92c-.42,2.45-1,4.92-1.45,7.31l0,.16-.43,2a9.73,9.73,0,0,1-2.58,5,9.51,9.51,0,0,1-5.36,2.66,10.36,10.36,0,0,1-1.25.08,9.32,9.32,0,0,1-4.75-1.28,9.13,9.13,0,0,1-4.32-5.6c-.13-.66-.27-1.31-.42-2-.35-1.6-.72-3.24-.93-4.88-.31-2.4-.4-4.86-.49-7.25V943c0-1.46-.08-3.07-.1-5a5.82,5.82,0,0,1-.95,1.23,7.76,7.76,0,0,1-5.45,2.2,7.29,7.29,0,0,1-5.33-2.2,22.75,22.75,0,0,1-2.74-3.33,26.88,26.88,0,0,1-2-3.71c-1.33-2.93-1.82-6.55-1.48-11.09a67.1,67.1,0,0,1,2.27-11.8q1-4,2.09-8.07c.81-3.11,1.8-6.41,3.11-10.35,0-.78.11-1.56.18-2.35l.2-2.27a10.8,10.8,0,0,1-3.92-4.54,11.29,11.29,0,0,1-5.23,4.52,11.53,11.53,0,0,1-4.46.89l-.62,0c-.12,5.87-.28,11.75-.43,17.64l0,.93,0,.93q.06,3.31.13,6.62l.07,3.32.1,5c.48,13.37.82,26.65,1.19,42.48l.32,13.5.32,13.5,0,1.26c.07,3,.14,5.91.19,8.87l.09,6.22,0,3.14v.88c0,2,.07,4.09,0,6.14,0,.94-.1,1.87-.16,2.81v.1c0,.62-.07,1.24-.11,1.86a8,8,0,0,1-1.61,4.72,7.76,7.76,0,0,1-4,2.69c.29,4.44.55,9.14.79,14a8.49,8.49,0,0,1-3.34,6.8,8.78,8.78,0,0,1-5.31,1.79A8.11,8.11,0,0,1,1782.34,1051.61Z"/>
      <circle class="cls-4" cx="1807.26" cy="910.12" r="0.75"/>
      <path class="cls-3" d="M1916.74,1004c-.06-.39-.1-.79-.15-1.18a14.4,14.4,0,0,1-2.22-1.42,15,15,0,0,1-5.68-9.81c-.18-1.39-.36-2.77-.52-4.15l-.18-.13a14.76,14.76,0,0,1-7.81-2,14.32,14.32,0,0,1-4.52-4.23,14.88,14.88,0,0,1-14.83,7.37,5.25,5.25,0,0,1-.55-.09,12.84,12.84,0,0,1-1.1,1.24,14.39,14.39,0,0,1-24-6.35c-.16-.57-.31-1.15-.46-1.73-.36,0-.71-.09-1.07-.16a14.34,14.34,0,0,1-18.74-8.63,13.47,13.47,0,0,1-24.42-3.55l0-.17a12.62,12.62,0,0,1-7.46-8.37c-.38-1.52-.77-3-1-4.57a25.41,25.41,0,0,1-.25-3.5,11.3,11.3,0,0,1-3.27-2.73,8,8,0,0,1-7.57-5,10.11,10.11,0,0,1-4.44-5.84,19.07,19.07,0,0,1-.63-7.09c.11-1.19.29-2.38.38-3.57.14-2,.29-3.94.43-5.91.24-3.24.47-6.49.71-9.73.3-4.12.65-8.24,1-12.37,0-1.52,0-3.05,0-4.57l.18-7.9c0-1.15,0-2.31.07-3.46,0-1.62.1-3.22.24-4.84a23.6,23.6,0,0,1,1-4.45c0-.17.1-.34.16-.5h0a6.59,6.59,0,0,0-.72-1l.06.08c-.12-.12-.25-.25-.38-.36l-.4-.25L1788,873l-.56-.1H1787l-.36.13-1,.62.08-.05c-.46.33-.89.68-1.32,1-.17.14-.34.29-.5.45v.09a.76.76,0,0,1-1.43.33h0a.76.76,0,0,1-.07-1,12.71,12.71,0,0,1,2.41-2.1,4.09,4.09,0,0,1,2.66-1,4,4,0,0,1,3.16,1.72,9.36,9.36,0,0,1,6.88-4.63,6.78,6.78,0,0,1,5.55-3,6.71,6.71,0,0,1,4.07,1.43,13.89,13.89,0,0,1,7.39-1.08,14.74,14.74,0,0,1,2.87-1.63c.3-.12.6-.24.91-.34.1-.37.21-.73.33-1.09a35.1,35.1,0,0,1,1.64-4,14.77,14.77,0,0,1,5.86-6.67,14.08,14.08,0,0,1,17,2.2l.07.07a13.54,13.54,0,0,1,4,0c.61.1,1.22.19,1.82.31a16.5,16.5,0,0,1,1.58-.58,15.72,15.72,0,0,1,10.64.69,15.22,15.22,0,0,1,6.91,6c.2-.4.42-.79.66-1.18a15.13,15.13,0,0,1,11.48-7.23c0-.38,0-.76,0-1.15,0-1.89-.1-3.77-.09-5.66a23.46,23.46,0,0,1,2.32-10.32,14.74,14.74,0,0,1,15.6-8.87,14.73,14.73,0,0,1,8.44,4.18,15.41,15.41,0,0,1,4.19,8.44c.42,2.42.89,4.83,1.3,7.26,0,.33.11.65.16,1a14.65,14.65,0,0,1,4.64,1.74,14.1,14.1,0,0,1,6.14,7c.38,1.08.78,2.16,1.08,3.26a26.45,26.45,0,0,1,.63,3.75,53.07,53.07,0,0,1,.27,6.67c0,2.37-.14,4.74-.2,7.1-.08,3.1-.15,6.19-.23,9.29,0,1.78-.08,3.56-.13,5.34.41.41.8.85,1.19,1.31a17.63,17.63,0,0,1,3,5.49,14.85,14.85,0,0,1,6.69,10.46c.39,3.08.75,6.13,1,9.24,0,.64.08,1.28.11,1.92a15.55,15.55,0,0,1,5.52,3.66v89.25a14.94,14.94,0,0,1-25.27-8.69Z"/>
      <path class="cls-3" d="M1862.59,752.29c0,3,.09,5.92.13,8.88,0,1.64,0,3.28.07,4.92s0,3.19.07,4.78c0,.83,0,1.66,0,2.49v.41l.06-2.11c0-.45,0-.9,0-1.35,0-4.43.07-8.87.1-13.29s0-9.12.11-13.68c0-2.22.07-4.45.14-6.67l.06-1.6a4.1,4.1,0,0,0-.14.5.11.11,0,0,0,0-.05c-.11.54-.21,1.09-.29,1.63-.1.69-.16,1.37-.21,2.06,0,0,0-.07,0-.1C1862.49,743.5,1862.52,747.9,1862.59,752.29Zm-.19,37.09a.75.75,0,0,1-.64-.65c-.08-1-.19-2-.21-3l0-2,0-2.84c0-.7,0-1.39,0-2.09a3.26,3.26,0,0,1-.63-.75,10.28,10.28,0,0,1-.94-2.21,47.89,47.89,0,0,1-1.07-5.17h0c-.32-1.53-.64-3.06-.91-4.61s-.53-3.2-.77-4.81-.5-3.28-.71-4.93c-.36-2.85-.73-5.71-1.09-8.57-.21-1.62-.43-3.25-.61-4.88l-.9-8.31c-.08-.74-.16-1.49-.22-2.24a52.74,52.74,0,0,0-.69-5.47h0l0-.09v0c-.12-.56-.25-1.12-.38-1.68l-.38.16-.09.05,0,0-.07.07h0c-.11.14-.22.27-.32.41h0v0l-.05.06,0,0c-.13.2-.25.42-.37.63a10.44,10.44,0,0,0-.42,1c-.4,1.2-.64,2.43-.95,3.65-.16.66-.37,1.3-.56,1.95-.24.81-.46,1.63-.68,2.44-.69,2.55-1.29,5.12-2,7.67s-1.38,5.2-2.06,7.8l-.45,1.69c-.06.21-.11.42-.16.63-.31,1-.6,2-.9,3.07-.37,1.3-.75,2.6-1.12,3.9-.23.8-.46,1.61-.7,2.42a16.41,16.41,0,0,1-.68,1.89,7.33,7.33,0,0,1-1.12,1.73c-.23.26-.45.53-.67.8a.75.75,0,0,1-1.28-.17c-.26-.65-.57-1.27-.82-1.92a8.75,8.75,0,0,1-.49-2.08,28.41,28.41,0,0,1-.12-4.61c0-1.28.06-2.56.09-3.84l.21-7.54q.12-3.69.22-7.38c.06-2.13.1-4.27.14-6.41,0-.86,0-1.71,0-2.57s0-1.46,0-2.19c0-.22,0-.43,0-.65-.08.53-.16,1.06-.26,1.59-.06.33-.11.67-.17,1-.2,1.15-.41,2.3-.6,3.45-.11.63-.24,1.26-.36,1.89-.16.87-.31,1.75-.49,2.62h0v.1h0c-.2,1-.39,2-.61,3v0l0,.06v-.05a6.73,6.73,0,0,1-.48,2.13,1.3,1.3,0,0,1-.62.56,1.53,1.53,0,0,1-.9,0c-.62-.13-.93-.83-1-1.38a3.54,3.54,0,0,1-.07-.47l-.06.46c-.11.9-.24,1.8-.35,2.7l-.18,1.38c-.08.58-.15,1.15-.26,1.72-.06.38-.16.76-.25,1.13a4.73,4.73,0,0,1,0,.92,1.93,1.93,0,0,1-.34,1c-.08,1.72-.16,3.44-.23,5.16,0,.55,0,1.09-.07,1.64,0,.79-.07,1.6,0,2.4v0c0,.38.1.75.16,1.12a.75.75,0,0,1-1.49.21,11.11,11.11,0,0,1-.15-1.12,8.18,8.18,0,0,1,0-1c0-.3,0-.61,0-.92,0-.52,0-1,.06-1.54l.15-3.69c0-1.07.1-2.14.16-3.22a.75.75,0,0,1-.28-.25,3,3,0,0,1-.51-1.18,17,17,0,0,1-.13-2.94v.06c-.16-2.29-.24-4.58-.21-6.88l.06-4.33c0-1,0-2,.09-3l.06-1.57c0-.68,0-1.35.08-2a10.89,10.89,0,0,1,.14-1.13c.07-.38.19-.76.3-1.14,0-.06,0-.12,0-.18a.75.75,0,0,1,1.45,0c.14.68.31,1.34.42,2,0,.17,0,.35.07.52a.72.72,0,0,1,.47.59c.07.81.16,1.62.16,2.43,0,.38,0,.77,0,1.15l0-.2c0-.73,0-1.47.05-2.2s0-1.21,0-1.81c0-.28,0-.56,0-.84a.75.75,0,1,1,1.5,0c0,.3,0,.59,0,.89,0,1.3.06,2.59.11,3.89.08,2.13.13,4.27.27,6.4V739c0,.55.1,1.1.12,1.65s0,1,0,1.45h0a1.5,1.5,0,0,0,0,.22c.06-.38.1-.76.17-1.13h0c.19-1,.39-2,.6-3,.33-1.71.65-3.41,1-5.12.22-1.21.42-2.42.63-3.62.14-.81.26-1.62.39-2.43a18.72,18.72,0,0,1,.4-1.92,13.22,13.22,0,0,1,.71-1.74.75.75,0,0,1,1.41.09c.08.37.18.73.25,1.11a5.89,5.89,0,0,1,.12.94c0,.82,0,1.64,0,2.46,0,.5,0,1,0,1.5,0,1.05,0,2.11,0,3.16,0,2.12-.08,4.24-.14,6.36-.13,4.84-.28,9.67-.42,14.51,0,.91,0,1.82-.08,2.73,0,.62,0,1.24,0,1.86,0,1.32-.08,2.63,0,4a13.39,13.39,0,0,0,.22,1.67,5.44,5.44,0,0,0,.2.72c.12.32.25.63.39.94.12-.16.25-.31.37-.48a5.5,5.5,0,0,0,.28-.48v0l0,0v0c.18-.38.34-.77.48-1.16,0,0,0,0,0,0,.23-.66.41-1.34.6-2,.1-.37.22-.73.32-1.09s.26-.88.38-1.32c.43-1.5.86-3,1.29-4.47.53-1.8,1-3.62,1.47-5.44.71-2.67,1.43-5.34,2.11-8,.4-1.58.79-3.16,1.19-4.73.2-.75.4-1.5.61-2.26s.46-1.56.69-2.33c.68-2.32.88-4.9,2.4-6.87a2.61,2.61,0,0,1,.83-.72c.41-.23.88-.33,1.32-.53a.75.75,0,0,1,1,.49c.16.74.33,1.47.49,2.21s.31,1.57.41,2.35c.23,1.61.34,3.23.5,4.86.1,1,.21,2,.32,2.94.17,1.58.34,3.16.52,4.74.09.82.16,1.64.26,2.45.57,4.46,1.13,8.92,1.71,13.39.12,1,.28,1.93.42,2.89s.3,2,.46,3.08c.32,2.05.67,4.1,1.08,6.13h0c.17.81.35,1.62.5,2.44s.28,1.58.43,2.37h0v0a19.66,19.66,0,0,0,.51,2c0-.77,0-1.54,0-2.32-.05-3.94-.11-7.89-.17-11.83,0-2.93-.09-5.85-.14-8.78,0-.83,0-1.67,0-2.51,0-1.66,0-3.32,0-5s.08-3.27.15-4.9a33,33,0,0,1,.48-4.55,5.62,5.62,0,0,1,.49-1.76l.21-.31a1.41,1.41,0,0,1,.25-.24,1,1,0,0,1,.63-.22.58.58,0,0,1,.19,0c0-.37,0-.74,0-1.11l.06-2c0-.74,0-1.49.08-2.23,0-.38.07-.75.13-1.12s.16-.84.24-1.25a.75.75,0,0,1,1.49,0c.09.77.21,1.55.3,2.33s.13,1.63.16,2.44c.07,1.64.08,3.28.09,4.91,0,1.23,0,2.46,0,3.68q-.06,4.38-.13,8.76c0,1.58-.1,3.15-.16,4.72s-.11,3-.17,4.46c0,.73,0,1.46-.09,2.19v0s0,0,0-.06h0v.08l-.24,3.91c-.08,1.3-.14,2.6-.24,3.89a.31.31,0,0,0,0-.1c0,.3,0,.6-.07.9-.06.7-.11,1.39-.16,2.08-.1,1.16-.2,2.32-.28,3.47h0c0,.58-.08,1.17-.13,1.76,0,.8,0,1.6-.07,2.4,0,1.2-.06,2.41-.1,3.61,0,.67,0,1.33-.07,2a27,27,0,0,1-.42,4.49,9,9,0,0,1-.5,1.4.78.78,0,0,1-.7.45Z"/>
      <path class="cls-3" d="M1811.33,797.17c.35-.34.7-.69,1-1.06a4,4,0,0,0,.27-.34c.17-.27.33-.53.48-.81l.06-.14c0-.09,0-.19.08-.29s0-.33,0-.49v0a1.09,1.09,0,0,0,0-.18s0,.11,0,.17l0-.07h0l0,.06v.06h0a.66.66,0,0,1,0,.14V794l-.06-.21-.09-.21c0-.07-.07-.14-.11-.2l-.11-.14-.22-.22c-.19-.16-.38-.31-.58-.45l-.39-.22c-.31-.15-.63-.29-1-.41s-.72-.22-1.1-.31l.36.08-.46-.1a4,4,0,0,1,0,.69,3.88,3.88,0,0,1-.46,1.43C1809.86,794.86,1810.6,796,1811.33,797.17Zm2.24,14.2c-1.5-2.49-3-5-4.53-7.46a2.71,2.71,0,0,1-.93-1.51c-1.32-2.15-2.71-4.25-4.1-6.36-.15.21-.3.42-.46.61a4.7,4.7,0,0,1-1.34,1.17,2.92,2.92,0,0,1-2,.31,2.81,2.81,0,0,1-2.28-2c-.61-2,.61-3.87,2-5.33a9.59,9.59,0,0,1-.71-1.34,18.19,18.19,0,0,1-.76-2,3.9,3.9,0,0,1,0-2.09,2.74,2.74,0,0,1,1.92-1.92,2.79,2.79,0,0,1,2.91,1,7.54,7.54,0,0,1,1.17,2.48c.07.23.15.46.22.68a6.19,6.19,0,0,1,2.57-1.36,8.76,8.76,0,0,1,4.34.23,12.33,12.33,0,0,1,4.06,1.88,7.47,7.47,0,0,1,2.44,2.88,7.11,7.11,0,0,1,.57,4.38,8.72,8.72,0,0,1-2,4c1,0,2,0,3-.06a27.64,27.64,0,0,0,2.85-.33c.43-.1.85-.22,1.27-.34s.63-.25.94-.39l.47-.29c.15-.1.28-.21.42-.32l.26-.26a3.46,3.46,0,0,0,.22-.31l0,.09a.54.54,0,0,0,.05-.11l.1-.15-.08.12.08-.15-.09.16a.91.91,0,0,1-.11.16,3.79,3.79,0,0,0,.2-.34c.07-.14.13-.28.19-.42l-.12.33a5.22,5.22,0,0,0,.26-.79,53.65,53.65,0,0,0,.64-5.94c.07-1.29.16-2.59.2-3.88,0-1.63.09-3.27.14-4.89s0-3.41,0-5.11c0-1.18,0-2.35,0-3.53-.07-3.26-.15-6.51-.28-9.76s-.29-6.27-.47-9.41c-.26-4.67-.52-9.35-.62-14,0-2.49-.13-5-.11-7.45,0-4,0-8,.31-11.93,0-.61,0-1.22,0-1.84a5.6,5.6,0,0,1,.42-2,3.16,3.16,0,0,1,1.3-1.52,3.82,3.82,0,0,1,1.81-.45,2.76,2.76,0,0,1,2.63,1.92,2.84,2.84,0,0,1,1.59,2.13,31.9,31.9,0,0,1,.27,4.38c0,1.24,0,2.49,0,3.73.33,1.57.65,3.13,1,4.7l0-.08c.34,1.67.64,3.34.89,5a2.67,2.67,0,0,1,2.15-.63,3.57,3.57,0,0,1,2.61,1.5,7.12,7.12,0,0,1,.84,3q.86,4,1.74,8.1a2.75,2.75,0,1,1-5.3,1.46v0c0,.16-.07.31-.1.47-.1.46-.2.93-.31,1.39-.13.63-.26,1.24-.42,1.86s-.44,1.45-.68,2.16a2.8,2.8,0,0,1-2.28,2,2.93,2.93,0,0,1-2-.5c.06,1,.11,1.9.14,2.86.12,3,.27,6,.33,9,.07,3.34.12,6.68.09,10,0,2.83-.07,5.67-.22,8.49-.08,1.67-.17,3.32-.3,5-.08,1.09-.17,2.18-.31,3.26a15.39,15.39,0,0,1-.62,2.75,10.14,10.14,0,0,1-1.25,2.37,7.82,7.82,0,0,1-2.27,2.05,12.59,12.59,0,0,1-3.21,1.41,26.15,26.15,0,0,1-7.43.8h-1.28c.72,1.18,1.43,2.37,2.15,3.56a2.77,2.77,0,0,1-1,3.76,2.71,2.71,0,0,1-1.37.37A2.77,2.77,0,0,1,1813.57,811.37Z"/>
      <path class="cls-3" d="M1806.66,813.78q-1.77-1.83-3.5-3.69a43.79,43.79,0,0,1-5.6-6.93,8.27,8.27,0,0,1-1.21-4.71,8.62,8.62,0,0,1,.71-2.79,27.51,27.51,0,0,1,.61-3.88c.12-.56.28-1.11.4-1.67a6.89,6.89,0,0,1,.5-1.47,4,4,0,0,1,1.54-1.74,4.18,4.18,0,0,1,1.42-1.22,4.31,4.31,0,0,1,2.6-.59,3.55,3.55,0,0,1,2.27,1.41,7.11,7.11,0,0,1,1.19,4.77c.47.49,1,1,1.47,1.42.79.67,1.61,1.28,2.45,1.87,1.92,1.27,4,2.34,6,3.44a2.76,2.76,0,0,1,1,3.76,2.8,2.8,0,0,1-3.77,1c-1.88-1-3.79-2-5.59-3.18-.52-.33-1-.68-1.52-1-.11.37-.23.74-.37,1.1a8.6,8.6,0,0,1-2.65,3.84c.09.11.18.22.28.32,1.85,2.08,3.75,4.11,5.68,6.11a2.77,2.77,0,0,1,0,3.88,2.74,2.74,0,0,1-2,.8A2.67,2.67,0,0,1,1806.66,813.78Z"/>
      <path class="cls-3" d="M1804.61,1029.06a2.79,2.79,0,0,1-2.37-2.72c-.13-2.17-.25-4.33-.29-6.5,0-1.87-.06-3.74-.1-5.6l-.08,0a2.81,2.81,0,0,1-3-.59,4.79,4.79,0,0,1-1.2-1.81,11.23,11.23,0,0,1-.58-2.42,41.68,41.68,0,0,1-.07-6c0-1.29-.06-2.59-.09-3.87-.1-3.74-.2-7.47-.29-11.21-.08-3-.07-5.94-.11-8.92,0-2.75-.05-5.51-.07-8.26,0-3.09,0-6.18,0-9.27,0-2.77,0-5.56-.08-8.32l0-.26c0-.14-.09-.29-.14-.43a2.75,2.75,0,1,1,5.3-1.46,11.3,11.3,0,0,1,.41,3.57c0,.74,0,1.47,0,2.21v.68c.13-1.85.25-3.7.38-5.56v0h0v0c0-.37,0-.73.07-1.09l-.09-2c0-.87-.08-1.75-.11-2.62-.28-3.52-.58-7-1.21-10.52-.06-.32-.14-.63-.22-.93l0,0a14.37,14.37,0,0,1-.46-1.71A2.8,2.8,0,0,1,1802,930a8.12,8.12,0,0,0,5.09-.26,2.76,2.76,0,0,1,1.68,2.54c-.09,2.3-.13,4.61-.28,6.91,0-.06,0-.12,0-.18v0a.49.49,0,0,1,0-.12v0l-.15,2.21-.09,2.92c-.12,3.52-.23,7-.34,10.55,0,.41,0,.81,0,1.22.08,1.72.15,3.44.23,5.16s.13,3.72.15,5.59l.15,12.75c.13,11.5,0,23-.28,34.5,0,1.66-.07,3.33-.12,5,0,1.08,0,2.17-.07,3.25a22.22,22.22,0,0,1-.36,5,2.76,2.76,0,0,1-2.67,2Z"/>
      <path class="cls-3" d="M1821.16,949.16q.38-3.25.77-6.5a4.42,4.42,0,0,1-.9.38c0,.05,0,.09,0,.13C1821,945.17,1821.06,947.16,1821.16,949.16Zm2,115.64H1823a4.53,4.53,0,0,1-4.5-4.5l.3-5.71a4.58,4.58,0,0,1-1.48.05,4.54,4.54,0,0,1-3.89-4.46c0-1.24,0-2.48.06-3.73,0,.13-.06.26-.08.39a4.61,4.61,0,0,1-3.26,3.73,4.51,4.51,0,0,1-5.08-2.06,17.8,17.8,0,0,1-1.18-2.4,14.57,14.57,0,0,1-.66-3.53,44,44,0,0,1,.15-7.35c.07-1,.11-2,.18-3.06,0,.21,0,.41,0,.62q0-.72.09-1.41c0,.2,0,.4,0,.6,0-.32,0-.65.07-1a4.53,4.53,0,0,1-3.55-3.79c-.16-1.35-.36-2.7-.42-4.07-.07-1.69-.1-3.38-.08-5.07,0-2.75.08-5.52.28-8.26,0,.21,0,.41,0,.61q.57-8.62,1.18-17.24v.11a.76.76,0,0,0,0-.15v0c.08-1,.23-2.07.36-3.11.3-2.36.59-4.73.88-7.09.16-1.25.31-2.5.47-3.76.28-2.26.68-4.52,1.1-6.76s1.14-4.68,1.82-7a4.57,4.57,0,0,1,2.2-2.76c.52-8.21,1-16.43,1.16-24.66a4.55,4.55,0,0,1,4.5-4.5,4.37,4.37,0,0,1,2,.5,4.81,4.81,0,0,1,3.7-.63,6,6,0,0,1,2.36,1,17.44,17.44,0,0,1,1.34,1.23,4.35,4.35,0,0,1,1.3,3.31l.52-.26a4.57,4.57,0,0,1,4.93,1,7.57,7.57,0,0,1,2,3,14.91,14.91,0,0,1,.78,4c.21,2.8-.14,5.61-.17,8.41v0a4.81,4.81,0,0,1,.93-.1,4.54,4.54,0,0,1,4.34,3.31c.4,1.64.86,3.27,1.24,4.92a40.36,40.36,0,0,1,.72,4.77c.38,3.58.47,7.2.52,10.81.06,3.32.11,6.63.14,10q.06,10,.13,19.94c0,3.7,0,7.38-.12,11.08l-.24,10.71c0,1.62,0,3.24-.11,4.85q-.21,4.62-.41,9.21c-.19,4.11-.48,8.19-.8,12.29a4.49,4.49,0,0,1-6.53,3.37c-.12,1.12-.25,2.23-.38,3.35a4.53,4.53,0,0,1-4.45,3.89A4.43,4.43,0,0,1,1823.18,1064.8Z"/>
      <path class="cls-3" d="M1862.46,1059.73c0-.16,0-.32-.07-.48l-.56,0a6.35,6.35,0,0,1-5-2.69,6.06,6.06,0,0,1-4.73,3.67,5.74,5.74,0,0,1-1.94-.06,5.42,5.42,0,0,1-3.83,2.19c-.7.06-1.41.17-2.11.17a7.4,7.4,0,0,1-2.82-.61,8.14,8.14,0,0,1-3.76-3.73c-1.62-3-1.65-6.53-1.83-9.85-.13-1.48-.34-2.94-.51-4.41-.21-1.88-.36-3.77-.5-5.65-.24-3.31-.4-6.62-.55-9.93a9.67,9.67,0,0,1-5.21,1.67c-3,0-5.53-1.76-7.67-3.72a27,27,0,0,1-3-3.41,22.35,22.35,0,0,1-2.41-3.94c-1.29-2.63-2.18-5.41-3.21-8.13-.67-1.76-1.26-3.55-1.82-5.34,0,.16-.07.31-.11.47a26.73,26.73,0,0,1-.61,3.74,6,6,0,0,1-9.45,3.15,6.24,6.24,0,0,1-2.28-3.93,11.15,11.15,0,0,1,.43-4.62c0-.09,0-.19,0-.29-.08-.74-.18-1.48-.31-2.22s-.34-1.25-.53-1.87c-.39-1-.81-2-1.29-3l-.07-.14a7.45,7.45,0,0,1-2.85.65,14.1,14.1,0,0,1-3.42-.6l-2.9-.72-7.34-1.78a54.9,54.9,0,0,1-7.82-2.44l-1.29.27a58.82,58.82,0,0,1-14.13,1.37,38.27,38.27,0,0,1-4.27-.39,14,14,0,0,1-3.59-1,9.78,9.78,0,0,1-3-1.9,8.45,8.45,0,0,1-1.72-2.75,6,6,0,0,1,2.5-7.51c.53-.29,1.06-.56,1.61-.8a9,9,0,0,1,2.4-.54c1-.13,2-.1,3-.14,1.33-.07,2.66-.1,4-.13,2.29,0,4.57-.07,6.86-.07a10,10,0,0,1,.78-2.11,12.14,12.14,0,0,1,2.85-3.6,14.72,14.72,0,0,1,6.94-3.35,18.44,18.44,0,0,1,8.09.41,25.13,25.13,0,0,1,7.42,3.41,50.24,50.24,0,0,1,13.1,12.57,8,8,0,0,1,1.15-2,15.34,15.34,0,0,1,1.69-1.73,6,6,0,0,1,9.77,1.91,28.44,28.44,0,0,1,1.32,3.11c.5,1.42.89,2.88,1.31,4.33.31,1,.63,2.1,1,3.15,1,3.49,2.06,7,3.23,10.44a96.05,96.05,0,0,0,3.47,9c.26.46.52.91.8,1.36.45.61.92,1.19,1.4,1.76l.1.11.45-.48c.15-.18.3-.36.43-.55.39-.6.74-1.22,1.07-1.85q1.37-2.85,2.67-5.73l-.21-8.7c0-2.15,0-4.31,0-6.46,0-3.64,0-7.29.07-10.93,0-2.07.11-4.13.18-6.2.06-1.79.11-3.58.18-5.37.06-2,0-4,0-6a24.34,24.34,0,0,1,.38-4.35,15,15,0,0,1,1.24-3.56,6.07,6.07,0,0,1,6.34-3.61,5.15,5.15,0,0,1,.8.16,6.33,6.33,0,0,1,1.66-3.21,6,6,0,0,1,2.86-1.59,7.79,7.79,0,0,1,1.63-2.37,8.66,8.66,0,0,1,6.31-2.49,7.83,7.83,0,0,1,3.53,1.08,8.42,8.42,0,0,1,2.46,2.3c.32.34.64.66,1,1a5.8,5.8,0,0,1,1.73,4l.73-.48a6.24,6.24,0,0,1,5.24-1,6,6,0,0,1,5.4-1.18,6.09,6.09,0,0,1,4.41,5.78c0,.71,0,1.42.08,2.13a6.3,6.3,0,0,1,.85,1.41,34.46,34.46,0,0,1,1.86,4.38,36.25,36.25,0,0,1,1,5.06,92.16,92.16,0,0,1,.61,11.74c0,2.73.1,5.45.11,8.18q.06,10.37.13,20.73c0,1.38-.12,2.76-.2,4.13q-.36,5.77-.7,11.54l-.51,8.33c-.14,2.42-.5,4.83-.77,7.24l-.81,7.12c-.35,3.08-1,6.1-1.61,9.14a6.19,6.19,0,0,1-3.61,4.72,2.48,2.48,0,0,0-2.43,1.74,8.23,8.23,0,0,1-3.67,2,5.51,5.51,0,0,1-1.59.23A6.13,6.13,0,0,1,1862.46,1059.73Z"/>
      <path class="cls-3" d="M1780.35,1094.87c4.38.06,8.76.11,13.13.11a6.07,6.07,0,0,1,1.88-1.33l-16.6,1.12h0l-.3,0h.15l-.83.06Zm-2.06,12-16.35-.23c-3.63,0-7.26-.2-10.89-.33q-4.33-.15-8.67-.44c-2.93-.21-5.85-.56-8.78-.79-3.83-.22-7.68-.33-11.39-1.43a14.4,14.4,0,0,1-4.67-2.24,9.34,9.34,0,0,1-1.93-2c-.55-.79-1-1.66-1.44-2.49a6,6,0,0,1,3.75-8.83q-3.53-.39-7-1.09a58.9,58.9,0,0,1-8.09-2.56l-.3-.1a6.13,6.13,0,0,1-4.35-5,6.05,6.05,0,0,1,3.61-6.34,37.66,37.66,0,0,1,4.09-1.6c0-.23,0-.45,0-.68a4.65,4.65,0,0,0,.89-5.37,14.69,14.69,0,0,1,0-2.2,9.42,9.42,0,0,1,.61-2,6.29,6.29,0,0,1,2.86-3.14l.5-.25a6.33,6.33,0,0,1-1.69-2.29,6,6,0,0,1,1.28-6.57,14.07,14.07,0,0,1,1.74-1.36l-1.74-.51a6.09,6.09,0,0,1-3.73-3l-1.5-.06a6.1,6.1,0,0,1-6-5.19,5.9,5.9,0,0,1,.12-2.18,6.39,6.39,0,0,1-2.17-4.65,6,6,0,0,1,3.78-5.55q-.2-.33-.39-.69a6.15,6.15,0,0,1,0-6,6.31,6.31,0,0,1,2-2.07,5.8,5.8,0,0,1-1.44-3.86,6.06,6.06,0,0,1,1.73-4.18l-1.14-.25a6,6,0,0,1-2.07-10.54,11.48,11.48,0,0,1,2-1.2,10.33,10.33,0,0,1,3-.66,26.68,26.68,0,0,1,5.13.22c3,.1,6,.06,9,.08l7.38,0,6.6,0-3-.33-10.68-1.23c-4.25-.49-8.41-1.41-12.61-2.22a7.18,7.18,0,0,1-1.91-.65l-5.22-.17c-1.66-.05-3.31,0-5-.05q-1.79,0-3.57-.15a25.43,25.43,0,0,1-4.33-.73,6.05,6.05,0,0,1-4.35-6.6,5.91,5.91,0,0,1,.66-2,12.68,12.68,0,0,1-3.54-1.49,6.1,6.1,0,0,1-2.92-6,6,6,0,0,1,5.13-5.13l4.91-.35a5.78,5.78,0,0,1-.36-1,6,6,0,0,1-.15-2.42c-3.65-.29-7.3-.61-10.94-.87l.29,0-.42,0-.39,0,.29,0-2-.14c-2.94-.2-5.18-3.13-5.18-5.94a6.05,6.05,0,0,1,6-6c2.56,0,5.13.2,7.7.31s5.07.22,7.62.3c5.35.19,10.7.44,16.06.54q12.48.25,25,.41c3.11-.06,6.21-.13,9.32-.22,5.73-.17,11.48-.42,17.21-.5,5.36-.07,10.74-.25,16.1-.21h1.86l1.69,0,6.17,0c3,0,6,.11,8.9.42a5.45,5.45,0,0,1,1.89.57l2.56.1a13.76,13.76,0,0,1,2.92.39,7.07,7.07,0,0,1,2.15,1.1,5.9,5.9,0,0,1,2.34,4.77,6.07,6.07,0,0,1-5.28,6,6.34,6.34,0,0,1-1.23,1.31,13.46,13.46,0,0,1-3.62,2.5,25.15,25.15,0,0,1-4.71,1.38c-3.13.59-6.32.73-9.48,1.07l-7.65.84c-4.31.48-8.63,1-13,1.44q3.09.21,6.16.45c3.54.29,7.07.57,10.58,1,1.53.2,3.07.44,4.58.76,1.81.39,3.56.94,5.33,1.44a6.06,6.06,0,0,1,4.41,5.78,6.16,6.16,0,0,1-2.63,5l5,.57c3.18.37,6.38.75,9.55,1.19,2.13.29,4.24.69,6.34,1.13s4.36,1.24,6.52,1.88a6,6,0,0,1,3.16,9.45,6.24,6.24,0,0,1-3.93,2.28l-1.28.24.32-.06-.32.06-.08,0,.08,0c-1.6.33-3.2.66-4.81.91s-3.22.32-4.83.42l2.48.26c4.27.46,8.5,1.1,12.74,1.73a6,6,0,0,1,5,7.54,8.16,8.16,0,0,1-2.43,4l2.39.63a6,6,0,0,1,4.35,5,6.09,6.09,0,0,1-3.61,6.34l-.53.26c-.58.29-1.15.57-1.74.82l3.34.55a6.07,6.07,0,0,1,5.18,5.94,6,6,0,0,1-2.58,4.9l10,.58c7.65.47,15.31.92,23,1.47,2.94.21,5.18,3.12,5.18,5.94a6.06,6.06,0,0,1-6,6h-5.45a6.11,6.11,0,0,1,4.76,4.64l3.18.06a6,6,0,0,1,4.75,9.67,8,8,0,0,1-3.2,2.61h5.62a6,6,0,0,1,.82,11.94c-2.16.24-4.3.31-6.48.38l-9.46.31c-2.94.1-5.88.21-8.81.36-10,.53-20,1.1-29.93,1.6h.15l.2,0h.1l.23,0h0l-.29,0H1815l-.34,0h0l-.26,0h-.1l-.64,0h.05l-1,.06h.18l-12.6.86c.93.12,1.86.26,2.78.42s2.13.23,3.15.51a9.07,9.07,0,0,1,2.1.85,8.77,8.77,0,0,1,2.17,2,6,6,0,0,1,.77,6,6.09,6.09,0,0,1-5.52,3.67q-6.17.18-12.33.17C1788.35,1107,1783.32,1106.91,1778.29,1106.84Z"/>
      <path class="cls-3" d="M1924.36,1118.24c.07-3.42.13-6.85.2-10.27l-.06-1.39-.09-1.78Q1924.38,1111.52,1924.36,1118.24Zm-12.09,30.35c0-.9,0-1.79,0-2.69l0-1.15q0-3.32-.11-6.62c0-2-.14-3.93-.26-5.9-.4-6.81-.83-13.62-1.21-20.43-.87-11.29-1.78-22.57-2.65-33.86a2.83,2.83,0,0,1,0-.3,5.46,5.46,0,0,1-1.07.1,6.06,6.06,0,0,1-5.78-4.41c-.63-2.15-1.33-4.28-1.78-6.49l-.63-3.11-1.74-8.57c-.89-4.37-1.55-8.8-2.32-13.2-.32-1.86-.5-3.76-.75-5.63-.26-2-.56-4.07-.72-6.12-.26-3.2-.57-6.37-.55-9.58a59.76,59.76,0,0,1,.51-6.4,24.26,24.26,0,0,1,1-4.7,6.22,6.22,0,0,1,2.76-3.58,5.88,5.88,0,0,1,5.65-.21c0-2,0-4,0-6.08,0-5.78,0-11.56.14-17.35a6,6,0,0,1,12,0q.16,5.63.37,11.25c0-1.38,0-2.76,0-4.15a32.23,32.23,0,0,1,.65-6.86,11.1,11.1,0,0,1,2.64-5.07,6.35,6.35,0,0,1,2.61-1.78,9.06,9.06,0,0,1,3.35-.45,6.06,6.06,0,0,1,4.24,1.75,6.36,6.36,0,0,1,1.76,4.25v.12c0,.16,0,.31,0,.46v-.07l0,.42c0,.28,0,.55.05.82a6,6,0,0,1,2.55-.57,6.07,6.07,0,0,1,6,6c0,1.91.09,3.81.14,5.72h.37c-.06-5.82-.1-11.65-.16-17.47-.16-15.66,0-31.32,0-47a6,6,0,0,1,1.61-4.06,5.28,5.28,0,0,1-1.3-3c0-.27,0-.54,0-.81v0c-.07-1.54,0-3.09,0-4.64s0-3.17,0-4.76q0-4.32,0-8.64c0-5.32,0-10.62,0-15.94,0-11.24.06-22.48.16-33.72.07-7.58.13-15.17.29-22.76l-.27-6.91a103.38,103.38,0,0,1,.21-14.83,14.39,14.39,0,0,1,1-4.13c0-.41,0-.82,0-1.24a6.46,6.46,0,0,1,1-3.3q0,175,0,350.11a6.18,6.18,0,0,1-3.86,3.25,6,6,0,0,1-6.35-2.11,9.67,9.67,0,0,1-1.39-2.71,6.15,6.15,0,0,1-5.74-4.41c-.13-.38-.27-.79-.39-1.19v1.59c0,1.06,0,2.12,0,3.17a6.22,6.22,0,0,1-1.76,4.24,6,6,0,0,1-10.24-4.24Z"/>
      <path class="cls-3" d="M1749.91,1091.3c.25.19.5.4.75.62l-.54-2.15Zm-.52,126.2a8,8,0,0,0-10.33-7.42,8.25,8.25,0,0,1-1.22-.09,11.58,11.58,0,0,1-5.89,3.64l-.2.06h0a9.42,9.42,0,0,1-7.65-.74c-.25-.15-.49-.3-.72-.47a9.69,9.69,0,0,1-7.63,4,9.35,9.35,0,0,1-9.16-8,10.55,10.55,0,0,1-.12-1.13,4.14,4.14,0,0,1-.48-.34,9.68,9.68,0,0,1-3.51-6.07c-1-5-.54-10.16-.55-15.25v-7.09a8.34,8.34,0,0,1-1.86-4.44l-.09-1.25h0v-.06c-.23-4.29,0-8.61.06-12.91,0-2.37,0-4.73.09-7.09l.15-10.53v-3.85a9.28,9.28,0,0,1-.76-3.6c0-7.38.21-14.77.45-22.15q0-5.67,0-11.32,0-6.81.1-13.6c0-5.39,0-10.77.59-16.12a8.45,8.45,0,0,1,.19-1.12c0-2.41.05-4.81.07-7.22.1-11,0-21.89,0-32.81a9.35,9.35,0,0,1,6.36-8.77c0-3.08,0-6.17,0-9.24a9.25,9.25,0,0,1,18.5,0c.15,7.6.39,15.21.63,22.81a9.09,9.09,0,0,1,3.76,4.31,71.21,71.21,0,0,1,3,8.09c.77,2.77,1.28,5.63,1.85,8.46l0-.21c.53,2.64,1,5.29,1.52,7.94.24-.73.51-1.46.82-2.18a18.84,18.84,0,0,1,3.49-5.23c1.47-1.6,3.53-2.42,5.36-3.49a9.31,9.31,0,0,1,7.13-.93,9.57,9.57,0,0,1,6.06,5.32l.1.19c.89,1.73,1.79,3.44,2.57,5.21a43.19,43.19,0,0,1,2,6.16c.76,2.71,1.36,5.46,2,8.18q1.37,5.43,2.72,10.9c.35,1.41.7,2.82,1.06,4.24a9.36,9.36,0,0,1,5.24.23c.91-4.93,1.81-9.85,2.87-14.75.7-3.8,1-7.62,2.54-11.22a12.68,12.68,0,0,1,11.14-8.29l-.11,0a9.51,9.51,0,0,1,6.72,1,9.39,9.39,0,0,1,4.25,5.53c.49,1.73,1,3.44,1.51,5.17.61,2.15,1,4.35,1.46,6.54,0,.25.1.49.14.73l.21-.3c1.17-8.23,2.49-16.44,4.22-24.56.39-2,.7-4.08,1.06-6.12a48.1,48.1,0,0,1,2.15-8.1,18.15,18.15,0,0,1,4-6.53,13.89,13.89,0,0,1,3.38-2.51c1.16-.59,2.36-1,3.53-1.58a8.39,8.39,0,0,1,4.44-.69c.19-1.76.39-3.51.62-5.26q.39-3,.81-5.9c0-1.3,0-2.59,0-3.88a9,9,0,0,1,1.19-4.51c0-.38.11-.76.16-1.14,2.55-18.33,4.89-36.7,9-54.76.09-.37.18-.75.26-1.12.85-4.55,1.15-9.25,2.83-13.6a20.2,20.2,0,0,1,4.2-6.63,9.39,9.39,0,0,1,2.85-2q-.66-12.56-1.29-25.14c-.2-3.92-.21-7.87-.31-11.8l-.63-23.53c-.27-10.47-.2-20.92-.2-31.39,0-6.34,0-12.66.19-19q.18-7.64.35-15.26.24-10.7,1.2-21.35c.06-1.39.09-2.78.18-4.17a19.35,19.35,0,0,1,1.26-5.56,11,11,0,0,1,4.47-5.29,12.62,12.62,0,0,1,6.06-1.46,9.29,9.29,0,0,1,8.92,6.8,87.65,87.65,0,0,1,2.2,10.9c.19,1.47.37,3,.54,4.42.35,3,.69,6,1,9,.32,2.68.46,5.39.69,8.07.25,2.85.49,5.7.74,8.54.52,6,.91,11.94,1.37,17.9.42,5.49.91,11,1.37,16.48,1.81,21.63,3.86,43.24,5.71,64.88.94,11,1.66,22,2.35,33,0,.1,0,.2,0,.3a9.34,9.34,0,0,1,4.1-5.05,9.05,9.05,0,0,1,7.13-.93c.8.28,1.64.49,2.43.81a12.13,12.13,0,0,1,3.12,1.8,13.43,13.43,0,0,1,3.8,5.39c1.5,3.46,1.54,7.39,1.74,11.1.27,3.48.6,6.94.72,10.43.09,2.39.12,4.79.12,7.19a9.62,9.62,0,0,1,0,7.41c0,1.45-.11,2.89-.15,4.33q-.33,10.3-.67,20.6c-.06,1.8-.25,3.59-.39,5.39-.33,3.86-.64,7.73-1,11.59-.43,5.32-1,10.61-1.59,15.91-.32,2.86-.58,5.74-1,8.58l.06,1.13a9.19,9.19,0,0,1,3.16-1,9.36,9.36,0,0,1,10.42,7.91c.29,1.84.6,3.66.76,5.52.18,2,.29,4.09.38,6.13.19,4.24.2,8.49.31,12.72,0,2,.07,3.92.11,5.88s.08,3.68.11,5.52c.09.46.17.91.26,1.36l.21,1.1a8.59,8.59,0,0,1,4.75,5.77c.36,1.66.74,3.32,1,5,.31,1.86.43,3.76.58,5.64l.12,1.68q.56,2.54,1,5.1a9.21,9.21,0,0,1,10.84.33l.46.34c-.32-.23-.65-.45-1-.67a18.19,18.19,0,0,1,3.33,2.75q0,44.06,0,88.13l-.81-.28a11,11,0,0,1-2.66-1.52,9,9,0,0,1-2.11-2.35,9.84,9.84,0,0,1-.9-.5,9.54,9.54,0,0,1-11.61,1.85,11.21,11.21,0,0,1-5.76-7.11l-.4.5a9.25,9.25,0,0,1-16.24-3.2c-.33-1.19-.67-2.36-1-3.54a9.43,9.43,0,0,1-10.26-.22c0,.1-.1.2-.16.3a12.34,12.34,0,0,1-5.28,5,9.37,9.37,0,0,1-8.27.54,9.59,9.59,0,0,1-4.37-3.78,9.06,9.06,0,0,1-1.2.43,9.37,9.37,0,0,1-9.78-3.27c-.36-.47-.72-.94-1.06-1.43a9.67,9.67,0,0,1-3.35,3.29,9.34,9.34,0,0,1-8.27.54,14.48,14.48,0,0,1-2-1,8.93,8.93,0,0,1-4.52,2.9,9.17,9.17,0,0,0-11.8.6,9.74,9.74,0,0,1-6.56-.58c-.19.22-.39.43-.6.65a10.27,10.27,0,0,1-8.13,2.76,11.51,11.51,0,0,1-4-1,9.57,9.57,0,0,1-12.05,1.77,9.26,9.26,0,0,1-2.37,1.88,12.24,12.24,0,0,1-3.84,1.41,34.37,34.37,0,0,1-3.66.19,8.09,8.09,0,0,1-4.23-1,9.42,9.42,0,0,1-4,4.69,9.6,9.6,0,0,1-8.27.53l-.85-.32a9.37,9.37,0,0,1-6.56,4.2,9.58,9.58,0,0,1-5.58-1c-.1.24-.21.48-.32.73a9.4,9.4,0,0,1-8.54,5.65A8.73,8.73,0,0,1,1749.39,1217.5Z"/>
      <path class="cls-3" d="M1716.15,1227.37a9.61,9.61,0,0,1-8.06-6,9.5,9.5,0,0,1,0-7.2,9.25,9.25,0,0,1,6.06-5.32A44.48,44.48,0,0,1,1725,1208l6.19,0,.14-.33a12.36,12.36,0,0,1,1.7-2.86,9.25,9.25,0,0,1-.91-17.37,22,22,0,0,1,5.93-1.52,47.72,47.72,0,0,1,6.55-.12c1.58,0,3.17.12,4.76.2l11.74.61c6.5.33,13,.87,19.49,1.33h0l.78.06-.58,0c3.68.24,7.37.51,11.05.79q10.51,0,21,0c21.64,0,43.3.82,64.92,1.71,6.35.27,12.69.58,19,1,3.07.2,6.13.5,9.2.78a79.46,79.46,0,0,1,8.57,1.15,11.58,11.58,0,0,1,3.54,1.27l.87,0c2.74,0,5.5.19,8.24.1a13.73,13.73,0,0,1,6.66.87,8.66,8.66,0,0,1,3.34,2.48c1.57,0,3.13.14,4.69.29V1221c-1.42.14-2.84.25-4.27.35q-6.13.42-12.27.58c-7.51.21-15,.67-22.51,1.15-5.45.44-10.92,1-16.38,1.23-5.76.21-11.51.32-17.26.39-7.27.08-14.54-.12-21.79-.48a8.58,8.58,0,0,1-1,0c-.63,0-1.27,0-1.91,0-2.25,0-4.51.11-6.76.19-5.21.2-10.43.44-15.63.77s-10.14.73-15.22.95c-2.66.11-5.32.3-8,.26-4.78-.08-9.84.21-14.44-1.2a9.46,9.46,0,0,1-1.37-.53c-4.43.34-8.87.75-13.32.94q-9,.39-17.9.78c-1.43.06-2.85.05-4.28,0h-2.13l-9.63.07h-10.72a10.28,10.28,0,0,1-3.94.9c-1,0-2,.07-3,.07C1717.61,1227.46,1716.88,1227.44,1716.15,1227.37Z"/>
      <path class="cls-3" d="M1938.7,1212.28a59.7,59.7,0,0,1-1-8.1c0-.34-.06-.68-.08-1a9.25,9.25,0,0,1-4.43-6.69c-.49-4-.7-8.09-.88-12.13a81.3,81.3,0,0,1,.12-10.7,11,11,0,0,1,3.2-7,8.63,8.63,0,0,1,1.78-2.56,9.24,9.24,0,0,1,4.58-2.5q0,27.81,0,55.59A8.36,8.36,0,0,1,1938.7,1212.28Z"/>
      <path class="cls-3" d="M1837.22,592.74v-1a16.7,16.7,0,0,1-.44-3,33.52,33.52,0,0,1,.11-3.47c.09-1.59.16-3.18.25-4.77a39.6,39.6,0,0,1,.12-7.14,9.35,9.35,0,0,1,.55-2,13.78,13.78,0,0,1,.45-2.1,9.25,9.25,0,0,1,18.08,1.2c.09.66.15,1.31.19,2a12.58,12.58,0,0,1,.38,2.89c0,1,0,2-.11,2.94-.1,1.63-.13,3.29-.32,4.92-.21,1.79-.42,3.56-.71,5.33,0,1.4,0,2.8,0,4.2a9.58,9.58,0,0,1-2.72,6.54,9.24,9.24,0,0,1-15.78-6.54Z"/>
      <path class="cls-3" d="M1907.14,803.07a19.21,19.21,0,0,1-.49-4.4l-.12-.44a56.23,56.23,0,0,1-1.42-6.8c-.58-4.41,2.24-9.14,6.7-10.18l.28-.06a10,10,0,0,1,7.14.88,9.56,9.56,0,0,1,6.11,6.6,7.44,7.44,0,0,1,.28,1.42,17.4,17.4,0,0,1,.58,3.45,25.49,25.49,0,0,1,.07,4.54,13.69,13.69,0,0,1-.92,3.57,14.11,14.11,0,0,1-.37,1.42,9.25,9.25,0,0,1-17.84,0Z"/>
      <path class="cls-3" d="M1936.31,783.65a11.43,11.43,0,0,1,1.17,0l-.93,0Zm-4.43,35a8.69,8.69,0,0,1-3.42-2.85,9.14,9.14,0,0,1-2.14-4.4,35.83,35.83,0,0,1-2.72-10.84,20,20,0,0,1,1.4-9.42,9.72,9.72,0,0,1-.46-3.71,9.93,9.93,0,0,1,2.41-5.56,8.17,8.17,0,0,1,3.31-2.42,9.42,9.42,0,0,1,9.63-2.26,8.85,8.85,0,0,1,2.11,1v39.24a9.44,9.44,0,0,1-2,1.31,8.92,8.92,0,0,1-3.84.87A10.55,10.55,0,0,1,1931.88,818.65Z"/>
      <path class="cls-3" d="M1823.62,688.46a9,9,0,0,0,1.77-1.19l.3-.18a1.51,1.51,0,0,1-1.29,1.48h-.19A1.52,1.52,0,0,1,1823.62,688.46Z"/>
      <path class="cls-3" d="M1834.81,687.55a1.52,1.52,0,0,1-1.49-1.29c0-.29-.07-.58-.11-.87s-.07-.45-.09-.68v-.59a1.53,1.53,0,0,1,1.15-1.28l.1,0h.06l.16,0a1.34,1.34,0,0,1,.6,0,1.51,1.51,0,0,1,1.3,1.67q-.06.47-.09.93a4.84,4.84,0,0,1-.14,1.08,1.53,1.53,0,0,1-1.45,1.13Z"/>
      <path class="cls-3" d="M1845.62,687a5.21,5.21,0,0,1-.22-1.23,2.75,2.75,0,0,1-.15-.36,1.56,1.56,0,0,1,1.07-1.86,1.42,1.42,0,0,1,1.28.25,1.53,1.53,0,0,1,1.14,1.64c0,.18,0,.37-.07.55a3,3,0,0,1-.47,1.31,1.4,1.4,0,0,1-1.19.6A1.48,1.48,0,0,1,1845.62,687Z"/>
      <path class="cls-3" d="M1860.36,686a6.35,6.35,0,0,1-.18-1l-.12-.63s0,0,0-.07h0v0h0v0l0,.06h0a1.55,1.55,0,0,1,.14-1.08,1.54,1.54,0,0,1,.47-.51,1.5,1.5,0,0,1,2.91.64c0,.34-.06.69-.09,1a5.54,5.54,0,0,1-.31,1.62,1.53,1.53,0,0,1-1.38.94h0A1.51,1.51,0,0,1,1860.36,686Z"/>
      <path class="cls-3" d="M1876.79,685.12a2.53,2.53,0,0,1-.27-1.15c0-.23,0-.46,0-.69a10.44,10.44,0,0,1,0-1.37,1.5,1.5,0,0,1,1.67-1.3,1.48,1.48,0,0,1,1.25,1.11.29.29,0,0,1,0,.09,10.17,10.17,0,0,1,.16,1.47,4.34,4.34,0,0,1-.08,1.44,1.52,1.52,0,0,1-1.25,1.12h-.19A1.5,1.5,0,0,1,1876.79,685.12Z"/>
      <path class="cls-3" d="M1887.15,687.14a1.64,1.64,0,0,1-.49-1h3a.37.37,0,0,1,0,.11,1.47,1.47,0,0,1-.89,1.19,1.34,1.34,0,0,1-.58.12A1.61,1.61,0,0,1,1887.15,687.14Z"/>
      <path class="cls-3" d="M1911.18,688.27l1.46.59.19.08-.16,0h-.19A1.55,1.55,0,0,1,1911.18,688.27Z"/>
      <path class="cls-3" d="M1897.6,760.07c0-.83,0-1.67,0-2.51a6,6,0,0,1,.21-1.68,1.55,1.55,0,0,1,1.22-.94,1.51,1.51,0,0,1,1.69,1.28,1.45,1.45,0,0,1-.09.75,29,29,0,0,0,0,3.09,1.5,1.5,0,0,1-1.49,1.5h0A1.52,1.52,0,0,1,1897.6,760.07Z"/>
      <path class="cls-3" d="M1933.06,763.67a1.51,1.51,0,0,1-1.5-1.48h3a1.52,1.52,0,0,1-1.5,1.48Z"/>
      <path class="cls-3" d="M1934.09,764.07a1.51,1.51,0,0,1-1.3-1.67,1.23,1.23,0,0,1,0-.2h3a5.51,5.51,0,0,1-.06.57,1.5,1.5,0,0,1-1.49,1.31Z"/>
      <path class="cls-3" d="M1804.73,761.62a5.65,5.65,0,0,0,.11-.68c.07.3.12.6.17.9.11.53.2,1.07.3,1.61a1.45,1.45,0,0,1-.58,1.39Z"/>
      <path class="cls-3" d="M1766.83,989.12a1.73,1.73,0,0,1-.24-1.31,2.41,2.41,0,0,1,.42-.79c.1-.18.2-.35.29-.53l.19-.51c0-.19.09-.39.13-.58s0-.15,0-.22c.1-.77.17-1.53.22-2.3.06-1.57.09-3.13,0-4.71s-.09-3.26-.17-4.88-.2-3.48-.31-5.22c0-.07,0-.14,0-.22a2,2,0,0,1-.06-.26,14.24,14.24,0,0,1-.2-1.48c-.11-1.17-.18-2.34-.22-3.52,0-.87,0-1.73-.06-2.6,0-.17,0-.34,0-.51s0-.35,0-.53c0-1.54-.14-3.09-.16-4.64h.47s0,0,0,0a0,0,0,0,0,0,0s.06-.21,0-.65V875.57l0-.39v0c0-1,.13-2,.13-3.05s0-2.16,0-3.24,0-2.45,0-3.67c0-.54,0-1.07,0-1.6,0-.36,0-.72,0-1.08a9.28,9.28,0,0,1,.08-1,5.07,5.07,0,0,1,.29-1,1.51,1.51,0,0,1,2.12-.77,2.86,2.86,0,0,1,.92.69,3.46,3.46,0,0,1,.58,1.11,9.86,9.86,0,0,1,.3,1.33c.12.62.23,1.23.31,1.86,0,.15,0,.3,0,.45a6.35,6.35,0,0,1,.34,1.07c.1.52.16,1,.21,1.57.06.72.09,1.44.13,2.16l.12,2.48c.06,1.18.11,2.37.17,3.55,0,.51.07,1,.07,1.54,0,3.59.08,7.18.12,10.77,0,1,0,2-.07,3a.75.75,0,0,1,0,.16,12.35,12.35,0,0,1,.17,1.49c0,.66.07,1.33.08,2,0,.88,0,1.75,0,2.62,0,1.63.08,3.27.08,4.9,0,3.33,0,6.66,0,10,.07,7,.19,14,.31,21,0,2.6,0,5.19,0,7.79,0,.15,0,.3,0,.46q.4,10.93.82,21.87c0,.47,0,.94,0,1.4.15-1.87.28-3.75.43-5.62.25-3.19.46-6.38.69-9.57.19-2.68.38-5.35.54-8,.26-4.11.54-8.21.77-12.32a1.21,1.21,0,0,1,0,.19,1.55,1.55,0,0,0,0-.22v0q.33-6.71.7-13.41a1.15,1.15,0,0,1,0,.19c0-.09,0-.19,0-.28v.19c0-.84.1-1.68.16-2.52.1-1.67.22-3.33.33-5,.06-1,.13-2,.2-3.08.07-1.22.13-2.45.27-3.67a11.56,11.56,0,0,1,.45-2.18,6.86,6.86,0,0,1,.32-.79,7.74,7.74,0,0,1,.62-.88,1.51,1.51,0,0,1,2.7.69c.09.5.2,1,.27,1.49s.12,1.06.16,1.58c0,.68.07,1.35.11,2,.07,1.09.13,2.18.19,3.26.11,1.68.17,3.37.25,5.06.16,3.35.21,6.71.31,10.07,0,1.19,0,2.38,0,3.57,0,2.29,0,4.59,0,6.88,0,3,0,5.91,0,8.86,0,3.8,0,7.6-.08,11.39l0-.66h0v-.07h0v-.07h0q.42-7.89.91-15.79c0-.07,0-.13,0-.2s0,.13,0,.19c.06-1.25.16-2.51.25-3.76.15-2.39.31-4.78.46-7.16.09-1.43.16-2.85.29-4.26.2-2.37.36-4.73.66-7.08.14-1.09.32-2.18.54-3.26s.43-2.14.7-3.21a8.94,8.94,0,0,1,2-4.07,4.19,4.19,0,0,1,1.84-1.13,4.38,4.38,0,0,1,2.21.16,1.5,1.5,0,1,1-.73,2.91l-.54-.13-.19,0h0l-.29.18,0,0,0,0-.06,0,.05,0-.05,0v0l-.13.13c-.06.07-.11.15-.17.23a6.08,6.08,0,0,0-.33.62,8.93,8.93,0,0,0-.37,1,20.78,20.78,0,0,0-.51,2c-.17.8-.35,1.61-.51,2.42-.36,2-.58,4.08-.76,6.13-.12,1.37-.26,2.75-.35,4.12s-.19,3-.28,4.49l-.63,9.72v.05c-.28,5.29-.6,10.59-.92,15.88h0v-.05h0c-.26,4.83-.57,9.66-.83,14.49h0v.06h0V967c-.09,1.64-.2,3.28-.3,4.92s-.2,3.5-.32,5.25v.1c0-.06,0-.12,0-.19,0,1.11-.14,2.22-.22,3.33s-.14,2.22-.22,3.33a12.88,12.88,0,0,1-.17,3.34,2.49,2.49,0,0,1-.78,1.25,2.52,2.52,0,0,1-1.33.45,1.51,1.51,0,0,1-1.69-1.28c-.11-1.15-.25-2.29-.36-3.44s-.14-2.45-.15-3.68c0-2.16,0-4.32.07-6.48,0-1.68.05-3.35.08-5,0-3,.1-6,.13-9q.11-11.16.16-22.31,0-4.27,0-8.55,0-3.06,0-6.12c0-1.22-.06-2.43-.09-3.64,0-1.66-.09-3.32-.15-5l-.12,1.9h0a2.46,2.46,0,0,0,0,.28c0-.07,0-.13,0-.19q-.33,6.72-.7,13.45h0c0,1.18-.15,2.37-.22,3.55l-.45,7.19c-.16,2.63-.34,5.27-.52,7.9-.25,3.53-.47,7.07-.76,10.6-.27,3.34-.48,6.7-.79,10q-.28,3.12-.59,6.23c-.11,1.07-.23,2.13-.35,3.19-.06.49-.11,1-.16,1.48s-.11,1.26-.2,1.89a14,14,0,0,1-.47,2,1.5,1.5,0,0,1-2.94-.16c0-.07,0-.14-.05-.21-.09-.44-.19-.88-.27-1.33,0-.26-.08-.52-.1-.78a1.77,1.77,0,0,1-.4,0,1.48,1.48,0,0,1-1.13-.77,38.55,38.55,0,0,1-.18,3.87c0,.48-.1.94-.18,1.41a7.8,7.8,0,0,1-1,2.71,1.49,1.49,0,0,1-1.48,1.34A1.5,1.5,0,0,1,1766.83,989.12Z"/>
      <path class="cls-3" d="M1812.8,694.76a.76.76,0,0,1,.28-1,2.39,2.39,0,0,1,.22-.12l.26-.15c1.87-1.06,3.72-2.16,5.6-3.2l1.31-.71c.65-.39,1.3-.76,2-1.12a3.08,3.08,0,0,0,.59-.33l.4-.19a.82.82,0,0,1,.38,0l.57-.31,1.15-.65h0l.07,0h0c.55-.31,1.09-.61,1.63-.93a6.21,6.21,0,0,1,.6-.35,1,1,0,0,1,.4-.1.7.7,0,0,1,.29,0,.74.74,0,0,1,1,.66.9.9,0,0,1-.52.8c-.17.1-.33.22-.5.33l-1.28.83c-.78.51-1.58,1-2.37,1.5s-1.72,1.08-2.59,1.6l-.2.12-.07.05-.64.43a5.47,5.47,0,0,1-.71.41c-.22.14-.43.28-.66.41a.81.81,0,0,1-.66.07,5.27,5.27,0,0,1-1,.46l-.07,0c-.29.17-.58.34-.86.52a.92.92,0,0,1-.25.15,4.44,4.44,0,0,1-.71.21l-.47.09h0a2.64,2.64,0,0,0-.38.18l-.19.12a1,1,0,0,1-.38.11l-.27.12c-.28.13-.57.23-.86.35l.1,0a2.32,2.32,0,0,1-.37.13h-.14A.77.77,0,0,1,1812.8,694.76Z"/>
      <path class="cls-3" d="M1820.82,690.31a.77.77,0,0,1,.36-1l.17-.08.17-.1a7,7,0,0,1,.75-.44.58.58,0,0,1,0-.14,4.14,4.14,0,0,0,.72-.38l.11-.06a3.11,3.11,0,0,1,.41-.2l.06,0-.06,0-.06,0,.3-.14h0l0,0,0,0c.19-.1.39-.17.58-.28.38-.21.75-.45,1.13-.68a1.92,1.92,0,0,1-.31.18,10.76,10.76,0,0,0,1.07-.68l0,0-.07,0-.06,0,.06,0,.07,0,.7-.5a5.9,5.9,0,0,0,.87-.44l.29-.13-.18.08.33-.15a.62.62,0,0,1,.22.1h0a.75.75,0,0,1,.54,1.19,1.43,1.43,0,0,1-.42.35l-.09.06a.7.7,0,0,1-.19.26,5.48,5.48,0,0,1-.6.38l-1,.62-1.19.71-.53.3a6.42,6.42,0,0,1-1.11.48,1.27,1.27,0,0,1-.28,0l-1.06.56.06,0-.1,0a2.77,2.77,0,0,1-.64.38,1,1,0,0,1-.32.06A.75.75,0,0,1,1820.82,690.31Z"/>
      <path class="cls-3" d="M1912.38,690.17a1,1,0,0,1-.08-.24l-.07-.06a.88.88,0,0,1-.79-.27,2.59,2.59,0,0,1-.37-.5l0,.08c-.1-.19-.19-.39-.29-.58h-.08l-1.66,0h-2.26c-.68,0-1.35,0-2,0a1,1,0,0,1-.34-.07.62.62,0,0,1-.19.12,2,2,0,0,1-.89.07l-.82,0-.7,0a.7.7,0,0,1-.24.13,5.63,5.63,0,0,1-1.42.09h-1.07l-2,0c-1.42,0-2.85-.08-4.26-.19a.71.71,0,0,1-.38-.15h0a7.13,7.13,0,0,1-.8,0,.81.81,0,0,1-.49-.26.86.86,0,0,1-.26-.2.63.63,0,0,1-.23-.12.73.73,0,0,1-.24-.29l-.07,0a.89.89,0,0,1-.31-.27.77.77,0,0,1,.41-1.12,6.77,6.77,0,0,1,1.27-.14h.59a2.41,2.41,0,0,1,.38,0h2.71c.48,0,1,0,1.43,0l2.9,0c1,0,2,0,3.06,0l3.1.09.51,0h1.88l1.79.06,1.75.07h.24s0,0,0,0l.36,0,.4,0a3.11,3.11,0,0,0,.6-.09l.13,0a.93.93,0,0,1,.14.14,2.63,2.63,0,0,0-.13.7,6.47,6.47,0,0,0,.1,1.32v.28a5.28,5.28,0,0,0,0,1.68.79.79,0,0,1-.54.4l-.13,0A.77.77,0,0,1,1912.38,690.17Z"/>
    </g>
  </g>
  <g id="parent-building10_layer-windows_side-a">
    <g class="cls-5">
      <path class="cls-6" d="M1836,654.06l1.58-.49v26.89l-1.58.65Z"/>
      <path class="cls-6" d="M1838.1,653.39l.7-.22,1.18-.4v26.71c-.63.24-1.25.49-1.88.75Z"/>
      <path class="cls-6" d="M1840.53,652.58c1.09-.38,2.17-.77,3.27-1.1v26.65a25.88,25.88,0,0,0-2.57.87l-.7.26Z"/>
      <path class="cls-6" d="M1836,624.1c.53-.34,1.06-.69,1.58-1.05v24.18l-1.58.66Z"/>
      <path class="cls-6" d="M1838.1,622.67l1.09-.71c.26-.17.52-.34.79-.5v24.77l-.26.1-1.62.67Z"/>
      <path class="cls-6" d="M1840.53,621.12c.83-.5,1.67-1,2.52-1.46l.75-.42v25.57c-1.1.35-2.19.77-3.27,1.2Z"/>
      <path class="cls-6" d="M1836,590.32s0,0,0,0l1.54-1.06v27l-1.58,1Z"/>
      <path class="cls-6" d="M1838.1,588.84l1.88-1.4V614.6l-1.41,1-.47.32Z"/>
      <path class="cls-6" d="M1840.53,587l2-1.52,1.29-1v27.58c-.31.19-.62.38-.92.58-.79.5-1.57,1-2.35,1.53Z"/>
      <path class="cls-6" d="M1836,578l.24-.12,1.21-.59.13-.06v4.32l-1.58,1.19Z"/>
      <path class="cls-6" d="M1838.1,577l1.47-.76.41-.21v3.72l-1.87,1.42h0Z"/>
      <path class="cls-6" d="M1840.53,575.71c1.09-.57,2.17-1.13,3.27-1.66v2.79l-.43.32-1.7,1.28-1.14.86Z"/>
      <path class="cls-6" d="M1836,556.82l1.57-1.43v17.38c-.52.19-1,.38-1.57.55Z"/>
      <path class="cls-6" d="M1838.1,555.07a13.06,13.06,0,0,0,1.17-1l.71-.58v18.29l-1.88.74Z"/>
      <path class="cls-6" d="M1840.53,553.08l.84-.67c.8-.64,1.62-1.28,2.43-1.9V570.2a24.33,24.33,0,0,0-2.52,1.1l-.68.27-.07,0Z"/>
      <path class="cls-6" d="M1823.43,766.63c-1.25-.07-2.5-.12-3.74-.15V750.31l8.11-2.29v19C1826.35,766.83,1824.89,766.71,1823.43,766.63Z"/>
      <path class="cls-6" d="M1819.69,722.35l8.11-3.37v26.79l-8.11,2.29Z"/>
      <path class="cls-6" d="M1819.69,695.92l1.62-.88c1.49-.79,3-1.54,4.5-2.34.67-.36,1.33-.73,2-1.11v25.33l-8.11,3.37Z"/>
      <path class="cls-6" d="M1817.87,766.44c-1.86-.05-3.72-.05-5.59-.07v-14l6.57-1.86v15.92Z"/>
      <path class="cls-6" d="M1812.28,725.43l6.57-2.74v25.6l-6.57,1.86Z"/>
      <path class="cls-6" d="M1812.28,700.1c1.35-.76,2.7-1.54,4-2.31h0l2.53-1.41v24.26l-6.57,2.73Z"/>
      <path class="cls-6" d="M1807.73,766.26l-1.09-.32V754l5.12-1.44v13.81C1810.42,766.34,1809.07,766.31,1807.73,766.26Z"/>
      <path class="cls-6" d="M1806.64,727.77l5.12-2.13V750.3l-5.12,1.45Z"/>
      <path class="cls-6" d="M1806.64,703.29l2.64-1.49,2.48-1.4v23.19l-5.12,2.13Z"/>
      <path class="cls-6" d="M1791.91,955.45l-4.3,0V926.13l6.86.52v28.86C1793.61,955.49,1792.77,955.46,1791.91,955.45Z"/>
      <path class="cls-6" d="M1787.61,924V895.74h6.86v28.74Z"/>
      <path class="cls-6" d="M1787.62,893.58V864.33h6.84v29.25Z"/>
      <path class="cls-6" d="M1787.62,862.17V834.38l6.84-.61v28.4Z"/>
      <path class="cls-6" d="M1787.62,804.61l6.84-1.08V831.6l-6.84.61Z"/>
      <path class="cls-6" d="M1787.62,773.07l.6-.15,4.78-1.22,1.47-.33v30l-6.85,1.08Z"/>
      <path class="cls-6" d="M1785.11,955.39l-4.27,0V925.6l5.66.44V955.4Z"/>
      <path class="cls-6" d="M1780.84,923.44v-27.7h5.66v28.13Z"/>
      <path class="cls-6" d="M1780.84,893.58V864.33h5.66v29.25Z"/>
      <path class="cls-6" d="M1780.84,862.16V835l5.66-.5v27.67Z"/>
      <path class="cls-6" d="M1780.84,805.69l5.66-.9v27.53l-5.66.5Z"/>
      <path class="cls-6" d="M1780.84,774.94c.8-.26,1.6-.52,2.41-.76,1.07-.32,2.16-.58,3.25-.84V802.6l-5.66.9Z"/>
      <path class="cls-6" d="M1771.07,924.86l4.18.32v30.18h-4.18Z"/>
      <path class="cls-6" d="M1771.07,922.69v-27h4.18V923Z"/>
      <path class="cls-6" d="M1771.07,893.58V864.33h4.18v29.25Z"/>
      <path class="cls-6" d="M1771.07,862.16v-26.3l4.18-.37v26.67Z"/>
      <path class="cls-6" d="M1771.07,807.24l4.18-.67v26.75l-4.18.37Z"/>
      <path class="cls-6" d="M1771.07,778.46c1.06-.38,2.11-.79,3.16-1.21a5,5,0,0,0,1-.23v27.36l-4.18.66Z"/>
      <path class="cls-6" d="M1776,955.35V925.23l4.19.32v29.81Z"/>
      <path class="cls-6" d="M1776,923.06V895.74h4.19v27.64Z"/>
      <path class="cls-6" d="M1776,893.58V864.33h4.19v29.25Z"/>
      <path class="cls-6" d="M1776,862.16V835.43l4.19-.38v27.11Z"/>
      <path class="cls-6" d="M1776,806.46l4.19-.66v27.08l-4.19.38Z"/>
      <path class="cls-6" d="M1776,776.78c.43-.17.86-.36,1.29-.54l.87-.38,1.23-.42.51-.17.3-.1v28.44l-4.2.66Z"/>
      <path class="cls-6" d="M1855.6,558.62a3.79,3.79,0,0,0,.83.14v0a3.53,3.53,0,0,0-.31,1.05l-.37.15-.13,0C1855.62,559.56,1855.6,559.09,1855.6,558.62Z"/>
      <path class="cls-6" d="M1877.51,561.32l0-.06a3.81,3.81,0,0,0-.29-.57,3.56,3.56,0,0,0,.67-1v1.73Z"/>
      <path class="cls-6" d="M1838.1,567.79a1.52,1.52,0,0,1,.74-.63,1.5,1.5,0,0,1,1.14,0v12.53l-1.87,1.42h0Z"/>
      <path class="cls-6" d="M1837.34,580.14a1.91,1.91,0,0,1,0-.41,1.55,1.55,0,0,1-.75-.51,1.39,1.39,0,0,1-.31-.37,1.57,1.57,0,0,1-.17-1h0v0h0c0-.31,0-.61,0-.91l0-.85c0-.36,0-.71,0-1.07,0-.57,0-1.15,0-1.73a6.51,6.51,0,0,1,0-.77.34.34,0,0,1,0-.1,1.28,1.28,0,0,1,.15-.49,1.46,1.46,0,0,1,.29-.41l0,0a2.91,2.91,0,0,1,.24-.27,1.48,1.48,0,0,1,0-.21V571c0-.09,0-.17,0-.25a1.53,1.53,0,0,1,.69-1.08v11A1.59,1.59,0,0,1,1837.34,580.14Z"/>
      <path class="cls-6" d="M1840.53,567.6a1.48,1.48,0,0,1,.35,1.15c0,.15,0,.31-.05.47s0,.14,0,.2v0c-.06,1.28-.08,2.55-.11,3.82s-.07,2.56,0,3.83c0,.17,0,.34.06.5a2.6,2.6,0,0,1-.08,1.66l-.13.09Z"/>
      <path class="cls-6" d="M1840.54,578.4V566.82a1.48,1.48,0,0,1,1.57.92,1.06,1.06,0,0,1,.09.35h.11a1.54,1.54,0,0,1,1.07.46,1.56,1.56,0,0,1,.42,1.05.81.81,0,0,1,0,.22s0,.06,0,.09a2.26,2.26,0,0,1,0,.45c0,.48,0,1,0,1.43,0,.09,0,.18,0,.27a10,10,0,0,1,0,2.19h0v.1a2.16,2.16,0,0,1-.43,1.45,1.57,1.57,0,0,1-.59.78h0a1.38,1.38,0,0,1-.6.85l0,.07a1.4,1.4,0,0,1-1.36.91Z"/>
      <path class="cls-6" d="M1839.49,577.82a2,2,0,0,1-.35-1.13c0-.34-.05-.68-.07-1-.06-.77-.08-1.54-.11-2.31s0-1.65,0-2.47a12.74,12.74,0,0,1,.13-2.31A2.13,2.13,0,0,1,1840,567v11.24A1.29,1.29,0,0,1,1839.49,577.82Z"/>
    </g>
  </g>
  <g id="parent-building10_layer-windows_side-b">
    <g class="cls-7">
      <path class="cls-6" d="M1801.35,799V771.17h7.6s0,0,0,.07v27.85h-7.6S1801.34,799.07,1801.35,799Z"/>
      <path class="cls-6" d="M1822.36,771.44c.35,0,.71,0,1.06,0h.07a3.16,3.16,0,0,0,.62,0l-.21,0c.45,0,.91,0,1.37-.08h0a4,4,0,0,1,.49,0c.41,0,.82,0,1.23,0l1.06-.1a3.84,3.84,0,0,0,1.13-.09c.26,0,.51,0,.76,0v28.06h-1.23c-1.53,0-3.06,0-4.59.06l-1.8.07Z"/>
      <path class="cls-6" d="M1811.94,799.06h0s0,0,0-.09,0,0,0-.05V771.14h7.61s0,0,0,.06v27.85h-7.6Z"/>
      <path class="cls-6" d="M1833.17,799V771.2h7.6s0,0,0,.07v27.85h-7.6S1833.16,799.1,1833.17,799Z"/>
      <path class="cls-6" d="M1854.19,771.47c.34,0,.7,0,1,0h.07a3.16,3.16,0,0,0,.62,0l-.21,0c.45,0,.91,0,1.38-.08h0a4,4,0,0,1,.49,0c.41,0,.82,0,1.23,0l1.06-.1a3.84,3.84,0,0,0,1.13-.09c.26,0,.51,0,.76,0v28.06h-1.23c-1.53,0-3.06,0-4.59.06l-1.79.07Z"/>
      <path class="cls-6" d="M1843.76,799.09h0s0,0,0-.09,0,0,0,0V771.17h7.61s0,0,0,.06,0,0,0,.06q0,13.89,0,27.79h-7.59Z"/>
      <path class="cls-6" d="M1864.67,799V771.17h7.6s0,0,0,.06v27.85h-7.6S1864.67,799.07,1864.67,799Z"/>
      <path class="cls-6" d="M1874.83,798.92V771.08h7.6s0,0,0,.07V799h-7.61S1874.82,799,1874.83,798.92Z"/>
      <path class="cls-6" d="M1895.84,771.34l1.06,0h.07a3.16,3.16,0,0,0,.62,0h-.21l1.37-.07h0l.49,0a10.1,10.1,0,0,0,1.23,0c.35,0,.7-.06,1.06-.1a3.84,3.84,0,0,0,1.13-.08h.76v28.06h-.25a5.37,5.37,0,0,1-.57,0h-.41c-1.54,0-3.06,0-4.59.05l-1.8.07Z"/>
      <path class="cls-6" d="M1885.42,799h0s0,0,0-.09,0,0,0,0V771H1893s0,0,0,.07,0,0,0,0q0,13.9,0,27.79c-2.53,0-5,0-7.58,0Z"/>
      <path class="cls-6" d="M1906.65,799V771.11h7.6s0,0,0,.07V799h-7.61S1906.64,799,1906.65,799Z"/>
      <path class="cls-6" d="M1927.66,771.37l1.06,0h.07a3.16,3.16,0,0,0,.62,0h-.21l1.38-.07h0l.49,0a10.1,10.1,0,0,0,1.23,0c.35,0,.71-.06,1.06-.1a3.84,3.84,0,0,0,1.13-.08h.76v28.06H1935a5.42,5.42,0,0,1-.57,0c-.13,0-.27,0-.41,0-1.53,0-3.06,0-4.59.06l-1.8.06Z"/>
      <path class="cls-6" d="M1917.24,799h0s0,0,0-.09,0,0,0,0V771.07h7.61s0,0,0,.07,0,0,0,.05q0,13.9,0,27.8h-7.59Z"/>
      <path class="cls-6" d="M1801.7,830.55V802.71h7.6s0,0,0,.07v27.84h-7.6S1801.69,830.61,1801.7,830.55Z"/>
      <path class="cls-6" d="M1822.72,803l1,0h.07a3.16,3.16,0,0,0,.62,0h-.21l1.38-.07h0l.49,0a10.1,10.1,0,0,0,1.23,0c.35,0,.71-.06,1.06-.1a3.94,3.94,0,0,0,1.14-.08h.75v28.06h-.25a5.42,5.42,0,0,1-.57,0h-.41c-1.53,0-3.06,0-4.59.05l-1.79.07Z"/>
      <path class="cls-6" d="M1812.29,830.6h0s0,0,0-.09V802.67h7.6s0,0,0,.07v27.84c-2.53,0-5.06,0-7.58,0Z"/>
      <path class="cls-6" d="M1833.52,830.58V802.74h7.6s0,0,0,.07v27.84h-7.6S1833.51,830.64,1833.52,830.58Z"/>
      <path class="cls-6" d="M1854.54,803l1,0h.08a3,3,0,0,0,.61,0h-.21l1.38-.07h0l.49,0a10.28,10.28,0,0,0,1.24,0c.34,0,.7-.06,1-.1a3.94,3.94,0,0,0,1.14-.08h.75v28.06h-.25a5.42,5.42,0,0,1-.57,0c-.13,0-.27,0-.41,0-1.53,0-3.06,0-4.59.06-.6,0-1.2,0-1.79.06Z"/>
      <path class="cls-6" d="M1844.11,830.63h0s0,0,0-.09,0,0,0,0V802.7h7.61s0,0,0,.07v27.84c-2.54,0-5.06,0-7.59,0Z"/>
      <path class="cls-6" d="M1865,830.54s0,0,0,0V802.7h7.6s0,0,0,.07v27.84H1865S1865,830.6,1865,830.54Z"/>
      <path class="cls-6" d="M1875.18,830.45V802.62h7.6s0,0,0,.06v27.85h-7.6S1875.17,830.52,1875.18,830.45Z"/>
      <path class="cls-6" d="M1896.2,802.88l1,0h.07a3.16,3.16,0,0,0,.62,0l-.21,0,1.38-.07h0c.16,0,.33,0,.49,0,.41,0,.82,0,1.23,0l1.06-.1a3.53,3.53,0,0,0,1.13-.09c.26,0,.51,0,.76,0V830.7h-1.23c-1.53,0-3.06,0-4.59.06l-1.79.07Z"/>
      <path class="cls-6" d="M1885.77,830.5h0s0,0,0-.08V802.58h7.6s0,0,0,.06v27.85h-7.6Z"/>
      <path class="cls-6" d="M1907,830.48V802.65h7.6s0,0,0,.06v27.85H1907a0,0,0,0,0,0,0h0S1907,830.55,1907,830.48Z"/>
      <path class="cls-6" d="M1928,802.91l1,0h.08a3,3,0,0,0,.61,0l-.21,0,1.38-.07h0c.17,0,.33,0,.49,0,.41,0,.82,0,1.23,0l1.06-.1a3.62,3.62,0,0,0,1.14-.09c.25,0,.5,0,.75,0v28.07h-1.23c-1.53,0-3.06,0-4.59.06l-1.79.07Z"/>
      <path class="cls-6" d="M1917.59,830.53h0s0,0,0-.08,0,0,0-.06V802.61h7.61s0,0,0,.06,0,0,0,.06q0,13.89,0,27.79h-7.59Z"/>
      <path class="cls-6" d="M1802,861.69V833.85h7.6s0,0,0,.07v27.85h-7.6S1802,861.75,1802,861.69Z"/>
      <path class="cls-6" d="M1823.06,834.12l1,0h.08a3,3,0,0,0,.61,0h-.21c.46,0,.92,0,1.38-.07h0l.5,0c.41,0,.82,0,1.23,0l1-.1a4.32,4.32,0,0,0,1.14-.09c.25,0,.5,0,.76,0v28.06h-.82a3,3,0,0,0-.42,0c-1.53,0-3.06,0-4.59.06-.6,0-1.2,0-1.79.06Z"/>
      <path class="cls-6" d="M1812.63,861.74h0s0,0,0-.09V833.81h7.59s0,0,0,0,0,0,0,.07v27.85h-7.6Z"/>
      <path class="cls-6" d="M1833.86,861.72V833.88h7.6s0,0,0,.07V861.8h-7.6S1833.86,861.78,1833.86,861.72Z"/>
      <path class="cls-6" d="M1854.88,834.15l1,0h.08a3,3,0,0,0,.61,0h-.21c.46,0,.92,0,1.38-.07h0l.5,0c.41,0,.82,0,1.23,0l1-.1a4.32,4.32,0,0,0,1.14-.09c.25,0,.5,0,.76,0V862h-.82a2.84,2.84,0,0,0-.41,0c-1.54,0-3.07,0-4.6.06-.6,0-1.2,0-1.79.06Z"/>
      <path class="cls-6" d="M1844.45,861.77h0s0,0,0-.09V833.84h7.6s0,0,0,.07v27.85h-7.6Z"/>
      <path class="cls-6" d="M1865.36,861.68s0,0,0,0V833.84H1873s0,0,0,.07v27.85h-7.61S1865.36,861.75,1865.36,861.68Z"/>
      <path class="cls-6" d="M1875.52,861.6V833.76h7.6s0,0,0,.07v27.84h-7.6S1875.52,861.66,1875.52,861.6Z"/>
      <path class="cls-6" d="M1896.54,834l1,0h.08a3,3,0,0,0,.61,0h-.21l1.38-.07h0l.5,0a10.1,10.1,0,0,0,1.23,0c.34,0,.7-.06,1-.1a3.94,3.94,0,0,0,1.14-.08h.75v28.06h-.25a5.42,5.42,0,0,1-.57,0h-.41c-1.53,0-3.06,0-4.59.06l-1.79.07Z"/>
      <path class="cls-6" d="M1886.11,861.65h0s0,0,0-.09V833.72h7.6s0,0,0,.07v27.84c-2.53,0-5.06,0-7.58,0Z"/>
      <path class="cls-6" d="M1907.34,861.63V833.79h7.6s0,0,0,.07V861.7h-7.6S1907.34,861.69,1907.34,861.63Z"/>
      <path class="cls-6" d="M1928.36,834.05l1.05,0h.08a3,3,0,0,0,.61,0h-.21l1.38-.07h0l.5,0a10.1,10.1,0,0,0,1.23,0c.34,0,.7-.06,1-.1a3.94,3.94,0,0,0,1.14-.08h.76v28.06h-.26a5.19,5.19,0,0,1-.56,0h-.41c-1.54,0-3.07,0-4.6.06l-1.79.07Z"/>
      <path class="cls-6" d="M1917.93,861.68h0s0,0,0-.09V833.75h7.6s0,0,0,.07v27.84c-2.53,0-5.06,0-7.58,0Z"/>
      <path class="cls-6" d="M1802.39,893.23s0,0,0-.05V865.39h7.6s0,0,0,.07V893.3h-7.6S1802.39,893.29,1802.39,893.23Z"/>
      <path class="cls-6" d="M1823.41,865.65l1,0h.08a3,3,0,0,0,.61,0h-.2l1.37-.07h0s0,0,0,0l.49,0a10.1,10.1,0,0,0,1.23,0c.35,0,.7-.06,1.05-.1a3.94,3.94,0,0,0,1.14-.08c.25,0,.5,0,.76,0v28.07h-.26a5.19,5.19,0,0,1-.56,0h-.41c-1.54,0-3.07,0-4.6.06l-1.79.07Z"/>
      <path class="cls-6" d="M1813,893.28h0s0,0,0-.09V865.35h7.61s0,0,0,.07,0,0,0,.05q0,13.89,0,27.79c-2.53,0-5.06,0-7.58,0Z"/>
      <path class="cls-6" d="M1834.21,893.26s0,0,0,0V865.42h7.6s0,0,0,.07v27.84h-7.6S1834.21,893.32,1834.21,893.26Z"/>
      <path class="cls-6" d="M1855.23,865.68l1.06,0h.07a3.09,3.09,0,0,0,.61,0h-.2l1.37-.07h0l.49,0a10.1,10.1,0,0,0,1.23,0c.35,0,.7-.06,1-.1a3.91,3.91,0,0,0,1.14-.08h.76V893.5h-.25a5.32,5.32,0,0,1-.57,0h-.41c-1.54,0-3.06,0-4.6.06l-1.79.07Z"/>
      <path class="cls-6" d="M1844.8,893.31h0s0,0,0-.09V865.38h7.6s0,0,0,.07v27.84c-2.53,0-5.06,0-7.58,0Z"/>
      <path class="cls-6" d="M1865.72,893.22V865.38h7.6s0,0,0,.07v27.84h-7.6S1865.71,893.28,1865.72,893.22Z"/>
      <path class="cls-6" d="M1875.87,893.13s0,0,0,0V865.29h7.6s0,0,0,.07v27.85h-7.6S1875.87,893.19,1875.87,893.13Z"/>
      <path class="cls-6" d="M1896.89,865.56c.35,0,.7,0,1,0h.08a3,3,0,0,0,.61,0l-.21,0c.46,0,.92,0,1.38-.08h0a4.19,4.19,0,0,1,.5,0c.41,0,.82,0,1.23,0l1-.1a3.94,3.94,0,0,0,1.14-.09c.25,0,.5,0,.76,0v28.06h-1.23c-1.54,0-3.07,0-4.6.06l-1.79.07Z"/>
      <path class="cls-6" d="M1886.46,893.18h0s0,0,0-.09V865.26h7.61s0,0,0,.06v27.85h-7.6Z"/>
      <path class="cls-6" d="M1907.69,893.16s0,0,0,0V865.32h7.6s0,0,0,.07v27.85h-7.6S1907.69,893.22,1907.69,893.16Z"/>
      <path class="cls-6" d="M1928.71,865.59c.35,0,.7,0,1.06,0h.07a3.06,3.06,0,0,0,.61,0l-.2,0c.45,0,.91,0,1.37-.08h0l.49,0c.41,0,.82,0,1.23,0l1-.1a3.94,3.94,0,0,0,1.14-.09c.25,0,.5,0,.76,0V893.4h-1.23c-1.54,0-3.06,0-4.6.06l-1.79.07Z"/>
      <path class="cls-6" d="M1918.28,893.21h0s0,0,0-.09V865.29h7.6s0,0,0,.06V893.2h-7.6Z"/>
      <path class="cls-6" d="M1802.46,924.16V896.32h7.6s0,0,0,.07v27.84h-7.6S1802.45,924.22,1802.46,924.16Z"/>
      <path class="cls-6" d="M1823.48,896.58l1,0h.08a3,3,0,0,0,.61,0H1825l1.38-.07h0l.49,0a10.1,10.1,0,0,0,1.23,0c.35,0,.71-.06,1.06-.1a3.94,3.94,0,0,0,1.14-.08h.75V924.4h-.25a5.42,5.42,0,0,1-.57,0h-.41c-1.53,0-3.06,0-4.59.05l-1.79.07Z"/>
      <path class="cls-6" d="M1813.05,924.21h0s0,0,0-.09V896.28h7.6s0,0,0,.07v27.84c-2.53,0-5.06,0-7.58,0Z"/>
      <path class="cls-6" d="M1834.28,924.19V896.35h7.6s0,0,0,.07v27.84h-7.6S1834.27,924.25,1834.28,924.19Z"/>
      <path class="cls-6" d="M1855.3,896.61l1,0h.08a3,3,0,0,0,.61,0h-.21l1.38-.07h0l.5,0a10.1,10.1,0,0,0,1.23,0c.34,0,.7-.06,1-.1a3.94,3.94,0,0,0,1.14-.08h.76v28.06h-.26a5.19,5.19,0,0,1-.56,0h-.42c-1.53,0-3.06,0-4.59.05l-1.79.07Z"/>
      <path class="cls-6" d="M1844.87,924.24h0s0,0,0-.09V896.31h7.58s0,0,0,0,0,0,0,.07v27.84c-2.54,0-5.06,0-7.59,0Z"/>
      <path class="cls-6" d="M1865.78,924.15s0,0,0,0V896.31h7.59s0,0,0,0,0,0,0,.07v27.84h-7.6S1865.78,924.21,1865.78,924.15Z"/>
      <path class="cls-6" d="M1875.94,924.06V896.22h7.6s0,0,0,.07v27.85H1876S1875.93,924.12,1875.94,924.06Z"/>
      <path class="cls-6" d="M1897,896.49l1,0h.07a3.16,3.16,0,0,0,.62,0l-.21,0c.45,0,.92,0,1.38-.08h0a3.91,3.91,0,0,1,.49,0c.41,0,.82,0,1.23,0l1.06-.1a3.94,3.94,0,0,0,1.14-.09c.25,0,.5,0,.75,0v28.07h-.25a5.42,5.42,0,0,1-.57,0h-.41c-1.53,0-3.06,0-4.59.06l-1.79.07Z"/>
      <path class="cls-6" d="M1886.53,924.11h0s0,0,0-.09V896.19h7.6s0,0,0,.06V924.1h-7.6Z"/>
      <path class="cls-6" d="M1907.76,924.09V896.25h7.6s0,0,0,.07v27.85h-7.6S1907.75,924.16,1907.76,924.09Z"/>
      <path class="cls-6" d="M1928.78,896.52l1,0h.08a3,3,0,0,0,.61,0l-.21,0,1.38-.07h0l.5,0c.41,0,.82,0,1.23,0l1-.1a3.94,3.94,0,0,0,1.14-.09c.25,0,.5,0,.75,0v28.07h-1.23c-1.53,0-3.06,0-4.59.06l-1.79.07Z"/>
      <path class="cls-6" d="M1918.35,924.14h0s0,0,0-.09,0,0,0,0V896.22h7.61s0,0,0,.06v27.85h-7.6Z"/>
      <path class="cls-6" d="M1802.81,955.69V927.85h7.6s0,0,0,.07v27.85h-7.6S1802.81,955.75,1802.81,955.69Z"/>
      <path class="cls-6" d="M1823.83,928.12l1.05,0h.08a3,3,0,0,0,.61,0l-.21,0c.46,0,.92,0,1.38-.08h0a4.19,4.19,0,0,1,.5,0c.41,0,.82,0,1.23,0l1-.1a3.94,3.94,0,0,0,1.14-.09c.25,0,.5,0,.76,0v28.07h-1.23c-1.54,0-3.07,0-4.6.06l-1.79.07Z"/>
      <path class="cls-6" d="M1813.4,955.74h0s0,0,0-.09V927.82h7.6s0,0,0,.06v27.85h-7.6Z"/>
      <path class="cls-6" d="M1834.63,955.72V927.88h7.6s0,0,0,.07V955.8h-7.6S1834.63,955.78,1834.63,955.72Z"/>
      <path class="cls-6" d="M1855.65,928.15l1,0h.08a3,3,0,0,0,.61,0l-.2,0c.45,0,.91,0,1.37-.08h0l.49,0c.41,0,.82,0,1.23,0l1-.1a3.94,3.94,0,0,0,1.14-.09c.25,0,.5,0,.76,0V956H1862c-1.54,0-3.07,0-4.6.06l-1.79.07Z"/>
      <path class="cls-6" d="M1845.22,955.77h0s0,0,0-.09V927.85h7.6s0,0,0,.06v27.85h-7.6Z"/>
      <path class="cls-6" d="M1866.13,955.68s0,0,0,0V927.85h7.61s0,0,0,.06v27.85h-7.61S1866.13,955.75,1866.13,955.68Z"/>
      <path class="cls-6" d="M1876.29,955.6V927.76h7.6s0,0,0,.07v27.84h-7.6S1876.29,955.66,1876.29,955.6Z"/>
      <path class="cls-6" d="M1897.31,928l1,0h.08a3,3,0,0,0,.61,0h-.21l1.38-.07h0l.5,0a10.1,10.1,0,0,0,1.23,0c.34,0,.7-.06,1-.1a3.94,3.94,0,0,0,1.14-.08h.76v28.06h-.82a3,3,0,0,0-.42,0c-1.53,0-3.06,0-4.59.06-.6,0-1.2,0-1.79.06Z"/>
      <path class="cls-6" d="M1886.88,955.65h0s0,0,0-.09V927.72h7.6s0,0,0,.07v27.85h-7.6Z"/>
      <path class="cls-6" d="M1908.11,955.63V927.79h7.6s0,0,0,.07V955.7h-7.6S1908.11,955.69,1908.11,955.63Z"/>
      <path class="cls-6" d="M1929.13,928.05l1,0h.08a3,3,0,0,0,.61,0h-.21L1932,928h0l.5,0a10.1,10.1,0,0,0,1.23,0c.35,0,.7-.06,1-.1a3.94,3.94,0,0,0,1.14-.08h.76v28.06h-.82a2.84,2.84,0,0,0-.41,0c-1.54,0-3.07,0-4.6.06-.6,0-1.2,0-1.79.06Z"/>
      <path class="cls-6" d="M1918.7,955.68h0s0,0,0-.09V927.75h7.6s0,0,0,.07v27.85h-7.6Z"/>
      <path class="cls-6" d="M1803.15,986.83s0,0,0-.05V959h7.6s0,0,0,.06v27.85h-7.6S1803.15,986.9,1803.15,986.83Z"/>
      <path class="cls-6" d="M1824.17,959.26l1.06,0h.07a6,6,0,0,0,.61,0h-.2l1.37-.07h0l.49,0a10.1,10.1,0,0,0,1.23,0c.35,0,.7-.06,1.05-.1A3.94,3.94,0,0,0,1831,959c.25,0,.5,0,.76,0v28.07h-1.23c-1.54,0-3.06,0-4.6.06l-1.79.07Z"/>
      <path class="cls-6" d="M1813.74,986.88h0s0,0,0-.08,0,0,0,0V959h7.61s0,0,0,.07,0,0,0,.05q0,13.89,0,27.79h-7.6Z"/>
      <path class="cls-6" d="M1835,986.86s0,0,0-.05V959h7.6s0,0,0,.06v27.85H1835S1835,986.93,1835,986.86Z"/>
      <path class="cls-6" d="M1856,959.29l1.06,0h.07c.2,0,.4,0,.61,0h-.2l1.37-.07h0l.49,0a10.1,10.1,0,0,0,1.23,0c.35,0,.7-.06,1.06-.1a3.87,3.87,0,0,0,1.13-.08c.26,0,.51,0,.76,0v28.07h-1.23c-1.54,0-3.06,0-4.59.06l-1.8.07Z"/>
      <path class="cls-6" d="M1845.56,986.91h0s0,0,0-.08V959h7.6s0,0,0,.07V986.9h-7.6Z"/>
      <path class="cls-6" d="M1866.48,986.83V959h7.6s0,0,0,.07V986.9h-7.6S1866.47,986.89,1866.48,986.83Z"/>
      <path class="cls-6" d="M1876.63,986.74s0,0,0,0V958.9h7.6s0,0,0,.07v27.85h-7.6S1876.63,986.8,1876.63,986.74Z"/>
      <path class="cls-6" d="M1897.65,959.17c.35,0,.7,0,1.06,0h.07a3,3,0,0,0,.61,0h-.2c.45,0,.91,0,1.37-.07h0l.49,0c.41,0,.82,0,1.23,0l1-.1a4.32,4.32,0,0,0,1.14-.09c.25,0,.5,0,.76,0V987H1904c-1.54,0-3.07,0-4.6.06l-1.79.07Z"/>
      <path class="cls-6" d="M1887.22,986.79h0s0,0,0-.09V958.87h7.61s0,0,0,.06,0,0,0,.06q0,13.89,0,27.79h-7.6Z"/>
      <path class="cls-6" d="M1908.45,986.77s0,0,0,0V958.93H1916s0,0,0,0,0,0,0,.07v27.85h-7.6S1908.45,986.83,1908.45,986.77Z"/>
      <path class="cls-6" d="M1929.47,959.2c.35,0,.71,0,1.06,0h.07a3.09,3.09,0,0,0,.61,0h-.2c.45,0,.91,0,1.37-.07h0l.49,0c.41,0,.82,0,1.23,0l1-.1a4.29,4.29,0,0,0,1.14-.09c.26,0,.51,0,.76,0V987h-1.23c-1.54,0-3.06,0-4.59.06l-1.8.07Z"/>
      <path class="cls-6" d="M1919,986.82h0s0,0,0-.09V958.9h7.6s0,0,0,.06v27.85h-7.58S1919.05,986.81,1919,986.82Z"/>
      <path class="cls-6" d="M1803.5,1018.37s0,0,0,0V990.53h7.61s0,0,0,.07v27.85h-7.61S1803.5,1018.43,1803.5,1018.37Z"/>
      <path class="cls-6" d="M1824.52,990.8c.35,0,.71,0,1.06,0h.07a3.16,3.16,0,0,0,.62,0h-.21c.45,0,.91,0,1.37-.07h0l.49,0c.41,0,.82,0,1.23,0l1.06-.1a4.21,4.21,0,0,0,1.13-.09c.26,0,.51,0,.76,0v28.06h-1.23c-1.54,0-3.06,0-4.59.06-.6,0-1.2,0-1.8.07Z"/>
      <path class="cls-6" d="M1814.1,1018.42h0s0,0,0-.09,0,0,0-.05V990.5h7.61s0,0,0,.06,0,0,0,.06q0,13.89,0,27.79h-7.59Z"/>
      <path class="cls-6" d="M1835.33,1018.4V990.56h7.58s0,0,0,0,0,0,0,.07v27.85h-7.61S1835.32,1018.46,1835.33,1018.4Z"/>
      <path class="cls-6" d="M1856.34,990.83c.35,0,.71,0,1.06,0h.07a3.16,3.16,0,0,0,.62,0h-.21c.45,0,.91,0,1.37-.07h0l.49,0c.41,0,.82,0,1.23,0l1.06-.1a4.21,4.21,0,0,0,1.13-.09c.26,0,.51,0,.76,0v28.06h-1.23c-1.53,0-3.06,0-4.59.06l-1.8.07Z"/>
      <path class="cls-6" d="M1845.91,1018.45h0s0,0,0-.09,0,0,0-.05V990.53h7.61s0,0,0,.06,0,0,0,.06q0,13.89,0,27.79h-7.6Z"/>
      <path class="cls-6" d="M1866.83,1018.36V990.53h7.6s0,0,0,.06v27.85h-7.6S1866.83,1018.43,1866.83,1018.36Z"/>
      <path class="cls-6" d="M1877,1018.28s0,0,0,0V990.44h7.61s0,0,0,.07v27.84H1877S1877,1018.34,1877,1018.28Z"/>
      <path class="cls-6" d="M1898,990.7l1.06,0h.07a3.09,3.09,0,0,0,.61,0h-.2l1.37-.07h0l.49,0a10.1,10.1,0,0,0,1.23,0c.35,0,.7-.06,1.06-.1a3.87,3.87,0,0,0,1.13-.08h.76v28.06h-.25a5.32,5.32,0,0,1-.57,0h-.41c-1.54,0-3.06,0-4.59.05l-1.8.07Z"/>
      <path class="cls-6" d="M1887.58,1018.33h0s0,0,0-.09,0,0,0,0V990.4h7.61s0,0,0,.07,0,0,0,0q0,13.9,0,27.79c-2.53,0-5.05,0-7.58,0Z"/>
      <path class="cls-6" d="M1908.8,1018.31s0,0,0,0V990.47h7.61s0,0,0,.07v27.84h-7.61S1908.8,1018.37,1908.8,1018.31Z"/>
      <path class="cls-6" d="M1929.82,990.73l1.06,0h.07a3.16,3.16,0,0,0,.62,0h-.21l1.37-.07h0l.49,0a10.1,10.1,0,0,0,1.23,0c.35,0,.71-.06,1.06-.1a3.84,3.84,0,0,0,1.13-.08h.76v28.06h-.25a5.37,5.37,0,0,1-.57,0h-.41c-1.53,0-3.06,0-4.59.05l-1.8.07Z"/>
      <path class="cls-6" d="M1919.39,1018.36h0s0,0,0-.09V990.43H1927s0,0,0,0,0,0,0,.07,0,0,0,0q0,13.91,0,27.79c-2.53,0-5.06,0-7.58,0Z"/>
      <path class="cls-6" d="M1761.44,852.11a16.76,16.76,0,0,0-.66-2.8,6.9,6.9,0,0,0,.3-1.74c0-.33,0-.66,0-1l0,0c.11,1.89.27,3.77.42,5.66Z"/>
      <path class="cls-6" d="M1792.7,955.35l.33,0a12.77,12.77,0,0,0,1.92.12c.12.1.25.19.38.28l-.84,0-1.79.07Z"/>
      <path class="cls-6" d="M1789.83,954.65l0,0v.93h-2.62A6.72,6.72,0,0,0,1789.83,954.65Z"/>
      <path class="cls-6" d="M1666.72,986.73s0,0,0-.05V958.89h7.6s0,0,0,.07v27.85h-7.6S1666.72,986.79,1666.72,986.73Z"/>
      <path class="cls-6" d="M1687.74,959.16l1.06,0h.07a3.09,3.09,0,0,0,.61,0h-.2c.45,0,.91,0,1.37-.07h0l.49,0c.41,0,.82,0,1.23,0l1-.1a4.32,4.32,0,0,0,1.14-.09c.25,0,.5,0,.76,0V987h-.82a2.81,2.81,0,0,0-.41,0c-1.54,0-3.06,0-4.6.06l-1.79.06Z"/>
      <path class="cls-6" d="M1677.32,986.78h0s0,0,0-.09,0,0,0-.05V958.85h7.61s0,0,0,.07,0,0,0,.06q0,13.89,0,27.79h-7.59Z"/>
      <path class="cls-6" d="M1698.54,986.76s0,0,0,0V958.92h7.61s0,0,0,.07v27.85h-7.6S1698.54,986.82,1698.54,986.76Z"/>
      <path class="cls-6" d="M1719.56,959.19l1.06-.05h.07a3.16,3.16,0,0,0,.62,0h-.21c.45,0,.91,0,1.37-.07h0l.49,0c.41,0,.82,0,1.23,0l1.06-.1a4.21,4.21,0,0,0,1.13-.09c.26,0,.51,0,.76,0V987h-.82a2.81,2.81,0,0,0-.41,0c-1.54,0-3.06,0-4.59.06l-1.8.06Z"/>
      <path class="cls-6" d="M1709.13,986.81h0s0,0,0-.09V958.88h7.61s0,0,0,.07,0,0,0,.06q0,13.89,0,27.79h-7.6Z"/>
      <path class="cls-6" d="M1730.05,986.72V958.88h7.6s0,0,0,.07V986.8h-7.6S1730,986.78,1730.05,986.72Z"/>
      <path class="cls-6" d="M1740.2,986.64s0,0,0,0V958.8h7.6s0,0,0,.07v27.84h-7.6S1740.2,986.7,1740.2,986.64Z"/>
      <path class="cls-6" d="M1761.22,959.06l1.06,0h.07a3.06,3.06,0,0,0,.61,0h-.2l1.37-.07h0l.49,0a10.1,10.1,0,0,0,1.23,0c.35,0,.7-.06,1-.1a3.94,3.94,0,0,0,1.14-.08c.25,0,.5,0,.76,0v28.07h-.26a5.19,5.19,0,0,1-.56,0h-.41c-1.54,0-3.06,0-4.6.06l-1.79.07Z"/>
      <path class="cls-6" d="M1750.79,986.69h0s0,0,0-.09,0,0,0-.05V958.76h7.61s0,0,0,.07,0,0,0,0q0,13.89,0,27.79c-2.53,0-5.06,0-7.58,0A0,0,0,0,0,1750.79,986.69Z"/>
      <path class="cls-6" d="M1772,986.67s0,0,0,0V958.83h7.6s0,0,0,.07v27.84H1772S1772,986.73,1772,986.67Z"/>
      <path class="cls-6" d="M1793,959.09l1.06,0h.07a3.09,3.09,0,0,0,.61,0h-.2L1796,959h0l.49,0a10.1,10.1,0,0,0,1.23,0c.35,0,.7-.06,1.06-.1a3.87,3.87,0,0,0,1.13-.08h.76v28.06h-.25a5.32,5.32,0,0,1-.57,0h-.41c-1.54,0-3.06,0-4.59.06l-1.8.07Z"/>
      <path class="cls-6" d="M1782.61,986.72h0s0,0,0-.09V958.79h7.6s0,0,0,.07V986.7c-2.53,0-5.06,0-7.58,0Z"/>
      <path class="cls-6" d="M1667.08,1018.27V990.43h7.6s0,0,0,.06v27.85h-7.61S1667.07,1018.33,1667.08,1018.27Z"/>
      <path class="cls-6" d="M1688.09,990.69l1.06,0h.07a3.16,3.16,0,0,0,.62,0h-.21l1.37-.07h0l.49,0a10.1,10.1,0,0,0,1.23,0c.35,0,.7-.06,1.06-.1a3.84,3.84,0,0,0,1.13-.08c.26,0,.51,0,.76,0v28.07h-.25a5.37,5.37,0,0,1-.57,0h-.41c-1.53,0-3.06,0-4.59.06l-1.8.07Z"/>
      <path class="cls-6" d="M1677.67,1018.32h0s0,0,0-.09,0,0,0-.05V990.39h7.61s0,0,0,.07,0,0,0,0q0,13.89,0,27.79c-2.53,0-5,0-7.58,0C1677.68,1018.32,1677.67,1018.31,1677.67,1018.32Z"/>
      <path class="cls-6" d="M1698.9,1018.3V990.46h7.6s0,0,0,.07v27.84h-7.6S1698.89,1018.36,1698.9,1018.3Z"/>
      <path class="cls-6" d="M1719.92,990.72l1,0h.07a3.16,3.16,0,0,0,.62,0h-.21l1.38-.07h0l.49,0a10.1,10.1,0,0,0,1.23,0c.35,0,.71-.06,1.06-.1a3.84,3.84,0,0,0,1.13-.08c.26,0,.51,0,.76,0v28.07h-.25a5.42,5.42,0,0,1-.57,0h-.41c-1.53,0-3.06,0-4.59.06l-1.79.07Z"/>
      <path class="cls-6" d="M1709.49,1018.35h0s0,0,0-.09,0,0,0,0V990.42h7.61s0,0,0,.07,0,0,0,0q0,13.89,0,27.79c-2.53,0-5.06,0-7.58,0Z"/>
      <path class="cls-6" d="M1730.4,1018.26V990.42h7.6s0,0,0,.07v27.84h-7.6S1730.4,1018.32,1730.4,1018.26Z"/>
      <path class="cls-6" d="M1740.55,1018.17s0,0,0,0V990.33h7.61s0,0,0,.07v27.85h-7.61S1740.55,1018.23,1740.55,1018.17Z"/>
      <path class="cls-6" d="M1761.57,990.6c.35,0,.71,0,1.06,0h.07a3.16,3.16,0,0,0,.62,0l-.21,0c.45,0,.91,0,1.37-.08h0a4,4,0,0,1,.49,0c.41,0,.82,0,1.23,0l1.06-.1a3.84,3.84,0,0,0,1.13-.09c.26,0,.51,0,.76,0v28.06H1768c-1.54,0-3.06,0-4.59.06l-1.8.07Z"/>
      <path class="cls-6" d="M1751.15,1018.22h0s0,0,0-.09,0,0,0,0V990.3h7.61s0,0,0,.06,0,0,0,.06q0,13.89,0,27.79h-7.59Z"/>
      <path class="cls-6" d="M1772.38,1018.2V990.36h7.6s0,0,0,.07v27.85h-7.61S1772.37,1018.26,1772.38,1018.2Z"/>
      <path class="cls-6" d="M1793.39,990.63c.35,0,.71,0,1.06,0h.07a3.16,3.16,0,0,0,.62,0l-.21,0c.45,0,.91,0,1.37-.08h0a4,4,0,0,1,.49,0c.41,0,.82,0,1.23,0l1.06-.1a3.84,3.84,0,0,0,1.13-.09c.26,0,.51,0,.76,0v28.06h-1.23c-1.53,0-3.06,0-4.59.06l-1.8.07Z"/>
      <path class="cls-6" d="M1783,1018.25h0s0,0,0-.09,0,0,0,0V990.33h7.61s0,0,0,.06,0,0,0,.06q0,13.89,0,27.79H1783Z"/>
      <path class="cls-6" d="M1836.65,744.06V718.14h7.6s0,0,0,.06v25.93h-7.6S1836.64,744.12,1836.65,744.06Z"/>
      <path class="cls-6" d="M1857.66,718.38l1.06,0h.07a3.16,3.16,0,0,0,.62,0h-.21l1.38-.06h0c.16,0,.33,0,.49,0,.41,0,.82,0,1.23,0l1.06-.1a4.22,4.22,0,0,0,1.13-.07c.26,0,.51,0,.76,0v26.14h-1.23c-1.53,0-3.06,0-4.59.06l-1.8.06Z"/>
      <path class="cls-6" d="M1847.24,744.11h0s0,0,0-.09V718.1h7.6s0,0,0,.07v25.92c-2.54,0-5.06,0-7.59,0Z"/>
      <path class="cls-6" d="M1868.47,744.09V718.17h7.6s0,0,0,.06v25.93h-7.6S1868.46,744.15,1868.47,744.09Z"/>
      <path class="cls-6" d="M1889.49,718.41l1,0h.08a3,3,0,0,0,.61,0H1891c.45,0,.92,0,1.38-.07h0l.49,0c.41,0,.82,0,1.23,0l1.06-.1a3.94,3.94,0,0,0,1.14-.08c.25,0,.5,0,.75,0v26.13h-1.23c-1.53,0-3.06,0-4.59.06-.6,0-1.2,0-1.79.06Z"/>
      <path class="cls-6" d="M1879.06,744.13h0s0,0,0-.08,0,0,0,0V718.13h7.61s0,0,0,.06,0,0,0,0q0,12.94,0,25.88h-7.59Z"/>
      <path class="cls-6" d="M1900,744.05V718.13h7.6s0,0,0,.06v25.93H1900S1900,744.11,1900,744.05Z"/>
      <path class="cls-6" d="M1836.65,744.06V718.14h7.6s0,0,0,.06v25.93h-7.6S1836.64,744.12,1836.65,744.06Z"/>
      <path class="cls-6" d="M1857.66,718.38l1.06,0h.07a3.16,3.16,0,0,0,.62,0h-.21l1.38-.06h0c.16,0,.33,0,.49,0,.41,0,.82,0,1.23,0l1.06-.1a4.22,4.22,0,0,0,1.13-.07c.26,0,.51,0,.76,0v26.14h-1.23c-1.53,0-3.06,0-4.59.06l-1.8.06Z"/>
      <path class="cls-6" d="M1847.24,744.11h0s0,0,0-.09V718.1h7.6s0,0,0,.07v25.92c-2.54,0-5.06,0-7.59,0Z"/>
      <path class="cls-6" d="M1868.47,744.09V718.17h7.6s0,0,0,.06v25.93h-7.6S1868.46,744.15,1868.47,744.09Z"/>
      <path class="cls-6" d="M1889.49,718.41l1,0h.08a3,3,0,0,0,.61,0H1891c.45,0,.92,0,1.38-.07h0l.49,0c.41,0,.82,0,1.23,0l1.06-.1a3.94,3.94,0,0,0,1.14-.08c.25,0,.5,0,.75,0v26.13h-1.23c-1.53,0-3.06,0-4.59.06-.6,0-1.2,0-1.79.06Z"/>
      <path class="cls-6" d="M1879.06,744.13h0s0,0,0-.08,0,0,0,0V718.13h7.61s0,0,0,.06,0,0,0,0q0,12.94,0,25.88h-7.59Z"/>
      <path class="cls-6" d="M1900,744.05V718.13h7.6s0,0,0,.06v25.93H1900S1900,744.11,1900,744.05Z"/>
      <path class="cls-6" d="M1836.63,715.72V689.79h7.6s0,0,0,.07v25.93h-7.6S1836.62,715.77,1836.63,715.72Z"/>
      <path class="cls-6" d="M1857.64,690l1.06,0h.07c.2,0,.4,0,.62,0h-.21l1.37-.07h0l.49,0a10.1,10.1,0,0,0,1.23,0l1.06-.09a4.22,4.22,0,0,0,1.13-.08h.76v26.13h-.82a2.81,2.81,0,0,0-.41,0c-1.53,0-3.06,0-4.59,0l-1.8.06Z"/>
      <path class="cls-6" d="M1847.22,715.76h0s0,0,0-.08,0,0,0,0V689.76h7.61s0,0,0,.06v25.93h-7.6Z"/>
      <path class="cls-6" d="M1868.45,715.74V689.82h7.6s0,0,0,.06v25.93h-7.6S1868.44,715.8,1868.45,715.74Z"/>
      <path class="cls-6" d="M1889.47,690.07l1,0h.07a3.16,3.16,0,0,0,.62,0l-.21,0,1.38-.07h0l.49,0c.41,0,.82,0,1.23,0l1.06-.09a4.67,4.67,0,0,0,1.13-.08h.76V716h-.25a5.42,5.42,0,0,1-.57,0h-.41c-1.53,0-3.06,0-4.59,0l-1.79.06Z"/>
      <path class="cls-6" d="M1879,715.79h0s0,0,0-.08,0,0,0-.05V689.79h7.61s0,0,0,.06,0,0,0,0q0,12.93,0,25.88H1879Z"/>
      <path class="cls-6" d="M1900,715.71V689.79h7.6s0,0,0,.06v25.93H1900S1900,715.77,1900,715.71Z"/>
      <path class="cls-6" d="M1836.78,746.61h7.6s0,0,0,.06v20.54H1844c-1.88,0-3.75,0-5.63,0l-1.57,0Z"/>
      <path class="cls-6" d="M1857.8,746.86l1.06,0h.07c.2,0,.4,0,.61,0h-.2l1.37-.07h0l.49,0a10.1,10.1,0,0,0,1.23,0l1.06-.09a4.25,4.25,0,0,0,1.13-.08h.76v19.63l-1.23,0-6.39.29Z"/>
      <path class="cls-6" d="M1847.35,746.57H1855s0,0,0,.07,0,0,0,.05v20q-3.82.19-7.63.46Z"/>
      <path class="cls-6" d="M1868.6,746.64h7.6s0,0,0,.06V766q-3.81,0-7.62.17Z"/>
      <path class="cls-6" d="M1889.62,765.92v-19c.35,0,.71,0,1.06,0h.07a3.09,3.09,0,0,0,.61,0h-.2l1.37-.06h0c.16,0,.33,0,.49,0,.41,0,.82,0,1.23,0l1.06-.1a4.25,4.25,0,0,0,1.13-.07c.26,0,.51,0,.76,0V766Z"/>
      <path class="cls-6" d="M1879.17,746.6h7.61s0,0,0,.07v19.25q-3.81,0-7.62,0Z"/>
      <path class="cls-6" d="M1900.11,766V746.6h7.6s0,0,0,.07v19.27h-1.48c-1.71,0-3.42,0-5.14,0Z"/>
      <path class="cls-6" d="M1849.13,677.09s0,0,0-.05V651.17h7.6s0,0,0,.06v25.93h-7.6S1849.13,677.15,1849.13,677.09Z"/>
      <path class="cls-6" d="M1870.15,651.42c.35,0,.71,0,1.06,0h.07a3.09,3.09,0,0,0,.61,0h-.2l1.37-.06h0c.16,0,.33,0,.49,0,.41,0,.82,0,1.23,0l1.06-.1a4.25,4.25,0,0,0,1.13-.07c.26,0,.51,0,.76,0v26.14h-1.23c-1.54,0-3.06,0-4.59.06l-1.8.06Z"/>
      <path class="cls-6" d="M1859.72,677.14h0s0,0,0-.08V651.13h7.6s0,0,0,.07v25.93h-7.6Z"/>
      <path class="cls-6" d="M1849.23,644s0,0,0-.05V618h7.6s0,0,0,.06V644h-7.6S1849.23,644,1849.23,644Z"/>
      <path class="cls-6" d="M1870.25,618.27l1.06,0h.07a3.16,3.16,0,0,0,.62,0h-.21c.45,0,.91,0,1.37-.07h0l.49,0c.41,0,.82,0,1.23,0l1.06-.1a3.84,3.84,0,0,0,1.13-.08c.26,0,.51,0,.76,0v26.14h-.25a5.42,5.42,0,0,1-.57,0h-.41c-1.54,0-3.06,0-4.59.06l-1.8.06Z"/>
      <path class="cls-6" d="M1859.82,644h0s0,0,0-.09V618h7.61s0,0,0,.06V644c-2.53,0-5.06,0-7.58,0Z"/>
      <path class="cls-6" d="M1849.37,609.58s0,0,0-.05V583.66h7.6s0,0,0,.06v25.93h-7.6S1849.37,609.64,1849.37,609.58Z"/>
      <path class="cls-6" d="M1870.39,583.9l1.06,0h.07a3.06,3.06,0,0,0,.61,0h-.2c.45,0,.91,0,1.37-.07h0l.49,0c.41,0,.82,0,1.23,0l1-.1a3.94,3.94,0,0,0,1.14-.08c.25,0,.5,0,.76,0v26.14h-.26a5.23,5.23,0,0,1-.56,0h-.41c-1.54,0-3.06,0-4.6.06-.59,0-1.2,0-1.79.06Z"/>
      <path class="cls-6" d="M1860,609.63h0s0,0,0-.09V583.62h7.6s0,0,0,.06v25.93c-2.53,0-5.06,0-7.58,0Z"/>
      <path class="cls-6" d="M1849.23,575s0,0,0,0V549.09h7.6s0,0,0,.06v25.93h-7.6S1849.23,575.07,1849.23,575Z"/>
      <path class="cls-6" d="M1870.25,549.34c.35,0,.7,0,1.06,0h.07a3.09,3.09,0,0,0,.61,0h-.2l1.37-.06h0c.16,0,.33,0,.49,0,.41,0,.82,0,1.23,0l1-.1a4.3,4.3,0,0,0,1.14-.07c.26,0,.51,0,.76,0v26.14h-1.23c-1.54,0-3.06,0-4.6.06l-1.79.06Z"/>
      <path class="cls-6" d="M1859.82,575.06h0s0,0,0-.08V549.05h7.6s0,0,0,.07v25.93h-7.6Z"/>
    </g>
  </g>
</svg>
