<svg xmlns="http://www.w3.org/2000/svg" viewBox="0 0 2048 1536">
  <defs>
    <style>
      .cls-1 {
        fill: #3c4a52;
      }

      .cls-2 {
        fill: #869ca8;
      }
    </style>
  </defs>
  <g id="parent-building12_layer-base_side-a">
    <path class="cls-1" d="M1474.13,1198.34c-1.44-4.39-1.69-9.1-2.11-13.77-.28-3.13-.51-6.26-.72-9.39q-.78-11.16-1.13-22.33c-.4-13.21-.55-26.43-.61-39.63q-.06-15.06-.09-30.11a20.28,20.28,0,0,0,9.61-4.72,22.05,22.05,0,0,0,6.14-8.94c1.69-4.35,2-9,2.11-13.66.1-3.07.19-6.13.22-9.19,0-4.78,0-9.56,0-14.34,0-21.06-.27-42.11-.45-63.18-.1-11-.26-21.91-.28-32.87,0-11.19-.16-22.39,0-33.57s.15-22.54.52-33.8q.36-10.83.73-21.65c.1-2.8.18-5.6.29-8.39.08-1.9.16-3.8.23-5.7.81-.91,1.6-1.82,2.36-2.76q2.37-2.93,4.73-5.86,4.69-5.79,9.27-11.67a24.37,24.37,0,0,1,2.73,13.86c-.22,7.78-.58,15.69-.93,23.35v.61c0,6.72-.06,13.46-.07,20.19q0,21.4,0,42.81c0,24,.17,50.13.48,82.16.23,23.14.49,53.6.53,83.94q0,10.49,0,21c-.06,13.75-.11,28,.14,42a20.36,20.36,0,0,1-3,11.12,17.17,17.17,0,0,1-1.83,2.45v.36c-.08,4.59-.26,9.51-.58,15.47h0c-.09,1.67-.18,3.35-.28,5-.16,2.87-.34,5.74-.56,8.61-.11,1.4-.21,2.82-.34,4.22a31.12,31.12,0,0,1-2.59,10.41c-2.43,5.19-7,8.45-11.84,8.45C1481.36,1208.76,1476.18,1204.61,1474.13,1198.34Z"/>
  </g>
  <g id="parent-building12_layer-base_side-b">
    <path class="cls-2" d="M1502.36,1172.05h0c.31-6,.49-10.87.57-15.47v-.36a17.65,17.65,0,0,0,1.83-2.44,20.42,20.42,0,0,0,3-11.13c-.25-14-.2-28.19-.14-41.94q0-10.48,0-21c0-30.35-.3-60.8-.53-83.94-.31-32-.46-58.14-.48-82.17q0-21.39,0-42.81c0-6.73,0-13.46.07-20.18,0-.21,0-.41,0-.62.34-7.65.7-15.56.92-23.35a24.37,24.37,0,0,0-2.73-13.86l2-2.57.69-.44c1.49-.94,2.93-1.94,4.39-2.93l.88-.61a5.12,5.12,0,0,1,.69,0,5.59,5.59,0,0,1,2,.37,121,121,0,0,1,13.14-1.22c1.69-.07,3.33-.11,4.86-.11a75.37,75.37,0,0,1,12.36.94c1.23.21,2.48.49,3.68.75s2.37.53,3.56.73h3l2,0h.83c1.29,0,2.57,0,3.86.08a16.72,16.72,0,0,1,7.47,1.83,19.33,19.33,0,0,1,7.61,7.82,40.48,40.48,0,0,1,3.55,9.34,50.15,50.15,0,0,1,1.12,6.52l.13,1a154,154,0,0,1,1,16.67c.16,8.78,0,18.11-.44,30.26q-.68,17.82-1.3,35.66l-.61,16.92c-.12,3.38-.18,6.83-.24,10.16,0,1.45,0,2.9-.07,4.36l-.54,27.36c-.17,8.54-.24,17.22-.3,25.63,0,4.48-.07,9-.12,13.45-.06,5.2-.08,10.41-.11,15.62-.06,13.85-.13,28.14-.83,42.2v.45c-.1,2.37-.2,4.82-.5,7.2a34.36,34.36,0,0,1-3.26,10.59c-2.62,5.56-7.48,9-12.69,9a12.33,12.33,0,0,1-1.92-.16,13.44,13.44,0,0,1-7.48-4.2l0,1.7,0,1.7,0,1c-.24,11-.49,22.28-1,33.39a27,27,0,0,1-1.25,7.67,20.38,20.38,0,0,1-3.39,6.25,14.51,14.51,0,0,1-11.19,5.77c-4.73,0-9.38-2.83-12.44-7.58a27,27,0,0,1-1,3.81,20,20,0,0,1-1,2.34c0,.45,0,.86,0,1.29-.09,6.08-3,11.5-7.36,13.8a9.72,9.72,0,0,1-4.61,1.17,9.91,9.91,0,0,1-3.72-.74,19.2,19.2,0,0,1-3.42,4.44l-.69.63h0Z"/>
  </g>
</svg>
