<svg xmlns="http://www.w3.org/2000/svg" xmlns:xlink="http://www.w3.org/1999/xlink" viewBox="0 0 2048 1536">
  <defs>
    <style>
      .cls-1 {
        fill: none;
      }

      .cls-2 {
        clip-path: url(#clip-path);
      }

      .cls-3 {
        fill: #bab7ae;
      }

      .cls-4 {
        fill: #9d9b94;
      }

      .cls-5 {
        fill: #bab7af;
      }

      .cls-6 {
        fill: #9e9b94;
      }

      .cls-7 {
        clip-path: url(#clip-path-2);
      }
    </style>
    <clipPath id="clip-path">
      <rect class="cls-1" x="1632.39" y="759.72" width="170.02" height="206.89"/>
    </clipPath>
    <clipPath id="clip-path-2">
      <rect class="cls-1" x="1726.2" y="833.16" width="23.28" height="84.83"/>
    </clipPath>
  </defs>
  <g id="parent-building13_layer-base_side-a">
    <g class="cls-2">
      <path class="cls-3" d="M1768.75,819.37l.08,1.31.13,2.46a82.78,82.78,0,0,1,3.2-10l-1.46-.08-2.59-.29A52.24,52.24,0,0,1,1768.75,819.37Zm-97,85.74c0,.75,0,1.51,0,2.26a7.83,7.83,0,0,1,.6-2.12,11.58,11.58,0,0,1,2.33-3.75h-.12a2.53,2.53,0,0,1-.67-.11l-.29-.07-.64-.08-1.35-.18Zm-32.62,57.07a18.68,18.68,0,0,1-.75-4.27,6.43,6.43,0,0,1-3-5.49c-.2-20.88-.19-41.22-.14-65.64l-.28-2.8-.27-2.8-.31-3.1c-.16-1.72-.3-3.46-.45-5.19v-.1l-.27-3c-.08-.86-.16-1.73-.25-2.59l0-.14a52.88,52.88,0,0,1-.4-9.57,4.83,4.83,0,0,1,4.74-4.15,4.89,4.89,0,0,1,2.95,1,25.08,25.08,0,0,1,6.39-.59h.27c1.55,0,3.19.09,5,.27,1.74-.23,3.38-.43,4.86-.57l2.28-.21.55,0,.17,0,.65-.06.64,0c1.2-.11,2.43-.23,3.67-.31,5.19-.33,9.88-.63,14.76-.85l4-.16,8.65-.38c-.15-1.7-.23-3.45-.28-4.86v-.13l0-.83c-.11-2.5-.22-5.07,1.09-7.31a7.68,7.68,0,0,1,4.59-3.61,11.84,11.84,0,0,1,3.16-.4,31.07,31.07,0,0,1,4.07.36c2.93.42,6.35.78,11.07,1.17l.56,0,.56,0c4.13-.57,8.17-1.12,12.25-1.53l.68-.07h.13l.36,0,.35,0c2.37-.23,5.62-.54,8.65-.71,1.77-.1,3.52-.15,5.29-.21h.31c-.07-2-.12-3.37-.2-4.7-.3-3.6-.6-7.19-.92-10.79l-.08-.92c-.15-1.62-.29-3.24-.41-4.86,0-.45-.07-.9-.11-1.36-.25-2.91-.52-5.91.72-8.54a8.16,8.16,0,0,1,7.4-4.91,9.45,9.45,0,0,1,1.07.07,7.9,7.9,0,0,1,2.69.89,18.8,18.8,0,0,1,6.35-1.87,28.91,28.91,0,0,1,3.89-.25c2,0,4.14.17,6,.32l1.55.12,4.83.35,5.9.34.67,0,.54,0,2,.11.8,0a17.15,17.15,0,0,1,5.36.88,9.07,9.07,0,0,1,5.45,7.11,9,9,0,0,1-4.41,9,14.73,14.73,0,0,1-2.82,1.11c-.34.56-.67,1.11-1,1.68-.64,1.41-1.25,2.94-2,5a92.86,92.86,0,0,0-2.71,10.26,312,312,0,0,0-4.66,31.66c.36,3.47.77,6.85,1.09,9.41l.27,2.23.21,1.78.21,1.78a5.85,5.85,0,0,1,4.2,4.09l.25.87.12.43.19.64.06.21.06.2.05.18.14.48.09.32c.11.36.21.73.3,1.08a43.94,43.94,0,0,1,1.07,5.42c.4,2.72.65,5.48.85,7.86l.38,4.39.39,4.39.16,1.88,0,.23,0,.44c.16,1.74.33,3.78.46,5.7.21,3.65.36,7.16.45,10.74s-.15,7.36-.36,10.52l0,.52a6.31,6.31,0,0,1-.75,2.63,10,10,0,0,1-7.31,9.44c-3.39.83-6.69,1.34-10,1.83a15.72,15.72,0,0,1-4.71,1.16l-.2,0c-.78.1-1.36.19-1.92.3l-1.33.25-.3,0-.47.09-.28,0c-3,.56-6.07,1.13-9.11,1.66s-6.67,1-11.3,1.41c-2.1.18-4.11.29-6,.3h-.21l-1,0-5.23.68c-1.27.17-2.54.34-3.81.53l-.54.08c-1.28.2-2.57.39-3.86.54-1.73.2-3.57.28-5,.34h-.11l-1.15,0h-.39a11,11,0,0,1-8.26-4.26,10.83,10.83,0,0,1-1.32-2.23,14,14,0,0,1-1.17-.8,6.27,6.27,0,0,1-4.12,2.35,5.69,5.69,0,0,1-.83.06,6.59,6.59,0,0,1-6.49-4.9l-.11-.46a12.76,12.76,0,0,1-.42-2.67c0-1.32.06-2.63.17-3.89l.09-.87.09-.88.09-.87.14-1.35.09-.82.09-.91-.21-1.84a3.24,3.24,0,0,1-1.22.48c-.44.1-.87.22-1.29.35l-1.26.53-.77.42a33.66,33.66,0,0,1-2.06,3.25,35.4,35.4,0,0,1-6.79,7.66,21.44,21.44,0,0,1-4.86,2.94,29.35,29.35,0,0,1-5.81,1.67,9,9,0,0,1-.76,2.93,11.69,11.69,0,0,1-4.88,5.56,12,12,0,0,1-6,1.65,9.47,9.47,0,0,1-3-.48c-1-.29-1.78-.58-2.57-.9a13,13,0,0,1-2.68-1.56l-.49-.36a5.58,5.58,0,0,1-4.83,5.26,6.61,6.61,0,0,1-.76.05A5.79,5.79,0,0,1,1639.09,962.18Z"/>
      <path class="cls-3" d="M1797.92,942.53a3.37,3.37,0,0,1-2.68-1.81,6.81,6.81,0,0,1-.31-4.12c0-.33,0-.66,0-1a3.1,3.1,0,0,1-1.81.61,3,3,0,0,1-3-2.59,9.64,9.64,0,0,1,0-1.7,2.86,2.86,0,0,1-.62-1.82c0-.53,0-1.05,0-1.58,0-.3,0-.61,0-.91v-1.09a2.57,2.57,0,0,1-.38-1.15c-.29-3.93-.26-7.87-.31-11.8,0-.91,0-1.82,0-2.72a3,3,0,0,1-1.64-2.67q0-7.1-.07-14.17c0-1.63,0-3.26,0-4.89a3.18,3.18,0,0,1-1.1.8,3.06,3.06,0,0,1-3.29-.65,3.77,3.77,0,0,1-1-1.39,12.38,12.38,0,0,1-.65-2.53,25.86,25.86,0,0,1,.11-5.42c.09-1.7,0-3.38-.09-5.08l-.27-7c-.1-2.69-.25-5.37-.39-8q-.16-3.15-.32-6.29c0,.89,0,1.78,0,2.67,0,1.83.31,3.7-.33,5.46a3,3,0,0,1-5.74-.76c-.18-2-.28-4-.59-5.93-.19-1.17-.37-2.33-.56-3.5l-1.08-6.78c0,.13,0,.26.08.39,0-.26-.11-.52-.16-.78-.16.2-.34.4-.52.59a.68.68,0,0,1,0,.14,3,3,0,0,1-5.09,1.71,6.91,6.91,0,0,1-.86-.85,6.64,6.64,0,0,1-.79-1.4,13.4,13.4,0,0,1-.59-3.57c-.11-1-.2-1.94-.3-2.91-.19-1.2-.38-2.4-.52-3.61-.18-1.6-.35-3.19-.53-4.78-.23-2-.33-4.09-.39-6.12a53.69,53.69,0,0,1,.42-6.7v-.06a10.69,10.69,0,0,1,.21-3.14A5.48,5.48,0,0,1,1764,811a4.33,4.33,0,0,1,1.24-.78,4.49,4.49,0,0,1,1.55-.29,3.07,3.07,0,0,1,3.3,2.18c.45,1.41.94,2.81,1.31,4.25.27,1.07.55,2.14.82,3.21.33,1.27.65,2.52,1,3.79.51,2.14,1,4.27,1.54,6.41.22-2.15.56-4.26.87-6.4a3.05,3.05,0,0,1,1.81-2.36,3,3,0,0,1,2.68.19,3,3,0,0,1,1.23-.47l.17,0a3,3,0,0,1,3.38,2.56l0,.48c0-1.84.07-3.68.11-5.52a3.07,3.07,0,0,1,1.37-2.51c0-.77,0-1.54,0-2.3a20.54,20.54,0,0,1,.12-3.76,4.41,4.41,0,0,1,.33-1,3.08,3.08,0,0,1,2.52-1.82c0-1.76.1-3.53.22-5.29a3,3,0,0,1,5.81-.56,2.81,2.81,0,0,1,2-.14,3.83,3.83,0,0,1,1.61.9,4.81,4.81,0,0,1,1.06,2,7.24,7.24,0,0,1,.22,2.41c0,.48,0,1,0,1.44.08,2,.16,4,.25,6,.12,3,.18,5.94.24,8.92q.22,10.53.43,21.08c.24,12.54.51,25.08.58,37.62,0,3.9.06,7.8.07,11.69,0,.59,0,1.17,0,1.75.11,3.83.21,7.67.33,11.51,0,.74,0,1.49,0,2.24V915c0,2.93.05,5.88,0,8.82-.07,2.55-.15,5.11-.22,7.67,0,.9,0,1.81-.07,2.71-.06,1.92-.32,3.83-.49,5.74a3,3,0,0,1-3,2.6A2.34,2.34,0,0,1,1797.92,942.53Z"/>
      <path class="cls-4" d="M1699.53,858.37l-.08,0c-.79-.27-1.59-.5-2.39-.76a25.33,25.33,0,0,1-2.69-1.11,26.08,26.08,0,0,1-2.58-1.44c-1.41-.88-3.21-2-3.18-3.9a3.05,3.05,0,0,1,2.2-2.89,2.64,2.64,0,0,1,.83-.11,3,3,0,0,1,2.37,1.17l.35.26c.76.48,1.52.92,2.3,1.36s1.45.64,2.19.93,1.64.51,2.46.79a6.54,6.54,0,0,1,1.93.9,3.65,3.65,0,0,1,1.31,1.93,3,3,0,0,1-2.1,3.69,3,3,0,0,1-.78.1A3,3,0,0,1,1699.53,858.37Z"/>
      <path class="cls-4" d="M1702.24,859c-1-1.61-1.1-3.69-1.21-5.54-.11-2-.06-4.07,0-6.09,0-3.29.15-6.59.08-9.88a3,3,0,0,1,6,0c.1,5.44-.32,10.89,0,16.32,0,.53.1,1.06.18,1.58a3,3,0,0,1-2,5.23A3.47,3.47,0,0,1,1702.24,859Z"/>
      <path class="cls-4" d="M1687.48,850.67v-.08a3.29,3.29,0,0,1,0-.54c.09-.85.21-1.7.33-2.54.16-1.21.31-2.41.45-3.62.25-2.11.39-4.24.54-6.37v.15c0-.52.08-1,.08-1.56a3,3,0,0,1,0-1.48,3,3,0,0,1,3.69-2.1,3.2,3.2,0,0,1,2.24,2.66,9.1,9.1,0,0,1,0,2c-.09,1.62-.23,3.24-.35,4.85-.25,3-.73,5.92-1.06,8.88a.71.71,0,0,0,0-.14,3.11,3.11,0,0,1-.86,2,3,3,0,0,1-5.13-2.12Z"/>
      <path class="cls-4" d="M1695.2,853.17c-.24-.51-.45-1-.64-1.56a4.12,4.12,0,0,1-.41-.32,7,7,0,0,1-1.83-3.93,30.7,30.7,0,0,1-.6-5.24q0-.47,0-.93a4.77,4.77,0,0,1,.19-1.18,9.89,9.89,0,0,1-.41-1.41,3,3,0,0,1-2-2.08v0a3.54,3.54,0,0,1-.11-.85,3,3,0,0,1,1.83-2.77,6.13,6.13,0,0,1,3.87.24c.73.2,1.47.36,2.21.53l1.47.31-.39-.09a34.56,34.56,0,0,1,5,1.31,4.88,4.88,0,0,1,2.12,1.46,3.17,3.17,0,0,1-1.31,4.89,4.94,4.94,0,0,1-2.35.24c0,.23,0,.47.05.7.1.92.19,1.83.32,2.75a2.93,2.93,0,0,1,.86,1.39,3,3,0,0,1-2.09,3.69l-.1,0a9,9,0,0,1,.23,1.54,3,3,0,0,1-1.48,2.59l-.14.09a3,3,0,0,1-1.48.4A3.1,3.1,0,0,1,1695.2,853.17Z"/>
      <path class="cls-4" d="M1744.36,835.22a5.27,5.27,0,0,1-.91-2.57c-.11-.68-.2-1.36-.27-2-.36-3.31-.45-6.63-.57-10s-.29-6.74-.46-10.11c-.07-1.59-.11-3.2-.17-4.8,0-.62,0-1.24,0-1.86a17.7,17.7,0,0,1,.11-3.57,3.07,3.07,0,0,1,2.57-2.56,3,3,0,0,1,3.17,1.8,4.09,4.09,0,0,1,.29,1.54,3,3,0,0,1-.15.91c-.07,4.34.2,8.68.41,13s.28,8.4.55,12.6c.11,1.28.21,2.58.42,3.86a3,3,0,0,1,.52,2.63,3.17,3.17,0,0,1-2.2,2.27,3.21,3.21,0,0,1-.8.11A3.3,3.3,0,0,1,1744.36,835.22Z"/>
      <path class="cls-4" d="M1756.39,839.83a4.59,4.59,0,0,1-1.56-.29,13.26,13.26,0,0,1-1.45-.75l-1.44-.78c-.48-.23-1-.44-1.46-.63-.86-.28-1.73-.49-2.6-.71a9,9,0,0,1-2.39-.79,2.94,2.94,0,0,1-.78-.66l-.11-.12h0l-.13-.18,0,.06a2.47,2.47,0,0,1-.31-.52.2.2,0,0,1,0-.08l0,0a3,3,0,0,1,3.14-4.18,2.91,2.91,0,0,1,1,.35c1.32.37,2.66.64,4,1.08a27.43,27.43,0,0,1,4.6,2.22,3,3,0,0,1,2.47,2.93,3,3,0,0,1-2.86,3Z"/>
      <path class="cls-4" d="M1757.58,840.7a3.07,3.07,0,0,1-1.81-2.36,21.86,21.86,0,0,1-.12-3.53c0-.72,0-1.46,0-2.19-.1-1.63-.19-3.26-.29-4.88-.26-2.23-.45-4.47-.75-6.69q-.54-4.06-1.11-8.11c-.32-2.31-.56-4.62-.72-7a30.78,30.78,0,0,1,0-3.72c0-.66.07-1.31.12-2a4.62,4.62,0,0,1,.57-2.25,3,3,0,0,1,5.48.72,2.58,2.58,0,0,1,.11.91,2.94,2.94,0,0,1-.16.94c0,.27-.06.55-.08.82-.06,1.38-.08,2.74-.07,4.11.37,5.06,1.18,10.08,1.86,15.1.18,1.34.3,2.7.45,4,.12,1.12.25,2.23.32,3.36l.27,4.63c.08,1.37,0,2.74,0,4.11a2.79,2.79,0,0,1,.18,1,3.21,3.21,0,0,1-1.57,2.73,3,3,0,0,1-1.52.4A2.93,2.93,0,0,1,1757.58,840.7Z"/>
      <path class="cls-4" d="M1753.25,835.63a3,3,0,0,1-1.81-2.35,1.49,1.49,0,0,0,0-.21,3.09,3.09,0,0,1-2.44-2.39,4.65,4.65,0,0,1-.81-1.56c-.24-.77-.4-1.56-.57-2.35-.27-1.18-.54-2.36-.76-3.55-.47-2.58-.93-5.15-1.35-7.74s-.75-5-1.07-7.53c-.13-1-.23-2-.29-3,0-.6-.09-1.21-.14-1.82a3,3,0,0,1-1.48-2.59A3,3,0,0,1,1744,798a3,3,0,0,1,1.08-.39,3,3,0,0,1,1.91-.7,3.07,3.07,0,0,1,2.77,1.84l.25.1c.52.22,1,.48,1.55.73l1.51.76a6,6,0,0,1,1,.3,4.5,4.5,0,0,1,2.5,2.25,3,3,0,0,1-3.22,4.13v0a3,3,0,0,1,2.42,2.53q.55,6.11,1,12.22c.14,1.82.24,3.65.33,5.49h0a3,3,0,0,1,1.6,3.93c-.27.53-.53,1.07-.79,1.6a6,6,0,0,1-1.67,2.45,3.17,3.17,0,0,1-1.86.62A2.88,2.88,0,0,1,1753.25,835.63Z"/>
      <path class="cls-4" d="M1720.78,836.9a3,3,0,0,1-1.85-5.69,4.47,4.47,0,0,1,2.88-.35,5.3,5.3,0,0,1,1.19.48,3,3,0,0,1-2.22,5.56Z"/>
      <path class="cls-4" d="M1715.85,839a3,3,0,0,1-2.58-3.19c0,.08,0,.15,0,.21,0-.4,0-.81,0-1.22s0-.54,0-.81,0-.81,0-1.21c0-1.15-.06-2.29-.08-3.45a3,3,0,0,1,3-3,4.14,4.14,0,0,1,3.44,3.62c0,.74,0,1.48,0,2.23a21.89,21.89,0,0,1-.23,3.43,7.4,7.4,0,0,1,0,.82,3,3,0,0,1-3,2.6Z"/>
      <path class="cls-4" d="M1719.59,839.5a3.36,3.36,0,0,1-1.53-.18,3.13,3.13,0,0,1-1.53-1.2c-.31-.13-.61-.26-.91-.41a3,3,0,0,1,2.44-5.47l.17.08c.7.32,1.41.6,2.12.88l1.09.44a7.76,7.76,0,0,1,.77.37,3.62,3.62,0,0,1,1.23,1.2,3,3,0,0,1-2.19,4.49l-.39,0A3.9,3.9,0,0,1,1719.59,839.5Z"/>
      <path class="cls-4" d="M1717.14,835.92a6,6,0,0,1-.11-2.07c0-.46,0-.91.07-1.37a1,1,0,0,1,0-.17l0,0c-.56-.43-1.11-.87-1.66-1.31a3,3,0,1,1,3.66-4.75l1.1.87a3,3,0,0,1,3,1.8,4.28,4.28,0,0,1,.24,2.73,3.47,3.47,0,0,1-.34.78v.1a3.44,3.44,0,0,1,0,.46,20,20,0,0,1-.12,2.57,3,3,0,0,1-2.57,2.57,2.83,2.83,0,0,1-.41,0A3.08,3.08,0,0,1,1717.14,835.92Z"/>
      <path class="cls-4" d="M1762,798.06a3.47,3.47,0,0,1-2.32-2.38,20.91,20.91,0,0,1-.59-2.72,18.44,18.44,0,0,1-.33-2.23,3.54,3.54,0,0,1,.47-1.73,4.93,4.93,0,0,1,1.27-1.46,6.1,6.1,0,0,1,2.62-1.3,3.85,3.85,0,0,1,3.52,1.1,5.64,5.64,0,0,1,1.19,4.09,3.09,3.09,0,0,1,.14.32,7.51,7.51,0,0,1,.35,1.49l0-.12a3,3,0,0,1-2.13,3.54,2.9,2.9,0,0,1-.83.1l-.17.24a3.16,3.16,0,0,1-2.39,1.17A3,3,0,0,1,1762,798.06Z"/>
      <path class="cls-4" d="M1763.61,792.31c0-.17,0-.34,0-.51a3,3,0,0,1-.42-1.51,3,3,0,0,1,3-3,3.29,3.29,0,0,1,3,2.13,8.31,8.31,0,0,1,.43,2.89,3,3,0,1,1-6,0Z"/>
      <path class="cls-4" d="M1767.15,801.37l0-.35v.05c0-.06,0-.11,0-.16v.1c0-.09,0-.18,0-.27v.11c0-.14,0-.27,0-.4v0c0-.06,0-.11,0-.17v-.07a.13.13,0,0,0,0,.06s0-.1,0-.14a.31.31,0,0,1,0,.1c0-.07,0-.13,0-.19v0c0-.08,0-.16,0-.25v0c0-.16,0-.32,0-.48h0v-.1h0l0-.38a.34.34,0,0,1,0,.1c0-.12,0-.24,0-.36v.1a.49.49,0,0,0,0-.12.92.92,0,0,0,0-.16v-.1h0c0-.16,0-.33,0-.5v-.09l0-.39a.34.34,0,0,1,0,.1l0-.39a.37.37,0,0,1,0,.11l0-.46v-.08h0v-.1h0v-.06a.71.71,0,0,0,0-.14v0h0a.92.92,0,0,0,0-.16h0v0s0-.05,0-.08,0-.3,0-.44,0-.5,0-.75V795a3,3,0,0,0,0-.31h0v-.08l-.08-1.16a.38.38,0,0,0,0,.1,1.09,1.09,0,0,1,0-.18c0-.06,0-.12,0-.18s0,.07,0,.1a.49.49,0,0,1,0-.12v-.08h0c-.06-.75-.1-1.5-.14-2.26s-.11-1.69-.16-2.54a.41.41,0,0,1,0,.11c0-.3,0-.6,0-.9,0-.71-.07-1.43-.1-2.14l-.18-4c-.12-2.3-.18-4.6-.27-6.91-.07-1.93-.15-3.86-.23-5.78,0-1.2-.1-2.38-.16-3.58,0-.7-.07-1.41-.07-2.12,0-.36,0-.71,0-1a7.66,7.66,0,0,1,0-.83,1.54,1.54,0,0,1,.19-.64,1.6,1.6,0,0,1,.18-.25.78.78,0,0,1,.24-.16,1,1,0,0,1,.58-.11,1,1,0,0,1,.47.24.76.76,0,0,1,.13,1,.7.7,0,0,1-.31.23c0,.25,0,.5,0,.74s0,.78,0,1.16c0,.84.07,1.68.11,2.52l.06,1.39c.06,1.51.13,3,.19,4.55.09,2.11.16,4.23.25,6.34.12,3.37.28,6.75.43,10.12h0c.06.75.09,1.51.14,2.26s.11,1.69.16,2.54a.38.38,0,0,1,0-.1.45.45,0,0,0,0,.11v.17h0v0a3.71,3.71,0,0,1,0,.47c0,.24,0,.49,0,.74a.41.41,0,0,0,0-.11l0,.41a.31.31,0,0,0,0-.1c0,.41.06.82.08,1.23v-.1c0,.06,0,.12,0,.18a1.15,1.15,0,0,1,0,.19v0h0v0h0v0h0v.08h0v0s0,0,0,.07v-.05a.57.57,0,0,1,0,.13h0v.1h0l0,.42v0a.76.76,0,0,1,0,.15l0,.38a.41.41,0,0,0,0-.11l0,.4a.41.41,0,0,1,0-.11c0,.18,0,.36,0,.53s0,.13,0,.2,0-.07,0-.1,0,.16,0,.24a.49.49,0,0,0,0,.12h0v.1h0c0,.08,0,.16,0,.24v0c0,.11,0,.22,0,.32v.09h0l0,.4v.05a2.46,2.46,0,0,1,0,.28v0h0a1.64,1.64,0,0,0,0,.22h0v.08h0l0,.4v.08h0v.06h0v.07l0,.43a.75.75,0,0,1-1.5,0Z"/>
      <path class="cls-4" d="M1768.42,796.46a.77.77,0,0,1-.64-.85c.09-.77.2-1.55.29-2.32s.19-1.66.29-2.48a.75.75,0,1,1,1.48.2c-.08.8-.17,1.59-.27,2.39s-.22,1.61-.3,2.42a.75.75,0,0,1-.75.65Z"/>
      <path class="cls-4" d="M1763.07,800.19c0-.48,0-1,0-1.45s.05-1.21.07-1.82l.09-3q.1-3.13.17-6.26c0-2.24.09-4.47.12-6.71s0-4.77.1-7.16c0-.71,0-1.42,0-2.13s.06-1.73.16-2.59a.75.75,0,0,1,.84-.64.76.76,0,0,1,.64.85c0,.18,0,.37,0,.55-.06.95-.09,1.9-.11,2.86,0,1.21-.07,2.42-.07,3.64s0,2.32,0,3.48c0,1,0,2,0,2.94,0,2.21-.08,4.43-.14,6.65s-.13,4.69-.21,7l-.06,1.73,0,1.05c0,.22,0,.44,0,.67a.72.72,0,0,1,0,.41.94.94,0,0,1-.3.48.73.73,0,0,1-.44.15A.77.77,0,0,1,1763.07,800.19Z"/>
      <path class="cls-4" d="M1758.51,795.73c-.1-1.46-.17-2.91-.18-4.36s0-2.88,0-4.32a.76.76,0,0,1,.75-.75.75.75,0,0,1,.75.75c0,1.44,0,2.88,0,4.32s.08,2.9.18,4.36a.76.76,0,0,1-.75.75A.77.77,0,0,1,1758.51,795.73Z"/>
      <path class="cls-4" d="M1715.05,837.89c-.12-1.23-.14-2.46-.2-3.68,0-1-.08-1.91-.11-2.87-.09-2.43-.17-4.85-.25-7.28,0-.81,0-1.63,0-2.44,0-1.48,0-3-.07-4.43,0-2.22,0-4.44,0-6.65,0-1.74,0-3.48.06-5.22s.09-3.77.2-5.65a.77.77,0,0,1,.75-.75.75.75,0,0,1,.75.75c-.27,4.68-.26,9.38-.26,14.06q0,6.6.22,13.19c.05,1.72.13,3.43.18,5.15,0,.86.07,1.71.11,2.57s.08,1.84.13,2.75v-.1l0,.39a.76.76,0,0,1-.64.85h-.09A.75.75,0,0,1,1715.05,837.89Z"/>
      <path class="cls-4" d="M1719.31,836.35c0-4.36,0-8.73.06-13.1,0-.78,0-1.56.06-2.33a.75.75,0,1,1,1.5,0c0,1-.06,2.07-.07,3.1s0,2.28,0,3.42c0,2.23,0,4.45,0,6.67,0,.75,0,1.5,0,2.24a.76.76,0,0,1-.75.75A.75.75,0,0,1,1719.31,836.35Z"/>
      <path class="cls-4" d="M1721.66,834.32a6,6,0,0,1-1.46-.26,3.74,3.74,0,0,1-1.25-.73,3.11,3.11,0,0,1-.48-.48,3.34,3.34,0,0,1-.33-.55,4.17,4.17,0,0,1-.35-1.43.75.75,0,1,1,1.48-.2,3.32,3.32,0,0,0,.06.44c0,.11.05.22.09.33s.09.23.14.35l0,.07.05.06a3,3,0,0,0,.25.25c.09.08.19.15.3.23a1.88,1.88,0,0,0,.24.14l.18.08.39.11.65.09h0c.27,0,.52,0,.78,0h0a10.35,10.35,0,0,0,1.36-.19,11.11,11.11,0,0,0,1.22-.34h0a16.17,16.17,0,0,0,1.66-.7,34.07,34.07,0,0,0,3.19-1.87,41.8,41.8,0,0,0,4-3.16l-.07.06a50.75,50.75,0,0,0,4.4-4.4l-.07.07a47.59,47.59,0,0,0,3.56-4.58l0,0a35.69,35.69,0,0,0,2.19-3.73v0l0,0,0,0h0a26.64,26.64,0,0,0,1.3-3.07l0,.09a25.59,25.59,0,0,0,.87-3.11h0v0h0q.18-.9.3-1.8c.07-.58.11-1.16.15-1.75v0c0-.6.06-1.21.06-1.81,0-.36,0-.72,0-1.08s0-.72,0-1.07a.79.79,0,0,1-.41-.57.76.76,0,0,1,.65-.84,1,1,0,0,1,.59.05.89.89,0,0,1,.42.37,1.57,1.57,0,0,1,.23.61c0,.23,0,.45,0,.68,0,.59,0,1.19,0,1.78s0,1.1,0,1.65a23.84,23.84,0,0,1-.42,3.67c-1.12,6.08-4.62,11.4-8.68,15.93a50.88,50.88,0,0,1-5.06,4.9,36.29,36.29,0,0,1-2.88,2.23,31.65,31.65,0,0,1-3,1.84,12.49,12.49,0,0,1-5.89,1.68Z"/>
      <path class="cls-4" d="M1721.24,830a.76.76,0,0,1-.75-.75.75.75,0,0,1,.75-.75,8.1,8.1,0,0,0,.85,0h.06c.29,0,.57-.06.85-.11h-.07a14.42,14.42,0,0,0,1.59-.45l-.09,0a22.22,22.22,0,0,0,2.4-1l-.09,0a32.08,32.08,0,0,0,3.2-1.9h0a46.16,46.16,0,0,0,4.44-3.44h0l.05,0,0,0h0a50.55,50.55,0,0,0,4.07-4.08v0h0a45.8,45.8,0,0,0,3.43-4.42.22.22,0,0,0,0,.08,49.44,49.44,0,0,0,2.93-5v0l0-.07v0h0c.27-.56.55-1.12.8-1.69s.48-1.12.73-1.68.56-1.42.83-2.13a20.37,20.37,0,0,0,.57-2,2.21,2.21,0,0,0,0-.25.78.78,0,0,1,.85-.65.76.76,0,0,1,.64.85,18.76,18.76,0,0,1-.5,2c-.07.23-.14.46-.22.68s-.23.6-.34.91-.32.83-.5,1.25c-.29.65-.57,1.3-.85,2-.17.39-.37.77-.55,1.15-.35.7-.71,1.39-1.09,2.08-.75,1.35-1.59,2.65-2.46,3.92a45.59,45.59,0,0,1-6,7,45.13,45.13,0,0,1-7.07,5.55,26,26,0,0,1-4,2.07,17.56,17.56,0,0,1-2.23.72,9.71,9.71,0,0,1-1,.16c-.31,0-.62,0-.93,0Z"/>
      <path class="cls-5" d="M1769.91,817.92a1.16,1.16,0,0,1-.26-.28,2,2,0,0,1-.2-.47,2,2,0,0,1-.07-.55,6.43,6.43,0,0,1,0-.76,5.05,5.05,0,0,1,.11-.78,4.6,4.6,0,0,1,.25-.74.77.77,0,0,1,1-.41.81.81,0,0,1,.63.19c.11-.18.23-.36.35-.53a3.93,3.93,0,0,1,.8-.92,2,2,0,0,1,1.18-.44,1.52,1.52,0,0,1,1,.49,1,1,0,0,1,.26.5.75.75,0,0,1-.64.84.72.72,0,0,1-.69-.3h0l-.06,0,0,0-.07.05,0,0s-.11.1-.16.16l.06-.07c-.2.23-.37.48-.55.73h0l-.3.48a.8.8,0,0,1,.17.15.77.77,0,0,1-.14,1.06c-.21.14-.41.29-.62.42l-.26.17a3.17,3.17,0,0,1-.2.51,1.11,1.11,0,0,1-.69.6,1.34,1.34,0,0,1-.35.05A.72.72,0,0,1,1769.91,817.92Z"/>
      <path class="cls-5" d="M1770.36,818.19a1.27,1.27,0,0,1-.68-.32,3,3,0,0,1-.57-1.82,11.54,11.54,0,0,1,0-2.35,10.43,10.43,0,0,1,.17-1.12,2.79,2.79,0,0,1,.25-.66,6.87,6.87,0,0,1,.08-.78,1.14,1.14,0,0,1,.67-.93,2.08,2.08,0,0,1,.86,0h.19a.76.76,0,0,1,.75.75.75.75,0,0,1-.46.69,1.3,1.3,0,0,1,.08.17,2.39,2.39,0,0,1,.17.7,5.9,5.9,0,0,1,.07,1.19c0,.22,0,.44,0,.67s0,.24,0,.35a8.7,8.7,0,0,1-.07,1.84,2.53,2.53,0,0,1-.24.81.71.71,0,0,1-.36.55l0,0-.1.08a1.08,1.08,0,0,1-.57.17Z"/>
      <path class="cls-5" d="M1751.2,838.38a.75.75,0,0,1-.45-.59,13.73,13.73,0,0,1-.1-1.7c0-.26,0-.52,0-.78a.76.76,0,0,1-.4-.15,1,1,0,0,1-.27-.34.82.82,0,0,1-.06-.38.67.67,0,0,1-.06-.28c0-.26,0-.51,0-.77a.69.69,0,0,1,0-.25c0-.43,0-.87,0-1.3v-.25c0-.4,0-.79,0-1.19s0-.69,0-1a1,1,0,0,1-.55-.6,1.73,1.73,0,0,1,.14-1,2.22,2.22,0,0,1,.58-.89c0-.35,0-.7,0-1.05a.78.78,0,0,1,.75-.75.76.76,0,0,1,.75.75c0,.24,0,.48,0,.72l.19,0h0a.72.72,0,0,1,.54-.36.74.74,0,0,1,.82.54,2.7,2.7,0,0,1,.12.47c0,.17,0,.34,0,.51a.77.77,0,0,1,.36.64c0,.29,0,.58,0,.87,0,.13,0,.26,0,.39,0,.46,0,.93,0,1.39s0,.9,0,1.34,0,1,0,1.5a.8.8,0,0,1-.19.49c0,.55,0,1.1-.1,1.65,0,.15,0,.31,0,.46a1.08,1.08,0,0,1-.18.49.84.84,0,0,1-.72.38l-.06.28a1.37,1.37,0,0,1-.51.8.72.72,0,0,1-.45.15A.77.77,0,0,1,1751.2,838.38Z"/>
      <path class="cls-5" d="M1753.16,818a3.12,3.12,0,0,1-.11-.61c0-.2,0-.4,0-.61l0-.77c0-.49,0-1-.07-1.46s-.1-.91-.12-1.36a.75.75,0,0,1,.75-.75.73.73,0,0,1,.3.07l0-.15a4,4,0,0,1,.19-1.09.76.76,0,0,1,.8-.45.74.74,0,0,1,.64.74s0,0,0,.08h0a.73.73,0,0,1,.22.36.74.74,0,0,1-.43.88L1755,815c0,.39-.11.78-.16,1.18-.08.6-.14,1.22-.28,1.81a.76.76,0,0,1-.72.55A.74.74,0,0,1,1753.16,818Z"/>
      <path class="cls-5" d="M1745.17,815.51a19.55,19.55,0,0,1,0-2.42c0-.35,0-.69.08-1a1.3,1.3,0,0,1,.33-.82.87.87,0,0,1,.79-.21.91.91,0,0,1,.57.42l.49.69a.76.76,0,0,1-.13,1.05.78.78,0,0,1-.59.14v.54c0,.21,0,.42,0,.63a4.38,4.38,0,0,1-.1,1.09.75.75,0,0,1-1.46-.09Z"/>
      <path class="cls-5" d="M1693.73,855.44a19.62,19.62,0,0,1,.14-3.34c.07-.48.13-1,.2-1.44s.11-.73.16-1.1.08-.45.11-.68.08-.5.13-.74.14-.49.22-.73a.75.75,0,0,1,1-.49,1.1,1.1,0,0,1,.58.5,2.43,2.43,0,0,1,.18,1v0l.06.63a.77.77,0,0,1,.36-.15.76.76,0,0,1,.79.45,1.47,1.47,0,0,1,.15.59c0,.22,0,.45,0,.67s0,.56,0,.84v0a.74.74,0,0,1,.54.3,1.14,1.14,0,0,1,.24.63,1.65,1.65,0,0,1-.26.94l0,.09a.72.72,0,0,1-.06.62.76.76,0,0,1-.69.37c0,.09,0,.18,0,.27l-.06.29a1,1,0,0,1-.31.55.75.75,0,0,1-1.17-.15,2.32,2.32,0,0,1-.29-.73c0-.18-.07-.36-.11-.54l0-.22-.06-.06c-.06-.06-.11-.13-.16-.19,0,.59,0,1.17,0,1.76a.75.75,0,0,1-.75.75A.76.76,0,0,1,1693.73,855.44Z"/>
      <path class="cls-6" d="M1704.69,881c0-.92,0-1.84,0-2.75l-.06-3.34c0-2.09-.1-4.19-.13-6.29,0-4.44-.12-8.87-.1-13.31,0-1.22,0-2.44,0-3.66,0-.91,0-1.82,0-2.74a20.23,20.23,0,0,1,.25-3.81,2,2,0,0,1,1.71-1.71,2,2,0,0,1,2.2,1.45,9.08,9.08,0,0,1,.21,1.65l0,.87c0,.48,0,1,.05,1.43,0,1.12,0,2.24.06,3.36a2,2,0,0,1,.3,2s0,0,0,.07a.9.9,0,0,0-.06.22q-.09.57-.15,1.14c0,1.15,0,2.3.08,3.45.11,4.35.4,8.69.59,13,0,1.16.06,2.31.06,3.47,0,.45,0,.89,0,1.33a24.09,24.09,0,0,1-.08,2.82,2,2,0,0,1-1,1.46,2,2,0,0,1-4-.19Z"/>
      <path class="cls-6" d="M1757.84,919.56a2,2,0,0,1-.88-2.34h0c.07-.42.1-.85.13-1.27,0,.09,0,.18,0,.27.13-2,.11-3.9.11-5.85v-1.73a2.61,2.61,0,0,1-.24-.73,5.64,5.64,0,0,1-.11-.92c0-.43-.09-.87-.13-1.31-.07-.87-.15-1.75-.21-2.62a2.46,2.46,0,0,1,0,.26c-.15-2.18-.29-4.37-.3-6.56s0-4.35.07-6.53c.11-4.19.28-8.38.41-12.57-.08-1.95-.17-3.9-.25-5.86-.09-2.33-.23-4.66-.29-7-.11-4.15-.3-8.28-.34-12.42,0-1.12,0-2.23,0-3.35q-.26-3.15-.44-6.32c-.13-2.25-.29-4.5-.37-6.75-.08-2.42-.17-4.84-.22-7.27-.09-4.21-.12-8.44,0-12.65,0-.8,0-1.6.11-2.4a7.37,7.37,0,0,1,.45-2.43,2,2,0,0,1,3.68,0,8.51,8.51,0,0,1,.49,3.58V815a2.53,2.53,0,0,1,.22.91c0,.71.09,1.41.14,2.11,0-.09,0-.18,0-.27.11,1.67.21,3.33.31,5,0-.1,0-.19,0-.27.3,4.48.47,9,.62,13.47,0,1.79.12,3.57.14,5.36l.12,8.76c0,1.73,0,3.45,0,5.17,0,2.24,0,4.48,0,6.72,0,.25,0,.51,0,.77l0,.45c.18,2.06.39,4.11.48,6.17q.17,3.69.32,7.37c0,.95,0,1.9,0,2.84,0,1.52,0,3,0,4.53,0,4.14-.12,8.27-.26,12.4-.06,1.82-.12,3.65-.21,5.48-.06,1.51-.1,3-.22,4.53,0,1.83,0,3.65,0,5.47a47.42,47.42,0,0,1-.23,5.59,3.51,3.51,0,0,1-.37,1.27,2,2,0,0,1-1.74,1A2,2,0,0,1,1757.84,919.56Z"/>
    </g>
  </g>
  <g id="parent-building13_layer-base_side-b">
    <g class="cls-7">
      <path class="cls-6" d="M1727.78,860.74c0-.27,0-.55,0-.83,0,0,0-.06,0-.09a4.7,4.7,0,0,1,0-.75v-.46c0-.4,0-.8,0-1.19,0-.75,0-1.5,0-2.24a1,1,0,0,1,0-.44v0a.65.65,0,0,1,.09-.16,17.51,17.51,0,0,1,.09-1.92.75.75,0,0,1,1.49,0,4.7,4.7,0,0,1,0,.92c0,.16,0,.32,0,.48a.81.81,0,0,1,.39.56,14,14,0,0,1,.09,1.71c0,.34,0,.67,0,1,0,.69,0,1.38,0,2.08a.76.76,0,0,1-.63.74c0,.23,0,.47-.07.7a.75.75,0,0,1-1.5-.1Z"/>
      <path class="cls-6" d="M1744.5,864.57l-.9,0c-.5,0-1-.07-1.5-.13s-1.07-.14-1.61-.23l-1.57-.28h-.15l-2.38.11c-.3,0-.61,0-.92,0a7.85,7.85,0,0,1-.84,0,1.6,1.6,0,0,1-.67-.18,1.1,1.1,0,0,1-.35-.39.58.58,0,0,1-.11-.35c-.56,0-1.12,0-1.68,0l-1.28,0a.54.54,0,0,1-.15.15.77.77,0,0,1-1,0,1.52,1.52,0,0,1-.3-.32h0a.74.74,0,0,1-.15-.56.75.75,0,0,1,.68-.65,5.57,5.57,0,0,1,1.08-.1h.62c.81,0,1.62,0,2.44,0a24.12,24.12,0,0,1,2.68.29l1.57-.23a20.13,20.13,0,0,1,4.59-.1,13,13,0,0,1,1.64.24l.83-.15q.87-.15,1.74-.33l.38-.08a.78.78,0,0,1,.37-.73.76.76,0,0,1,1,.26h0l0,0h0v0l0,0a2.15,2.15,0,0,1,.27.52.9.9,0,0,1-.37,1,2.45,2.45,0,0,1-.87.31l-.83.17-.42.09a1,1,0,0,1,.1.95,1,1,0,0,1-.38.47,1.12,1.12,0,0,1-.25.11,2.36,2.36,0,0,1-.44.07l-.42,0Z"/>
      <path class="cls-6" d="M1745.75,863.13a.75.75,0,0,1-.55-.73,3.09,3.09,0,0,1,0-.43c0-.19.07-.37.11-.56s.09-.41.14-.62.13-.63.2-.94c.15-.7.31-1.4.46-2.09l.33-1.48a.59.59,0,0,1,0-.14,6.39,6.39,0,0,1,0-1.31,11.18,11.18,0,0,1,.24-1.52.77.77,0,0,1,.62-.54.75.75,0,0,1,.75.36,1,1,0,0,1,.16.57c0,.06,0,.12,0,.17l.27.17-.08,0,.32.21a.75.75,0,0,1,.26,1,.77.77,0,0,1-.86.35c0,.15-.07.3-.1.45s0,.32,0,.49c-.09.85-.17,1.7-.28,2.56a17.43,17.43,0,0,1-.42,2.13,8,8,0,0,1-.29.91,2.56,2.56,0,0,1-.47.75.79.79,0,0,1-.6.29A.62.62,0,0,1,1745.75,863.13Z"/>
      <path class="cls-6" d="M1737.43,855.55c-1.21-.06-2.42-.14-3.63-.22l-2-.18-1-.09c-.23,0-.47,0-.7-.09a.77.77,0,0,1-.87,0,.75.75,0,0,1-.16-.15,3.27,3.27,0,0,1-.95-.34.75.75,0,0,1-.27-1,.79.79,0,0,1,.44-.37,1.6,1.6,0,0,1,0-.72v0a.28.28,0,0,1,0-.09v.05h0s0-.05,0-.07v0l0-.06h0l0-.08v0a.77.77,0,0,1,.7-.49.76.76,0,0,1,.75.75.66.66,0,0,1,0,.14h0s0,.06,0,.08,0,.2.08.31l0-.1c.07.2.14.39.22.58,1,.17,2.11.24,3.17.34.8.08,1.6.12,2.4.17h0a41.36,41.36,0,0,0,5.22.12h0a19.15,19.15,0,0,0,2-.24l1.18-.22,1.79-.4c.46-.1.91-.21,1.36-.34l0-.09a.77.77,0,0,1,1-.27.86.86,0,0,1,0,1.58,4.1,4.1,0,0,1-.77.26c-.25.07-.5.14-.75.19-1.06.26-2.13.49-3.2.69a21.35,21.35,0,0,1-3.19.37l-.8,0C1738.79,855.62,1738.11,855.59,1737.43,855.55Z"/>
      <path class="cls-6" d="M1732.18,862a1.71,1.71,0,0,1-.37-.62l-.17-.51-.25-.73c-.17-.49-.33-1-.5-1.45a19,19,0,0,0-.78-1.93.26.26,0,0,0,.05.09l-.25-.44,0,0-.1-.14a.59.59,0,0,1-.23,0,.76.76,0,0,1-.74-.68h0a1.69,1.69,0,0,1,0-.32,1.08,1.08,0,0,1,.2-.47,1,1,0,0,1,1.07-.26,2,2,0,0,1,1,1,9,9,0,0,1,.83,1.71c.26.67.48,1.34.71,2s.38,1.08.55,1.62v0a.69.69,0,0,0,.11.13.76.76,0,0,1-.13,1,.73.73,0,0,1-.45.16A.79.79,0,0,1,1732.18,862Z"/>
      <path class="cls-6" d="M1733.24,862.34a1.19,1.19,0,0,1-.13-.49,1.88,1.88,0,0,1,0-.41c0-.49,0-1,0-1.47s0-.86,0-1.28v-.84c0-.22,0-.45,0-.68l-.09-1.48v-.07a.43.43,0,0,0,0,0c0-.35-.09-.71-.15-1.07a.74.74,0,0,1-.11-.39.86.86,0,0,1,0-.16.75.75,0,0,1,1.27-.43,1.09,1.09,0,0,1,.26.47c0,.12.05.25.07.36s.07.48.1.71.06.76.09,1.14,0,.58.05.88,0,.64,0,1c0,.58,0,1.16,0,1.74s0,1,0,1.53a.77.77,0,0,1,0,1.05,1,1,0,0,1-.29.24.92.92,0,0,1-.38.09A.76.76,0,0,1,1733.24,862.34Z"/>
      <path class="cls-6" d="M1736.26,862a1.1,1.1,0,0,1-.39-.66,1.74,1.74,0,0,1,0-.51l0-.29c0-.18,0-.35,0-.52s.07-.62.11-.93c.1-.73.19-1.45.3-2.18s.22-1.39.28-2.09a.88.88,0,0,1,.06-.45h0a.87.87,0,0,1,.11-.18.73.73,0,0,1,.79-.27.76.76,0,0,1,.55.72,6.64,6.64,0,0,1-.1,1c0,.33-.09.66-.14,1l-.21,1.51c-.09.58-.16,1.15-.22,1.72a.75.75,0,0,1,1,1.12,6,6,0,0,1-.71.8,1.38,1.38,0,0,1-.72.41h-.16A.88.88,0,0,1,1736.26,862Z"/>
      <path class="cls-6" d="M1740.72,862.77a1.27,1.27,0,0,1-.78-.39,1.88,1.88,0,0,1-.35-.82,6.35,6.35,0,0,1-.09-1.07c0-.22,0-.43,0-.65,0-.72-.09-1.44-.12-2.16v.1c0-.64-.09-1.27-.18-1.9a.76.76,0,0,1-.23-.89,2,2,0,0,1,.11-.2.74.74,0,0,1,.65-.37.75.75,0,0,1,.64.37,1.46,1.46,0,0,1,.2.37,3.87,3.87,0,0,1,.13.59c.07.48.11,1,.14,1.45s.06.92.09,1.38c0,.81.09,1.62.12,2.43l0,.17h0a1,1,0,0,1,0,.14l0,0a.75.75,0,0,1-.21,1.47A.63.63,0,0,1,1740.72,862.77Z"/>
      <path class="cls-6" d="M1743.8,861.38a19.71,19.71,0,0,1-.27-2.54c0-.74,0-1.48,0-2.22a.75.75,0,1,1,1.5,0V858c0,.43,0,.86,0,1.29.06.63.13,1.25.24,1.88a.75.75,0,0,1-.65.84h-.1A.76.76,0,0,1,1743.8,861.38Z"/>
      <path class="cls-6" d="M1733.46,885.38a.75.75,0,0,1-.55-.72,3.18,3.18,0,0,1,.13-.76c.07-.23.16-.47.25-.7s.2-.47.29-.71c.18-.45.36-.9.55-1.35s.27-.62.4-.94a.75.75,0,0,1-.11-.9c.6-1.07,1.24-2.12,1.87-3.18.15-.35.31-.7.47-1l.84-1.83c.21-.45.41-.92.64-1.36a.59.59,0,0,0,0,.08.93.93,0,0,1,0-.1h0l0-.07h0l1.19-2.37h0c.45-.88.93-1.75,1.42-2.61.24-.43.48-.86.73-1.29s.46-.82.71-1.21a.64.64,0,0,1,.1-.13l.15-.22a.83.83,0,0,1,.54-.37.75.75,0,0,1,.7.29,1,1,0,0,1,.16.3,1.13,1.13,0,0,1,0,.41,1.11,1.11,0,0,1-.13.4c-.08.15-.17.29-.25.43v0a.67.67,0,0,1-.14.28q-1.87,4-4,7.84c-.19.45-.39.9-.58,1.36-.85,2-1.7,4-2.58,5.93l-.78,1.7-.48,1a10.32,10.32,0,0,1-.77,1.52.73.73,0,0,1-.6.29A.64.64,0,0,1,1733.46,885.38Z"/>
      <circle class="cls-6" cx="1729.45" cy="881.56" r="0.75"/>
      <path class="cls-6" d="M1744.47,879.68a.77.77,0,0,1-.65-.64c0-.33-.07-.67-.12-1a.79.79,0,0,1-.27-.64.89.89,0,0,1,0-.22l-.92.29c-.5.15-1,.28-1.52.41s-.9.23-1.36.32l-2,.36c-.13,0-.26,0-.38.05l-1.18.15c-.45,0-.9.12-1.35.15l-1.33.1c-.33,0-.66.06-1,.07l-1.11,0h-1a.77.77,0,0,1-.73.57h0a.77.77,0,0,1-.69-.46,3.49,3.49,0,0,1-.12-.54.89.89,0,0,1,.12-.64c0-.16,0-.32,0-.48a.34.34,0,0,0,0,.1L1729,876l0-.37c0-.52-.08-1-.15-1.54a.78.78,0,0,1-.47-.6.7.7,0,0,1,0-.29,2,2,0,0,1,.08-.33,1.15,1.15,0,0,1,.23-.42.92.92,0,0,1,.5-.23.85.85,0,0,1,.85.52,3.68,3.68,0,0,1,.15.47h0l0,0a.74.74,0,0,1,.45.59,1.27,1.27,0,0,1,0,.34c0,.59,0,1.19,0,1.78s0,1.12,0,1.68h.49l1.21,0h0l2-.14c.56,0,1.12-.12,1.69-.19s1.11-.13,1.66-.23l2-.37c.74-.19,1.47-.36,2.2-.58l2.2-.69c0-.86.07-1.72.09-2.57,0-1.31,0-2.62.1-3.92a.77.77,0,0,1,.85-.75,1,1,0,0,1,.81.85c0,.14,0,.27,0,.41s.06.45.09.67.08.61.1.92c0,.62.11,1.23.14,1.85s.07,1.22.1,1.82h.06a1.45,1.45,0,0,1,.77-.06.79.79,0,0,1,.49,1.18,1.24,1.24,0,0,1-.43.39l.08,0-.18.11.08-.05a8.57,8.57,0,0,1-.81.52.81.81,0,0,1-.32.53.79.79,0,0,1-.69.15h0a7.37,7.37,0,0,1-.3,1.86.77.77,0,0,1-.7.46Z"/>
      <path class="cls-6" d="M1727.14,873.6a.77.77,0,0,1-.65-.85,1.06,1.06,0,0,1,.67-.85,9.6,9.6,0,0,1,2-.48c.71-.1,1.43-.16,2.15-.2.48,0,1-.05,1.45-.05h3.33c1.1,0,2.19,0,3.28,0s2.41-.06,3.61-.11c.74,0,1.48-.08,2.23-.13a.7.7,0,0,1-.12-.63.76.76,0,0,1,.92-.53,3.38,3.38,0,0,1,.62.26,4,4,0,0,1,.67.49,1.87,1.87,0,0,1,.44.49.94.94,0,0,1,.13.46.77.77,0,0,1-.46.69,2.55,2.55,0,0,1-.87.18l-.63,0h.1l-.63,0h0c-1.09.07-2.17.13-3.26.18l-1.41,0c-.52,0-1,0-1.55,0-1.08,0-2.16,0-3.24,0h-1.19c-.9,0-1.79,0-2.69,0l-1.13,0h0c-.68,0-1.35.13-2,.24a.78.78,0,0,1-.74.62l-.59,0Z"/>
      <path class="cls-6" d="M1731,900.55a8,8,0,0,1-1-.1,2.21,2.21,0,0,1-.71-.24,1.43,1.43,0,0,1-.56-.53,1.71,1.71,0,0,1-.11-1c0-.27,0-.53.07-.79l.06-.7c0-.58,0-1.16,0-1.73,0-.75-.06-1.49-.1-2.24v0c0-.12,0-.23,0-.35a.76.76,0,0,1,.14-.6.73.73,0,0,1,.46-.28.77.77,0,0,1,.62-.31.75.75,0,0,1,.74.64c.05.62,0,1.24.05,1.86s0,1.15,0,1.72a.74.74,0,0,1-.27.57c0,.36,0,.71-.08,1.06a.46.46,0,0,1,0,.2c0,.39-.07.79-.1,1.18l.16.05.46.06h-.1a25,25,0,0,0,2.87,0l1.62-.08h0c1.26-.11,2.53-.19,3.78-.33l2-.24c.64-.09,1.28-.2,1.91-.31a10.74,10.74,0,0,0,1.15-.29l.11,0c0-1.21.06-2.42.11-3.62,0-1.39.13-2.77.22-4.15v.11c0-.32,0-.63.07-.94a.71.71,0,0,1,0-.38c0-.42.19-1,.66-1.07a.76.76,0,0,1,1,.72,7.93,7.93,0,0,1-.07.84l-.06.81c0,.24,0,.48,0,.72h0c-.07,1.08-.13,2.17-.17,3.25s-.06,2.13-.09,3.2c0,.29,0,.58,0,.86a1.05,1.05,0,0,1-.18.54,1.2,1.2,0,0,1-.23.22,3.19,3.19,0,0,1-1.18.51c-.51.14-1,.21-1.55.31s-1.13.18-1.69.26c-1.1.15-2.21.24-3.31.34s-2,.17-3.06.22c-.78,0-1.57.08-2.35.09H1732C1731.67,900.58,1731.35,900.57,1731,900.55Z"/>
      <path class="cls-6" d="M1730.38,893.73a.76.76,0,0,1-.65-.37.76.76,0,0,1,0-.84,1.45,1.45,0,0,1,.22-.21h0a.71.71,0,0,1,.58-.18.58.58,0,0,1,.26.09l2.53-.21,1.77-.1,3.82-.19h-.11l1.28-.12a.76.76,0,0,1,.54-.81,6.58,6.58,0,0,1,1.4-.14l1,0h1c.63,0,1.27,0,1.9,0a.75.75,0,0,1,.27,1.39,2.7,2.7,0,0,1-1,.31l-.75.14-1.64.28c-1,.18-2,.27-3.06.37s-2.17.15-3.26.2l-2.76.14h0l-1.33.11c-.64,0-1.28.14-1.93.14Z"/>
      <path class="cls-6" d="M1744.91,914.3c-.44,0-.87-.08-1.31-.12-.72-.07-1.45-.11-2.18-.16h.07l-2-.07c-.6,0-1.21,0-1.81,0s-1.05,0-1.58,0l-.91,0a8.77,8.77,0,0,1-1.45,0,.76.76,0,0,1-.64-.84,1.21,1.21,0,0,1,.07-.34,1.41,1.41,0,0,1,.18-.29,2.45,2.45,0,0,1,.55-.46.75.75,0,0,1,1,.13.79.79,0,0,1,.14.31l.56,0,1.47,0c.8,0,1.62,0,2.42,0,1,0,1.93.06,2.88.13.45,0,.9,0,1.35.1l1.07.1c0-.18-.08-.36-.12-.53-.18-.76-.36-1.53-.53-2.3-.32-1.41-.59-2.83-.87-4.25-.53.12-1.07.19-1.6.27-1.09.16-2.18.32-3.26.5l-1.69.3-1.49.3-1.4.26-1.07.18c-.27.05-.55.08-.82.12.06.32.11.64.14,1l.09.86c0,.33,0,.66.07,1a6.63,6.63,0,0,1,0,1.18.82.82,0,0,1-1.43.34,1.38,1.38,0,0,1-.18-.34c0-.12-.06-.26-.09-.39v0c-.09-.39-.15-.78-.21-1.17a4.12,4.12,0,0,1-.15-.58,8.31,8.31,0,0,1-.16-1.22v.1c0-.06,0-.13,0-.19s-.09-.35-.13-.53a1.18,1.18,0,0,1,0-.56,1,1,0,0,1,.43-.57,2,2,0,0,1,.63-.22c.33-.07.67-.12,1-.16l.93-.15c.51-.08,1-.16,1.52-.26,1.19-.24,2.38-.47,3.58-.69,1-.18,2-.32,3-.47.63-.09,1.26-.18,1.89-.3h0l.12,0a2,2,0,0,1,.11-.2.76.76,0,0,1,1.12-.07,1.63,1.63,0,0,1,.38.95c.06.31.11.61.17.92.1.49.19,1,.28,1.46.21,1,.41,1.94.63,2.91q.15.72.33,1.44c.1.43.2.87.33,1.29a1,1,0,0,1,0,.1l0,.05a.78.78,0,0,1-.41,1.2,1.65,1.65,0,0,1-.49.06C1745.37,914.34,1745.14,914.31,1744.91,914.3Z"/>
      <path class="cls-6" d="M1732.81,899.82a7,7,0,0,1-.41-.88c-.08-.2-.15-.4-.22-.6-.17-.44-.33-.89-.49-1.33s-.31-.91-.48-1.36c-.07-.2-.15-.41-.23-.62a4.07,4.07,0,0,1-.26-.74.75.75,0,0,1,.36-.75.8.8,0,0,1,.4-.11.77.77,0,0,1,.74.63c.15.36.27.73.4,1.09s.31.85.46,1.27c.3.84.58,1.7.94,2.51l.09.13a.76.76,0,0,1-.27,1,.74.74,0,0,1-.37.1A.8.8,0,0,1,1732.81,899.82Z"/>
      <path class="cls-6" d="M1735.23,900a4.23,4.23,0,0,1-.36-1.21c0-.22-.07-.45-.1-.68-.06-.4-.1-.8-.15-1.2l-.15-1.34c-.07-.62-.13-1.24-.23-1.85a.77.77,0,0,1-.22-.53,2.4,2.4,0,0,1,0-.46.74.74,0,0,1,.62-.54.75.75,0,0,1,.8.45,7.86,7.86,0,0,1,.4,2.16l.15,1.26c.09.9.18,1.8.34,2.69l.09.34c0,.11.09.21.14.32a.76.76,0,0,1-.4,1,.71.71,0,0,1-.28.06A.78.78,0,0,1,1735.23,900Z"/>
      <path class="cls-6" d="M1737.85,899.3a.77.77,0,0,1-.55-.73,2.9,2.9,0,0,1,0-.72l.06-.43c0-.25.07-.5.1-.75.06-.42.12-.84.17-1.26.13-1,.24-2.07.33-3.11a.76.76,0,0,1,.85-.64.76.76,0,0,1,.64.84c-.07.83-.16,1.65-.26,2.47a2.48,2.48,0,0,1,.26-.42,1.19,1.19,0,0,1,.65-.47,1,1,0,0,1,.87.14,1.27,1.27,0,0,1,.42.7,5.78,5.78,0,0,1,.21,1.31.76.76,0,0,1-.65.84.75.75,0,0,1-.84-.64h0l-.33.62-.3.57c-.13.25-.26.5-.4.74a5.35,5.35,0,0,1-.47.67.74.74,0,0,1-.6.29Z"/>
      <path class="cls-6" d="M1736.62,913.43c-.34-.76-.66-1.53-1-2.28a1.74,1.74,0,0,0-.1-.19.76.76,0,0,1,.19-1,.75.75,0,0,1,1,.07h0a.75.75,0,0,1,.37.65c.34.7.62,1.42.93,2.12a.75.75,0,0,1-.4,1,.71.71,0,0,1-.28.06A.76.76,0,0,1,1736.62,913.43Z"/>
      <circle class="cls-6" cx="1740.25" cy="907.81" r="0.75"/>
      <path class="cls-6" d="M1733.71,898.81a.53.53,0,0,1-.2-.13.78.78,0,0,1-.52,0,.76.76,0,0,1-.43-.89c.21-.7.48-1.36.74-2,.14-.37.28-.74.43-1.11l1.17-3c.82-2.11,1.61-4.23,2.53-6.29.26-.61.53-1.22.81-1.82s.63-1.29,1-1.93l0,.09c.07-.14.14-.28.22-.42l.78-1.71c.22-.49.44-1,.67-1.49s.41-1,.66-1.46a.74.74,0,0,1,.85-.35.76.76,0,0,1,.54.83,9.38,9.38,0,0,1-.37,1.28h0c-.32.93-.63,1.86-1,2.79s-.71,2-1.1,3.06c-.27.69-.53,1.39-.8,2.08-.11.3-.23.61-.35.92,0,.12-.09.26-.15.38l-.23.54c-.77,2-1.54,4-2.35,5.91q-.93,2.22-1.85,4.44a.74.74,0,0,1-.69.46A.72.72,0,0,1,1733.71,898.81Z"/>
      <path class="cls-6" d="M1735,917.71a.77.77,0,0,1-.55-.83,11.46,11.46,0,0,1,.41-1.38l.33-1,.51-1.57c.27-.83.53-1.67.81-2.5a.75.75,0,0,1-.1-.89l.12-.22,0,.05,0-.06v0c.39-.8.76-1.6,1.12-2.41,0-.12.08-.24.11-.36.34-1,.68-2.11,1-3.16.28-.87.56-1.74.88-2.59a.75.75,0,0,1,1.15-.3h0a.76.76,0,0,1,.27.79c-.06.21-.13.42-.2.63a.94.94,0,0,1-.14.26q-.54,1.64-1,3.27a.69.69,0,0,1,0,.45c-.26.86-.55,1.71-.82,2.57-.32,1-.63,2-.95,3s-.6,1.88-.9,2.81c-.12.37-.26.74-.39,1.1s-.23.62-.34.92-.27.64-.41.95a.78.78,0,0,1-.69.47A.69.69,0,0,1,1735,917.71Z"/>
      <path class="cls-6" d="M1735.89,877.65c-.66-.9-1.27-1.83-1.87-2.76a.77.77,0,0,1-1,.26,2.62,2.62,0,0,1-.94-1.3,1.82,1.82,0,0,1-.24-1.43,1.19,1.19,0,0,1,1.08-.66c.55,0,.95.46,1.29.85l0,0c.16.18.31.36.46.55s.34.5.51.75l0,0c.43.63.84,1.27,1.26,1.91.23.33.46.65.7,1a.76.76,0,0,1-.14,1,.7.7,0,0,1-.46.16A.74.74,0,0,1,1735.89,877.65Z"/>
      <path class="cls-6" d="M1738.8,877.88a2.72,2.72,0,0,1-.68-1.08c-.14-.4-.23-.81-.33-1.22s-.21-.89-.31-1.34-.19-.86-.29-1.29-.23-1.08-.39-1.6a.67.67,0,0,1-.18-.4,2.09,2.09,0,0,0,0-.25.77.77,0,0,1,.55-.73.76.76,0,0,1,.89.44,4.48,4.48,0,0,1,.32,1l.18.77c.09.36.17.73.25,1.1l.27,1.17c.15.62.27,1.25.47,1.86v0l0,.08a.25.25,0,0,1,0-.07l.06.17.06.1.08.1.1.11a.75.75,0,0,1,0,1.06.74.74,0,0,1-1,0Z"/>
      <path class="cls-6" d="M1741.16,878.33a21.37,21.37,0,0,1-.23-2.41v0c0-.39,0-.79,0-1.18,0-.64,0-1.29-.07-1.93,0-.15,0-.3-.06-.44a.78.78,0,0,1-.07-.71,1.4,1.4,0,0,1,.16-.26.75.75,0,0,1,1.33.36c.06.31.1.61.13.93s0,.58,0,.87,0,.59,0,.88c0,.47,0,.93,0,1.4a.17.17,0,0,1,0-.07l.06.93h0c0,.47.09.94.17,1.4a.75.75,0,0,1-.64.84h-.11A.77.77,0,0,1,1741.16,878.33Z"/>
      <path class="cls-6" d="M1743,877.47a.75.75,0,0,1-.52-.92c.25-.81.47-1.62.7-2.43s.5-1.7.77-2.55a.75.75,0,1,1,1.44.39c-.26.86-.52,1.7-.77,2.56s-.45,1.62-.69,2.43a.79.79,0,0,1-.73.55A.69.69,0,0,1,1743,877.47Z"/>
      <path class="cls-6" d="M1732.46,879.17a10.06,10.06,0,0,1-.24-3.9c.08-.51.31-1.17.87-1.33a2,2,0,0,1,1.18.24.75.75,0,0,1-.58,1.38,4.36,4.36,0,0,0-.06.49h0a.28.28,0,0,0,0,.09.13.13,0,0,1,0-.06,8.34,8.34,0,0,0,0,1s0-.07,0-.1a11.78,11.78,0,0,0,.21,1.45l0-.09c0,.14.07.28.1.43a.76.76,0,0,1-.52.92l-.19,0A.75.75,0,0,1,1732.46,879.17Z"/>
      <path class="cls-6" d="M1734.54,913.05a2,2,0,0,1-.57-.44,1.88,1.88,0,0,1-.34-.62,8.6,8.6,0,0,1-.29-1.24c-.11-.58-.22-1.16-.32-1.75-.06-.36-.11-.72-.16-1.08s-.08-.7-.09-1.06a6.15,6.15,0,0,1,0-1,1.17,1.17,0,0,1,.63-1,1.07,1.07,0,0,1,1,.17.75.75,0,0,1,.27,1,.7.7,0,0,1-.38.32c0,.21,0,.42,0,.62a34.33,34.33,0,0,0,.65,4h0c0,.12.06.25.1.37v0a.14.14,0,0,0,0,.06v0l0,.12,0,0h0l.06,0,.12.07a.75.75,0,0,1,.27,1,.72.72,0,0,1-.64.37A.81.81,0,0,1,1734.54,913.05Z"/>
      <path class="cls-6" d="M1737.48,913.41c-.31-.95-.58-1.9-.85-2.86-.14-.47-.27-.94-.4-1.41l-.09-.29a.73.73,0,0,1-.51.22.75.75,0,0,1-.75-.75c0-.47,0-.93,0-1.4,0-.21,0-.41,0-.62V906a1.88,1.88,0,0,1,.15-.62.75.75,0,0,1,1.33-.09,7.62,7.62,0,0,1,.44.91c.13.32.22.64.32,1s.19.66.29,1l.45,1.6c.31,1.1.62,2.2,1,3.29a.74.74,0,0,1-.52.92l-.2,0A.8.8,0,0,1,1737.48,913.41Z"/>
      <path class="cls-6" d="M1740.49,912.26a14.88,14.88,0,0,1-1.17-3.06,11.11,11.11,0,0,1-.35-2.14q0-.67,0-1.35a.75.75,0,0,1,.75-.75.76.76,0,0,1,.75.75q0,.66,0,1.32c0,.43.1.85.18,1.28s.27,1.05.44,1.57h0a13.45,13.45,0,0,0,.58,1.41l.12.22a.77.77,0,0,1-.27,1,.83.83,0,0,1-.38.1A.73.73,0,0,1,1740.49,912.26Z"/>
      <path class="cls-6" d="M1742.66,908.74a7.6,7.6,0,0,1-.36-.94,5.41,5.41,0,0,1-.16-.82.75.75,0,0,1,.64-.84.77.77,0,0,1,.85.64l.06.41s0-.07,0-.1a3.92,3.92,0,0,0,.13.49l0-.09c.08.23.18.45.27.67a.75.75,0,0,1-.39,1,.75.75,0,0,1-.29.06A.79.79,0,0,1,1742.66,908.74Z"/>
      <path class="cls-6" d="M1742.69,836.81a.72.72,0,0,1-.33-.4l0,0a.76.76,0,0,1-.24-.89.82.82,0,0,1,.23-.32v-.08a5.49,5.49,0,0,1,.13-1.07.8.8,0,0,1,.78-.62.74.74,0,0,1,.65,1.11c-.05.33-.06.67-.09,1,0,0,0-.07,0-.1a1.28,1.28,0,0,0,0,.19,1.08,1.08,0,0,1,0,.91.79.79,0,0,1-.46.36.63.63,0,0,1-.19,0A1,1,0,0,1,1742.69,836.81Z"/>
    </g>
  </g>
</svg>
