<svg xmlns="http://www.w3.org/2000/svg" xmlns:xlink="http://www.w3.org/1999/xlink" viewBox="0 0 2048 1536">
  <defs>
    <style>
      .cls-1 {
        fill: none;
      }

      .cls-2 {
        clip-path: url(#clip-path);
      }

      .cls-3 {
        fill: #9e8b90;
      }

      .cls-4 {
        clip-path: url(#clip-path-2);
      }

      .cls-5 {
        fill: #bda498;
      }

      .cls-6 {
        clip-path: url(#clip-path-3);
      }

      .cls-7 {
        fill: #ffd5a1;
      }

      .cls-8 {
        fill: #b4cadb;
      }

      .cls-9 {
        clip-path: url(#clip-path-4);
      }

      .cls-10 {
        fill: #a1b7b1;
      }

      .cls-11 {
        fill: #95a6a1;
      }
    </style>
    <clipPath id="clip-path">
      <rect class="cls-1" x="184.72" y="422.19" width="405" height="529.57"/>
    </clipPath>
    <clipPath id="clip-path-2">
      <rect class="cls-1" x="371.22" y="459.56" width="231.39" height="498.77"/>
    </clipPath>
    <clipPath id="clip-path-3">
      <rect class="cls-1" x="387.61" y="543.66" width="201.12" height="361.5"/>
    </clipPath>
    <clipPath id="clip-path-4">
      <rect class="cls-1" x="215.8" y="536.21" width="297.83" height="259.33"/>
    </clipPath>
  </defs>
  <g id="parent-building6_layer-base_side-a">
    <g class="cls-2">
      <path class="cls-3" d="M371.18,524.74l-.13-.19a8,8,0,0,1-1.18-2.15,30,30,0,0,1-.82-3.67,65.74,65.74,0,0,1-.74-6.59c-.05-.81-.11-1.62-.17-2.43-.14-1.82-.27-3.51-.36-5.2l-.18-3.08a15.56,15.56,0,0,1-4.09,1.95,11.48,11.48,0,0,1-1.37.4,6.35,6.35,0,0,1-3,2.75q-2.41,1.08-4.83,2.13a21,21,0,0,1-7,1.95c-.42,0-.84,0-1.27,0h-2.47c-1.56,0-3.11.07-4.67.12l-3.19.11-.57,0c-3.44.11-7,.24-10.52.24-2.86,0-5.4-.08-7.77-.24h-.11a25.87,25.87,0,0,1-4.4-.48h-.47l-.49,0c-2.55-.08-5.05-.23-8.06-.42l-.32,0c-1.52-.09-3.08-.2-4.62-.34s-3.17-.32-4.87-.61a10.52,10.52,0,0,1-4,7.73,10.19,10.19,0,0,1-6.37,2.13,13.17,13.17,0,0,1-2.81-.32l-.19,0A9.45,9.45,0,0,1,277,519a9.82,9.82,0,0,1-4.94-1.3,9.4,9.4,0,0,1-4-4.67,3.8,3.8,0,0,1-.91-1.11,17.2,17.2,0,0,1-1.65-5.79l-.3-2-.3-2c-.18-1.26-.32-2.52-.47-3.78l0-.34c-.08-.74-.17-1.49-.26-2.23l-.09-.71c-.24-2-.48-3.91-.77-5.84l-.16-1a58,58,0,0,1-.75-7,6.64,6.64,0,0,1,2.11-4.93c-.05-1.28-.09-2.58-.11-3.89s0-2.37,0-3.56v-2.18c0-.63,0-1.23.06-1.84l0-.18a3.82,3.82,0,0,1,1.45-3.6l.2-.13a5.21,5.21,0,0,1,.08-2.51,5.55,5.55,0,0,1,9.71-2l4,.08c1.2,0,2.38.07,3.56.13l-.17-3.23-.06-1.25-.16-3.17q-.16-3.6-.32-7.21l-.05-1.21c0-.79-.06-1.58-.1-2.38a48.51,48.51,0,0,1,0-5.26,5.89,5.89,0,0,1,.34-1.92,1.59,1.59,0,0,1,.64-.71,1.2,1.2,0,0,1,.82-.32,1.19,1.19,0,0,1,1.19,1.19,1.12,1.12,0,0,1-.11.47.84.84,0,0,1-.14.26,1,1,0,0,1-.35.29,1.94,1.94,0,0,0-.08.45c0,.21,0,.49-.05.78v.14l-.06-.15c0,1.2,0,2.51.08,4.11a1.62,1.62,0,0,1,1.46,1.84l-.09,1.11c-.06,1.32-.11,2.74-.07,4.18q0,2.52.12,5,.11,3.57.22,7.14c.57,0,1.15.08,1.74.13h.23c0-.4,0-.8-.05-1.2-.05-1.43-.09-2.85-.12-4.28l-.05-3.53,0-.5c0-.39,0-.79,0-1.18l.16-4.63c0-.77.08-1.53.14-2.29a16,16,0,0,1,.39-2.52,1.63,1.63,0,0,1,.89-1.14,1.09,1.09,0,0,1,.49-.11,1.29,1.29,0,0,1,1.28,1.27,1.27,1.27,0,0,1-.28.79,26.62,26.62,0,0,0-.38,3.32l-.05,1.52a1.69,1.69,0,0,1,1.4,1.9l0,.24c0,.35-.08.71-.11,1.06l0,.57c0,.52-.05,1.05-.05,1.56,0,.84,0,1.68,0,2.52,0,.61,0,1.23.07,1.85l0,.73c0,.67.05,1.34.07,2s.05,1.61.06,2.4l4.18.42,3.17.32c2.71,0,5.42,0,8.13-.06,1.49,0,3,0,4.45-.06l0-.12c0-.65.08-1.3.14-1.95,0-.41.09-.83.14-1.24l0-.18,0-.17c0-.35.07-.7.1-1l0-.12a9.4,9.4,0,0,1,.19-1.67,2,2,0,0,1,.78-1.21,1.59,1.59,0,0,1,.77-.22,1.18,1.18,0,0,1,.36.06,1.27,1.27,0,0,1,.79.92c.15.3.31.6.49.9a.91.91,0,0,1,.07,1.19.92.92,0,0,1-.71.34.94.94,0,0,1-.63-.26,1.24,1.24,0,0,1-.21-.27,3.89,3.89,0,0,1,0,.91l-.07.79,0,.28-.06.77a1.66,1.66,0,0,1,1.05-.32,2,2,0,0,1,1.07.29,2.14,2.14,0,0,1,1,2.23c3.31-.09,6.63-.17,9.94-.27-.1-1.57-.16-3.16-.23-4.75l0-.62,0-.81-.07-1.62-.06-1.6c0-.48,0-1,0-1.44v-.71l-.18-8v-2.14l0-2.37V431c0-2.08,0-4.14,0-6.22V423.2a.75.75,0,0,1,.22-.53.8.8,0,0,1,.54-.23.77.77,0,0,1,.75.76c0,4.4,0,8.95.06,12.6l0,1.49c0,1.32.05,2.65.09,4v.36l.06,1.68,0,1.47c0,1.4.07,2.79.14,4.18l.13,2.55.13,2.32,0,.61,0,.6,0,.61c0,.41,0,.83.07,1.25l0,.53,10.49-.37.48,0,1,0a4.68,4.68,0,0,1-.05-.55l0-.26c-.09-1.09-.18-2.2-.28-3.3l-.16-1.81a77.45,77.45,0,0,0-1.06-8.47l-.22-1.12-.12-.57a13.74,13.74,0,0,0-.43-1.69,6.42,6.42,0,0,0-.39-.94l-.08-.14-.06-.1-.16-.16a.67.67,0,0,1-.59-.6.93.93,0,0,1,.25-.7.75.75,0,0,1,.59-.29.71.71,0,0,1,.52.22l.19.19a4.62,4.62,0,0,1,.62.73,4.73,4.73,0,0,1,.46.93,15,15,0,0,1,.74,2.6l.06.28c.2.95.41,1.91.58,2.86s.32,2.07.45,3.08l.05.32c.22,1.71.4,3.43.58,5.14l.08.73c.13,1.18.25,2.37.36,3.55l4.32-.24,1.42-.13c1.06-.09,2-.18,3-.3a11.27,11.27,0,0,1,1.16-.06,8.9,8.9,0,0,1,.9,0l.18,0,2.47-.2c1.32-.11,2.63-.24,3.94-.37a1.73,1.73,0,0,1,1.5-.91,1.83,1.83,0,0,1,1.35.64c.44-.05.89-.09,1.34-.12l.11,0,2.56-.19c1-.06,1.92-.13,2.87-.22a4.07,4.07,0,0,1,3.16-1.72,3.57,3.57,0,0,1,1,.15c1.71.46,3.06,2.11,4.13,5.05a20.05,20.05,0,0,1,.89,3.33l.1.08.1.09-.11-.06.62.5.72.61c3.42,2.83,7,5.74,10.36,8.85,1.45,1.33,2.89,2.66,4.32,4a70.33,70.33,0,0,0-.2,17.64,46.93,46.93,0,0,0,1.13,9.16c.21.89.43,1.78.67,2.66a10.37,10.37,0,0,1-1.94-1.39c-.43-.37-.85-.75-1.26-1.13-1-.93-2-1.88-3-2.83l-.3-.28-.6-.57a8.52,8.52,0,0,1-4.25-2.24,26.73,26.73,0,0,1-2.69-3.08c-.47-.63-.9-1.3-1.31-1.94l-.45-.7-.07-.11-.1-.15-1.42-1.25c.07,2.77.08,5.55.08,8.14,0,3.37-.15,6.75-.29,10v.43l0,1.07q-.14,3.22-.3,6.47v.14l0,.16c-.07,1.41-.15,2.87-.28,4.31a7.13,7.13,0,0,1-1.94,4.84,4.15,4.15,0,0,1-2.8,1.08A3.37,3.37,0,0,1,371.18,524.74Z"/>
      <path class="cls-3" d="M396.71,516.68a5.35,5.35,0,0,1,.8.27l-.05-.13c0-.23,0-.46,0-.69l0-.23v-.23l0-.22v-.26C397.15,515.73,396.93,516.23,396.71,516.68ZM187.86,948.61a9.71,9.71,0,0,1-2.89-6.88c0-2.72.06-5.5.11-8.2l0-.91v-.82l0-.76v-.22c.05-2,.09-4,.12-6,.09-5,.2-10.1.34-15.7q.19-6.67.32-13.35c.13-5.74.27-12.19.46-18.64.17-5.12.36-10.22.56-15.33.29-7.45.5-13.18.65-18.78.33-11.08.16-22.24,0-30.73q-.12-5.7-.26-11.4c-.2-8.75-.36-16-.46-23.25-.12-10.11,0-20.19.16-29.93l0-2.62.21-14.56c.21-14.16.48-32.89.7-52.14.15-12.78.21-25.93.27-37.52.05-9.95.1-19.85.19-29.75.07-5.59.13-9.64.22-13.15,0-1.56.07-3.13.1-4.7l0-1.19v-.71c.07-3.48.14-7.36.3-11l.5-10.81.38-8.35c.16-3.37.42-7.19.82-12l.18-1.93q-.19-3.29-.4-6.57-.26-3.48-.54-7l0-.27c-.24-3-.47-5.87-.68-8.81l-.08-1.22,0-.18c-.14-2.06-.28-4.11-.4-6.16a6.32,6.32,0,0,1-.1-7.2l0-.17,0-.59,0-.38a24.2,24.2,0,0,1,.17-4A13.84,13.84,0,0,1,200.5,493a17.43,17.43,0,0,1,1.78-.11,13.77,13.77,0,0,1,13.24,10,36.13,36.13,0,0,1,.8,4.45c3.18-.06,6.46-.2,9.25-.34,5.61-.25,11.21-.54,16.82-.83,3.57-.17,7.25-.26,11.27-.26,2,0,4,0,6,0,3.08.05,6.19.17,9.18.29l.8,0,.78,0c1.84.07,3.68.14,5.52.19,2,.07,4.38.1,7.24.1,2.61,0,5.44,0,8.89-.09l2,0h.28c2.63-.05,6.1-.12,9.37-.12,1.46,0,2.92,0,4.38,0l1.22,0h1c2.76,0,5.63.1,8.43.1,1.88,0,3.44,0,4.77-.06l3.66-.11.94,0,1,0,1,0h1c1.19,0,2.46.06,3.88.18a8.11,8.11,0,0,1,.57-.8,21.57,21.57,0,0,1,7.74-6,20.88,20.88,0,0,1,4-1.36c.39-.1.76-.23,1.14-.36s.83-.27,1.26-.37a39.18,39.18,0,0,1,7.58-1.06h1.91l2-.06c.83-.08,1.77-.22,2.88-.42.74-.16,1.49-.36,2.25-.55s1.81-.46,2.71-.67c2.13-.51,4.31-.88,6.43-1.25l.78-.14.44-.1c.92-.21,1.85-.42,2.78-.61a13.1,13.1,0,0,1,2.38-.22,17,17,0,0,1,8.41,2.38,16.86,16.86,0,0,1,7,8,16.47,16.47,0,0,1,1.25,4.94,2.83,2.83,0,0,1,.16-.36,9.56,9.56,0,0,1,.94-1.57,12.66,12.66,0,0,1,7.33-4.81c2.44,2.36,4.91,4.61,7,6.54l1.83,1.68.25.23.26.23.62.56c1.14,1,2.31,2,3.48,3l.26.23.55.47.56.47.13.11.13.11.17.14.16.14,2.11,1.81.27.23,2.47,2.11.68.58.67.57.19.16.19.15c1.24,1.07,2.48,2.06,4.1,3.34l.54.43,1.5,1.2,1.53,1.26.7.57c1.27,1,2.78,2.29,4.28,3.44l2.95,2.29c1.72,1.35,5.77,4.5,9.45,7.24L456,542v.26c-.07.81-.14,1.53-.18,2.24-.06.91-.09,1.8-.12,2.7v1l0,.73,0,.73c0,1.74-.1,3.47-.19,5.21l-.08,1.21v.22c-.15,2.12-.31,4.52-.37,6.83l-.14,4.11-.13,4.1,0-.08v.3c0,1-.05,1.88-.09,2.77l0,.45v.36c-.06,1.21-.12,2.42-.16,3.62l0,1v.11l0,1.3-.1,3.06v.22a1.28,1.28,0,0,1,0,.19c-.06,1.39-.13,2.78-.23,4.18-.15,1.94-.2,3.91-.25,5.81v.4c0,1.12-.05,2.25-.09,3.37-.07,1.69-.16,3.38-.25,5.07q-.12,2-.21,4c-.06,1.24-.14,2.49-.22,3.73l0,.47c-.1,1.54-.22,3.35-.27,5.11,0,1.22-.05,2.43-.05,3.64v1.21l0,1.62v.57c0,.76,0,1.52,0,2.28,0,5.67.07,11.51.13,16.55l0,3.2c0,3.26,0,6.34-.07,9.42-.06,2-.09,4-.13,6,0,1.21,0,2.42-.05,3.62-.09,3.78-.15,6.76-.15,10,0,3.68.1,7.14.2,9.75l-.07-.08,0,.26,0,.26c0,.58.06,1.18.09,1.78l0,.4c.15,3,.33,6,.49,8.85l.17,2.85,0,.58,0,.6a4.43,4.43,0,0,0-.77,3c0,.31,0,.61,0,.92l0,.42,0,.12a6.08,6.08,0,0,0-.23,1.28l0,.41c0,.2,0,.4,0,.61a17.25,17.25,0,0,0-.06,2.2,13.53,13.53,0,0,0,.16,1.9,10,10,0,0,0,.58,2.35l0,.11a7.13,7.13,0,0,1,.24.75,1,1,0,0,1,0,.23v.15l-.07.15a4.39,4.39,0,0,0-.22.75,4.27,4.27,0,0,0,.09,2,4,4,0,0,0,.28.66,3.14,3.14,0,0,0,.13.45,1.66,1.66,0,0,0,.13.27,1.36,1.36,0,0,0-.87,1,2.84,2.84,0,0,0,.07,1.26,2,2,0,0,0,.61.94l.14.11a1.82,1.82,0,0,0,.9.26h.2a4.11,4.11,0,0,0,.77.08,1.52,1.52,0,0,0,.9.63,1,1,0,0,0,.25.06,10.56,10.56,0,0,0,1.43.06H459a1.42,1.42,0,0,0,.44-.06,1,1,0,0,0,.29-.19c1.8-.06,3.59-.07,5.32-.08h3.57l1.1,0h2c2.21,0,4.46-.16,6.68-.34l1.48-.12a32,32,0,0,0,4.66.43h.29a40,40,0,0,0,8.61-1.21l1.22-.26c.55-.12,1.08-.23,1.61-.37l1.34-.06,1.35-.05c3.14-.09,5.74-.2,8.41-.34l5-.26c1.72.08,3.31.12,4.85.12h1.41c.7,0,1.41,0,2.11,0l.81,0a19.28,19.28,0,0,0,3.08-.27,2.57,2.57,0,0,0,1.4-.73l.91.37.89.39c7.41,3.24,14.9,6.47,22.15,9.6l1.85.79,1.47.63,2.78,1.2,11,4.73q9.61,4.17,19.2,8.36a1.78,1.78,0,0,1,.08.48c.71,9.2.91,18.61,1.1,27.72v.57q.09,4.21.19,8.41c.22,8.62.38,17.89.52,25.34l0,1.11,0,1.24,0,1.87,0,1.3q.18,10.13.4,20.25v.7c.31,15.09.64,30.69.7,46,0,6.27,0,14.55,0,23,0,3.26-.15,6.51-.3,10.38,0,.4,0,.79-.05,1.19l0,.67v.11a77.68,77.68,0,0,1-.68,8.9,9.73,9.73,0,0,1-7.1,8.61,8.93,8.93,0,0,1-2.47.35A10,10,0,0,1,571,930a9.57,9.57,0,0,1-2.5.71,10.43,10.43,0,0,1-1.31.09,10.82,10.82,0,0,1-8.83-4.71.41.41,0,0,1-.14.15,12.08,12.08,0,0,1-5.67,2.35,14.68,14.68,0,0,1-1.64.11,12.73,12.73,0,0,1-12.09-9.13,5.63,5.63,0,0,1-.18.93,23.57,23.57,0,0,1-1.53,4.42,13.42,13.42,0,0,1-12.28,8.12,17.24,17.24,0,0,1-1.76-.11,13.57,13.57,0,0,1-7.6-3.78,13.89,13.89,0,0,1-3.65-7l.06,0h0v0l-.06-.13-.1-.39c-.32-1.48-.72-3.33-1-5.13-.09-.61-.16-1.22-.22-1.83l-.15,0-.23,0a14.28,14.28,0,0,1-2.37-.52l-.09,0h0l-.14,0-.13,0h0l-.16-.06h0L507,914l-.15-.06-.15-.07h0l-.13-.05-.12-.06h0l-.09,0a14.18,14.18,0,0,1-5.38-4,10.11,10.11,0,0,1-3.13,5.86,9.31,9.31,0,0,1-6.31,2.48,9.67,9.67,0,0,1-7-3.11A9.7,9.7,0,0,1,480,916a9.35,9.35,0,0,1-2.58-.36,9.19,9.19,0,0,1-2.72-1.23,7.3,7.3,0,0,1-1.42,1.26,10.83,10.83,0,0,1-6.21,2.13,10.37,10.37,0,0,1-9.85-8c0-.12-.05-.24-.08-.36l0-.13,0,.41c0,.65,0,1.3,0,1.95a47.3,47.3,0,0,1-.85,8.63,12.49,12.49,0,0,1-1.42,4.12,11,11,0,0,1-4,4,10.58,10.58,0,0,1-5.48,1.5,12.52,12.52,0,0,1-5.8-1.5,8.06,8.06,0,0,1-.8-.48,9.58,9.58,0,0,1-3.16,2.9,10.84,10.84,0,0,1-5.53,1.51,10.64,10.64,0,0,1-2.9-.41,11.08,11.08,0,0,1-8-12c0-3.38.25-7,.48-9.89v-.25c.07-.76.12-1.52.18-2.27l.08-1.14c.24-3.37.48-6.74.75-10.11,0-.16,0-.31,0-.45q.09-2.7.15-5.4a2,2,0,0,1-.41.3,10.27,10.27,0,0,1-2.66,1.12l-.16,0a14.7,14.7,0,0,1-2.76,5.84,5.55,5.55,0,0,1-4.58,2.11,10,10,0,0,1-2.19-.27,5,5,0,0,1-3.48-3.43,3.24,3.24,0,0,1-.62.05,13.88,13.88,0,0,1-5.09-1,.35.35,0,0,1,0,.2c-.22,1-.51,2-.8,3l-.05.18,0,.12,0,.13-.46,1.57a18.47,18.47,0,0,1-4.89,8.18,10.56,10.56,0,0,1,.57,1.62A16.85,16.85,0,0,1,377,931.51a22.25,22.25,0,0,1-2.25-.15,17.07,17.07,0,0,1-6.22-2.16c-.44-.26-.89-.55-1.33-.87a24.09,24.09,0,0,1-4.32.38,28.49,28.49,0,0,1-3.41-.21,22.27,22.27,0,0,1-16.28-10.66,31.77,31.77,0,0,1-3.94-12.44c-.13-1-.28-2.08-.43-3.12l0-.13-.12-.85c-.35-.47-.72-1-1.07-1.58a20.13,20.13,0,0,1-2.52-6.28l-.06.1a7.45,7.45,0,0,1-.61.65,19.08,19.08,0,0,1-30.13-4.4l-.07.15c-.24.38-.52.78-.8,1.16a20.35,20.35,0,0,1-16.35,8,20.94,20.94,0,0,1-2.83-.2,22.3,22.3,0,0,1-6.74,12.71A19.05,19.05,0,0,1,264,917a17.93,17.93,0,0,1-13.12-5.44l-.48-.5-.19-.19c-.24-.26-.49-.51-.73-.78a31.43,31.43,0,0,1-2.37-3,.67.67,0,0,1,0,.19,10.26,10.26,0,0,1-.49,1.26,16.86,16.86,0,0,1-5.26,7,17.22,17.22,0,0,1-21.1,0,18.06,18.06,0,0,1-6.08-9.06,25.54,25.54,0,0,1-1.11-6.75l-.1,0a6.43,6.43,0,0,1-1.54.17,9.27,9.27,0,0,1-5.66-1.93,5.17,5.17,0,0,1-.51-.42l0,.21v.23c0,.78,0,1.56,0,2.32,0,3.64-.1,7.43-.19,11.59q-.18,7.53-.31,15c0,1,0,1.92,0,2.88v2c0,3.23,0,6.55-.19,9.8a10.19,10.19,0,0,1-2.87,6.91,9.89,9.89,0,0,1-6.92,2.87A9.71,9.71,0,0,1,187.86,948.61Z"/>
      <path class="cls-3" d="M211.85,530.41a23.65,23.65,0,0,1-2.8-.44,9.3,9.3,0,0,1-5.05-4,30.09,30.09,0,0,1-4.26-13.54c-.51-6.12.23-12.69,3-18.23a13.88,13.88,0,0,1,5.85-6.2,27.34,27.34,0,0,1,4.63-2.06,43,43,0,0,1,8.13-1.51,238.94,238.94,0,0,1,30.39-.94c5.34.09,10.68-.07,16-.2a154.84,154.84,0,0,1,15.83.5c10.64.84,21.29,1.54,31.95,1.88,10.92.35,21.83.79,32.74,1.2,4.43.16,8.87.27,13.31.28h4.1c.46-.05.91-.09,1.37-.11a28.88,28.88,0,0,1,4.85.17h.19l2.16.09a8.4,8.4,0,0,1,2.88.4v0a3.67,3.67,0,0,1,1,.46c2.07,1.35,3.12,4.08,3.71,6.36a24.47,24.47,0,0,1,.4,10.08c-.43,2.53-1.26,5.58-3.18,7.44a7,7,0,0,1-4.45,1.94l-2.14.26c-1.4.17-2.81.3-4.21.44l-8.29.86c-5.3.55-10.62,1-15.93,1.54l-3.59.35-1,.17c-2.83.49-5.67.93-8.5,1.37l-4.88.73a39,39,0,0,1-5.14.63l.62-.1v-.07l-.12,0a3.05,3.05,0,0,1-2.34-.18L312,521.18c-10.72,1.67-21.46,3.1-32.22,4.47-10.56,1.35-21,3.18-31.67,3.78-5.05.28-10.09.7-15.15.84s-9.9.32-14.85.44H217A40.74,40.74,0,0,1,211.85,530.41Z"/>
      <path class="cls-3" d="M199.88,517.93c-2.41-.66-3.86-3.59-4.64-5.71a27.37,27.37,0,0,1-1-13.05v-.1a17.66,17.66,0,0,1,1.74-5.62c.82-1.62,2.07-3.46,3.92-4l.48-.13c.32-.31.66-.6,1-.9a5.69,5.69,0,0,1,3.42-.88c.93,0,1.92.08,2.85.16a3.38,3.38,0,0,1,2.27.77,2.06,2.06,0,0,1,.35.12c1.72.64,2.64,2.12,3.48,3.65.69,0,1.34.14,2,.24a5.5,5.5,0,0,1,2.11.87,5.44,5.44,0,0,1,2,2.88,14.23,14.23,0,0,1,.73,6c-.17,2.05-1,5.94-3.32,6.59v0c-1.15.34-2.31.61-3.47.87A7,7,0,0,1,211,513a4.43,4.43,0,0,1-2.28,1.62l-.73.13a6.12,6.12,0,0,1-2.06,2.08,4.76,4.76,0,0,1-2.51.75h0a5.6,5.6,0,0,1-2,.6,1.67,1.67,0,0,1-.32,0A5.05,5.05,0,0,1,199.88,517.93Z"/>
    </g>
  </g>
  <g id="parent-building6_layer-base_side-b">
    <g class="cls-4">
      <path class="cls-5" d="M525.26,941.62a32.09,32.09,0,0,1,.17-7l0-.33,0-.31c0-.49.08-.82.11-1.14l0-.34,0-.33c.09-2.91.12-6.17.14-9v-1.14c0-4.75.09-10,.07-16v-3.61c0-9.74-.07-19.82.15-30.45.28-11.73,1-24.22,1.58-34.89-.06-7.7-.08-16.09-.09-24v-7c0-12.66-.1-23.32-.26-32.6,0-1.91-.07-3.82-.11-5.72v-1.35c-.08-3.46-.17-7-.15-10.54l0-9.15,0-9.14c0-5.4.14-10.88.34-16.32q4.62,1.65,9.16,3.48c9.16,3.7,18.18,7.7,27.21,11.7l.48.24,0,.46.15-.4c5.53,2.7,11,5.43,16.49,8.29q4.61,2.42,9.22,4.79c3.52,1.82,7.1,3.68,10.75,5.43a17.81,17.81,0,0,1,1.45,6.7c.05,2.33,0,4.16-.07,5.78l-.42,6.59,0,.78,0,.2q-.3,4.65-.61,9.28l-.44,6.62-1.11,16.2q-.78,12.15-1.5,24.32l-.68,11.43c-.37,5.95-.77,12-1.18,17.89l-.09,1.44-.09,1.38-.14,2.08-.18,2.58q-.27,3.76-.51,7.55l-.11,1.6c0,.36,0,.77-.08,1.19-.36,4.72-.81,9.75-1.38,15.38l-.12,1.12-.14,2.83-.14,2.68,0,.75v.23a130.71,130.71,0,0,0-.25,13.55,46.88,46.88,0,0,0,.77,5.81l0,.29,0,.19a13.29,13.29,0,0,1-6,14.93,12.93,12.93,0,0,1-6.54,1.8,13.5,13.5,0,0,1-10.51-5.09,32.61,32.61,0,0,1-3.06-4.66c-.21-.38-.4-.77-.59-1.15l-.15.07h0a13.83,13.83,0,0,1-5.1-1,5.93,5.93,0,0,1-1.28,1.7,15.59,15.59,0,0,1-2.81,2.21c-.4.24-.82.47-1.23.68l-.5.27a11.06,11.06,0,0,1-1.73.79l.13,1.87c0,.63.06,1.19.05,1.75a11.87,11.87,0,0,1-7.25,10.87,8.7,8.7,0,0,1-1.37,1.72,12.12,12.12,0,0,1-20.58-6.94Z"/>
      <path class="cls-5" d="M383.62,958a7.82,7.82,0,0,1-6.37-5.57l-.06-.26-.06-.2-.05-.23c0-.11,0-.18-.05-.27l-.07-.28c-.22-.84-.38-1.59-.52-2.3-.18-1.28-.27-2.49-.41-4.78a73.27,73.27,0,0,1,0-7.83l.22-4.17.06-1.2c.08-1.45.15-2.9.22-4.35v-.28l0-.58,0-.48c.15-2.88.28-5.61.47-8.42l.9-12.23.29-4,.56-7.77.59-10.26v-.15l.38-6.77c.08-1.37.17-2.75.25-4.12v-.13l0-.24c.18-2.75.38-5.87.48-9.14.1-2.8.21-5.59.31-8.38l.11-2.83c.27-6.73.57-14.57.78-22.42l.43-15.15,0-.56.42-14.78.14-4.92c.21-6.64.46-13.52.7-19.7l0-1.13,0-.91,0-.72,0-.58.1-2.75.08-2.06c.08-2,.16-4.06.22-6.09q.3-7.87.61-15.73l.13-3.24,0-.42.48-12.35c.17-4.23.27-8.51.33-11.77l.05-1.91.09-3.65v-.13c0-1.16.07-2.31.11-3.47v-.42c.09-2.36.2-5.9.22-9.36.29-25.42.42-46.41.42-66.07,0-6.65,0-13.28,0-19.93v-7.44c0-13.49,0-26.83,0-40.17V559.2a11,11,0,0,1-2.5-6.94q0-5.1-.07-10.19l-.05-6.57v-2q0-5.85-.12-11.69v-.78c0-1.2-.07-2.24-.06-3.25,0-1.84-.12-4.25-.3-7.6l0-.53,0-.54c-.1-.63-.2-1.27-.28-1.91-.53-4.31-.85-8.63-1-12.85a11.2,11.2,0,0,1,2.12-6.63c4.47,2.81,8.92,5.63,13.35,8.5q5,3.53,10.11,7c9.71,6.65,19.55,13,29.54,19.22l4.94,3c4.48,2.84,9,5.63,13.57,8.33q3.87,2.42,7.69,4.91a10,10,0,0,1-.39,1.43,12.88,12.88,0,0,1-1.07,2.49,16.8,16.8,0,0,1-2.8,4.84,21.49,21.49,0,0,1-3.26,3v1.37l0,.78,0,1.12c-.06,1.52-.11,3-.16,4.54l-.08,2.24-.08,2.31-.14,3.7v.25l0,9.9,0,11.17q0,6.75,0,13.49a59.76,59.76,0,0,0-2.51,5.6c-5.49,14.19-5.68,31.27.74,45.23.44,1,.89,1.94,1.33,2.92,0,1.25,0,2.51,0,3.77v.74c0,2.43,0,4.95-.1,7.38l-.25,8.51-.25,8.63-.32,10.71-.2,6.74-.13,4.48c-.09,3-.17,5.94-.26,8.9s-.18,5.79-.27,8.68l-.07,2.15c-.25,7.4-.51,15.06-.62,23.18l-.1,6.54v1.14c-.3,19-.61,38.74-.42,58.92.17,21.21.31,43.58.45,68.4l0,4.94v1.92c0,8.52.07,19.14.3,29.19a9.75,9.75,0,0,1-8.29,9.47,11.45,11.45,0,0,1-1.19.08,9.6,9.6,0,0,1-9.31-7l-.23-1.2a2.58,2.58,0,0,1-.14,1,10.47,10.47,0,0,1-2.7,4.63,10.6,10.6,0,0,1-18.1-7.49,111.12,111.12,0,0,1,.61-11.87l.13-1.68.05-.78,0-.61a.12.12,0,0,1-.09.08,7,7,0,0,1-1.81.76,8.55,8.55,0,0,1-2.42.36,9.42,9.42,0,0,1-7.32-3.57l-.43-.54-.07-.09a8.7,8.7,0,0,1-1.12-1.63,17.53,17.53,0,0,1-.95-2l.05.18c0,.83-.08,1.66-.14,2.48-.38,5.11-.8,9.89-1.31,14.62-.76,6.7-1.42,12.39-2.09,17.91-.22,1.8-.48,3.61-.73,5.41l-.3,2.14c-.09.68-.19,1.36-.29,2l-.1.68-.15,1c-.06.38-.11.76-.16,1.14l0,.35a23.72,23.72,0,0,1-1.36,6,14.55,14.55,0,0,1-1.23,2.29,7.73,7.73,0,0,1-6.63,3.83A8.07,8.07,0,0,1,383.62,958Z"/>
      <path class="cls-5" d="M401.71,502.59c-6.29-2.63-10.54-8-13.77-13.79a9.73,9.73,0,0,1-5.39-1.11,16.72,16.72,0,0,1-6.66-5.58c-1.83-2.6-2.36-6-3.12-9a36,36,0,0,1-1.21-6.83,5.69,5.69,0,0,1,1.47-4.67c1.93-1.76,5.12-1.09,7.41-.16l.51.22.25.11c3.26,1.52,5.89,4.09,8.66,6.35,2.38,1.75,4.78,3.49,7.09,5.34,2.53,2,5,4.14,7.5,6.17l1.71,1.2a25.59,25.59,0,0,1,3.37,2.77,19.74,19.74,0,0,1,2.2,2.71,6.74,6.74,0,0,1,1.35,3.71,3.12,3.12,0,0,1-1.93,3,5.42,5.42,0,0,1-2,.37c.05.15.09.3.13.46l.12.25.07.11a17.15,17.15,0,0,1,1.47,2c1.21,2,2.59,5.23.25,7.06a5.32,5.32,0,0,1-3.31.92h-.05A16,16,0,0,1,401.71,502.59Z"/>
      <path class="cls-5" d="M411.85,512.89a20.93,20.93,0,0,1-14.22-10.26c-.63-1.38-1.16-3.32-.23-4.7a5.5,5.5,0,0,1,1.54-2.4,9.86,9.86,0,0,1,1.82-1.09l.12-.06c.07-.29.12-.57.18-.87a32.49,32.49,0,0,0,0-5.58l-.15-.32c-.47-1-.67-2.34.31-3.1,1.18-.93,3.07-.46,4.33,0a12.63,12.63,0,0,1,4.61,3c1,1,2.65,3,2.1,4.56l-.12.33c0,.13,0,.25.05.38a87.88,87.88,0,0,0,2.05,9.4c.45.72.87,1.45,1.28,2.18l.25.38a19.39,19.39,0,0,1,1.12,1.83,5.61,5.61,0,0,1,.65,3.78,3,3,0,0,1-.48,1.11,4.37,4.37,0,0,1-3.79,1.58A10.48,10.48,0,0,1,411.85,512.89Z"/>
    </g>
  </g>
  <g id="parent-building6_layer-windows_side-b">
    <g class="cls-6">
      <circle class="cls-7" cx="534.21" cy="837.16" r="5.47" transform="translate(-344.15 1300.5) rotate(-85.27)"/>
      <path class="cls-7" d="M554.07,849.11a2.82,2.82,0,1,1,2.82,2.81A2.84,2.84,0,0,1,554.07,849.11Z"/>
      <path class="cls-7" d="M560.71,826.42a2.65,2.65,0,1,1,2.65,2.65A2.67,2.67,0,0,1,560.71,826.42Z"/>
      <path class="cls-7" d="M546,881.86a3.47,3.47,0,1,1,3.47,3.46A3.5,3.5,0,0,1,546,881.86Z"/>
      <circle class="cls-7" cx="541.76" cy="824.5" r="5.07" transform="translate(-424.33 624.57) rotate(-45)"/>
      <circle class="cls-7" cx="568.19" cy="869.61" r="8.91" transform="translate(-131.96 102.24) rotate(-9.22)"/>
      <path class="cls-7" d="M571.47,829.87a3.17,3.17,0,1,1,3.16,3.16A3.19,3.19,0,0,1,571.47,829.87Z"/>
      <path class="cls-7" d="M538.56,860.82a2.65,2.65,0,1,1,2.65,2.64A2.67,2.67,0,0,1,538.56,860.82Z"/>
      <circle class="cls-7" cx="574.63" cy="893.39" r="8.72" transform="translate(-135.69 103.58) rotate(-9.22)"/>
      <path class="cls-7" d="M533.42,901.65a3.26,3.26,0,1,1,3.26,3.26A3.28,3.28,0,0,1,533.42,901.65Z"/>
      <path class="cls-7" d="M569,811.17a4.94,4.94,0,0,1,2-3.94,6.47,6.47,0,0,0,5.94,0,4.93,4.93,0,1,1-7.93,3.9Z"/>
      <path class="cls-7" d="M392.48,623.34a3.24,3.24,0,0,1-1.31-.85l-.37-.2a5.72,5.72,0,0,1-2.06-3,14.42,14.42,0,0,1-.81-5,15.48,15.48,0,0,1,1.45-7.28,5.72,5.72,0,0,1,2.79-2.92s0-.07,0-.11c.23-.57.63-1.38,1.36-1.38s1.14.81,1.37,1.38a5.81,5.81,0,0,1,.24.78l.33.3a8,8,0,0,1,1.69,2.9,17.43,17.43,0,0,1,.69,8.83c-.35,2.13-1.13,4.9-3.08,6.16a2.87,2.87,0,0,1-1.55.49A2.69,2.69,0,0,1,392.48,623.34Z"/>
      <path class="cls-7" d="M438.34,746.5c-1.7-1.72-2.42-4.65-2.53-7a20.5,20.5,0,0,1,.19-5.07c.49-2.54,1.78-7,5.2-6.27l.12,0c.78-.06,1.35.53,1.76,1.35a11.32,11.32,0,0,1,1.75,4,17.88,17.88,0,0,1,.29,7.46c-.36,2.11-1.13,4.85-3.05,6.09a2.69,2.69,0,0,1-1.48.47A3.23,3.23,0,0,1,438.34,746.5Z"/>
      <path class="cls-8" d="M394.36,575.75c-2.74-1.77-3.51-6.07-3.68-7.34a35.15,35.15,0,0,1,.36-13.14,12.52,12.52,0,0,1,1.73-4.1,7.73,7.73,0,0,1,1.44-3,13.31,13.31,0,0,1,.42-1.3c.54-1.6,1.31-2.57,2.29-2.87a1.9,1.9,0,0,1,.57-.1c.9,0,1.72.69,2.46,2a11.83,11.83,0,0,1,1.22,3.78,13.73,13.73,0,0,1,1,2.72l0,.13,0,.13a23,23,0,0,1,.77,3,29.13,29.13,0,0,1,.61,6.28c0,.35,0,.71,0,1.06v.15c0,.77,0,1.56-.08,2.33a17.61,17.61,0,0,1-2.49,8.12,4.6,4.6,0,0,1-3.44,2.32,3.17,3.17,0,0,1-1.45.36A3.24,3.24,0,0,1,394.36,575.75Z"/>
      <path class="cls-8" d="M422.61,581.35l-.1-.26c-.22-.39-.39-.71-.55-1a17.28,17.28,0,0,1-1.66-6.46,31.23,31.23,0,0,1,1.57-13c.58-1.51,1.55-3.62,3.25-4.51a4.86,4.86,0,0,1,2.5-2.17,2.7,2.7,0,0,1,.88-.14,4.27,4.27,0,0,1,3.32,2.14c2.11,3.08,2.63,6.89,2.88,10.55a21.27,21.27,0,0,1-1.07,8.88c-.55,1.5-1.53,3.47-3.06,4.36a8.66,8.66,0,0,1-1.78,2.66,6.71,6.71,0,0,1-1.11,1.32,2.54,2.54,0,0,1-1.87.94C424,584.6,423,582.33,422.61,581.35Z"/>
      <path class="cls-8" d="M407.64,576.28a18.91,18.91,0,0,1-1.17-5.37,15.4,15.4,0,0,1-1.22-4.08,21.4,21.4,0,0,1,0-6.87l0-.11a12.78,12.78,0,0,1,1.93-5.27,5.32,5.32,0,0,1,1.47-1.52,3.06,3.06,0,0,1,1-.44c0-.07.06-.15.1-.23a4,4,0,0,1,2.1-2.16,1.86,1.86,0,0,1,.61-.1,3,3,0,0,1,2.29,1.49,9.21,9.21,0,0,1,1.38,3.77,15.7,15.7,0,0,1,.21,2.88c0,.33,0,.65,0,1l.15.3a22,22,0,0,1,.07,18.11c-.39.81-1.83,3.46-4.17,3.46C410.47,581.11,408.91,579.52,407.64,576.28Z"/>
      <path class="cls-8" d="M445.75,587.46a2.23,2.23,0,0,1-1.59-1.09,6.13,6.13,0,0,1-.89-2.14,1.61,1.61,0,0,1-.51.07,3.19,3.19,0,0,1-2.26-1.06,9.39,9.39,0,0,1-2.19-4.35,15.21,15.21,0,0,1-.71-4.83c0-.47,0-1,.06-1.44s.12-1.14.21-1.74a10.19,10.19,0,0,1,2.39-5.55,3.06,3.06,0,0,1,2.18-1,3.19,3.19,0,0,1,2.25,1,9.11,9.11,0,0,1,2,3.67,1.43,1.43,0,0,1,.29,0c2,0,3.23,2.76,3.54,3.61a15.73,15.73,0,0,1,.36,9.26c-.36,1.39-1.24,3.82-3,4.52a3.24,3.24,0,0,1-2.05,1.06Z"/>
      <path class="cls-8" d="M427.12,636.83a9.88,9.88,0,0,1-2.24-4.92,29.42,29.42,0,0,1-.54-4.11,14.29,14.29,0,0,1-1.63-7.12,14.08,14.08,0,0,1,1.42-6.89c.76-1.32,1.69-2.72,3.27-2.72s2.67,1.48,3.28,2.72a10.67,10.67,0,0,1,.9,2.5,1.46,1.46,0,0,1,.67.44l.09.09a2,2,0,0,1,.22.29,7.53,7.53,0,0,1,.83,5.35,21.89,21.89,0,0,1,.59,2.67,18.61,18.61,0,0,1-.3,7.54c-.62,2.39-1.53,4-2.78,4.75a2.71,2.71,0,0,1-1.51.47A3.29,3.29,0,0,1,427.12,636.83Z"/>
      <path class="cls-8" d="M408.67,634a9.75,9.75,0,0,1-2.13-3.64,19.85,19.85,0,0,1-1.18-7.21c0-1.05.09-2,.18-2.86a19.68,19.68,0,0,1,.22-2c.59-3.5,2.38-7.58,5.46-7.58a4.06,4.06,0,0,1,1.07.15,5.17,5.17,0,0,1,2.8,2.46,19,19,0,0,1,2.51,9.86,21.83,21.83,0,0,1-.69,5.61,11.43,11.43,0,0,1-2.62,5.24,3.69,3.69,0,0,1-5.62,0Z"/>
      <path class="cls-8" d="M438.55,632.15a19.69,19.69,0,0,1-.49-5.95,16.33,16.33,0,0,1,.86-4.28,7.92,7.92,0,0,1,1.92-3.42,3.18,3.18,0,0,1,2.17-1.06,3.09,3.09,0,0,1,2.18,1.06c1.39,1.41,2.23,3.72,2.49,6.86a15.72,15.72,0,0,1-1.32,8.21c-.91,1.8-2.07,2.72-3.44,2.72a3.25,3.25,0,0,1-.44,0,2.58,2.58,0,0,1-.54.07C439.77,636.33,438.74,632.84,438.55,632.15Z"/>
      <path class="cls-8" d="M437.16,695.52c0-.15-.06-.3-.08-.46s0-.22,0-.32a7.66,7.66,0,0,1-.67,2c-.45.9-1.23,2-2.37,2a2.6,2.6,0,0,1-2-1.29,9.38,9.38,0,0,1-1.33-4.32c-.06-.59-.13-1.18-.18-1.77a13.73,13.73,0,0,1,0-6.75l0-.18a5.77,5.77,0,0,1,2.26-3.68,5,5,0,0,1,.64-.94,2.22,2.22,0,0,1,1.06-.86,1.54,1.54,0,0,1,.42-.07,1.81,1.81,0,0,1,1.24.59c1.54,1.57,1.49,4.41,1.4,5.57,0,.26-.06.57-.11.88s.12.81.15,1.22a3.19,3.19,0,0,1,.13-.44,7.56,7.56,0,0,1,1.61-2.75,3.21,3.21,0,0,1,1.29-.85,3.82,3.82,0,0,1,.94-.87,2,2,0,0,1,1.27-.5,2,2,0,0,1,.58.1c2.23.71,2.76,4.27,2.89,5.77a15.25,15.25,0,0,1-.16,3.76,17.44,17.44,0,0,1-.48,5.51c-.6,2.29-1.47,3.77-2.66,4.53a2.89,2.89,0,0,1-1.54.52C438.86,701.9,437.47,697.29,437.16,695.52Z"/>
      <path class="cls-8" d="M418.48,696.08a6.07,6.07,0,0,1-1-1.47,12.43,12.43,0,0,1-1.17-5.51c0-.31,0-.61,0-.92s0-.63.07-.95c.05-.55.13-1.11.23-1.66a10.55,10.55,0,0,1,1.75-4.74,5.75,5.75,0,0,1,1.22-1.28c.19-.71.38-1.43.55-2.15l.09-.51a12.61,12.61,0,0,1,1-3.55c.26-.53.84-1.41,1.7-1.41s1.38.77,1.71,1.41a8.11,8.11,0,0,1,.29,6.16c-.15.82-.3,1.64-.44,2.45a10.72,10.72,0,0,1,.77,2.14,16.9,16.9,0,0,1,.27,7.5c-.53,2.63-1.37,5.42-3.59,6.12a2.61,2.61,0,0,1-.76.12A3.35,3.35,0,0,1,418.48,696.08Z"/>
      <path class="cls-8" d="M396.45,692a13.91,13.91,0,0,1-1.94-4.53,23.33,23.33,0,0,1-.65-8.12l0-.24c.33-3.15,1-7.08,3.47-9.57a4.29,4.29,0,0,1,3-1.47c1.77,0,3.09,1.39,3.9,2.55,2.23,3.21,2.7,7.55,2.7,10.62,0,3.56-.62,8.48-3.56,11.71l-.11.12a4.26,4.26,0,0,1-3,1.46C398.57,694.52,397.25,693.14,396.45,692Z"/>
      <path class="cls-8" d="M395.91,745.15c-2.21-1.75-3.59-4.5-4.25-8.44a23.81,23.81,0,0,1,.94-12c.92-2.47,2.6-5.43,5.35-5.43,2.93,0,4.61,3.41,5.35,5.43l0,.1a23.48,23.48,0,0,1,0,15.61,9.19,9.19,0,0,1-3.25,4.74,4.11,4.11,0,0,1-2.2.67A3.12,3.12,0,0,1,395.91,745.15Z"/>
      <path class="cls-8" d="M415.29,749v0c-2.69,0-4.82-3.17-5.82-5.88a25.49,25.49,0,0,1,0-17c.94-2.55,2.1-4.24,3.54-5.17a4,4,0,0,1,2.19-.69,4.05,4.05,0,0,1,1.28.22c-.1-.05-.1-.07-.1-.07h0a5.13,5.13,0,0,1,1.17.55,8.82,8.82,0,0,1,2.82,3.49,22.49,22.49,0,0,1,2.11,10.19,23,23,0,0,1-1.92,9.81A9.25,9.25,0,0,1,418,748a4.21,4.21,0,0,1-2.7,1Z"/>
      <path class="cls-8" d="M393.94,787c-2.15-3.09-2.51-7.06-2.59-10.18v-.23a20.74,20.74,0,0,1,1.22-7.43,8.77,8.77,0,0,1,3.09-4.52,3.73,3.73,0,0,1,2-.65c2.8,0,4.95,4,5.58,6.81l0,.11,0,.1a25.13,25.13,0,0,1,.38,9.79c-.68,4-2,6.72-4,8a3.57,3.57,0,0,1-1.93.61A4.88,4.88,0,0,1,393.94,787Z"/>
      <path class="cls-8" d="M414.57,791.74a5.26,5.26,0,0,1-2.66-2.24,14.68,14.68,0,0,1-2.23-6.09,22.12,22.12,0,0,1,.87-11.26c.57-1.53,2.16-5.08,4.79-5.08h.36a2.69,2.69,0,0,1,.89.16c2.16,1,3.59,3.06,4.5,6.54a22.24,22.24,0,0,1-.5,13c-.44,1.19-2.11,5.09-5,5.09A3.43,3.43,0,0,1,414.57,791.74Z"/>
      <path class="cls-8" d="M426.86,785.27c-1.59-2.13-1.42-5.24-1.19-6.91a7.57,7.57,0,0,1,.82-2.61c.47-.83,1.25-1.83,2.25-1.83a1.76,1.76,0,0,1,1,.31c1.49,1,2,3.22,2.11,4.95a9.66,9.66,0,0,1-1.25,6.08,2.41,2.41,0,0,1-1.86,1.22A2.46,2.46,0,0,1,426.86,785.27Z"/>
      <path class="cls-8" d="M427.68,739.82a7.73,7.73,0,0,1-.44-1,7.93,7.93,0,0,1-.9-3.28,10.24,10.24,0,0,1,.52-4.41,5.77,5.77,0,0,1,.36-1.71c.22-.6.72-1.6,1.58-1.6a1.45,1.45,0,0,1,1.19.82,3.79,3.79,0,0,1,2.17,2.19,10.76,10.76,0,0,1,0,9c-.43.84-1.16,1.86-2.24,1.86S428.18,740.73,427.68,739.82Z"/>
      <path class="cls-8" d="M434.6,791.72a23.82,23.82,0,0,1,0-19c.9-1.79,2.46-3.93,4.74-3.93s3.84,2.14,4.75,3.93a23.82,23.82,0,0,1,0,19c-.91,1.8-2.47,3.94-4.75,3.94S435.5,793.52,434.6,791.72Z"/>
      <path class="cls-8" d="M535.11,766.05a22.75,22.75,0,0,1-1.18-7.62,16.26,16.26,0,0,1,1.22-6.86,14.65,14.65,0,0,1,1.14-2,8.36,8.36,0,0,1,1.71-4.16,3,3,0,0,1,2-1.18h.17a3.54,3.54,0,0,1,2.67,1.57c1.69,2.36,2.53,5.24,2.74,9.35l.12.46a23.82,23.82,0,0,1,.58,7.8,14.64,14.64,0,0,1-1.76,6.23c-.67,1.14-1.82,2.53-3.47,2.65h-.27C537.73,772.32,535.91,768.39,535.11,766.05Z"/>
      <path class="cls-8" d="M581.09,776.57a10.59,10.59,0,0,1-.6-1.22,16,16,0,0,1-1.62-6,17.91,17.91,0,0,1,.47-6.28l.12-.45c.51-1.78,1.65-3.68,3.31-3.68a2.74,2.74,0,0,1,1.19.31,6.93,6.93,0,0,1,2.64,3.39,16.41,16.41,0,0,1,1.41,6,14.54,14.54,0,0,1-.85,6.54,4.78,4.78,0,0,1-2.4,2.79,1.89,1.89,0,0,1-1.15.4A3.28,3.28,0,0,1,581.09,776.57Z"/>
      <path class="cls-8" d="M561.93,775.18a4.76,4.76,0,0,1-2.78-2.46,15.66,15.66,0,0,1-1.95-6.65,19.19,19.19,0,0,1,.6-6.12l0-.13,0-.14L558,759a13.7,13.7,0,0,1,.46-3.14c.48-1.65,1.18-2.64,2.15-3a2,2,0,0,1,.74-.15,2.11,2.11,0,0,1,1,.28c2.33.27,3.52,2.85,4,4.36l.11.22a17.46,17.46,0,0,1,1.34,8.68,11.35,11.35,0,0,1-1.34,4.71,6.87,6.87,0,0,1-2.31,3.71,3,3,0,0,1-1.67.6A2.37,2.37,0,0,1,561.93,775.18Z"/>
      <path class="cls-8" d="M542.35,806.38l-.23-.09a4.47,4.47,0,0,1-1.59-.92,9.52,9.52,0,0,1-2.28-3.29,19.68,19.68,0,0,1-1.59-5.57,29.35,29.35,0,0,1-.26-6.83,17.22,17.22,0,0,1,1.05-4.55c.76-1.83,1.7-3,2.86-3.41a3.17,3.17,0,0,1,1.22-.25c2.49,0,4.2,3.15,5.2,5.79a24.53,24.53,0,0,1,1.19,6.08c0,.14,0,.29,0,.45a17.43,17.43,0,0,1-.55,7.78,9.74,9.74,0,0,1-1.68,3.45,3.87,3.87,0,0,1-2.67,1.49A2.08,2.08,0,0,1,542.35,806.38Z"/>
      <path class="cls-8" d="M562.38,808.37c-1.46-1.8-2.34-4.42-2.61-7.79a35,35,0,0,1-.09-4.09c0-1,.08-1.94.14-2.9a17,17,0,0,1,1.11-5,6.32,6.32,0,0,1,2.22-3.19,3.74,3.74,0,0,1,2-.73,2.84,2.84,0,0,1,.69.09,5.06,5.06,0,0,1,2.61,1.88c1.89,2.21,3,5.65,3.43,10.51a18.45,18.45,0,0,1-1.11,8.5c-.66,1.59-1.86,3.54-3.79,3.77a2.77,2.77,0,0,1-1.72.64A4,4,0,0,1,562.38,808.37Z"/>
      <path class="cls-8" d="M581.86,804.76a11.91,11.91,0,0,1-1.48-5.11,10,10,0,0,1,1-5.85l.06-.1s0,0,.43-.64a2.73,2.73,0,0,1,1.7-1l.27,0a2.26,2.26,0,0,1,.78.16,1,1,0,0,1,.3-.05c.69,0,1.31.79,1.62,1.47a6.6,6.6,0,0,1,.4,1.21,12.08,12.08,0,0,1,.36,9.4,3.68,3.68,0,0,1-2.55,2.51,1.24,1.24,0,0,1-.33,0C583.17,806.79,582.14,805.24,581.86,804.76Z"/>
    </g>
  </g>
  <g id="parent-building6_layer-windows_side-a">
    <g class="cls-9">
      <path class="cls-10" d="M479.47,788.64a13.68,13.68,0,0,1,0-10.89c.53-1,1.42-2.25,2.72-2.25s2.2,1.21,2.73,2.25a13.68,13.68,0,0,1,0,10.89c-.53,1-1.43,2.26-2.73,2.26S480,789.68,479.47,788.64Z"/>
      <path class="cls-10" d="M218.45,624a21.46,21.46,0,0,1,0-17.07c.82-1.62,2.23-3.53,4.27-3.53s3.44,1.91,4.26,3.53A21.46,21.46,0,0,1,227,624c-.82,1.62-2.23,3.53-4.26,3.53S219.27,625.58,218.45,624Z"/>
      <path class="cls-11" d="M277.07,567.93a32.68,32.68,0,0,1,0-26.06c1.24-2.47,3.39-5.41,6.52-5.41s5.29,2.94,6.53,5.41a32.68,32.68,0,0,1,0,26.06c-1.24,2.47-3.39,5.41-6.53,5.41S278.31,570.4,277.07,567.93Z"/>
      <path class="cls-11" d="M245.29,569.19a26.1,26.1,0,0,1,0-20.84c1-2,2.71-4.32,5.22-4.32s4.22,2.35,5.22,4.32a26.21,26.21,0,0,1,0,20.84c-1,2-2.71,4.32-5.22,4.32S246.29,571.16,245.29,569.19Z"/>
      <path class="cls-11" d="M217.86,562.45a22,22,0,0,1,0-17.49c.84-1.65,2.28-3.63,4.39-3.63s3.54,2,4.38,3.63a21.92,21.92,0,0,1,0,17.49c-.84,1.66-2.28,3.63-4.38,3.63S218.7,564.11,217.86,562.45Z"/>
      <path class="cls-11" d="M243.46,625.12a30.38,30.38,0,0,1,0-24.23c1.16-2.29,3.15-5,6.07-5s4.91,2.74,6.07,5a30.49,30.49,0,0,1,0,24.23c-1.16,2.3-3.16,5-6.07,5S244.62,627.42,243.46,625.12Z"/>
      <path class="cls-11" d="M278.82,620.23a19,19,0,0,1,0-15.19c.73-1.44,2-3.16,3.81-3.16s3.09,1.72,3.82,3.16a19.16,19.16,0,0,1,0,15.19c-.73,1.45-2,3.16-3.82,3.16S279.55,621.68,278.82,620.23Z"/>
      <path class="cls-11" d="M309.66,629.93a34.7,34.7,0,0,1,0-27.59c1.32-2.61,3.6-5.73,6.91-5.73s5.59,3.12,6.91,5.73a34.59,34.59,0,0,1,0,27.59c-1.32,2.62-3.59,5.73-6.91,5.73S311,632.55,309.66,629.93Z"/>
      <path class="cls-11" d="M324.52,565a16.47,16.47,0,0,1-1.47-4.65,12.32,12.32,0,0,1-.68-1.19,22.36,22.36,0,0,1,0-17.81c.85-1.69,2.33-3.7,4.46-3.7l.34,0a3.39,3.39,0,0,1,1.84-.56c2.07,0,3.49,2,4.31,3.58a18.86,18.86,0,0,1,1.79,8.6,23.33,23.33,0,0,1-.45,4.69c.08.8.13,1.66.13,2.53A18.57,18.57,0,0,1,333,565c-.81,1.6-2.2,3.52-4.25,3.52S325.33,566.55,324.52,565Z"/>
      <path class="cls-11" d="M354.38,562.71a25.39,25.39,0,0,1,0-20.22c1-1.92,2.64-4.2,5.07-4.2s4.1,2.28,5.07,4.2a25.39,25.39,0,0,1,0,20.22c-1,1.91-2.64,4.2-5.07,4.2S355.35,564.62,354.38,562.71Z"/>
      <path class="cls-11" d="M349.44,624.2a30.24,30.24,0,0,1,0-24.08c1.15-2.28,3.13-5,6-5s4.87,2.72,6,5a30.24,30.24,0,0,1,0,24.08c-1.15,2.27-3.13,5-6,5S350.59,626.47,349.44,624.2Z"/>
      <path class="cls-11" d="M347.67,699.21a22.67,22.67,0,0,1,0-18.08c.87-1.71,2.35-3.76,4.53-3.76s3.66,2,4.52,3.76a22.67,22.67,0,0,1,0,18.08c-.86,1.72-2.35,3.76-4.52,3.76S348.54,700.93,347.67,699.21Z"/>
      <path class="cls-11" d="M318.66,705.3a26.5,26.5,0,0,1,0-21c1-2,2.75-4.36,5.27-4.36s4.26,2.37,5.27,4.36a26.39,26.39,0,0,1,0,21c-1,2-2.74,4.37-5.27,4.37S319.68,707.29,318.66,705.3Z"/>
      <path class="cls-11" d="M287.09,740.53a28.51,28.51,0,0,1,0-22.67c1.09-2.15,3-4.71,5.68-4.71s4.59,2.56,5.67,4.71a28.51,28.51,0,0,1,0,22.67c-1.08,2.14-2.95,4.7-5.67,4.7S288.18,742.67,287.09,740.53Z"/>
      <path class="cls-11" d="M282,702.19a26.91,26.91,0,0,1,0-21.36c1-2,2.78-4.43,5.35-4.43s4.32,2.41,5.34,4.43a26.8,26.8,0,0,1,0,21.36c-1,2-2.78,4.42-5.34,4.42S283,704.21,282,702.19Z"/>
      <path class="cls-11" d="M252.62,703.32a24.5,24.5,0,0,1,0-19.53c.93-1.85,2.54-4,4.89-4s3.95,2.2,4.88,4a24.5,24.5,0,0,1,0,19.53c-.93,1.85-2.53,4-4.88,4S253.55,705.17,252.62,703.32Z"/>
      <path class="cls-11" d="M218.86,695a23.57,23.57,0,0,1,0-18.82c.9-1.79,2.45-3.91,4.71-3.91s3.8,2.12,4.71,3.91a23.68,23.68,0,0,1,0,18.82c-.91,1.79-2.46,3.91-4.71,3.91S219.76,696.79,218.86,695Z"/>
      <path class="cls-11" d="M476,758.38a20.14,20.14,0,0,1,0-16.06c.76-1.52,2.08-3.33,4-3.33s3.26,1.81,4,3.33a20.14,20.14,0,0,1,0,16.06c-.76,1.52-2.08,3.33-4,3.33S476.8,759.9,476,758.38Z"/>
      <path class="cls-11" d="M501.58,760.3a24.56,24.56,0,0,1,0-19.51c.94-1.85,2.55-4,4.89-4s3.95,2.2,4.89,4a24.56,24.56,0,0,1,0,19.51c-.94,1.84-2.55,4.05-4.89,4.05S502.52,762.14,501.58,760.3Z"/>
      <path class="cls-11" d="M501.86,792a20,20,0,0,1,0-16c.76-1.51,2.07-3.31,4-3.31s3.23,1.8,4,3.31a20.15,20.15,0,0,1,0,16c-.77,1.51-2.08,3.31-4,3.31S502.62,793.49,501.86,792Z"/>
    </g>
  </g>
</svg>
