<svg id="Layer_2" data-name="Layer 2" xmlns="http://www.w3.org/2000/svg" viewBox="0 0 2048 1536">
  <defs>
    <style>
      .cls-1 {
        fill: #794125;
      }

      .cls-2 {
        fill: #474646;
      }

      .cls-3 {
        fill: none;
      }
    </style>
  </defs>
  <g id="Layer_67" data-name="Layer 67">
    <path class="cls-1" d="M1518.46,1099.48a24.51,24.51,0,0,1,0-29.58,22,22,0,0,1-2.62-2.75q-14.47,5.89-28.87,12a13.66,13.66,0,0,1-17.91-17.91,32,32,0,0,1,2.26-5,24.34,24.34,0,0,1,5.66-5.93,68,68,0,0,1,10.62-7c3.62-2,7.26-4.06,11-6q10-5.17,19.9-10.37l10.06-5.23c1.82-1,3.63-2,5.49-2.82,4.71-2.15,9.43-4.26,14.15-6.39l23.11-10.43c3-1.38,6.07-2.85,9.17-4.1l40.72-16.52c10.33-4.19,20.79-8,31.22-12l3.41-1.27,6.08-2.81c3.46-1.6,6.9-3.3,10.41-4.77L1693,952c2.32-1,4.64-2,7-2.91,4.43-1.78,8.81-3.71,13.29-5.35a69.37,69.37,0,0,1,8.65-2.72c3.19-.72,6.41-1.19,9.63-1.77a21.66,21.66,0,0,1,13.93,2.42c1.43-1.19,2.9-2.34,4.4-3.43A41.23,41.23,0,0,1,1760,932.5a39.79,39.79,0,0,1,5-1.59,19,19,0,0,1,3.8-.7,38.38,38.38,0,0,1,7.11,0,22.86,22.86,0,0,1,9.35,3.24,25.47,25.47,0,0,1,7.23,6.45,23.91,23.91,0,0,1,4.41,8.9q.42,1.89.78,3.81c.1,1.3.18,2.6.26,3.9a15.81,15.81,0,0,1-.36,4,24.37,24.37,0,0,1-1.69,6.16,31.44,31.44,0,0,1-2.49,4.91c-1.63,2.67-3.34,5.27-5.09,7.87.44-.65.87-1.3,1.31-1.94-4.12,6.11-8.25,12.18-12.62,18.11l-1.44,1.94c-.1,1.57-.22,3.15-.33,4.72l.09-1.42c-.26,3.52-.65,7-1.06,10.53l.73,1.46a23.51,23.51,0,0,1,1.4,4,26.7,26.7,0,0,1-44,27.94,24.48,24.48,0,0,1-3.39-4.23l-2,1.12c-5.31,2.9-10.78,5.62-16.31,8.11l-18.53,8.36c-4.27,1.92-8.7,3.54-13,5.31-4.07,1.66-8.11,3.43-12.23,5-10.71,4-21.37,8.16-32.18,11.9l3-1.05c-5.23,1.82-10.45,3.69-15.72,5.38-4.44,1.42-9,2.46-13.46,3.61-5.58,1.43-11,2.7-16.83,2.82l-2.87,1.11-18.67,7.19c-8.55,3.3-17.36,5.84-26.1,8.6a21,21,0,0,1-6.33,1A25,25,0,0,1,1518.46,1099.48Z"/>
  </g>
  <g id="Layer_66" data-name="Layer 66">
    <path class="cls-1" d="M1772.59,833.07c.35.37.68.73,1,1.09.07-.66.15-1.32.25-2l-1.17-1.87-1.35,1.47C1771.76,832.21,1772.18,832.64,1772.59,833.07Zm-111,326,.49,0c0-.12.08-.24.11-.36Zm-21.75,34.52c-.3-.54-.57-1.1-.82-1.66-3,.42-5.89.87-8.84,1.34Zm145.64.74q2-2,4-4.07a29,29,0,0,1-6-2.58,18.2,18.2,0,0,1-1.64,6.14h.1A12.47,12.47,0,0,1,1785.52,1194.33ZM1549.38,1202c1.31-.29,2.62-.58,3.93-.85.15-.18.3-.34.46-.5-1.11.28-2.2.59-3.29.93C1550.11,1201.67,1549.74,1201.81,1549.38,1202ZM1683,1284.1c.51-1.33,1-2.66,1.46-4,.71-2.06,1.41-4.12,2.13-6.17-1.2.32-2.41.62-3.62.9C1682.84,1277.92,1682.91,1281,1683,1284.1Zm-9.48,32.76c-2.51-1.68-4.81-4-5.46-7.09-1.22-5.85-1.22-12-1.56-18-.29-5.06-.47-10.17-.34-15.23.12-5.26.71-11.39,5.21-14.87,2.78-2.15,6.21-2.5,9.54-3.07,3.32-.77,6.56-1.74,9.81-2.78,1.17-.44,2.32-.9,3.46-1.4,1.21-3.83,2.18-7.69,3.07-11.61.25-1.39.43-2.78.56-4.19.08-2.41.13-4.82.06-7.24-.12-4.19-.69-8.34,1.71-12.1a9.38,9.38,0,0,1,6.63-4.44,9.66,9.66,0,0,1,4.38.46c0-.23,0-.47,0-.71-.06-.64-.13-1.27-.22-1.91l-.3-1.14c-.5,0-1,0-1.48.06-5.93.42-11.87.87-17.82,1s-11.76-.37-17.63-.58c-11.6-.43-23.21-1.16-34.8-1.77q-11.17-.59-22.34-1.2l-2.36-.13c-3.16.81-6.41,1.4-9.61,2l.16,0-.2,0-.69.14.51-.1-.53.11h0l-.21,0-.25.05-.15,0h0l-.33.07.07,0c-2.78.56-5.56,1.09-8.36,1.52a141,141,0,0,1-19.37,1.26c-5.67.07-11.28.31-16.94.63l-8.88.8c-2.55.23-5.11.52-7.67.68-3.7.23-7.42.38-10.88-1.08a5.14,5.14,0,0,1,2-9.87l.37,0,1.56-.12h-.1c1.52-.22,3-.49,4.52-.77a10.62,10.62,0,0,1,.42-1.16c2.18-4.95,8.42-6.93,13.18-8.16a104.68,104.68,0,0,1,13.17-2.12h.12a15,15,0,0,1,.21-11.36c.84-1.89,1.64-3.77,2.61-5.61a27.84,27.84,0,0,1,4.63-5.81c3-3.13,6.54-5.64,10-8.22q10.31-7.8,20.82-15.24l16.84-11.9q15.32-10.82,30.71-21.5c10.67-7.42,21.43-14.63,32.27-21.79,4.09-2.71,8.14-5.5,12.31-8.08l14.55-9q2.34-5.67,4.69-11.32c2.2-5.32,4.59-10.57,6.91-15.83q7.32-16.58,15.28-32.86l1.88-3.9a26.31,26.31,0,0,1-3.73-10.83,38.56,38.56,0,0,1-.18-9.66,31.65,31.65,0,0,1,2.7-9.49,41.78,41.78,0,0,1,5.11-8.28c1.11-1.36,2.31-2.66,3.5-4q4.29-5,8.67-9.91-1.5-.27-3-.6a45.71,45.71,0,0,1-17.08-8.14,42.82,42.82,0,0,1-4.17-3.58,33.55,33.55,0,0,1-18.16,2.65c-8.54-1.15-15.84-5.38-22-11.26a41.25,41.25,0,0,1-2.91-3.12c-1.31-.19-2.62-.34-4-.47a36.9,36.9,0,0,1-7.79-1.45,36.27,36.27,0,0,1-8.57-3.73,48.27,48.27,0,0,1-7.32-5.73,34.23,34.23,0,0,1-9-15.42,38.38,38.38,0,0,1-1-15.34,72.34,72.34,0,0,1,3.15-12.74,34.77,34.77,0,0,1,2.59-10.58,127.28,127.28,0,0,1-22.58,6.62,29.22,29.22,0,0,1-10.59-.1,17.34,17.34,0,0,1-9.53-4.74,16.67,16.67,0,0,1-3.51-5.17l-1.66.66c-3.63,1.42-7.18,3.12-11,3.91a31.53,31.53,0,0,1-9.19.55,26.34,26.34,0,0,1-7-2A16.1,16.1,0,0,1,1570,850.89c0-.28,0-.57.08-.85v.1a22.5,22.5,0,0,1,5.14-13.41,76.31,76.31,0,0,1,8.18-9.06c2.31-2.23,4.6-4.48,6.9-6.72s5-4.48,7.49-6.71c2.07-1.85,4.15-3.66,6.29-5.43,4.92-4.06,9.82-8.08,14.92-11.91s10.49-7.7,15.88-11.41q4.64-3.19,9.32-6.29l5.84-3.83a101.31,101.31,0,0,1,10.88-6.4c4.9-2.44,11-1.13,15.21,2.25.89-.52,1.79-1,2.71-1.48a15.9,15.9,0,0,1,3.51-10.25,30.23,30.23,0,0,1,8.31-7c1.55-.9,3.18-1.68,4.77-2.5l7-3.55c2.36-1.21,4.76-2.32,7.16-3.45,5.23-2.46,10.82-4.78,16.69-4.85a22.35,22.35,0,0,1,11.65,2.85,19.33,19.33,0,0,1,4.36,3.5c.29-.33.6-.67.91-1,2.84-2.95,6.52-4.59,10.34-5.8,6-1.94,12.92-1.51,19,0,9.46,2.28,18.07,7.64,25.58,13.68a117.25,117.25,0,0,1,19.62,20.08,107,107,0,0,1,13.95,24.6,136.82,136.82,0,0,1,7.5,27.48c2.2,12.23,2.32,24.76,2.59,37.15,0,.81,0,1.62,0,2.43.07.31.12.62.18.93a68.38,68.38,0,0,1,.64,16.54h0l0,.76v0c0,.69-.1,1.39-.15,2.11-.31,4.5-2.94,9.08-6.06,12.21a21.51,21.51,0,0,1-11.82,6,48.86,48.86,0,0,1-5.32,5.35,28,28,0,0,1-2.61,2,17.66,17.66,0,0,1,4.17.07l.24,0c2-1.93,4-3.8,6.23-5.53a42.72,42.72,0,0,1,18.91-8.48,29.56,29.56,0,0,1,28.35,11.29,36,36,0,0,1,6.8,19.28c.24,3.32.4,6.56.38,9.89s-.17,6.42-.32,9.63c-.53,11.77-1.71,23.57-3.07,35.28,2.77,7.35,5.79,14.6,8.37,22a106.43,106.43,0,0,1,5.52,30.62,127.34,127.34,0,0,1-.62,15.25,120.66,120.66,0,0,1-2.06,13.77,188.45,188.45,0,0,1-5.48,22.21c-3.25,9.83-6.38,19.66-10.6,29.14-2.24,5-4.7,10-7.42,14.82-.07.38-.16.76-.27,1.15a29.3,29.3,0,0,1-1.73,4.13c-.7,1.55-1.4,3.12-2.11,4.67-1.27,2.79-2.63,5.57-4,8.29-3.08,6-6.27,11.92-9.56,17.83-3,5.36-6.23,10.54-9.44,15.77a306.87,306.87,0,0,1-20.69,30c-5.41,6.86-11.15,13.47-17.14,19.83s-12.25,12.07-18.63,17.84c-5.35,4.85-11,9.38-16.46,14.06-8.69,7.41-17.44,14.76-26,22.3-5.22,4.58-10.46,9-15.78,13.5-3.88,3.25-7.81,6.36-12,9.22a74.13,74.13,0,0,1-12.39,7.08c-4.28,1.83-8.91,2.75-13.09.57a15.15,15.15,0,0,1-4.29,2.73,11.16,11.16,0,0,1-4.13.79A8.24,8.24,0,0,1,1673.56,1316.86Z"/>
  </g>
  <g id="Layer_65" data-name="Layer 65">
    <path class="cls-1" d="M1508,1353.09a37,37,0,0,1-7.38-2.93,31.94,31.94,0,0,1-6.93-5.06,34.75,34.75,0,0,1-4.25-4.89,37.34,37.34,0,0,1-3.56-5.74,54.21,54.21,0,0,1-5-15.28,56.81,56.81,0,0,1-.25-14.33,51.21,51.21,0,0,1,.93-6c.51-2.62,1.07-5.24,1.77-7.81a50.83,50.83,0,0,1,4.81-11.84c2.46-4.3,6.49-8.48,11.22-10.16a23.08,23.08,0,0,1,3.06-.84,18.08,18.08,0,0,1,16.43-10.73c6.09,0,11.75,2.22,17.23,4.67,1.73.77,3.43,1.68,5.11,2.54l.55.28a14.83,14.83,0,0,1,6.11-2.28,15.26,15.26,0,0,1,16,9.1c.48,1.18.88,2.39,1.29,3.6a19.68,19.68,0,0,1,.67,5c.06,1.08.09,2.16.07,3.25,0,.93,0,1.86,0,2.79a77.31,77.31,0,0,1,4.2,7.81c3.3,7,4.47,14.88,4.75,22.58a56.72,56.72,0,0,1-.7,10.81,36.91,36.91,0,0,1-4.06,12.44,23.61,23.61,0,0,1-10.53,9.92,18.24,18.24,0,0,1-16.39-.66,15.83,15.83,0,0,1-1.43-.85,43.92,43.92,0,0,1-18.31,5.91c-1.46.13-2.91.2-4.36.2A43.33,43.33,0,0,1,1508,1353.09Z"/>
  </g>
  <g id="Layer_64" data-name="Layer 64">
    <path class="cls-1" d="M1313.86,1477.85c-3-1.47-5.81-3.27-8.62-5-3.55-2.19-6.89-4.67-10.28-7.1-4.64-3.34-9-7.17-13.34-10.87-7.67-6.5-15-13.34-22.22-20.3l-5-4c-9.14-7.4-18.3-14.78-28-21.42l-8.5-5.8A117.28,117.28,0,0,1,1203,1391.2a122.54,122.54,0,0,1-12.61-13.55c-2.06-2.65-3.91-5.48-5.7-8.31-.82-1.3-1.72-2.57-2.47-3.91l-2.45-4.39a84.71,84.71,0,0,1-6.42-14.87,96.52,96.52,0,0,1-3.39-15c-1-6.2-1.55-12.43-2-18.68,0,.42.06.85.08,1.28-.4-5.7-.93-11.37-1.5-17.06a179.69,179.69,0,0,1-1.29-20.73,127.25,127.25,0,0,1,1.1-16.33,61.82,61.82,0,0,1,4.8-17.08,62.77,62.77,0,0,1,6.07-10.26,44.45,44.45,0,0,1,12.52-11.3c7.23-4.61,15.73-6.41,24.15-7.16,2.77-.24,5.54-.4,8.31-.63a124.69,124.69,0,0,1,12.65-.8,129.28,129.28,0,0,1,13.05,1c5.82.7,11.62,1.56,17.42,2.34s11.54,1.78,17.28,2.93c6.53,1.32,13,3,19.41,4.52,4.72,1.14,9.43,2.22,14.17,3.24l7.5,1.4c3.77.7,7.64,1.42,11.35,2.38,6.58,1.71,13,3.84,19.4,6.09,6.1,2.14,12.2,4.41,17.6,8a50.15,50.15,0,0,1,12.32,11.42,52.26,52.26,0,0,1,7.08,13.47,66.88,66.88,0,0,1,5.37,9.35,138.21,138.21,0,0,1,5.76,14.62,111.29,111.29,0,0,1,3.89,15.27,59,59,0,0,1,.85,6.21c.19,2.14.33,4.3.39,6.45a72.85,72.85,0,0,1-.42,7.38c-.53,7-3,13.73-6.17,19.92a40.73,40.73,0,0,1-26.55,21,50.68,50.68,0,0,1-9.52,1.26c-.88.06-1.76.08-2.65.11-1.38.06-2.76,0-4.14,0-2.64,0-5.28-.1-7.92-.16q-9.36-.25-18.71-.91c-5.93-.41-11.88-.8-17.78-1.45a172.26,172.26,0,0,1-25-4.5c-2.6-.68-5.14-1.6-7.67-2.49-1.56-.55-3.12-1.08-4.62-1.78-.92-.42-1.83-.87-2.72-1.34l-1.62-.23-.52-.08c3,3.11,6.08,6.2,9.2,9.23,4.14,4,8.32,8,12.32,12.18s8,8.42,12.09,12.62c4.45,4.62,9,9.11,13.6,13.59.86.84,1.74,1.66,2.62,2.47q2.9,2.35,5.76,4.73c2.71,2.23,5.38,4.51,8,6.78,1.2,1,2.39,2.08,3.58,3.12.6.45,1.21.89,1.82,1.33,2.94,2.12,6.1,4.16,8.52,6.88a29.76,29.76,0,0,1-35.35,47.08Z"/>
  </g>
  <g id="Layer_63" data-name="Layer 63">
    <path class="cls-1" d="M1351.25,1273.13a2.91,2.91,0,1,1,2.91,2.91A2.93,2.93,0,0,1,1351.25,1273.13Z"/>
  </g>
  <g id="Layer_62" data-name="Layer 62">
    <path class="cls-1" d="M1351,1258.65a6.16,6.16,0,0,1-.43-.85,23.88,23.88,0,0,1-22.64-6.79l-10-.49c-5.08-.25-10.15-.28-15.22-.59l.88.06c-4-.16-8-.2-11.91-1.38-7.18-2.16-12.7-8.75-12.53-16.45a20.34,20.34,0,0,1,.19-2.71,16.44,16.44,0,0,1,5.36-9.88,16.84,16.84,0,0,1,9.2-4.32,21.14,21.14,0,0,1,2.74-.14,54,54,0,0,1,6.31-1.21l5.22-.55c3.36-.35,6.72-.75,10.11-.95,5-.29,10-.72,15-.83.34-.24.69-.46,1-.69a27.83,27.83,0,0,1,16.38-4.05,45.71,45.71,0,0,1,8.37,1.24c.93.22,1.87.5,2.79.76l3.78,1.08c2,.57,4,1.09,6.06,1.62a43.2,43.2,0,0,1,11.49,4.58,23.79,23.79,0,0,1,10.69,13.9,23.26,23.26,0,0,1-19.27,29.22h-.15c-.64.08-1.29.14-1.94.17-.92.09-1.84.16-2.73.16-1.13,0-2.34-.14-3.51-.24l-2.63-.24a7.35,7.35,0,0,1-6.1,3.25A7.57,7.57,0,0,1,1351,1258.65Z"/>
  </g>
  <g id="Layer_61" data-name="Layer 61">
    <path class="cls-1" d="M1337.54,1397.26a10.59,10.59,0,0,1-1.66-.37c-.43,0-.86-.05-1.29-.1a12,12,0,0,1-5.7-21.38,12.47,12.47,0,0,1,1.74-1.15,12.21,12.21,0,0,1,7.37-1.47,11.51,11.51,0,0,1,4.54,1.65,7.26,7.26,0,0,1,1-.84c1.32-.94,2.93-1.94,4.63-1.84a12.71,12.71,0,0,1,3.94.87,23.44,23.44,0,0,1,3,1.41c2.33,1.26,4.25,3.19,4.25,6a5.77,5.77,0,0,1-5.71,5.72,5.65,5.65,0,0,1-3.84-1.51c-.41,1-.8,2-1.19,3-1,3.36-2.15,7-5.38,8.91a9,9,0,0,1-4.51,1.21A9.67,9.67,0,0,1,1337.54,1397.26Z"/>
  </g>
  <g id="Layer_60" data-name="Layer 60">
    <path class="cls-1" d="M1299.88,1618.64a20.4,20.4,0,0,1-16.79-14.69,28,28,0,0,1-1.13-9c.12-1.93.41-3.82.55-5.74l.21-3.17q.16-3,.32-5.93a10.4,10.4,0,0,1-2.07-6.2c0-3.53.44-7,.73-10.56,0,.23,0,.45,0,.67.47-6.64,1.2-13.26,1.74-19.9q.54-8.53,1.08-17.07.09-6.43.19-12.86c.06-3.71.14-7.41.21-11.11-.36-8.55,7.42-15.7,15.7-15.7A15.74,15.74,0,0,1,1315,1497a14.69,14.69,0,0,1,.87,2.94,20.65,20.65,0,0,1,27,13.87,23.31,23.31,0,0,1,.55,8.28c-.48,5.83-1.17,11.63-2.13,17.39-1.14,6.8-2.53,13.52-3.94,20.27-1.11,5.35-2.68,10.6-4.09,15.87-.87,3.23-1.79,6.4-2.81,9.59-1.28,4-2.65,8-4.2,11.93a80,80,0,0,1-6.2,11.68,20.57,20.57,0,0,1-17.56,10A20.22,20.22,0,0,1,1299.88,1618.64Z"/>
  </g>
  <g id="Layer_59" data-name="Layer 59">
    <path class="cls-1" d="M1416.57,1520.58l-.72-.22a17.65,17.65,0,0,1-1.85-.63,15.89,15.89,0,0,1-4.28-2.77c-2-1.19-4-2.3-5.83-3.67l-5.3-3.92c-2.33-1.71-4.61-3.46-6.89-5.22q-3.71-2.87-7.38-5.72c-1.25-1-2.49-2-3.74-2.91a70.18,70.18,0,0,1-5.92-4.84,26.51,26.51,0,0,1-5-7.16l.32.63c-.13-.24-.26-.48-.38-.72a21,21,0,0,1-2.44-7.07c0-.34-.09-.68-.11-1-1.27-1.23-2.55-2.44-3.86-3.62q-1.76-1.5-3.64-2.83-2.12-1.4-4.36-2.58a55.27,55.27,0,0,0-5.53-2.26c-.86-.28-1.72-.53-2.61-.75l.51.11a13.67,13.67,0,0,0-1.81-.3l.52,0a11.94,11.94,0,0,0-1.46-.05l-.84.12c-.41.09-.81.2-1.21.33s-.49.2-.73.32l-.4.23-.23.18,0,0,0,.07c0,.12-.06.24-.1.36a7.32,7.32,0,0,0-.09.93h0v-.12a1.77,1.77,0,0,0,0-.23c0,.11,0,.22,0,.33s0,.13,0,.19a6.08,6.08,0,0,0,.45,1c-.07-.12-.12-.24-.19-.37a18.41,18.41,0,0,0,1,1.78c.21.31.43.61.66.91a3.13,3.13,0,0,1-5,3.83,26.94,26.94,0,0,1-2.63-4,8.79,8.79,0,0,1-.94-4.36,7.9,7.9,0,0,1,3.9-6.79,16.29,16.29,0,0,1,10.08-2.16,36.85,36.85,0,0,1,6.06,1.26,64,64,0,0,1,7,2.21,45.32,45.32,0,0,1,8.26,4.3,19,19,0,0,1,6.47-6.23,38.83,38.83,0,0,1,4.31-2.32,22.24,22.24,0,0,1,9.37-1.87,50.42,50.42,0,0,1,12,2,97.1,97.1,0,0,1,17.21,7.28,100.83,100.83,0,0,1,14.43,8.9c9.64,7.2,11.26,21.56,4,31a22.07,22.07,0,0,1-2.58,2.8,15.56,15.56,0,0,1-2.39,9,14.69,14.69,0,0,1-10.44,7,14,14,0,0,1-1.94.13A14.47,14.47,0,0,1,1416.57,1520.58Z"/>
  </g>
  <g id="Layer_58" data-name="Layer 58">
    <path class="cls-1" d="M1429.15,1604.66a27.76,27.76,0,0,1-12.67-11.14,29.37,29.37,0,0,1-4.08-11.09,42.26,42.26,0,0,1,0-10.66c0,.25,0,.5,0,.76.12-1.65.26-3.3.41-5a33.21,33.21,0,0,1-1.75-6.42c-.69-3.86-.5-7.91-.51-11.83,0-2.46,0-4.93,0-7.39,0-4.42,0-8.85,0-13.28,0-4.78.06-9.55.18-14.32l.24-8.93c-4.64-2.08-9.41-3.88-14.16-5.68-5.25-2-10.51-4-15.78-5.92-10.47-3.88-20.94-7.77-31.47-11.52l-1.56-.5c-1.17-.35-2.32-.73-3.47-1.17l-1.82-.91-1.5-.71v0a19.34,19.34,0,0,1-7.8-29.64,19.93,19.93,0,0,1,12.69-7.35,37.29,37.29,0,0,1,6.4-.77,44,44,0,0,1,6.68.72c3.18.5,6.34,1.1,9.49,1.73l-1.73-.35c6.65,1.34,13.31,2.66,19.92,4.16,6.23,1.42,12.37,3.06,18.54,4.72,5.22,1.4,10.42,2.85,15.62,4.31a112.93,112.93,0,0,1,18.26,6.4q2.43,1.17,4.82,2.43a24.76,24.76,0,0,1,12.27,5.32,31.53,31.53,0,0,1,9.25,11.69,32.71,32.71,0,0,1,2.57,9.26,27.78,27.78,0,0,1-3.73,17.79c-.06,1.12-.11,2.23-.16,3.34s.06,2.31.08,3.47a22.64,22.64,0,0,1,4.05,16.51c-.23,1.53-.38,3.06-.51,4.59-.34,7.47.25,15,.3,22.42,0,2.73,0,5.47-.07,8.2,0,1.68-.09,3.34-.17,5a61.41,61.41,0,0,1-.67,7.43,47.84,47.84,0,0,1-3.11,10.06,26.82,26.82,0,0,1-21,16.08,27.26,27.26,0,0,1-3.61.25A26.86,26.86,0,0,1,1429.15,1604.66Z"/>
  </g>
  <g id="Layer_57" data-name="Layer 57">
    <path class="cls-1" d="M1272.24,1663a13.87,13.87,0,0,1-5.93-3.41,14.85,14.85,0,0,1-3-4.34,16.08,16.08,0,0,1-1.14-4.88,34.55,34.55,0,0,1,0-4.88c.13-2,.11-4,.24-6.06.25-4,.9-8,1.52-12,.7-4.57,1.27-9.14,2.07-13.69,1.37-7.77,3-15.5,4.57-23.24q1.13-5.55,2.28-11.08c-.06-1.89-.11-3.77-.16-5.66-.06-2.28.08-4.59.12-6.88.05-2.72.27-5.51.57-8.21a46,46,0,0,1,2-10.21,18.4,18.4,0,0,1,2.73-5.46,16,16,0,0,1,3.26-3.16q.8-3.67,1.55-7.36a2.21,2.21,0,0,1,0,.25c.82-4,1.65-8.08,2.64-12.08.53-2.13,1.12-4.23,1.84-6.3s1.79-4.23,2.68-6.34a3.74,3.74,0,0,1,7,.46,70.08,70.08,0,0,1,1.88,7.69l.24,1.14a3.5,3.5,0,0,1-2.41,4.24,3.62,3.62,0,0,1-2.69-.37c-.12.58-.24,1.16-.35,1.73,0-.18.07-.37.11-.55-1,4.82-1.65,9.68-2.42,14.53a15.33,15.33,0,0,1,3.43.54,16,16,0,0,1,9.45,7.26,16.18,16.18,0,0,1,1,13.81c-.22.77-.4,1.54-.57,2.32-1.91,11.77-2.74,23.64-3.68,35.51-1.1,13.74-2.39,27.52-5.2,41-.71,3.44-1.82,6.76-2.86,10.11a35.63,35.63,0,0,1-4.85,10.44,13.92,13.92,0,0,1-10.8,5.86h-.27A15.64,15.64,0,0,1,1272.24,1663Z"/>
  </g>
  <g id="Layer_56" data-name="Layer 56">
    <path class="cls-1" d="M1115.5,1125a13,13,0,0,1,3.94-13.18c3.35-3.13,7.63-5,11.78-6.82,2.45-1.07,4.94-2.08,7.43-3.06,3.4-1.34,6.8-2.68,10.23-4a15.49,15.49,0,0,1-1.76-1.09c-4.72-3.32-5.71-10.45-2.9-15.26,1.83-3.12,4.77-4.78,8-6a42.54,42.54,0,0,1,9.46-2.67,43.74,43.74,0,0,1,9.43.14c3.05.25,6.08.61,9.12,1.08a12.34,12.34,0,0,1,10.43,13.75,6.17,6.17,0,0,1-.1.62c2.2-.32,4.41-.59,6.63-.83,5.71-.62,11.4-1.3,17.1-2.1,6.43-.89,12.83-1.75,19.32-2.1,11.48-.62,23-.52,34.5-.89,5.84-.19,11.68-.4,17.52-.41a107.3,107.3,0,0,1,18.26,1.22c3.12.53,6.22,1.23,9.31,1.9,4,.77,8.09,1.31,12.17,1.8s7.89,1,11.85,1.4c3.86.09,7.7,0,11.55-.25.82-.1,1.63-.19,2.44-.31s1.53-.41,2.29-.64c5.29-2,10.43-4.31,15.74-6.2,5.1-1.82,10.28-3.34,15.47-4.87a49.27,49.27,0,0,1,5-8.67c2-2.87,4.9-5.3,7.53-7.53a57.5,57.5,0,0,1,7.13-4.82,106.06,106.06,0,0,1,12.17-6.41c4.78-2.14,9.81-3.77,14.76-5.47a201.41,201.41,0,0,1,28.15-7,169.5,169.5,0,0,1,18.77-2.64l10.78-.81c4.33-.32,8.6-.32,12.93-.34a108.8,108.8,0,0,1,12,.71,39.36,39.36,0,0,1,10.88,2.75,30.51,30.51,0,0,1,15,13.68,32.09,32.09,0,0,1,3.81,11,30.09,30.09,0,0,1-.79,12c-.14.48-.28,1-.44,1.43a14.09,14.09,0,0,1,.25,1.47,7.27,7.27,0,0,1-.84,4.31,13.51,13.51,0,0,1,1.81,2.42c3.6,6.15,1.69,15.2-4.88,18.61a117.9,117.9,0,0,1-20.48,7.89c-7.82,2.36-16.88,5.19-24.49.56l-.94-.61q-3.78.54-7.57,1.12c-6,1.31-11.91,2.62-17.86,4-4.7,1.09-9.4,2.19-14.14,3.17-5.68,1.16-11.38,2.23-17.13,3-2.26.32-4.53.49-6.79.82a85.19,85.19,0,0,1-9.17.88c-1.64.14-3.28.28-4.93.27-.68,0-1.35,0-2-.08a84.77,84.77,0,0,1-10.56,1.72c-5.1.45-10.19.74-15.3,1l2.47-.17c-2.49.17-5,.28-7.46.62-3.26.46-6.47,1-9.71,1.58-3.59.66-7.19,1.4-10.83,1.77a85.5,85.5,0,0,1-18.09-.48c-5.94-.64-11.75-1.58-17.62-2.69-5.51-1.05-11.11-1.5-16.62-2.53-4.33-.81-8.65-1.64-13-2-5.62-.22-11.28.08-16.9.32-5,.2-9.92.44-14.88.68-8.24.38-16.47.72-24.7,1.11-5.28.46-10.52,1-15.76,1.84-5.67.88-11.34,1.8-17,2.38q-10.14,1-20.3,1.69c-2.64.17-5.28.26-7.92.4a64.27,64.27,0,0,1-10-.43l-3.74-.4-.45.07c-2.85.63-5.69,1.22-8.55,1.78-5.16,1.14-10.24,2.78-15.46,3.58a55.76,55.76,0,0,1-8.15.67C1125.27,1134.53,1117.78,1132.59,1115.5,1125Z"/>
  </g>
  <g id="Layer_55" data-name="Layer 55">
    <path class="cls-2" d="M1243.53,1070.52a19.65,19.65,0,0,1-11-5.46,19.13,19.13,0,0,1-2.89-3.69,77,77,0,0,0,10.4.46,73.11,73.11,0,0,0,11.82-1,84,84,0,0,0,13.57-3.41,26.94,26.94,0,0,1-2.76,4.75,20.44,20.44,0,0,1-16.44,8.55A19.78,19.78,0,0,1,1243.53,1070.52Z"/>
  </g>
  <g id="Layer_54" data-name="Layer 54">
    <path class="cls-2" d="M1110.64,1051.12l4.75.07c14,.76,28,1.18,42,1.68,7.35.42,14.64,1.06,21.94,1.91-3.7,0-7.4,0-11.1,0-6.45.07-12.89.29-19.34.51-5.36.19-10.71.59-16.06.92-5.76.42-11.51.93-17.28,1.32l.71,0c-5.9.4-11.79.78-17.69.82A73.18,73.18,0,0,0,1110.64,1051.12Z"/>
  </g>
  <g id="Layer_53" data-name="Layer 53">
    <path class="cls-2" d="M1219.58,880.54a32.28,32.28,0,0,1,2-5.59,34.28,34.28,0,0,0-1.22,12.8A10.08,10.08,0,0,1,1219.58,880.54Z"/>
  </g>
  <g id="Layer_52" data-name="Layer 52">
    <path class="cls-2" d="M902.3,1082.14l-11.93-5.45c-2.18-1-4.36-2-6.49-3.12-.45-.24-.9-.49-1.34-.75,2.35-.67,4.68-1.43,7-2.28,5.28-1.94,10.43-4.09,15.58-6.27l.86.71,2.89,2.32a34,34,0,0,1,2.81,2.55,7.63,7.63,0,0,1,3.85,5.52,7.42,7.42,0,0,1-1.48,5.51,7.63,7.63,0,0,1-5.83,2.87h-.46A11.79,11.79,0,0,1,902.3,1082.14Z"/>
  </g>
  <g id="Layer_51" data-name="Layer 51">
    <path d="M1771.7,726.81a157.73,157.73,0,0,1,24,4.6l1.17.31a3,3,0,0,1-.63-1.79,6.69,6.69,0,0,0-1-.52l.35.17a14.42,14.42,0,0,0-1.36-.56c-1-.31-1.93-.56-2.92-.78a125.71,125.71,0,0,0-12.87-1.27c.13,0,.27,0,.41,0-2.53-.15-5.07-.23-7.6-.23Zm29.81,18.54c3.42,1.92,6.73,4,10,6.19a101,101,0,0,1,9.71,7.67q2.2,1.9,4.32,3.91-.69-1.22-1.44-2.4c-.74-1.06-1.52-2.07-2.35-3.05a53.51,53.51,0,0,0-3.85-3.83c-1.75-1.48-3.57-2.85-5.45-4.15s-4-2.5-6.06-3.6a69.17,69.17,0,0,0-7.22-3q-2.62-.89-5.29-1.66C1796.45,742.64,1799,743.94,1801.51,745.35ZM1748,908.75a122.64,122.64,0,0,0,14.54-2,120.76,120.76,0,0,0,14-3.83,105,105,0,0,0,10.78-4.53,80,80,0,0,0,16.91-11.37,86.31,86.31,0,0,0,6.71-6.68,78.21,78.21,0,0,0,5.11-6.65,98.75,98.75,0,0,0,5.32-9.13,96.36,96.36,0,0,0,4.52-10.58,119,119,0,0,0,3.39-12.71,202.48,202.48,0,0,0,3.51-25q.39-6,.42-12c-.32-.71-.65-1.42-1-2.12a102.7,102.7,0,0,0-5.38-9.11,123.41,123.41,0,0,0-8.45-11,108.72,108.72,0,0,0-8.22-8.13,118.51,118.51,0,0,0-10.21-8.06,134.07,134.07,0,0,0-13.11-7.68,238.74,238.74,0,0,0-23.24-9.9c-1.12-.36-2.23-.68-3.37-.94h-.05a9,9,0,0,1-5.59-3.24,8.57,8.57,0,0,1-1.7-6.37,8.39,8.39,0,0,1,.59-2.13c-3.61,0-7.22,0-10.82.27a128.51,128.51,0,0,0-15.38,2.06,164.6,164.6,0,0,0-14.88,8.89,173,173,0,0,0-17,13.21,259.47,259.47,0,0,0-21.4,21.33,209.15,209.15,0,0,0-15.65,20.3,159.23,159.23,0,0,0-9.66,16.31,149.77,149.77,0,0,0-7.29,16.87,68.19,68.19,0,0,0-2,7.31,59.52,59.52,0,0,0-.81,6.26,73.78,73.78,0,0,0,0,8.28,55.17,55.17,0,0,0,.79,6,41.85,41.85,0,0,0,1.19,4.39c.35.94.73,1.86,1.16,2.78a41.62,41.62,0,0,0,2.23,3.81,52.06,52.06,0,0,0,3.62,4.61,75.15,75.15,0,0,0,5.38,5.33,90.06,90.06,0,0,0,7.64,6,80.06,80.06,0,0,0,7.55,4.42,126.69,126.69,0,0,0,14,5.85,170.38,170.38,0,0,0,20.68,5.76,181.32,181.32,0,0,0,45.18,3.06Zm-32.47,28.71a197,197,0,0,0,24.3-3.27,210.36,210.36,0,0,0,25.59-7.08,193.79,193.79,0,0,0,21.63-8.89,116,116,0,0,0,11.7-6.84,129.2,129.2,0,0,0,11.17-8.62,106.06,106.06,0,0,0,8.44-8.39,93.35,93.35,0,0,0,6.14-8,107.34,107.34,0,0,0,5.84-10,114.09,114.09,0,0,0,4.86-11.46,110.17,110.17,0,0,0,3.43-12.44,102,102,0,0,0,1.49-10.88c-.54,2.7-1.14,5.37-1.8,8a97.08,97.08,0,0,1-8.53,21.85,81.35,81.35,0,0,1-13.54,18.72,88.93,88.93,0,0,1-18.26,14.22,97.25,97.25,0,0,1-21.27,9.16,115.5,115.5,0,0,1-23.74,4.61,164,164,0,0,1-25.37.08A185.17,185.17,0,0,1,1703,915a166.53,166.53,0,0,1-22.87-6.51,110.77,110.77,0,0,1-21.06-9.8,78.27,78.27,0,0,1-16.8-14.1,54.12,54.12,0,0,1-6-8,36.54,36.54,0,0,1-4-9.59c-1.82-6.84-1.79-14.14-1.08-21.13.81-8,3.75-15.59,7-22.88a165.39,165.39,0,0,1,11.42-21.17,202.87,202.87,0,0,1,14.22-19.41,222.5,222.5,0,0,1,16.6-17.87,233.82,233.82,0,0,1,18.22-16.09q2-1.55,4-3-5,2-9.8,4.44l.56-.29a165.84,165.84,0,0,0-17.35,10.11,136,136,0,0,0-13,10A141,141,0,0,0,1652,780.75,114.43,114.43,0,0,0,1644,790.9a118.62,118.62,0,0,0-6.81,11.71,127.68,127.68,0,0,0-5.76,13.58,133.88,133.88,0,0,0-4.24,15.65,128,128,0,0,0-2.08,15,120.49,120.49,0,0,0,.06,14.72,117.85,117.85,0,0,0,1.93,14.51,86.88,86.88,0,0,0,2.55,9.36c.78,2.15,1.65,4.25,2.64,6.32a76.77,76.77,0,0,0,4.39,7.49,110.75,110.75,0,0,0,7.78,10,130.88,130.88,0,0,0,10.12,10.28A98.43,98.43,0,0,0,1663,926a79.93,79.93,0,0,0,7.31,4.3,70.69,70.69,0,0,0,7.08,3,91.24,91.24,0,0,0,9.46,2.59,104.67,104.67,0,0,0,12.47,1.7A137,137,0,0,0,1715.48,937.46Zm-50.34,4.61a84.73,84.73,0,0,1-19.09-13.79c-2.77-2.57-5.35-5.35-7.88-8.16q-4.11-4.54-7.78-9.47a77.84,77.84,0,0,1-11-20.2,95.36,95.36,0,0,1-4.79-23,126.58,126.58,0,0,1,0-23.84,131.5,131.5,0,0,1,4.87-24.29,117.28,117.28,0,0,1,22.21-42.07,137.3,137.3,0,0,1,16.33-16.38,144.83,144.83,0,0,1,19.33-13.64,152.33,152.33,0,0,1,45-18.16,129,129,0,0,1,14.31-2.39,107.37,107.37,0,0,1,23-5.48,98,98,0,0,1,18.2-.38c2.71.17,5.42.45,8.13.67a58.16,58.16,0,0,1,7.54,1,18.92,18.92,0,0,1,6.15,2.43,6.45,6.45,0,0,1,2.75,3.48,3.63,3.63,0,0,1-2.07,4.27q3.11,1,6.12,2.16a62.37,62.37,0,0,1,10.55,5.46c6.15,3.86,12,8.76,16,14.88s6.59,13.49,8.38,20.74a69.55,69.55,0,0,1,1.5,8.35,100.66,100.66,0,0,1,7.44,13.84,95.05,95.05,0,0,1,3.92,11.15A102.23,102.23,0,0,1,1857,822a89.4,89.4,0,0,1,.29,24.56,109.69,109.69,0,0,1-16.45,45.4,98.48,98.48,0,0,1-15.07,18.37,125.72,125.72,0,0,1-40.5,25.67,232.64,232.64,0,0,1-23.4,8,197.59,197.59,0,0,1-49.86,7.67c-1,0-2,0-3,0C1693.92,951.67,1678.72,948.94,1665.14,942.07Z"/>
  </g>
  <g id="Layer_50" data-name="Layer 50">
    <path d="M1651.14,973.86a7.86,7.86,0,0,1,.18-4.38c.89-2.09,2.79-3.71,4.49-5.12a91.79,91.79,0,0,1,14.51-9.43c5.44-3,10.94-5.84,16.55-8.48,5.82-2.74,11.73-5.31,17.68-7.74a191.05,191.05,0,0,1,36.19-11.16,125.69,125.69,0,0,1,18.45-2.08l7-.26c1.07,0,2.13,0,3.2,0h1.87c.87,0,1.75,0,2.62.09a17.89,17.89,0,0,1,3.09.39,8.36,8.36,0,0,1,2.37.93,5.67,5.67,0,0,1,2.61,5.38,5.45,5.45,0,0,1-1.46,2.94c-1.24,1.4-2.93,1.83-4.68,2.24-1.2.27-2.4.53-3.6.82a5.41,5.41,0,0,1-6.53-3.62c-5-.18-10.07-.23-15.1,0a123.12,123.12,0,0,0-15.29,2.05,186.69,186.69,0,0,0-22.71,6.38l.42-.14a293.18,293.18,0,0,0-33.78,14.21h0l-.14.07.07,0a153.88,153.88,0,0,0-15.83,8.82l.3-.21a58.13,58.13,0,0,0-5.55,4.2c-.38.36-.74.72-1.09,1.1-.16.19-.32.39-.46.59l-.14.25s0,.05,0,.07v0c0,.44.12.89.19,1.33a2.73,2.73,0,0,1-2.32,3.06,2.17,2.17,0,0,1-.36,0A2.75,2.75,0,0,1,1651.14,973.86Z"/>
  </g>
  <g id="Layer_49" data-name="Layer 49">
    <path d="M1163.12,1100.13c-2.92-2.93-3.55-8.21-.73-11.46a59.41,59.41,0,0,1,5.29-5.47,75.92,75.92,0,0,1,6.88-5.49c1.27-.89,2.53-1.82,3.86-2.62l4.34-2.61c1.3-.78,2.73-1.4,4.08-2.1s2.83-1.39,4.28-2a94,94,0,0,1,9.72-3.65,61.61,61.61,0,0,1,11.39-2.35c2.38-.26,4.79-.35,7.18-.48,2.84-.15,5.69-.2,8.52-.3l2.91-.08a75.73,75.73,0,0,0,9.15.34,73.11,73.11,0,0,0,11.82-1l1.16-.22q8.9-.78,17.76-1.86c7.84-1,15.69-1.8,23.56-2.32l-1.65.11,11.81-.8-1.66.11c9.1-.62,18.2-.74,27.3-1,4.53-.15,9.08-.15,13.6-.42l12.72-.72c5.28-.53,10.59-.88,15.82-1.69l11.29-1.77c2.45-.38,4.89-.92,7.32-1.4q9.32-1.82,18.65-3.52c2.71-.51,5.47-.8,8.21-1.18s5.42-.74,8.14-1.1c2.08-.27,4.16-.51,6.22-.87l6.93-1.23c2.76-.63,5.54-1.22,8.27-2,3.51-1,7-2,10.52-3,2.78-.81,5.58-1.6,8.36-2.45s5.76-1.85,8.63-2.83c5.33-2,10.66-4.1,16-6q8.6-3.09,17.32-5.8c11.35-3.51,22.77-6.8,34.08-10.43,5.9-1.88,11.79-3.79,17.68-5.69q9.24-3.24,18.48-6.45c6.1-2.37,12.18-4.78,18.27-7.17,5.52-2.16,10.91-4.69,16.35-7.06q16.13-7,32-14.49l1.46-.68c4.41-2.27,8.9-4.44,13.18-7l7.77-4.55c2.34-1.36,4.56-3,6.82-4.46,1.93-1.41,3.89-2.79,5.74-4.3l.4-.37a3.47,3.47,0,0,1,4.25-1.84l-.25-.09a4.84,4.84,0,0,1,.49.18,3.46,3.46,0,0,1,2.06,3.1c0,2.43-2.18,4.4-3.86,5.86l-4,3.48c-1.13,1-2.4,1.84-3.59,2.75s-2.38,1.88-3.63,2.74l-.07.05-.12.08,0,0-.23.14-.49.35-2.7,1.81.09-.06-1.81,1.23.46-.32-.85.58-.47.31-1.06.72,0,0-.48.32-.65.44.48-.33-.86.58c-2.59,1.74-5.34,3.25-8,4.85-2,1.19-3.93,2.37-6,3.46-5.28,2.84-10.53,5.7-15.88,8.41s-10.42,5.3-15.68,7.86-10.61,5.38-16,7.78l-18,8c-2.52,1.12-5.15,2.07-7.71,3.09l-10.4,4.17c-5.57,2.23-11.22,4.27-16.84,6.4-5.3,2-10.63,4-16,6-10.49,3.92-21,8-31.13,12.74-5.65,2.66-11.25,5.41-16.86,8.14a165.87,165.87,0,0,1-16,6.64c-5.4,2-10.83,3.8-16.3,5.56-1.39.45-2.84.76-4.24,1.13-1.75.46-3.47.94-5.24,1.3l-8.69,1.73c-2.9.58-5.87.88-8.79,1.32-2.71.4-5.42.83-8.12,1.24-5.25.8-10.43,1.9-15.63,2.92-5.39,1.13-10.77,2.35-16.2,3.24L1374.3,1076c-2.48.41-5,.57-7.51.83-3.1.33-6.2.72-9.32.91l-10.77.67c-5.54.34-11.09.5-16.64.68l-13.24.43c-4,.13-8,.41-12,.61q-8.53.58-17.08,1.28c-5.37.45-10.72,1.08-16.09,1.63-6.59.69-13.17,1.18-19.79,1.53-5.58.3-11.2.17-16.78.08-3.5-.06-7-.15-10.49-.27-4-.14-7.94-.39-11.9-.23-1.72.17-3.42.42-5.11.73-2.11.48-4.18,1.08-6.26,1.69l-4.24,1.59c-1.61.6-3.17,1.42-4.74,2.15-5.37,2.87-10.68,5.87-15.84,9.12-.65.46-1.3.92-1.93,1.41a8.78,8.78,0,0,1-11.47-.73Z"/>
  </g>
  <g id="Layer_48" data-name="Layer 48">
    <path d="M1154.74,1107.05a5.81,5.81,0,1,1,5.81,5.81A5.87,5.87,0,0,1,1154.74,1107.05Z"/>
  </g>
  <g id="Layer_47" data-name="Layer 47">
    <path d="M1099.14,1130.18a3.66,3.66,0,0,1-1.92-1.91,3.75,3.75,0,0,1,.21-3.22,39.26,39.26,0,0,1,5.42-8.24,24.56,24.56,0,0,1,4.54-4.1,23.49,23.49,0,0,1,5.9-2.91,39.25,39.25,0,0,1,10.83-1.53c2-.09,3.91-.17,5.86-.28l-.35,0c3.87-.27,7.75-.58,11.63-.82.68,0,1.37-.13,2.06-.13h3.25c.8,0,1.61,0,2.41,0l3.36.25h-.25a7.7,7.7,0,0,0,1,0l.32,0,.2,0,.12,0,.11-.06a2.58,2.58,0,0,1,2.43-1,2.61,2.61,0,0,1,2.21,2.91c-.35,2.25-3.14,3.47-5.16,3.5-1.66,0-3.33-.18-5-.31h-2.93c-.74,0-1.49,0-2.23,0l-6.22.39c-2.25.17-4.51.3-6.75.52-3.58.35-7.19.62-10.72,1.28-1,.22-1.91.49-2.85.79s-1.65.64-2.45,1c-.55.3-1.08.61-1.61,1-.72.5-1.41,1-2.08,1.61-.52.48-1,1-1.48,1.51a38.06,38.06,0,0,0-2.33,3,45.75,45.75,0,0,0-2.55,4.4c-.08.17-.17.34-.25.52a3.82,3.82,0,0,1-1.91,1.91,3.61,3.61,0,0,1-1.4.28A3.54,3.54,0,0,1,1099.14,1130.18Z"/>
  </g>
  <g id="Layer_46" data-name="Layer 46">
    <path d="M1105.1,1133.19c-1.11-.18-2.21-.47-3.3-.75a14.45,14.45,0,0,1-3-1.17,10.58,10.58,0,0,1-4.65-5.06,5,5,0,0,1-.35-1.26,5.38,5.38,0,0,1-.11-1.88,8.37,8.37,0,0,1,1.22-3.27,21.25,21.25,0,0,1,5.25-5.45,36,36,0,0,1,3-2l3.36-2.08c2.48-1.53,5-2.92,7.63-4.27a83.26,83.26,0,0,1,15.45-6.2,39.91,39.91,0,0,1,16-1.29,33,33,0,0,1,7.76,2.11,16.13,16.13,0,0,1,5.59,3.47,3.56,3.56,0,0,1-5,5c-.14-.16-.29-.31-.44-.46l-.34-.27c-.2-.13-.41-.25-.62-.36-.81-.39-1.64-.72-2.48-1a32.94,32.94,0,0,0-3.21-.84c-1.14-.21-2.26-.37-3.41-.47s-2,0-3,0a48.58,48.58,0,0,0-5.11.67,47.68,47.68,0,0,0-5,1.37,83.87,83.87,0,0,0-8.79,3.72,94.2,94.2,0,0,0-9.6,5.64c-2,1.39-4.06,2.78-6,4.34-.45.42-.87.84-1.29,1.28.65.17,1.31.31,2,.45,1.32.22,2.65.32,4,.42a90,90,0,0,0,11.38,0l-.68,0,1.53-.16a5,5,0,1,1,1.34,9.81,54.8,54.8,0,0,1-6.89.52l-2.85,0A57.07,57.07,0,0,1,1105.1,1133.19Z"/>
  </g>
  <g id="Layer_45" data-name="Layer 45">
    <path d="M1141.61,1098a33.55,33.55,0,0,1-8.94-4.21A18.26,18.26,0,0,1,1128,1089a9.49,9.49,0,0,1-1.61-5.81,9.91,9.91,0,0,1,1.72-5.29,23.84,23.84,0,0,1,4.86-4.76,39.58,39.58,0,0,1,12.85-6.47,58.87,58.87,0,0,1,6.57-1.62,29.33,29.33,0,0,1,7.48-.49,31.09,31.09,0,0,1,7,1.29,23.63,23.63,0,0,1,6.37,3.09c6.51,4.36,11.94,12.26,10.48,20.39a3.25,3.25,0,1,1-6.44-.88c0-.29.09-.58.12-.88s0-.48,0-.72-.08-.74-.14-1.11a11.09,11.09,0,0,0-.49-1.58l.15.43c-.2-.5-.41-1-.64-1.46s-.62-1.09-1-1.62-1-1.27-1.47-1.88-1.12-1.17-1.71-1.72-1.23-1-1.88-1.44-1.49-.94-2.28-1.36a20.9,20.9,0,0,0-2.06-.88c-.82-.25-1.64-.47-2.48-.66-1-.18-2-.32-3-.41-.84,0-1.68,0-2.53,0-1.1.1-2.18.25-3.26.45a59.06,59.06,0,0,0-6,1.67,45.16,45.16,0,0,0-4.36,1.84c-1.09.57-2.15,1.18-3.18,1.85-.74.53-1.45,1.07-2.14,1.65s-1.49,1.39-2.19,2.13l-.23.3-.08.13v.09l.15.18c.36.4.73.78,1.11,1.16s1,.77,1.49,1.13,1.19.69,1.8,1c.89.41,1.8.77,2.72,1.13l.73.24a5.27,5.27,0,0,1,3.08,2.37,5.2,5.2,0,0,1,.53,4,5.31,5.31,0,0,1-5,3.81A4.6,4.6,0,0,1,1141.61,1098Z"/>
  </g>
  <g id="Layer_44" data-name="Layer 44">
    <path d="M1114,1137.77a3.29,3.29,0,0,1,1.94-3,19.63,19.63,0,0,1,2.5-1.49,47.88,47.88,0,0,1,4.74-2l5-1.73c2-.68,4.15-1.17,6.22-1.73,1-.27,2-.4,3-.6l3.76-.75c1-.21,2.13-.27,3.19-.41l3.59-.46c2.53-.33,5.09-.52,7.63-.79,2.19-.22,4.36-.63,6.53-1,1.92-.29,3.83-.58,5.73-.92q7.47-1.29,15-2.42c2.27-.35,4.57-.55,6.85-.81s4.59-.42,6.88-.61,4.59-.43,6.88-.64c2.13-.2,4.24-.5,6.37-.77,4.27-.56,8.53-1.22,12.81-1.67l4.2-.44c1-.11,2-.11,3-.15l4-.14c1,0,2,0,3,0,4.44.07,8.89.24,13.32.14,2.3-.06,4.61-.06,6.9-.18l7.39-.41c4.94-.27,9.87-.5,14.82-.7,4.17-.17,8.35-.29,12.52-.55l5.27-.32q7.93-.74,15.85-1.49c5.26-.5,10.56-.74,15.84-1,4.62-.32,9.22-.69,13.82-1.14,4.34-.42,8.67-.91,13-1.26,2.39-.19,4.76-.37,7.15-.46l3.72-.14c1.17,0,2.36,0,3.53.05,4.72.07,9.43.28,14.15.43,4.38.13,8.76.09,13.14.09s8.63,0,12.94-.05c4.95,0,9.88-.11,14.82-.26,4.25-.13,8.49-.36,12.75-.42,9.43-.14,18.87-.1,28.31-.17,4.49,0,9,0,13.47.16s8.93.21,13.4.12c.54,0,1.08,0,1.62-.07,2.83-.23,5.63-.62,8.45-.88a69.27,69.27,0,0,1,9.77.08c3.4.16,6.8.29,10.2.41,3,.11,6,.27,9,.14,1.65-.13,3.27-.34,4.91-.57a5.06,5.06,0,0,1,2,9.89,40.24,40.24,0,0,1-7,1.18,65,65,0,0,1-6.84,0c-4.5-.12-9-.33-13.49-.59-2.17-.13-4.34-.23-6.52-.18-2,0-4,.25-6,.37s-4,.24-6.06.2c-2.21,0-4.42-.12-6.63-.21-4.78-.2-9.56-.56-14.33-.81-4.26-.23-8.53-.21-12.79-.29-9.15-.17-18.3-.43-27.45-.22-4.75.11-9.51.26-14.26.36s-9.45.15-14.18.23c-4.14.07-8.28.2-12.42.23-4.59,0-9.17,0-13.76-.09q-4.59-.09-9.18-.09c-2.46,0-4.92.16-7.38.28-2.94.28-5.88.52-8.81.84q-5.37.6-10.74,1.15c-6.52.67-13.06,1.08-19.61,1.46q-7,.57-14,1.28c-4.26.44-8.52.84-12.79,1.11-2.16.13-4.33.31-6.49.38l-7.94.29q-7.11.25-14.21.6l-9.3.45c-1.54.07-3.08,0-4.62.07-1.33,0-2.67.07-4,0-3.45-.08-6.91-.17-10.36-.27-1.48,0-3-.13-4.45-.1l-5.32.1-5.83.49c-2,.17-4,.45-6,.68l-4.69.52c-2,.22-4,.49-6.08.63l.58,0-3.77.25.57,0-1.39.1.57,0-3.79.25c-2.27.15-4.54.25-6.81.39l-7,.61c-2.43.21-4.85.61-7.26.91-4,.51-8,1.22-12,1.73-2.6.33-5.2.65-7.8,1-1,.12-1.94.14-2.91.22l-4.74.35c-2.24.17-4.48.41-6.71.62s-4.51.69-6.74,1.06l-.09,0-5.75,1.4c-.8.2-1.58.5-2.37.75l-2.89.93c-1.39.51-2.76,1.05-4.09,1.69l.35-.18c-.39.19-.78.4-1.16.62l0,0a3.27,3.27,0,0,1-6-1.77Z"/>
  </g>
  <g id="Layer_43" data-name="Layer 43">
    <path d="M1545.4,1114.52a2.6,2.6,0,0,1-.93-3.54,3.44,3.44,0,0,1,1-1,19.38,19.38,0,0,1,4.17-1.9c1.45-.53,2.94-.91,4.42-1.34,2.54-.74,5.08-1.46,7.62-2.18,2-.56,4-1.17,6-1.83,2.74-.91,5.49-1.85,8.24-2.73,4.51-1.59,9-3.25,13.49-4.87,4.19-1.51,8.41-3,12.62-4.47,8.26-2.92,16.6-5.62,24.9-8.42l-.2.07c5.9-2,11.82-4,17.74-6,4.72-1.67,9.39-3.51,14.09-5.26,4.35-1.62,8.64-3.4,12.94-5.12,8.46-3.36,16.87-6.87,25.32-10.26q5.09-2,10.12-4.21c3.43-1.46,6.76-3.15,10.26-4.43a6,6,0,0,1,4.56,0,5.86,5.86,0,0,1,3.12,7.68,6.05,6.05,0,0,1-3.12,3.12,180.61,180.61,0,0,1-18,6.94c-5.8,2-11.61,3.93-17.43,5.88l.62-.21-11.17,3.86.58-.21c-9.38,3.28-18.83,6.33-28.28,9.38-4.3,1.4-8.67,2.62-13,3.91l-11.35,3.37c-4.67,1.39-9.37,2.7-14,4.17l-16.08,5.13c-4.36,1.39-8.7,2.82-13,4.23s-8.88,2.76-13.33,4.1c-2.64.8-5.3,1.52-8,2.27s-5.15,1.39-7.67,2.24c-.92.33-1.82.68-2.71,1.09a5.89,5.89,0,0,0-.54.32l-.1.07,0,0-.14.1,0,0h0a2.62,2.62,0,0,1-1.46.45A2.49,2.49,0,0,1,1545.4,1114.52Z"/>
  </g>
  <g id="Layer_42" data-name="Layer 42">
    <path d="M1645.52,1091.28a6.31,6.31,0,0,1,4.36-7.68c6.41-1.75,12.8-3.55,19.15-5.52s12.56-4,18.81-6.11l-.74.27c6.7-2.34,13.39-4.71,20-7.23q5.61-2.15,11.25-4.26a41.86,41.86,0,0,1,11.56-3,6.16,6.16,0,0,1,3.71.74,5.81,5.81,0,0,1,2.66,3.46,5.88,5.88,0,0,1-4,7.13l-1.07.35c-10.58,3.73-21.12,7.58-31.72,11.27q-9.43,3.3-18.92,6.49c-4.91,1.65-9.86,3.26-14.83,4.74l-12.53,3.72a5.44,5.44,0,0,1-1.64.25A6.39,6.39,0,0,1,1645.52,1091.28Z"/>
  </g>
  <g id="Layer_41" data-name="Layer 41">
    <path d="M1674.42,1093.54a6.83,6.83,0,0,1,4.73-8.34,94.62,94.62,0,0,1,13-2c4-.41,8.09-.72,12.14-.89a6.35,6.35,0,0,1,.86,12.65c-6.51.63-13,1.56-19.47,2.58-1,.22-1.94.43-2.89.69a6.58,6.58,0,0,1-1.75.23A6.85,6.85,0,0,1,1674.42,1093.54Z"/>
  </g>
  <g id="Layer_40" data-name="Layer 40">
    <path d="M1786.46,884a48.87,48.87,0,0,1-9.71-4.06,32,32,0,0,1-8.57-6.29,28.9,28.9,0,0,1-3-3.94,23,23,0,0,1-2.32-5.34,28.63,28.63,0,0,1-1.88-10.42,5.12,5.12,0,0,1,1.46-3.52,5,5,0,0,1,8.51,3.52c0,.5,0,1,0,1.49.08.77.2,1.53.34,2.29a56.54,56.54,0,0,0,1.52,5.46c.16.41.33.81.52,1.21q.46.84,1,1.65c.39.53.79,1.06,1.22,1.57s.88.91,1.34,1.34c.7.58,1.41,1.12,2.15,1.65a54,54,0,0,0,4.94,2.89,46.74,46.74,0,0,0,4.45,1.89,49.87,49.87,0,0,0,5.06,1.39c1.19.22,2.38.39,3.58.5s2.3,0,3.45,0,2.17-.24,3.24-.44c.72-.17,1.42-.36,2.12-.58s1.43-.56,2.13-.89,1.62-.89,2.41-1.39,1.44-1.06,2.12-1.64,1.35-1.31,2-2,1.22-1.52,1.79-2.33,1-1.73,1.52-2.64c.51-1.08,1-2.18,1.4-3.31a37.34,37.34,0,0,0,1-3.63,52.51,52.51,0,0,0,.77-5.57,88.36,88.36,0,0,0,0-9.49,45.07,45.07,0,0,0-.61-4.77,35.35,35.35,0,0,0-1-3.75,77,77,0,0,0-3.12-7.59c-.81-1.56-1.69-3.09-2.65-4.56-.42-.59-.85-1.15-1.31-1.7q-.48-.51-1-1c-.41-.33-.82-.65-1.25-1-.74-.49-1.51-.94-2.29-1.36s-1.49-.65-2.26-.94c-1.82-.62-3.66-1.18-5.53-1.62-.67-.12-1.33-.22-2-.28s-1.44,0-2.16,0-1.47.16-2.2.3c-.55.12-1.08.27-1.62.43s-1.31.52-1.95.83c-1.11.58-2.19,1.22-3.24,1.9a35.83,35.83,0,0,0-3.09,2.39c-.86.77-1.69,1.57-2.49,2.42-.33.39-.64.77-.95,1.18s-.36.58-.54.87c.86,0,1.72-.08,2.58-.08a2.59,2.59,0,0,1,0,5.18c-.73,0-1.46,0-2.2,0a9.26,9.26,0,0,1-3.56-.1,3.34,3.34,0,0,1-1.68-1.26,4.19,4.19,0,0,1-.87-2.5,6.22,6.22,0,0,1,.13-1.21,10,10,0,0,1,.46-1.4,15.35,15.35,0,0,1,1.66-2.89,31.45,31.45,0,0,1,5.31-5.75,33.12,33.12,0,0,1,6.2-4.36,20.34,20.34,0,0,1,7.37-2.27,21.81,21.81,0,0,1,7.16.42c1.32.27,2.62.66,3.92,1a32.08,32.08,0,0,1,4.34,1.56,20.86,20.86,0,0,1,5.81,3.83,29.19,29.19,0,0,1,4.75,6.34,57.91,57.91,0,0,1,3.38,6.84,55.66,55.66,0,0,1,2.92,8.21,45.24,45.24,0,0,1,1.06,7.77,77.56,77.56,0,0,1,.09,9,39.46,39.46,0,0,1-4.13,16.09,30,30,0,0,1-15.5,14.22,31,31,0,0,1-10.65,1.89h-.57A41.23,41.23,0,0,1,1786.46,884Z"/>
  </g>
  <g id="Layer_39" data-name="Layer 39">
    <path d="M1770.52,855.06a6,6,0,0,1-1.75-2.42c-1.22-2.55.69-5.5,3-6.52,5-2.16,10.63-1,15.41,1.18a4.26,4.26,0,0,1,0,7.84,4.51,4.51,0,0,1-3.31,0l-.08,0a40.53,40.53,0,0,0-4.17-1.08c-.71-.13-1.42-.22-2.15-.29h-.24a4.58,4.58,0,0,1-3.94,2.29A4.66,4.66,0,0,1,1770.52,855.06Z"/>
  </g>
  <g id="Layer_38" data-name="Layer 38">
    <path d="M1770.69,858.87a5.58,5.58,0,1,1,5.58,5.58A5.63,5.63,0,0,1,1770.69,858.87Z"/>
  </g>
  <g id="Layer_37" data-name="Layer 37">
    <path d="M1567.14,869.66a57.51,57.51,0,0,1-4.4-12.87,25,25,0,0,1-.3-3.76,20,20,0,0,1,1.63-7.93,39.21,39.21,0,0,1,3.89-6.92,65.21,65.21,0,0,1,5.41-6.88c3.82-4.36,7.85-8.5,12.07-12.48A328.05,328.05,0,0,1,1612,796a159.73,159.73,0,0,1,14.09-9.54c4.4-2.66,9-5.22,14.09-6a9.94,9.94,0,0,1,6.07.69,6.46,6.46,0,0,1,3.1,3.13,3,3,0,0,1-2.35,4.13,3.12,3.12,0,0,1-3.17-1.8l-.09-.06.09.05h0a3.29,3.29,0,0,0-.39-.17l-.15,0-.41,0c-.27,0-.53,0-.8,0-.54.06-1.06.13-1.59.22q-1,.24-2,.57a34,34,0,0,0-3.53,1.51,112.57,112.57,0,0,0-10.81,6.59l.34-.23a204.79,204.79,0,0,0-19.59,15.41l.07-.06-.19.17-.14.12.12-.1c-3.81,3.38-7.54,6.85-11.22,10.37s-7.59,7.39-11.12,11.33a103.24,103.24,0,0,0-7.14,8.89,50.93,50.93,0,0,0-2.8,4.8c-.41.87-.78,1.73-1.11,2.63-.15.49-.29,1-.41,1.47s-.13.88-.17,1.32c0,.65,0,1.29,0,1.94s.12,1,.2,1.57c.49,2.07,1.24,4.1,1.91,6.12.35.93.72,1.83,1.14,2.72q.4.74.87,1.44a4.53,4.53,0,0,1-1.62,6.16,4.41,4.41,0,0,1-2.23.61A4.58,4.58,0,0,1,1567.14,869.66Z"/>
  </g>
  <g id="Layer_36" data-name="Layer 36">
    <path d="M1571.19,874a5.2,5.2,0,0,1-.37-.43,3.67,3.67,0,0,1,2.39-5.85c2.7-.23,5.43-.16,8.13-.19,1.57,0,3.13-.11,4.7-.18,4.47-.2,9-.34,13.41-.62,10-.62,19.88-1.22,29.84-1.73,2.42-.13,4.84-.22,7.27-.29,3.17-.08,6.35-.22,9.52-.17,3.52.06,7,.14,10.54.26a74.22,74.22,0,0,1,10.1.94,4.62,4.62,0,0,1,3.89,5.14,4.57,4.57,0,0,1-5.13,3.89,85.19,85.19,0,0,0-8.56-1.08c-1.83-.12-3.65-.26-5.47-.35l-4.22-.2c-1,0-2-.15-3-.15-4.07,0-8.14-.12-12.22,0-4.81.15-9.63.22-14.44.44l-15.92.77c-4.45.22-8.89.35-13.34.51-2,.06-4.1.2-6.16.2H1578c-1.1,0-2.2,0-3.3,0a3.47,3.47,0,0,1-1,.13A3.64,3.64,0,0,1,1571.19,874Z"/>
  </g>
  <g id="Layer_35" data-name="Layer 35">
    <path d="M1632.7,898.94c-2.41-2.59-4.52-5.54-4.52-9.24a9.47,9.47,0,0,1,5.7-8.22,12.72,12.72,0,0,1,4.36-1.09,15.6,15.6,0,0,1,2.47.05,4.86,4.86,0,0,1,4.08-3.76,5,5,0,0,1,5.61,4.89c0,.82,0,1.64-.06,2.46a16.26,16.26,0,0,1,2.74,2.76,8.2,8.2,0,0,1,.88,8.8,6.62,6.62,0,0,1-3.83,3,8.61,8.61,0,0,1-2,.33,5.89,5.89,0,0,1-2.81-.77,7.89,7.89,0,0,1-2.64-2.2,5.85,5.85,0,0,1-5.87,4.74A5.54,5.54,0,0,1,1632.7,898.94Z"/>
  </g>
  <g id="Layer_34" data-name="Layer 34">
    <path d="M1651.76,930.09c-3-1-6-2.2-9-3.28-.79-.25-1.57-.48-2.37-.66-.61-.1-1.21-.18-1.83-.25-1,0-1.9,0-2.86,0a4.29,4.29,0,0,1,0-8.57,27.85,27.85,0,0,1,4.57.29,26.45,26.45,0,0,1,5.6,1.56l5.34,1.95,2.79.93a4.22,4.22,0,0,1,2.9,5.11,4.32,4.32,0,0,1-4,3.08A3.28,3.28,0,0,1,1651.76,930.09Z"/>
  </g>
  <g id="Layer_33" data-name="Layer 33">
    <path d="M1662.08,955.38c-3.88-1.64-6.13-6.54-4.26-10.48a27.77,27.77,0,0,1,6.27-9,20.18,20.18,0,0,1,5.37-3.47,17,17,0,0,1,6.23-1.22c4.37-.21,8,3.81,8,8a8.09,8.09,0,0,1-8,8h-.53l0,0-.24.19-.52.51c-.19.24-.38.49-.56.74-.25.41-.5.84-.74,1.27s-.35.75-.52,1.14a8.17,8.17,0,0,1-7.42,4.87A7.81,7.81,0,0,1,1662.08,955.38Z"/>
  </g>
  <g id="Layer_32" data-name="Layer 32">
    <path d="M1653.21,843.67a5.23,5.23,0,0,1-1.2-1.78,7,7,0,0,1-.57-1.89c-.09-1.07-.12-2.12-.11-3.19.08-4.61.41-9.23.63-13.84q.33-7.19.57-14.37.49-14.93.86-29.84c.23-9.19.38-18.37.51-27.56.06-4.25,0-8.5,0-12.75,0-4.59-.13-9.17-.09-13.75a2.61,2.61,0,0,1,1.89-2.5,2.64,2.64,0,0,1,2.93,1.19,2.71,2.71,0,0,1,.37,1.39,2.45,2.45,0,0,1,0,.27c0,2.68.15,5.36.23,8,.08,2.37.1,4.74.14,7.1q.15,7.2.19,14.4c0,3.37.06,6.73.08,10.1q.21-10.39.37-20.79c0-3.09,0-6.19,0-9.29,0-3.35-.28-6.7-.23-10.05a6.29,6.29,0,0,1,10.74-4.45,6.53,6.53,0,0,1,1.84,4.45c.11,2.41-.09,4.83-.19,7.25s-.18,4.54-.24,6.81q-.21,7.14-.37,14.29-.31,15.55-.58,31.1c-.1,4.86-.3,9.72-.48,14.57-.08,2-.11,4-.28,6-.26,3.1-.51,6.2-.77,9.31-.15,1.84-.33,3.64-.59,5.47-.41,2.88-.74,5.79-1.25,8.66a83.87,83.87,0,0,1-2.13,9.39c-.83,2.76-2.09,5.75-4.69,7.27a6.34,6.34,0,0,1-7.61-1Z"/>
  </g>
  <g id="Layer_31" data-name="Layer 31">
    <path d="M1830.4,804.4a62.67,62.67,0,0,1-8.62-2.77,86.4,86.4,0,0,0-8.91-2.59,150.34,150.34,0,0,0-17.47-1.82c-4.92-.32-9.85-.67-14.77-1h.14l-.58,0h0c-3.26-.23-6.52-.6-9.78-.9s-6.26-.54-9.38-.87q-10.62-1.1-21.23-2.22L1716.54,791c-1.18-.06-2.4,0-3.58.06l-8.46.14c-4,.07-8,.12-12,.2l.47,0q-10.17.69-20.35,1.34h.09a107.31,107.31,0,0,0-13.61,1.75,3.67,3.67,0,1,1-5.14-4.85,6.86,6.86,0,0,1,1.55-.93,18.64,18.64,0,0,1,3.83-.94c3.82-.71,7.64-1.15,11.51-1.53,2.49-.25,5-.42,7.48-.62l11.14-.88c1.41-.11,2.81-.23,4.23-.27l20.62-.72c4.6-.16,9.2.1,13.8.22,5,.12,10,.15,15,.53q9.48.71,19,1.43l17,1c5,.29,10,.31,15,.43,5.52.13,11,.07,16.57.42a86.32,86.32,0,0,1,13,1.87c2.2.49,4.39,1,6.6,1.47l2,.38a6.8,6.8,0,0,1,4.28,2.48,6.52,6.52,0,0,1-1.18,9.15,6.67,6.67,0,0,1-3.92,1.39A4.32,4.32,0,0,1,1830.4,804.4Z"/>
  </g>
  <g id="Layer_30" data-name="Layer 30">
    <path d="M1832.9,831.27a4.66,4.66,0,0,1-.8-4l.05-.2v0c0-.06,0-.12,0-.19q0-.42-.12-.84c-.1-.4-.22-.78-.34-1.17-1-2.86-2.21-5.63-3.48-8.39-.48-.92-1-1.82-1.49-2.72-1-1.42-2.09-2.75-3.22-4.07q-.37-.42-.78-.81l0,0h0a2.59,2.59,0,0,1,.65-5.09c1.84,0,3.24,1.53,4.34,2.81.63.74,1.27,1.47,1.87,2.23,1.29,1.65,2.47,3.4,3.6,5.16,1.7,2.64,3.4,5.28,5.15,7.89a15.82,15.82,0,0,1,2.7,5.47,4.79,4.79,0,0,1-.79,4,4.58,4.58,0,0,1-7.26,0Z"/>
  </g>
  <g id="Layer_29" data-name="Layer 29">
    <path d="M1726.86,750.26a2.59,2.59,0,1,1,2.59,2.59A2.61,2.61,0,0,1,1726.86,750.26Z"/>
  </g>
  <g id="Layer_28" data-name="Layer 28">
    <path d="M1721.11,743.22a4.4,4.4,0,0,1-3.6-3.15,17.23,17.23,0,0,1-.32-4.48c0-1.81,0-3.63-.09-5.44-.07-.69-.16-1.35-.28-2a42.33,42.33,0,0,0-1.16-4.18c-.44-1.17-.91-2.32-1.45-3.45a66.57,66.57,0,0,0-3.68-6.12,91.92,91.92,0,0,0-6-7.49,63.13,63.13,0,0,0-4.43-4.53c-1.24-1-2.53-2-3.84-2.94l-.73-.45a4.7,4.7,0,0,1,4.75-8.11,32.94,32.94,0,0,1,8,6.42c1.65,1.76,3.16,3.64,4.64,5.55s3.13,4.08,4.56,6.23a64.06,64.06,0,0,1,3.6,6.09,43.47,43.47,0,0,1,2.85,7,29.66,29.66,0,0,1,1.46,7.57c.13,2.39,0,4.78.07,7.17a4.33,4.33,0,0,1-.34,4.72,4.41,4.41,0,0,1-3.46,1.69C1721.5,743.26,1721.31,743.24,1721.11,743.22Z"/>
  </g>
  <g id="Layer_27" data-name="Layer 27">
    <path d="M1746.26,739.1a6.1,6.1,0,0,1-.45-1.75v0c-.18-.79-.35-1.58-.49-2.39a35.82,35.82,0,0,1-.33-3.74,34.47,34.47,0,0,1,.73-8.22,53.1,53.1,0,0,1,5.34-14.44c.63-1.22,1.3-2.41,2-3.6.5-.88,1-1.79,1.52-2.63a34.6,34.6,0,0,1,5.61-7.13,5.89,5.89,0,0,1,4-1.64,5.61,5.61,0,0,1,4,9.58c-.35.33-.68.65-1,1-.44.54-.86,1.1-1.26,1.67-1.66,2.64-3.15,5.34-4.58,8.11a63.58,63.58,0,0,0-2.62,6.2c-.35,1.09-.66,2.17-.94,3.28a41.71,41.71,0,0,0-.59,4.31c0,.74,0,1.47,0,2.21.09.92.22,1.82.38,2.72l.14.5.25.72.11.3h0l.09.25a6.35,6.35,0,0,1-.07,4.73,6.37,6.37,0,0,1-11.73,0Z"/>
  </g>
  <g id="Layer_26" data-name="Layer 26">
    <path d="M1788.92,749.22a3.15,3.15,0,0,1,.57-4.4,105.63,105.63,0,0,1,10.84-6.9c2.29-1.23,4.64-2.28,7-3.33a69,69,0,0,1,9.72-3.38,3.11,3.11,0,0,1,1.65,6c-1.63.45-3.22,1-4.82,1.51-1.18.46-2.39.86-3.54,1.38-1.65.73-3.29,1.44-4.91,2.23s-3.38,1.78-5,2.75c-1.8,1.06-3.52,2.24-5.25,3.4l-1.85,1.31a3.36,3.36,0,0,1-2,.63A3.07,3.07,0,0,1,1788.92,749.22Z"/>
  </g>
  <g id="Layer_25" data-name="Layer 25">
    <path d="M1854.22,896.84a2.59,2.59,0,1,1,2.59,2.58A2.62,2.62,0,0,1,1854.22,896.84Z"/>
  </g>
  <g id="Layer_24" data-name="Layer 24">
    <path d="M1666.67,1379.69a7.57,7.57,0,0,1,0-10.58c3.95-4,8.11-7.84,12.27-11.65,1.82-1.66,3.68-3.31,5.44-5,2.17-2.11,4.4-4.16,6.51-6.32,7.84-8,15.64-16.06,23.47-24.07,8.31-8.52,16.7-17,25-25.45,3.58-3.65,7.1-7.39,10.58-11.14q5.49-5.91,11-11.79,7-7.47,14-14.93c4.29-4.58,8.51-9.22,12.75-13.86,3.27-3.84,6.6-7.64,9.71-11.62l6.84-8.78c1.38-1.77,2.66-3.6,4-5.41,6.79-9.34,13.39-18.82,20.06-28.24,2.39-3.37,4.71-6.81,7-10.23l7.21-11.69c.31-.49.55-1,.83-1.54q1-2,2.09-3.95c1.11-2.05,2.2-4.11,3.3-6.17,2.64-5.35,5.25-10.72,8-16s5.5-10.63,8.3-15.93c1.73-3.67,3.48-7.32,5.23-11,.22-.47.38-1,.57-1.48.5-1.27,1-2.53,1.48-3.8.74-1.91,1.49-3.81,2.22-5.72q2.74-8,5.4-16c.91-2.72,1.7-5.48,2.54-8.22.77-2.5,1.31-5.08,2-7.62.32-1.6.63-3.21,1-4.82.29-1.44.47-2.89.69-4.35s.45-2.88.56-4.33l.39-5.35c0-4.89-.06-9.77-.13-14.66,0-2.64-.1-5.28-.17-7.93-.06-2.23-.25-4.47-.4-6.69s-.47-4.26-.7-6.39c-.2-1.8-.5-3.58-.78-5.37-.59-3.74-1.29-7.48-1.74-11.24q-.78-6.52-1.6-13c-.46-3.62-1.22-7.19-1.92-10.77-1-3.8-2.06-7.6-3.09-11.41-.39-1.4-.76-2.8-1.15-4.2-.25-.92-.53-1.84-.71-2.78q-.68-3.46-1.34-6.93c-.8-4.13-1.34-8.32-2-12.48-.59-3.94-1.34-7.86-2-11.78l-2.49-10.6c-.67-2.81-1.53-5.54-2.36-8.3q-2.4-8-5-15.93a2.53,2.53,0,0,1-2.31.16,2.6,2.6,0,0,1-1.39-3.34l.16-.61c.25-1.51.4-3,.52-4.55,0-.12,0-.24,0-.35q-.92-2.38-2-4.69c-.44-.86-.92-1.69-1.44-2.52-.28-.38-.56-.75-.85-1.12l-.85-.72c-1.3-1.11-2.8-2.4-2.62-4.25a2.69,2.69,0,0,1,3.37-2.22c2.16.73,3.8,2.47,5.26,4.16a17.52,17.52,0,0,1,1.39,1.85l.32.33a9.66,9.66,0,0,1,1.59,2.58,11,11,0,0,1,.59,1.76c.39.87.76,1.74,1.13,2.61,1.74,4.09,3.1,8.37,4.58,12.57.82,2.37,1.69,4.72,2.45,7.11l3.33,10.41c.71,2.22,1.22,4.51,1.8,6.77.67,2.61,1.46,5.21,2,7.85,1.13,5.86,2.25,11.72,3.25,17.61.25,1.43.49,2.86.73,4.28l1.83,8.47c.18.86.47,1.71.72,2.55l1.66,5.65c.8,2.71,1.58,5.42,2.37,8.13s1.23,5.18,1.79,7.8c.25,1.21.58,2.43.76,3.65.22,1.52.44,3,.67,4.56q.63,4.35,1.24,8.71c.78,5.61,1.89,11.18,2.88,16.75.47,2.65.73,5.34,1.08,8,.18,1.31.24,2.64.36,3.95s.25,2.68.33,4q.29,4.68.53,9.34c.13,2.44.33,4.87.42,7.3l.18,5.28c0,1.17,0,2.33-.07,3.49-.06,1.41-.11,2.82-.16,4.24-.06,1.68-.33,3.38-.5,5.06-.3,2.84-.75,5.65-1.18,8.48-.16,1.07-.42,2.13-.65,3.2q-.54,2.61-1.1,5.23c-.21,1-.51,2-.77,3l-1.44,5.37c-.72,2.7-1.54,5.39-2.32,8.08s-1.65,5.48-2.47,8.22c-.78,2.58-1.74,5.1-2.64,7.63-.8,2.25-1.53,4.51-2.49,6.69q-2.14,4.86-4.3,9.7c-1.09,2.45-2.36,4.83-3.54,7.23q-1.55,3.1-3,6.22-4.07,8.57-8,17.16c-2.37,5.11-5,10.08-7.56,15.1-.32.64-.73,1.24-1.1,1.86l-3.12,5.24c-1.16,1.94-2.27,3.92-3.52,5.8-3.44,5.14-6.86,10.29-10.38,15.38l-10.54,15.23c-3.08,4.44-6.27,8.81-9.41,13.21-1.6,2.23-3.35,4.35-5,6.52-1.41,1.82-2.78,3.69-4.25,5.46q-3.51,4.21-7,8.42c-1.54,1.85-3.16,3.62-4.77,5.41-7.94,8.8-16.08,17.42-24.17,26.08-7.18,7.68-14.26,15.47-21.62,23-8.39,8.54-16.83,17-25.19,25.59-7.72,7.91-15.38,15.88-23.11,23.78-3.84,3.92-7.86,7.66-11.87,11.4s-8.45,7.48-12.59,11.31a7.76,7.76,0,0,1-5.3,2.2A7.52,7.52,0,0,1,1666.67,1379.69Z"/>
  </g>
  <g id="Layer_23" data-name="Layer 23">
    <path d="M1501.74,1220.65a8.73,8.73,0,0,1-6-10.64c1.34-4.85,3.66-9.22,6-13.61a82.71,82.71,0,0,1,9.33-13.47,89.82,89.82,0,0,1,12.67-12.45c5.25-4.2,11.27-7.1,17.31-10a68,68,0,0,1,14.79-5,34.08,34.08,0,0,1,8.83-.86,18.44,18.44,0,0,1,6.17,1.4l.15-.07c3.44-1.82,6.76-3.79,10.08-5.83,2-1.33,4-2.61,5.82-4.06l8.06-6.22c4.24-3.26,8.3-6.75,12.49-10.07q15.11-12,30.34-23.82,8.21-6.35,16.35-12.75,3.18-2.48,6.31-5l5.49-4.41,2-1.59a36,36,0,0,1,5.87-4,7.58,7.58,0,0,1,6.55-.43,7.42,7.42,0,0,1,4.22,4.81c1.13,4.09-1.78,8.8-6,9.26l-.32.2c-5,3.47-9.59,7.44-14.36,11.17l-14.07,11L1633,1127.38c-4.66,3.65-9.19,7.45-13.78,11.18-7.37,6-14.59,12.14-22,18.14-3.72,3-7.63,5.82-11.58,8.54-2.09,1.44-4.22,2.83-6.35,4.2a32.08,32.08,0,0,1-5.3,2.91,12.45,12.45,0,0,1-4.64.87,17.2,17.2,0,0,1-4.2-.78l-.22,0h-.7c-.88.09-1.74.21-2.61.36-1.78.4-3.53.9-5.26,1.47-2.57.94-5.07,2-7.56,3.16a107,107,0,0,0-10.15,5.65,70.2,70.2,0,0,0-5.62,4.4,100.48,100.48,0,0,0-7.37,7.37,98.46,98.46,0,0,0-6.58,8.51,116.08,116.08,0,0,0-6.15,10.12c-.34.74-.66,1.47-1,2.23a8.62,8.62,0,0,1-8,5.26A8.35,8.35,0,0,1,1501.74,1220.65Z"/>
  </g>
  <g id="Layer_22" data-name="Layer 22">
    <path d="M1529,1377c-3.87-.14-7.74-.29-11.61-.4-7.92-.22-15.8-1.29-23.66-2.22h-.87a12.5,12.5,0,0,1-4.87-24,26.79,26.79,0,0,1,5.62-1.56,19.26,19.26,0,0,1,7.16.58c1.44.32,2.87.69,4.3,1.07,2.93.77,5.85,1.55,8.79,2.29a190.88,190.88,0,0,0,21.59,2.69c5.27.12,10.54.18,15.81.41,2.78.12,5.56.24,8.34.31,2.52,0,5,0,7.54-.11,5.52-.56,11-1.3,16.51-2,2.49-.33,5-.57,7.52-.81,3-.3,5.92-.68,8.88-1.14,3.54-.78,7-1.63,10.54-2.54s6.84-1.88,10.26-2.84,6.82-1.85,10.25-2.66c6.07-1.42,12.15-2.76,18.07-4.73,3.56-1.26,7-2.68,10.43-4.28l6.7-3.14c5-2.64,10-5.27,14.92-8l16.86-9.34c4.53-2.51,9.09-5,13.62-7.47l9.15-5c2.78-1.54,5.49-3.22,8.23-4.83,2.26-1.32,4.42-2.83,6.6-4.28l2.8-2c.93-.77,1.86-1.54,2.78-2.33l-.32.28a9.65,9.65,0,0,1,3.08-2,7,7,0,0,1,8.14,2.13,6.94,6.94,0,0,1-.58,9.08,42,42,0,0,1-3.55,3c-3,2.59-6.25,5-9.5,7.3-2.41,1.71-4.88,3.3-7.37,4.91-2.1,1.36-4.32,2.51-6.52,3.71-2.61,1.44-5.27,2.77-8,4.07q-14.3,8.29-28.59,16.64c-2.08,1.22-4.17,2.43-6.28,3.61-3,1.65-5.91,3.42-8.95,4.94s-6.16,3.06-9.23,4.59a114.34,114.34,0,0,1-19.33,7.06c-3,.88-6.11,1.6-9.17,2.4s-6,1.7-9,2.56c-5.54,1.58-11,3.36-16.56,5a159.3,159.3,0,0,1-16.87,3.92c-5.89,1.09-11.76,2.26-17.64,3.36a108.09,108.09,0,0,1-18.05,1.47c-5.61.1-11.21.07-16.83.29-2.57.1-5.13.19-7.7.19C1531.39,1377.1,1530.22,1377.08,1529,1377Z"/>
  </g>
  <g id="Layer_21" data-name="Layer 21">
    <path d="M1491.79,1373.75a8.49,8.49,0,0,1-3.6-2.19,15.89,15.89,0,0,1-1.76-2.28c-.91-1.2-1.8-2.43-2.62-3.69-1.53-2.35-3-4.72-4.47-7.1a75.79,75.79,0,0,1-8-18,91,91,0,0,1-3.38-22.32,190.78,190.78,0,0,1,.68-23.18c.64-8,1.62-15.91,2.72-23.82,1.09-7.75,2.51-15.46,4-23.15a98.23,98.23,0,0,1,2.5-10.15c.43-1.4.91-2.78,1.41-4.15a14.82,14.82,0,0,1,2-4,6.75,6.75,0,0,1,3.54-2.68,3.63,3.63,0,0,1,3.09.83,2.61,2.61,0,0,1,.47,3.63,2.65,2.65,0,0,1-2.66.93l-.34.44c-.18.28-.35.56-.51.86a26.8,26.8,0,0,0-1.12,2.72,96.75,96.75,0,0,0-3.18,11.7,324.63,324.63,0,0,0-5.39,41.9l0-.41a195.86,195.86,0,0,0-.16,25.41.66.66,0,0,1,0-.14c0,.06,0,.11,0,.17s0,.21,0,.32c0-.08,0-.15,0-.23a96.44,96.44,0,0,0,1.43,11.35,83,83,0,0,0,2.64,9.53c.37,1,.76,2,1.19,3a7,7,0,0,1,3-1.73,7.1,7.1,0,0,1,8.66,4.91c1.13,4.25,2.22,8.52,3.58,12.7q.81,2.19,1.81,4.3a43.84,43.84,0,0,1,2.52,5.21,7,7,0,0,1-.89,6.85,6.9,6.9,0,0,1-7.25,2.42Z"/>
  </g>
  <g id="Layer_20" data-name="Layer 20">
    <path d="M1432.84,1374.61a8.38,8.38,0,0,1-3.95-5.91,8.13,8.13,0,0,1,8.79-9.19l.31-.33c.58-.7,1.12-1.42,1.65-2.16s1-1.79,1.51-2.71c.57-1.21,1.07-2.42,1.52-3.67.69-2.14,1.27-4.29,1.77-6.48a106.94,106.94,0,0,0,1.5-12,163.42,163.42,0,0,0-.18-18.25c-.18-2.73-.42-5.45-.7-8.17s-.54-5.59-1-8.34c-.31-1.79-.65-3.56-1-5.35q-1.2-6.6-2.39-13.21c-1.1-4.58-2.15-9.16-3.22-13.74-.61-2.58-1.23-5.14-1.88-7.71s-1.22-5.37-1.74-8.08a13.2,13.2,0,0,1-.34-3.7,6.59,6.59,0,0,1,.88-2.87,4.46,4.46,0,0,1,6-1.58,4.5,4.5,0,0,1,1.88,5.48c.2,1.31.46,2.61.71,3.92.94,4.37,2.13,8.69,3.18,13q1.42,5.84,2.84,11.66c.45,1.87.81,3.75,1.19,5.64l2.4,12.13c.95,4.82,1.65,9.67,2.24,14.55a195.08,195.08,0,0,1,1.49,25.79,86.52,86.52,0,0,1-3.48,24.36,43.9,43.9,0,0,1-4.45,9.91c-1.86,3.07-4.14,6.12-7.55,7.57a9.08,9.08,0,0,1-3.5.71A8.23,8.23,0,0,1,1432.84,1374.61Z"/>
  </g>
  <g id="Layer_19" data-name="Layer 19">
    <path d="M1454.35,1246.83a5.34,5.34,0,0,1-1-7.46c2.28-2.66,4.41-5.48,6.58-8.24q2.91-3.74,5.76-7.51c2.15-2.88,4.41-5.71,6.47-8.66s4.24-6,6.35-9.08a17.93,17.93,0,0,1,3.45-4.55,5.11,5.11,0,0,1,3.54-1.43,5.2,5.2,0,0,1,5.15,5.14h0a5.27,5.27,0,0,1-2.7,4.5c-2.27,3.6-4.82,7-7.27,10.53-1.71,2.46-3.52,4.85-5.32,7.26a5.34,5.34,0,0,1-1.23,5.47c-4.35,4.44-8.56,9-12.81,13.57a5.05,5.05,0,0,1-3.72,1.55A5.39,5.39,0,0,1,1454.35,1246.83Z"/>
  </g>
  <g id="Layer_18" data-name="Layer 18">
    <path d="M1424.34,1235.93a6.18,6.18,0,0,1-.58-9.15c2.91-3,6.63-5,10.27-7a76.19,76.19,0,0,1,13.11-5.53c2.88-.93,5.82-1.66,8.76-2.39,3.67-.92,7.33-1.78,11-2.58,2.37-.51,4.74-1,7.13-1.39,4.23-.69,8.8-1,12.81.77a3.53,3.53,0,1,1-.41,7,10.39,10.39,0,0,1-2.42-.79,6.08,6.08,0,0,0-.94-.21l.46.09a10.68,10.68,0,0,0-1.69-.2l.48,0c-.46,0-.93,0-1.39,0a40.36,40.36,0,0,0-4.08.55c-4.22.91-8.35,2.22-12.5,3.42-2.9.84-5.76,1.85-8.63,2.8a89.3,89.3,0,0,0-9.07,3.7,74.54,74.54,0,0,0-6.72,4c-2.06,1.46-4.07,2.93-6,4.57-.24.22-.47.46-.7.7l-.37.45a6.35,6.35,0,0,1-4.9,2.36A6,6,0,0,1,1424.34,1235.93Z"/>
  </g>
  <g id="Layer_17" data-name="Layer 17">
    <path d="M1405.89,1391.85a9.35,9.35,0,0,1-6.47-11.41,46.17,46.17,0,0,1,3.61-8.51c1.14-2.12,2.24-4.26,3.33-6.4,1.73-3.69,3.43-7.38,4.83-11.2.54-1.65,1-3.31,1.4-5,.16-.87.28-1.73.37-2.61,0-.56,0-1.12,0-1.68,0-.33-.07-.66-.13-1-.49-1.92-1.13-3.8-1.72-5.69a63.5,63.5,0,0,1-1.81-7.47,82,82,0,0,1-1.22-15c0-4.68,0-9.34.19-14,.17-4.45.33-8.9.56-13.35.25-5.06.44-10.13.77-15.17,0,.05,0,.11,0,.17l.12-1.7a.34.34,0,0,0,0,.1l.81-12.07c0,.12,0,.25,0,.37,0-.64.08-1.28.13-1.92a1,1,0,0,0,0,.17,93.89,93.89,0,0,1,1.07-11.36,2.58,2.58,0,0,1,5.12,0c.22,1.12.35,2.26.56,3.38a2.5,2.5,0,0,1-1.16,2.51c-.33,5.43-.35,10.86-.44,16.29-.06,3.57-.07,7.13,0,10.7,0,4.14-.08,8.3.07,12.44.16,4.47.29,9,.47,13.43.22,2,.43,4,.65,6l.36,3.37c.15,1.44.44,2.86.72,4.28a59.12,59.12,0,0,0,1.64,6c.47,1.27,1,2.49,1.58,3.71,1,1.87,2.13,3.64,3.25,5.42a32.42,32.42,0,0,1,2.51,4.82,20.37,20.37,0,0,1,1.36,6.64,40.13,40.13,0,0,1-1.47,11.88,79.8,79.8,0,0,1-2.8,8.77q-3,8.29-6.07,16.56c-.22.66-.44,1.32-.65,2a9.61,9.61,0,0,1-4.26,5.54,9.38,9.38,0,0,1-4.7,1.26A9.26,9.26,0,0,1,1405.89,1391.85Z"/>
  </g>
  <g id="Layer_16" data-name="Layer 16">
    <path d="M1406.24,1554.94a79.31,79.31,0,0,1-4.45-12.43c-.54-1.92-.91-3.91-1.3-5.86s-.75-3.71-1.13-5.56a82.81,82.81,0,0,0-2.14-8.12c-.35-.93-.73-1.83-1.16-2.72-.36-.66-.73-1.29-1.13-1.92q-.33-.46-.69-.9c-.49-.53-1-1-1.52-1.51a13,13,0,0,0-1.2-.86l.45.3q-.62-.4-1.26-.75c-1.79-.84-3.65-1.48-5.49-2.2s-3.4-1.38-5.09-2.11c-1.44-.63-2.84-1.32-4.29-1.94s-3-1.21-4.54-1.78c-2.33-.75-4.69-1.44-7-2.28s-4.73-1.76-7.08-2.67c-1.47-.49-2.93-1-4.44-1.38q-2.91-.75-5.84-1.46a85.1,85.1,0,0,1-10.16-2.86,134.25,134.25,0,0,1-14.48-6.91,68.8,68.8,0,0,0-6.75-2.84c-4.42-1.45-8.86-2.84-13.15-4.66-4-1.7-7.79-3.77-11.81-5.36-3.61-1.43-7.32-2.7-10.8-4.41a45.08,45.08,0,0,1-8.07-5.15c-1.14-.9-2.24-1.85-3.35-2.78-1.86-1.56-3.78-3.07-5.68-4.58-1.61-1.27-3.37-2.38-5.06-3.54s-3.28-2.14-4.86-3.29a50.58,50.58,0,0,1-5.55-4.79c-1.76-1.72-3.4-3.61-5.06-5.44s-3.18-3.32-4.89-4.87c-1-.83-2-1.61-3-2.36-5-3.18-10.43-5.6-15.3-9-2-1.34-4-2.63-5.85-4.07s-3.82-2.92-5.74-4.35c-4.71-3.51-9.49-6.9-14.3-10.25a83.8,83.8,0,0,1-15.14-13.5c-1.5-1.71-3-3.43-4.48-5.14l-.14-.15a31.12,31.12,0,0,1-2.14-2.44l-.4-.45-1.27-1.44.1.11c-.21-.24-.42-.47-.62-.71l0,0h0c-1.93-2.17-3.89-4.3-5.68-6.6a35.8,35.8,0,0,1-5.55-10.44,93.47,93.47,0,0,1-2.78-10.25,136.82,136.82,0,0,1-2.21-17.82,176.57,176.57,0,0,1-.72-18c.1-6,.26-11.89.24-17.83,0-5.42-.3-10.84-.35-16.26,0-4.58-.1-9.15.19-13.73a109.63,109.63,0,0,1,4.42-24.49,84.65,84.65,0,0,1,4.31-11.29,46.92,46.92,0,0,1,6.4-10.43,41.22,41.22,0,0,1,8.07-7.25,39.1,39.1,0,0,1,10.39-5.06c5-1.65,10.31-1.61,15.5-1.51,2.82,0,5.64.09,8.46.22,3.65.16,7.3.38,10.95.64,3.15.21,6.3.64,9.44,1l.2,0c.58,0,1.16.07,1.76.11l-.29,0,.78.05h-.2l1.69.11-.29,0c5.64.08,11.28.06,16.92.09,3,0,5.94,0,8.9-.12a102.21,102.21,0,0,1,12,0c5.86.42,11.48,2,17.11,3.55,2.48.7,5,1.39,7.49,2l9.42,2.17c1,.23,2.06.55,3.08.85,1.8.52,3.63,1,5.39,1.64,4.59,1.7,9.15,3.44,13.72,5.2l6.49,2.11c1.76.57,3.55,1,5.34,1.47,4.8,1.25,9.62,2.43,14.44,3.6,4.28,1,8.51,2.3,12.75,3.48,5.31,1.48,10.42,3.57,15.8,4.8,1,.18,2.08.32,3.14.42.81,0,1.62,0,2.43,0,1.23-.11,2.44-.25,3.67-.33a5.69,5.69,0,0,1,1-.1l0,0a5.25,5.25,0,0,1,5.13,3.84,5.29,5.29,0,0,1-5.89,6.63c-1.31.28-2.63.55-4,.72a31.7,31.7,0,0,1-5.68.12,54.78,54.78,0,0,1-9.17-1.49l-9.14-2.1c-4.74-.89-9.47-1.83-14.25-2.53q-8.62-1.26-17.26-2.59c-2.93-.45-5.83-1.2-8.72-1.8-2.63-.56-5.21-1.33-7.81-2s-5.09-1.35-7.65-2c-2.19-.58-4.45-1-6.68-1.41l.83.17c-2.08-.32-4.15-.67-6.22-1-1-.17-2.08-.39-3.12-.59-1.3-.25-2.66-.44-4-.77-1.94-.51-3.9-1-5.82-1.54-3.41-1-6.8-2.08-10.28-2.85a55.61,55.61,0,0,0-5.61-.77c-4.07-.23-8.15-.14-12.22-.27-3.84-.12-7.67-.32-11.51-.4-4.4-.09-8.79-.16-13.18-.5l-1.5-.13a7.24,7.24,0,0,1-1.13-.08l-.3,0c-3.07-.28-6.13-.61-9.2-.91-3.44-.2-6.87-.38-10.3-.46-4.53-.11-9.09-.31-13.61-.08-.73.08-1.44.17-2.16.29-1,.23-1.9.5-2.84.8s-1.67.66-2.49,1-1.37.79-2,1.22c-1,.71-2,1.45-2.9,2.24-.52.5-1,1-1.53,1.52-.61.73-1.18,1.49-1.73,2.27-.86,1.34-1.63,2.72-2.37,4.12a81.2,81.2,0,0,0-3.31,7.89,99.11,99.11,0,0,0-2.87,10.59,106.85,106.85,0,0,0-1.66,11.81c-.39,6.61-.2,13.24-.14,19.86.06,6.23,0,12.44-.2,18.66-.09,2.67-.25,5.33-.36,8-.12,3-.1,6.08-.06,9.12,0,2.77.26,5.54.41,8.31s.29,5.85.48,8.77v.09c.17,1.31.34,2.63.52,4a98.22,98.22,0,0,0,2.73,10.54c.34.89.7,1.75,1.11,2.6s.79,1.42,1.23,2.11c.86,1.19,1.77,2.32,2.72,3.44,1.82,2,3.68,4.06,5.52,6.09.19.19.37.39.55.6l1.61,1.81a137.88,137.88,0,0,0,10.17,10.76,130.2,130.2,0,0,0,11.36,8.46c1.83,1.26,3.69,2.48,5.49,3.79q5.63,4.11,11.25,8.27l-.4-.27c1.78,1.21,3.52,2.52,5.38,3.58,2.27,1.3,4.51,2.62,6.83,3.83a70.44,70.44,0,0,1,11.86,7.24,67.54,67.54,0,0,1,7.58,7.26c2.16,2.38,4.31,4.77,6.69,6.93,4,3.34,8.41,6,12.27,9.48,1.34,1.19,2.73,2.34,4,3.59,1.79,1.75,3.57,3.52,5.42,5.23.89.75,1.8,1.45,2.76,2.12s1.89,1.16,2.88,1.68l7.11,3.45c1.88.91,3.71,1.94,5.55,2.94,1.55.85,3.08,1.77,4.61,2.66s3.23,1.65,4.84,2.47l-.7-.35c2.84,1.17,5.68,2.32,8.54,3.42a73.58,73.58,0,0,1,6.94,3c3.66,1.86,7.13,4.08,10.78,6a71.09,71.09,0,0,0,6.72,2.88c6.09,2,12.46,3.33,18.3,6.05,2.74,1.27,5.47,2.54,8.3,3.61s5.42,2,8.11,3.11c2.54,1,5,2.4,7.46,3.56,3.09,1.42,6.35,2.48,9.39,4a21.49,21.49,0,0,1,7,5.63,28.13,28.13,0,0,1,4.65,9.1c1.43,4.21,2.38,8.59,3.45,12.9.39,1.59.91,3.15,1.36,4.72.81,2.12,1.64,4.19,2.57,6.27.77,1.5,1.55,3,2.41,4.45a5.35,5.35,0,0,1-1.9,7.23,5.23,5.23,0,0,1-2.6.71A5.52,5.52,0,0,1,1406.24,1554.94Z"/>
  </g>
  <g id="Layer_15" data-name="Layer 15">
    <path d="M1477.44,1504.19c-.89-3.78-1.58-7.6-2.17-11.45-.65-4.25-1.15-8.52-2-12.74-.46-2.1-1-4.15-1.67-6.19-.47-1.29-1-2.55-1.59-3.8-.48-.9-1-1.78-1.53-2.63s-1.26-1.65-1.93-2.43-1.56-1.59-2.39-2.34c-.71-.6-1.42-1.17-2.17-1.71-.52-.33-1-.63-1.59-.93l-.68-.29c-.55-.17-1.1-.33-1.66-.47-1.69-.28-3.4-.45-5.11-.59-2.6-.09-5.2,0-7.8-.15-3.1-.13-6.19-.27-9.27-.6-5.69-.6-11.24-2.12-16.83-3.28-2.75-.57-5.47-1.26-8.19-2s-5.55-1.27-8.33-1.86a111.38,111.38,0,0,1-17-5.35c-2.55-1-5-2.18-7.53-3.32q-4-1.8-8-3.63a78.52,78.52,0,0,1-7.91-4.31c-2.53-1.55-5.05-3.12-7.57-4.68-1.18-.74-2.46-1.36-3.69-2-2.48-1.36-5-2.61-7.43-4.1a101,101,0,0,1-13.53-10.51c-6.71-5.9-13.71-11.64-19.1-18.82a41.85,41.85,0,0,1-4.83-8.61,39.05,39.05,0,0,1-1.7-5.06c-.24-.86-.47-1.71-.7-2.57a5.86,5.86,0,0,1-.12-1.87,4.26,4.26,0,0,1,4.22-4.23h.07a4.17,4.17,0,0,1,3.82,2.53c.2.56.41,1.1.62,1.65a4.42,4.42,0,0,1,.29,1.22c.48,1.2,1,2.4,1.53,3.57s1.35,2.45,2.11,3.63,1.59,2.15,2.46,3.17c1.39,1.51,2.84,2.94,4.36,4.32,3.68,3.14,7.61,6,11.48,8.86,3.6,2.68,7.14,5.46,10.82,8a76.29,76.29,0,0,0,7.13,4.22c3.56,1.74,7.15,3.43,10.58,5.42q4.24,2.46,8.51,4.87c1.64.82,3.28,1.65,5,2.4,2.21,1,4.43,2,6.63,2.94,1.85.82,3.68,1.67,5.54,2.45s3.87,1.55,5.83,2.28c3.32,1.11,6.64,2.13,10,3,3.57,1,7.17,1.64,10.7,2.73s6.8,2,10.25,2.86,6.92,1.85,10.42,2.64q3.33.67,6.66,1.29c2.57.48,5.16.76,7.77,1,2.4.21,4.78.41,7.17.75a30.72,30.72,0,0,1,7.29,1.85,30.08,30.08,0,0,1,8.29,5.54,37.2,37.2,0,0,1,6.61,7.71,41.65,41.65,0,0,1,4.33,9.45,126,126,0,0,1,3.44,13.77c1.09,5.22,1.87,10.49,2.88,15.72.62,3.17-1.76,6.39-4.76,7.22a6.28,6.28,0,0,1-1.67.22A6.55,6.55,0,0,1,1477.44,1504.19Z"/>
  </g>
  <g id="Layer_14" data-name="Layer 14">
    <path d="M1450.73,1513.14a4.05,4.05,0,0,1-2.67-1.55,4.17,4.17,0,0,1-.71-3.58,86.82,86.82,0,0,1,2.8-9c-.05.15-.11.3-.16.46.59-1.72,1.24-3.43,1.91-5.12,1.14-2.86,2.27-5.72,3.47-8.55a99.21,99.21,0,0,1,8-15.09c1.38-2.12,2.93-4.12,4.46-6.13a4.29,4.29,0,0,1,4.18-2,2.62,2.62,0,0,1,2.24,2.56,5.1,5.1,0,0,1-.55,2.46,2.63,2.63,0,0,1-2.26,1.3l-.36,0c-.41.56-.81,1.14-1.2,1.71a79.72,79.72,0,0,0-4.33,7.5q-1.33,2.67-2.53,5.42c-.93,2.14-1.72,4.35-2.49,6.56,0-.13.09-.27.14-.4a165.75,165.75,0,0,0-4.89,17.23q-.27,1.4-.48,2.79a4.15,4.15,0,0,1-4.06,3.53A3.48,3.48,0,0,1,1450.73,1513.14Z"/>
  </g>
  <g id="Layer_13" data-name="Layer 13">
    <path d="M1311,1381.14c-5.15-1.89-10.13-4.23-15.1-6.54-4.54-2.11-9.11-4.17-13.53-6.51-3.21-1.7-6.35-3.51-9.41-5.46-2.9-1.83-5.54-4-8.35-6l-1.37-.93a3.23,3.23,0,0,1-4.18-.33,14.72,14.72,0,0,1-1.73-2.28,3.27,3.27,0,0,1,.5-3.89,5.18,5.18,0,0,1,1.82-1.39,4.29,4.29,0,0,1,2.19-.23,10.85,10.85,0,0,1,4.5,2.15c1.19.78,2.42,1.48,3.6,2.28l3.89,2.69a90.42,90.42,0,0,0,9.35,5.28c5.92,3,12.09,5.33,18.24,7.73,2.83,1.11,5.69,2.14,8.55,3.15,1.38.45,2.75.89,4.15,1.29a4.81,4.81,0,0,1,3.31,5.85,4.75,4.75,0,0,1-2.18,2.84,4.59,4.59,0,0,1-2.33.63A5.61,5.61,0,0,1,1311,1381.14Z"/>
  </g>
  <g id="Layer_12" data-name="Layer 12">
    <path d="M1254.43,1377.9a7.44,7.44,0,0,1-5.06-2.1,7.15,7.15,0,0,1,0-10.12,7.38,7.38,0,0,1,6-2l.17,0c4.28.22,8.54.23,12.83.26,2,0,4-.19,6-.3l6.59-.33c10.69-.79,21.37-1.57,32-2.52a7.44,7.44,0,0,1,5.38,1.43,7.26,7.26,0,0,1,2.74,4.73c.5,3.72-2.25,7.78-6.16,8.11-10.41.86-20.83,1.58-31.25,2.3-6.61.47-13.23.78-19.85.78C1260.75,1378.13,1257.59,1378.06,1254.43,1377.9Z"/>
  </g>
  <g id="Layer_11" data-name="Layer 11">
    <path d="M1242.78,1231.4a4,4,0,0,1-3.4-3.41,4,4,0,0,1,1.75-3.84l.42-.32c.13-.12.26-.25.38-.38,1.16-1.38,2.17-2.88,3.21-4.36,1.12-1.69,2.2-3.42,3.36-5.09a43.44,43.44,0,0,1,3.19-4.11,25.58,25.58,0,0,1,7-5.39,78,78,0,0,1,9.93-4.2c3.3-1.24,6.6-2.45,10-3.53a103.58,103.58,0,0,1,18.42-4.07c3.18-.43,6.35-.67,9.55-.91,2.15-.17,4.31-.39,6.47-.48l8.41-.37c2.76-.12,5.52-.16,8.27-.22,1.9,0,3.79-.07,5.69,0a62.9,62.9,0,0,1,12.75,1.36c2.68.59,5.31,1.39,8,2.13l5.45,1.55c1,.29,2.1.49,3.15.72l4.59,1c7,1.27,14,2.66,21,3.49a4.38,4.38,0,0,1-1.19,8.67c-6.84-.7-13.61-2-20.37-3.22-1.37-.25-2.71-.57-4.06-.88l-3.42-.78c-.5-.11-1-.2-1.51-.35l-5.37-1.61c-3-.92-6.09-1.92-9.2-2.61a59.1,59.1,0,0,0-7-1c-5-.27-9.93-.09-14.9,0-3.42.06-6.85.28-10.27.43-2.55.21-5.1.39-7.64.59a101.3,101.3,0,0,0-28.14,5.89c-2,.72-4.07,1.51-6.11,2.28-2.61,1-5.19,2-7.71,3.18-1,.49-1.86,1-2.76,1.58-.59.41-1.16.84-1.72,1.3-.72.68-1.42,1.39-2.09,2.13-1.58,1.9-3,3.92-4.48,5.9-.79,1.07-1.6,2.12-2.4,3.18a25.29,25.29,0,0,1-3.09,3.51,4.05,4.05,0,0,1-3.64,2.31Z"/>
  </g>
  <g id="Layer_10" data-name="Layer 10">
    <path d="M1320.27,1407.35a6.75,6.75,0,0,1-5.7-7.52c.39-3.34.87-6.68,1.22-10a7.13,7.13,0,0,1-.55-2.77,7.35,7.35,0,0,1,2-5l0,0a7.27,7.27,0,0,1,6.79-2.78,7.36,7.36,0,0,1,6.06,5.3,10.88,10.88,0,0,1,.35,4.36c-.11.75-.23,1.51-.37,2.26-.24,1.29-.48,2.58-.75,3.86-.53,2.51-1.08,5-1.69,7.49a6.69,6.69,0,0,1-6.48,4.89A6.06,6.06,0,0,1,1320.27,1407.35Z"/>
  </g>
  <g id="Layer_9" data-name="Layer 9">
    <path d="M1261.13,1576.86c.15-4.9,1.12-9.77,1.82-14.61.74-5.09,1.4-10.18,2.07-15.27.34-2.62.58-5.25.87-7.87.22-1.91.48-3.83.62-5.75.38-5.13.75-10.27,1.15-15.39q.1-7.2.19-14.38,0-3,.08-6c0-2.14-.09-4.29-.16-6.43q-.15-5.13-.48-10.24a172.85,172.85,0,0,0-2.61-21.87c-.37-1.69-.74-3.38-1.23-5l-.18-.46a4.86,4.86,0,0,1-1.24-1.75,5.16,5.16,0,0,1,1-5.49l-.36.41c.15-.19.32-.37.49-.55a4.9,4.9,0,0,1,3.55-1.48,5.19,5.19,0,0,1,4,2c2.1,2.44,2.77,5.8,3.47,8.86a127.38,127.38,0,0,1,2.18,13c1,8.55,1.62,17.14,2,25.75.29,7.27.22,14.56.29,21.84,0,1.83-.05,3.65-.12,5.48l-.45,11.78c-.2,5.09-.59,10.16-.88,15.24-.52,9.41-.91,18.82-1.3,28.23a7.6,7.6,0,0,1-2.16,5.22,7.38,7.38,0,0,1-12.59-5.22Z"/>
  </g>
  <g id="Layer_8" data-name="Layer 8">
    <path d="M1320.47,1578.66a7.63,7.63,0,0,1-3.34-4.35,41,41,0,0,1-1.8-10.15c-.25-3.33-.4-6.65-.52-10-.21-6,.22-12,.57-18s1.06-11.86,1.66-17.77c.27-2.79.69-5.57,1-8.34.33-2.57.63-5.14,1-7.71.45-3.25.9-6.51,1.36-9.76.11-.77.23-1.53.34-2.3a24.93,24.93,0,0,1,.63-2.82,6.9,6.9,0,0,1,.77-2,7.89,7.89,0,0,1,3.36-3.06,6.28,6.28,0,0,1,3.58-.48,6.84,6.84,0,0,1,5.83,6.68h0a6.64,6.64,0,0,1-.9,3.33c-.77,4-1.2,8.12-1.77,12.17-.48,3.43-.84,6.88-1.27,10.32-.8,6.61-1.37,13.23-1.94,19.86-.12,3.53-.23,7.06-.35,10.6-.1,2.89.15,5.81.27,8.71.4,4.9.8,9.78,1.6,14.64.17.71.36,1.42.59,2.12,1.22,3.78-1.38,7.94-5.08,9a7,7,0,0,1-1.92.26A7.37,7.37,0,0,1,1320.47,1578.66Z"/>
  </g>
  <g id="Layer_7" data-name="Layer 7">
    <path d="M1340.05,1428.3a5.18,5.18,0,0,1-2.73-1.85h0l-.09-.11a5.61,5.61,0,0,1-1.06-4c0-.42,0-.84,0-1.26a42.94,42.94,0,0,1,.1-4.54,89.55,89.55,0,0,1,1.2-9.65c.59-3.47,1.36-6.91,2.08-10.35a50.14,50.14,0,0,1,4.74-13.63,6.59,6.59,0,1,1,10.91,7.36c-.19.24-.37.49-.55.73-.58.91-1.11,1.82-1.64,2.76s-.83,1.67-1.16,2.53c-.44,1.13-.87,2.25-1.3,3.37-.38,1.28-.77,2.55-1.15,3.83-.73,2.4-1.3,4.82-1.82,7.27a75.19,75.19,0,0,0-1.09,7.91c0,.85,0,1.7,0,2.54a5.41,5.41,0,0,1-1.31,5.71,5,5,0,0,1-3.69,1.53A5.35,5.35,0,0,1,1340.05,1428.3Z"/>
  </g>
  <g id="Layer_6" data-name="Layer 6">
    <path d="M1306.74,1377.29a2.59,2.59,0,1,1,2.58,2.58A2.61,2.61,0,0,1,1306.74,1377.29Z"/>
  </g>
  <g id="Layer_5" data-name="Layer 5">
    <path d="M1409.38,1390.08a36,36,0,0,1-7.61-1.66c-2.55-.75-5.09-1.55-7.66-2.23-2.83-.75-5.65-1.56-8.5-2.22l-9.66-2.21c-4.7-.91-9.42-1.75-14.13-2.63-1.26-.24-2.52-.39-3.78-.57l-9.89-1.43c-1.67-.24-3.35-.55-5-.73l-6.51-.68c-6.72-.7-13.43-1.44-20.17-1.9l.47,0a115,115,0,0,0-13-.28l-1.54.16A3.1,3.1,0,0,1,1299,1376a5.13,5.13,0,0,1-3.13-1.62,3.61,3.61,0,0,1,.39-4.51,5.63,5.63,0,0,1,2.39-1.43,34.73,34.73,0,0,1,4.51-.94,48.52,48.52,0,0,1,5.39-.42c2.43-.11,4.85-.17,7.29-.18,8.59,0,17.18.52,25.76.9,5.92.26,11.83.8,17.73,1.24s11.53,1.07,17.29,1.64c4.71.48,9.42,1.08,14.12,1.71l8.77,1.16c2.91.39,5.83.82,8.76,1.07.76,0,1.53,0,2.3,0s1.48-.18,2.22-.31,1.56-.39,2.34-.62a7.89,7.89,0,0,1,8.91,11.59,8.11,8.11,0,0,1-4.72,3.63,27.78,27.78,0,0,1-8.12,1.25Q1410.29,1390.14,1409.38,1390.08Z"/>
  </g>
  <g id="Layer_4" data-name="Layer 4">
    <path d="M1416,1395.54a11.37,11.37,0,0,1-4.39-8.94,11.58,11.58,0,0,1,4.39-8.94,21.93,21.93,0,0,1,7.17-3.77l-.71.24c2.33-.81,4.57-1.88,6.87-2.78s4.9-1.85,7.36-2.73l6.14-2.21c4.35-1.56,8.72-3.05,13.11-4.51q5.31-1.76,10.69-3.34a46.42,46.42,0,0,1,13.62-2.2,8.72,8.72,0,0,1,3.39,16.75c-3,1.34-6,2.81-9.16,3.93-3.42,1.23-6.85,2.41-10.29,3.59-4,1.44-7.89,2.87-11.79,4.43l-7.41,3c-4.56,1.83-9,3.87-13.47,6a11.92,11.92,0,0,1-5.62,3.51,11.07,11.07,0,0,1-3,.4A11.35,11.35,0,0,1,1416,1395.54Z"/>
  </g>
  <g id="Layer_3" data-name="Layer 3">
    <rect class="cls-3" x="882.29" y="689.37" width="1015.23" height="974.66"/>
  </g>
</svg>
