<svg id="Layer_1" data-name="Layer 1" xmlns="http://www.w3.org/2000/svg" viewBox="0 0 932 220"><defs><style>.cls-1{fill:wheat;}</style></defs><path class="cls-1" d="M193.2,123.2c-1.5-28.2-3.3-62.1-3-87.3h-.9c-6.9,23.7-15.3,48.9-25.5,76.8l-35.7,98.1H108.3L75.6,114.5C66,86,57.9,59.9,52.2,35.9h-.6C51,61.1,49.5,95,47.7,125.3L42.3,212H17.4L31.5,9.8H64.8l34.5,97.8c8.4,24.9,15.3,47.1,20.4,68.1h.9c5.1-20.4,12.3-42.6,21.3-68.1l36-97.8h33.3L223.8,212H198.3Z"/><path class="cls-1" d="M368.7,117.2H290.1v72.9h87.6V212H264V9.8H373.2V31.7H290.1V95.6h78.6Z"/><path class="cls-1" d="M411.59,212V9.8h28.5l64.8,102.3a572.37,572.37,0,0,1,36.3,65.7l.6-.3c-2.4-27-3-51.6-3-83.1V9.8h24.6V212H537l-64.2-102.6c-14.1-22.5-27.6-45.6-37.8-67.5l-.9.3c1.5,25.5,2.1,49.8,2.1,83.4V212Z"/><path class="cls-1" d="M605.39,180.2a92.49,92.49,0,0,0,46.8,13.2c26.7,0,42.3-14.1,42.3-34.5,0-18.9-10.8-29.7-38.1-40.2C623.39,107,603,89.9,603,61.4c0-31.5,26.1-54.9,65.4-54.9,20.7,0,35.7,4.8,44.7,9.9l-7.2,21.3a80.53,80.53,0,0,0-38.4-9.6c-27.6,0-38.1,16.5-38.1,30.3,0,18.9,12.3,28.2,40.2,39,34.2,13.2,51.6,29.7,51.6,59.4,0,31.2-23.1,58.2-70.8,58.2-19.5,0-40.8-5.7-51.6-12.9Z"/><path class="cls-1" d="M783,9.8V94.4h97.8V9.8h26.4V212h-26.4V117.2H783V212h-26.1V9.8Z"/></svg>