<svg xmlns="http://www.w3.org/2000/svg" xmlns:xlink="http://www.w3.org/1999/xlink" viewBox="0 0 2048 1536">
  <defs>
    <style>
      .cls-1 {
        fill: none;
      }

      .cls-2 {
        clip-path: url(#clip-path);
      }

      .cls-3 {
        fill: #ecfdff;
      }

      .cls-4 {
        opacity: 0.21;
      }

      .cls-5 {
        clip-path: url(#clip-path-2);
      }

      .cls-6, .cls-9 {
        fill: #fff6de;
      }

      .cls-6 {
        opacity: 0.33;
      }

      .cls-7 {
        fill: #ffe8a8;
      }

      .cls-8 {
        clip-path: url(#clip-path-3);
      }

      .cls-10 {
        clip-path: url(#clip-path-4);
      }

      .cls-11 {
        fill: #fff1ca;
      }

      .cls-12 {
        clip-path: url(#clip-path-5);
      }

      .cls-13 {
        clip-path: url(#clip-path-6);
      }

      .cls-14 {
        fill: #ffffef;
      }
    </style>
    <clipPath id="clip-path">
      <rect class="cls-1" x="-82.32" y="-120.09" width="2274.31" height="1168.54"/>
    </clipPath>
    <clipPath id="clip-path-2">
      <rect class="cls-1" x="-153.43" y="346.9" width="2343.83" height="289.99"/>
    </clipPath>
    <clipPath id="clip-path-3">
      <rect class="cls-1" x="-211.19" y="486.02" width="2576.88" height="235.03"/>
    </clipPath>
    <clipPath id="clip-path-4">
      <rect class="cls-1" x="-365.71" y="580.64" width="2700.62" height="280.84"/>
    </clipPath>
    <clipPath id="clip-path-5">
      <rect class="cls-1" x="-278.82" y="592.62" width="2622.92" height="920.04"/>
    </clipPath>
    <clipPath id="clip-path-6">
      <rect class="cls-1" x="26.39" y="8.08" width="1972.88" height="1409.57"/>
    </clipPath>
  </defs>
  <g id="parent-sky_layer-top">
    <g class="cls-2">
      <path class="cls-3" d="M143.67,80.87l.63-1.45c-.22.47-.43,1-.63,1.43ZM1837.23,362.48c-.21-1.1-.42-2.21-.59-3.31-.14-.84-.27-1.67-.41-2.5-1.56,1.62-3.14,3.23-4.71,4.83A44.24,44.24,0,0,1,1837.23,362.48Zm-29,248.81q0-7,0-14,0-4.46,0-8.9l-.77.78c0,1-.07,2-.16,2.93a46.52,46.52,0,0,1-2.57,11.72l-1.35,4.43c-.21.56-.42,1.12-.64,1.67C1804.64,610.29,1806.45,610.77,1808.24,611.29ZM195.6,767.55h0a46.9,46.9,0,0,1,5.41-10.6l2.34-3-15.59.49c0,.15,0,.3,0,.45-.13,2.94-.25,5.88-.38,8.82,1.9,1,3.81,1.95,5.75,2.86ZM1864.49,1048.2c-20.89,0-41.8-.31-62.68-.48-20.14-.16-40.29-.48-60.38-1.38-10.61-.47-21.18-1-31.78-1.67-10.26-.7-20.53-1.45-30.75-2.3l-14.84-1.25q-15.54-.09-31.07,0c-10.45.26-20.89.62-31.33.53l-6.1-.13a46.63,46.63,0,0,1-20.24-6.64q-7.47-.35-15-.6c-20.93-.72-41.8-1.43-62.68-2.28l-3.33,0c-6.24-.1-12.49-.08-18.74-.06-4.19,0-8.38,0-12.57,0-7.73-.05-15.47-.26-23.19-.72a163.22,163.22,0,0,1-22.95-3.37q-18.09-1.11-36.2-2.1c-20.19-1.07-40.33-2.33-60.59-3.15-40.51-1.63-81.06-3.26-121.6-4.21l-54.4-1.29c-.65.5-1.32,1-2,1.45-6.66,4.6-13.34,9.27-21.2,11.67-4,1.21-8.06,2.19-12.13,3.17a95.87,95.87,0,0,1-12.36,1.7c-6.44.66-12.88.84-19.34,1-7.95.14-15.88.62-23.82.87-20.11.65-40.28.57-60.39.24l-77.67-1.28c-38.9-.64-77.8-1.66-116.71-2.55-29-.41-58-1-86.92-1.27a46.17,46.17,0,0,1-5.38,2.11l-6.15,1.55a46.22,46.22,0,0,1-12.26.57c-21.45-.69-42.89-1.73-64.34-2.21l-60-1.35c-15.39-.34-30.79-.55-46.18-.94a35.72,35.72,0,0,1-6.84,1.67c-7.66,1-15.31,2.12-23,2.63-6.7.44-13.44.43-20.16.46-5.58,0-11.16,0-16.75,0-10.88-.09-21.77-.12-32.65-.29h-.24c-1.14,0-2.29.06-3.43,0l-1.26,0c-1.35,0-2.7-.05-4.06-.16q-20.32-.42-40.65-.81c-1.39,0-2.79,0-4.17-.08-22.58-.41-45.15-.75-67.73-.9-43.41-.3-86.82-.54-130.22-1.5q-8.75-.2-17.48-.43a135.92,135.92,0,0,1-16.39-.85,46.89,46.89,0,0,1-11.7-2.56,47.42,47.42,0,0,1-10.45-5.32,211.46,211.46,0,0,1-25.1-6.22,96.71,96.71,0,0,1-20.73-9.77,60.61,60.61,0,0,1-9.09-6.58A65.7,65.7,0,0,1,43.3,987.92c-.49-.77-1-1.54-1.48-2.3a47,47,0,0,1-5.39-11.25,60.74,60.74,0,0,1-3-11.8q-.35-3.06-.68-6.14c0-2.88.08-5.77.25-8.65a69.28,69.28,0,0,1,2-11.42,111.7,111.7,0,0,1,8.35-22.52,94.92,94.92,0,0,1,14.84-21.73A85.22,85.22,0,0,1,67,883.8c1.93-1.63,4-3.16,6.08-4.63l-.36-4.66c-.66-8.79-1.71-17.57-2.34-26.36L69.12,830.4c-.35-4.73-.36-9.53-.53-14.27Q68,800.08,67.37,784q-.62-15.45-1.26-30.91c-.41-10.09.09-20.24.26-30.34.08-4.73.19-9.41.6-14.1q.93-10.56,1.85-21.12c.84-9.56,1.93-19.1,2.92-28.64.37-3.64.38-7.33.55-11q.24-5.06.47-10.1c-.09-3.78-.15-7.57-.27-11.35s-.39-7.5-.59-11.25c-.66-8-1.41-16-2.26-24-.44-3.57-.88-7.14-1.35-10.7-.78-6-1.73-12-2.19-18.06-.74-9.91,2.58-20.32,8.13-28.45l.12-.18q-1.23-7.16-2.49-14.32c-3.6-20.34-7.26-40.73-10.84-61-3.79-21.47-7.43-43-7.72-64.82a250.35,250.35,0,0,1,1.25-29.48l2-18.86c.81-7.74,1.67-15.53,2.51-23.28.82-7.59,1.32-15.27,2-22.86,1.25-14.61,2.19-29.22,3-43.85.08-5.46.16-10.88.24-16.37,0-3-.15-6-.23-9-.11-4.06-.21-8.07-.32-12.13-.17-6.67-.83-13.34-1.25-20-.2-3.06-.66-6.19-1-9.22-.19-1.78-.38-3.56-.58-5.34-1.91-13.45-4-26.95-5.74-40.45-1.11-8.76-2.27-17.45-3.1-26.25-.4-4.29-.81-8.6-1.21-12.87a192.24,192.24,0,0,1-.12-29.39,97.9,97.9,0,0,1,2.36-15.22A69,69,0,0,1,60.3,40.23,61.14,61.14,0,0,1,73,24.11,56,56,0,0,1,92,12.88a61.58,61.58,0,0,1,8.63-2.37q4.15-.49,8.31-.9,4.06.06,8.13.18c.94,0,1.89.14,2.84.24,4.81.47,9.56,1.11,14.31,1.9,6.49,1.07,13,2.26,19.4,3.79,6.84,1.63,13.71,3.31,20.62,4.61,6.11.89,12.27,1.74,18.38,2.53,7.87,1,15.88,1.35,23.73,1.71,13,.18,26,.1,39,.36q23.64.48,47.24,1l14,.05c4.89,0,9.75.19,14.65.05l33-.9c10.53-.28,21-.93,31.54-1.4L420,22.7q32.79-1.44,65.54-2.58c21.29-.73,42.59-1.24,63.89-1.72,37.93-.87,75.83-.82,113.75-.2q22.49.38,45,.85l20.86-1.88q27.63-2.48,55.26-4.31c40.28-2.69,80.4-5.12,120.68-7.28,20.8-1.11,41.65-2.23,62.4-3.29,22.11-1.13,44.13-2,66.24-2.87,38.83-1.44,77.85-1.5,116.72-.34,22.26.66,44.62,1.39,66.82,2.16,18.09.62,36.15,1,54.18,1.38l34.65.65c11.41.22,22.81.5,34.18,1.14,3.41.2,6.86.53,10.27.79A130.63,130.63,0,0,1,1366,6.93c9.19,1.81,18,5,25.48,10.74a46.94,46.94,0,0,1,4.12,3.17c.91.05,1.82.12,2.72.18,15.64,0,31.27.34,46.91.78,18.43.28,36.88.54,55.36.58,20.78.06,41.65.06,62.37,0l18.84-.08L1608.87,21c8-.38,15.94-.48,23.92-.59,9.81-.12,19.65-.43,29.49-.37,22.27.14,44.51.29,66.77.6l8.93.16-1.17,0c11.91.24,23.84.43,35.76.85a30,30,0,0,1,4.06.44l1.5-.08c9.06-.44,18.24-1.35,27.3-2,8.68-.65,17.37-1.44,26-2.2,19.86-1.73,39.55-3.39,59.39-5.34A116,116,0,0,1,1908,12a88.59,88.59,0,0,1,10.13,1.34c5.56.91,10.63,3.73,15.34,6.63a43.16,43.16,0,0,1,10.11,8.56,48,48,0,0,1,8.63,15.34A41,41,0,0,1,1954.89,57l0,1.61a44.55,44.55,0,0,1-1,11.63c-.66,4.16-1.89,8.21-2.82,12.34s-2.11,8.13-3.32,12.15c-1.31,5.18-2.17,10.45-3.85,15.56a68.6,68.6,0,0,1-4.82,11c.3.79.58,1.59.84,2.39a50.24,50.24,0,0,1,1.33,25c-.22,1.15-.49,2.29-.8,3.42a45.76,45.76,0,0,1,13,37c.75,2,1.45,3.9,2.13,5.81,1.88,5.28,3.11,10.86,4.45,16.28q1.43,5.78,2.83,11.54c2.81,11.39,3.91,23.22,4.58,34.9.23,3.9.15,7.86.22,11.77.06,3.2.11,6.41.15,9.61.11,8.83.23,17.71.36,26.56.24,16.64-.22,33.24-2.48,49.73-1.69,12.38-4.21,24.53-6.68,36.76-1.49,7.34-3,14.71-4.51,22.05-1.18,5.72-2,11.54-2.82,17.34l.24-1.58q-1,9.92-2,19.84c-.28,2.79-.23,5.64-.34,8.45l-.24,6.35c0,5.82.07,11.63.21,17.44,0,1.53.08,3,.13,4.58a44.38,44.38,0,0,1,5.47,8.75,51.48,51.48,0,0,1,4.41,13.1,54.45,54.45,0,0,1,.66,14.59c-.37,3-.74,5.94-1,8.9-.51,5.13-1.1,10.33-1.73,15.46-1.49,12.22-3.55,24.36-5.49,36.5-.08.5-.16,1-.25,1.49.14,11.18.8,22.35,1.92,33.5,1.77,14.81,4,29.53,6.21,44.26q1.24,8.24,2.47,16.47c.73,4.85,1.13,9.76,1.67,14.63.77,6.92,1.55,13.89,2.32,20.83.41,3.67,1,7.41,1.2,11.11l1.62,35.44c.46,10.06.54,20.13.79,30.19s.87,20.06,1.37,30.09c.51,10.2,1.18,20.4,1.8,30.59.57,9.42.58,18.87.81,28.29.09,4-.2,8-.37,11.92q-.3,7.26-.61,14.53c-.27,6.39-1.18,12.8-1.81,19.17-.6,6-1.48,11.93-2.16,17.9-.8,7-1.4,14-2.14,21a50,50,0,0,1-4.11,15.36c0,.28,0,.55,0,.83-.42,14.25-3.74,29.42-11.9,41.36a55.49,55.49,0,0,1-21.7,18.57,56.9,56.9,0,0,1-13.95,4.46c-3.13.51-6.27.83-9.45,1.15-4.3.43-8.67.59-13,.74-9.13.33-18.19.5-27.3.5Z"/>
      <path class="cls-3" d="M189.52,387q-1.16,10.33-2.3,20.66-1.8,16.2-4,32.31-9.25,67.9-18.84,135.75c-4,28-9.1,55.92-13.78,83.87q8.93-1.21,17.88-2.39c21.88-2.89,43.78-5.35,65.8-6.92,49.2-3.5,98.45-6.08,147.78-6.15q35.87,0,71.72.22c21,.17,42,.36,63.06.15,10.12-.11,20.23-.11,30.33-.53,12.13-.51,24.26-1,36.38-1.51,22.85-1,45.69-2,68.55-2.64,44.81-1.32,89.61-2,134.42-3,45.46-1,90.91-1.5,136.38-1.81s90.81-1,136.22-1.63c46.91-.68,93.83-.82,140.76-1,42-.14,84.08-.44,126.12.15,48.24.69,96.46,1.86,144.69,3.15,42.23,1.14,84.47,1.59,126.69,2.88,11.57.35,23.17.45,34.72,1.07l40.26,2.16c24.78,1.32,49.54,3.42,74.26,5.59l32.78,2.88,40.2-1.18c20.87-.62,41.73-1.8,62.57-3,.36-4.28.45-8.62.74-12.87.14-2,.27-4,.41-6q0-7.47,0-14.94c-.71-5.53-1-11.07-1.35-17.18-.17-3.42-.26-6.8-.2-10.22.07-4.46.16-8.88.31-13.29-.17-2.33-.35-4.67-.52-7-.75-9.91-2.18-19.75-3.38-29.6-2.9-23.62-6-47.22-9.11-70.82q-8.47-64.6-16.41-129.29c-1.31-10.67-3-21.36-3.92-32.07l-3.63-41.06c-1.1-12.44-2.15-24.87-2.55-37.36l-1.47-44.94c-.27-8.34,0-16.65.24-25,0-.22,0-.44,0-.67-19.7-1.22-39.4-2.43-59.13-3.12q-34.47-1.22-69-.72c-45.19.64-90.36,1.35-135.56,1.46q-26.15.06-52.28-.1c-12.24-.07-24.45-.63-36.66-1.4q-7.65,0-15.31.06c-45.46.26-90.93,0-136.4-.16q-136-.47-271.92.46-39,.27-78,0l-19,1.07c-44.06,3.77-88.06,8-132.14,11.53-42.39,3.36-84.81,6.15-127.21,9.36-11.27.86-22.54,1.79-33.82,2.55-16.24,1.11-32.52,2.56-48.78,3.29-22.42,1-44.88,2.24-67.33,2.21-22,0-44.06,0-66.08-.83-22.91-.85-45.82-1.83-68.74-2.28-24-.46-48.06-.31-72.09-.15-20,.12-40,.25-60,0-20.56-.24-41.2-.86-61.7-2.75-2.77,9.33-5.17,18.76-7.27,28.27-4.2,21.69-7.78,43.51-11.72,65.25q-6.61,36.51-13.7,72.9-3.59,18.39-7.27,36.76C190.12,380.69,189.87,383.84,189.52,387ZM232,931.42c-21.31-.9-42.54-1.95-63.77-4.12-18.61-1.9-36.91-5.26-55.22-9a343.26,343.26,0,0,1-56.27-16.78c-10-3.93-19.68-9.06-29.17-14.06a103,103,0,0,1-9.25-5.71c-5.82-3.91-11.42-7.55-16.88-11.8-9.4-4.19-16.4-9-25.13-14.91a116.27,116.27,0,0,1-15.9-13.41c-7.91-7.91-12.9-15.08-19-24.39a108.49,108.49,0,0,1-9.24-17.56c-2.48-6.13-4.63-12.38-6.52-18.72s-2.86-13.09-4-19.67c-.11-.92-.21-1.83-.32-2.74q-.66-8.82-1.21-17.67a174.94,174.94,0,0,1,.68-18.46A314.17,314.17,0,0,1-82,680.84c0-11.69,1.12-23.48,2-35.11.6-7.88,1.44-15.73,2.46-23.56q2-15.3,4.72-30.49l7.5-41.37c3.5-19.31,7.32-38.57,11.12-57.82q11.63-59,23.81-117.91.95-8.38,1.87-16.77Q-27.77,345.42-27,333c.36-5.7.05-11.53.07-17.24l.09-21.07c0-5.64-.38-11.32-.57-17l-.69-20.7c-.19-5.57-.74-11.15-1.11-16.71q-.21-3-.4-5.94l-3.36-34.76c-1.1-11.43-2.81-22.83-4.23-34.23-1.38-11.11-3.3-22.17-5-33.25-1.61-10.58-3.55-21.14-5.35-31.7-1.63-9.58-3.37-19.14-4.92-28.73-3.53-21.94-7.51-44-7-66.31C-59.1-11.67-56.29-29-49.6-44.87A115,115,0,0,1-13.33-91.8a114,114,0,0,1,68.57-23.31c10,0,21.07,1.3,30.58,4.36A109.69,109.69,0,0,1,112.1-99.66q6.69,4.06,13,8.71c8.71,6,17.12,12.48,25.63,18.79.75.47,1.52.91,2.3,1.34,3.28,1.52,6.57,3,9.87,4.41l2.55-1.21a248.42,248.42,0,0,1,29.91-11.45c6.76-2.21,13.58-4.1,20.51-5.69a414.39,414.39,0,0,1,71-10.14l16.58-.9c5-.27,10.1-.79,15.14-.78,3.83,0,7.67,0,11.51,0,7.73-.06,15.46-.12,23.17.12l38.46,1.16c10.83.32,21.66,1.06,32.48,1.61,42,2.14,84,4.84,126.07,6.61,44.78,1.88,89.56,3.66,134.31,6.07,22.83,1.23,45.68,2.52,68.52,3.69,23.87,1.21,47.74,2.79,71.62,3.62l76.43,2.66c23.44.82,46.93.84,70.39,1.24q7.4.12,14.79.17l32.49-1.85q30.9-2.55,61.74-5.58c11.55-1.14,23.11-2.08,34.66-3.13,16-1.44,32.22-2,48.3-2.94,11-.64,22.16-.58,33.22-.83,7.85-.18,15.72-.16,23.58-.15h9.47c21.3,0,42.58.21,63.87.43,39,.41,78,3.61,116.9,6.29,16.77,1.16,33.48,2.73,50.21,4.37,8.27.81,16.54,1.72,24.8,2.57,1.39.15,2.78.28,4.17.41l20.81-.11q33.77-.19,67.5-.68c10.1-.14,20.23-.05,30.32-.43l38.75-1.45,16.12-.61L1709-77.16c2.42-.2,4.84-.69,7.23-1l18.22-2.65,25-3.64,13.33-2.88c7.79-1.68,15.74-3,23.43-5.06l28.72-7.65c14-3.72,27.87-7.72,41.92-11,8.27-1.94,16.63-3.5,25-5.05,5.77-1.07,11.51-2,17.36-2.54q9.18-.82,18.39-1.15l3.45.06,17.84,1.2a124.1,124.1,0,0,1,25.91,5.33,87.49,87.49,0,0,1,16.16,5.9c8.26,3.84,19.81,9.76,26.77,15.83q6.42,5.58,12.78,11.24c.66.73,1.31,1.47,2,2.2a110.68,110.68,0,0,1,17.2,22.27,69,69,0,0,1,8,15.06c2.62,6.54,5.22,13.1,6.63,20a119.58,119.58,0,0,1,2.64,12.35,156.16,156.16,0,0,1,12,11.25c5.08,5.38,9.82,11,14.38,16.81,4.36,5.54,8.1,11.6,11.95,17.5,11.61,17.81,18.51,38.89,21.26,59.87a194.77,194.77,0,0,1,1.26,22.17c.08,6.42-.71,13.12-1.15,19.38l-.75,10.37c-1.17,16.41-3.38,32.77-5,49.16-1.32,13.73-2.37,27.48-3.34,41.23q-.55,18.73-1.13,37.43c-.21,7.09-.22,14.19-.21,21.28a106.28,106.28,0,0,1,4.54,13.15c1.84,6.73,3.08,13,4.5,20.06,1.62,8,1.9,16.77,2.27,24.8.27,6.07.46,12.19.22,18.27q-.48,12.25-1,24.53c-.71,18.07-2.32,36.08-3.78,54.1-2,24.75-4.42,49.46-6.5,74.19-.12,1.94-.25,3.88-.37,5.81l-.15,8.79c-.29,15.77-.58,31.61-2.33,47.29a100.8,100.8,0,0,1-10.39,34.05c-.12,6.84-.61,13.61-1.08,20.47,3.92,1.27,7.76,2.72,11.47,4.3,6.35,2.71,12.45,5.91,18.58,9.09,5.8,3,11.28,7.1,16.5,10.85a104.28,104.28,0,0,1-11.08,172.48l-12,6a104,104,0,0,1-26.43,7.24c-9.05,1.57-18.63,1.75-27.69,2.34-7.77.51-15.55.66-23.33,1.12-10.3.61-20.58,1.34-30.87,2h-.13c-1.11.73-2.22,1.45-3.33,2.2l-3.11,1.65a93.51,93.51,0,0,1-15.63,7.51,158.44,158.44,0,0,1-41.24,10.11,301.73,301.73,0,0,1-42.18,1.28c-24-.86-48-3.08-72-5.33q-30.26-2.85-60.52-5.62l-4.9-.44c-31.93,1-63.86,2-95.78,3.26-43.45,1.72-86.84,4.64-130.27,6.77l-41.2,2c-10,.49-20.1.59-30.14.88-10.56.3-21.14.81-31.71.9l-39.64.35q-35.22.31-70.43.55c-22.84.16-45.67.67-68.51,1.09-45.22.83-90.45,3-135.65,4.83-44.21,1.77-88.45,2.91-132.69,3.89-89.1,2-178.25,3.49-267.31,7.07-14.41.58-28.8,1-43.19,1.92l-43.15,2.68c-19.78,1.69-39.58,3.31-59.35,5.12-21.85,2-43.68,4.18-65.55,5.93q-78.44,6.26-157,11c-22.39,1.35-44.8,2.26-67.23,3.26-2.27.11-4.55.09-6.83.08-1,0-2.1,0-3.14,0l-25,.13h-1.86C249.8,932.11,240.93,931.8,232,931.42Z"/>
    </g>
  </g>
  <g id="parent-sky_layer-higher">
    <g class="cls-4">
      <g class="cls-5">
        <path class="cls-6" d="M-28.71,635a201.45,201.45,0,0,1-27.23-4.86,115.19,115.19,0,0,1-24.8-8.45q-7.35-3.45-14.47-7.37a100.84,100.84,0,0,1-22.9-17.19c-7.83-7.81-15.16-16.23-20.48-26q-3.3-6.33-6.36-12.78c-2.92-6.1-6.54-19.32-7.12-26.09-.42-4.84-1.11-9.7-1-14.56.15-4.47.42-8.94.92-13.37,2.09-18.8,11.67-37,25-50.25a88.17,88.17,0,0,1,28-18.84l10.85-3.77a87.85,87.85,0,0,1,21.67-3.12l3-.23A117.75,117.75,0,0,1-51,427.6a83.23,83.23,0,0,1,16.68.8c.75.1,1.51.19,2.26.27l3.63.3-1.31-.09,1.5.11c4.47.39,8.93.83,13.41,1.19l-3.73-.25,3.2.23c5.14.22,10.29.32,15.44.35H0v206C-9.6,636.27-19.11,635.85-28.71,635Z"/>
        <path class="cls-7" d="M1.05,636.58l-1,0v-206H2.28c14.24,0,28.66-.62,42.12-1.3l22.45-1.09q15.41-.74,30.82-1.51c19.52-1.54,39.56-3.42,59.54-5.6,16.56-1.8,33.36-3.88,49.61-5.89,7.45-.91,14.91-1.84,22.36-2.73,13.86-1.67,28.06-2.4,41.8-3.09l6.68-.34c9.66-.51,19.5-.65,29-.79l4.8-.07c19.41-.31,42.44-.77,66.07-1.88,16.06-.74,32.42-1.6,47.72-2.42q11.42-.89,22.82-1.84c17.19-1.4,35-2.86,52.48-3.89,11.06-.65,22.33-.92,33.23-1.18l1.84,0,6.67-.17c8.4-.21,17.09-.44,25.63-.46h2.27c9.88,0,19.93.16,29.64.31h.58c10,.16,20.35.33,30.5.33h4c23.67-.11,47.59-.45,70.06-.79,12.9-.19,26-.75,38.65-1.29l10.08-.43c16.51-.67,33.31-1,49.54-1.36l2.16-.05c14.3-.29,28.83-.91,42.87-1.52l8.37-.36c13.47-.57,29.13-1.25,44.39-2.18,18.77-1.33,40.93-3,62.86-5,18.29-1.69,36.83-4.05,54.76-6.33l14.85-1.88c23.57-2.93,47.43-6.63,70.5-10.21,21.84-3.39,44.42-6.9,66.72-9.75l4.4-.56c10.24-1.32,20.83-2.68,31.28-3.76,15-1.54,30.84-2.67,47.24-3.36,14.12-.58,29.41-.87,46.75-.87,7.68,0,16,.06,25.49.17,11.85.15,23.86.85,35.49,1.53,10.46.61,21.27,1.24,31.91,1.46q12.63.27,25.27.46c15.41.26,31.34.53,47,1,31.46,1,62.63,3.6,97.19,6.66q12.48,1.11,25,2.27c17.09,1.58,34.76,3.21,52.17,4.54,10.37.48,20.93.91,31.13,1.32,11.58.48,23.55,1,35.32,1.52,17,.8,34.23,1.36,50.91,1.9l17.79.58,1,0c11.61.39,23.62.79,35.43,1.34,3.44.16,6.87.34,10.31.51,7.83.41,15.92.83,23.88,1,11.49.26,23.66.39,37.22.39,9.63,0,20-.07,32.59-.2,42.32-.45,80-1.64,115.28-3.65,4.59-.51,8.91-1.13,13.19-1.9,1.53-.27,2.88-.49,4.15-.66V523.66c-22.29,5.88-45.06,9.7-64.41,12.67-25.34,3.87-47.81,6.89-68.69,9.22-25.51,2.84-52.43,5.09-80,6.67-15.66.89-31.59,1.55-47,2.19-7.39.31-14.77.61-22.15,1-23.86,1.07-47.92,1.28-68.31,1.35-7.51,0-15,.08-22.54.14-9.93.08-20.19.15-30.29.15-6.95,0-13.2,0-19.12-.11-7.5-.09-15-.23-22.5-.36-14-.25-28.55-.51-42.84-.51H1557q-16.58,0-33.15,0l-33,0h-.23l-32,0c-17.39,0-31.69,0-45,.08h-7.63c-10.72,0-21.62-.08-32.17-.15-9.78-.08-19.89-.15-29.84-.16h-.7c-13,0-26.14.31-38.88.62-9.24.21-18.79.44-28.19.55-20.33.23-37.34.75-53.54,1.65-13.69,1-27.61,2-41.07,3l-21.21,1.52-24,1.78c-20.74,1.55-42.19,3.16-63.3,4.5-14.5.93-29.28,1.45-43.57,2-7.68.28-15.61.56-23.41.9-21.74,1-44.5,1.65-69.58,2.14-32.95.64-66,1.84-94,2.93q-13.57.52-27.16,1c-20.53.71-41.76,1.43-62.63,2.66-19.31,1.34-35,2.37-49.52,3.26-7.42.53-16.18,1.19-24.83,2.08-3.36.34-6.73.69-10.09,1-7.84.83-16,1.68-23.94,2.38-6.65.59-13.3,1.14-20,1.7-15.67,1.3-31.88,2.65-47.77,4.39q-14,1.54-28.08,3c-14.25,1.52-29,3.1-43.48,4.74l-7.44.85c-20,2.28-40.62,4.63-61,6-12.13.84-24.45,1.77-36.38,2.67-22,1.67-44.73,3.39-67.13,4.6-14.69.79-29.64,1.28-44.1,1.76-13,.43-26.5.88-39.75,1.54-25.95,2-47.69,3.55-68.14,4.94-8.64.64-17.38,1.32-25.85,2-9.08.72-18.48,1.45-27.72,2.11-18.59,1.32-37.5,2.36-55.8,3.37l-16.08.9c-2.66.14-5.33.3-8,.46-5.85.34-11.9.7-17.86,1L25.4,636c-6.39.3-13,.62-19.49.62C4.18,636.64,2.59,636.62,1.05,636.58Z"/>
      </g>
    </g>
  </g>
  <g id="parent-sky_layer-middle">
    <g class="cls-8">
      <path class="cls-9" d="M459.7,650.41c-23.59-.19-47.18-.69-70.76-1.31s-46.86-1.44-70.27-2.58c-11.29-.55-22.57-1.29-33.86-1.79-12.89-.58-25.78-1-38.68-1.31q-33.9-.84-67.81-1.7c-20-.53-40.06-1-60.1-.84-20.21.2-40.41.88-60.61,1.56-20,.69-40.06,1.43-60.1,2-19.89.54-39.8,1.27-59.67,2.5-12.11.9-24.21,1.89-36.37,2a31.87,31.87,0,0,1-4.26.29,31.71,31.71,0,0,1-12.31-2.49,31.88,31.88,0,0,1-16.82-16.82,31.84,31.84,0,0,1-1.36-20.72,31.55,31.55,0,0,1,5.46-10.91,35,35,0,0,1,9.07-8,25.13,25.13,0,0,1,4.85-2.6l3.93-1.37a32,32,0,0,1,8.48-1.14c2.6-.16,5.18-.24,7.78-.31q5.83-.15,11.66-.5c11.1-.82,22.2-1.64,33.32-2.16q18.09-.84,36.2-1.48c11.7-.4,23.41-.63,35.12-1,11.27-.37,22.54-.82,33.8-1.2s22.4-.78,33.6-1.06,22.43-.64,33.64-.6c24.16.09,48.31.74,72.46,1.36,22.88.58,45.78,1,68.65,1.74,23.9.74,47.75,2.41,71.63,3.41q35.34,1.49,70.71,2.19c23.09.48,46.18.89,69.27.93,46.26.07,92.54.21,138.79-.11,23.31-.17,46.62-.42,69.92-1,22.67-.53,45.31-1.43,68-2.46,23.9-1.08,47.8-2.11,71.72-2.43,11-.14,21.93-.07,32.89-.12q18.17-.09,36.34-.34c11.48-.16,23-.5,34.44-.79,11.28-.27,22.55-.46,33.83-.74,23.7-.58,47.39-1.37,71.09-1.84,22.38-.45,44.76-1.21,67.14-1.38,23.45-.19,46.9-.26,70.34-.4,22.54-.13,45.07-.3,67.6-.8,23.27-.52,46.49-1.72,69.73-3q17-.92,33.94-1.36c10.6-.26,21.22-.52,31.82-.52,22.89,0,45.8-.09,68.69.65,11,.35,22,.76,33,.75q17.89,0,35.78-.41c22.19-.47,44.31-2.1,66.48-3.07,20.63-.91,41.24-2.08,61.85-3.27,21.8-1.26,43.57-2.68,65.41-3.41q16.28-.54,32.54-1.43c11.08-.61,22.19-.61,33.3-.82,22.11-.43,44.24-.26,66.36-.1,26.08.19,52.15.14,78.22,1,12,.4,24,.31,36,.24,11.33-.07,22.65-.2,34-.8,9.66-.9,19.19-2.68,28.84-3.73,5.19-.56,10.39-1.08,15.6-1.53,4.75-.4,9.52-.65,14.28-1.07,5.76-.5,11.49-1.14,17.25-1.55,7.05-.51,14.1-.86,21.15-1.22,5.29-.28,10.57-.6,15.87-.86h0a52,52,0,0,1,8.65-1,36.5,36.5,0,0,1,8,.56,33.73,33.73,0,0,1,15.32,6.4,31.82,31.82,0,0,1,9.91,12.89,32.36,32.36,0,0,1,1.37,20.89,31.86,31.86,0,0,1-5.51,11,34.69,34.69,0,0,1-9.15,8,32.62,32.62,0,0,1-12.22,4.24,57.76,57.76,0,0,1-6.71.5c-4,.22-8.05.33-12.08.54-9.05.45-18.09,1-27.13,1.49-4.48.36-8.94.8-13.41,1.24-4.63.45-9.28.72-13.92,1.07-9.21.7-18.47,1.57-27.62,2.85-4.25.6-8.46,1.37-12.71,1.92-6.18.82-12.44,1.22-18.66,1.47-10.37.43-20.74.58-31.12.64s-20.73.18-31.09-.1c-11.18-.3-22.36-.74-33.55-.86-21.6-.23-43.21-.29-64.8-.38-11.07,0-22.13-.08-33.19,0-11.55,0-23.09.36-34.64.54-11,.17-21.92.85-32.88,1.37s-21.84.76-32.76,1.19c-21.16.82-42.29,2.44-63.43,3.63-20.74,1.16-41.47,2.12-62.21,3.2-10.81.56-21.62,1.31-32.45,1.73q-18.2.69-36.42.89c-11.59.12-23.18.16-34.77-.13-10.65-.26-21.29-.72-31.94-.89-22.87-.35-45.77-.51-68.64-.06-10.88.21-21.76.33-32.63.81-11.53.51-23,1.14-34.56,1.79-45.23,2.52-90.55,2.66-135.83,3-23.36.16-46.73.09-70.08.48s-47,1-70.46,1.57c-22.94.56-45.87,1.32-68.8,1.8s-45.86,1.2-68.79,1.39c-23.65.19-47.3,0-70.94.58-22.5.58-45,1.74-67.46,2.74-46.54,2.07-93.14,2.73-139.73,2.85q-35.4.09-70.8.05c-13.78,0-27.57,0-41.36,0Q473.49,650.51,459.7,650.41Z"/>
      <path class="cls-9" d="M2168.38,720.76c-3.6,0-7.2,0-10.8,0-13.12,0-26.25-.32-39.38-.5-49.17-.69-98.33-2.31-147.48-3.9-103-3.34-206.08-6.32-309.06-11.06q-84.83-3.91-169.66-7.87c-53.22-2.46-106.38-5.44-159.56-8.65-54.93-3.31-109.82-7.35-164.72-11.1q-77.49-5.29-155-10.76-77.19-5.45-154.27-12.12c-51.65-4.49-103.29-9.12-155-13.24-13-1-26-2-39-3.11q-35.91-2.3-71.8-4.62c-26.53-1.71-53.1-3-79.64-4.47-51-2.85-101.92-5.2-152.87-7.83-24.61-1.26-49.24-2.42-73.86-3.31-25.81-.93-51.62-2.05-77.44-2.63-28.28-.63-56.54-1.19-84.81-1.5-23.71-.27-47.46-.34-71.16-1.07q-30.55-.93-61.1-2c-25.33-.9-50.78-1.93-76.1-.66-2,.2-4,.47-6,.79a10.59,10.59,0,0,1-6.24,8.43,10.45,10.45,0,0,1-14-6.78,23.55,23.55,0,0,1-.92-6.24,19.48,19.48,0,0,1,3.08-10.23c2.16-3.68,6.21-6.07,9.7-8.29a46.81,46.81,0,0,1,7.88-3.53c4.14-1.66,8.48-2.93,12.75-4.2,16.58-4.91,33.87-7.72,50.8-11.16,12.18-2.48,24.47-4.49,36.69-6.76l40.75-7.55q36.71-6.79,73.51-13.06c11.14-1.9,22.27-4,33.46-5.63l49.23-7.34c24.72-3.69,49.6-6.38,74.4-9.48,12-1.49,24.1-2.58,36.15-3.87s24.06-2.71,36.1-3.86c25-2.37,50-5.08,75-7.1,28.45-2.31,56.91-4.91,85.39-6.78l45-3c11.48-.75,23-1.7,34.46-2.26l43.17-2.07c12.18-.59,24.38-1.46,36.57-1.76,26.74-.66,53.48-1.18,80.22-1.79,8.66-.2,17.33-.19,26-.18h12.89l41.14-.2c52.44-.25,104.91.31,157.35.49,53.18.19,106.35.78,159.53,1.44,53.41.66,106.81,2.21,160.2,3.58q77.68,2,155.37,3.45c100,1.95,199.87,4.73,299.82,6.19,52.51.77,105,1.36,157.52,2.19,55.25.88,110.5,1.81,165.76,2.31q46.93.43,93.84-.51c14.83-.3,29.63-1.24,44.46-1.2a189.09,189.09,0,0,1,23.15,1c3.64.46,7.27,1,10.91,1.51a130.25,130.25,0,0,1,21.61,4.92c7.54,2.53,15.13,4.94,22.43,8.12a98.68,98.68,0,0,1,38.91,30,96.68,96.68,0,0,1-27.75,142.57A193.73,193.73,0,0,1,2290.81,705a166.66,166.66,0,0,1-18,6.27c-7.49,2-15.15,4.27-22.82,5.2-5.75.69-11.49,1.42-17.25,2.06-11.63,1.31-23.57,1.37-35.27,1.86-7.26.31-14.54.37-21.81.37Z"/>
    </g>
  </g>
  <g id="parent-sky_layer-lower">
    <g class="cls-10">
      <path class="cls-11" d="M231.16,730.12c-25.38-.77-50.77-1.68-76.17-2q-40.34-.51-80.68-.74Q-1.91,727-78.13,727h-7.65c-7.66,0-15.31,0-23,0-6.33,0-12.6-.4-18.92-.86l-2.65-.47a62.23,62.23,0,0,1-13.77-3.92,60.74,60.74,0,0,1-14.55-8.68,50.85,50.85,0,0,1-15.22-19.74A49.47,49.47,0,0,1-176,661.19c5.68-20.62,25.59-36.57,47.31-36,4.06.11,8.11.38,12.15.68,8.79.24,17.58.22,26.38.19h8.43q19.11,0,38.2.05c25.87,0,51.74.16,77.62.19q39.9.06,79.8.39c24.42.22,48.86.33,73.27,1.09,26,.81,52,1.79,78.07,1.83q39.27.07,78.52-1.1c12.73-.37,25.45-.86,38.18-1.22,13.06-.38,26.14-.45,39.2-.62,25.22-.32,50.43-1.11,75.65-1.53,27.51-.44,55-.71,82.53-1,24.83-.25,49.67-.31,74.51-.72,26.83-.44,53.66-1,80.5-1.24,25.16-.19,50.32-.59,75.47-1.33,26-.76,52-1.25,78-1.93,26.43-.69,52.83-1.85,79.23-3,25.77-1.17,51.56-1.86,77.34-2.44,12.19-.27,24.39-.18,36.59-.23s24.32-.15,36.48-.24c25.73-.17,51.45-.89,77.17-.92s51.49,0,77.24,0c51.92,0,103.84,0,155.76-.45,17.38-.17,34.76-.12,52.14-.08q12,0,24,0c25.28,0,50.57,0,75.85-.19,24.87-.16,49.73-.73,74.59-1.16,25.41-.44,50.83-.14,76.23-.12,39,.05,78.09.32,117.13.11,20.18-.11,40.36-.54,60.53-1.15,18.56-.55,37.09-1.8,55.62-3,20.92-1.47,41.83-2.94,62.7-5.07q16.6-1.7,33.26-2.87c13.05-.92,26.07-1.3,39.15-1.52,10.52-.18,21-.55,31.54-.92,10.86-.38,21.72-.32,32.59-.3,19.75,0,39.47-.18,59.2-1.28,8-.62,16-1.46,23.94-2.37,4.19-.48,8.37-.95,12.57-1.37a91.07,91.07,0,0,1,13.72-.68c3.67.21,7.37.38,11,.91a71.89,71.89,0,0,1,16.73,4.45c8.76,3.55,17.43,9.39,23.05,17.08q2.05,2.79,3.88,5.71a52.54,52.54,0,0,1,5,12c2.55,8.4,2,17.35-.07,25.75-2.42,9.81-8.83,18.81-16.75,24.94a48.32,48.32,0,0,1-29,9.88,69.65,69.65,0,0,1-8.66-.64c-1.05,0-2.11,0-3.16,0-5.24.5-10.46,1.22-15.69,1.87-9,1.11-18,2-27.08,2.71-18.86,1.36-37.75,2-56.65,2q-6.54,0-13.07,0t-13.07,0c-8.84,0-17.66.28-26.5.65-17.9.73-35.8.6-53.68,1.54-10.49.79-21,1.76-31.43,2.81-12.71,1.29-25.43,2.3-38.17,3.21-26.35,1.88-52.73,4-79.13,5.08-49.84,2-99.75,1.85-149.62,1.61q-38.55-.2-77.1-.16-18.61,0-37.23.1c-12.17.1-24.35.47-36.53.66-50.17.78-100.34.73-150.51.73-51.74,0-103.48.48-155.22.49q-19.36,0-38.73-.06c-38.83-.09-77.67-.18-116.49.56-24.49.46-49,.57-73.5.67-13.24.05-26.48.1-39.72.22-12.61.13-25.22.63-37.83,1-25.49.79-51,2-76.44,3-26,1.07-52.07,1.67-78.11,2.25-25.74.57-51.46,1.49-77.19,2-25.56.49-51.13.39-76.69.91-53.2,1.08-106.42,1.42-159.63,2q-38,.39-75.87,1.28c-13.1.31-26.2.62-39.31.79-13.33.17-26.69.2-40,.59-37.93,1.1-75.89,2.49-113.84,2.49C257.35,730.69,244.26,730.53,231.16,730.12Z"/>
      <path class="cls-11" d="M2167.79,761.93c-1-.09-2-.15-3-.21Zm-2320,99-27-1.1c-9.31-.38-18.72-.55-28-1.68l-27.32-3.37c-11.07-1.36-21.79-4.72-32.5-7.67a101.15,101.15,0,0,1-18.69-6.81l-5.56-2.78-1.65-.83A99.28,99.28,0,0,1-315,823.75c-5.47-4.16-10.4-8.44-15.62-13.07-5.51-4.88-10.14-10.34-15-15.95l-6.48-9.59a89.66,89.66,0,0,1-9.09-21.53,90.9,90.9,0,0,1,0-47.94A90.49,90.49,0,0,1-338,675.89a90.39,90.39,0,0,1,18.24-14.1,89.9,89.9,0,0,1,21.54-9.09c9.3-1.9,18.57-4,27.9-5.79a206,206,0,0,1,28.39-3.14c6.64-.34,13.28-.7,19.91-1,4.49-.22,9-.16,13.55-.11,2.26,0,4.52.06,6.77.06,12.34,0,24.67,0,37,.08q18.06.09,36.11.09c3.84,0,7.69,0,11.53,0,8.39,0,16.77.06,25.15-.13l49-1.13c24.46-.55,48.9-2.13,73.34-3.33,20.12-1.35,40.26-2.61,60.35-4.36q40.55-3.54,81.11-7.06,86.31-7.44,172.72-13.63,85.77-6.27,171.62-11.38c24.5-1.47,49-2.53,73.55-3.62q42.45-1.87,84.89-3.86c56-2.71,112-6.15,167.94-9.38,12.91-.74,25.85-1.08,38.77-1.62,11-.46,22-1,33.06-1.26,28-.56,55.92-1.24,83.89-1.18q44.52.09,89,.74c27.52.4,55,1.13,82.52,1.79,12.4.3,24.8.94,37.19,1.43,11.2.44,22.41.74,33.59,1.46,32.9,2.11,65.78,4.17,98.63,6.9q43.58,3.62,87.15,7.4c23.4,2,46.83,3.83,70.19,6.27,29,3,58,6.13,87,9.62q39.66,4.79,79.3,9.64c32.52,4,65.15,6.42,97.8,8.88,53.73,3.22,107.52,6.25,161.08,11.58,54.69,5.45,109.39,11.35,163.87,18.54,18.86,2.5,37.67,5.27,56.49,8q11.85,1.71,23.73,3.22c15.14,1.92,30.88,3.06,44.67,9.55a43.61,43.61,0,1,1-41.68,76.16c-16.67.21-33.3,1.15-49.95,2.07-11.79,1-23.57,2-35.31,3.51-14.23,1.82-28.37,3.8-42.55,6-13.58,2.13-27.18,4.14-40.78,6.16-13.45,2-27,3.59-40.46,5.3-26.19,3.33-52.53,5.58-78.82,8-24.64,2.25-49.28,4.64-73.94,6.57-17.55,1.38-35.13,3.2-52.71,4l-46.23,2.12c-12.32.57-24.7.22-37,.22-11.34,0-22.63-.07-34-.45-53.67-1.76-107.29-4.56-161-6.37q-86.67-2.92-173.3-6.58c-51.46-2.13-103-2.61-154.5-2.48q-79.43.21-158.82,1.57c-47.47.81-94.87,3.52-142.26,6.2-54.3,3.88-108.58,7.93-162.92,11-55.66,3.18-111.34,5.84-167,8.83-19.33,1-38.65,2.41-58,3.69-51.18,3.78-102.37,7.59-153.53,11.75-57.11,4.64-114.16,9.85-171.23,15.05-27.29,2.49-54.63,4.38-82,6.41-14.71,1.1-29.43,1.9-44.16,2.67-14.2.74-28.42,1.84-42.63,2.22-26.74.71-53.46,1.57-80.21,1.53-3.33,0-6.65,0-10,0l-8.93,0C-139.57,861.22-145.92,861.16-152.26,860.9Z"/>
    </g>
  </g>
  <g id="parent-sky_layer-bottom">
    <g class="cls-12">
      <path class="cls-7" d="M-181.33,974.4c-15.06-2.44-30-6.68-43.12-14.7a112.46,112.46,0,0,1-22.31-17.17A105.26,105.26,0,0,1-256,932.05q-3.68-5.43-7.34-10.87a101.38,101.38,0,0,1-10.3-24.4,88.24,88.24,0,0,1-3.45-16.43,123.92,123.92,0,0,1-.07-32.65,129,129,0,0,1,25.18-60.09A146.37,146.37,0,0,1-226,760.88,114.62,114.62,0,0,1-184,739.78c5.59-1.43,12.43-2.75,18.59-3.69,11.14-1.7,22.58-1.93,33.85-2.2q11.49-.27,23-.39c8.26-.08,16.54,0,24.81-.32q7.11-.25,14.21-.63c24.83-2.28,49.65-4.77,74.4-7.81,25.66-3.15,51.35-6.44,77.14-8.28,17.81-1.26,35.6-2.39,53.44-3.1q21-.86,41.89-1.9,38.2-1.94,76.41-2.46,16.66-.25,33.35,0c13.7.22,27.34.73,41,1.36,10.76.5,21.5,1.25,32.26,1.65q20.74.76,41.48,1.18,35,.66,70,.25c21.36-.24,42.64-1.22,64-2.5,55-4.1,110.09-8.56,165.21-11.73,52.78-3,105.62-5.42,158.47-6.76,12.42-.31,24.83-.38,37.25-.69,14.54-.37,29-1,43.57-1.61,12.06-.54,24.1-1.34,36.16-1.86,14.79-.64,29.56-1.07,44.36-1.41,21.18-.48,42.38-.45,63.57-.43l14.92,0q40.07,0,80.12.43c26.27.27,52.55,1.56,78.8,2.58,12.64.49,25.28.82,37.92,1.24,13.87.46,27.72,1.13,41.57,1.8,17,.83,34.12,2.2,51.1,3.77q21.42,2,42.78,4.31c12,1.28,23.93,2.66,35.92,3.8,12.74,1.22,25.47,2.25,38.22,3.21q14.19.9,28.38,1.72c12,.68,24.17,1.46,36.24,1.42l23.23-.09c6.62,0,13.25-.47,19.86-.72,12-.45,23.93-1.08,35.9-1.32q40.73-.84,81.39-.29,39.67.48,79.3,0,19.74-.25,39.47-.72c10.15-.26,20.28-.75,30.41-1.31,31.62-3,63.26-6.24,95-7.56,26.15-1.09,52.3-1.66,78.44-2.95,25.83-2.51,51.57-5.62,77.49-7.12,10.59-.61,21.16-1.11,31.76-1.38,7.75-.21,15.51-.14,23.27-.28,6.87-.95,13.7-2.18,20.59-2.9a119.42,119.42,0,0,1,32.16,0,118.2,118.2,0,0,1,43.73,15.09,118.44,118.44,0,0,1,24,186.1l-11.38,10a118.38,118.38,0,0,1-26.29,15.37,297.4,297.4,0,0,1-34.4,10.71,213.11,213.11,0,0,1-22,4.17A208.55,208.55,0,0,1,2189,927l-10.13.08c-12.9.12-25.77.54-38.65,1.17-32.75,2.91-65.37,7.22-98.28,8.3-15.6.52-31.22.78-46.82,1.43q-17.89.74-35.75,1.83-18.12,1.68-36.25,3.38c-18.86,1.78-37.73,2.88-56.63,4-11.62.69-23.31.72-35,.9q-22.07.33-44.14.62c-25.71.34-51.44-.26-77.15-.58-26.38-.32-52.76.23-79.13,1.21-24,.89-48,1.94-72,1.12-29-1-58-2.9-86.92-5-24.94-1.86-49.76-4.44-74.62-7.1q-32.1-3.43-64.25-5.94c-24.92-1.18-49.84-2-74.77-2.82-26.09-.84-52.17-2.32-78.27-2.58q-39.7-.41-79.39-.44l-16.74,0c-20.7,0-41.42-.06-62.1.41-14.44.32-28.86.71-43.29,1.33-12.56.54-25.1,1.36-37.65,1.92-27.11,1.22-54.21,1.9-81.35,2.34s-54.27,1.68-81.38,2.91c-25,1.13-50,2.27-75,3.71Q688,940,672.54,941q-40.14,3-80.28,6c-29.72,2.2-59.45,4.54-89.22,5.71-26.06,1-52.14.93-78.22.73-27.15-.21-54.25-.82-81.35-2.26q-15.29-.83-30.58-1.51c-10-.46-19.92-.57-29.9-.73-18-.29-36.05-.13-54,.42-20.12.62-40.21,1.5-60.32,2.52-17.62.9-35.25,1.56-52.87,2.33-17.34,1.37-34.63,3-51.91,5.11-22.51,2.72-45,5.54-67.58,7.8-26,2.62-52,5.07-78.19,6-17.2.59-34.42.25-51.62.81l-1,.12a109.48,109.48,0,0,1-17.43,1.16l-2-.06c-3.91.28-7.81.46-11.71.46A97.38,97.38,0,0,1-181.33,974.4Z"/>
      <path class="cls-7" d="M2047.55,1512c-24.3-.68-48.58-2-72.86-3.19-48.38-2.46-96.75-5-145.13-7.3-21.38-1-42.78-1.54-64.17-2.27-19.17-.65-38.34-1.47-57.51-1.82-46.59-.87-93.18-2.06-139.77-2.38-94.54-.65-189.08-.94-283.61-1.51q-150.49-.91-301-2.14c-98.07-.83-196.15-1.21-294.22-1.89-45.9-.31-91.8-1.14-137.7-1.73-20.81-.27-41.62-.89-62.43-1.36-21-.46-42-.8-63-1.4q-73.68-2.13-147.35-4.28c-21.77-.65-43.54-1.23-65.31-2l-47.89-1.7c-9.33-.34-18.7-.43-28-1l-63.17-3.93c-8.5-.53-17-1.11-25.48-1.91-6.32-.6-12.64-1.24-18.95-2-9.82-1.22-19.67-3.27-29.3-5.42-5.54-1.24-11.12-2.38-16.63-3.79-12.5-3.19-23.78-8.65-35.07-14.71q-7.26-4.53-14.1-9.68c-8.21-6.08-15-13.69-21.28-21.65-7.52-9.47-12.54-20.26-17.15-31.31a111.28,111.28,0,0,1-4.72-72.06,109.94,109.94,0,0,1,19-38L-80,1261a110.9,110.9,0,0,1,22.26-17.2c2.43-1.57,4.83-3.18,7.29-4.72l2.55-1.28a85.2,85.2,0,0,1,10.38-5.4c-6.86-2.29-13.59-5-20.37-7.5a109.86,109.86,0,0,1-24.39-14.28A110.79,110.79,0,0,1-110,1179a109.68,109.68,0,0,1-14-40.6q-.5-7.45-1-14.92a110.21,110.21,0,0,1,3.93-29.24l.92-2.64a109.12,109.12,0,0,1,11.09-26.28,115.32,115.32,0,0,1,29-33.76,94.39,94.39,0,0,1,14.2-9.28,109.42,109.42,0,0,1,26.27-11.08l2.16-.52A94,94,0,0,1-56.7,974.61a93.82,93.82,0,0,1,33.14-99.22l10-6.74a93.23,93.23,0,0,1,22.41-9.46c5.91-1.94,11.62-3.89,18-4.35,4.59-.32,9.17-.72,13.76-.91l9-.36c6-.25,12.1-.57,18.15-.74,13.58-.37,27.17-.54,40.75-.81,24.32-.48,48.64-1.08,73-1.63,42.2-1,84.39-2.43,126.61-3.25q39.29-.75,78.57-1.52c26.22-.48,52.45-.46,78.68-.69,47.64-.41,95.27-.14,142.91,0q63.71.14,127.41.54c45.39.26,90.78.33,136.16.87,48.68.59,97.36,1.11,146,2q77.33,1.38,154.63,3.07c92.32,2,184.6,5.2,276.8,10.45,45,2.55,90,5.58,134.94,8.06,24.25,1.34,48.48,2.69,72.73,3.73l77.09,3.33c39.77,1.73,79.47,4.67,119.16,7.69,16.15,1.23,32.27,2.83,48.4,4.2q24.63,2.12,49.25,4c13.67.78,27.34,1.53,41,1.77q13.49.24,27,.39c8.94.09,17.92,0,26.85.59a109.82,109.82,0,0,1,94.82,165.23,111.22,111.22,0,0,1-17.4,22.43c10.13,1.08,20.12,3.41,30,5.66a109.35,109.35,0,0,1,26.28,11.09,110,110,0,0,1,11.7,182.06,107.34,107.34,0,0,1-33.42,17.74,110.15,110.15,0,0,1,39.68,47.8,107.84,107.84,0,0,1,7.87,28.31c1.66,12.23.93,18,0,30.25-.71,8.89-4.21,20.33-7.68,28.53-1.87,4.42-4.76,9.55-7.15,14.23-3.91,7.64-12.49,17.65-18.37,23.77-4.33,4.51-9.24,8.4-14,12.5l-11.7,7.9a67.8,67.8,0,0,1-15.17,8,134.38,134.38,0,0,1-33.21,9.51,192.57,192.57,0,0,1-28.65,1.83C2062.05,1512.4,2054.77,1512.17,2047.55,1512Z"/>
    </g>
  </g>
  <g id="parent-sky_layer-stars">
    <g class="cls-13">
      <path class="cls-14" d="M1209.38,988.54a1.55,1.55,0,1,1,1.55,1.55A1.56,1.56,0,0,1,1209.38,988.54Z"/>
      <path class="cls-14" d="M1202.15,908.85a1.47,1.47,0,1,1,1.46,1.46A1.47,1.47,0,0,1,1202.15,908.85Z"/>
      <path class="cls-14" d="M1071.48,922a3.66,3.66,0,1,1,3.66,3.65A3.69,3.69,0,0,1,1071.48,922Z"/>
      <path class="cls-14" d="M1031.3,795.22a2.37,2.37,0,1,1,2.36,2.36A2.39,2.39,0,0,1,1031.3,795.22Z"/>
      <path class="cls-14" d="M1124.83,738.69a.65.65,0,1,1,1.29,0,.65.65,0,1,1-1.29,0Z"/>
      <path class="cls-14" d="M1028.74,678.15a.65.65,0,0,1,1.3,0,.65.65,0,0,1-.65.64A.65.65,0,0,1,1028.74,678.15Z"/>
      <path class="cls-14" d="M851,887.45a.95.95,0,1,1,.94.95A1,1,0,0,1,851,887.45Z"/>
      <path class="cls-14" d="M879.83,759.92a.65.65,0,1,1,1.29,0,.65.65,0,1,1-1.29,0Z"/>
      <path class="cls-14" d="M824.89,817.23a3.12,3.12,0,1,1,3.11,3.11A3.15,3.15,0,0,1,824.89,817.23Z"/>
      <path class="cls-14" d="M787.57,889a4.18,4.18,0,1,1,4.18,4.18A4.22,4.22,0,0,1,787.57,889Z"/>
      <path class="cls-14" d="M855.74,701.86a4.11,4.11,0,1,1,4.11,4.11A4.15,4.15,0,0,1,855.74,701.86Z"/>
      <circle class="cls-14" cx="749.86" cy="1153.23" r="2.06"/>
      <path class="cls-14" d="M819.17,1069.38a1.89,1.89,0,1,1,1.89,1.89A1.91,1.91,0,0,1,819.17,1069.38Z"/>
      <path class="cls-14" d="M707.64,1070.33a1.46,1.46,0,1,1,1.46,1.46A1.47,1.47,0,0,1,707.64,1070.33Z"/>
      <path class="cls-14" d="M674.4,925.85a1.23,1.23,0,1,1,1.22,1.22A1.24,1.24,0,0,1,674.4,925.85Z"/>
      <path class="cls-14" d="M585.11,976.44a2.22,2.22,0,1,1,2.21,2.21A2.24,2.24,0,0,1,585.11,976.44Z"/>
      <path class="cls-14" d="M632.49,792.12a1.66,1.66,0,1,1,1.66,1.65A1.68,1.68,0,0,1,632.49,792.12Z"/>
      <path class="cls-14" d="M587.92,517.17a1.5,1.5,0,1,1,1.5,1.5A1.52,1.52,0,0,1,587.92,517.17Z"/>
      <path class="cls-14" d="M517.85,472.86a.65.65,0,1,1,.64.65A.64.64,0,0,1,517.85,472.86Z"/>
      <path class="cls-14" d="M577.36,321.8a5.28,5.28,0,1,1,5.28,5.28A5.33,5.33,0,0,1,577.36,321.8Z"/>
      <path class="cls-14" d="M391.86,520.64a.84.84,0,0,1,.83-.84.84.84,0,1,1,0,1.68A.84.84,0,0,1,391.86,520.64Z"/>
      <circle class="cls-14" cx="359.65" cy="429.56" r="2.57"/>
      <path class="cls-14" d="M362.58,383.43a2,2,0,1,1,2,2.05A2.06,2.06,0,0,1,362.58,383.43Z"/>
      <path class="cls-14" d="M277.34,530a1.08,1.08,0,1,1,1.07,1.07A1.08,1.08,0,0,1,277.34,530Z"/>
      <path class="cls-14" d="M419.39,470.3a2.15,2.15,0,1,1,2.15,2.15A2.17,2.17,0,0,1,419.39,470.3Z"/>
      <path class="cls-14" d="M294.9,489.29a1.77,1.77,0,1,1,1.77,1.77A1.79,1.79,0,0,1,294.9,489.29Z"/>
      <path class="cls-14" d="M334.51,590a1.76,1.76,0,1,1,1.76,1.76A1.78,1.78,0,0,1,334.51,590Z"/>
      <path class="cls-14" d="M398.16,683.91a1.81,1.81,0,1,1,1.81,1.8A1.83,1.83,0,0,1,398.16,683.91Z"/>
      <path class="cls-14" d="M558.73,618.3a1.18,1.18,0,0,1,2.36,0,1.18,1.18,0,0,1-2.36,0Z"/>
      <path class="cls-14" d="M1226.8,317.83a2.72,2.72,0,1,1,2.72,2.72A2.75,2.75,0,0,1,1226.8,317.83Z"/>
      <path class="cls-14" d="M1360.41,242.42a2.36,2.36,0,1,1,2.36,2.36A2.39,2.39,0,0,1,1360.41,242.42Z"/>
      <path class="cls-14" d="M1411.91,394.64a.78.78,0,1,1,.77.78A.78.78,0,0,1,1411.91,394.64Z"/>
      <circle class="cls-14" cx="1519.46" cy="186.91" r="4.63"/>
      <path class="cls-14" d="M1638.68,372.18a3.27,3.27,0,1,1,3.27,3.27A3.3,3.3,0,0,1,1638.68,372.18Z"/>
      <path class="cls-14" d="M1510.79,494a2.33,2.33,0,1,1,2.33,2.33A2.35,2.35,0,0,1,1510.79,494Z"/>
      <path class="cls-14" d="M1680.16,272.87a1.61,1.61,0,1,1,1.61,1.61A1.63,1.63,0,0,1,1680.16,272.87Z"/>
      <path class="cls-14" d="M1859.61,119.24a1.58,1.58,0,1,1,1.57,1.58A1.59,1.59,0,0,1,1859.61,119.24Z"/>
      <path class="cls-14" d="M1712.24,57.86a2.57,2.57,0,1,1,2.57,2.57A2.6,2.6,0,0,1,1712.24,57.86Z"/>
      <path class="cls-14" d="M1828.65,185.05a2.09,2.09,0,1,1,2.09,2.09A2.11,2.11,0,0,1,1828.65,185.05Z"/>
      <path class="cls-14" d="M1945.84,434.23a11.83,11.83,0,0,1,.33-4,9,9,0,0,1,2.49-3.65,3.25,3.25,0,0,1,4.88,4.29l-.6.69-.18.23-.24.4c0,.12,0,.24,0,.36a2.25,2.25,0,0,0,0,.26l.09,1.44a3.38,3.38,0,0,1-3.36,3.37A3.42,3.42,0,0,1,1945.84,434.23Z"/>
      <path class="cls-14" d="M1995.47,300.75a1.78,1.78,0,1,1,1.78,1.77A1.8,1.8,0,0,1,1995.47,300.75Z"/>
      <path class="cls-14" d="M1989.35,646a3.21,3.21,0,1,1,3.21,3.2A3.24,3.24,0,0,1,1989.35,646Z"/>
      <path class="cls-14" d="M1954.84,838.49a1.87,1.87,0,1,1,1.87,1.86A1.89,1.89,0,0,1,1954.84,838.49Z"/>
      <path class="cls-14" d="M1752.09,869.38a4.64,4.64,0,1,1,4.64,4.64A4.68,4.68,0,0,1,1752.09,869.38Z"/>
      <path class="cls-14" d="M1936.37,972a.65.65,0,0,1,1.3,0,.66.66,0,0,1-.65.65A.66.66,0,0,1,1936.37,972Z"/>
      <path class="cls-14" d="M1868.08,813.42a2.21,2.21,0,1,1,2.2,2.2A2.22,2.22,0,0,1,1868.08,813.42Z"/>
      <path class="cls-14" d="M1740.66,1099.83a1.29,1.29,0,1,1,1.28,1.28A1.3,1.3,0,0,1,1740.66,1099.83Z"/>
      <path class="cls-14" d="M1519.33,876.66a1.78,1.78,0,1,1,1.78,1.79A1.8,1.8,0,0,1,1519.33,876.66Z"/>
      <path class="cls-14" d="M781.57,471a2.71,2.71,0,1,1,2.7,2.71A2.73,2.73,0,0,1,781.57,471Z"/>
      <path class="cls-14" d="M312.49,907.32a3.65,3.65,0,1,1,3.65,3.64A3.68,3.68,0,0,1,312.49,907.32Z"/>
      <path class="cls-14" d="M216.28,1033.31A1.69,1.69,0,1,1,218,1035,1.71,1.71,0,0,1,216.28,1033.31Z"/>
      <path class="cls-14" d="M95.83,958.86a6.48,6.48,0,1,1,6.48,6.48A6.54,6.54,0,0,1,95.83,958.86Z"/>
      <path class="cls-14" d="M61.67,1133.33a2.42,2.42,0,1,1,2.42,2.42A2.44,2.44,0,0,1,61.67,1133.33Z"/>
      <path class="cls-14" d="M106.7,1267.77a2.18,2.18,0,1,1,2.18,2.18A2.2,2.2,0,0,1,106.7,1267.77Z"/>
      <path class="cls-14" d="M550.13,1360.75a3.94,3.94,0,1,1,3.94,3.94A4,4,0,0,1,550.13,1360.75Z"/>
      <path class="cls-14" d="M938.45,1412a1.8,1.8,0,1,1,1.8,1.81A1.82,1.82,0,0,1,938.45,1412Z"/>
      <path class="cls-14" d="M1146.77,1244.6a1.46,1.46,0,1,1,1.46,1.46A1.47,1.47,0,0,1,1146.77,1244.6Z"/>
      <path class="cls-14" d="M1232.22,1354.18a3.37,3.37,0,1,1,3.37,3.37A3.41,3.41,0,0,1,1232.22,1354.18Z"/>
      <path class="cls-14" d="M1498.86,1414.61a2.79,2.79,0,1,1,2.78,2.78A2.81,2.81,0,0,1,1498.86,1414.61Z"/>
      <path class="cls-14" d="M565.33,32.33A1.65,1.65,0,1,1,567,34,1.66,1.66,0,0,1,565.33,32.33Z"/>
      <path class="cls-14" d="M188.38,84.82a2.23,2.23,0,1,1,2.23,2.24A2.26,2.26,0,0,1,188.38,84.82Z"/>
      <path class="cls-14" d="M120.77,298.39a1.46,1.46,0,1,1,1.45,1.46A1.47,1.47,0,0,1,120.77,298.39Z"/>
      <path class="cls-14" d="M43.81,450a3.46,3.46,0,1,1,3.46,3.46A3.49,3.49,0,0,1,43.81,450Z"/>
      <path class="cls-14" d="M26.64,254.13a1.66,1.66,0,1,1,1.66,1.66A1.68,1.68,0,0,1,26.64,254.13Z"/>
      <path class="cls-14" d="M906.93,96a2.66,2.66,0,1,1,2.65,2.66A2.68,2.68,0,0,1,906.93,96Z"/>
      <path class="cls-14" d="M1471.68,1123.49a1.18,1.18,0,1,1,1.18,1.18A1.18,1.18,0,0,1,1471.68,1123.49Z"/>
      <path class="cls-14" d="M1477.7,1125.14a2.16,2.16,0,1,1,2.16,2.16A2.18,2.18,0,0,1,1477.7,1125.14Z"/>
      <path class="cls-14" d="M1207.93,580.59a6,6,0,1,1,6,6A6.09,6.09,0,0,1,1207.93,580.59Z"/>
      <path class="cls-14" d="M152.53,14a5.67,5.67,0,1,1,5.67,5.66A5.72,5.72,0,0,1,152.53,14Z"/>
      <path class="cls-14" d="M153,23.94a1.27,1.27,0,1,1,1.27,1.27A1.28,1.28,0,0,1,153,23.94Z"/>
    </g>
  </g>
</svg>
