<svg xmlns="http://www.w3.org/2000/svg" viewBox="0 0 2048 1536">
  <defs>
    <style>
      .cls-1 {
        fill: #3c3c3c;
      }

      .cls-2 {
        fill: #262626;
      }

      .cls-3 {
        fill: none;
      }

      .cls-4 {
        fill: #908e8c;
      }
    </style>
  </defs>
  <g id="Layer_5" data-name="Layer 5">
    <g>
      <path class="cls-1" d="M2011.26,308.88a6.06,6.06,0,0,1-5.14-6.77c.17-1.25.35-2.49.53-3.73a12.11,12.11,0,0,1,.6-2.53,8.87,8.87,0,0,1,1.4-2.35,5.93,5.93,0,0,1,9.7,6.8c-.13,1.15-.2,2.29-.32,3.44a6,6,0,0,1-6,5.2A4.87,4.87,0,0,1,2011.26,308.88Z"/>
      <path class="cls-1" d="M2037.46,1315.36a46.81,46.81,0,0,1-30.55-17.68,47.39,47.39,0,0,1-9.28-34.79l.27-2.44c.57-11.86.55-23.74.48-35.62-.08-13.1-.22-26.2-.57-39.29q-.64-24.8-1.3-49.58a46.15,46.15,0,0,1-38.52-45.52c0-7.1.5-14.2.73-21.3.24-7.55.36-15.1.45-22.66.15-12.8-.19-25.62-.52-38.41-.71-27.74-.75-55.46-.67-83.2,0-14.61.93-29.25,1.67-43.84.63-12.47,1.61-24.91,2.41-37.37q.86-13,1.59-26c-.87-22.9-1.23-45.81-1.42-68.74-.11-12.75-.18-25.5-.49-38.24-.34-14.48-.86-28.92-1.48-43.39-.31-7.53-.87-15.06-1.21-22.6a33.49,33.49,0,0,1,.5-7.32c-.22-5.61-.46-11.21-.69-16.81-.29-6.92-.22-13.87-.31-20.8-.1-6.74,0-13.48.06-20.23.07-13,.43-26,.75-39,.39-15.71,1-31.35,2.45-47,.61-6.65,1.19-13.3,1.78-19.95l-.15-1.13c-.84-6.44-1.32-12.91-1.8-19.39-1.09-14.73-.77-29.54-.84-44.29-.13-26.14-.79-52.29-.66-78.44.14-27.21.25-54.44.86-81.64q-.29-8.52-.56-17c-.13-4.2-.11-8.4-.11-12.61l0-29.08c0-13.53.54-27.06.92-40.59.25-9.18.78-18.41,1.49-27.58q.51-6.75,1-13.5c.17-2.21.4-4.42.61-6.62-.1-.45-.19-.9-.26-1.35A205.77,205.77,0,0,1,1962,78.7c-.38-6.27-.85-12.56-.94-18.85-.1-6.12-.11-12.23.08-18.35.1-3.33.29-6.7.69-10,.08-.69.19-1.38.31-2.06a24.94,24.94,0,0,1,.37-10.39,22.21,22.21,0,0,1,1.15-3.39c-.06-.19-.11-.38-.16-.56a27.3,27.3,0,0,1,2.73-20.91c6.62-11.29,21.81-17,34-11.3l1,.43c1.79.27,3.59.52,5.37.88a66.32,66.32,0,0,1,14.68,4.58,43.44,43.44,0,0,1,9,5.51c1,0,2,.14,3.06.26A25.63,25.63,0,0,1,2048,2.18c4,4,6.4,9.36,7.85,14.75a91.33,91.33,0,0,1,2.38,16.62c.66,8.57.83,17.17,1.16,25.75.29,7.48.1,15,.14,22.49,0,5.86,0,11.72,0,17.58-.16,29.14,0,58.28.3,87.42q.11,11.07.23,22.14c-.19,1.17-.38,2.35-.56,3.52-.91,5.87-1.61,11.78-2.34,17.67-1.42,11.56-2.46,23.16-3.6,34.75-1.94,19.79-3.3,39.58-4.43,59.44-.91,15.79-1.6,31.6-1.83,47.42q-.37,25.26,0,50.5c.16,10.14.46,20.32,1.41,30.43.53,5.72.91,11.46,1.91,17.13,1.5,8.55,3.14,17.13,6.41,25.21q-.37,18.06-.77,36.12c-.76,32.12-2.06,64.21-3.65,96.3q-2.37,35.91-4.52,71.86c-1.71,28.48-2.47,57-2.85,85.53.06-3.26.11-6.53.16-9.79-.24,14.77-.35,29.54-.44,44.31l.06-10c-.39,43.42-2.41,86.78-3.41,130.18s.09,86.88,1.56,130.33c.58,17.07.79,34.12.45,51.19-.36,17.92-1.11,35.83-1.57,53.75-.42,16.08,0,32.19.19,48.28q.4,26.31.77,52.62.29,20,.57,40.09A45,45,0,0,1,2037.46,1315.36Z"/>
      <path class="cls-1" d="M1029.47,1075.84l-.11,0-2.85-.19ZM2031,1578.89q-63-5.3-125.8-11c-11.72-1-23.5-1.69-35.24-2.53l-65.25-4.64-12.78-.91c-25.63-1.34-51.27-2.81-76.9-4.21q-16.24-.9-32.5-1.78c-12.64-.69-25.3-.81-38-1.22-10.09-.33-20.18-1-30.23-2-4.36-.44-8.71-1-13-1.89a85.7,85.7,0,0,1-8.55-1.88c-2.48-.65-4.92-1.48-7.38-2.18a47.58,47.58,0,0,1-23.5-15.17q-14.78-.43-29.55-.8c-64-1.58-128-3.29-191.92-4.35q-103.26-1.69-206.48-3.06l-32.07-.4c-9.57-.13-19.15.08-28.73.23-7.34.11-14.67.1-22-.18-3.54,0-7.09-.1-10.63-.27-4.58-.22-9.19-.45-13.73-1.09-4.14-.59-8.23-1.76-12.3-2.72-9.63-2.3-18.55-8.74-24.55-16.49a46.83,46.83,0,0,1-8.65-18.61l-14.88.36-23.83.59c-11.85.3-23.7.27-35.55.24-5.31,0-10.61,0-15.92,0a46.62,46.62,0,0,1-28.48-83.53l5-3.35c.58-.34,1.18-.67,1.77-1a49.19,49.19,0,0,1-4.07-5.9A46.44,46.44,0,0,1,877.08,1329c4.55-3.53,10.33-6.81,16-8l1.83-.39c.38-.32.76-.62,1.15-.92a48.82,48.82,0,0,1,15.74-7.88q2.53-.76,5.1-1.41a44.62,44.62,0,0,1-15.69-39.54q-4.11-.24-8.22-.54c-9.39-.69-18.71-1.89-28-3a11.37,11.37,0,0,1-9.38-8.21l-.3-1-15.77.32c-15.71.32-31.43.56-47.14.81l-34.8.56c-6.36.1-12.72.28-19.09.44-7.3.18-14.59.27-21.89.16-6.76-.09-13.49-.42-20.24-.69-7.49-.31-14.46-2.34-20.46-7a33.48,33.48,0,0,1,3.56-55.44l.25-.14a44.13,44.13,0,0,1,5.62-16.25c5.66-9.66,15.47-17.72,26.49-20.37,4.88-1.17,9.74-2.34,14.67-3.32,4.24-.84,8.52-1.38,12.8-1.91,8.84-1.09,17.73-1.88,26.6-2.62l16.84-1.4q22.53-1.87,45-3.74c15.22-1.27,30.5-2,45.73-3l4.5-.3a39.72,39.72,0,0,1,2.86-10.89,40.76,40.76,0,0,1,16.61-18.9,86.85,86.85,0,0,1,8.73-4.81,71.54,71.54,0,0,1,9.42-3.41,88.67,88.67,0,0,1,10-2.17c2.45-.43,4.88-.78,7.34-1.09,5.7-.71,11.45-1.2,17.18-1.68l29.68-2.49c3.16-.26,6.32-.56,9.48-.83a31.87,31.87,0,0,1,14.83-19.79,35.46,35.46,0,0,1,11.74-4c4.49-.85,8.92-1.75,13.46-2.23,5.62-.61,11.28-.88,16.93-1.16q7.53-.37,15.08-.54l29.14-.68c13.75-.33,27.53-.34,41.28-.39,15.07-.06,30.15-.18,45.22-.11l29.29.13c7,0,14.06.36,21.08.55,19.72.55,39.39,2,59,3.72q6,.53,12,1.15c.84-.19,1.68-.37,2.54-.52a67.56,67.56,0,0,1,10-.83c4.23-.11,8.43-.07,12.66,0,7.4.08,14.8.33,22.2.47,14.69.29,29.38.51,44.07.79,15.46.31,30.93.73,46.4,1,14.06.21,28.13-.09,42.19-.38,30.61-.62,61.22-1.37,91.84-1.72,14.39-.17,28.78.25,43.18.49,15.66.27,31.32.52,47,.9,30.29.73,60.59.48,90.89.23l17.46-.13c5.6-6.58,13.86-11.45,22.5-12.35,11.08-1.13,22.25-.25,33.35.17,8,.31,16.07,1,24.1,1.53,15.13,1,30.25,2.42,45.32,4,8.26.89,16.56,1.61,24.81,2.66l11.37,1.46,17,1c8,.46,16,.37,24,.26a40.37,40.37,0,0,1,27.8,10.88l6.8,1.64c3.79.91,7.56,2,11.28,3.22a79.7,79.7,0,0,1,8.34,3.14c3.24,1.48,6.34,3.26,9.48,4.94a31,31,0,0,1,8.81,7.19q0,8.31-.17,16.62c-.2,10.46-.54,20.92-.89,31.38l-.15.19a46.56,46.56,0,0,1-7.84,7.53,39.84,39.84,0,0,1-11.09,5.89c-.17,1.08-.39,2.18-.66,3.27,1.88.69,3.73,1.45,5.56,2.32a41.08,41.08,0,0,1,13.38,9.66c-.2,13.93.11,27.87.32,41.79q.4,26.31.77,52.62c.43,31,.86,62,1.51,93.06.1,13.84,0,27.68.06,41.53,0,13.37.32,26.74.55,40.11.6,33.5.2,67,1.12,100.51q.38,13.72.37,27.42c-1.08.23-2.18.42-3.29.57a46.26,46.26,0,0,1-12.29,0Z"/>
      <path class="cls-1" d="M452.13,1588.42c-33.1-1.3-66.16-3.26-99.27-4.49-29.91-1.1-59.82-2.36-89.74-3.06-63.53-1.49-127-2.62-190.57-4.18q-12.57-.3-25.13-.69l-18.86-.59c-3.54-.12-7.08.11-10.63.27a76.44,76.44,0,0,1-13-.79c-2.69-.47-5.35-1.05-8-1.74-4.35-1.09-8.23-3.17-12.14-5.3a43.66,43.66,0,0,1-16.12-16.12A45.17,45.17,0,0,1-37,1523a45.36,45.36,0,0,1,10.21-22.79,79.85,79.85,0,0,1-2.78-14.94,163,163,0,0,1-.42-24q1-16.51,2.26-33c.37-6,.72-11.89.84-17.85.07-3.31.23-6.6.06-9.9-.14-2.74-.29-5.49-.43-8.24-.65-6.46-1.3-12.92-1.85-19.39-.81-9.51-1.31-19-1.73-28.55-.28-6.56-.05-13.19.08-19.76q.22-12.06.38-24.13c.37-28.48,1.16-57,1-85.43-.07-14.34,0-28.66.66-43,.39-9,.91-18,1.62-27a104.7,104.7,0,0,1,1.61-10.87c-.37-1.15-.72-2.31-1-3.47a117.45,117.45,0,0,1-3.19-13.17c-2-13,2.88-26.7,12.09-35.92,10.54-10.53,27-15.33,41.46-11,18.1,5.48,34.11,19.46,40.88,37.28a60.61,60.61,0,0,1,3.83,14.77,65.15,65.15,0,0,1-.15,15.91c-.33,2.5-1,5-1.39,7.46-.9,5.13-1.55,10.25-2,15.42q-1.05,19.66-1.38,39.34c-.11,7.24,0,14.48,0,21.71,0,7.82-.11,15.63-.22,23.44-.2,14.3-.77,28.59-1,42.89-.24,14-.76,28-.93,41.93,0,4.52-.28,9.07-.14,13.59s.29,9.08.43,13.62q.79,10.86,1.71,21.73c.49,5.83.7,11.64.9,17.48.16,4.46,0,8.79-.14,13.25-.47,11-1.49,22-2.57,33,8.3-1.53,16.57-3.14,25-4.12,12.19-1.43,24.48-2.1,36.73-2.73,10.77-.55,21.54-1,32.3-1.58l53.86-2.82c24.92-1.31,49.82-2.7,74.77-3.56l37-1.27c19.82-1.91,39.68-3.48,59.51-5.24l50.19-4.49c8.91-.79,17.85-1.16,26.78-1.66l118.09-6.58c6.24-.35,12.45-.71,18.7-.81l50.57-.84,64.23-1.06,22.53-.38c2.77,0,5.55-.19,8.31-.13,33.84.68,67.68,1.58,101.51,2.37l23.83.56c2.72.07,5.45.06,8.16.2q22,1.17,44,2.34l57.75,3.08c11.49.61,22.94,1.59,34.41,2.52l54.54,4.41c4.79.39,9.57,1,14.35,1.46l29.36,3c8.53.89,17,2,25.54,3,17.91,2.17,32.47,17.16,34.88,34.88a41.05,41.05,0,0,1-1.11,16.44q8-.09,16-.11l34.92,0a403.34,403.34,0,0,1,41,2.1,65.9,65.9,0,0,1,17.33,3.84,16.11,16.11,0,0,1,8.28,7.1,10.86,10.86,0,0,1,.72,1.65,33.7,33.7,0,0,1,11.11,3.39c13.73,1.22,27.43,3,41.13,4.49,8.24.91,16.36,2.43,24.53,3.81a24.14,24.14,0,0,1,13.33,6.62,23.33,23.33,0,0,1,2,30.76c-3.85,5-9.21,7.74-15.31,8.87a123,123,0,0,1-14.65,2.2c-5.13.32-10.26.46-15.4.48-7.84,0-15.68-.27-23.52-.49a37,37,0,0,1-23.59,13.33c-21.06,2.86-42.25,1-63.39.3l-15.2-.47-62-1.89c-26.57-.82-53.13-1.86-79.69-2.84l-193.56-7.21-2.32-.08q-43.71.57-87.43,1.25l-28.3.41a74.32,74.32,0,0,1-11.43,2.85c-11.66,2-23.37.78-35-.17-5.62-.24-11.26-.14-16.88-.14H659.77c-14.19,0-28.37.08-42.56,0q-34-.12-68-.27l-24.71.1-31.56.1a43.94,43.94,0,0,1-9.88,15.17c-7.6,7.61-18.66,12.83-29.59,12.83C453,1588.44,452.57,1588.44,452.13,1588.42Z"/>
      <path class="cls-1" d="M53.17,1100.79c0-.23-.08-.46-.11-.69q-3.68,0-7.35,0Zm609.44,25.6c-1-.24-2-.46-2.93-.67-2.86-.53-5.72-1-8.61-1.39-3.9-.49-7.85-.72-11.76-1-4.38-.36-8.74-.77-13.11-1.09-15.46-.87-30.92-1.79-46.37-2.93-7-.51-14-1.3-21-2.08-7.6-.85-15.16-2.11-22.74-3.1-6.94-.91-13.9-1.59-20.85-2.4-7.71-.9-15.4-1.89-23.12-2.67-11.15-.69-22.31-1-33.47-1.33a14.35,14.35,0,0,1-11.78,6.53,106.38,106.38,0,0,1-10.84-.68l-7.78-.62c-4.93-.39-9.87-.74-14.8-1.1-3.58-.23-7.17-.45-10.75-.66-2.79-.1-5.57-.18-8.36-.25-16-.41-32.08-.79-48.13-1-29.16-.37-58.34-.56-87.5-.35l-28.59.2c-7.6,0-15.19.3-22.79.45-15,.31-30,.9-45,1.44-14.77.53-29.54.8-44.31,1.32-6.82.23-13.63.6-20.44.86-7.65.28-15.31.51-23,.79l-2,.07c-.79,0-1.57.08-2.35.06a24.34,24.34,0,0,1-4.81-.67,15.43,15.43,0,0,1-6.94-3.82c-5.37,0-10.74-.19-16.11-.19q-10.95,0-21.9,0c-14.86.09-29.71.34-44.55.46a3.43,3.43,0,0,1-3.4-3.41,3.42,3.42,0,0,1,3.4-3.39l8.33-.06c-2.05-.28-4.09-.58-6.14-.91a5.89,5.89,0,0,1-3.82-9.34,12.1,12.1,0,0,1,2.87-2.93,14.86,14.86,0,0,1-1.51-1.32,13.89,13.89,0,0,1-4.06-9.79,13.89,13.89,0,0,1,4.06-9.79,13.44,13.44,0,0,1,9.78-4q6.62.42,13.22.65c7.32-1.76,15.1-1,22.58-1l15.17.06c7.14,0,14.28.1,21.41.2,7.5.11,15,.24,22.45.55l8.61.34,2.53-.24c3.65-.34,7.32-.52,11-.77s7.35-.57,11-.71c7.79-.29,15.57-.62,23.36-.68s15.71-.07,23.58,0c31,.49,62,1,93,2,29.59.93,59.17,1.9,88.76,2.5,14.7.3,29.38,1,44.08,1.18q23.21.3,46.43.07c14.63-.14,29.27-.27,43.91-.07,8,.12,16,.3,24,.77,7.76.45,15.49,1.32,23.23,2s15.58,1.56,23.36,2.48c7.39.88,14.74,2.08,22.14,3,6.91.87,13.84,1.65,20.78,2.28,7.56.69,15.13,1.21,22.7,1.77,8.69.63,17.43,1,26,2.27a155.39,155.39,0,0,1,18.65,3.6,57.54,57.54,0,0,1,11.72,5c2.06,1.12,4.09,2.28,6.08,3.53a16.91,16.91,0,0,1,6.83,7.77,16.4,16.4,0,0,1-6.83,20.53,16.17,16.17,0,0,1-8.21,2.19A19.09,19.09,0,0,1,662.61,1126.39Z"/>
      <path class="cls-1" d="M67.46,1488.63c-11.29-1.54-22.06-8.44-27.65-18.47a76.94,76.94,0,0,1-4.38-8.7,49.93,49.93,0,0,1-2.6-8.88,41.29,41.29,0,0,1-9-10.65,47,47,0,0,1-4.5-10.67,52.28,52.28,0,0,1-1.5-12.07,53.12,53.12,0,0,1,.67-8.16,84.23,84.23,0,0,1,1.74-8.73c.87-3.73,2-7.41,3.08-11.1,2.74-9.75,6.12-19.35,9.39-28.94a64.42,64.42,0,0,1-7-16.65,59.26,59.26,0,0,1-1-24.55,63.9,63.9,0,0,1,7.5-21.36,94.76,94.76,0,0,1,6.54-9.75c-1.3-3.16-2.68-6.28-4.17-9.35-1.16-2.29-2.31-4.57-3.45-6.87a39.16,39.16,0,0,1-11.68-69.88,42.93,42.93,0,0,1-6.71-5.46A42,42,0,0,1,1.07,1161a49.63,49.63,0,0,1-3.46-4,43.23,43.23,0,0,1-8.88-20.45,44,44,0,0,1-.14-11.47,41.7,41.7,0,0,1,4.88-14.11A36.77,36.77,0,0,1,0,1102.1a39.53,39.53,0,0,1,13.19-9.1,54.94,54.94,0,0,1,10.68-3,65.48,65.48,0,0,1,7.42-.59,47.61,47.61,0,0,1,10.15.89c2.77.48,5.54,1,8.3,1.57,20.9,4.09,42.23,5.47,63.42,7.27q24.6,2.09,49.25,4l31.52,1.6c12,.61,24,.71,36,1.06,13.28.39,26.57.68,39.85,1q18.58-1.17,37.17-2.09,34.78-1.73,69.57-3.22c23.25-1,46.51-1.74,69.76-2.49l9-.28a17.71,17.71,0,0,1-2.81-9.42,17.38,17.38,0,0,1,3.62-10.61,18.11,18.11,0,0,1,11.39-6.6,71.24,71.24,0,0,1,11.32-.79l8.23-.23q7.35-.16,14.71-.24,15.77-.15,31.55-.34c22.88-.31,45.75-.6,68.63-.58q23,0,46,.4,11.12-.13,22.25-.15c9.94,0,19.85.13,29.8.36a19.39,19.39,0,0,1,1.17-1.68,22,22,0,0,1,17-8.37c5.34-.16,10.7,0,16,.13l17,.23c10.81.15,21.59.53,32.4.94q31,1.18,62,3.19c21.55,1.38,43.09,2.86,64.68,3,22,.11,43.89-.09,65.84-.09,6,0,12.08,0,18.12,0,7.79.13,15.65.13,23.38,1.11a23.75,23.75,0,0,1,13.91,6.43,20.62,20.62,0,0,1,5.93,12.08,19.52,19.52,0,0,1,2.89,7.84A19.88,19.88,0,0,1,1038,1108a20.46,20.46,0,0,1-11.84,9.1c-5.2,1.64-10.77,1.25-16.15,1.17l-9.14-.12c-4.85-.07-9.69-.26-14.53-.45-9.5-.39-19-.9-28.48-1.31-10.06-.43-20.12-.78-30.17-1.32l-2.09-.11A29.52,29.52,0,0,1,928,1126.6a30,30,0,0,1-8.75,21.13,30.72,30.72,0,0,1-21.14,8.76c-10.08.33-20.15.8-30.22,1.23q-10.5.75-21,1.53a46.64,46.64,0,0,1-.73,45.83,51.54,51.54,0,0,1-11.79,13.4,32.52,32.52,0,0,1-5.69,4,59.46,59.46,0,0,1-12.32,5.09c-4.32,1.39-9.38,1.74-13.93,2.12-4.95.42-9.94.69-14.9,1l-7.43.48a46.35,46.35,0,0,1-2.29,7.67l12.09-.37c3.62-.12,7.24.11,10.86.23l21.5.69a291.34,291.34,0,0,1,40.08,4.24,228.16,228.16,0,0,1,25.44,5.75A141.2,141.2,0,0,1,915.7,1261a73.19,73.19,0,0,1,11.45,7.92c2.3,1.92,4.55,3.93,6.68,6s3.83,4.27,5.71,6.44a34.25,34.25,0,0,1,2.34,3.15,67.47,67.47,0,0,1,4.8,7.67c2.07,4.1,4.23,8.24,5.32,12.75,1.18,4.9,2.52,10.5,2.22,15.62a72.57,72.57,0,0,1-.81,9.43,63.83,63.83,0,0,1-3.68,13.21c-.64,1.59-1.33,3.16-2,4.74-1,2.33-2.15,4.62-3.28,6.9-5.63,11.34-11.69,22.33-18.41,33.06A193.58,193.58,0,0,1,910.55,1410c-1.89,2.26-3.89,4.51-5.95,6.64s-4.45,4-6.7,6c-4.06,3.57-9.59,6.41-14.53,8.52-7.26,3.11-15.13,4.31-22.94,4.89-12.54.93-25.13.79-37.71.88q-31.54.22-63.1-.28c-12.17-.2-24.42-.76-36.53-2.09-10.73-1.18-21.43-2.52-32.13-3.81q-7.66-.92-15.32-1.77c-.8,1-1.65,1.87-2.53,2.76a45.31,45.31,0,0,1-14.36,9.68,47.85,47.85,0,0,1-17.59,3.55c-11.38.35-22.75.92-34.12,1.52-37,2.63-74,5.52-111,7.85q-28.15,1.89-56.31,3.72l4.51-.3c-12.34.81-24.7,1.4-37,2.08-9.29.5-18.63,1.25-27.94,1.48l-41,1c-7.87.19-15.75.4-23.62.39-23.41,0-46.82,0-70.23-.3q-22.84-.24-45.71-.53c-7.83-.1-15.64-.32-23.45-.78-9.31-.55-18.65-.93-27.93-1.85a147.44,147.44,0,0,1-23.7-4.78,90.12,90.12,0,0,1-9.33-3.08c-.82,2.29-1.66,4.58-2.5,6.86l-1.61,4.62c-.93,2-1.9,3.87-2.94,5.76-2.65,5-7,9.06-11.38,12.49A38,38,0,0,1,72.54,1489,37.48,37.48,0,0,1,67.46,1488.63Z"/>
      <path class="cls-1" d="M12.78,1161.24a36.79,36.79,0,0,1-8.15-4.77,33.53,33.53,0,0,1-9.28-10.55c-.94-1.83-1.89-3.66-2.77-5.52a21.77,21.77,0,0,1-6.51-4.82c-3.64-4-6.91-8.2-8.35-13.58a65.45,65.45,0,0,1-2.12-14.32c-.18-4.54-.17-9.08-.29-13.61l-.66-24.46c-.34-12.48-.21-25-.25-37.44-.08-21.67.24-43.34.43-65q.68-79.54.88-159.08c.11-28.56-.06-57.09-1.1-85.63-.29-8,2.86-16.33,7.71-22.61a37,37,0,0,1,4.93-5.23q-.24-9.47-.53-19a14.57,14.57,0,0,1,.81-5.19c-.53-22.8-.8-45.61-1.24-68.42-.26-13.26-.56-26.51-.67-39.78-.1-12.34.29-24.7.49-37,.19-10.91.1-21.82.1-32.74,0-13.64.16-27.26.41-40.9.2-10.52.78-21,1.25-31.55.57-12.57,1.15-25.13,1.51-37.7.73-25.58,1-51.17,1.38-76.76.35-23.7,2-47.33,3.2-71,1.2-24,1.51-48,1.48-72,0-12.43-.12-24.88.13-37.31.25-12.07.57-24.13.67-36.19.17-20.62.28-41.26-.36-61.87A46.6,46.6,0,0,1-6.36,11.46C-6.12,4.88-5.17-2-2.24-8L.39-13.25a45.72,45.72,0,0,1,7.12-9.21A45.91,45.91,0,0,1,22.4-32.62a47.28,47.28,0,0,1,30.56-2A47.56,47.56,0,0,1,77.78-17.66c5.68,7.34,8.55,15.94,9.94,25A91.41,91.41,0,0,1,88.39,18c.39,11,0,22.1-.11,33.12-.27,24.87-1.07,49.71-2,74.57-.93,23.31-.7,46.67-1.74,70Q84,207.3,83.46,219c-.32,7.2-1,14.4-1.53,21.58-.92,12.31-2,24.61-3.1,36.9-.73,8.33-1.15,16.7-1.72,25.05.12-1.68.23-3.36.35-5-1,23.39-1.7,46.81-3.06,70.18-.83,14.35-1.65,28.71-2.78,43.05q-1.56,20-3.16,40.08c0,.64-.1,1.28-.16,1.91-.65,11.19-1.28,22.36-1.72,33.55-.46,12-.75,23.95-1.43,35.9q-1.07,18.4-2.17,36.79c-.76,12.48-.88,25-1,37.49q-.45,36.08.19,72.14c.43,24,1.19,48.09,1.6,72.13q.65,37.69.24,75.37c-.27,21.79-1.11,43.57-1.65,65.35l0,1.82c.38,25.71.76,51.41.93,77.12q.26,37.3.19,74.61,0,22.26.05,44.53c0,7.14,0,14.27,0,21.41v3.63c.28,7.61.53,15.23.34,22.83a37.81,37.81,0,0,1-7.66,22.47,37,37,0,0,1-19.34,13,37.06,37.06,0,0,1-24.09-1.57Z"/>
      <path class="cls-1" d="M47.17,1078c-4-1.81-7-4.86-9.71-8.22-.72-.91-1.41-1.84-2.06-2.8-.15.33-.3.66-.46,1a4.63,4.63,0,0,1-3.56,2.72,4.52,4.52,0,0,1-4.52-2.19,31.53,31.53,0,0,1-2-4.5,19,19,0,0,0-.79-1.87c-.32-.61-.65-1.21-1-1.8s-.8-1.08-1.24-1.6c-.2-.22-.42-.44-.64-.64l-.4-.31-.34-.2c-.42-.17-.84-.34-1.26-.49-5.17-1.74-11-3.44-14.33-8a3.49,3.49,0,0,1,5.52-4.26c.22.33.45.63.69.94s.5.51.76.74.58.48.89.7c.83.54,1.67,1,2.55,1.5.61.28,1.22.53,1.85.76s1.45.42,2.19.6a17.82,17.82,0,0,1,4.11,1,12.32,12.32,0,0,1,2.82,1.66,15.42,15.42,0,0,1,.18-4,191.19,191.19,0,0,1-6.73-23.48c-1.94-8.27-3.49-16.61-4.83-25-.7-4.4-1.43-8.82-1.92-13.26Q10.82,967.41,8.7,948c-.52-4.75-.63-9.58-.94-14.35q-.76-12-1.54-24c-.7-10.93-1-21.89-1.38-32.84Q4.39,864.9,4.05,853a19.42,19.42,0,0,1-9.68,4.25A19.42,19.42,0,0,1-18,854.81a20.21,20.21,0,0,1-8-9.15,40,40,0,0,1-2.63-6.4A52,52,0,0,1-30,831.81c-.45-3.88-.73-7.85-.93-11.75-.14-2.92-.29-5.85-.43-8.77-.25-5.15-.58-10.31-.72-15.47-.34-11.73-.71-23.45-.88-35.19-.34-24.09-.3-48.18-.36-72.26-.07-22.35-.46-44.69-.94-67-.09-4.12-.2-8.24-.27-12.36-.06-3.19,0-6.3.22-9.51.52-7.45,3.32-15.24,9-20.32a27.42,27.42,0,0,1,5.48-4.24,26.76,26.76,0,0,1,6.48-2.73c.54-.15,1.08-.28,1.63-.4,0-1,0-1.95,0-2.93.07-3.75.11-7.49.31-11.24.14-2.36.32-4.73.59-7.08a49.05,49.05,0,0,1,1.44-6.3A14.69,14.69,0,0,1,4.78,533.53c7,0,13.82,5.46,14.46,12.61.74,8.34.75,16.73,1,25.1.17,5.52.35,11,.51,16.57,0,.49,0,1,0,1.47.08.11.15.23.22.34a22.6,22.6,0,0,1,3.24,12,23.79,23.79,0,0,1-2.79,11.16q.18,6.93.38,13.87c.63,23.24,1.48,46.47,2.34,69.7s1.65,46.19,2.35,69.29q1,31.27,1.26,62.56.43,37.74,1.24,75.46c.13,6.43.62,12.87.94,19.3q.56,11.16,1.1,22.32,1.3,13.63,2.64,27.29c.4,4.09.8,8.2,1.19,12.3s1.09,8.23,1.69,12.32c.89,6.06,1.91,12.09,3.11,18.1a208.67,208.67,0,0,0,6.47,24.86c1.08,3,2.27,6,3.6,8.9a21.81,21.81,0,0,1,4.7-.81,25,25,0,0,1,4.89.17,13.21,13.21,0,0,1,10.3,7.9c1.81,4.3.75,8.89-.77,13.08a16.85,16.85,0,0,1-9,9.36,11.59,11.59,0,0,1-5,1.06A18.86,18.86,0,0,1,47.17,1078Z"/>
      <path class="cls-1" d="M1874.39,53.53c-5.53-.05-11.06,0-16.58-.19-6.57-.21-13.09-.65-19.64-1.16a67.71,67.71,0,0,1-9.51-1.29,28.77,28.77,0,0,1-10.12-4.68,15.44,15.44,0,0,1-3.2-2.94L1804,43.18a16.47,16.47,0,0,1-5.48,1.46,120.46,120.46,0,0,1-12.75.21q-15.51.27-31,.59c-8.21.16-16.41.34-24.63.3l-38.78-.23c-6.19,0-12.36-.3-18.54-.55l-1.9,0c-37.84-.27-75.71-.47-113.56-1.11l-3.73-.07a7.82,7.82,0,0,1-7.05,6.13,47.59,47.59,0,0,1-6.54.3c-2.68-.1-5.34-.39-8-.54l-7.85-.44q-6.21-.35-12.43-.66-14.37-.75-28.75-1.31c-7.27-.29-14.51-.56-21.78-.71q-3.66,0-7.35,0-13.58,0-27.14-.62c-17.17-.06-34.34.06-51.5-.38l-35-.9c-3.11-.08-6.23-.34-9.34-.54-6.61-.43-13.2-1-19.75-1.84-4-.52-8-1.12-12-1.87-5.29-.19-10.58-.38-15.88-.51q-15.84-.39-31.66-.55-15.09-.15-30.16-.22c-9.07-.05-18.15-.41-27.22-.64-4.69-.12-9.39-.57-14.08-.86-4.2-.26-8.42-.43-12.61-.77-10.56-.86-21.14-1.68-31.7-2.6-9.53-.83-19-1.61-28.43-3.3a21.52,21.52,0,0,1-12.29-7.29,22.23,22.23,0,0,1-3-4.7,24.92,24.92,0,0,1-2.11-8.12l-.06-.51a20,20,0,0,1,1.22-8.63,21.81,21.81,0,0,1,4.47-7.49,22.18,22.18,0,0,1,14.91-7.13c5.83-.38,11.71-.15,17.55,0l14.52.31c9.76.22,19.5.63,29.24,1.11,18.73.92,37.47,1,56.2,1.69,9.41.34,18.81.74,28.23.88l3.3,0a21,21,0,0,1,12.86-5.17c19.7-.28,39.41-.8,59.11-1,20.23-.22,40.45-.25,60.68-.2,12.12,0,24.24.14,36.37.23,18.07,0,36.14.05,54.21-.35q30-.66,59.9-1.44c18.89-.52,37.79-1.28,56.68-1.56,19.73-.29,39.48-.57,59.21-1.09s39.2-1.23,58.78-2.41q27.65-1.68,55.31-3.25,28.72-1.63,57.5-2.25c19-.37,38-.12,57-.84,8.78-.34,17.56-.71,26.35-.86s17.51,0,26.26-.18c9.32-.17,18.61-.19,27.92.07,4.32.13,8.63.29,13,.52,1.94.09,3.88.21,5.83.28,1,0,1.94.06,2.91.13a41.84,41.84,0,0,1,4.59.63,28.06,28.06,0,0,1,6.63,2.43,21.85,21.85,0,0,1,10,10.33,22.71,22.71,0,0,1,.93,17.26,23.08,23.08,0,0,1-20.88,15.13,14,14,0,0,1,.39,4.43,14.44,14.44,0,0,1-15.53,13.43v.07l-.69,0a17.89,17.89,0,0,1-6.8,8.88,26.46,26.46,0,0,1-8.12,4.15,50.68,50.68,0,0,1-8.4,1.34c-2.42.28-4.84.52-7.27.78-4.09.43-8.21.76-12.32,1-9.94.65-19.88,1.14-29.83,1.59-5,.23-10,.23-15,.34-2.51.06-5,.08-7.51.08Z"/>
      <path class="cls-1" d="M1265.08,48.68c-7.44-1-14.91-2.08-22.3-3.43l-.81-.15c-7.78.09-15.55.38-23.34.48-9.84.13-19.67-.5-29.52-.66-5.6,0-11.2,0-16.79-.13-5-.14-9.89-.32-14.83-.43-5.84.11-11.67.31-17.51.43-6.13.13-12.26,0-18.39-.1-4.59,0-9.3,0-13.75-1.22-9.45,0-18.9-.32-28.35-.46q-10.38.41-20.73.3-1.92.07-3.84.18l-4.58.24c-1.37.07-2.52.15-3.89.15l-3.26,0-1.2-.15-3.11.15c-4.3.2-8.61.4-12.91.68-3.81.25-7.64.57-11.46.68-8.43.25-16.86.17-25.29.11q-39.91,0-79.81-.61c-4,0-8.09.05-12.14.09-4.37,0-8.75.1-13.12.1q-16.7,0-33.37-.28c-9.14-.14-18.28-.1-27.42-.28s-18.32-.42-27.49-.5c-19.88,0-39.76.07-59.63.84-10.78.42-21.57.8-32.35,1.21-10.32.38-20.63.92-30.95,1.28-14.36.5-28.75,0-43.11-.23-13.69-.21-27.37-.4-41.06-.5q-14.38,0-28.77,0c-6,0-12,.09-18.06,0-5.22-.09-10.45-.06-15.67-.31-21.31-1-42.57-2.63-63.87-3.8-17.38-1-34.76-1.89-52.13-3-4.56-.29-9.11-.67-13.67-1.07-7.56.09-15.13.17-22.68-.06-4.59-.13-9.17-.26-13.75-.51A178.24,178.24,0,0,1,342,36.13,20.16,20.16,0,0,1,332,31.07a21.29,21.29,0,0,1-6.5-11.61,21.27,21.27,0,0,1,11.6-23,25.67,25.67,0,0,1,6.31-2.25c1.45-.28,2.9-.48,4.36-.64a25.89,25.89,0,0,1,2.95-.91c1.71-.42,3.41-.86,5.12-1.26a50.5,50.5,0,0,1,5.76-.8c3.46-.4,7-.47,10.45-.54q6-.13,12-.05l21.14.27c10.66.13,21.33.74,32,1.14,21.22.8,42.44,2.17,63.64,3.35q19.26,1.07,38.53,1.8c7.16.25,14.32.62,21.49.75l2.93,0,12.35-.07,15.93-.05L599.67-3c4.84-.13,9.7-.37,14.54-.39,6.56,0,13.13-.23,19.67.27a18.74,18.74,0,0,1,2.91.44q23.75.13,47.51.51h.29q15.75-1,31.52-1.74c10.17-.5,20.35-1,30.54-1.26,10.49-.32,21-.46,31.5-.7,20.71-.48,41.43-.71,62.13-1.3,10-.29,20.06-.27,30.09-.49,10.33-.22,20.65-.65,31-.91s20.84-.42,31.26-.59c10.18-.17,20.36-.07,30.54-.25,10.33-.17,20.66-.42,31-.64,5.3-.12,10.57-.28,15.86-.58,5-.29,10.07-.83,15.1-1.3,5.18-.49,10.38-.74,15.57-1.11s10.11-.78,15.18-1.1c4.79-.3,9.58-.56,14.37-.89,5.08-.34,10.16-.76,15.25-.83s10.35-.22,15.51-.63,10.23-.87,15.37-1c11.46-.31,22.9-.86,34.36-.59l4.22.07c4.22,0,8.43-.14,12.65-.23,4.93-.1,9.86-.18,14.77-.61,5.36-.46,10.71-1.06,16.06-1.6,4.69-.47,9.38-.79,14.08-1.17,10-.8,20.07-1.36,30.14-1.55,9.65-.18,19.3-.46,29-.56a86.33,86.33,0,0,1,11.49.21,30.54,30.54,0,0,1,7.91,1.65,30.19,30.19,0,0,1,10.27,6.14,28.1,28.1,0,0,1,2.41,2.47h.07c1.44-.1,2.87-.17,4.31-.17l4.74,0c2.83,0,5.6,1,8.27,1.8a27,27,0,0,1,12.23,8.42,30.15,30.15,0,0,1,6.21,13c0,.19.09.37.13.55,2.27,9.8-2,20.71-9.55,27.08-6.3,5.32-14,7.22-21.82,9.18a106.86,106.86,0,0,1-10.63,2.12,123,123,0,0,1-14.45,1.35c-.58,0-1.17,0-1.75,0A116.52,116.52,0,0,1,1265.08,48.68Z"/>
      <path class="cls-1" d="M397.06,58.84c-11.25-.54-22.49-1.05-33.74-1.41-10.66-.35-21.3-.72-31.95-1.27s-21.47-1.28-32.22-1.83C277,53.2,254.94,51.4,232.84,49.82c-10.24-.73-20.48-1.52-30.73-2-11.61-.56-23.23-1-34.86-1.42-8.53-.31-17.06-.39-25.6-.47-11.63,0-23.25,0-34.88-.16-10.9-.16-21.79-.54-32.69-.91-5.53-.18-11.29-.15-16.55-2A22.46,22.46,0,0,1,42.69,23.19c0-.41,0-.81,0-1.21-.57-.45-1.11-.92-1.65-1.4a31.24,31.24,0,0,1-5.18-6.12,31.5,31.5,0,0,1-5-15.06,31.57,31.57,0,0,1,14.2-28.09,33.16,33.16,0,0,1,7.88-3.87,35.17,35.17,0,0,1,8.15-1.56,37.39,37.39,0,0,1,5.7-.06c1.28,0,2.54.21,3.81.35,2.47.28,4.93.63,7.4.9,5.36.59,10.72,1.13,16.07,1.71q15.53,1.66,31,3.57c10.81,1.31,21.63,2.72,32.46,3.92,5.29.59,10.59,1.3,15.9,1.72L193-20.5c5.73.44,11.53.5,17.28.74,4.69.2,9.38.31,14.08.42q17.35.42,34.69.78c22.47.49,44.91,1.66,67.35,2.95,20.51,1.18,41,2.11,61.54,3.41,11.06.7,22.14,1.32,33.19,2.22,6,.48,12,.84,17.92,1.46q9.32,1,18.64,1.95c4.3.46,8.59,1.1,12.88,1.68l7.17,1c3.75.51,7.48,1.08,11.19,1.76a113.06,113.06,0,0,1,13.28,3.56,27.08,27.08,0,0,1,14,11.07c3.13,4.84,5.08,11.19,4.38,17A32.8,32.8,0,0,1,519,37.1a29.18,29.18,0,0,1-3.5,6.94,27.86,27.86,0,0,1-7.71,7.44A36.56,36.56,0,0,1,501,54.73c-3.38,1.32-7.29,1.39-10.91,1.65-2.72.2-5.43.39-8.15.55-5.46.32-10.92.63-16.38.9-11.1.54-22.19.85-33.29,1.11-6.16.14-12.33.26-18.49.26C408.17,59.2,402.61,59.1,397.06,58.84Z"/>
      <path d="M2079.92,1074.32q-6.35-.13-12.69-.25c-3,0-6.05-.11-9.07-.18-1.83-.05-3.65-.07-5.47-.17-1.09,0-2.17-.19-3.25-.29-1.69,0-3.39.06-5.08.09-2.3,0-4.6.06-6.9.08q-12.87.09-25.74.24c-20.93.19-41.86.37-62.78.37-43.14,0-86.29-.26-129.42-.39q-135.58-.4-271.14-.44-136.12-.12-272.23-.41l-278.25-.75q-135.72-.37-271.45-1-138.21-.62-276.43-1.31-135.76-.71-271.53-1.61Q127,1068,75.6,1067.7c-31.89-.2-63.77-.57-95.66-.57a2.42,2.42,0,0,1-2.4-2.4,2.42,2.42,0,0,1,2.4-2.39h.59c7.87,0,15.76,0,23.64,0,10.63-.08,21.26-.21,31.9-.28q34.12-.24,68.26-.42l132.11-.78q136.13-.84,272.25-1.57,140.58-.69,281.17-1.27,135.06-.57,270.12-.9,136.93-.39,273.87-.71,137.2-.27,274.43-.33,134.49-.09,269-.58c32.89-.11,65.79-.35,98.69-.14,16.14.1,32.27.28,48.4.43l16.13.14,4.68.07c1.44,0,2.87.11,4.31.07,1.07-.09,2.13-.21,3.21-.28,1.82-.12,3.64-.13,5.47-.17,3-.07,6.05-.14,9.07-.19,4.23-.06,8.46-.16,12.69-.25s8.57-.39,12.8.3a9.7,9.7,0,0,1,5.36,2.66,9.39,9.39,0,0,1,.79,12.36,9.63,9.63,0,0,1-6.15,3.57,39.59,39.59,0,0,1-6.34.44C2084.23,1074.47,2082.07,1074.37,2079.92,1074.32Z"/>
      <path d="M1955.35,1096.23a7.35,7.35,0,0,1-6.29-7c0-.31,0-.62-.06-.94-.06-1.12-.06-2.24-.07-3.36,0-2.41,0-4.82,0-7.24q0-8.22,0-16.45,0-17.07,0-34.13,0-34.08,0-68.17,0-71.31,0-142.65,0-51.27.25-102.53,0-22.59-.08-45.17-.11-70-.23-140-.15-70.44-.55-140.88-.31-70.94-.58-141.85-.27-71.87-.51-143.73-.09-23.76-.2-47.52,0-11.75-.15-23.5l-.09-10.41a91.78,91.78,0,0,1,.36-10.62A9.11,9.11,0,0,1,1952.34,3c0-.65,0-1.31.05-2a16.83,16.83,0,0,1,.13-2.35,3.9,3.9,0,0,1,2-3.08,3.52,3.52,0,0,1,1.8-.46,3.49,3.49,0,0,1,1.81.47,3.89,3.89,0,0,1,2,3.07,22.9,22.9,0,0,1,.14,3.1l0,1.22a9.11,9.11,0,0,1,5.17,7.06,127.5,127.5,0,0,1,.32,15.14c0,5.35-.09,10.69-.13,16.05q-.1,16.85-.16,33.71-.15,35.48-.24,70.95-.24,70.44-.53,140.88-.3,70.6-.61,141.21-.33,71.65-.45,143.3-.11,70.42-.22,140.83v1.16q.23,67.09.25,134.17,0,70.17,0,140.32,0,26.67,0,53.34,0,13.32,0,26.63,0,6.32,0,12.63c0,2,0,3.9,0,5.85a32.22,32.22,0,0,1-.13,3.39,7.36,7.36,0,0,1-5.33,6.37,6.85,6.85,0,0,1-1.47.25h-.48A8.06,8.06,0,0,1,1955.35,1096.23Z"/>
      <path d="M69.36,1060.83a8.49,8.49,0,0,1-3.29-1.57,8.9,8.9,0,0,1-3.4-6.92c-.48-21.87-.38-43.77-.45-65.65q-.09-34-.13-68,0-69.45.26-138.92.13-44.77.26-89.57-.06-26.28-.13-52.56-.19-69.43-.34-138.87t-.27-139q-.09-69.36-.09-138.7c0-46.34,0-92.68.38-139q.17-24,.33-48,.09-11.8.21-23.63c.1-8,.36-15.95.64-23.93a8.27,8.27,0,0,1,2.36-5.7c.16-.16.32-.3.48-.44a5.33,5.33,0,0,1,5.23-4.6,5.33,5.33,0,0,1,5.22,4.6,5,5,0,0,1,.48.44,8.24,8.24,0,0,1,2.37,5.7c.19,5.58.42,11.14.53,16.71s.15,11,.2,16.56q.15,16.72.25,33.46c.15,22.28.34,44.56.41,66.85q.25,70,.17,140t-.16,140.12q-.12,70.4-.3,140.79-.15,69.16-.35,138.32l0,10.75q.18,62.41.36,124.84c.11,46.11.24,92.22.13,138.32q-.06,25.31-.15,50.61c-.05,16.16-.05,32.34-.39,48.5,0,.32,0,.64-.07,1a8.85,8.85,0,0,1-6.76,7.58,8.6,8.6,0,0,1-1.91.21A8.11,8.11,0,0,1,69.36,1060.83Z"/>
      <path d="M1824.1,56.19c-15.21-.08-30.41,0-45.62-.09q-27-.12-54.07-.28-56.65-.24-113.3-.37-117.49-.29-235-.07-121.84,0-243.7,0T888.56,55.3H865l-95.46.11q-119.7.14-239.4.21-117.9.06-235.78,0L185.94,55.5c-32.14,0-64.29,0-96.42-.25-5.59,0-11.18-.16-16.77-.21l-8.6,0a23.08,23.08,0,0,1-4.66-.29,7.25,7.25,0,0,1-1.42-.43,6.75,6.75,0,0,1-2.23-1.47,6.85,6.85,0,0,1-1.07-8.24v0a6.56,6.56,0,0,1,1.06-1.36,6.87,6.87,0,0,1,2.08-1.4,7.17,7.17,0,0,1,1.18-.41A20.32,20.32,0,0,1,64.68,41l1.58,0c3.59,0,7.18,0,10.78-.09,9.27-.17,18.55-.2,27.82-.24q51.65-.19,103.28-.17,113.63,0,227.25-.12,120.9,0,241.79.13,95.94.09,191.86.21l142-.08q121.26,0,242.52,0,119.17,0,238.32.08,115.58,0,231.13-.49,27.33-.1,54.67-.27c15.21-.08,30.42,0,45.63-.1,24.54-.09,49.08-.34,73.62-.12l20.64.15c3.32,0,6.63,0,10,.16,1.71,0,3.42.12,5.13.2a22.86,22.86,0,0,1,2.92.34c.76,0,1.53-.06,2.29-.07h1.37c.84,0,1.67,0,2.52,0l-.8.06c1.12-.08,2.23-.15,3.34-.17a10.36,10.36,0,0,1,3,.27,10.69,10.69,0,0,1,3.14,1.59c3.79,2.58,3.79,9.08,0,11.66a8.74,8.74,0,0,1-6.13,1.87c-.89,0-1.78-.07-2.67-.13h.13c-1.23-.07-2.45-.06-3.68,0-.45,0-.9,0-1.35,0s-.76,0-1.14,0a23.11,23.11,0,0,1-2.65.33c-1.63.09-3.26.14-4.89.2-3.36.12-6.71.15-10.07.17l-20.61.15q-11.46.11-22.93.1C1857.65,56.41,1840.87,56.28,1824.1,56.19Z"/>
      <path d="M705.11,1069.24a6.36,6.36,0,0,1-3-4.58,7.31,7.31,0,0,1-.08-1.05c-.07-1.46,0-2.93,0-4.38q0-3.87,0-7.72,0-5,0-10v-1a14.83,14.83,0,0,1-.83-4.81c-.1-1.67-.06-3.34-.06-5q0-6.84,0-13.68.08-14.1.14-28.18.1-30.12.19-60.25.13-45.62.31-91.25l-.06-37.65q-.09-66.2-.07-132.39,0-65.34,0-130.69,0-65-.11-129.93-.08-65.44,0-130.91,0-33,0-66.05c0-20.15-.12-40.29-.06-60.43,0-9.84.08-19.68.09-29.52,0-8.34-.14-16.69-.16-25,0-12.12.16-24.23.15-36.35a13.57,13.57,0,0,1,.43-3.59,6,6,0,0,1,.3-.84,5.79,5.79,0,0,1,.39-.79A7,7,0,0,1,706.9,50a7.06,7.06,0,0,1,3.65,0,6.9,6.9,0,0,1,4.09,3.16,5.23,5.23,0,0,1,.4.78,6.61,6.61,0,0,1,.3.85,15.51,15.51,0,0,1,.43,4.13V63c0,3.19,0,6.38,0,9.58q.06,9.22.11,18.46c.06,7.65-.11,15.3-.14,23,0,9.56,0,19.12.06,28.68q.1,30.7,0,61.41c-.06,21.36,0,42.72,0,64.08q.06,65.44,0,130.92,0,66.45-.12,132.89,0,66.06,0,132.09t-.07,132.24q0,21.15-.06,42.29.23,61.5.4,123,.06,21.32.16,42.63c0,6.43.09,12.85.1,19.27q0,4.92,0,9.84a19.12,19.12,0,0,1-.88,7.1v3.94c0,.56,0,1.12,0,1.69,0,3.21,0,6.43,0,9.64,0,1.68,0,3.35,0,5,0,.94,0,1.88,0,2.83h0a7.17,7.17,0,0,1-.08,1,6.36,6.36,0,0,1-2.68,4.37,6.63,6.63,0,0,1-3.06,1.26l-.39,0-.52,0A6.69,6.69,0,0,1,705.11,1069.24Z"/>
      <path d="M106.86,646.23l.48,0c-7.36-.47-14.74-.71-22.11-1.07A11.34,11.34,0,0,1,77.52,642a10.92,10.92,0,0,1,0-15.43,11.35,11.35,0,0,1,7.71-3.2c7.37-.36,14.75-.6,22.11-1.07l-.79.06a100.07,100.07,0,0,1,10.1,0l10.83.27c4,.08,8.07.13,12.11.1,2.09,0,4.18,0,6.26-.12,1.5-.12,3-.25,4.51-.32,2.67-.14,5.35,0,8,.08q9.57.27,19.16.45,20.41.38,40.84.51,42.35.32,84.69.34,42.12.06,84.24.07l84.23,0q41.35,0,82.7.08,41.16,0,82.32.12l42.11.09c14,0,27.9,0,41.85.19,1.14,0,2.31,0,3.47.08a9.37,9.37,0,0,1,6.67,3A11.1,11.1,0,0,1,732,629a9.92,9.92,0,0,1,1.45,3.91,11.43,11.43,0,0,1,0,2.7,9.79,9.79,0,0,1-1.48,4,10,10,0,0,1-7.91,4.66c-1.35.12-2.74.07-4.08.09l-5.15,0c-3.14,0-6.28,0-9.42,0l-21.19.08-41.87.09q-42.49.09-85,.14l-84.11.07q-41.05,0-82.11,0-42.75.07-85.51.07-40.73,0-81.45.3c-14,.11-27.93.22-41.89.47-6.64.12-13.27.25-19.91.43a136,136,0,0,1-15.9-.07l-.83-.07c-2-.1-4.06-.09-6.09-.11-4,0-8.07,0-12.11.1q-5.42.1-10.83.26c-2,0-4,.12-6,.12C109.42,646.34,108.14,646.31,106.86,646.23Z"/>
      <path d="M82.44,668.91c-.43-.06-.86-.14-1.28-.23a14.93,14.93,0,0,1-2.59-.82,15.29,15.29,0,0,1-7.5-6.86,15,15,0,0,1-1.26-3.14,15.4,15.4,0,0,1,0-8.11,15.71,15.71,0,0,1,.6-1.75,16.55,16.55,0,0,1,.93-1.89,15.68,15.68,0,0,1,5.48-5.47,15.17,15.17,0,0,1,5.62-1.94,13.26,13.26,0,0,1,1.39-.12h.71c.74,0,1.48.06,2.22.13,1.32.06,2.65.09,4,.11a41.87,41.87,0,0,1,4.6-.1l4.2.11h2.39l19.8.09q19.62.08,39.24.11l80.9.17,80.3.15q39.51.07,79,.11,39.92,0,79.83.12t79.69.18l40.54.14c12.7,0,25.42,0,38.12.22l15.45.24c4.83,0,9.68.17,14.51-.14l-.42,0a17.54,17.54,0,0,1,3.31.11c.51.07,1,.14,1.53.19l2.73.26c1,.11,2,.26,3,.4a62,62,0,0,1,6.38.89h3.71c3.11,0,6.24,0,9.34.15l.6,0a11.45,11.45,0,0,1,2.91.56,10.9,10.9,0,0,1,4.66,2.78,11.46,11.46,0,0,1,2.29,3.29,11.06,11.06,0,0,1,1,3.31,12.28,12.28,0,0,1,.1,1.6,11.48,11.48,0,0,1-.1,1.54,12,12,0,0,1-.69,2.63,11.54,11.54,0,0,1-4.93,5.77,11.09,11.09,0,0,1-3.65,1.33,10.87,10.87,0,0,1-1.62.21l-.56,0c-2.33.13-4.67.13-7,.13h-2.48l-3.56,0a56.4,56.4,0,0,1-6.22.87c-1,.14-2,.29-3.05.41s-1.85.17-2.78.26c-.49.05-1,.1-1.46.18a17.1,17.1,0,0,1-3.42.14l.35,0-.49,0h-.23c-4.74-.27-9.5-.15-14.23-.09-5.39.07-10.77.17-16.15.25-12.9.19-25.8.17-38.7.21q-39.52.15-79,.23-40.53.1-81.07.16l-79.62.09-80.13.14-80.41.16q-39.6.09-79.19.2-9.22,0-18.46.09H99.34l-1,0a74.71,74.71,0,0,1-7.63,0c-1.31,0-2.61.05-3.92.1a23.56,23.56,0,0,1-2.38.13A13,13,0,0,1,82.44,668.91Z"/>
      <path d="M340.87,637.14c-1.45-2.47-.46-5.46.45-7.92a34.9,34.9,0,0,1,5.2-8.83A39.71,39.71,0,0,1,354,613a32.74,32.74,0,0,1,4-2.59A14.52,14.52,0,0,1,362.9,609a10.18,10.18,0,0,1,8.36,2.63l.27.24,4.67-1.69c1.85-.69,3.72-1.36,5.56-2.07l5.29-2a8.65,8.65,0,0,1,1.12-1.8,10.57,10.57,0,0,1,3.11-2.81,14.87,14.87,0,0,1,4.13-1.52,18.33,18.33,0,0,1,8.85.89c3.75.08,7.43,1.48,9.3,5a8.67,8.67,0,0,1,0,8.53,8.42,8.42,0,0,1-8.44,4.1,11.12,11.12,0,0,1-1.46-.36h-.84l-.65.09c-4.41,1.05-8.74,2.47-13.07,3.82-3.77,1.17-7.55,2.33-11.31,3.55a17.6,17.6,0,0,1,.35,4,6.45,6.45,0,0,1-2.44,5,6.28,6.28,0,0,1-6.26.81,9,9,0,0,1-1.88-1,15.5,15.5,0,0,1-1.4-1.29l-.38-.28c-.86-.56-1.74-1.06-2.64-1.56a9.79,9.79,0,0,1-2.42-1.26,8.42,8.42,0,0,1-2.14-2.35,8.08,8.08,0,0,1-.77-5.78c-.48.37-.95.76-1.42,1.16-.87.81-1.69,1.64-2.49,2.52s-1.44,1.79-2.1,2.73-1.27,2.08-1.84,3.17c-.31.67-.6,1.34-.87,2,0,0,0,.09,0,.14a4.27,4.27,0,0,1,.35,1.7,4.4,4.4,0,0,1-4.33,4.33h-.14A5,5,0,0,1,340.87,637.14Z"/>
      <path d="M402.36,642.23a14.57,14.57,0,0,1-2.42-1c-.79-.36-1.54-.79-2.31-1.19l-6.63-3.2a59.68,59.68,0,0,1-5.88-3.07,23.6,23.6,0,0,1-3.16-2.3,17.38,17.38,0,0,1-2.23-2.46h-.12a2.45,2.45,0,0,1-2.05-2.71,3.34,3.34,0,0,1,.45-1.4,2.38,2.38,0,0,1,2.07-1.19,3.3,3.3,0,0,1,2.14.82,8.11,8.11,0,0,1,1.11,1.3c.39.52.82,1,1.25,1.53.25.26.51.5.78.73l-.23-.21c.53.44,1.07.85,1.63,1.24a36.69,36.69,0,0,0,3.48,2c2,1,4.05,2,6.07,2.93,1.05.49,2.08,1,3.11,1.53l-.89-.84c-.23-.19-.47-.37-.71-.55l-.76-.24a3.81,3.81,0,0,1-2.8-4l-.31-.48a5,5,0,0,1-.6-3.15,6.46,6.46,0,0,1,1.09-2.86,4.42,4.42,0,0,1,2-1.72,4.14,4.14,0,0,1,5.72,4.3l.55.65a11,11,0,0,1,.9,1.25,4.33,4.33,0,0,1,.58,1.95,4.54,4.54,0,0,1-.08,1.52l.46.59,1.3,1.62a16.3,16.3,0,0,1,1.91,2.49,5.32,5.32,0,0,1,.79,3.87,4,4,0,0,1-2.37,2.43,3.15,3.15,0,0,1-1.32.27A9.79,9.79,0,0,1,402.36,642.23Z"/>
      <path d="M392.54,636.88a5.49,5.49,0,0,1-2.39-.57,7.73,7.73,0,0,1-2.2-1.82,20.15,20.15,0,0,1-2.3-3.25,5.44,5.44,0,0,1-1.13-3.08,3.76,3.76,0,0,1,.54-2,6.37,6.37,0,0,1,3.56-3.81,17,17,0,0,1,2.69-1,5.36,5.36,0,0,1,2.17-1.68,5.52,5.52,0,0,1,4.82.31,3.79,3.79,0,0,1,.34.2,5.47,5.47,0,0,1,1.94,7.4A5.33,5.33,0,0,1,397,630.1a4.23,4.23,0,0,1,0,2.26,18.35,18.35,0,0,0-1,2.54,4,4,0,0,1-3.27,2Z"/>
      <path class="cls-2" d="M18.16,1597.54q-6.59-2-13-4.44a90.92,90.92,0,0,1-42.87-37.67c-1.09-2.08-2.16-4.16-3.2-6.26-23.05-6.82-42.45-25.16-51.73-47.11a84.08,84.08,0,0,1,4.82-74.44c.41-.7.81-1.39,1.23-2.08l-3.3-1.77a71.52,71.52,0,0,1-14.38-11.12,71.23,71.23,0,0,1-11.12-14.39,71.47,71.47,0,0,1-9.06-45.53,72.1,72.1,0,0,1,36.76-52.93c.3-3.91.65-7.82,1-11.73.4-4.13.79-8.26,1.28-12.37.21-5.77.58-11.56,1.06-17.28.28-4.48.56-9,.94-13.4.19-2.19.3-4.39.45-6.58a94.69,94.69,0,0,1,9.18-34.39,106.9,106.9,0,0,1,13.86-23.71c1.35-1.73,2.73-3.42,4.17-5.06a85.76,85.76,0,0,1-1.93-18,82.07,82.07,0,0,1,17.31-49.79,53.76,53.76,0,0,1,8.1-8.87l7.66-6.75a80.12,80.12,0,0,1,17.7-10.35c9.21-4.62,19.2-6.67,29.26-8.44,4.4-.77,8.84-1.21,13.28-1.66,8.48-.88,17-1.5,25.43-2.58,9.07-1.16,18.07-2.75,27.08-4.2,12.13-1.95,24.2-3.28,36.49-4a234.11,234.11,0,0,1,26.09-.43c12.79.64,25.57,1.53,38.35,2.4-3.59-.23-7.18-.48-10.76-.72,17.6,1.18,35.16,2.6,52.76,4,19.73,1.13,39.44,2.5,59.14,3.92,16,.91,32.09,1.36,48.16,1.55,16.78.2,33.57-.32,50.36-.49,17.8-.19,35.58-.75,53.37-1.43,14.21-.54,28.45-1.13,42.66-2,15.13-1.17,30.2-2.7,45.27-4.39,8.31-.93,16.63-2,25-2.61,10.83-.82,21.66-1.48,32.49-2.2l2.32-.16,2-.13-.77.05,1.69-.11h0q13.79-.91,27.59-1.78c20.88-1.66,41.73-3.94,62.54-6.14q35.1-3.7,70.43-4.28c21.16-.37,42.33-.77,63.49-.19q35.28,1,70.41,4.57c21,2.19,41.92,5,62.77,8.29,10.51,1.63,21,3.37,31.52,4.89,9.64,1.39,19.34,2.51,29,3.66,21.21,2.55,42.47,4.81,63.7,7.12q16.27,1.77,32.6,3.49c10.45,1.09,20.93,1.89,31.35,3.17,3.11.38,6.17.77,9.25,1.34a80.71,80.71,0,0,1,17,4.7,58.1,58.1,0,0,1,13.74,8.35c1.16.92,2.28,1.89,3.36,2.89,1.93.44,3.88.86,5.82,1.28,4.72.94,9.44,1.87,14.14,2.87,9.34,2,18.57,3.8,27.31,7.86,9.41,4.37,17.59,10.22,24,18.49a59.54,59.54,0,0,1,6.33,10.19l5.78-.15c8-.2,16,.06,24,.11l43.21.29c7.59,0,15.17.45,22.76.75l41.57,1.63c3.32.13,6.64.3,10,.49a107.4,107.4,0,0,1,12.13-2.37,338.44,338.44,0,0,1,43.76-1.32l20.55.75c11.29.41,22.56,1.13,33.84,1.8,25.49,1.51,50.94,3.46,76.38,5.59,20.1,1.68,40.23,3.59,60.25,6.13,9.17,1.16,18.37,2.28,27.5,3.81l2.44.28c18.76,2.12,37.47,4.53,56.19,7q30.8,4.14,61.64,7.85c14,1.69,28,2.8,42.07,3.8,9,.15,18,.32,27,.45,3.89,0,7.84-.42,11.71-.64l.62,0,14.49-1.79c4.83-.6,9.61-1.53,14.4-2.37q5.37-1,10.73-2c7.31-1.35,14.89-1.29,22.31-1.59,9.76-.39,24.53,2,33.93,4.56a124.15,124.15,0,0,1,54.39,31.86,122.37,122.37,0,0,1,34.16,69.07c1.35,10,1.65,20.25,2.26,30.32.27,4.65.45,9.3.59,13.95.33,10.21.17,20.45,0,30.67-.39,21-.36,41.94.5,62.92q.3,7.47.62,14.93c.61,14.07.51,28.16-1.51,42.13-2.52,17.34-8.21,34.92-17.52,49.81l-7.93,11.73q-5.34,6.36-11,12.42c-6.78,7.3-15.43,13-23.87,18.17-7.84,4.77-19.12,9.27-27.93,11.69a129.45,129.45,0,0,1-32.42,4.17c-9.63,0-18.86-1.51-28.12-3.39-15.09-2.54-30.33-4-45.57-5.32-18.17-.9-36.37-1.19-54.55-1.57-20.73-.44-41.48-1-62.18-2.18q-26-1.41-51.89-2.68c-2,0-4,0-6-.1-22.22-.55-44.46-.79-66.66-1.84q-13.71-.64-27.42-1.37l-10.49-.2-20.44-.38c-3,0-6-.13-8.93-.09-4.46.33-8.92.6-13.38.66q-8.49-.43-16.94-1.18c-8.33-.72-21.42-4.69-29.09-7.94a112.35,112.35,0,0,1-33.07-21.5c-12.7-.23-25.39-.39-38.08-.66-34.77-.73-69.58-.55-104.36-.66-19.79-.07-39.57-.06-59.35-.08-5.47,0-10.94,0-16.4,0-9.8,7.23-20.5,12.07-32.14,15.67-9.54,3-18.77,4-28.72,4.37-2.72.1-5.1-.07-7.83-.08l-9.41,0c-5.1,0-10.2,0-15.3-.15q-16.62-.4-33.24-.89c-21.14-.66-42.27-1.46-63.42-1.89l-14.65-.3a86.72,86.72,0,0,1-50.69,16.22c-21.44-.21-42.84-.94-64.27-1.43-23.07-.54-46.13-.94-69.2-1.39-32.35-.63-64.74-.64-97.1-1.47q-24.87-.24-49.74-.55c-16.27-.2-32.55-.79-48.81-1.23-22.28-.59-44.69-1.57-66.92-3.28a90.73,90.73,0,0,1-23.18-6.36c-1.27-.54-2.53-1.1-3.78-1.7L520,1534.6c-.56,1.07-1.15,2.12-1.76,3.17A80.72,80.72,0,0,1,505.73,1554c-3.61,3.27-7.37,6.93-11.13,9.84-4.8,3.72-13.78,9.35-19.56,11.38-5.27,1.85-10.47,3.86-15.88,5.24a109.65,109.65,0,0,1-16.85,3,196.35,196.35,0,0,1-28.07.45c-3.83-.18-7.64-.23-11.47-.14l-39.33.9-61.7,1.43c-20.55.48-41.1.88-61.63,1.56-22.6.77-45.23,1.17-67.81,2.35-16.64.87-33.29,1.62-49.92,2.58-15.19,1.16-30.34,2.74-45.46,4.6-5.91.73-11.77,1.81-17.7,2.39-6.09.59-12.2,1.08-18.29,1.08A76.24,76.24,0,0,1,18.16,1597.54Z"/>
      <path class="cls-2" d="M-2.17,1148.42A31.93,31.93,0,0,1-15,1133.86a37.59,37.59,0,0,1-3.21-11A52.59,52.59,0,0,1-18,1111c.17-1.69.3-3.38.42-5.08.18-2.72.34-5.45.55-8.17.41-5.22.79-10.46,1.24-15.67.93-10.78,1.87-21.54,2.75-32.32.14-1.78.28-3.56.43-5.34l.84-16.64c.23-4.53.66-9,1-13.56q.88-11.87,1.78-23.71l.21-2.89q.69-11.58,1.35-23.16c.61-10.89,1.15-21.79,1.89-32.67,0,.63-.09,1.25-.13,1.88C-4.29,912.31-3,890.94-1.34,869.6q2.88-37.19,6-74.35c.1-1.22.21-2.43.31-3.65.07-3.64.13-7.27.2-10.91q.3-16.4.39-32.77c0-4.63.15-9.28,0-13.91,0-.11,0-.22,0-.33a83.48,83.48,0,0,1-4.3-9.87c-1.28-3.65-2.72-7.27-3.63-11s-1.81-7.54-2.44-11.38c-.71-4.25-1.41-8.49-1.89-12.79-.2-1.81-.3-3.63-.43-5.44a67.91,67.91,0,0,1-.3-8.67C-7,667-5.95,659.13-1.65,652.76a47.06,47.06,0,0,1,5.37-6.83,35.49,35.49,0,0,1,7-5.35,34.14,34.14,0,0,1,17.18-4.69c12.28,0,23.52,7.33,29.58,17.83,3.6,6.25,5.49,13.36,7.14,20.34.89,3.76,1.74,7.52,2.39,11.33.48,2.89,1.18,5.81,1.47,8.72s.54,6,.82,8.93c.34,3.66.81,7.38.9,11.05q.24,9.67.47,19.37c.12,4.49,0,9-.07,13.48q-.07,6.06-.16,12.12l.07.23c.62,1.83,1.27,3.65,1.73,5.52.72,2.89,1.23,5.82,1.77,8.74.28,1.48.5,3,.74,4.46.38,2.37.8,4.73,1,7.12.7,6.75,1.37,13.48,1.71,20.26.26,5.3.72,10.63.72,15.94q0,10.54,0,21.12c0,10.74-.61,21.49-1,32.21-.14,4.51-.52,9-.79,13.53q-.63,10.6-1.25,21.22c-.73,12.25-2,24.48-3,36.71q-1.22,14.31-2.6,28.61-3.1,32.63-6.12,65.27c-.8,8.53-1.63,17-2.39,25.58-.11,2.89-.14,5.76-.34,8.65A38.52,38.52,0,0,1,57.57,1087a30.16,30.16,0,0,1-8.16,11q-.64,5.32-1.4,10.64c-.54,3.91-1.29,7.79-2.12,11.65A79.25,79.25,0,0,1,43,1130l0,.07a30.53,30.53,0,0,1-3.1,7.33,30.15,30.15,0,0,1-4.8,6.21,30.81,30.81,0,0,1-17.54,8.72,31.71,31.71,0,0,1-4.13.27A30.84,30.84,0,0,1-2.17,1148.42Z"/>
      <path class="cls-2" d="M1966.34,1037.3a35,35,0,0,1-12.94-13.61l.27.54-.33-.65c-.42-.77-.83-1.55-1.21-2.36s-.77-1.58-1.12-2.4a38.46,38.46,0,0,1-2.52-9.3,48.49,48.49,0,0,1,0-12.85c.25-2.08.6-4.12.77-6.21.26-3.09.48-6.18.76-9.27.55-6,1-12,1.63-18,1.12-11.28,2.17-22.57,3.32-33.86q3.57-35,7-70l.75-24.81c.33-11.51.36-23.05.53-34.57q.6-39.17,1.23-78.33c.4-25.27,1.29-50.52,2.07-75.77.67-21.9,1.84-43.78,2.5-65.68.38-12.54,1-25.09,1.14-37.64.18-12.86.33-25.72.37-38.59,0-2.4,0-4.8,0-7.2a95.58,95.58,0,0,1,1.52-14.82A39.48,39.48,0,0,1,1983,460a1.34,1.34,0,0,1,.21-.2c.13-1.63.3-3.25.48-4.85a56.67,56.67,0,0,1,2.16-11.43,44,44,0,0,1,4.4-10,60.86,60.86,0,0,1,7.38-9.14c7.72-8.14,19.73-11.84,30.72-10.34a36.3,36.3,0,0,1,17.32,7.26,36.58,36.58,0,0,1,11,13.93,41.68,41.68,0,0,1,3.73,9.2,65.78,65.78,0,0,1,1.67,9.53l.51,5.7c.39,4.4.86,8.81,1.05,13.22.24,5.71.73,11.45.65,17.17-.17,12.12-.32,24.23-.79,36.34-.46,11.82-.68,23.67-1.49,35.46.11-1.55.21-3.1.31-4.65q-.69,14.9-1.35,29.8c-.45,10-.76,20-1.41,30.06,0-.64.09-1.27.13-1.91-1.12,23.48-2.23,47-3.76,70.43q-1.41,21.72-2.82,43.44c-.39,6-1,12-1.65,18.07l-2.52,25.42c-.35,3.52-.75,7-1.15,10.53-.6,5.21-1.19,10.42-2.13,15.59-.69,3.77-1.47,7.53-2.49,11.24a51.6,51.6,0,0,1-2.14,6l.06,24.85c0,4.36-.21,8.72-.32,13.08q-.33,13.08-.65,26.17c-.28,11.34-1.1,22.64-1.78,34-.38,6.17-.74,12.34-1.12,18.51-.54,8.72-1.38,17.44-2.31,26.12-.86,8.13-2.41,16.16-3.25,24.28-.82,7.9-2.42,15.74-6.36,22.74a37.15,37.15,0,0,1-8.1,9.93l-.42,1.26a36.84,36.84,0,0,1-8.83,15.15,34.37,34.37,0,0,1-41.6,5.37Z"/>
      <rect class="cls-3" x="-126.83" y="-37.58" width="2256.86" height="1638.46"/>
    </g>
  </g>
  <g id="Layer_4" data-name="Layer 4">
    <g>
      <path class="cls-4" d="M954.66,1162.43q-34.08-.26-68.18-.57c-45.69-.4-91.38-1-137.07-1.42s-91.45-.55-137.18-.73q-70.34-.27-140.67-.68-69.27-.36-138.53-.64-68.55-.21-137.09-.13-25.5,0-51,.06l-14.19,0q-6.15,0-12.3.13c-4.24.07-8.48.16-12.73.18-3.06,0-6.36.17-9.56-.09a20.42,20.42,0,0,1-5.5-1c-.4-.12-.78-.26-1.17-.41a24.23,24.23,0,0,1-6.14-3.44,23.52,23.52,0,0,1-4.44-4.53c-.25-.34-.5-.68-.73-1-3,0-6.08-.05-9.12,0l-.23,0a17.1,17.1,0,0,1-3.72.51,13.42,13.42,0,0,1,0-26.84,17.73,17.73,0,0,1,3.72.5l.23,0c3,.09,6.08.07,9.12,0a23,23,0,0,1,2.94-3.6c4.1-4.11,10.17-7,16.07-6.83,1.54-.08,3.08-.08,4.61-.09,2.58,0,5.17,0,7.75,0,5.68.06,11.35.19,17,.24l4.49,0q16.25,0,32.51.06,34.9,0,69.82,0,68.79,0,137.59-.27,69.12-.32,138.23-.69,70.05-.31,140.11-.63,68.73-.27,137.47-1,68.38-.81,136.77-1.36c22.16-.19,44.32-.31,66.48-.5,11.19-.1,22.38-.26,33.56-.19,10.82.06,21.65.24,32.46.3,5.58,0,11.15,0,16.73,0,9.16,0,18.31,0,27.47.13,7.17.1,14.34.16,21.51.29a89.36,89.36,0,0,1,11.8.77c7.27,1.15,15,4.55,19.32,10.79a24.63,24.63,0,0,1,3.25,5.54,25,25,0,0,1,2,9.73,25.24,25.24,0,0,1-.89,6.64,28,28,0,0,1-4.32,8.63c-4.71,6.84-13.43,10.25-21.4,11-5.64.56-11.3.54-17,.59-10.07.1-20.13.33-30.19.37h-13.54c-5.67,0-11.35,0-17,0-10.92.07-21.85.27-32.78.3h-5.53C995.19,1162.9,974.93,1162.57,954.66,1162.43Z"/>
      <path class="cls-4" d="M869.5,1262.11l-12.12,0-26.17,0-52.48,0-107.88,0L564,1261.92l-113.52-.1-106.77-.13-108.92-.14q-54.95-.06-109.91-.17l-34.07-.06-20.24,0c-6.11,0-12.23,0-18.35-.12h-.17a3.2,3.2,0,0,1-.66-.1,3.13,3.13,0,0,1-2.29-3,3.3,3.3,0,0,1,.11-.87,3.15,3.15,0,0,1,1.8-2,3,3,0,0,1,1-.23l.23,0c6.62-.13,13.24-.13,19.85-.13h7.76q12.93,0,25.85,0l56.22-.1,106-.15,112-.14q54.88-.06,109.78-.12l106.29-.08,110.78-.07L812,1254l35.61,0,17.75,0,8.22,0c2.38,0,4.76,0,7.14.16a4,4,0,0,1,0,7.83c-2,.14-4,.18-6,.18Z"/>
      <rect class="cls-3" x="48.89" y="1107.4" width="1109.44" height="154.99"/>
    </g>
  </g>
</svg>
