<svg xmlns="http://www.w3.org/2000/svg" xmlns:xlink="http://www.w3.org/1999/xlink" viewBox="0 0 2048 1536">
  <defs>
    <style>
      .cls-1 {
        fill: none;
      }

      .cls-2 {
        clip-path: url(#clip-path);
      }

      .cls-3 {
        fill: #494747;
      }

      .cls-4 {
        fill: #4b4a49;
      }

      .cls-5 {
        clip-path: url(#clip-path-2);
      }

      .cls-6 {
        fill: #a2a2a2;
      }

      .cls-7 {
        clip-path: url(#clip-path-3);
      }

      .cls-8 {
        fill: #57533a;
      }

      .cls-9 {
        fill: #58543b;
      }

      .cls-10 {
        clip-path: url(#clip-path-4);
      }

      .cls-11 {
        fill: #b3ac82;
      }
    </style>
    <clipPath id="clip-path">
      <rect class="cls-1" x="164.71" y="659.14" width="84.72" height="80.04"/>
    </clipPath>
    <clipPath id="clip-path-2">
      <rect class="cls-1" x="166.84" y="672.78" width="79.67" height="50.66"/>
    </clipPath>
    <clipPath id="clip-path-3">
      <rect class="cls-1" x="175.61" y="554.99" width="63.37" height="116.32"/>
    </clipPath>
    <clipPath id="clip-path-4">
      <rect class="cls-1" x="175.89" y="558.52" width="37.13" height="111.3"/>
    </clipPath>
  </defs>
  <g id="parent-wc1_layer-base_side-b">
    <g class="cls-2">
      <path class="cls-3" d="M209.48,738.93a1.49,1.49,0,0,1-1.44-1.51q.15-3.48.35-6.95A1.68,1.68,0,0,1,208,730a9,9,0,0,1-.54-1.13,9.37,9.37,0,0,1-.33-1.39,33.8,33.8,0,0,1-.3-3.48c-.08-1.12-.12-2.25-.14-3.38s-.05-2,0-2.93l.09-5.61c0-1.19,0-2.36.09-3.55q.13-3.23.29-6.47c.05-1.21.15-2.41.24-3.62l.42-5.68c.11-1.56.28-3.13.42-4.69.13-1.38.25-2.76.38-4.14.18-2,.37-4,.55-6a1.36,1.36,0,0,1,0,.2q.27-3.07.53-6.16v-.07a1.8,1.8,0,0,1,.05-.52q.24-3,.41-6a1.47,1.47,0,0,1,2.94.07c.06,1.82,0,3.65,0,5.47,0,1.6,0,3.2-.07,4.81-.05,3.08-.08,6.15-.09,9.23s0,6.09-.07,9.13l-.09,6.83c0,1.11,0,2.21-.05,3.32l-.21,6.21c0,1.19-.07,2.39-.14,3.58q-.31,5.44-.64,10.89c-.26,4.2-.53,8.4-.7,12.61a1.48,1.48,0,0,1-1.47,1.43Z"/>
      <path class="cls-3" d="M247.23,675.17l-14.31-4.75c-2.72-.91-5.46-1.78-8.19-2.68l-5.65-1.86c-1.47-.48-2.91-1-4.37-1.52-.65-.23-1.29-.48-1.93-.73a1.48,1.48,0,0,1-.42-2.39,1.51,1.51,0,0,1,.69-.4,2,2,0,0,1,.6-.05h.17a1.39,1.39,0,0,1,1.06.51l.28.1,2.77,1a1.31,1.31,0,0,1,.88-.26,13.33,13.33,0,0,1,1.4.16c.52.09,1,.23,1.57.36l1.27.31,2.19.54c.7.18,1.41.34,2.1.54l3,.88c1.57.47,3.1,1.08,4.64,1.64.51.18,1,.35,1.5.56l2.8,1.22c1,.44,2,.89,3,1.34l2.86.84,3.15.93c0,1.41.11,2.81.16,4.21v.06Z"/>
      <path class="cls-3" d="M242.45,731.48a1.46,1.46,0,0,1-1.42-1.3c0-.53-.08-1-.08-1.58a14.18,14.18,0,0,1,.12-1.59c.08-.86.2-1.71.29-2.56s.19-1.68.28-2.52l.21-1.91.06-1.15.36-6.71c.17-3.2.43-6.38.65-9.57q.24-3.36.54-6.7c-.05-.84-.1-1.68-.14-2.52-.11-2.22-.23-4.45-.34-6.67,0-.63-.06-1.26-.11-1.88-.08-1-.25-2.06-.3-3.1a9.89,9.89,0,0,1,0-1.44,4.91,4.91,0,0,1,.32-1.51,3,3,0,0,1,.45-.69,1.5,1.5,0,0,1,1.11-.54c.06-.64.12-1.27.19-1.9.15-1.18.41-2.35.61-3.52a1.56,1.56,0,0,1,.57-.94l0-.21a3.88,3.88,0,0,1,.51-1.44,1.45,1.45,0,0,1,1.86-.56q.12,3.35.25,6.69c0,.81.07,1.63.1,2.44-.2,3.07-.37,6.14-.47,9.22-.28,8,0,15.94.42,23.89l.06,1.11c0,1.75,0,3.5,0,5.25,0,.65,0,1.29,0,1.94,0,1.6-.1,3.2-.16,4.8a1.49,1.49,0,0,1-.37.94c0,.15-.07.29-.1.43a4.92,4.92,0,0,1-.27.82,1.49,1.49,0,0,1-.21,1.49,1.47,1.47,0,0,1-2,.28,1.51,1.51,0,0,1-1.16-1.21c-.1,1.07-.26,2.13-.42,3.19a1.49,1.49,0,0,1-1.46,1.24Z"/>
      <path class="cls-3" d="M178,667.51a1.49,1.49,0,0,1,.1-.69,1.12,1.12,0,0,1-.14-.48,1.48,1.48,0,0,1,1.29-1.62c3.53-.38,7.05-.82,10.58-1.23l10.5-1.24c1.07-.13,2.14-.24,3.2-.42l4.37-.74,3.22-.79c.79-.19,1.57-.43,2.35-.66a1.23,1.23,0,0,1,.65-.22,1.64,1.64,0,0,1,1.32.47,1.49,1.49,0,0,1-.7,2.45c-.82.22-1.63.5-2.45.7l-2.77.68-.09,0a1.46,1.46,0,0,1-.28,2.74,15.86,15.86,0,0,1-2.26.36c-.85.07-1.71.07-2.56.1-1.76.08-3.53.17-5.29.27s-3.3.24-5,.37c-3.17.24-6.33.58-9.49.88l-1.81.16-1.43.13c-.64,0-1.29,0-1.93.07h0A1.49,1.49,0,0,1,178,667.51Z"/>
      <path class="cls-3" d="M244.16,724.2a4.16,4.16,0,0,1-.68-1c-.25-.41-.44-.85-.67-1.28l-.53-.91c-.39-.69-.78-1.38-1.18-2.07-.82-1.43-1.64-2.85-2.45-4.28l-2.82-4.92-3.11-4.8,0,0c-.87-1.34-1.68-2.71-2.53-4.06s-1.63-2.57-2.41-3.88l-5.61-9.46c-.32-.54-.62-1.09-.92-1.64q-1.33-2.4-2.66-4.8c-.65-1.17-1.3-2.33-1.94-3.5-.54-1-1.13-1.93-1.69-2.9a14.73,14.73,0,0,1-1-2.16,8.57,8.57,0,0,1-.31-1.1,4.14,4.14,0,0,1,0-1.36,1.48,1.48,0,0,1,.68-1c-.28-.58-.55-1.16-.82-1.75a1.47,1.47,0,0,1,1.78-2,1.59,1.59,0,0,1,.87.7l.08.13h0l0,0,0,0a1.48,1.48,0,0,1,1.85-.26l.18.1.67.32a1.48,1.48,0,0,1,.75,1.94,1.42,1.42,0,0,1-.54.62c.08.2.16.39.25.58.47,1,1,1.92,1.46,2.87l1.2,2.34,3,5.84c.4.78.82,1.55,1.25,2.32l.78,1.41L236.87,700c.68,1.07,1.34,2.15,2,3.22,1.59,2.42,3.15,4.87,4.72,7.31,1.32,2,2.61,4.05,3.91,6.08a15.33,15.33,0,0,1,1.42,2.32l.06.12c.05.94.11,1.87.17,2.81a1.59,1.59,0,0,1-.77.68,1.47,1.47,0,0,1-1.6-.35c-.31-.32-.62-.64-.92-1,.21.41.42.82.62,1.23a1.5,1.5,0,0,1-.4,1.9,1.46,1.46,0,0,1-.85.28A1.64,1.64,0,0,1,244.16,724.2Z"/>
      <path class="cls-3" d="M248.49,722.53l-5.34-.86c-3.08-.5-6.14-1.08-9.2-1.67-3.29-.64-6.58-1.22-9.88-1.81-.55-.1-1.1-.17-1.66-.25l-3.38-.5-4.59-.67c-.53-.07-1.05-.19-1.58-.3a1.52,1.52,0,0,1-1.23-1.29,1.49,1.49,0,0,1,1.1-1.59,1.53,1.53,0,0,1,.36-.07,1.57,1.57,0,0,1,.87.19c.29.06.57.11.86.15l1.12.16a2.38,2.38,0,0,1,.67-.78,1.48,1.48,0,0,1,2.31.85l.83.22c1.2.26,2.42.45,3.63.66.67.12,1.35.22,2,.33,1.66.25,3.31.48,5,.69l4.59.59,3,.4c.56.07,1.11.2,1.65.3l3.23.6c.38.07.76.18,1.14.27l2.18.52c.94.23,1.88.48,2.82.73,0,.89.11,1.79.16,2.69v.55Z"/>
      <path class="cls-3" d="M246.54,722.25a13.36,13.36,0,0,1-1.42-.09c-.39,0-.78-.12-1.17-.19q-4.17-.27-8.33-.65c-.77-.07-1.53-.12-2.29-.22l-2.59-.32-2.45-.3c-.73-.09-1.45-.25-2.17-.37-1.09-.19-2.18-.34-3.26-.58-1.48-.32-3-.63-4.44-1l-.34-.06a.93.93,0,0,1-.29,0,1.64,1.64,0,0,1-1-.22,1.29,1.29,0,0,1-.55-.63l-1.08-.08.2,0c-.39,0-.78-.06-1.16-.11a5.07,5.07,0,0,1-1.23-.33,2.37,2.37,0,0,1-1.65-3.37,3.81,3.81,0,0,1,1.93-1.65,1.49,1.49,0,0,1,2,.56,1.52,1.52,0,0,1-.4,1.91l.21,0,.64.05c1.65.11,3.31.24,5,.38s3.38.35,5.08.55c1.54.18,3.06.44,4.59.68l2.31.37c.68.11,1.36.27,2,.4,1.43.28,2.87.55,4.3.85l3.16.67,2.11.44.79.05c.31,0,.63,0,.95.06a4,4,0,0,1,1.13.28A1.48,1.48,0,0,1,248,721a1.5,1.5,0,0,1-1.46,1.23Z"/>
      <path class="cls-3" d="M222.21,728.83a6,6,0,0,1-1.17-.41,3.79,3.79,0,0,1-1.1-.93c-.71-.86-1.35-1.77-2-2.67l-1.74-2.51-1.29-1.86c-.26-.39-.53-.77-.79-1.15-.52-.74-1.1-1.43-1.55-2.21a1.47,1.47,0,0,1,1.87-2.06l.2.09h0l0,0a1.46,1.46,0,0,1,1,1.31,1.27,1.27,0,0,1,.72.31c1.15,1,2.26,2,3.34,3.09a25.45,25.45,0,0,1,3,3.41,11.78,11.78,0,0,1,1.2,2.06,3.42,3.42,0,0,1,.24,1,5.56,5.56,0,0,1-.13,1.28,1.48,1.48,0,0,1-1.46,1.24A1.45,1.45,0,0,1,222.21,728.83Z"/>
      <path class="cls-3" d="M177.55,669.47a3.42,3.42,0,0,1-.83-.18,1.67,1.67,0,0,1-1.18-1.63,1.7,1.7,0,0,1,.07-.46l-.47,0-1.2-.09c-.84-.07-1.68-.17-2.52-.16h-.11a1.73,1.73,0,0,1-1.22-.36,1.65,1.65,0,0,1,.85-2.93,31.53,31.53,0,0,1,4,.21l2.84.21c1.57.12,3.14.24,4.7.33,1.81.1,3.62.24,5.42.31l.79,0,2-.14c1.75-.12,3.5-.21,5.25-.32s3.4-.17,5.09-.2c1,0,2-.06,3-.06h.55l2-.24,2.46-.28a13.81,13.81,0,0,1,2.13-.1,1.66,1.66,0,1,1-.08,3.31h-.35c-.33,0-.65,0-1,.05l-.19,0a1.66,1.66,0,0,1-.76.62,6,6,0,0,1-1.43.45c-.54.1-1.09.15-1.63.2l-1.59.09-3.62.15c-1.54.06-3.1,0-4.64,0-2.2.21-4.39.4-6.59.57q-5.4.4-10.82.62h.23l-.9,0Z"/>
      <path class="cls-3" d="M204.64,718.18c-1.57-1-3-2.25-4.53-3.43s-3-2.39-4.52-3.61c-.69-.56-1.39-1.1-2.06-1.68l-1.9-1.64c-1.29-1.12-2.61-2.22-3.87-3.38-2.77-2.55-5.55-5.11-8.3-7.7q-4.38-4.14-8.74-8.31c-1-1-2-2-3-2.93l-.41-.33c-.6-.47-1.15-1-1.71-1.48a1.65,1.65,0,0,1-.1-2.18,1.67,1.67,0,0,1,2.32-.26,21.15,21.15,0,0,1,1.73,1.43,2,2,0,0,1,1.26-.41,4.86,4.86,0,0,1,2.63,1.34l-.17-.12a58.7,58.7,0,0,1,4.71,3.79l3.61,3.1c.91.78,1.78,1.59,2.67,2.39s1.79,1.58,2.67,2.38h0l4.33,3.94-.15-.15c2.37,2.16,4.81,4.26,7.27,6.32.58.5,1.16,1,1.73,1.5.3.27.64.53.92.83l1,1a49.12,49.12,0,0,1,3.25,3.81,1.64,1.64,0,0,1,.06,1.88l.16.14a6.26,6.26,0,0,1,1.5,1.54,1.67,1.67,0,0,1-1.47,2.47A1.42,1.42,0,0,1,204.64,718.18Z"/>
      <path class="cls-3" d="M175,723a1.65,1.65,0,0,1,.08-3.27c.89-.08,1.79-.14,2.68-.2-.84-.07-1.69-.13-2.54-.18-.42,0-.84-.07-1.27-.09a14.17,14.17,0,0,1-1.45-.12,4.85,4.85,0,0,1-1.29-.41,1.67,1.67,0,0,1-.47-2.7,2.18,2.18,0,0,1,.92-.56,2.63,2.63,0,0,1,1.18-.08,3.94,3.94,0,0,1,1,.31l.51.26,0,0,.67,0,1.93.14,2.19.15,3.28.23c.9.06,1.8.07,2.71.1,3.63.15,7.26.11,10.9,0l2.4-.06a18.93,18.93,0,0,1,2.13,0,2.16,2.16,0,0,1,.92.29h.33l3.23,0c.87,0,1.74,0,2.61.07a34.34,34.34,0,0,1,4.42.34,4.64,4.64,0,0,1,1.22.3,2,2,0,0,1,.9.81,2,2,0,0,1-.46,2.48,2.54,2.54,0,0,1-1.13.49c-.55.1-1.08.18-1.63.24l-1.52.16c-.75.09-1.52.16-2.28.2-1,.06-2,.15-2.95.17l-3.2.06c-1.5,0-3,0-4.5,0h-3c-1.19,0-2.37,0-3.56,0l-4.3.15-6.59.38-.89.09c-.81.07-1.65.2-2.48.2A5.37,5.37,0,0,1,175,723Z"/>
      <path class="cls-3" d="M188.75,667.91h.14c1.64,0,3.28-.09,4.92-.15h0q5.55-.27,11.11-.42c3.65-.1,7.3-.11,11-.14,3.37,0,6.73-.05,10.1-.11l1.85-.06,1.38-.07c-1-.3-2.08-.58-3.14-.83a5.67,5.67,0,0,0-.57-.1l.2,0h.19a1.73,1.73,0,0,1-1.72-1l-2.22-.33c-1.3-.18-2.6-.34-3.91-.5l-2.27-.17c-.62,0-1.25,0-1.88,0s-1.26,0-1.89,0l-2.51.08c-2.52.16-5,.37-7.55.6-.62.05-1.23.13-1.85.2s-1.15.1-1.72.19l-3.93.58-2.72.6c-.73.16-1.43.36-2.15.58-1.19.35-2.37.72-3.56,1.08Zm-11.23,2.57a1.5,1.5,0,0,1,.93-.41l3.26-.2a1.54,1.54,0,0,1-.05-.43,1.34,1.34,0,0,1,.06-.4l-2.28.59-2.92.71Zm49.48,4h-1.36c-3.64,0-7.27-.11-10.91-.19-7.13-.15-14.25-.26-21.38-.19-3.43,0-6.84-.17-10.27-.17h-2.82a18.71,18.71,0,0,1-2.59-.11,22.91,22.91,0,0,1-5.12-1,4.31,4.31,0,0,1-1.67-.87,2.12,2.12,0,0,1-.62-1.18,3.09,3.09,0,0,1,0-.68,2.26,2.26,0,0,1,.36-.81,3.82,3.82,0,0,1,2.24-1.34c.62-.2,1.25-.36,1.88-.52l5.24-1.33c1.7-.43,3.4-.88,5.08-1.39l2.47-.75,1.77-.53c.28-.08.55-.17.83-.23l3.27-.73c.79-.17,1.59-.26,2.38-.38s1.61-.26,2.42-.35l3.24-.35c1.73-.19,3.47-.31,5.21-.45,1.9-.16,3.81-.21,5.71-.27.94,0,1.88,0,2.82.06s1.77.11,2.65.18c1.8.13,3.59.42,5.37.67,3.53.51,7.08.92,10.56,1.68.88.19,1.74.42,2.61.67.36.11.71.23,1.07.36a4.18,4.18,0,0,1,2.05,1.22,2.18,2.18,0,0,1,.28.52,9.4,9.4,0,0,1,1.58.41,2.45,2.45,0,0,1,1,.83,1.5,1.5,0,0,1,.33.83,2.67,2.67,0,0,1,1.62,2,2.37,2.37,0,0,1-.7,1.88,5.84,5.84,0,0,1-2.59,1.39,21.53,21.53,0,0,1-3.56.69c-.88.12-1.76.21-2.64.26l-3.53.17c-1,0-2,.06-3.07.06Z"/>
      <path class="cls-3" d="M176.37,673.68a1.69,1.69,0,0,1-1.34-1.23,1.61,1.61,0,0,1,.24-1.32,1.92,1.92,0,0,1,.22-2,3.27,3.27,0,0,1,2.62-.79c.71,0,1.42,0,2.14,0H183c1.83,0,3.65,0,5.47,0,2.52,0,5-.1,7.55-.19,7.24-.32,14.47-.87,21.72-.71,2.58.06,5.16.13,7.73.1q2,0,3.93,0c1.16,0,2.31.09,3.48,0l.95-.07a1.65,1.65,0,0,1,1.52,2.61,1.62,1.62,0,0,1-1,1.24,1.69,1.69,0,0,1-1.25,0,38.7,38.7,0,0,0-4,.05l-3.1.12-5.89.23c-3.28.12-6.55.14-9.82.24l-5.3.14h.15l-5.93.29c-1.76.08-3.52.26-5.28.4-1.57.12-3.14.28-4.71.39-2,.15-4,.28-6,.39-.89.05-1.8.09-2.69.12h.22l-2.84.1h-.44A5,5,0,0,1,176.37,673.68Z"/>
      <path class="cls-4" d="M209.14,725.28a1.87,1.87,0,0,1-1.57-2.07,2.17,2.17,0,0,1,.4-1,2.21,2.21,0,0,1,.95-.84,7.91,7.91,0,0,1,1.86-.46c1.1-.17,2.21-.25,3.31-.38.38,0,.77,0,1.15,0l2.26-.1c.84,0,1.67,0,2.51,0q3.35,0,6.67.15l2.36,0c1,0,2,.05,3,0q3.13-.09,6.25-.24c.89,0,1.77,0,2.66,0s1.54.1,2.31.07a1.84,1.84,0,0,1,0,3.68c-.77,0-1.54,0-2.31-.07-.93,0-1.87-.06-2.8,0q-3.1.15-6.22.23c-1.06,0-2.13,0-3.19,0l-2.33-.05c-2.24-.07-4.47-.12-6.71-.14-1.72,0-3.44.07-5.16.15-1.23.14-2.47.24-3.7.45a1.89,1.89,0,0,1-1.44.67Z"/>
      <path class="cls-4" d="M197.55,729.63h0a1.85,1.85,0,0,1-1.57-2.07,73.13,73.13,0,0,0,.91-7.68c.44-8.07.51-16.17.5-24.26,0-3.38,0-6.77-.1-10.15,0-1.28,0-2.56-.08-3.83-.08-2.19-.12-4.38-.26-6.56,0-.1,0-.21,0-.31a1.55,1.55,0,0,1-.08-.53V674a1.84,1.84,0,0,1,3.66-.25,44.08,44.08,0,0,1,.25,4.45l.15,4.1c.07,2,.07,3.91.1,5.86.06,4.09,0,8.17.06,12.25,0,2.12-.05,4.24-.08,6.36,0,2-.08,3.93-.13,5.89-.09,3.84-.25,7.69-.68,11.5-.14,1.24-.3,2.46-.52,3.68a1.79,1.79,0,0,1,0,.23,1.87,1.87,0,0,1-1.79,1.6Z"/>
      <path class="cls-4" d="M191.4,732.39c0-.68.06-1.36.11-2s.11-1.5.16-2.25l0,.25c.13-2,.24-4,.36-6,.13-2.19.29-4.37.45-6.55s.35-4.08.53-6.13l.54-6.22c.35-3.93.65-7.85,1-11.78l.54-8.34c.1-1.53.13-3.07.19-4.6.06-1.29.09-2.59.09-3.88h0a1.84,1.84,0,0,1,3.67,0h0c0,2.15-.1,4.3-.19,6.45-.08,1.85-.2,3.7-.32,5.55s-.22,3.77-.37,5.65q-.3,3.87-.62,7.74c-.26,3.26-.55,6.51-.84,9.77-.31,3.51-.6,7-.85,10.55s-.42,7.18-.67,10.77c0,.33-.05.67-.05,1a1.84,1.84,0,0,1-3.67,0Z"/>
    </g>
  </g>
  <g id="parent-wc1_layer-base_side-a">
    <g class="cls-5">
      <path class="cls-6" d="M204.94,715.7c0-.76.17-1.52.23-2.28.11-1.74.17-3.49.25-5.24.09-2,.3-3.93.48-5.89.28-4.37.43-8.74.67-13.11.05-.87.1-1.73.14-2.59.06-1.15.15-2.29.17-3.44s.06-2.41.08-3.63c0-.46,0-.93,0-1.4a18.23,18.23,0,0,1,.09-2.22,2,2,0,0,1,.76-1.33,2.09,2.09,0,0,1,1.78-.35h0a2,2,0,0,1,1.41,1.42,2.25,2.25,0,0,1,0,1.11c0,1,0,2-.05,2.93,0,1.18,0,2.36-.08,3.54-.11,2.25-.23,4.49-.35,6.74s-.22,4.29-.31,6.43-.19,4.55-.39,6.83c-.11,1.21-.22,2.42-.32,3.63-.18,3-.19,6-.58,8.95a2,2,0,0,1-4-.1Z"/>
      <path class="cls-6" d="M202.54,717.72l-.65-.46-.24-.15a6,6,0,0,1-1.73-.86c-.58-.41-1.1-.91-1.63-1.37-1.24-1.09-2.39-2.28-3.54-3.47s-2.43-2.46-3.65-3.68c-.56-.56-1.16-1.08-1.74-1.62s-1.23-1.13-1.84-1.7l-8.27-7.17c-2.14-1.85-4.21-3.77-6.29-5.69-.18-.06-.37-.12-.55-.2a5.3,5.3,0,0,1-1.26-.78,7.51,7.51,0,0,1-1.69-1.82,2,2,0,0,1,1.47-3,3.07,3.07,0,0,1,1.13.06,4.18,4.18,0,0,1,1.47.82c.5.4.95.88,1.43,1.32l.15.14a1.61,1.61,0,0,1,.45.41l2.11,1.92c1.33,1.22,2.69,2.42,4,3.63l4.46,3.85c1.75,1.52,3.51,3,5.2,4.58.86.81,1.76,1.58,2.6,2.42l2.56,2.54c1.49,1.48,2.88,3,4.44,4.43.47.42.94.84,1.45,1.22l.18.1.07,0a4.59,4.59,0,0,1,1.12.47c.42.27.83.56,1.23.86a2,2,0,0,1-1.24,3.61A2,2,0,0,1,202.54,717.72Z"/>
      <path class="cls-6" d="M240.88,718.47a3,3,0,0,1-.37-.68l-.3-.61.06.13c-.52-1-1.12-2-1.71-2.92s-1.26-2-1.87-3-1.28-2-1.92-3-1.27-2-1.92-3-1.36-2-2-3.06-1.2-1.92-1.77-2.89c-1.2-2-2.4-4-3.62-6q-2-3.3-4-6.57c-.64-1-1.3-2.07-2-3.1s-1.33-2-2-3.07L217,680c-1-1.43-2.05-2.84-3-4.28a1.32,1.32,0,0,1-.33-.63,1.12,1.12,0,0,1,.52-1.18,1.1,1.1,0,0,1,1.43.28c.17.23.33.48.49.72l0,0,2.21,3.09c.74,1,1.44,2.11,2.15,3.18,1.34,2,2.61,4.1,3.89,6.16s2.35,3.85,3.52,5.78c.65,1.1,1.31,2.19,2,3.29s1.17,2,1.77,3,1.35,2.16,2.05,3.23,1.23,1.82,1.83,2.75,1.28,2,1.94,3c.33.52.67,1,1,1.57s.56.95.85,1.41c.62,1,1.24,2,1.84,2.94.3.5.6,1,.89,1.5s.49.95.73,1.44a1.12,1.12,0,0,1-.22,1.53,1.09,1.09,0,0,1-.66.22A1.14,1.14,0,0,1,240.88,718.47Z"/>
      <path class="cls-6" d="M243.62,711.05c0-1.18,0-2.36,0-3.54s-.08-2.26-.14-3.39c0-.63-.07-1.27-.08-1.91s0-1.24,0-1.86c0-1.07.11-2.14.16-3.21.13-2.36.24-4.72.26-7.08q0-4.08,0-8.17c0-1.57,0-3.14,0-4.72,0-.55,0-1.1,0-1.65a7.59,7.59,0,0,1,.07-1.35,1.24,1.24,0,0,1,1-1,1.14,1.14,0,0,1,1.28,1.14,1.08,1.08,0,0,1-.14.53c-.05,2.22,0,4.44,0,6.66q0,4.11,0,8.22c0,2.34-.11,4.67-.24,7-.05,1.08-.13,2.15-.17,3.22,0,.6-.06,1.2,0,1.8s0,1.3.06,1.95c.06,1.23.13,2.46.17,3.69s0,2.47,0,3.71a1.1,1.1,0,0,1-2.2,0Z"/>
      <path class="cls-6" d="M204.8,723.11c-.74,0-1.49,0-2.24,0-1.4,0-2.8,0-4.19-.15-1.56-.14-3.11-.32-4.67-.45s-3.42-.07-5.13-.05c-1.53,0-3.07,0-4.6,0-3.41-.14-6.8-.49-10.2-.75H174c-.76,0-1.5-.09-2.25-.09a1.78,1.78,0,0,1-.47.19c-1,.26-2.4.65-3.28-.12a1.86,1.86,0,0,1-.58-2.17,2.15,2.15,0,0,1,1-1.07,4.91,4.91,0,0,1,1.45-.41,12.13,12.13,0,0,1,1.7-.11c1.12,0,2.23.09,3.34.18,2.09.17,4.17.37,6.25.52,1.46.09,2.93.17,4.39.18s3.08,0,4.62,0h2.39c.84,0,1.67.1,2.5.17,1.4.11,2.79.29,4.19.4s2.64.09,4,.09,2.43.12,3.63.06l.52-.07.52-.14a5.09,5.09,0,0,1,.68-.12l.23-.12a1.84,1.84,0,0,1,2.14,3,4.13,4.13,0,0,1-.65.36,3.32,3.32,0,0,1-1,.37l-.41.06c-.19.05-.38.12-.57.16a8.36,8.36,0,0,1-1.66.19h-.37C205.81,723.15,205.3,723.13,204.8,723.11Z"/>
      <path class="cls-6" d="M206.31,723.19a2.07,2.07,0,0,1-1.41-.57,3.16,3.16,0,0,1-.76-1.68,9.64,9.64,0,0,1-.12-1.08,5.86,5.86,0,0,1,0-1.45,1.83,1.83,0,1,1,3.63.5,1.11,1.11,0,0,0,0,.19,2.16,2.16,0,0,0,0,.36c0,.26.05.51.08.76a1.8,1.8,0,0,1,.4,1.14,1.85,1.85,0,0,1-1.76,1.84Z"/>
    </g>
  </g>
  <g id="parent-wc1_layer-base_side-b-2" data-name="parent-wc1_layer-base_side-b">
    <g class="cls-7">
      <path class="cls-8" d="M180.44,665.4a3.23,3.23,0,0,1-1.08.19,3,3,0,0,1-.93-.13,3.37,3.37,0,0,1-2.4-2.74,10.74,10.74,0,0,1,.51-3.71c.22-1.08.46-2.16.63-3.25v0q-.09-1.79-.15-3.57c-.12-3.51-.12-7-.12-10.55q0-5.76.1-11.53c.06-3.55.27-7.11.43-10.66.2-4.48.49-9,.85-13.45s1-9,1.44-13.55c.26-4.75.38-9.5.7-14.25.08-1.15.16-2.3.25-3.46.07-.9.1-1.81.23-2.7a3.74,3.74,0,0,1,3.07-3.38,3.42,3.42,0,0,1,2.89,1,5.57,5.57,0,0,1,.87,1.28,3.3,3.3,0,0,1,2.27,2.7,26.64,26.64,0,0,1,.07,4.81l-.15,3.35c0,1-.09,2-.14,3s0,1.85,0,2.78c0,1.55,0,3.1,0,4.65q-.09,6-.23,12.06c-.15,7-.29,14-.64,21-.24,4.78-.54,9.55-1,14.31q-.31,2.94-.64,5.88c0,.53,0,1.06,0,1.59,0,2.77-.08,5.55-.13,8.32,0,1.06,0,2.12-.07,3.18l-.09,2.61a20.32,20.32,0,0,1-.24,3.31,3.38,3.38,0,0,1-2.83,2.83l-.42,0A3.34,3.34,0,0,1,180.44,665.4Z"/>
      <path class="cls-8" d="M179.37,573.88c0-2,1.64-3.18,3.18-4.12a24.56,24.56,0,0,1,5.92-2.17,45.91,45.91,0,0,1,7.51-1.72l.69-.07a9.88,9.88,0,0,1,1.22-.12c1.71-.16,3.44-.27,5.15-.39,1.23-.09,2.46-.15,3.69-.2l1.76-.07,1,0a5.39,5.39,0,0,1,2,.4l.14.06a21.18,21.18,0,0,1,2.75.28l3.16.57c2,.36,4.06.61,6.09.84a3.31,3.31,0,1,1-.9,6.56c-1.65-.19-3.3-.4-4.93-.66-2-.32-3.91-.75-5.88-1-.67,0-1.33,0-2,0-.36,0-.73.05-1.06.06l-1.16,0c-1.11,0-2.21.06-3.32.07-1.6,0-3.21,0-4.82,0-1,.09-1.95.22-2.93.23h-.15c-.52.07-1.05.15-1.57.24-2.59.59-5.17,1.3-7.69,2.14-.41.16-.82.33-1.22.51-.2.11-.4.22-.59.34l-.13.1a3.3,3.3,0,0,1-6-1.93Z"/>
      <path class="cls-8" d="M188.37,668.72c-.85-.07-1.7-.13-2.55-.23-.68-.07-1.35-.2-2-.25a3.31,3.31,0,0,1,.45-6.58h0a3.44,3.44,0,0,1,.46,0c.66,0,1.32.18,2,.25s1.44.14,2.16.2c2.44.06,4.87,0,7.31,0s5-.06,7.52-.09h-.09c1-.07,2-.14,2.93-.26,1.22-.14,2.42-.31,3.64-.49,2.32-.33,4.65-.62,7-1,2.16-.31,4.32-.54,6.49-.73,1-.08,2-.21,3-.33s2-.2,2.94-.36c.8-.18,1.59-.4,2.37-.65a3.31,3.31,0,0,1,1.76,6.38,24,24,0,0,1-4.73,1c-1.47.15-2.94.38-4.41.51-1.62.14-3.23.3-4.84.49s-3.43.5-5.13.75-3.5.46-5.25.71-3.44.39-5.17.51c-1.1.08-2.21.07-3.32.06-.62,0-1.24,0-1.86,0l-5.57.11c-.8,0-1.6,0-2.41,0S189.24,668.78,188.37,668.72Z"/>
      <path class="cls-8" d="M232.7,670.94a3.34,3.34,0,0,1-2.4-2.74c-.19-1.52-.25-3.05-.29-4.58a18.59,18.59,0,0,1-.19-3.37c0-1.94,0-3.87,0-5.81,0-1.31,0-2.63,0-3.94,0-1.46,0-2.93,0-4.4q0-11.33,0-22.64V602.24c0-3.31,0-6.64.17-10q.18-2.79.43-5.58a40,40,0,0,1,.89-5c.08-.35.16-.71.23-1.07,0-.18.07-.36.1-.53s0-.57.07-.85l.06-.65c-.54-.16-1.09-.29-1.63-.43-.94-.23-1.86-.55-2.77-.87l-1.29-.42a3,3,0,0,1-1.27,1.33,4.74,4.74,0,0,1-2.87.4c-2.43-.07-4.84,0-7.26.13s-4.54.19-6.81.27c-.73.11-1.47.23-2.19.37-.31.07-.61.15-.91.24l-.29.13-.22.12-.15.13a3.32,3.32,0,0,1-4.64-.6,3,3,0,0,1-.61-1.32l-1.44.3c-1,.22-2,.42-3,.66a11.91,11.91,0,0,1-2.11.55,3.3,3.3,0,0,1-1.73-6.32,15.86,15.86,0,0,1,2-.59c1.19-.46,2.35-1,3.52-1.46a26.81,26.81,0,0,1,4.64-1.44,46.79,46.79,0,0,1,5.23-.88,44.94,44.94,0,0,1,4.92-.17c3.36,0,6.71.28,10.06.54a38.82,38.82,0,0,1,4.92.69,35.46,35.46,0,0,1,4.37,1.33c1.37.44,2.79.72,4.15,1.19a5.72,5.72,0,0,1,3.78,3,3,3,0,0,1,.33.83,17.66,17.66,0,0,1,.28,3.85c0,1.23,0,2.45,0,3.68,0,1.87-.06,3.73-.1,5.59q-.1,5.4-.23,10.81c-.14,6.89-.1,13.8-.12,20.7,0,7.26,0,14.54-.34,21.79-.21,3.82-.43,7.63-.59,11.45-.15,3.39-.21,6.79-.28,10.18,0,.67,0,1.34,0,2a13.09,13.09,0,0,1-.08,1.66,3.71,3.71,0,0,1-1,2,3.18,3.18,0,0,1-2.34,1A3.22,3.22,0,0,1,232.7,670.94Z"/>
      <path class="cls-8" d="M207,654.54c1.15-.15,2.32-.22,3.48-.29a5.17,5.17,0,0,1-1.32-1.57l-.16-.32A25.69,25.69,0,0,1,207,654.54Zm10.73,15.06c-2.53,0-5.05-.1-7.58-.27l.58,0c-1.48-.09-3-.2-4.42-.3l.57,0c-1.42-.09-2.85-.2-4.28-.17-.69,0-1.38.08-2.08.1s-1.34,0-2,0a43.82,43.82,0,0,1-5-.23,19.53,19.53,0,0,1-5.52-1.48,4.21,4.21,0,0,1-.09-7.73c-.43-.23-.84-.5-1.25-.77a8,8,0,0,1-2.52-3.37,10.2,10.2,0,0,1-.69-4.24,32.77,32.77,0,0,1,.5-5.13,27.3,27.3,0,0,1,1.25-4.9,6.37,6.37,0,0,1,2-2.9,5.87,5.87,0,0,1-1.51-2.47,10.08,10.08,0,0,1-.27-1.63,15.55,15.55,0,0,1,.06-2.05c.35-5.86,1-11.71,1.68-17.54.6-5.43,1.25-10.85,1.89-16.27a3.75,3.75,0,0,1,.24-1q0-1.23,0-2.46c0-1.91.07-3.82.11-5.73.05-2.36,0-4.76.83-7a4.22,4.22,0,0,1,3.57-2.57,4.41,4.41,0,0,1,1.24-3,4.24,4.24,0,0,1,3-1.24,4.17,4.17,0,0,1,3.22,1.53,4.23,4.23,0,0,1,1.77-.69,4,4,0,0,1,1.29,0,4.27,4.27,0,0,1,4.08-1.07,4,4,0,0,1,1.63.88,4.3,4.3,0,0,1,4-1.67,4.19,4.19,0,0,1,1.33.41,4.16,4.16,0,0,1,1.21-1.53,4.23,4.23,0,0,1,6.81,3.35c0,1.84.08,3.66,0,5.49a4.12,4.12,0,0,1,1.82,1.52,5,5,0,0,1,.25-.81,4.89,4.89,0,0,1,2.7-2.73A4.23,4.23,0,0,1,234,584c.07,1.63.18,3.26.15,4.89l-.06,3.84c0,1.78,0,3.57-.09,5.35-.15,4.09-.28,8.19-.45,12.28Q233,623,232.48,635.64c0,1.07-.09,2.14-.14,3.2a4.38,4.38,0,0,1-1,2.72c0,.58,0,1.17-.07,1.76a8.09,8.09,0,0,1-.51,2.16,5.24,5.24,0,0,1-.44,1l0,0a4.33,4.33,0,0,1,1.75,4c-.07.57-.17,1.13-.22,1.7l-.09.89a4.38,4.38,0,0,1,.92.75A12.78,12.78,0,0,1,234.3,656a7.74,7.74,0,0,1,1.3,4.21,5.91,5.91,0,0,1-2.27,4.45,14.92,14.92,0,0,1-4.08,2.34,19.93,19.93,0,0,1-2.15.69c-.5.13-1,.23-1.52.38a23.65,23.65,0,0,1-3.3,1.1,20.44,20.44,0,0,1-4.4.47Z"/>
      <path class="cls-9" d="M182.62,573a4.27,4.27,0,0,1,1.52-5.78c1.2-.72,2.46-1.33,3.71-1.93l.19-.1a9.39,9.39,0,0,1,4.56-1,4.22,4.22,0,0,1,3.61,3.61,4.27,4.27,0,0,1-2.54,4.47l-.42.17a4.2,4.2,0,0,1-1.51.31l-.34.15-1.2.58c-.61.32-1.21.63-1.8,1a4,4,0,0,1-2.08.57A4.31,4.31,0,0,1,182.62,573Z"/>
      <path class="cls-9" d="M180.46,573a4.25,4.25,0,0,1,.66-5.12,9.61,9.61,0,0,1,3.81-2c.62-.18,1.26-.32,1.89-.47l.41-.09c1.16-.42,2.33-.83,3.51-1.19,2.34-.72,4.71-1.3,7.06-2s4.54-1.23,6.81-1.84a22.41,22.41,0,0,1,5.88-1.18,4.22,4.22,0,0,1,0,8.44l-.81.13c-1.32.3-2.61.69-3.91,1-1.64.44-3.3.84-4.93,1.32-2.92.85-5.87,1.61-8.78,2.51a3.29,3.29,0,0,1-.87.46c-1,.35-2,.61-3,.9l-1.06.39a11.54,11.54,0,0,1-2.51.76,4.19,4.19,0,0,1-.5,0A4.25,4.25,0,0,1,180.46,573Z"/>
      <path class="cls-9" d="M230.34,577.87l-.24-.25c-1-.64-2-1.23-3.07-1.82a4.41,4.41,0,0,1-1.95-.3,31.36,31.36,0,0,1-4.08-2.19l-.87-.5c-1.26-.62-2.54-1.21-3.82-1.78-1.46-.65-3-1.17-4.49-1.69-.38-.13-.77-.25-1.15-.36l-.22,0a4.26,4.26,0,0,1-4.76-3.62,4.57,4.57,0,0,1,1.68-4.07,5.38,5.38,0,0,1,4.52-.75,4.49,4.49,0,0,1,3.73-.23c1.23.47,2.39,1.12,3.58,1.68s2.14,1,3.19,1.54c2,1,4,2.12,6,3.27,1.74,1,3.48,2,5.21,3a13.49,13.49,0,0,1,2.7,2,4.21,4.21,0,0,1-3,7.2A4.13,4.13,0,0,1,230.34,577.87Z"/>
      <path class="cls-9" d="M210.45,569.37h-.08a1.67,1.67,0,0,1-1.52-1,3.77,3.77,0,0,1-.2-.93c0-.22,0-.44-.05-.66l-.09-.93c-.07-.77-.16-1.53-.24-2.3-.1-1-.2-1.91-.23-2.87a7.13,7.13,0,0,1,.34-2.47,2.65,2.65,0,0,1,.23-.48,4.92,4.92,0,0,1,0-.94,1.65,1.65,0,1,1,3.27.45v0c0,.24,0,.49,0,.74s0,.79,0,1.18c0,.8.05,1.6.08,2.39s.06,1.72.11,2.59c0,.46.05.92.07,1.38a11.9,11.9,0,0,1,0,1.58,4,4,0,0,1-.25,1.25,1.68,1.68,0,0,1-1.46,1Z"/>
      <path class="cls-9" d="M228.81,590.94l-.28-.17-.38.2a2.41,2.41,0,0,1-2.08-.06,2.55,2.55,0,0,1-1.81-.71,2.76,2.76,0,0,1-.89-1.61,1.79,1.79,0,0,1,0-.23,2.08,2.08,0,0,1-.19-.43,4,4,0,0,1,.14-2.81,3.13,3.13,0,0,1,.06-3.26,2.59,2.59,0,0,1,.56-.63,3.54,3.54,0,0,1,1-4.22,2.8,2.8,0,0,1,.47-.67,2.55,2.55,0,0,1,3.54,0l.08.08q.42.27.84.51a5.77,5.77,0,0,1,.55.35,3,3,0,0,1,2.14,1.82,2.82,2.82,0,0,1-.16,2.39,3.25,3.25,0,0,1-1.89,1.35,4.18,4.18,0,0,1-.93.14,3.18,3.18,0,0,1,.5,1.8c0,.37,0,.74,0,1.1a2.74,2.74,0,0,1,.42.21c.31.17.61.35.91.53a2.5,2.5,0,0,1-1.29,4.66A2.38,2.38,0,0,1,228.81,590.94Z"/>
    </g>
  </g>
  <g id="parent-wc1_layer-base_side-a-2" data-name="parent-wc1_layer-base_side-a">
    <g class="cls-10">
      <path class="cls-11" d="M200.26,655.77a25.48,25.48,0,0,1,0-3.27q0-1.32.06-2.64c0-1.78.22-3.55.4-5.31s.38-3.65.51-5.48.27-3.59.45-5.38c.05-.53.09-1.07.14-1.61.22-3.49.34-7,.47-10.48s.35-7.25.74-10.86c.18-1.65.42-3.3.64-4.94.17-1.28.34-2.57.49-3.85s.08-2.56.11-3.84a1.76,1.76,0,0,1,.45-1.13c.26-2.44.5-4.88.75-7.32q.41-4,.74-8.11c0-1.72.13-3.43.25-5.14a1.66,1.66,0,0,1,1.64-1.43,1.68,1.68,0,0,1,1.65,1.65c0,.39,0,.78,0,1.16,0,.07,0,.14,0,.21a1.86,1.86,0,0,1,0,.34,1.36,1.36,0,0,1,0,.2c0,.46,0,.92,0,1.38,0,.72,0,1.44,0,2.16,0,1.08,0,2.17,0,3.25,0,2.62,0,5.24,0,7.85a1.67,1.67,0,0,1-1.43,1.64h-.09c-.13,1.21-.25,2.41-.38,3.62s-.27,2.48-.42,3.72c-.06,2.18-.11,4.37-.11,6.55,0,2,0,4,0,6.08,0,.75,0,1.5,0,2.26s0,1.76-.11,2.64c-.09,1.14-.19,2.29-.28,3.43-.07.75-.18,1.5-.27,2.25q-.37,2.91-.78,5.81c-.26,1.83-.5,3.66-.74,5.49-.2,1.57-.39,3.15-.54,4.72q-.33,3.57-.6,7.14c0,1-.11,2-.15,3l-.09,2a12.72,12.72,0,0,1-.25,2.54,1.65,1.65,0,0,1-3.23-.22Z"/>
      <path class="cls-11" d="M201.77,666.72a51.35,51.35,0,0,1-.08-5.55c0-2.07.17-4.13.31-6.2l0,.45c.1-1.58.22-3.17.34-4.75a2.87,2.87,0,0,1-.7-.69,3.85,3.85,0,0,1-.74-2,15.86,15.86,0,0,1,0-2c0-.95.1-1.9.16-2.85.13-2,.31-4,.46-6l.09-1.89c0-.26,0-.52,0-.78.05-2.16.18-4.32.33-6.47,0-.49,0-1,.07-1.46.17-3.54.43-7.09.63-10.64s.32-6.93.44-10.39.08-7.1.45-10.63c.18-1.64.36-3.28.49-4.93,0-1,0-2.07,0-3.1,0-.61,0-1.22,0-1.82a10.23,10.23,0,0,1,.17-2.41,3.37,3.37,0,0,1,.1-.34v-.21c0-1,0-2.07,0-3.11a10.74,10.74,0,0,1,.2-2.33,3.31,3.31,0,0,1,1.56-2,3.21,3.21,0,0,1,1.32-.43,3.27,3.27,0,0,1,3.23.85,5.07,5.07,0,0,1,.64.81,4.13,4.13,0,0,1,.43,1.19,8.25,8.25,0,0,1,.15,1.92c0,.87.08,1.76.08,2.63,0,1.93,0,3.84-.07,5.76-.1,3.53-.29,7.07-.57,10.59-.09,1.16-.18,2.31-.28,3.46,0,1.78-.1,3.56-.14,5.33-.06,3.5,0,7-.08,10.48-.08,3.64-.14,7.28-.29,10.92-.14,3.29-.56,6.56-.8,9.85-.15,2.41-.3,4.83-.41,7.24s-.32,5-.51,7.44c-.12,1.82-.24,3.65-.37,5.47l0-.44c-.08,1.28-.1,2.57-.11,3.86s0,2.76,0,4.14v0a3.36,3.36,0,0,1-2.83,3.73l-.42,0A3.31,3.31,0,0,1,201.77,666.72Z"/>
      <path class="cls-11" d="M181.62,579.48a3.35,3.35,0,0,1,3.31-3.31h.55a2.78,2.78,0,0,1,1.09-.34c1.06-.09,2.12-.07,3.18-.09s2.18-.07,3.27-.14c.82-.05,1.64-.13,2.46-.13h.6a4.21,4.21,0,0,1,.88-.33,8.93,8.93,0,0,1,1.8-.16l1.05,0,2-.1c1-.2,2-.4,2.95-.58,1.23-.22,2.65-.57,3.82,0a3.31,3.31,0,0,1,.73,5.67,2.61,2.61,0,0,1-.27.19,3.69,3.69,0,0,1-1.53,1,6.29,6.29,0,0,1-1.08.25,3.54,3.54,0,0,1-1.31.74,9.22,9.22,0,0,1-2.69.26h-.53c-.53,0-1.07,0-1.6,0s-1.32.2-2,.28a3.51,3.51,0,0,1-1.37-.11c-.84,0-1.68.06-2.51.12-1.4.09-2.8.16-4.2.18-1.76,0-3.51,0-5.27,0h0A3.34,3.34,0,0,1,181.62,579.48Z"/>
      <path class="cls-11" d="M177.28,665.44a3.29,3.29,0,0,1-.82-3.24h0a1.74,1.74,0,0,0,0-.22v-.06c0-.75,0-1.49.13-2.24.09-.91.27-1.81.35-2.73.05-1.09,0-2.19,0-3.28v-4c0-2.62,0-5.24.05-7.87.06-2.88.06-5.76,0-8.64,0-1.44,0-2.87.06-4.3s.23-3,.36-4.49.17-3.12.31-4.67.26-3.1.37-4.65v.05c.12-2,.21-4,.29-6.07s.22-4.06.37-6.09c.18-3.17.23-6.32.24-9.49,0-3.35,0-6.7,0-10.05v-.09a3,3,0,0,1,.6-1.9,7.26,7.26,0,0,1,.26-3.12v.05a3.3,3.3,0,0,1,6.35,1.65v0c0,1,.06,2,.08,3q0,2,.06,3.93c0,1,0,2,0,3.06,0,1.39.11,3-.65,4.21v1c0,3.77-.23,7.51-.49,11.26-.14,2.55-.21,5.1-.36,7.64s-.4,5.23-.6,7.85c-.06,1-.08,2-.17,3s-.19,1.9-.27,2.85c-.17,3.06-.09,6.14-.09,9.21s-.1,6.25-.1,9.38c0,2.81,0,5.61,0,8.42a28.09,28.09,0,0,1-.16,3.67c-.1.79-.24,1.56-.31,2.35-.08,1.58,0,3.26-1.21,4.49a3.22,3.22,0,0,1-2.32,1A3.33,3.33,0,0,1,177.28,665.44Z"/>
      <path class="cls-11" d="M201.16,669.13l-3.31-.23h-.21c-.89,0-1.78,0-2.66-.08l-.63,0c-.35,0-.69,0-1-.08a5.77,5.77,0,0,1-2-.35l-.1-.05-.73-.07c-.65,0-1.31,0-2-.05-.81,0-1.61-.17-2.42-.26-.5-.06-1-.07-1.5-.15l-1.17-.15a11.42,11.42,0,0,1-2.4-.45c-.46-.14-.9-.33-1.34-.5a3.56,3.56,0,0,1-2.39-2.82,3.38,3.38,0,0,1,1.61-3.31,2.52,2.52,0,0,1,.47-.22,2.82,2.82,0,0,1,1.59-.68,3.4,3.4,0,0,1,.77-1,3.18,3.18,0,0,1-.26-1.78,3.33,3.33,0,0,1,.72-1.64,3,3,0,0,1,.89-1.58,3.7,3.7,0,0,1,1.53-.92,5.45,5.45,0,0,1,2.09-.09c.8.1,1.61.18,2.41.25,1.34.14,2.67.3,4,.46,3,.36,5.9.74,8.85,1.11a3.32,3.32,0,0,1,2.86,3.27,10.86,10.86,0,0,0-1.37,4.29,4.18,4.18,0,0,1,2.27,1.39,3.37,3.37,0,0,1,.5,3.18,1.14,1.14,0,0,1-.06.25A3.35,3.35,0,0,1,205,668.6a3.61,3.61,0,0,1-2,.69h-.24A12.36,12.36,0,0,1,201.16,669.13Z"/>
      <path class="cls-11" d="M190.48,657.75q-.4-.19-.78-.42a3.27,3.27,0,0,1-3.2-.86c-.2-.23-.39-.45-.57-.69a3.34,3.34,0,0,1-4.54.45,4.24,4.24,0,0,1-1.76-3.6c0-1,0-1.9,0-2.85,0-1.55,0-3.08.05-4.63s.11-3.2.28-4.79a39.49,39.49,0,0,1,1.14-7.18c0-1,0-2.11,0-3.16v-.55c-.07-2.63-.13-5.25-.13-7.88s0-5.47.1-8.21c.07-1.61.12-3.22.23-4.83,0-.55-.07-1.09-.1-1.64-.07-1.41-.16-2.82-.18-4.23,0-1.88-.06-3.74,0-5.62,0-.54,0-1.09.08-1.64l0-1.64c0-3-.08-5.93-.07-8.89,0-.79.05-1.58.1-2.36a12.8,12.8,0,0,1,.29-2.31,4.2,4.2,0,0,1,2.33-3,7.5,7.5,0,0,1,2.47-.42,3.78,3.78,0,0,0,.47-.06l1.23-.24c.41-.09.81-.21,1.22-.31s1.11-.16,1.67-.25a9.27,9.27,0,0,1,2-.16c.41,0,.83,0,1.24,0,.89-.08,1.77-.23,2.65-.39.52-.11,1-.25,1.56-.31.72-.09,1.46-.12,2.18-.15s1.37,0,2.05-.05a9.78,9.78,0,0,1,2.94.38A5,5,0,0,1,208,577a5.22,5.22,0,0,1,1.05,3.67c0,1.31-.13,2.61-.23,3.91-.05,1.06-.05,2.12-.17,3.17-.09.73-.19,1.46-.29,2.18-.07.47-.15.93-.24,1.4a13.6,13.6,0,0,1-.64,2.24,2.52,2.52,0,0,1-.14.33c-.14,2.61-.25,5.21-.37,7.82-.09,1.86-.17,3.73-.27,5.59-.06,1.27-.13,2.53-.2,3.8a42.41,42.41,0,0,1-.37,5,3.47,3.47,0,0,1-1.84,2.53c0,1.42,0,2.84,0,4.26,0,.57,0,1.15,0,1.72,0,1,0,2.08-.07,3.13s-.17,1.91-.3,2.86a3.26,3.26,0,0,1-.67,1.57c0,.13,0,.27,0,.4v.06a3.3,3.3,0,0,1,1.78.68,3.88,3.88,0,0,1,1.42,2,3.39,3.39,0,0,1-1.12,3.46c-.1.37-.18.74-.26,1.11,0-.14.05-.28.08-.43-.91,4.53-1.67,9.07-2.43,13.63a3.36,3.36,0,0,1-3.28,2.86,3.23,3.23,0,0,1-1.08-.19,3,3,0,0,1-.43.09,3.44,3.44,0,0,1-2.12-.42,2.94,2.94,0,0,1-.51,0l-.21,0c0,.06,0,.12,0,.18a3.36,3.36,0,0,1-3.24,2.44A2.86,2.86,0,0,1,190.48,657.75Z"/>
      <path class="cls-11" d="M193.47,584.66a11.74,11.74,0,0,1-1.3-.45c-1.4-.48-2.79-1-4.2-1.38s-2.78-.9-4.19-1.24A3.3,3.3,0,0,1,184,575c2,0,3.93,0,5.89,0,1.49,0,3,0,4.48-.05s2.84,0,4.26-.1c.77-.06,1.53-.13,2.3-.13s1.76.07,2.64.14a12.46,12.46,0,0,1,1.73.1,3.3,3.3,0,0,1,1.06,6.21,3.31,3.31,0,0,1-2.37,1.56l-.45,0a6.58,6.58,0,0,1-2.58.33c-.17,0-.34,0-.51,0H197.7l-.47,0a3.43,3.43,0,0,1-3.76,1.56Z"/>
      <path class="cls-11" d="M181.62,573.24a2.68,2.68,0,0,1-1.21-.52,2.29,2.29,0,0,1-.75-2.59,4.62,4.62,0,0,1,2.22-2.72l1.26-.63c.53-.24,1.08-.42,1.62-.64.69-.28,1.37-.62,2.08-.85s1.5-.49,2.27-.71c1.42-.39,2.83-.84,4.26-1.19s3-.7,4.5-1l-.06,0,.21,0h0l.84-.18,1.19-.34c.79-.23,1.59-.45,2.4-.6a1.24,1.24,0,0,1,.33,0l.58-.25a18,18,0,0,1,2.33-.84,10.08,10.08,0,0,1,1.09-.24l.42,0a2,2,0,0,1,.7-.5,5.67,5.67,0,0,1,2.13-.57,2.66,2.66,0,0,1,1,.19,2,2,0,0,1,.86.67,2.41,2.41,0,0,1,.41.48,2.63,2.63,0,0,1,.31,1,5.09,5.09,0,0,1,.09,1c0,.33,0,.65-.06,1a2.64,2.64,0,0,1-.1.74,6.13,6.13,0,0,1-.22.6,9,9,0,0,1-1.06,1.86c-.2.31-.4.62-.61.92s-.55.7-.84,1.05-.73.85-1.08,1.28a2,2,0,0,1-.22,3.34,3.84,3.84,0,0,1-2.57.1H206c-1.53-.06-3.06-.05-4.6,0l-3,0c-1,0-2,0-3,0-2,0-4,0-6,.12l-3.18.09c-1,0-2.11.11-3.16.15-.3,0-.6,0-.91,0Z"/>
    </g>
  </g>
</svg>
