<svg id="Layer_group" data-name="Layer group" xmlns="http://www.w3.org/2000/svg" viewBox="0 0 2048 1536"><defs><style>.cls-1{fill:#3c3c3c;}.cls-2{fill:#262626;}.cls-3{fill:#908e8c;}.cls-4{fill:#bfbfbf;}.cls-5{fill:#b4b5b3;}</style></defs><g id="Vector_layer" data-name="Vector layer"><path class="cls-1" d="M2011.26,308.88a6.06,6.06,0,0,1-5.14-6.77c.17-1.25.35-2.49.53-3.73a12.11,12.11,0,0,1,.6-2.53,8.87,8.87,0,0,1,1.4-2.35,5.93,5.93,0,0,1,9.7,6.8c-.13,1.15-.2,2.29-.32,3.44a6,6,0,0,1-6,5.2A4.87,4.87,0,0,1,2011.26,308.88Z"/><path class="cls-1" d="M1958,1090.44c0-7.1.5-14.2.73-21.3.24-7.55.36-15.1.45-22.65.15-12.81-.19-25.63-.52-38.42-.71-27.74-.75-55.46-.67-83.19,0-14.62.93-29.25,1.67-43.85.63-12.47,1.61-24.91,2.41-37.37q.86-13,1.59-26c-.87-22.9-1.23-45.81-1.42-68.74-.11-12.75-.18-25.49-.49-38.24-.34-14.48-.86-28.92-1.48-43.39-.31-7.53-.88-15.06-1.21-22.59a33.54,33.54,0,0,1,.5-7.33c-.22-5.6-.46-11.21-.69-16.81-.29-6.92-.22-13.87-.32-20.79-.09-6.75,0-13.49.07-20.23.07-13,.43-26,.75-39,.39-15.71,1-31.36,2.45-47,.61-6.65,1.19-13.3,1.78-19.95l-.15-1.13c-.84-6.44-1.32-12.9-1.8-19.38-1.09-14.73-.77-29.55-.85-44.3-.12-26.14-.78-52.29-.65-78.44.14-27.21.24-54.44.86-81.64q-.29-8.5-.56-17c-.13-4.2-.11-8.4-.11-12.6l0-29.09c0-13.53.54-27.06.92-40.59.25-9.18.78-18.41,1.48-27.57q.52-6.76,1-13.51c.17-2.21.39-4.42.61-6.62-.1-.44-.19-.89-.26-1.35A205.77,205.77,0,0,1,1962,78.7c-.38-6.27-.85-12.56-1-18.84s-.1-12.23.09-18.36c.1-3.33.29-6.69.69-10,.08-.69.19-1.38.31-2.06a24.94,24.94,0,0,1,.37-10.39,22.21,22.21,0,0,1,1.15-3.39c-.06-.19-.11-.37-.16-.56a27.3,27.3,0,0,1,2.73-20.91c6.62-11.29,21.81-17,34-11.3l1,.43c1.79.27,3.59.52,5.37.88a66.86,66.86,0,0,1,14.68,4.58,43.44,43.44,0,0,1,9,5.51c1,0,2,.14,3.06.26A25.63,25.63,0,0,1,2048,2.18c4,4,6.4,9.36,7.85,14.75a91.33,91.33,0,0,1,2.38,16.62c.66,8.57.83,17.17,1.16,25.76.29,7.47.1,15,.14,22.48,0,5.86,0,11.72,0,17.59-.16,29.14,0,58.27.3,87.41q.11,11.07.23,22.14c-.19,1.17-.38,2.34-.56,3.52-.91,5.88-1.62,11.78-2.34,17.68-1.42,11.55-2.46,23.15-3.6,34.74-1.94,19.79-3.3,39.58-4.43,59.44-.91,15.79-1.6,31.6-1.84,47.42q-.36,25.26,0,50.5c.15,10.14.46,20.32,1.4,30.43.54,5.72.92,11.47,1.92,17.13,1.5,8.55,3.14,17.13,6.41,25.21q-.37,18.06-.77,36.12c-.76,32.12-2.06,64.21-3.65,96.3q-2.37,35.91-4.52,71.86c-1.71,28.48-2.47,57-2.85,85.53,0-3.26.11-6.52.16-9.79-.24,14.77-.36,29.54-.44,44.31l.06-10c-.28,31.08-1.39,62.12-2.37,93.17a61.56,61.56,0,0,0-.58,19.38q-.25,8.82-.46,17.63c-1,43.47.09,86.88,1.56,130.33,0,1.23.09,2.45.12,3.68-1.94,0-3.88,0-5.83.06l-20.11.18-5.65.06c-15.69.14-31.92.28-47.9.35,0,2.08,0,4.16,0,6.24s0,3.91,0,5.85v.7a22,22,0,0,1-.12,2.69,7.32,7.32,0,0,1-5.27,6.35A44.9,44.9,0,0,1,1958,1090.44Z"/><path class="cls-1" d="M2031,1578.89q-30.39-2.57-60.76-5.23a106.78,106.78,0,0,0,10.74-2.33c8.81-2.42,20.09-6.92,27.93-11.69,8.44-5.14,17.09-10.87,23.88-18.18q5.67-6,11-12.41l1.94-2.86c.1,8.24.24,16.47.47,24.71q.38,13.72.37,27.42c-1.08.23-2.18.41-3.29.57a46.26,46.26,0,0,1-12.29,0Z"/><path class="cls-1" d="M1385.28,1525.2c16.86.06,33.71.2,50.56.56,12.69.27,25.39.44,38.08.65l.93.87Q1430.06,1526.16,1385.28,1525.2Z"/><path class="cls-1" d="M1955.36,1096.21a7.3,7.3,0,0,1-6.29-6.94c0-.31,0-.62,0-.94,0-.88-.06-1.77-.07-2.65V1085c0-1.81,0-3.61,0-5.42v-1.82l0-3.53c-28.74,0-58-.13-86.24-.24l-43.11-.15q-24.9-.07-49.81-.13c5.57-6.07,13.43-10.5,21.62-11.35,11.08-1.13,22.25-.25,33.35.17,8,.31,16.07,1,24.1,1.53,15.13,1,30.25,2.42,45.32,4,8.26.89,16.57,1.61,24.81,2.66l11.37,1.46,17,1c8,.46,16,.37,24,.26a38,38,0,0,1,7.79.69l-15.26.08c0,2.08,0,4.16,0,6.24s0,3.9,0,5.85v.7a22,22,0,0,1-.12,2.69,7.32,7.32,0,0,1-5.33,6.36,7,7,0,0,1-1.46.25h-.48A6,6,0,0,1,1955.36,1096.21Z"/><path class="cls-1" d="M1577.74,1073.4l-21.87,0q7.22-.11,14.44-.19c9.73-.11,19.47,0,29.21.23Z"/><path class="cls-1" d="M1313.22,1073.05c3.47,0,6.92,0,10.39,0h.75Z"/><path class="cls-1" d="M1276.15,1073q-108-.29-215.93-.55l-15.69-1.72,1.7-.08q7.53-.37,15.08-.54l29.14-.68c13.75-.33,27.53-.34,41.28-.39,15.07-.06,30.15-.18,45.22-.11l29.29.13c7,0,14.06.35,21.08.55,18.51.51,37,1.83,55.42,3.4Z"/><path class="cls-1" d="M1221.82,1568.76l-15.2-.47-62-1.89c-26.57-.82-53.13-1.86-79.69-2.85q-96.78-3.58-193.56-7.2l-2.32-.08q-43.71.59-87.43,1.25l-28.3.41a74.32,74.32,0,0,1-11.43,2.85c-11.65,2-23.37.77-35-.17-5.62-.24-11.26-.15-16.88-.14H659.77c-14.19,0-28.37.08-42.56,0q-34-.12-68-.27l-24.71.1-25.77.09c2.38-2.1,4.73-4.33,7-6.41a80.72,80.72,0,0,0,12.55-16.25c.62-1,1.2-2.11,1.76-3.17q28.65,2.93,57.29,5.87c1.25.6,2.51,1.17,3.78,1.7a90.71,90.71,0,0,0,23.18,6.35c22.23,1.71,44.64,2.7,66.92,3.29,16.26.44,32.55,1,48.81,1.23q24.87.32,49.74.55c32.36.83,64.75.84,97.1,1.47,23.07.45,46.13.85,69.2,1.39,21.43.49,42.83,1.21,64.27,1.43a86.72,86.72,0,0,0,50.69-16.22l14.65.3c21.15.43,42.28,1.23,63.42,1.88,11.08.35,22.17.63,33.24.9,5.1.13,10.2.12,15.3.15l9.41,0c2.73,0,5.11.18,7.83.07,10-.39,19.18-1.41,28.72-4.36,11.65-3.6,22.34-8.44,32.14-15.67q8.2.06,16.4,0c19.78,0,39.56,0,59.36.07,16.85.06,33.72.05,50.58.1a23,23,0,0,1,.47,4.62,23.41,23.41,0,0,1-4.86,14.26c-3.85,5-9.21,7.73-15.31,8.87a123,123,0,0,1-14.65,2.2c-5.13.32-10.26.46-15.4.48-7.84,0-15.68-.27-23.53-.49a37,37,0,0,1-23.58,13.33,188.58,188.58,0,0,1-25.45,1.53C1247.12,1570,1234.46,1569.15,1221.82,1568.76Z"/><path class="cls-1" d="M338.39,1071.24c-16.07-.19-32.12-.64-48.16-1.55-19.7-1.42-39.41-2.78-59.14-3.92l-7.62-.59q14.94.36,29.89.83c29.59.94,59.17,1.9,88.76,2.5,14.7.3,29.38,1,44.08,1.19q21.33.25,42.67.1c-13.37.45-26.74.81-40.12,1-14.17.14-28.34.53-42.5.53Q342.32,1071.28,338.39,1071.24Z"/><path class="cls-1" d="M61.13,1065.59v-.09c6.21.1,12.41.23,18.61.48-6.2,1-12.41,2-18.66,2.82H61C61.05,1067.73,61.08,1066.66,61.13,1065.59Z"/><path class="cls-1" d="M-25.35,1069.61c-.34-12.48-.22-25-.25-37.44-.08-21.67.24-43.34.43-65q.68-79.56.88-159.09c.11-28.56-.06-57.09-1.1-85.63-.29-8,2.86-16.33,7.71-22.6a37.08,37.08,0,0,1,4.93-5.24q-.24-9.47-.53-18.94a14.82,14.82,0,0,1,.81-5.2c-.52-22.8-.8-45.61-1.24-68.42-.26-13.26-.57-26.51-.67-39.77-.1-12.35.29-24.71.49-37.06.18-10.91.1-21.82.1-32.74,0-13.64.16-27.26.41-40.9.19-10.52.78-21,1.25-31.55.56-12.57,1.15-25.13,1.51-37.7.73-25.58,1-51.17,1.38-76.76.35-23.7,2-47.33,3.19-71,1.21-24,1.52-48,1.49-72,0-12.43-.12-24.88.13-37.31.25-12.06.57-24.13.67-36.19.17-20.62.28-41.26-.36-61.87A46.6,46.6,0,0,1-6.36,11.46C-6.12,4.89-5.17-2-2.24-8L.39-13.25a45.72,45.72,0,0,1,7.12-9.21A45.91,45.91,0,0,1,22.4-32.62a47.28,47.28,0,0,1,30.56-2A47.61,47.61,0,0,1,77.78-17.66c5.67,7.34,8.55,15.94,9.94,25A89.28,89.28,0,0,1,88.38,18c.4,11,0,22.09-.1,33.11-.27,24.87-1.07,49.71-2.06,74.57-.93,23.31-.69,46.67-1.73,70q-.51,11.67-1,23.36c-.31,7.2-1,14.4-1.52,21.58-.92,12.31-2,24.61-3.1,36.9-.73,8.33-1.15,16.7-1.72,25.05.12-1.68.23-3.36.34-5-1,23.39-1.69,46.81-3,70.18-.83,14.36-1.65,28.71-2.78,43.05q-1.56,20-3.17,40.08c0,.64-.09,1.28-.14,1.91-.66,11.18-1.29,22.36-1.73,33.55-.47,12-.75,23.95-1.43,35.9q-1.08,18.4-2.18,36.8c-.75,12.47-.87,25-1,37.48q-.42,34.07.12,68.14a54.86,54.86,0,0,0-4.61-10.84c-6.06-10.5-17.3-17.84-29.58-17.84a34.14,34.14,0,0,0-17.18,4.69,35.87,35.87,0,0,0-7,5.35,47.14,47.14,0,0,0-5.37,6.84C-5.95,659.12-7,667-7.42,674.5a67.85,67.85,0,0,0,.3,8.67c.13,1.82.23,3.64.43,5.45.48,4.29,1.18,8.53,1.89,12.79.63,3.84,1.52,7.6,2.44,11.37s2.35,7.38,3.63,11a83.48,83.48,0,0,0,4.3,9.87c0,.11,0,.22,0,.33.11,4.63,0,9.27,0,13.91q-.11,16.38-.39,32.77-.09,5.44-.2,10.91c-.1,1.21-.2,2.43-.31,3.65q-3.13,37.17-6,74.35c-1.63,21-2.9,41.95-4.29,62.92-.71,10.64-1.24,21.29-1.84,31.94Q-8.13,976-8.82,987.62L-9,990.51q-.88,11.85-1.78,23.71c-.34,4.51-.77,9-1,13.55l-.84,16.65-.43,5.34c-.88,10.77-1.82,21.54-2.75,32.31-.12,1.36-.23,2.71-.34,4.07a79.69,79.69,0,0,0-8.42,5.69l-.16.14Z"/><path class="cls-1" d="M61.13,1065.58c.74-8.4,1.56-16.8,2.34-25.21q0,14.06,0,28.11l-2.42.32H61C61.05,1067.73,61.08,1066.66,61.13,1065.58Z"/><path class="cls-1" d="M61.13,1065.59c.48-5.45,1-10.89,1.5-16.33a13.33,13.33,0,0,1,7,7c1.57,3.72,1,7.64-.18,11.34q-4.2.65-8.41,1.19H61C61.05,1067.73,61.08,1066.66,61.13,1065.59Z"/><path class="cls-1" d="M-18,854.82a20.29,20.29,0,0,1-8-9.16,40,40,0,0,1-2.63-6.4A51.9,51.9,0,0,1-30,831.82c-.45-3.89-.73-7.86-.93-11.76-.14-2.92-.28-5.85-.43-8.77-.25-5.15-.58-10.31-.72-15.47-.34-11.73-.71-23.45-.88-35.19-.34-24.09-.29-48.18-.36-72.26-.07-22.35-.46-44.69-.94-67-.09-4.12-.2-8.24-.27-12.36-.06-3.19,0-6.3.22-9.51.52-7.45,3.33-15.24,9-20.32a27.57,27.57,0,0,1,5.49-4.24,27.27,27.27,0,0,1,6.47-2.73c.54-.15,1.08-.28,1.62-.4l.06-2.93c.08-3.75.11-7.49.31-11.24.14-2.36.32-4.73.59-7.08a47,47,0,0,1,1.45-6.29A14.66,14.66,0,0,1,4.78,533.54c7,0,13.82,5.45,14.46,12.6.74,8.34.75,16.73,1,25.1.17,5.53.35,11,.51,16.57,0,.49,0,1,0,1.47.08.11.15.23.22.34a22.6,22.6,0,0,1,3.24,12,23.79,23.79,0,0,1-2.79,11.16q.18,6.93.38,13.87.13,4.89.28,9.78a34.48,34.48,0,0,0-11.44,4.18,35.54,35.54,0,0,0-7,5.36,46.53,46.53,0,0,0-5.37,6.83C-5.95,659.12-7,667-7.42,674.5a68,68,0,0,0,.3,8.68c.13,1.81.23,3.63.43,5.44.48,4.29,1.18,8.54,1.89,12.79.63,3.84,1.52,7.6,2.44,11.38s2.35,7.37,3.63,11a83.48,83.48,0,0,0,4.3,9.87c0,.11,0,.22,0,.33.11,4.63,0,9.28,0,13.91q-.11,16.38-.39,32.77-.09,5.44-.2,10.91c-.1,1.22-.2,2.44-.31,3.65q-2.55,30.22-4.9,60.47a19.64,19.64,0,0,1-5.36,1.56,20.48,20.48,0,0,1-2.59.17A19.43,19.43,0,0,1-18,854.82Z"/><path d="M77.53,919.89h-3c.12-1.56.24-3.12.35-4.68h6.68c0,.23,0,.47.07.7a16.24,16.24,0,0,0,1,4Z"/><path d="M699.68,919.8a15.82,15.82,0,0,0-.2-4.5H726c0,1.5.11,3,.25,4.49H699.68Z"/><path d="M2003.72,919.77l-56,0c0-.2,0-.4,0-.61-.07-1.25-.16-2.51-.28-3.77l94.14-.06c0,1.51.11,3,.26,4.51Z"/><path d="M2079.92,1074.32q-6.35-.13-12.69-.25c-3,0-6.05-.11-9.07-.18-1.83-.05-3.65-.07-5.47-.17-1.09-.06-2.17-.19-3.26-.29-1.68,0-3.38.06-5.07.09l-1.07,0h0c-1.94,0-3.88,0-5.83.06q-10.07.08-20.12.18l-5.64,0c-15.69.15-31.93.29-47.9.36h0q-7.44,0-14.87,0h-.06c-28.74,0-58-.13-86.24-.24l-43.11-.15q-24.91-.07-49.82-.13h0q-84.39-.2-168.77-.26h-.68l-22.5,0-22.49,0h-6.87q-111.17-.09-222.34-.29l-.73,0-12.65,0h-.55L1283,1073l-.16,0h-6.73l-170.73-.44-45.32-.13c-16.51-1.79-33-3.6-49.54-5.58-9.67-1.15-19.37-2.27-29-3.66-10.53-1.53-21-3.26-31.52-4.9l-5.45-.83q57.7-.18,115.4-.34,136.93-.39,273.86-.71,137.22-.27,274.43-.33,134.51-.09,269-.58c32.89-.11,65.79-.35,98.69-.14,16.13.1,32.27.28,48.4.43l16.12.14,4.69.07c1.44,0,2.87.11,4.31.08,1.07-.1,2.13-.22,3.21-.29,1.81-.12,3.64-.13,5.47-.17,3-.07,6.05-.14,9.07-.19,4.23-.06,8.46-.16,12.69-.25s8.57-.39,12.8.3a9.64,9.64,0,0,1,5.35,2.66,9.38,9.38,0,0,1,.8,12.36,9.63,9.63,0,0,1-6.15,3.57,39.59,39.59,0,0,1-6.34.44C2084.23,1074.47,2082.07,1074.37,2079.92,1074.32Z"/><path d="M279.14,1068.9c-16-1.13-32-2.21-48-3.13-17.6-1.35-35.16-2.77-52.77-4l10.77.72q-9.83-.68-19.66-1.32l67-.4q136.14-.84,272.26-1.57l66.73-.32c-6.8.44-13.6.89-20.4,1.41-8.34.62-16.66,1.68-25,2.61-15.07,1.69-30.14,3.22-45.27,4.39-14.21.85-28.45,1.45-42.66,2q-6.6.26-13.2.48Q354,1069.38,279.14,1068.9Z"/><path d="M61.06,1067.6c0-.67,0-1.34.07-2l.33-3.74,42.87-.25,7.69,0c-8,.76-15.9,1.77-23.86,3-6.32,1-12.63,2.1-19,3.06Z"/><path d="M1955.36,1096.21a7.3,7.3,0,0,1-6.29-6.94c0-.31,0-.62,0-.94,0-.88-.06-1.77-.07-2.65V1085c0-1.81,0-3.61,0-5.42v-1.82l0-3.33q0-6.56,0-13.12,0-17.07,0-34.13,0-34.08,0-68.17,0-71.31,0-142.65,0-51.27.25-102.53,0-22.59-.08-45.17-.11-70-.22-140-.17-70.44-.56-140.88-.31-70.94-.58-141.86-.27-71.87-.51-143.72-.09-23.76-.19-47.52-.06-11.75-.16-23.5c0-3.47-.06-6.95-.09-10.42a91.68,91.68,0,0,1,.36-10.61A9.11,9.11,0,0,1,1952.34,3c0-.65,0-1.31.05-2a16.83,16.83,0,0,1,.13-2.35,3.89,3.89,0,0,1,2-3.08,3.52,3.52,0,0,1,1.8-.46,3.56,3.56,0,0,1,1.81.46,3.92,3.92,0,0,1,2,3.08,22.9,22.9,0,0,1,.14,3.1l0,1.22a9.11,9.11,0,0,1,5.17,7.06,127.5,127.5,0,0,1,.32,15.14c0,5.35-.09,10.69-.13,16.05q-.1,16.85-.16,33.71-.13,35.48-.24,70.95-.24,70.44-.53,140.88-.3,70.6-.61,141.21-.32,71.65-.44,143.3-.12,70.42-.23,140.83v1.16q.23,67.08.25,134.17,0,70.17,0,140.32,0,26.67,0,53.34,0,13.32,0,26.63,0,3.2,0,6.39h0c0,2.08,0,4.16,0,6.24s0,3.9,0,5.85v.7a22,22,0,0,1-.12,2.69,6.85,6.85,0,0,1-1.62,3.95l0,0-.06.07-.05,0,0,0-.08.09h0a7.8,7.8,0,0,1-.58.57h0a.27.27,0,0,1-.08.07l0,0,0,0-.09.07h0a7.2,7.2,0,0,1-2.61,1.34,7,7,0,0,1-1.46.25h-.48A6,6,0,0,1,1955.36,1096.21Z"/><path d="M69.36,1060.83a8.63,8.63,0,0,1-3.29-1.57,8.86,8.86,0,0,1-3.4-6.91l-.06-2.82.9-9.54q3-32.62,6.12-65.27,1.37-14.29,2.6-28.6c1-12.24,2.27-24.46,3-36.72q.63-10.6,1.25-21.21c.27-4.51.65-9,.79-13.53.34-10.73,1-21.48,1-32.21q0-10.56,0-21.13c0-5.31-.46-10.63-.72-15.94-.34-6.78-1-13.5-1.71-20.25-.25-2.39-.67-4.75-1-7.13-.24-1.49-.46-3-.74-4.45-.54-2.92-1-5.86-1.77-8.74-.46-1.88-1.11-3.69-1.73-5.53l-.07-.22q.09-6.06.16-12.12c0-4.5.19-9,.07-13.48q-.23-9.69-.47-19.38c-.09-3.67-.56-7.38-.9-11-.28-3-.53-6-.82-8.93s-1-5.83-1.47-8.72c-.65-3.81-1.5-7.58-2.39-11.34-.62-2.62-1.27-5.26-2-7.86q0-14.25-.08-28.5-.19-69.44-.34-138.88t-.26-139q-.09-69.35-.1-138.7c0-46.34.06-92.68.38-139q.18-24,.34-48,.07-11.82.21-23.64c.1-8,.36-15.95.64-23.93a8.27,8.27,0,0,1,2.36-5.7c.16-.16.32-.3.48-.44a5.33,5.33,0,0,1,5.23-4.6,5.33,5.33,0,0,1,5.22,4.6,5,5,0,0,1,.48.44,8.27,8.27,0,0,1,2.36,5.7c.2,5.58.43,11.14.54,16.71s.15,11,.2,16.56q.15,16.74.25,33.46c.15,22.28.33,44.56.41,66.85q.25,70,.17,140t-.16,140.12q-.13,70.4-.3,140.79-.15,69.16-.36,138.32c0,3.58,0,7.17,0,10.75q.19,62.41.36,124.84c.11,46.11.23,92.22.12,138.33q0,25.29-.14,50.6c-.05,16.17-.05,32.34-.39,48.51,0,.32,0,.63-.07,1a8.85,8.85,0,0,1-6.76,7.57,8.65,8.65,0,0,1-4,0Z"/><path d="M702,1041.48v-1a14.83,14.83,0,0,1-.83-4.81c-.1-1.67-.06-3.34-.06-5q0-6.84,0-13.68c.05-9.4.12-18.79.15-28.18q.1-30.13.18-60.25.13-45.62.31-91.25l-.06-37.65q-.07-66.2-.07-132.39,0-65.35,0-130.7,0-64.95-.11-129.92-.06-65.44,0-130.91,0-33,0-66.06c0-20.14-.11-40.28-.06-60.42,0-9.84.09-19.68.09-29.52,0-8.34-.13-16.69-.16-25,0-12.12.16-24.23.15-36.35a13.58,13.58,0,0,1,.44-3.59,6,6,0,0,1,.29-.84,6.63,6.63,0,0,1,.4-.8,6.9,6.9,0,0,1,4.1-3.15,6.65,6.65,0,0,1,1.82-.24,6.75,6.75,0,0,1,1.82.24,6.93,6.93,0,0,1,4.1,3.15,6.43,6.43,0,0,1,.39.79,6.61,6.61,0,0,1,.3.85,15.47,15.47,0,0,1,.43,4.13V63q0,4.79,0,9.57,0,9.24.11,18.47c.05,7.65-.12,15.3-.14,23,0,9.56,0,19.12.06,28.67q.09,30.72,0,61.42c0,21.36,0,42.72,0,64.08q.07,65.44,0,130.92,0,66.45-.11,132.89,0,39.75,0,79.48c-.18,8.24-.36,16.47-.59,24.7q-.49,17.46-.92,34.92c-.12,5.2-.37,10.41-.36,15.62q0,10,.07,20.06c0,10.32.5,20.64,1,31,.27,5.65.55,11.3.79,16.95q0,20.82,0,41.65,0,21.13-.05,42.28.21,61.51.39,123,.06,21.32.16,42.63c0,6.42.09,12.85.11,19.27v9.84c0,2.34,0,4.9-.88,7.1v3.93c0,.57,0,1.13,0,1.69,0,.35,0,.7,0,1q-6.72.42-13.43,1Z"/><path d="M106.87,646.23l.48,0c-7.37-.47-14.75-.71-22.12-1.07A11.34,11.34,0,0,1,77.52,642a10.92,10.92,0,0,1,0-15.43,11.3,11.3,0,0,1,7.71-3.2c7.37-.36,14.75-.6,22.11-1.07l-.79.05c3.37-.24,6.71-.1,10.1,0q5.41.15,10.82.26c4,.09,8.08.14,12.12.11,2.08,0,4.18,0,6.26-.12,1.5-.12,3-.25,4.51-.33,2.67-.13,5.35,0,8,.09q9.59.27,19.17.45,20.41.38,40.83.51,42.36.32,84.7.34,42.12.06,84.24.07l84.23,0q41.35,0,82.7.08,41.16,0,82.31.12l42.12.09c12.26,0,24.52,0,36.78.13q-.13,6-.31,12c-.07,2.74-.15,5.47-.23,8.21h-.08c-3.14,0-6.28,0-9.42,0l-21.2.08q-20.93.06-41.87.09-42.48.09-85,.14l-84.1.07q-41.05,0-82.11,0-42.75.07-85.51.07-40.73,0-81.45.3c-14,.11-27.93.22-41.89.47q-10,.18-19.91.42a136,136,0,0,1-15.9-.06l-.82-.07c-2-.1-4.07-.1-6.1-.11-4,0-8.08,0-12.12.1q-5.4.1-10.82.26c-2,0-4,.12-6,.12C109.42,646.34,108.14,646.32,106.87,646.23Z"/><path d="M82.44,668.91c-.43-.06-.86-.14-1.28-.23a14.93,14.93,0,0,1-2.59-.82,15.29,15.29,0,0,1-7.5-6.86,15,15,0,0,1-1.26-3.14,15.4,15.4,0,0,1,0-8.11,15.71,15.71,0,0,1,.6-1.75,16.55,16.55,0,0,1,.93-1.89,15.68,15.68,0,0,1,5.48-5.47,15.17,15.17,0,0,1,5.62-1.94,13.26,13.26,0,0,1,1.39-.12h.71c.74,0,1.48.06,2.22.13,1.32.06,2.65.09,4,.11a41.87,41.87,0,0,1,4.6-.1l4.2.11h2.39l19.8.09q19.62.08,39.24.11l80.9.17,80.3.15q39.51.07,79,.11,39.92,0,79.83.12t79.69.18l40.54.14c12.7,0,25.42,0,38.12.22l15.45.24c4.83,0,9.68.17,14.51-.14l-.42,0a17.54,17.54,0,0,1,3.31.11c.51.07,1,.14,1.53.19l2.73.26c1,.11,2,.26,3,.4a62,62,0,0,1,6.38.89h3.71c3.11,0,6.24,0,9.34.15l.6,0a11.45,11.45,0,0,1,2.91.56,10.9,10.9,0,0,1,4.66,2.78,11.46,11.46,0,0,1,2.29,3.29,11.06,11.06,0,0,1,1,3.31,12.28,12.28,0,0,1,.1,1.6,11.48,11.48,0,0,1-.1,1.54,12,12,0,0,1-.69,2.63,11.54,11.54,0,0,1-4.93,5.77,11.09,11.09,0,0,1-3.65,1.33,10.87,10.87,0,0,1-1.62.21l-.56,0c-2.33.13-4.67.13-7,.13h-2.48l-3.56,0a56.4,56.4,0,0,1-6.22.87c-1,.14-2,.29-3.05.41s-1.85.17-2.78.26c-.49.05-1,.1-1.46.18a17.1,17.1,0,0,1-3.42.14l.35,0-.49,0h-.23c-4.74-.27-9.5-.15-14.23-.09-5.39.07-10.77.17-16.15.25-12.9.19-25.8.17-38.7.21q-39.52.15-79,.23-40.53.1-81.07.16l-79.62.09-80.13.14-80.41.16q-39.6.09-79.19.2-9.22,0-18.46.09H99.34l-1,0a74.71,74.71,0,0,1-7.63,0c-1.31,0-2.61.05-3.92.1a23.56,23.56,0,0,1-2.38.13A13,13,0,0,1,82.44,668.91Z"/><path d="M340.87,637.14c-1.45-2.47-.46-5.46.45-7.92a34.9,34.9,0,0,1,5.2-8.83A39.71,39.71,0,0,1,354,613a32.74,32.74,0,0,1,4-2.59A14.52,14.52,0,0,1,362.9,609a10.21,10.21,0,0,1,8.36,2.62l.27.25,4.67-1.69c1.85-.69,3.72-1.36,5.56-2.07l5.29-2a8.65,8.65,0,0,1,1.12-1.8,10.57,10.57,0,0,1,3.11-2.81,14.87,14.87,0,0,1,4.13-1.52,18.33,18.33,0,0,1,8.85.89c3.75.08,7.43,1.48,9.3,5a8.67,8.67,0,0,1,0,8.53,8.42,8.42,0,0,1-8.44,4.1,11.12,11.12,0,0,1-1.46-.36h-.84l-.65.09c-4.41,1.05-8.74,2.47-13.07,3.82-3.77,1.17-7.55,2.33-11.31,3.55a17.6,17.6,0,0,1,.35,4,6.45,6.45,0,0,1-2.44,5,6.28,6.28,0,0,1-6.26.81,9,9,0,0,1-1.88-1,15.5,15.5,0,0,1-1.4-1.29l-.38-.28c-.86-.56-1.74-1.06-2.64-1.56a9.79,9.79,0,0,1-2.42-1.26,8.42,8.42,0,0,1-2.14-2.35,8.08,8.08,0,0,1-.77-5.78c-.48.37-.95.76-1.42,1.16-.87.81-1.69,1.64-2.49,2.52s-1.44,1.79-2.1,2.73-1.27,2.08-1.84,3.16c-.31.68-.6,1.35-.87,2.05,0,0,0,.09,0,.14a4.27,4.27,0,0,1,.35,1.7,4.4,4.4,0,0,1-4.33,4.33h-.14A5,5,0,0,1,340.87,637.14Z"/><path d="M402.36,642.23a14.57,14.57,0,0,1-2.42-1c-.79-.36-1.54-.79-2.31-1.19l-6.63-3.2a59.68,59.68,0,0,1-5.88-3.07,23.6,23.6,0,0,1-3.16-2.3,17.38,17.38,0,0,1-2.23-2.46h-.12a2.45,2.45,0,0,1-2.05-2.71,3.34,3.34,0,0,1,.45-1.4,2.38,2.38,0,0,1,2.07-1.19,3.3,3.3,0,0,1,2.14.82,8.11,8.11,0,0,1,1.11,1.3c.39.52.82,1,1.25,1.53.25.26.51.5.78.73l-.23-.21c.53.44,1.07.85,1.63,1.24a36.69,36.69,0,0,0,3.48,2c2,1,4.05,2,6.07,2.93,1.05.49,2.08,1,3.11,1.53l-.89-.84c-.23-.19-.47-.37-.71-.55l-.76-.24a3.81,3.81,0,0,1-2.8-4l-.31-.48a5,5,0,0,1-.6-3.15,6.46,6.46,0,0,1,1.09-2.86,4.42,4.42,0,0,1,2-1.72,4.14,4.14,0,0,1,5.72,4.3l.55.65a11,11,0,0,1,.9,1.25,4.33,4.33,0,0,1,.58,1.95,4.54,4.54,0,0,1-.08,1.52l.46.59,1.3,1.62a16.3,16.3,0,0,1,1.91,2.49,5.32,5.32,0,0,1,.79,3.87,4,4,0,0,1-2.37,2.43,3.15,3.15,0,0,1-1.32.27A9.79,9.79,0,0,1,402.36,642.23Z"/><path d="M392.54,636.88a5.49,5.49,0,0,1-2.39-.57,7.73,7.73,0,0,1-2.2-1.82,20.15,20.15,0,0,1-2.3-3.25,5.44,5.44,0,0,1-1.13-3.08,3.76,3.76,0,0,1,.54-2,6.37,6.37,0,0,1,3.56-3.81,17,17,0,0,1,2.69-1,5.36,5.36,0,0,1,2.17-1.68,5.52,5.52,0,0,1,4.82.31,3.79,3.79,0,0,1,.34.2,5.47,5.47,0,0,1,1.94,7.4A5.33,5.33,0,0,1,397,630.1a4.23,4.23,0,0,1,0,2.26,18.35,18.35,0,0,0-1,2.54,4,4,0,0,1-3.27,2Z"/><path class="cls-2" d="M1966.34,1037.3a34.88,34.88,0,0,1-12.94-13.61l.27.54-.33-.65c-.42-.77-.83-1.55-1.21-2.36s-.77-1.58-1.12-2.4a38.46,38.46,0,0,1-2.52-9.3,48.92,48.92,0,0,1,0-12.85c.25-2.08.61-4.12.78-6.21.26-3.09.48-6.18.76-9.27.55-6,1-12,1.63-18,1.12-11.28,2.17-22.57,3.32-33.86q3.57-35,7-70,.38-12.4.74-24.81c.34-11.51.37-23.05.54-34.57q.6-39.17,1.23-78.33c.4-25.27,1.29-50.52,2.07-75.77.67-21.9,1.84-43.78,2.5-65.68.38-12.54,1-25.09,1.14-37.64.18-12.86.33-25.72.37-38.59,0-2.4,0-4.8,0-7.2a95.58,95.58,0,0,1,1.52-14.82A39.53,39.53,0,0,1,1983,460a2.09,2.09,0,0,1,.22-.2c.13-1.63.3-3.25.48-4.85a56.67,56.67,0,0,1,2.16-11.43,44,44,0,0,1,4.4-10,60.86,60.86,0,0,1,7.38-9.14c7.72-8.14,19.73-11.84,30.72-10.34a36.3,36.3,0,0,1,17.32,7.26,36.58,36.58,0,0,1,11,13.93,41.68,41.68,0,0,1,3.73,9.2,65.78,65.78,0,0,1,1.67,9.53l.51,5.7c.39,4.4.86,8.81,1.05,13.22.24,5.71.73,11.45.65,17.17-.17,12.12-.32,24.23-.79,36.34-.46,11.82-.68,23.67-1.49,35.46.11-1.55.21-3.1.31-4.65q-.69,14.9-1.35,29.8c-.45,10-.76,20-1.41,30.06,0-.64.09-1.27.13-1.91-1.12,23.48-2.23,47-3.76,70.43q-1.41,21.72-2.82,43.44c-.39,6-1,12-1.65,18.07l-2.52,25.42c-.35,3.52-.75,7-1.15,10.53-.6,5.21-1.19,10.42-2.13,15.59-.69,3.77-1.47,7.53-2.49,11.24a51.6,51.6,0,0,1-2.14,6l.06,24.85c0,4.36-.21,8.72-.32,13.08q-.33,13.08-.65,26.17c-.28,11.34-1.11,22.64-1.78,34-.38,6.17-.74,12.34-1.12,18.51-.54,8.72-1.38,17.44-2.31,26.12-.86,8.13-2.41,16.16-3.25,24.28-.82,7.9-2.42,15.74-6.36,22.74a37.15,37.15,0,0,1-8.1,9.93l-.42,1.26a36.84,36.84,0,0,1-8.83,15.15,34.37,34.37,0,0,1-41.6,5.37Z"/><path class="cls-2" d="M18.16,1597.54q-6.57-2-13-4.44a90.82,90.82,0,0,1-42.86-37.67q-1.65-3.11-3.21-6.26c-23-6.82-42.45-25.16-51.73-47.11a84.11,84.11,0,0,1,4.82-74.44l1.23-2.08c-1.1-.6-2.19-1.19-3.29-1.77a71.59,71.59,0,0,1-14.39-11.12,71.59,71.59,0,0,1-11.12-14.39,71.47,71.47,0,0,1-9.06-45.53,72.06,72.06,0,0,1,36.76-52.92c.31-3.92.65-7.82,1-11.74.4-4.13.79-8.25,1.28-12.37.21-5.77.58-11.55,1.07-17.28.27-4.47.56-9,.94-13.4.18-2.19.3-4.39.44-6.58a94.89,94.89,0,0,1,9.18-34.39,106.9,106.9,0,0,1,13.86-23.71q2-2.6,4.17-5.06a85.69,85.69,0,0,1-1.93-18,82.07,82.07,0,0,1,17.31-49.79,53,53,0,0,1,8.1-8.87l7.66-6.75a79.69,79.69,0,0,1,8.42-5.69c.11-1.36.22-2.71.34-4.07.93-10.77,1.88-21.54,2.75-32.31.14-1.78.29-3.56.43-5.34l.84-16.65c.23-4.52.66-9,1-13.55q.88-11.87,1.78-23.71c.08-1,.15-1.93.22-2.89q.69-11.58,1.34-23.16c.6-10.65,1.13-21.3,1.84-31.94,1.39-21,2.66-42,4.29-62.92q2.88-37.19,6-74.35c.11-1.22.21-2.44.32-3.65.06-3.64.13-7.28.19-10.91q.3-16.4.39-32.77c0-4.64.15-9.28,0-13.91,0-.11,0-.22,0-.33a85.16,85.16,0,0,1-4.3-9.87c-1.28-3.65-2.72-7.27-3.63-11s-1.81-7.53-2.44-11.37c-.71-4.26-1.41-8.5-1.89-12.79-.2-1.81-.3-3.63-.42-5.45a66.07,66.07,0,0,1-.31-8.67C-7,667-5.95,659.12-1.65,652.76a47.14,47.14,0,0,1,5.37-6.84,35.87,35.87,0,0,1,7-5.35,34.14,34.14,0,0,1,17.18-4.69c12.28,0,23.52,7.34,29.58,17.84,3.6,6.25,5.49,13.35,7.14,20.33.89,3.76,1.74,7.53,2.39,11.34.48,2.89,1.18,5.81,1.47,8.72s.54,5.95.82,8.93c.34,3.66.81,7.37.9,11q.24,9.69.47,19.38c.12,4.48,0,9-.07,13.48q-.06,6.06-.16,12.12l.07.22c.62,1.84,1.27,3.65,1.73,5.53.72,2.88,1.23,5.82,1.77,8.73.28,1.49.5,3,.74,4.46.38,2.38.8,4.74,1,7.13.71,6.75,1.37,13.47,1.71,20.25.26,5.31.72,10.63.73,15.94q0,10.56,0,21.13c0,10.73-.6,21.48-.94,32.21-.14,4.51-.53,9-.8,13.53q-.63,10.6-1.25,21.21c-.73,12.26-2,24.48-3,36.72q-1.22,14.31-2.6,28.6-3.1,32.64-6.12,65.27c-.8,8.54-1.63,17.06-2.38,25.59-.05,1.08-.08,2.15-.11,3.22h.06c9.07-1.16,18.07-2.75,27.09-4.19,12.13-1.95,24.2-3.28,36.48-4a236.59,236.59,0,0,1,26.09-.43c12.79.64,25.57,1.54,38.35,2.41l-10.76-.72c17.6,1.18,35.16,2.6,52.76,4,19.73,1.13,39.44,2.5,59.14,3.92,16,.91,32.09,1.36,48.16,1.55,16.78.19,33.57-.32,50.36-.5,17.8-.18,35.58-.75,53.37-1.42,14.21-.54,28.45-1.13,42.66-2,15.13-1.16,30.2-2.69,45.27-4.38,8.31-.93,16.63-2,25-2.62,10.82-.81,21.66-1.48,32.48-2.19l2.32-.16c.46,0,.91-.06,1.37-.09h0l.38,0,1.17-.08h0q13.79-.91,27.59-1.78,6.23-.49,12.45-1.06c3.87.06,7.74.19,11.6.32q7.89.27,15.78.5c4.59.13,9.2.17,13.79.46,1.26.12,2.52.27,3.77.39,1,.08,1.93.17,2.89.21h.46a16,16,0,0,0,5.14-1,10.46,10.46,0,0,0,5.74-5.72,10.59,10.59,0,0,0,.43-1.19q16.47-1.53,33-2.38a10.09,10.09,0,0,0-.12,1.75,10.84,10.84,0,0,0,10.89,10.6c4.57-.12,9.13-.07,13.69.18l-1.46-.08c5.14.29,10.24.4,15.38.34l4-.07c1.77.07,3.54.1,5.31.1,3.88,0,7.75-.13,11.63-.23q8.18-.23,16.35-.52l4.91-.19q11.69-.14,23.35-.19,16.77-.09,33.55-.11c10.94,0,21.88-.41,32.81-.77q15.09-.49,30.17-1.12l8.43-.33q7.85,1.14,15.66,2.35c10.51,1.63,21,3.37,31.52,4.9,9.64,1.39,19.34,2.5,29,3.66,16.54,2,33.11,3.8,49.66,5.6q108,.25,215.93.55h6.74l1.7.15,1.77.15c3.82.34,7.86.73,12,1.15.83-.18,1.69-.36,2.54-.51a67.32,67.32,0,0,1,10-.83l1.71,0,12.65,0q5.89.09,11.78.25l8.72.2,22,.4q11,.18,22,.39,9.28.18,18.56.4c9.12.21,18.56.42,27.84.57,3.21,0,6.48.07,10,.07,10.43,0,21-.22,31.28-.43l.92,0,21.78-.46c18-.38,36.66-.79,55-1.06l22.49,0,22.5,0,3.8.07,9.45.18,6.34.11c13.32.23,27.1.46,40.65.78s28.24.49,45.08.49c15.15,0,30.56-.13,45.45-.25h.36l17.46-.13c.28-.34.57-.66.87-1q24.91,0,49.82.13l43.12.15c28.26.11,57.49.23,86.23.23l0,3.54v1.81c0,1.81,0,3.62,0,5.43v.71c0,.88,0,1.76.07,2.65,0,.32,0,.63,0,.94a7.3,7.3,0,0,0,6.29,6.94,6,6,0,0,0,1,.07,3.85,3.85,0,0,0,.48,0,7.16,7.16,0,0,0,1.47-.24,7.31,7.31,0,0,0,5.32-6.36,24.34,24.34,0,0,0,.13-2.69v-.7c0-2,0-3.9,0-5.85s0-4.16,0-6.24c16-.07,32.21-.21,47.91-.36l5.64,0,20.11-.18,5.84-.06c.53,16.87.63,32.41.33,47.51-.21,10.43-.55,21-.89,31.28-.24,7.37-.49,15-.68,22.47-.33,12.66-.17,25.33.06,39.39h0a122.59,122.59,0,0,1,24.74,58.4c1.35,10,1.66,20.25,2.26,30.32.28,4.65.45,9.3.6,14,.32,10.2.16,20.44,0,30.66-.39,21-.35,41.94.5,62.92q.3,7.47.62,14.93c.61,14.07.51,28.16-1.51,42.13-2.51,17.34-8.21,34.92-17.52,49.81l-7.92,11.73q-5.36,6.36-11,12.42c-6.79,7.3-15.44,13-23.88,18.17-7.83,4.77-19.12,9.27-27.93,11.69a129.39,129.39,0,0,1-32.42,4.17c-9.62,0-18.86-1.51-28.12-3.38-15.09-2.55-30.33-4-45.57-5.33-18.17-.9-36.37-1.19-54.55-1.57-20.72-.44-41.47-1-62.18-2.18q-26-1.41-51.89-2.67c-2,0-4-.06-6-.11-22.22-.55-44.46-.79-66.65-1.84q-13.73-.64-27.43-1.37l-10.48-.2-20.45-.38c-3,0-6-.12-8.93-.09-4.46.34-8.91.6-13.38.66q-8.48-.43-16.94-1.18c-8.33-.72-21.41-4.69-29.09-7.94a112,112,0,0,1-33.07-21.5c-12.69-.22-25.39-.39-38.08-.66-34.77-.73-69.58-.55-104.35-.66-19.8-.07-39.58-.06-59.35-.08-5.48,0-10.94,0-16.41,0-9.79,7.24-20.49,12.07-32.13,15.67-9.55,3-18.78,4-28.73,4.37-2.72.1-5.1-.07-7.82-.08l-9.42,0c-5.1,0-10.2,0-15.3-.15q-16.61-.4-33.24-.89c-21.14-.66-42.27-1.46-63.42-1.89l-14.65-.3a86.72,86.72,0,0,1-50.69,16.22c-21.44-.21-42.84-.94-64.27-1.43-23.07-.54-46.13-.94-69.19-1.39-32.36-.62-64.75-.64-97.11-1.46q-24.87-.24-49.73-.56c-16.27-.2-32.55-.79-48.82-1.23-22.28-.59-44.69-1.57-66.91-3.28a90.69,90.69,0,0,1-23.19-6.36c-1.27-.53-2.53-1.1-3.78-1.7l-57.28-5.87c-.57,1.07-1.15,2.12-1.77,3.17A80.72,80.72,0,0,1,505.73,1554c-3.61,3.27-7.37,6.94-11.13,9.84-4.8,3.72-13.78,9.35-19.56,11.38-5.26,1.85-10.46,3.86-15.88,5.24a109.44,109.44,0,0,1-16.85,3,196.35,196.35,0,0,1-28.07.45q-5.73-.27-11.47-.14l-39.33.9-61.7,1.43c-20.55.48-41.1.88-61.63,1.56-22.6.77-45.23,1.17-67.81,2.35-16.64.87-33.29,1.62-49.92,2.58-15.19,1.16-30.34,2.74-45.46,4.6-5.91.73-11.77,1.81-17.7,2.39s-12.2,1.08-18.29,1.08A76.24,76.24,0,0,1,18.16,1597.54Zm2003.27-404a123.75,123.75,0,0,0-29.28-17.13A124.62,124.62,0,0,1,2021.43,1193.54Z"/><path class="cls-2" d="M1754,1157.32q-2.1-.78-4.23-1.44a243.58,243.58,0,0,0-28-6.21c-6.21-.87-12.44-1.56-18.7-2l-16.84-1.12c-7.19-.48-14.36-1.15-21.54-1.81q-25-2.28-50-4.73c-8.5-.81-17-1.39-25.52-2.12-4.85-.41-9.7-.79-14.54-1.24l-8.87-.81c-1.31-.12-2.61-.23-3.92-.33-1.7-.12-3.38-.28-5.06-.52a48.54,48.54,0,0,1-4.93-1,10.25,10.25,0,0,1-1-19.76c2.32-.74,4.62-1.47,7-2.07a82.71,82.71,0,0,1,8.44-1.47c3.93-.56,7.91-1.06,11.87-1.41l14.39-1.27,10.31-.92a10.05,10.05,0,0,1-4.4-12.13q-5.87-.12-11.73-.32c-7.84-.28-15.68-.52-23.53-.86l-5.3-.24-1.52,0c-16,.29-32,1.26-48,2.17s-32.16,1.5-48.25,2c-9,.29-17.94.48-26.9.64A10.08,10.08,0,0,1,1426,1102a56.26,56.26,0,0,1-9-.29c-1.44-.16-2.89-.29-4.34-.43l-6.31-.6c-3-.27-5.89-.53-8.84-.76l-1.2,0c-7.23,0-14.45.11-21.68.09h-6.48c-6.27,0-12.56,0-18.83-.18q-7.35-.23-14.71-.5l-13.92.54q-8.88.38-17.77.7l-13.22.49c-6.47.23-13,.79-19.44.09a10.68,10.68,0,0,1-7.63-4.41h-1.16c-.91,0-1.82,0-2.72,0a47.28,47.28,0,0,1-5.44-.68,10.2,10.2,0,0,1-7.59-6.82,10.49,10.49,0,0,1-.34-5,10.22,10.22,0,0,1,7.52-14.06c4.9-.76,9.84-1,14.79-1.39,3.35-.23,6.71-.46,10.07-.6,4-.17,7.9-.44,11.86-.47l14.05-.11c4.46,0,8.93.23,13.39.37q4.71.13,9.43.34l2.17.1c6.22,0,12.43,0,18.65.22,6.53.2,13,.41,19.56.76,6.72,0,13.43,0,20.14.14a36.11,36.11,0,0,1,6.13.49,10.18,10.18,0,0,1,2,.55h.62c9-.08,18-.32,27-.21l-1.36,0q10.65.08,21.28.2l18.75,0c14.53,0,29-.07,43.56-.24l23.39-.28c7.37-.09,14.73,0,22.1.11h-.79c3.07,0,6.13.24,9.19.38,4.73.21,9.56.25,14.14,1.51a13.8,13.8,0,0,1,2.36.87c15.61-.17,31.23-.28,46.85-.43q12-.12,24-.17l1.21-.07c1.16-.07,2.33-.19,3.49-.19,4.61,0,9.22,0,13.83-.06,3.43,0,6.89-.14,10.33,0l15.31.65q12.2.52,24.39,1.11c6.7.31,13.43.25,20.14.36l10.39.06,9.85-.48c3.78-.17,7.56-.23,11.33-.34,1.82,0,3.64-.11,5.46-.14,1.61,0,3.28-.15,4.92-.09,1.18,0,2.36,0,3.54,0a48.94,48.94,0,0,1,5.52.57,11.14,11.14,0,0,1,5.1,1.83,9.94,9.94,0,0,1,3.86,5.2,12.46,12.46,0,0,1,.47,4.83c4.7.33,9.4.73,14.11,1,16.06,1.06,32.17,1,48.23,2,4.52.3,9,.67,13.54,1.06a10.94,10.94,0,0,1,5.61-4.55,17.57,17.57,0,0,1,3.38-1c1.35-.21,2.69-.37,4-.5q1.27-.1,2.58-.12a10,10,0,0,1,8.69-6c14.3-.31,28.58-1.46,42.86-2.3q10.39-.61,20.79-1c3.12-.12,6.25-.19,9.37-.26l4.5-.08a28.5,28.5,0,0,1,10.64,1.56,10.33,10.33,0,0,1,5.27,4.42,15.92,15.92,0,0,1,3.59.8,12.87,12.87,0,0,1,3.9,2.48,10.25,10.25,0,0,1-5,17.64,86.21,86.21,0,0,1-12.26,1.11c-.33,5-4.47,9.6-9.65,9.64-2.22,0-4.45,0-6.68,0-5.88.08-11.77.27-17.65.48-7.74.29-15.48.88-23.22,1-8.57.15-17.1-.11-25.66-.63-7.79-.47-15.56-1.26-23.34-1.92s-15.45-1.27-23.19-1.79c-8.11-.54-16.26-.59-24.38-.81-15.52-.41-31-2-46.49-2.63-11.22-.49-22.45-.78-33.68-1.07a9.94,9.94,0,0,1,.94,6.79,10.22,10.22,0,0,1-6.83,7.58,35.72,35.72,0,0,1-7.16,1.55c-1.71.15-3.42.2-5.13.31l-7.64.5-12.36.81c-6.94.45-13.86,1-20.8,1.39s-13.79.91-20.7,1.3l14.59,1.33c5.35.49,10.74.74,16.1,1.1l10.82.72c5.16.34,10.32,1,15.44,1.7,4.1.55,8.18,1.2,12.24,2,4.55.9,9.06,2.07,13.56,3.22,4,1,8,2,11.86,3.38,3.26,1.15,6.39,2.61,8.61,5.35a10.2,10.2,0,0,1-7.88,16.82A10.09,10.09,0,0,1,1754,1157.32Z"/><path class="cls-2" d="M678.28,627.22V62a8,8,0,0,1,16,0V627.22a8,8,0,0,1-16,0Z"/><path class="cls-2" d="M678.28,1051.94V662.2a8,8,0,0,1,16,0v389.74a8,8,0,0,1-16,0Z"/><path class="cls-2" d="M684,1051.49V39.41a8,8,0,1,1,16,0V1051.49a8,8,0,0,1-16,0Z"/><path class="cls-2" d="M686.89,1078.34V43.65a8,8,0,1,1,16,0V1078.34a8,8,0,0,1-16,0Z"/><path class="cls-2" d="M694.89,785.2V-249.49a8.08,8.08,0,0,1,8-8,8.08,8.08,0,0,1,8,8V785.2a8,8,0,0,1-16,0Z"/><path class="cls-2" d="M678.89,785.2V-249.49a8.08,8.08,0,0,1,8-8,8.08,8.08,0,0,1,8,8V785.2a8,8,0,0,1-16,0Z"/></g><g id="Vector_layer-2" data-name="Vector layer"><path class="cls-3" d="M954.66,1162.43q-34.08-.26-68.18-.57c-45.69-.4-91.38-1-137.07-1.42s-91.45-.55-137.18-.73q-70.34-.27-140.67-.68-69.27-.36-138.53-.64-68.55-.21-137.09-.13-25.5,0-51,.06l-14.19,0q-6.15,0-12.3.13c-4.24.07-8.48.16-12.73.18-3.06,0-6.36.17-9.56-.09a20.42,20.42,0,0,1-5.5-1c-.4-.12-.78-.26-1.17-.41a24.23,24.23,0,0,1-6.14-3.44,23.52,23.52,0,0,1-4.44-4.53c-.25-.34-.5-.68-.73-1-3,0-6.08-.05-9.12,0l-.23,0a17.1,17.1,0,0,1-3.72.51,13.42,13.42,0,0,1,0-26.84,17.73,17.73,0,0,1,3.72.5l.23,0c3,.09,6.08.07,9.12,0a23,23,0,0,1,2.94-3.6c4.1-4.11,10.17-7,16.07-6.83,1.54-.08,3.08-.08,4.61-.09,2.58,0,5.17,0,7.75,0,5.68.06,11.35.19,17,.24l4.49,0q16.25,0,32.51.06,34.9,0,69.82,0,68.79,0,137.59-.27,69.12-.32,138.23-.69,70.05-.31,140.11-.63,68.73-.27,137.47-1,68.38-.81,136.77-1.36c22.16-.19,44.32-.31,66.48-.5,11.19-.1,22.38-.26,33.56-.19,10.82.06,21.65.24,32.46.3,5.58,0,11.15,0,16.73,0,9.16,0,18.31,0,27.47.13,7.17.1,14.34.16,21.51.29a89.36,89.36,0,0,1,11.8.77c7.27,1.15,15,4.55,19.32,10.79a24.63,24.63,0,0,1,3.25,5.54,25,25,0,0,1,2,9.73,25.24,25.24,0,0,1-.89,6.64,28,28,0,0,1-4.32,8.63c-4.71,6.84-13.43,10.25-21.4,11-5.64.56-11.3.54-17,.59-10.07.1-20.13.33-30.19.37h-13.54c-5.67,0-11.35,0-17,0-10.92.07-21.85.27-32.78.3h-5.53C995.19,1162.9,974.93,1162.57,954.66,1162.43Z"/><path class="cls-4" d="M1817.81,1075.06h-1127c2.41-1,4.82-1.93,7.23-2.91,4.09-1.67,8.39-3.28,12-5.9a17.26,17.26,0,0,0,6.6-9.54,9.58,9.58,0,0,0,.29-2.12H1996.38a10,10,0,0,1,7.12,3.48,10.34,10.34,0,0,1,2.54,6.73c0,.2,0,.41,0,.62a10.33,10.33,0,0,1-3.48,7.12,10.7,10.7,0,0,1-7.35,2.52Z"/><path class="cls-4" d="M605.88,1075.06H83.73a10,10,0,0,1-7.12-3.48,10.32,10.32,0,0,1-2.53-6.72c0-.22,0-.42,0-.63a10.33,10.33,0,0,1,3.48-7.12,10.74,10.74,0,0,1,7.35-2.52h587c-1.28.37-2.57.73-3.85,1.08-5.12,1.38-10.28,2.57-15.38,4-10.35,2.85-20.44,6.62-30.73,9.69a11,11,0,0,0-6.15,4.06,10.7,10.7,0,0,0-1,1.66Z"/><path class="cls-4" d="M125.94,678.17H84.11c-3.17,0-5.66-3-5.65-6a2.71,2.71,0,0,1,0-.29,6,6,0,0,1,2-4.17,6.28,6.28,0,0,1,4.31-1.48H676.5c.42,1.63.84,3.27,1.25,4.9q.9,3.54,1.81,7.08H125.94Z"/><path class="cls-4" d="M724,1054.39a8.07,8.07,0,0,1-5.57-2.76,8.39,8.39,0,0,1-1.93-5.71V58.42h0V54.57A7.79,7.79,0,0,1,719.29,49a8,8,0,0,1,11.29.83,8.39,8.39,0,0,1,1.93,5.71v991.35a7.8,7.8,0,0,1-2.77,5.57,8.07,8.07,0,0,1-5.24,2Z"/><path class="cls-4" d="M401,624.1a8.85,8.85,0,0,1-3.73-6.64,10,10,0,0,1,1.95-6.48,19.09,19.09,0,0,1,4.18-3.94,16.83,16.83,0,0,1,5.13-2.62,11.41,11.41,0,0,1,6.82,0,8.37,8.37,0,0,1,5.45,6.14,8.64,8.64,0,0,1-1.31,6.52,8.06,8.06,0,0,1-2.11,2.09,10,10,0,0,1-4.61,5.11,12.3,12.3,0,0,1-5.92,1.55A10.19,10.19,0,0,1,401,624.1Z"/><path class="cls-5" d="M1090.73,1139.51H-9.87a43,43,0,0,0-4.52-8.79c-.48-.72-1-1.4-1.48-2.08-.2-.6-.41-1.2-.63-1.79a2.62,2.62,0,0,0,0-.28,23.57,23.57,0,0,0-.15-2.38q6.14-3.59,12.29-7.17h1608.8c-.87.6-1.7,1.22-2.49,1.85a43.33,43.33,0,0,0-14.3,20.64H1090.73Z"/><path class="cls-4" d="M716,857.44a8.11,8.11,0,0,1-5.57-2.76,8.44,8.44,0,0,1-1.93-5.72V-142.39A7.82,7.82,0,0,1,711.3-148a8.07,8.07,0,0,1,5.72-1.93,8.07,8.07,0,0,1,5.57,2.76,8.42,8.42,0,0,1,1.93,5.72V849.94a7.82,7.82,0,0,1-2.76,5.57,8.09,8.09,0,0,1-5.25,1.94Z"/></g></svg>