<svg id="Layer_group" data-name="Layer group" xmlns="http://www.w3.org/2000/svg" viewBox="0 0 2095.9 1620.22"><defs><style>.cls-1{fill:#3c3c3c;}.cls-2{fill:#bfbfbf;}.cls-3{fill:#262626;}</style></defs><rect class="cls-1" y="46.83" width="106.81" height="1573.39"/><rect class="cls-1" x="1989.1" y="21.41" width="106.81" height="1573.39"/><rect class="cls-1" x="926.47" y="-989.77" width="106.81" height="1968.75" transform="translate(1019.32 1033.28) rotate(-90)"/><g id="Vector_layer" data-name="Vector layer"><path class="cls-2" d="M79.77,58.71c.25-2.14,2.11-4.18,5.12-5.57a25.26,25.26,0,0,1,10.6-1.93H1934.13A20.76,20.76,0,0,1,1944.46,54c2.51,1.57,3.81,3.64,3.58,5.71s-2.11,4.18-5.12,5.57a25.26,25.26,0,0,1-10.6,1.93H93.68a20.73,20.73,0,0,1-10.33-2.76C81,63,79.74,61.09,79.74,59.18A3.59,3.59,0,0,1,79.77,58.71Z" transform="translate(34.05 58.8)"/><path class="cls-2" d="M724,1538.78a7.59,7.59,0,0,1-5.57-4.09,16.65,16.65,0,0,1-1.93-8.46V58.18a14.13,14.13,0,0,1,2.76-8.25A6.66,6.66,0,0,1,725,47.07a7.59,7.59,0,0,1,5.57,4.09,16.65,16.65,0,0,1,1.93,8.46V1527.67a14.11,14.11,0,0,1-2.77,8.25,6.79,6.79,0,0,1-5.24,2.88Z" transform="translate(34.05 58.8)"/><path class="cls-2" d="M87.05,53.58a7.54,7.54,0,0,1,5.57,4.06,16.36,16.36,0,0,1,1.93,8.41V1524.94a14,14,0,0,1-2.76,8.2,6.65,6.65,0,0,1-5.71,2.84,7.57,7.57,0,0,1-5.57-4.07,16.41,16.41,0,0,1-1.93-8.41V64.61a14,14,0,0,1,2.76-8.19,6.8,6.8,0,0,1,5.24-2.86A3.62,3.62,0,0,1,87.05,53.58Z" transform="translate(34.05 58.8)"/></g><g id="Vector_layer-2" data-name="Vector layer"><path class="cls-1" d="M1313.22,1073.05c3.47,0,6.92,0,10.39,0h.75Z" transform="translate(34.05 58.8)"/><path class="cls-1" d="M61.13,1065.59v-.09c6.21.1,12.41.23,18.61.48-6.2,1-12.41,2-18.66,2.82H61C61.05,1067.73,61.08,1066.66,61.13,1065.59Z" transform="translate(34.05 58.8)"/><path class="cls-1" d="M61.13,1065.58c.74-8.4,1.56-16.8,2.34-25.21q0,14.06,0,28.11l-2.42.32H61C61.05,1067.73,61.08,1066.66,61.13,1065.58Z" transform="translate(34.05 58.8)"/><path class="cls-1" d="M61.13,1065.59c.48-5.45,1-10.89,1.5-16.33a13.33,13.33,0,0,1,7,7c1.57,3.72,1,7.64-.18,11.34q-4.2.65-8.41,1.19H61C61.05,1067.73,61.08,1066.66,61.13,1065.59Z" transform="translate(34.05 58.8)"/><path d="M77.53,919.89h-3c.12-1.56.24-3.12.35-4.68h6.68c0,.23,0,.47.07.7a16.24,16.24,0,0,0,1,4Z" transform="translate(34.05 58.8)"/><path d="M-5.81,919.87c-.86,0-1.73,0-2.59,0a5.18,5.18,0,0,1-2.44-.4,2,2,0,0,1-.7-.67.36.36,0,0,1-.08-.12,2.16,2.16,0,0,1-.29-1.1,2.18,2.18,0,0,1,.29-1.1.83.83,0,0,1,.08-.12,2.11,2.11,0,0,1,.7-.66,5.65,5.65,0,0,1,2.71-.41c1.21,0,2.42,0,3.63,0l-.3,4.67Z" transform="translate(34.05 58.8)"/><path class="cls-3" d="M678.89,1529.47V57.53c0-6.34,8.57-11.63,18.82-11.63s18.82,5.29,18.82,11.63V1529.47c0,6.34-8.56,11.63-18.82,11.63S678.89,1535.81,678.89,1529.47Z" transform="translate(34.05 58.8)"/><path d="M1825.29,56.19c-15.07-.08-30.14,0-45.21-.09q-26.79-.12-53.57-.28-56.13-.24-112.26-.37-116.41-.29-232.85-.07-120.74,0-241.47,0T898.32,55.3h-23.4l-94.59.11q-118.59.14-237.2.21-116.82.06-233.62,0L202.13,55.5c-31.85,0-63.7,0-95.54-.25-5.54,0-11.07-.16-16.61-.21l-8.53,0a22.63,22.63,0,0,1-4.61-.29,6.87,6.87,0,0,1-1.4-.43,6.61,6.61,0,0,1-2.22-1.47,6.91,6.91,0,0,1-1.06-8.24v0a6.51,6.51,0,0,1,1-1.36,6.78,6.78,0,0,1,2.06-1.4,6.86,6.86,0,0,1,1.18-.41A19.89,19.89,0,0,1,82,41l1.57,0c3.55,0,7.12,0,10.68-.09,9.18-.17,18.38-.2,27.57-.24q51.17-.19,102.33-.17,112.59,0,225.16-.12,119.79,0,239.58.13,95.05.09,190.11.22,70.35-.06,140.69-.09,120.14,0,240.29,0,118.08,0,236.14.08,114.51,0,229-.49,27.08-.1,54.17-.27c15.07-.08,30.14,0,45.21-.1,24.31-.09,48.63-.34,72.94-.12l20.46.15c3.29,0,6.57,0,9.85.16,1.7,0,3.4.12,5.09.2a22.39,22.39,0,0,1,2.89.34c.75,0,1.52-.06,2.27-.07h1.36c.83,0,1.66,0,2.49,0l-.79.06c1.11-.08,2.21-.15,3.31-.17a10.16,10.16,0,0,1,3,.27,10.41,10.41,0,0,1,3.11,1.59c3.76,2.58,3.76,9.08,0,11.66a8.6,8.6,0,0,1-6.07,1.87c-.88,0-1.76-.07-2.64-.13h.12c-1.22-.07-2.42-.06-3.64,0-.45,0-.89,0-1.33,0s-.76,0-1.14,0a22.49,22.49,0,0,1-2.63.33c-1.61.09-3.23.14-4.84.2-3.33.12-6.65.15-10,.17l-20.42.15q-11.37.11-22.73.1C1858.52,56.41,1841.9,56.28,1825.29,56.19Z" transform="translate(34.05 58.8)"/><path class="cls-3" d="M70.57,1529.68V52.58c0-6.23,3.64-11.42,8-11.42s8,5.19,8,11.42v1477.1c0,6.23-3.64,11.42-8,11.42S70.57,1535.91,70.57,1529.68Z" transform="translate(34.05 58.8)"/><path class="cls-3" d="M1939.54,1523.17V51.23c0-6.34,3.88-11.63,8.53-11.63s8.52,5.29,8.52,11.63V1523.17c0,6.34-3.88,11.64-8.52,11.64S1939.54,1529.51,1939.54,1523.17Z" transform="translate(34.05 58.8)"/></g></svg>