<svg id="Layer_group" data-name="Layer group" xmlns="http://www.w3.org/2000/svg" viewBox="0 0 2048 1536"><defs><style>.cls-1{fill:#3c3c3c;}.cls-2{fill:#bfbfbf;}.cls-3{fill:#262626;}.cls-4{fill:#908e8c;}.cls-5{fill:#b4b5b3;}.cls-6{fill:none;stroke:#3c3c3c;stroke-miterlimit:10;stroke-width:30px;}</style></defs><g id="Vector_layer" data-name="Vector layer"><path class="cls-1" d="M1962.36,1412.76a7.3,7.3,0,0,1-6.29-6.94v-.94c0-.88-.06-1.77-.07-2.65v-11.45c-28.74,0-58-.13-86.24-.24l-43.11-.15-49.81-.13c5.57-6.07,13.43-10.5,21.62-11.35,11.08-1.13,22.25-.25,33.35.17,8,.31,16.07,1,24.1,1.53,15.13,1,30.25,2.42,45.32,4,8.26.89,16.57,1.61,24.81,2.66l11.37,1.46,17,1c8,.46,16,.37,24,.26a37.76,37.76,0,0,1,7.79.69l-15.26.08v12.79a24,24,0,0,1-.12,2.68,7.33,7.33,0,0,1-5.33,6.36,6.66,6.66,0,0,1-1.46.25h-.48A6.74,6.74,0,0,1,1962.36,1412.76Z"/><path class="cls-1" d="M1584.74,1390h-21.87q7.22-.12,14.44-.19c9.73-.11,19.47,0,29.21.23Z"/><path class="cls-1" d="M345.39,1387.79c-16.07-.19-32.12-.64-48.16-1.55-19.7-1.42-39.41-2.78-59.14-3.92l-7.62-.59q14.94.36,29.89.83c29.59.93,59.17,1.9,88.76,2.5,14.7.3,29.38,1,44.08,1.18q21.33.26,42.67.1c-13.37.45-26.74.81-40.12,1-14.17.14-28.34.53-42.5.53Z"/><path d="M286.14,1385.45c-16-1.13-32-2.21-48-3.13-17.6-1.35-35.16-2.77-52.77-4l10.77.72q-9.82-.69-19.66-1.32l67-.4q136.14-.84,272.26-1.57l66.73-.32c-6.8.44-13.6.89-20.4,1.41-8.34.62-16.66,1.68-25,2.61-15.07,1.69-30.14,3.22-45.27,4.39-14.21.85-28.45,1.45-42.66,2q-6.6.26-13.2.48Q361,1385.93,286.14,1385.45Z"/></g><g id="Layer_4" data-name="Layer 4"><rect class="cls-1" x="-33.51" y="122.09" width="106.81" height="1730.46"/><rect class="cls-1" x="1961.59" y="96.67" width="106.81" height="1741.94"/><path class="cls-2" d="M720.56,1841.39c-2.13-.2-4.17-1.74-5.57-4.2a17.55,17.55,0,0,1-1.93-8.7V151a14.76,14.76,0,0,1,2.77-8.48,6.56,6.56,0,0,1,5.71-2.94c2.14.2,4.17,1.74,5.57,4.2a17.51,17.51,0,0,1,1.89,8.7V1830a14.77,14.77,0,0,1-2.76,8.48,6.78,6.78,0,0,1-5.24,3Z"/><path class="cls-2" d="M87.59,148c2.13.2,4.17,1.72,5.57,4.17a17.27,17.27,0,0,1,1.93,8.64V1827.26a14.73,14.73,0,0,1-2.76,8.42,6.62,6.62,0,0,1-5.72,2.91c-2.13-.2-4.17-1.72-5.57-4.17a17.32,17.32,0,0,1-1.93-8.64V159.35a14.68,14.68,0,0,1,2.76-8.41A6.79,6.79,0,0,1,87.12,148Z"/><path class="cls-3" d="M679.43,1831.77V151.51c0-6.51,8.57-11.95,18.82-11.95s18.81,5.44,18.81,12V1831.77c0,6.51-8.56,12-18.81,12S679.43,1838.28,679.43,1831.77Z"/><path class="cls-3" d="M71.1,1831.82V125c0-6.48,3.64-11.89,8-11.89s8,5.41,8,11.89V1831.82c0,6.48-3.64,11.9-8,11.9S71.1,1838.3,71.1,1831.82Z"/><path class="cls-3" d="M1946.08,1825.38V134.13c0-6.56,3.88-12,8.52-12s8.53,5.48,8.53,12V1825.38c0,6.56-3.88,12-8.53,12S1946.08,1831.94,1946.08,1825.38Z"/></g><rect class="cls-1" x="-34" y="1371.14" width="2102.39" height="481.41"/><path class="cls-1" d="M1283.15,1389.55q-108-.3-215.93-.55l-15.69-1.72,1.7-.08q7.53-.37,15.08-.54l29.14-.68c13.75-.33,27.53-.34,41.28-.39,15.07-.07,30.15-.19,45.22-.11l29.29.13c7,0,14.06.35,21.08.55,18.51.51,37,1.83,55.42,3.4Z"/><path class="cls-4" d="M961.66,1479l-68.18-.57c-45.69-.4-91.38-1-137.07-1.42s-91.45-.55-137.18-.73q-70.34-.27-140.67-.68-69.27-.36-138.53-.64-68.55-.21-137.09-.13-25.5,0-51,.06H137.75q-6.15,0-12.3.13c-4.24.07-8.48.16-12.73.18-3.06,0-6.36.17-9.56-.09a20.6,20.6,0,0,1-5.5-1c-.4-.12-.78-.26-1.17-.41a24.87,24.87,0,0,1-6.14-3.44,23.81,23.81,0,0,1-4.44-4.53l-.73-1c-3,0-6.08,0-9.12,0h-.23a18,18,0,0,1-3.72.51,13.42,13.42,0,0,1,0-26.84,17.34,17.34,0,0,1,3.72.5h.23c3,.09,6.08.07,9.12,0a22.65,22.65,0,0,1,2.94-3.6c4.1-4.11,10.17-7,16.07-6.83,1.54-.08,3.08-.08,4.61-.09h7.75c5.68.06,11.35.19,17,.24H138q16.25,0,32.51.06h69.82q68.79,0,137.59-.27,69.12-.33,138.23-.69l140.11-.63q68.73-.27,137.47-1,68.38-.81,136.77-1.36c22.16-.19,44.32-.31,66.48-.5,11.19-.1,22.38-.26,33.56-.19,10.82.06,21.65.24,32.46.3h16.73c9.16,0,18.31,0,27.47.13,7.17.1,14.34.16,21.51.29a87.8,87.8,0,0,1,11.8.77c7.27,1.15,15,4.55,19.32,10.79a24.63,24.63,0,0,1,3.25,5.54,25,25,0,0,1,2,9.73,25.29,25.29,0,0,1-.89,6.64,28.09,28.09,0,0,1-4.32,8.63c-4.71,6.84-13.43,10.25-21.4,11-5.64.56-11.3.54-17,.59-10.07.1-20.13.33-30.19.37h-30.54c-10.92.07-21.85.27-32.78.3h-5.53C1002.19,1479.45,981.93,1479.12,961.66,1479Z"/><path class="cls-2" d="M1767.43,1391.61H697.79c2.29-1,4.58-1.93,6.86-2.91,3.89-1.67,8-3.28,11.38-5.9a17.4,17.4,0,0,0,6.26-9.54,10.89,10.89,0,0,0,.27-2.12H1936.92a9.3,9.3,0,0,1,6.75,3.48,10.62,10.62,0,0,1,2.41,6.73v.62a10.51,10.51,0,0,1-3.3,7.12,9.89,9.89,0,0,1-7,2.52Z"/><path class="cls-2" d="M612.88,1391.61H90.73a10,10,0,0,1-7.12-3.48,10.32,10.32,0,0,1-2.53-6.72v-.63a10.31,10.31,0,0,1,3.48-7.12,10.71,10.71,0,0,1,7.35-2.52h587c-1.28.37-2.57.73-3.85,1.08-5.12,1.38-10.28,2.57-15.38,4-10.35,2.85-20.44,6.62-30.73,9.69a10.9,10.9,0,0,0-6.15,4.06,10.3,10.3,0,0,0-1,1.66Z"/><path class="cls-5" d="M1097.73,1456.06H-2.87a42.47,42.47,0,0,0-4.52-8.79c-.48-.72-1-1.4-1.48-2.08-.2-.6-.41-1.2-.63-1.79v-.28a23.57,23.57,0,0,0-.15-2.38q6.14-3.6,12.29-7.17h1567.8c38,0,25.61,18.13,24.2,22.49Z"/><line class="cls-6" x1="658.73" y1="1412.83" x2="416.13" y2="1490.88"/><path d="M103.87,962.78h.48c-7.37-.47-14.75-.71-22.12-1.07a11.38,11.38,0,0,1-7.71-3.16,10.91,10.91,0,0,1,0-15.43,11.26,11.26,0,0,1,7.71-3.2c7.37-.36,14.75-.6,22.11-1.07l-.79,0a100.07,100.07,0,0,1,10.1,0c3.61.1,7.21.18,10.82.26,4,.09,8.08.14,12.12.11,2.08,0,4.18,0,6.26-.12,1.5-.12,3-.25,4.51-.33,2.67-.13,5.35,0,8,.09q9.58.27,19.17.45,20.41.38,40.83.51,42.36.32,84.7.34,42.12.06,84.24.07h84.23q41.36,0,82.7.08,41.16,0,82.31.12l42.12.09c12.26,0,24.52,0,36.78.13q-.13,6-.31,12c-.07,2.74-.15,5.47-.23,8.21h-9.5l-21.2.08q-20.93.06-41.87.09-42.48.09-85,.14l-84.1.07H388.12q-42.75.06-85.51.07-40.73,0-81.45.3c-14,.11-27.93.22-41.89.47q-10,.18-19.91.42a136,136,0,0,1-15.9-.06l-.82-.07c-2-.1-4.07-.1-6.1-.11-4,0-8.08,0-12.12.1q-5.4.09-10.82.26c-2,0-4,.12-6,.12A24.47,24.47,0,0,1,103.87,962.78Z"/><path d="M79.44,985.46c-.43-.06-.86-.14-1.28-.23a15.59,15.59,0,0,1-2.59-.82,15.32,15.32,0,0,1-7.5-6.86,14.94,14.94,0,0,1-1.26-3.14,15.5,15.5,0,0,1,0-8.11,17.17,17.17,0,0,1,.6-1.75,15.78,15.78,0,0,1,.93-1.89,15.52,15.52,0,0,1,5.48-5.47,14.88,14.88,0,0,1,5.62-1.94,10.71,10.71,0,0,1,1.39-.12h.71c.74,0,1.48.06,2.22.13,1.32.06,2.65.09,4,.11a39.25,39.25,0,0,1,4.6-.1l4.2.11H99l19.8.09q19.62.07,39.24.11l80.9.17,80.3.15,79,.11q39.92,0,79.83.12t79.69.18l40.54.14c12.7,0,25.42,0,38.12.22l15.45.24c4.83,0,9.68.17,14.51-.14h-.42a16.67,16.67,0,0,1,3.31.11c.51.07,1,.14,1.53.19l2.73.26c1,.11,2,.26,3,.4a59.68,59.68,0,0,1,6.38.89h3.71c3.11,0,6.24,0,9.34.15h.6a12.14,12.14,0,0,1,7.57,3.34,11.91,11.91,0,0,1,3.29,6.6,12.17,12.17,0,0,1,.1,1.6,11.48,11.48,0,0,1-.1,1.54,12,12,0,0,1-.69,2.63,11.59,11.59,0,0,1-4.93,5.77,11.28,11.28,0,0,1-3.65,1.33,11,11,0,0,1-1.62.21h-.56c-2.33.13-4.67.13-7,.13h-6a59.26,59.26,0,0,1-6.22.87c-1,.14-2,.29-3,.41s-1.85.17-2.78.26c-.49,0-1,.1-1.46.18a17.77,17.77,0,0,1-3.42.14h-.37c-4.74-.27-9.5-.15-14.23-.09-5.39.07-10.77.17-16.15.25-12.9.19-25.8.17-38.7.21q-39.53.15-79,.23-40.53.09-81.07.16l-79.62.09-80.13.14-80.41.16q-39.6.09-79.19.2-9.22,0-18.46.09H95.34a74.69,74.69,0,0,1-7.63,0c-1.31,0-2.61,0-3.92.1-.79.08-1.58.12-2.38.13A14.39,14.39,0,0,1,79.44,985.46Z"/><path d="M337.87,953.69c-1.45-2.47-.46-5.46.45-7.92a34.73,34.73,0,0,1,5.2-8.83,39.36,39.36,0,0,1,7.48-7.39,32.52,32.52,0,0,1,4-2.59,14.29,14.29,0,0,1,4.9-1.41,10.18,10.18,0,0,1,8.36,2.62l.27.25,4.67-1.69c1.85-.69,3.72-1.36,5.56-2.07l5.29-2a8.35,8.35,0,0,1,1.12-1.8,10.43,10.43,0,0,1,3.11-2.81,14.56,14.56,0,0,1,4.13-1.52,18.24,18.24,0,0,1,8.85.89c3.75.08,7.43,1.48,9.3,5a8.65,8.65,0,0,1,0,8.53,8.43,8.43,0,0,1-8.44,4.1,12.44,12.44,0,0,1-1.46-.36h-.84l-.65.09c-4.41,1.05-8.74,2.47-13.07,3.82-3.77,1.17-7.55,2.33-11.31,3.55a17.27,17.27,0,0,1,.35,4,6.48,6.48,0,0,1-2.44,5,6.3,6.3,0,0,1-6.26.81,9.41,9.41,0,0,1-1.88-1c-.49-.41-1-.84-1.4-1.29l-.38-.28c-.86-.56-1.74-1.06-2.64-1.56a10,10,0,0,1-2.42-1.26,8.56,8.56,0,0,1-2.14-2.35,8.08,8.08,0,0,1-.77-5.78c-.48.37-.95.76-1.42,1.16-.87.81-1.69,1.64-2.49,2.52a26.83,26.83,0,0,0-2.1,2.73A30.09,30.09,0,0,0,347,948c-.31.68-.6,1.35-.87,2v.14a4.27,4.27,0,0,1,.35,1.7,4.4,4.4,0,0,1-4.33,4.33H342A5,5,0,0,1,337.87,953.69Z"/><path d="M399.36,958.78a14.67,14.67,0,0,1-2.42-1c-.79-.36-1.54-.79-2.31-1.19l-6.63-3.2a60.73,60.73,0,0,1-5.88-3.07A23.84,23.84,0,0,1,379,948a17.89,17.89,0,0,1-2.23-2.46h-.12a2.45,2.45,0,0,1-2.05-2.71,3.25,3.25,0,0,1,.45-1.4,2.37,2.37,0,0,1,2.07-1.19,3.2,3.2,0,0,1,2.14.82,7.7,7.7,0,0,1,1.11,1.3c.39.52.82,1,1.25,1.53.25.26.51.5.78.73l-.23-.21c.53.44,1.07.84,1.63,1.24a39.73,39.73,0,0,0,3.48,2c2,1,4.05,2,6.07,2.92,1.05.49,2.08,1,3.11,1.54l-.89-.85c-.23-.19-.47-.36-.71-.54l-.76-.24a3.81,3.81,0,0,1-2.8-4L391,946a5,5,0,0,1-.6-3.15,6.41,6.41,0,0,1,1.09-2.86,4.35,4.35,0,0,1,2-1.72,4.13,4.13,0,0,1,5.42,2.2,4.18,4.18,0,0,1,.3,2.1l.55.65a10.17,10.17,0,0,1,.9,1.25,4.3,4.3,0,0,1,.58,2,4.58,4.58,0,0,1-.08,1.52l.46.59,1.3,1.62a16,16,0,0,1,1.91,2.49,5.33,5.33,0,0,1,.79,3.87A4,4,0,0,1,403.2,959a3.35,3.35,0,0,1-1.32.27A10.26,10.26,0,0,1,399.36,958.78Z"/><path d="M389.54,953.43a5.64,5.64,0,0,1-2.39-.57A7.9,7.9,0,0,1,385,951a21,21,0,0,1-2.3-3.25,5.5,5.5,0,0,1-1.13-3.08,3.78,3.78,0,0,1,.54-2,6.35,6.35,0,0,1,3.56-3.81,16.43,16.43,0,0,1,2.69-1,5.34,5.34,0,0,1,2.17-1.68,5.49,5.49,0,0,1,4.82.31,2.33,2.33,0,0,1,.34.2,5.47,5.47,0,0,1,1.94,7.4,5.35,5.35,0,0,1-3.58,2.52,4.33,4.33,0,0,1,0,2.26,17.4,17.4,0,0,0-1,2.54,4,4,0,0,1-3.27,2Z"/><path class="cls-2" d="M122.94,988.73H81.11c-3.17,0-5.66-1.51-5.65-3v-.15c.09-.8.83-1.55,2-2.08a10.76,10.76,0,0,1,4.31-.74H673.5c.42.82.84,1.63,1.25,2.45.6,1.18,1.2,2.36,1.81,3.54H122.94Z"/><path class="cls-2" d="M398,940.65a8.86,8.86,0,0,1-3.73-6.64,10,10,0,0,1,2-6.48,19.06,19.06,0,0,1,4.18-3.94,16.61,16.61,0,0,1,5.13-2.62,11.34,11.34,0,0,1,6.82,0,8.37,8.37,0,0,1,5.45,6.14,8.65,8.65,0,0,1-1.31,6.52,8.06,8.06,0,0,1-2.11,2.09,10,10,0,0,1-4.61,5.11,12.39,12.39,0,0,1-5.92,1.55A10.23,10.23,0,0,1,398,940.65Z"/></svg>