<?xml version="1.0" encoding="utf-8"?>
<!-- Generator: Adobe Illustrator 25.0.0, SVG Export Plug-In . SVG Version: 6.00 Build 0)  -->
<svg version="1.1" id="Layer_group" xmlns="http://www.w3.org/2000/svg" xmlns:xlink="http://www.w3.org/1999/xlink" x="0px"
	 y="0px" viewBox="0 0 2048 1536" style="enable-background:new 0 0 2048 1536;" xml:space="preserve">
<style type="text/css">
	.st0{fill:#3C3C3C;}
	.st1{fill:#BFBFBF;}
	.st2{fill:#262626;}
	.st3{fill:#908E8C;}
	.st4{fill:#B4B5B3;}
	.st5{fill:none;stroke:#3C3C3C;stroke-width:30;stroke-miterlimit:10;}
</style>
<g id="Vector_layer">
	<path class="st0" d="M1962.4,1096.2c-3.5-0.5-6.1-3.4-6.3-6.9c0-0.3,0-0.6,0-0.9c0-0.9-0.1-1.8-0.1-2.7v-0.7c0-1.8,0-3.6,0-5.4
		v-1.8v-3.5c-28.7,0-58-0.1-86.2-0.2l-43.1-0.2c-16.6,0-33.2-0.1-49.8-0.1c5.6-6.1,13.4-10.5,21.6-11.3c11.1-1.1,22.2-0.2,33.3,0.2
		c8,0.3,16.1,1,24.1,1.5c15.1,1,30.2,2.4,45.3,4c8.3,0.9,16.6,1.6,24.8,2.7l11.4,1.5l17,1c8,0.5,16,0.4,24,0.3
		c2.6,0,5.2,0.2,7.8,0.7l-15.3,0.1c0,2.1,0,4.2,0,6.2s0,3.9,0,5.8v0.7c0,0.9,0,1.8-0.1,2.7c-0.3,3-2.4,5.5-5.3,6.4
		c-0.5,0.1-1,0.2-1.5,0.2h-0.5C1963.2,1096.3,1962.8,1096.3,1962.4,1096.2z"/>
	<path class="st0" d="M1584.7,1073.4h-21.9c4.8-0.1,9.6-0.1,14.4-0.2c9.7-0.1,19.5,0,29.2,0.2L1584.7,1073.4z"/>
	<path class="st0" d="M345.4,1071.2c-16.1-0.2-32.1-0.6-48.2-1.6c-19.7-1.4-39.4-2.8-59.1-3.9l-7.6-0.6c10,0.2,19.9,0.5,29.9,0.8
		c29.6,0.9,59.2,1.9,88.8,2.5c14.7,0.3,29.4,1,44.1,1.2c14.2,0.2,28.4,0.2,42.7,0.1c-13.4,0.4-26.7,0.8-40.1,1
		c-14.2,0.1-28.3,0.5-42.5,0.5C350.6,1071.3,348,1071.3,345.4,1071.2z"/>
	<path d="M286.1,1068.9c-16-1.1-32-2.2-48-3.1c-17.6-1.3-35.2-2.8-52.8-4l10.8,0.7c-6.6-0.5-13.1-0.9-19.7-1.3l67-0.4
		c90.8-0.6,181.5-1.1,272.3-1.6l66.7-0.3c-6.8,0.4-13.6,0.9-20.4,1.4c-8.3,0.6-16.7,1.7-25,2.6c-15.1,1.7-30.1,3.2-45.3,4.4
		c-14.2,0.8-28.5,1.4-42.7,2c-4.4,0.2-8.8,0.3-13.2,0.5C386,1069.5,336,1069.2,286.1,1068.9z"/>
</g>
<g id="Layer_4">
	<rect x="-33.5" y="-25.9" class="st0" width="106.8" height="1561.9"/>
	<rect x="1961.6" y="-51.3" class="st0" width="106.8" height="1573.4"/>
	<path class="st1" d="M720.6,1524.8c-2.1-0.2-4.2-1.7-5.6-4.2c-1.4-2.7-2-5.7-1.9-8.7V3c0-3,1-6,2.8-8.5c1.3-1.9,3.4-3,5.7-2.9
		c2.1,0.2,4.2,1.7,5.6,4.2c1.4,2.7,2,5.7,1.9,8.7v1508.9c0,3-1,6-2.8,8.5c-1.2,1.8-3.1,2.9-5.2,3L720.6,1524.8z"/>
	<path class="st1" d="M87.6,0c2.1,0.2,4.2,1.7,5.6,4.2c1.4,2.7,2,5.6,1.9,8.6v1497.9c0,3-1,6-2.8,8.4c-1.3,1.9-3.4,3-5.7,2.9
		c-2.1-0.2-4.2-1.7-5.6-4.2c-1.4-2.7-2-5.6-1.9-8.6V11.4c0-3,1-6,2.8-8.4C83.1,1.2,85,0.1,87.1,0H87.6z"/>
	<path class="st2" d="M679.4,1515.2V3.5c0-6.5,8.6-11.9,18.8-11.9s18.8,5.4,18.8,12v1511.7c0,6.5-8.6,12-18.8,12
		S679.4,1521.7,679.4,1515.2z"/>
	<path class="st2" d="M71.1,1515.3V-23c0-6.5,3.6-11.9,8-11.9s8,5.4,8,11.9v1538.3c0,6.5-3.6,11.9-8,11.9S71.1,1521.8,71.1,1515.3z"
		/>
	<path class="st2" d="M1946.1,1508.8V-13.9c0-6.6,3.9-12,8.5-12s8.5,5.5,8.5,12v1522.7c0,6.6-3.9,12-8.5,12
		S1946.1,1515.4,1946.1,1508.8z"/>
</g>
<rect x="-34" y="1054.6" class="st0" width="2102.4" height="481.4"/>
<path class="st0" d="M1320.2,1073.1c3.5,0,6.9,0,10.4,0h0.8H1320.2z"/>
<path class="st0" d="M1283.2,1073c-72-0.2-144-0.4-215.9-0.6l-15.7-1.7l1.7-0.1c5-0.2,10-0.4,15.1-0.5l29.1-0.7
	c13.8-0.3,27.5-0.3,41.3-0.4c15.1-0.1,30.2-0.2,45.2-0.1l29.3,0.1c7,0,14.1,0.3,21.1,0.6c18.5,0.5,37,1.8,55.4,3.4L1283.2,1073z"/>
<path class="st3" d="M961.7,1162.4c-22.7-0.2-45.4-0.4-68.2-0.6c-45.7-0.4-91.4-1-137.1-1.4s-91.5-0.6-137.2-0.7
	c-46.9-0.2-93.8-0.4-140.7-0.7c-46.2-0.2-92.4-0.5-138.5-0.6c-45.7-0.1-91.4-0.2-137.1-0.1c-17,0-34,0-51,0.1h-14.2
	c-4.1,0-8.2,0-12.3,0.1c-4.2,0.1-8.5,0.2-12.7,0.2c-3.1,0-6.4,0.2-9.6-0.1c-1.9-0.1-3.7-0.4-5.5-1c-0.4-0.1-0.8-0.3-1.2-0.4
	c-2.2-0.8-4.3-2-6.1-3.4c-1.7-1.3-3.2-2.8-4.4-4.5c-0.2-0.3-0.5-0.7-0.7-1c-3,0-6.1-0.1-9.1,0h-0.2c-1.2,0.3-2.5,0.5-3.7,0.5
	c-7.4,0-13.4-6-13.4-13.4c0-7.4,6-13.4,13.4-13.4c1.3,0,2.5,0.2,3.7,0.5h0.2c3,0.1,6.1,0.1,9.1,0c0.9-1.3,1.8-2.5,2.9-3.6
	c4.1-4.1,10.2-7,16.1-6.8c1.5-0.1,3.1-0.1,4.6-0.1c2.6,0,5.2,0,7.8,0c5.7,0.1,11.3,0.2,17,0.2h4.5c10.8,0,21.7,0,32.5,0.1
	c23.3,0,46.5,0,69.8,0c45.9,0,91.7-0.1,137.6-0.3c46.1-0.2,92.2-0.4,138.2-0.7c46.7-0.2,93.4-0.4,140.1-0.6
	c45.8-0.2,91.6-0.5,137.5-1c45.6-0.5,91.2-1,136.8-1.4c22.2-0.2,44.3-0.3,66.5-0.5c11.2-0.1,22.4-0.3,33.6-0.2
	c10.8,0.1,21.7,0.2,32.5,0.3c5.6,0,11.2,0,16.7,0c9.2,0,18.3,0,27.5,0.1c7.2,0.1,14.3,0.2,21.5,0.3c3.9,0,7.9,0.3,11.8,0.8
	c7.3,1.2,15,4.6,19.3,10.8c1.3,1.7,2.4,3.6,3.2,5.5c1.3,3.1,2,6.4,2,9.7c0,2.2-0.3,4.5-0.9,6.6c-0.9,3.1-2.4,6-4.3,8.6
	c-4.7,6.8-13.4,10.2-21.4,11c-5.6,0.6-11.3,0.5-17,0.6c-10.1,0.1-20.1,0.3-30.2,0.4h-13.5c-5.7,0-11.3,0-17,0
	c-10.9,0.1-21.8,0.3-32.8,0.3h-5.5C1002.2,1162.9,981.9,1162.6,961.7,1162.4z"/>
<path class="st1" d="M1767.4,1075.1H697.8c2.3-1,4.6-1.9,6.9-2.9c3.9-1.7,8-3.3,11.4-5.9c3.1-2.4,5.3-5.7,6.3-9.5
	c0.2-0.7,0.2-1.4,0.3-2.1h1214.4c2.6,0.2,5.1,1.4,6.8,3.5c1.6,1.9,2.4,4.3,2.4,6.7c0,0.2,0,0.4,0,0.6c-0.1,2.7-1.3,5.3-3.3,7.1
	c-1.9,1.7-4.4,2.6-7,2.5L1767.4,1075.1z"/>
<path class="st1" d="M612.9,1075.1H90.7c-2.8-0.1-5.3-1.4-7.1-3.5c-1.6-1.9-2.5-4.2-2.5-6.7c0-0.2,0-0.4,0-0.6
	c0.2-2.7,1.4-5.3,3.5-7.1c2-1.7,4.7-2.6,7.3-2.5h587c-1.3,0.4-2.6,0.7-3.8,1.1c-5.1,1.4-10.3,2.6-15.4,4
	c-10.3,2.8-20.4,6.6-30.7,9.7c-2.5,0.6-4.6,2-6.2,4.1c-0.4,0.5-0.7,1.1-1,1.7L612.9,1075.1z"/>
<path class="st4" d="M1097.7,1139.5H-2.9c-1.2-3.1-2.7-6-4.5-8.8c-0.5-0.7-1-1.4-1.5-2.1c-0.2-0.6-0.4-1.2-0.6-1.8
	c0-0.1,0-0.2,0-0.3c0-0.8-0.1-1.6-0.1-2.4c4.1-2.4,8.2-4.8,12.3-7.2h1567.8c38,0,25.6,18.1,24.2,22.5L1097.7,1139.5L1097.7,1139.5z"
	/>
<line class="st5" x1="658.7" y1="1096.3" x2="416.1" y2="1174.3"/>
<path d="M103.9,646.2h0.5c-7.4-0.5-14.8-0.7-22.1-1.1c-2.9,0-5.6-1.2-7.7-3.2c-4.3-4.3-4.3-11.2,0-15.4c2.1-2,4.8-3.2,7.7-3.2
	c7.4-0.4,14.8-0.6,22.1-1.1l-0.8,0c3.4-0.2,6.7-0.1,10.1,0c3.6,0.1,7.2,0.2,10.8,0.3c4,0.1,8.1,0.1,12.1,0.1c2.1,0,4.2,0,6.3-0.1
	c1.5-0.1,3-0.2,4.5-0.3c2.7-0.1,5.4,0,8,0.1c6.4,0.2,12.8,0.3,19.2,0.5c13.6,0.3,27.2,0.4,40.8,0.5c28.2,0.2,56.5,0.3,84.7,0.3
	c28.1,0,56.2,0.1,84.2,0.1h84.2c27.6,0,55.1,0,82.7,0.1c27.4,0,54.9,0,82.3,0.1l42.1,0.1c12.3,0,24.5,0,36.8,0.1
	c-0.1,4-0.2,8-0.3,12c-0.1,2.7-0.2,5.5-0.2,8.2h-0.1c-3.1,0-6.3,0-9.4,0l-21.2,0.1c-14,0-27.9,0.1-41.9,0.1
	c-28.3,0.1-56.7,0.1-85,0.1l-84.1,0.1c-27.4,0-54.7,0-82.1,0c-28.5,0-57,0.1-85.5,0.1c-27.2,0-54.3,0.1-81.4,0.3
	c-14,0.1-27.9,0.2-41.9,0.5c-6.7,0.1-13.3,0.3-19.9,0.4c-5.3,0.3-10.6,0.3-15.9-0.1l-0.8-0.1c-2-0.1-4.1-0.1-6.1-0.1
	c-4,0-8.1,0-12.1,0.1c-3.6,0.1-7.2,0.2-10.8,0.3c-2,0-4,0.1-6,0.1C106.4,646.3,105.1,646.3,103.9,646.2z"/>
<path d="M79.4,668.9c-0.4-0.1-0.9-0.1-1.3-0.2c-0.9-0.2-1.8-0.5-2.6-0.8c-3.2-1.4-5.9-3.8-7.5-6.9c-0.5-1-1-2-1.3-3.1
	c-0.7-2.7-0.7-5.5,0-8.1c0.2-0.6,0.4-1.2,0.6-1.8c0.3-0.6,0.6-1.3,0.9-1.9c1.3-2.3,3.2-4.1,5.5-5.5c1.7-1,3.6-1.7,5.6-1.9
	c0.5-0.1,0.9-0.1,1.4-0.1h0.7c0.7,0,1.5,0.1,2.2,0.1c1.3,0.1,2.7,0.1,4,0.1c1.5-0.1,3.1-0.2,4.6-0.1l4.2,0.1H99l19.8,0.1
	c13.1,0.1,26.2,0.1,39.2,0.1l80.9,0.2l80.3,0.2c26.3,0,52.7,0.1,79,0.1c26.6,0,53.2,0,79.8,0.1c26.6,0.1,53.2,0.1,79.7,0.2l40.5,0.1
	c12.7,0,25.4,0,38.1,0.2l15.5,0.2c4.8,0,9.7,0.2,14.5-0.1h-0.4c1.1-0.1,2.2,0,3.3,0.1c0.5,0.1,1,0.1,1.5,0.2l2.7,0.3
	c1,0.1,2,0.3,3,0.4c2.1,0.2,4.3,0.5,6.4,0.9h3.7c3.1,0,6.2,0,9.3,0.2h0.6c1,0.1,2,0.2,2.9,0.6c1.8,0.5,3.4,1.5,4.7,2.8
	c1,1,1.7,2.1,2.3,3.3c0.5,1,0.8,2.2,1,3.3c0.1,0.5,0.1,1.1,0.1,1.6c0,0.5,0,1-0.1,1.5c-0.1,0.9-0.4,1.8-0.7,2.6
	c-0.9,2.4-2.7,4.5-4.9,5.8c-1.1,0.7-2.4,1.1-3.7,1.3c-0.5,0.1-1.1,0.2-1.6,0.2h-0.6c-2.3,0.1-4.7,0.1-7,0.1h-2.5h-3.6
	c-2.1,0.4-4.1,0.7-6.2,0.9c-1,0.1-2,0.3-3,0.4s-1.8,0.2-2.8,0.3c-0.5,0-1,0.1-1.5,0.2c-1.1,0.2-2.3,0.2-3.4,0.1h0.3h-0.5h-0.2
	c-4.7-0.3-9.5-0.2-14.2-0.1c-5.4,0.1-10.8,0.2-16.2,0.2c-12.9,0.2-25.8,0.2-38.7,0.2c-26.3,0.1-52.7,0.2-79,0.2
	c-27,0.1-54,0.1-81.1,0.2l-79.6,0.1l-80.1,0.1l-80.4,0.2c-26.4,0.1-52.8,0.1-79.2,0.2c-6.1,0-12.3,0-18.5,0.1h-2.3h-1
	c-2.5,0.1-5.1,0.1-7.6,0c-1.3,0-2.6,0-3.9,0.1c-0.8,0.1-1.6,0.1-2.4,0.1C80.8,669,80.1,669,79.4,668.9z"/>
<path d="M337.9,637.1c-1.5-2.5-0.5-5.5,0.5-7.9c1.3-3.2,3-6.2,5.2-8.8c2.2-2.8,4.7-5.3,7.5-7.4c1.3-1,2.6-1.8,4-2.6
	c1.5-0.8,3.2-1.2,4.9-1.4c3-0.4,6.1,0.5,8.4,2.6l0.3,0.2l4.7-1.7c1.9-0.7,3.7-1.4,5.6-2.1l5.3-2c0.3-0.6,0.7-1.2,1.1-1.8
	c0.8-1.1,1.9-2.1,3.1-2.8c1.3-0.7,2.7-1.2,4.1-1.5c3-0.4,6-0.1,8.9,0.9c3.8,0.1,7.4,1.5,9.3,5c1.5,2.6,1.5,5.9,0,8.5
	c-1.7,3-5.1,4.6-8.4,4.1c-0.5-0.1-1-0.2-1.5-0.4h-0.8l-0.6,0.1c-4.4,1-8.7,2.5-13.1,3.8c-3.8,1.2-7.5,2.3-11.3,3.5
	c0.3,1.3,0.4,2.7,0.4,4c0,1.9-0.9,3.8-2.4,5c-1.8,1.4-4.2,1.7-6.3,0.8c-0.7-0.3-1.3-0.6-1.9-1c-0.5-0.4-1-0.8-1.4-1.3l-0.4-0.3
	c-0.9-0.6-1.7-1.1-2.6-1.6c-0.9-0.3-1.7-0.7-2.4-1.3c-0.9-0.6-1.6-1.4-2.1-2.3c-1-1.8-1.2-3.8-0.8-5.8c-0.5,0.4-1,0.8-1.4,1.2
	c-0.9,0.8-1.7,1.6-2.5,2.5s-1.4,1.8-2.1,2.7s-1.3,2.1-1.8,3.2c-0.3,0.7-0.6,1.3-0.9,2c0,0,0,0.1,0,0.1c0.2,0.5,0.4,1.1,0.4,1.7
	c0,2.4-2,4.3-4.3,4.3H342C340.3,639.6,338.7,638.6,337.9,637.1z"/>
<path d="M399.4,642.2c-0.8-0.3-1.6-0.6-2.4-1c-0.8-0.4-1.5-0.8-2.3-1.2l-6.6-3.2c-2-0.9-4-1.9-5.9-3.1c-1.1-0.7-2.2-1.4-3.2-2.3
	c-0.8-0.7-1.6-1.6-2.2-2.5h-0.1c-1.3-0.2-2.2-1.4-2-2.7c0-0.5,0.2-1,0.5-1.4c0.4-0.7,1.2-1.2,2.1-1.2c0.8,0,1.5,0.3,2.1,0.8
	c0.4,0.4,0.8,0.8,1.1,1.3c0.4,0.5,0.8,1,1.2,1.5c0.2,0.3,0.5,0.5,0.8,0.7l-0.2-0.2c0.5,0.4,1.1,0.8,1.6,1.2c1.1,0.7,2.3,1.4,3.5,2
	c2,1,4,2,6.1,2.9c1,0.5,2.1,1,3.1,1.5l-0.9-0.8c-0.2-0.2-0.5-0.4-0.7-0.5l-0.8-0.2c-1.8-0.5-3-2.2-2.8-4l-0.3-0.5
	c-0.5-1-0.8-2.1-0.6-3.2c0.1-1,0.5-2,1.1-2.9c0.5-0.8,1.2-1.4,2-1.7c2.1-0.9,4.5,0.1,5.4,2.2c0.3,0.7,0.4,1.4,0.3,2.1l0.5,0.7
	c0.3,0.4,0.6,0.8,0.9,1.2c0.3,0.6,0.5,1.3,0.6,2c0.1,0.5,0,1-0.1,1.5l0.5,0.6l1.3,1.6c0.7,0.8,1.4,1.6,1.9,2.5
	c0.8,1.1,1,2.5,0.8,3.9c-0.4,1.1-1.3,2-2.4,2.4c-0.4,0.2-0.9,0.3-1.3,0.3C401,642.6,400.2,642.5,399.4,642.2z"/>
<path d="M389.5,636.9c-0.8,0-1.6-0.2-2.4-0.6c-0.8-0.5-1.6-1.1-2.2-1.8c-0.9-1-1.6-2.1-2.3-3.2c-0.7-0.9-1.1-2-1.1-3.1
	c0-0.7,0.2-1.4,0.5-2c0.6-1.7,1.9-3.1,3.6-3.8c0.9-0.4,1.8-0.7,2.7-1c0.6-0.7,1.3-1.3,2.2-1.7c1.6-0.6,3.3-0.5,4.8,0.3
	c0.1,0.1,0.2,0.1,0.3,0.2c2.6,1.5,3.4,4.8,1.9,7.4c-0.8,1.3-2.1,2.2-3.6,2.5c0.2,0.7,0.2,1.5,0,2.3c-0.4,0.8-0.7,1.7-1,2.5
	c-0.7,1.2-1.9,1.9-3.3,2L389.5,636.9z"/>
<path class="st1" d="M122.9,672.2H81.1c-3.2,0-5.7-1.5-5.7-3c0,0,0-0.1,0-0.2c0.1-0.8,0.8-1.5,2-2.1c1.4-0.5,2.8-0.8,4.3-0.7h591.7
	c0.4,0.8,0.8,1.6,1.2,2.5c0.6,1.2,1.2,2.4,1.8,3.5L122.9,672.2L122.9,672.2z"/>
<path class="st1" d="M398,624.1c-2.2-1.5-3.6-4-3.7-6.6c-0.1-2.3,0.6-4.6,2-6.5c1.2-1.5,2.6-2.8,4.2-3.9c1.5-1.2,3.3-2,5.1-2.6
	c2.2-0.7,4.6-0.7,6.8,0c2.8,1,4.8,3.3,5.5,6.1c0.5,2.3,0,4.6-1.3,6.5c-0.6,0.8-1.3,1.5-2.1,2.1c-0.9,2.2-2.5,4-4.6,5.1
	c-1.8,1-3.8,1.5-5.9,1.5C401.8,625.9,399.7,625.3,398,624.1z"/>
</svg>
