<svg id="social_email" xmlns="http://www.w3.org/2000/svg" viewBox="0 0 659.03 609.88"><path d="M247.54,539.29l.33-.81c.82.78,1.66,1.53,2.51,2.26C249.43,540.26,248.48,539.78,247.54,539.29Z" style="fill:#aaacae"/><path d="M213.1,523.57C182,511,155.92,490.21,133.23,465.86,75.5,412.92,56.3,327,81.07,253.31c6.15-21.21,17-40.49,28.16-59.39,17.26-29.95,37.55-58,61.74-82.74-9.11-5.31,1.78-12.73,8.49-12.33,27.49-24.1,60.36-40.5,96-49C329,37,386,47.59,436.53,68c1.27,2.11,2.55,4.23,3.81,6.35,2.92,4.89,6,9.69,9,14.52,3.28,5.25,6.51,10.54,9.79,15.79Q446,95.11,432.07,86.79c-31.3-16.18-67-25.26-102.16-27.05-31.89-2-63.43,8.49-91.34,23.25,15.34,7,18.06,25.89,26.83,38.69,9.45,13.87,23.49,26.47,22.08,44.78,2.14,5.61.39,9.9-3.2,12.71-8.42-.19-16.82,0-25.22.39a11.25,11.25,0,0,1-4.09-5.5c-1.24-3.24-1.58-7.09,2-9,.56-11.4-6.45-20.63-13.49-28.84-9.1-10.52-13.84-23.72-20.53-35.71-15.59,7.94-28.23,19.92-39.06,33.51a304.93,304.93,0,0,0-37,50.68c-38,55.2-59.29,126.65-37.17,192.11,9.07,33.87,29.83,62.86,55.15,86.61,20.11,21.48,43.67,38.92,71.06,50,39.93,19.6,82.5,36.94,127.88,33.24,89.69-1.18,113.29-32,161.25-100.89,12.84-15.26,20.46-33.71,26.69-52.46,2.79-6.63,3.62-15.92,11.52-18.43,3.13-28.31,2.17-57,.57-85.43-.72-11.34-1.22-22.89-2.23-34.37l5.07,7.81q14,21.53,28.21,42.94c.19,9.22.37,18.22.75,26.81-.2,27-1,55-9,80.9-8.34,20.26-17.33,40.46-29.44,58.78-16.31,20.33-34.83,40.3-58,52.83-17.59,7.13-32.86,18.92-51.46,24.19-33,11.56-68.51,12.42-103.14,12.7C297.86,561.85,254.44,543.59,213.1,523.57Z" style="fill:#aaacae"/><path d="M274.18,562.39c-10.61-7.83-16.07-21.06-24.1-31.34-22.47,9.19-36.65-14.9-49.81-28.85-8.75,3-22.49,2.58-26.88-7-10.83-19.92-22.57-39.34-33.91-59-13.33-23.08-26.3-46.38-38.18-70.24-1.86-7.11-12.73-17.65-5.57-23.93C85,325.58,106,322.49,117.67,326.92q-11.28-19-21.47-38.62c-9.58-15.95-5.35-20.13,12.46-20.46C102.11,255.2,80,236.09,108,234.73c-2.38-7.52-13.57-25.95-2.43-29.78-14.11-17.45-2.61-24.66,15.78-21.38,10.31,2.64,14,14.81,20,22.53.58-.07,1.16-.12,1.75-.17a9.68,9.68,0,0,1,4.46-3.36c-7.13-12.13-13.74-24.57-21.25-36.48-4-11.07,18.63-11.51,24.87-8-7.12-11.59,13-13.78,20.48-11.38,9.48,1.75,11.33,13,16.22,19.93q6.36,10.83,12.86,21.6c-4.52,1.59-8.82,4.05-11.53,7.77-.36.5-.74,1-1.11,1.51a34.58,34.58,0,0,0-4.56-.31,25,25,0,0,0-7.07.95,10.36,10.36,0,0,0-6.13,4.12,2.9,2.9,0,0,0-.56.94,10.47,10.47,0,0,0-.79,6.15c.2,1,.45,2.06.7,3.09.59,2.46,1.2,4.92,1.78,7.39,1.19,5.17,2.46,10.33,3.52,15.54a327.88,327.88,0,0,1,4.71,34.05c2.11,21.9,2.73,43.94,3.5,65.92.37,10.74.76,21.47,1.11,32.21q.28,8.54.53,17.06c.07,2.2.13,4.41.2,6.62.05,2,.11,4,.16,5.95,0,1.5.21,3,.32,4.47a6.62,6.62,0,0,0,0,2.22h0c.32,2.14,3.07,3.43,4.87,4a17.82,17.82,0,0,0,2.21.59,41.48,41.48,0,0,0,3.74,2.94,53.92,53.92,0,0,0,8.74,4.92c-1.45,0-2.9,0-4.35.05l-1.59-.06c-1.52-.16-3.43,0-4.3,1.1-1.13,1.43.8,2.64,1.94,3.13,3.13,1.34,6.79,1.31,10.16,1.5l7.22.41c4.48.25,9,.22,13.47.32,2.29.44,4.6.83,7,1.15,8.42,1.18,17,1.58,25.43,2.18,4.48.32,9,.39,13.47.55,12.25.44,24.49.32,36.73-.1,5.17.32,10.34.64,15.51,1,9.57.67,19.12,1.46,28.69,2.12,22.73,34.81,45.55,69.56,68,104.58,5.74,9,16.94,25.3-1.26,27.1-12.37,3-21.22-5.16-28-14.46,4.29,16.83-21.41,16.24-31,10.44-10.44-9.18-19.06-20.38-28.08-31,4.31,8.56,11.86,17.52,11,27.48-5.07,9.9-20.36,10.14-29,5.08-10.17-7.22-16.75-18.41-24.75-27.79,3.65,8.89,12.39,17.88,10.16,27.93-2.87,4.66-8.51,6.53-14.29,6.53A27.23,27.23,0,0,1,274.18,562.39Z" style="fill:#aaacae"/><path d="M307.44,387.3l.14.16-.21,0Z" style="fill:#aaacae"/><path d="M199.61,421.09h.21Z" style="fill:#aaacae"/><path d="M199.17,421.05h0Z" style="fill:#aaacae"/><path d="M139.9,438.92c-2.4-.63-5.25-1.72-7-3.54l-.38-.38C101,433.81,86.87,354.78,80.87,329.33c-10.4-43.43-8.79-89.49,9.37-130.67,12-30.88,27.89-61.68,54.85-82.06C176,95.38,210.81,78.9,247.56,71.06c43.76-2.65,6.28,31.81-15.59,21.82-28.65,12-59.19,25.31-79.58,49.63-15.1,18-24.46,39.69-33.11,61.3a189.07,189.07,0,0,0-11.51,106.27c7.61,7.31,9.18,19.18,13.8,28.48,7.52,18.27,14.73,37.4,28.42,52.08-.12-6.95-6-12.81-5.49-19.72,5.28-8.49,19.55-7.73,27.36-3.27,13.91,20.29,13.42,46.94-17.88,45.59,2.86,5.84,6.43,11.38,8.58,17.53C162.68,440.62,146.91,440.49,139.9,438.92Z" style="fill:#aaacae"/><path d="M475,544c-16.87.08-24.4-17.89-34.19-28.94,3.17,7.22,14.09,19.87,3.89,25.27-8.64,3.68-21,3.38-27.89-3.58-27.31-32.93-48.43-70.1-69.18-107.47q5.67.42,11.32.78,13.65.87,27.34,1.34c1.82,2.75,3.65,5.49,5.46,8.24q3.74,5.66,7.55,11.27-6.33-9.78-12.74-19.5c13.26.48,26.54.72,39.79.81h1.37c12.23,17.29,24.9,34.26,37.21,51.49C473.52,498,513.79,544,477.76,544,476.88,544,476,544,475,544Z" style="fill:#aaacae"/><path d="M481.12,499.07c-9.13-6.54-14.07-17.82-21.46-26.24-10.24-13.6-20.59-27.1-30.88-40.65,4.46,0,8.93.08,13.4.08,7.35,0,14.69-.1,22-.47,4.63-.24,9.25-.64,13.88-1a12.7,12.7,0,0,0,2.44,2.75,26.2,26.2,0,0,0,10.17,4.87,41.67,41.67,0,0,0,10.72,1.4c1,0,1.91,0,2.86-.09a31.88,31.88,0,0,0,7.82-1.4c9.88,14.05,21.29,31.62,14.84,36.29-7.29,5.61-19.1,5.57-26.63.45a104.34,104.34,0,0,1,7.77,17c-.08,6.81-7.77,9.27-15.28,9.27A28.57,28.57,0,0,1,481.12,499.07Z" style="fill:#aaacae"/><path d="M529.14,434.72q-3.66-3.63-7.26-7.3l0-.1a29.12,29.12,0,0,0,.57-2.9c.28-2.33.57-4.65.87-7,.44-3.56.47-7.18.66-10.75.41-7.42.39-14.84.48-22.26.25-21.78.59-43.54,1.19-65.31q.47-16.58,1-33.15c.31-10.26.71-20.52.74-30.79s0-20.67.85-31a42.84,42.84,0,0,0-.24-10.37c-1-5.77-6.41-9.84-11.17-12.52a55.44,55.44,0,0,0-19.39-6.3c-3.12-.43-6.18-.64-9.27-.79a50.12,50.12,0,0,0-13.88-6.31,51.39,51.39,0,0,0-16.89-2.12c-14,.62-28,.84-42,1.49q-2.9-.32-5.79-.58c-10.83-1-21.66-2.11-32.51-2.87-12.25-.86-24.51-1.37-36.79-1.81q-8.88-.34-17.75-.8c-10.53-.55-21-1.32-31.58-1.81a361.55,361.55,0,0,0-43.91.92c-6.82.52-13.6,1.52-20.35,2.6-4.82.77-9.58,1.87-14.38,2.71q-2,.35-3.9.66c-.74.12-1.5.26-2.27.42-9-14.64-17.9-29.37-26.34-44.38-5.17-3.88-12.27-13.31-3.55-17.13-1-5.36,6.22-7.62,10.27-8.3a29,29,0,0,1,7.79-.24c-1.64-4.41-7.4-9.34-5-14.13,7.6-7.77,22.52-6.51,30.83-.39.9-8,12.4-8.36,18.68-7.89C235.06,80,257.47,79.34,266.36,83.12c-5.52-10-11.7-19.6-16.6-29.88.34-13.13,27.24-10.1,33.14-1.87,17.42-2.28,25.45,16.36,35.19,27.44-1.46-6.12-7.94-15.67-1.35-20.41a24.11,24.11,0,0,1,32.16,7.53,28.55,28.55,0,0,1,5.92-1.74,28.1,28.1,0,0,1,12.2.49c-4.55-5.28,1.19-10.25,6.49-11.16,26-7.24,45.58,31.89,61.41,47.85.89-.18,1.8-.32,2.72-.42-9.05-10.5-3.78-16,8.47-17.28h0q1.63,2.58,3.25,5.16c5.57,8.9,11,17.93,16.78,26.69q11.53,17.4,23.08,34.8c5.44,8.19,11.12,16.21,16.7,24.29,12.22,17.69,24.69,35.19,36.87,52.9l11.74,17.09q-1.17,0-2.34-.15c8.84,12.38,17.51,24.87,25.73,37.67,5.85,8.49,13.05,20.74-2.46,22.9,4.11,7.87,14.85,17.82,9.47,27-10,10-27.87,5.1-35.38-5.79,7.93,14.3,50.72,55.4,10.68,54.24,3,7.82-6.69,10.8-12.74,11a7.11,7.11,0,0,1-2.93,9.95c4.76,8.05,27.43,31.09,17.56,39a27.54,27.54,0,0,1-13.32,3.34C541.26,443.68,533.7,440.75,529.14,434.72Z" style="fill:#aaacae"/><path d="M413.46,381.37a16.42,16.42,0,0,0,1.12-2.21,47.21,47.21,0,0,0,2.15-7.21H417c-.36,1.93-.78,3.83-1.26,5.73-.4,1.24-.83,2.47-1.32,3.68Z" style="fill:#aaacae"/><path d="M416.68,265.72c-.76-.38-1.52-.74-2.3-1.07,0-3.41,0-6.82.22-10.23a22.89,22.89,0,0,1,.32-2.33,2,2,0,0,0,.92-.25c.61-.36.4-.87,0-1.26l3-.08c-.06,4.28,0,8.56.1,12.82l.09,3.67C418.25,266.53,417.46,266.11,416.68,265.72Z" style="fill:#aaacae"/><path d="M398.11,260.52a66.25,66.25,0,0,0-7.2-.41h-.1c-1-2.95-2.23-5.82-3.34-8.74a16.14,16.14,0,0,0-1.41-2.14l.31,0,9.86.83c4.39.37,8.9.34,13.32.45a25.51,25.51,0,0,0-2.79,5.9c-.67,1.72-1.31,3.44-1.88,5.19A68.19,68.19,0,0,0,398.11,260.52Z" style="fill:#aaacae"/><path d="M590.84,263.37c-14.73-4.75-28.91-37.76-39.6-50.59C524.61,175.44,496,136.65,474.15,97.51c5.77-9,21.75-8.09,29.43-2,12.87,16.39,21.91,35.65,34.15,52.59,21.09,30.88,43.81,60.59,63.92,92.13,10.89.23,15.28,8.47,11.62,18.18C608.15,264.71,598.22,265.06,590.84,263.37Zm-87.33-162,.17-.17.22-.45A6.49,6.49,0,0,1,503.51,101.32Z" style="fill:#aaacae"/><path d="M574.87,187.3c-12.5,1-47.26-53.5-44.77-64.78,3.35-10.57,38.9-8.09,31,4.92,6.87,16.61,17.44,31.43,28.57,45.43C603.74,183.59,584.69,189.55,574.87,187.3Z" style="fill:#aaacae"/><path d="M209.91,204.47c-2.06-1.05-4.47-2.82-4.47-5.39s2.41-4.35,4.47-5.4a27.19,27.19,0,0,1,21.57,0c2.05,1,4.46,2.82,4.46,5.4s-2.41,4.34-4.46,5.39a27.19,27.19,0,0,1-21.57,0Z" style="fill:#aaacae"/><path d="M345.43,354.57c-13.86-3.65-22.41-17.63-33.06-26.5-7.87-7.74-15.88-15.3-23.92-22.87-38.65-34.62-77.59-69-117.3-102.39-37.17-9.46,4.68-31.32,26.47-7.45,46.89,39.78,93.77,79.79,138.29,122.23,9.12,8.92,18,18.09,27.89,26.23C370.59,353.5,351.85,356.17,345.43,354.57Z" style="fill:#aaacae"/><path d="M370.85,353.46c-18.09-3.39-9-13.69.29-21.56,13.42-13,27.63-25.67,41.78-37.8,39.08-31.48,79.07-62,114-98.18,5.85-6.82,34.57-5.66,27.1,7-48.77,51.23-109.17,89.28-159.11,139.23C401.89,353.44,377.57,354.58,370.85,353.46Z" style="fill:#aaacae"/></svg>