<svg id="social_readingList" xmlns="http://www.w3.org/2000/svg" viewBox="0 0 659.03 609.88"><path d="M296,541.94c-60.44-.63-105.86-24.65-149.85-64.52-25.85-22.15-52.26-44.21-72.77-71.63-52.65-70.3-38.41-187,7.15-257.67A283,283,0,0,1,112,109.79c9.64-6.24,19.12-12.71,28.38-19.5,4.76-3.48,9.48-7,14.21-10.54,4.06-3,8.24-5.91,12.38-8.85,3.19-2.07,6.37-4.19,9.69-6.08,4.47-2.55,9-5,13.52-7.35,9.39-4.88,19-9.63,28.72-13.73,8.73-3.67,17.58-7,26.46-10.27q3-.7,6-1.35c35-8.08,71.09-3.49,106.34.13,53.74,3,90.36,20.77,131.3,54.72,37.66,28.78,66,67.92,84,111.59,18.69,47.68,12.27,101.74-4.73,149-12.39,36.58-27.82,72.84-52.79,102.73C468.08,511.21,392.13,542.66,316,542.66,309.33,542.66,302.66,542.43,296,541.94ZM115.75,419.18a4,4,0,0,0-3.06,1.49c-.72,1.22.26,2.48,1.17,3.24a10.38,10.38,0,0,0,4.36,2,42,42,0,0,0,7.59.91,626.74,626.74,0,0,0,93.3,77.82c30.52,19.05,66.75,23.11,102,22.11C419.77,526.93,501.29,454,531.33,363q2.73-6.75,5.2-13.7,4-1.77,7.83-3.91a3.79,3.79,0,0,0,1.91-4.69c-.81-2.29-3.16-3.9-5.21-5,15.5-50.07,19.32-105.17-6.71-152.2A249.84,249.84,0,0,0,463,95.29C434.19,72,402.25,51,364.2,48.7,331,45.81,297.09,39.29,264,46.24c-74.17,17-141.47,70.16-172,140.37-18.82,48.23-28,105.25-15.7,156.16l-18.32,4.47c-.41.1-.66.62-.79,1a4.3,4.3,0,0,0-.23,1.85c0,.63.34,2.06,1.19,2.06l.22,0,2-.52a4.47,4.47,0,0,0,.45,1.8c.18.34.54.84,1,.84h.07l17-1.88q2.43,8.07,5.63,15.87c-2.25.22-4.5.48-6.74.72-1.17.12-1.36,1.95-1.34,2.83a4.53,4.53,0,0,0,.46,2c.17.32.52.8.94.8h.07c3-.37,5.92-.74,8.89-1.06a154.9,154.9,0,0,0,17.83,29.93c.25,1,.52,2,.83,3a.32.32,0,0,0,0-.09s0,.09.05.13v0l0,.1A28.38,28.38,0,0,0,107.3,411a8.21,8.21,0,0,0,4.36,3.4,16.34,16.34,0,0,0,3.08.93l3.64,3.86a9.69,9.69,0,0,0-1.42-.1A8.2,8.2,0,0,0,115.75,419.18Z" style="fill:#5ee62e"/><path d="M105.43,406.49v0l0,.07Z" style="fill:#5ee62e"/><path d="M265.35,577.6c-13.43.32-16.33-14.4-21.2-24.13-16.81,7.4-26.9,1.74-33.37-14.64-17.54,1.57-20.31-17.65-25-30.31-10,.05-19.17-6.55-20.75-16.62-14.46,2-21.91-10.57-24.12-23-2.72-8-5.49-16-8.13-24-9.89.26-19.22-6.29-21.62-16C93.8,430,92.6,419,88.33,405.56c-3.46-10.31-6.72-20.69-9.9-31.1,3.2-.39,6.4-.79,9.61-1.12l8-.84c1.42-.15,2.83-.27,4.25-.38.06.59.11,1.17.17,1.76q.52,4.92,1,9.84c.28,2.62.7,5.23,1,7.84a88.81,88.81,0,0,0,2.86,14.84h0s0,0,0,0a0,0,0,0,1,0,0,.61.61,0,0,1,0,.11A29.83,29.83,0,0,0,107.3,411a8.32,8.32,0,0,0,4.37,3.4,18.07,18.07,0,0,0,6.82,1.31l.64,0a10.33,10.33,0,0,0,5.86-1.63,3.4,3.4,0,0,0,.31-.25,7.73,7.73,0,0,0,1,.06,6,6,0,0,0,2-.34l1.62-.52,6.76-1.55c1.51-.35,3-.57,4.57-.84l9.76-1.74c1.69-.3,3.39-.67,5.09-.91l12.83-1.86c-.13,3.9-.24,7.79-.38,11.69l-3.51.38-17,1c-7,.4-13.89.86-20.88.79-2.1-.05-4.2-.11-6.29-.3l-.46-.06-.39-.09a11.19,11.19,0,0,0-4.23-.34,4.09,4.09,0,0,0-3.06,1.5c-.72,1.21.26,2.48,1.17,3.24a10.49,10.49,0,0,0,4.36,2,53.89,53.89,0,0,0,11.12,1c3.49.08,7,.2,10.49,0l5.93-.3c7.44-.39,14.88-.7,22.31-1.18-.23,2.91-.46,5.82-.44,8.72a41.57,41.57,0,0,0,.67,7.95,35.77,35.77,0,0,0,2.44,7.48,20.37,20.37,0,0,0,4.61,6.82c4,3.69,8.94,5.93,14,7.62,1.93.64,3.92,1.24,5.9,1.7a113.51,113.51,0,0,0,18.7,2.83c11.44.67,22.85.69,34.3.48,5-.09,9.92-.36,14.86-.67s9.9-.47,14.87-.53c4.66,0,9.31.11,14,.35,2.44.24,4.86.56,7.28.95s5,1,7.47,1.65c.59.17,1.17.35,1.76.54,0,0,0,0,0,.05a12.72,12.72,0,0,1-1.55,2.11,52.76,52.76,0,0,1-7.49,5.66c-2.5,1.53-5,3-7.49,4.6l-4.1,2.61c-1.16.75-2.35,1.47-3.43,2.32a7.13,7.13,0,0,0-1.46,1.39,4.59,4.59,0,0,0-.89,1.54,3.69,3.69,0,0,0,.15,2.32,6.51,6.51,0,0,0,1.18,1.87,13.83,13.83,0,0,0,5.6,3.74,45.65,45.65,0,0,0,12.49,2.71c2.79.28,5.58.59,8.37.81l7,.53c.46,0,.92.09,1.36.1h.08c3.93,17.27,16.43,49.3,10.3,65.1-6.68,9.64-25.78,12-32.78,1.78-2.13-4.66-4.36-9.26-6.29-14,2.92,13.33-9.92,21.16-21.61,21.16A24.17,24.17,0,0,1,265.35,577.6Z" style="fill:#5ee62e"/><path d="M72,353.1l11.75-1.31,14.89-1.66q.34,4.38.66,8.76c.19,2.67.36,5.35.56,8-1.86.12-3.72.25-5.57.41L87,368c-3.1.27-6.18.63-9.27.95a1.14,1.14,0,0,0-.82.52C75.26,364,73.64,358.55,72,353.1Z" style="fill:#5ee62e"/><path d="M96.28,342.32l1.73-.45s0,.06,0,.09c.07.87.13,1.73.2,2.59l-17.8,1.87C85.71,345.05,91,343.67,96.28,342.32Z" style="fill:#5ee62e"/><path d="M123,404c-.85-2-1.75-4-2.51-6s-1.62-4-2.25-6.09-1.34-4.42-2-6.63l-.06-.28q-1.06-4.94-2.11-9.87c-.28-1.35-.48-2.72-.65-4.09l1.21-.08,25.48-1.6L177,367.12a9.43,9.43,0,0,0-.78.77c-.21.25-.42.51-.62.78-1,0-2-.06-3.06,0-.7,0-1.74.17-2,.95a1.38,1.38,0,0,0,.21,1.17c-1.65.18-3.31.33-5,.45l-1,0c-.54,0-1,.26-1,.69a.9.9,0,0,0,.17.49,3.29,3.29,0,0,0,2.57,1.12h0a59.35,59.35,0,0,0,6.78-.53c-.19.5-.37,1-.53,1.52s-.37,1.18-.54,1.78c-.91.85-1.8,1.71-2.65,2.62-.59.62-1.17,1.25-1.74,1.9-.26.31-.7.66-.7,1.1s.64,1,1.4,1.26L131.23,388c-.91.12-1.08,1.46-1.07,2.17a3.4,3.4,0,0,0,.32,1.53c.12.24.39.63.71.63h.06q19.42-2.6,38.87-5.15c0,.21,0,.41-.07.61-.21,2.07-.49,4.14-.61,6.21s-.21,4.09-.3,6.14l-17.54,2.59c-5.2.77-10.37,1.81-15.54,2.73-3.83.68-7.63,1.42-11.42,2.29C124,406.53,123.5,405.29,123,404Z" style="fill:#5ee62e"/><path d="M192.89,385.88c.1-.54.21-1.09.33-1.63l13.3-1.36,24.07-2.46,7.28-.74c.66-.07,1.31-.13,2-.16l42-2.16c4.39-.23,8.77-.47,13.16-.68.84,0,1.69,0,2.54,0h1.33l10.17-.11,23.89-.27c3.16,0,6.31-.07,9.46-.06l46.3,0c.35,0,.6-.32.75-.6a3.3,3.3,0,0,0,.33-1.48,3.4,3.4,0,0,0-.27-1.47,2,2,0,0,0,.11-.52s0,0,0-.05a13,13,0,0,1,1-1l0,0h0l0,0a63.85,63.85,0,0,1,6.93-4.81q3.77-2.35,7.69-4.45c5.11-2.71,10.35-5.16,15.59-7.61h0c4-1.73,8.05-3.54,12.08-5.3,11-4.81,21.89-9.69,32.83-14.55,5.49-2.44,10.94-5,16.41-7.5l18.18-8.34c-.08,3.07-.2,6.14-.31,9.2l-.23,0c-1.71-.29-3.87-.45-5.47.37-4.16,2.15-8,4.75-12,7.19-8.14,4.64-16.35,9.14-24.47,13.81-18.64,10.75-36.85,22.24-55.36,33.21l.17-.11L397.64,385a50.15,50.15,0,0,1-4.84,2.61,8.21,8.21,0,0,0-1.62.74,16.64,16.64,0,0,0-3.45-1.4c-.57-.17-1.14-.34-1.72-.47a69.49,69.49,0,0,0-18.44-2.1c-5.09.17-10.17.42-15.24.95-10.67,1.11-21.33,2.38-32,3.48L308.58,390c-1.67.17-3.33.39-5,.51l-19.8,1.39c-3.83.27-7.65.54-11.48.7l-22.52.93c-11,.45-22,1.11-33.05,1.7-3.48.18-6.92.39-10.39.73l-14.63,1.46A97.19,97.19,0,0,1,192.89,385.88Z" style="fill:#5ee62e"/><path d="M195.33,377.75a12.87,12.87,0,0,1,.91-1.28l.13-.1a15.61,15.61,0,0,0,1.8-1,3.15,3.15,0,0,0,1.3-2.36c.23-1.64-1.52-3.34-2.63-4.25a11.77,11.77,0,0,0-1.06-.8l1.07-.42c1.11-.44,2.46-.75,3.26-1.67l.16-.18q8.59-.51,17.21-1c15.83-.89,31.66-1.82,47.5-2.67,1.47-.08,2.93-.09,4.4-.14l11.83-.36,30.51-.95,10.9-.34c1.15,0,2.3-.09,3.45-.1l24.44,0,13.36,0c1.6,0,3.21,0,4.81,0l13.56.36,5.94.17a49.15,49.15,0,0,1,7.37.58l.54.17a.6.6,0,0,0,.4.18c.46,0,.73-.45.89-.83a3.56,3.56,0,0,0,.19-2.09c-.07-.38-.25-1-.66-1.09a15,15,0,0,0-3.93-.69c-1.16-.08-2.34-.17-3.5-.2l-1.57,0-1.66-.05c2.26-1.34,4.52-2.68,6.79-4l10.16-5.88c1.35-.79,2.68-1.61,4.07-2.33l18.19-9.54c1.67-.87,3.32-1.83,5-2.63,2-1,4.07-1.88,6.1-2.82,5.64-2.6,11.27-5.23,16.92-7.82,2-.92,4.09-1.72,6.14-2.58l10.54-4.45c4.91-2.07,9.91-3.94,14.88-5.86,4.39-1.71,8.82-3.28,13.25-4.87l2.08-.75q.06,4.17.07,8.33l-.12.05q-16.84,8.22-33.73,16.36c-4.93,2.37-9.89,4.68-14.84,7q-6.64,3.12-13.3,6.21l-18.9,8.71c-1.1.51-2.18,1.06-3.26,1.59-1.79.89-3.59,1.77-5.37,2.68-3.71,1.88-7.39,3.83-10.95,6-1.83,1.11-3.65,2.25-5.42,3.45-1.58,1.08-3.17,2.18-4.64,3.39a14.55,14.55,0,0,0-2,1.84,2.46,2.46,0,0,0-.62,1.31,4.07,4.07,0,0,0,.35,2.06q-19,0-38.06,0c-3.85,0-7.7,0-11.55,0l-19.89.25-21.13.25c-2.69,0-5.37.2-8.07.34L244,375.22l-4.81.25c-.91,0-1.81.17-2.71.26l-20.85,2.11L194.41,380A22.9,22.9,0,0,1,195.33,377.75Z" style="fill:#5ee62e"/><path d="M110.86,351.44c-.1-.88-.21-1.76-.31-2.65l16.78-1.88c14.25-1.59,28.53-2.89,42.8-4.29l11.34-1.12c1.07-.1,2.14-.23,3.21-.29L205.82,340l29.53-1.77c3.76-.23,7.53-.54,11.29-.61l50.6-.85c4.62-.08,9.24,0,13.85,0l27.16.06c6.38,0,12.76.12,19.15.19,2.71,0,5.43,0,8.14.09l5.73.22c-2.12,1.57-4.26,3.14-6.39,4.7s-4.49,3.42-6.72,5.16c-.55.43-.41,1.37-.25,1.94a6.92,6.92,0,0,0,1.61,2.62c.71.75,2.16,2,3.43,2a1.64,1.64,0,0,0,1-.36c2.07-1.64,4.14-3.29,6.26-4.87l6.17-4.58,6.84-5.08c.93-.7,1.85-1.43,2.82-2.09Q397.53,329,409,321.25h0c.84-.56,1.69-1.13,2.53-1.71l.09-.06h0l0,0v0l0,0h0s0,0,0,0h0l0,0c5.35-3.42,10.67-6.88,16-10.31l13.94-9c2.69-1.73,5.47-3.34,8.21-5l17.36-10.53,4.14-2.52c1.17-.71,2.4-1.32,3.6-2l16.92-9.26c2.45-1.33,4.95-2.59,7.45-3.83.22,8.51.5,17,.75,25.52l-.3.1c-5.18,1.76-10.31,3.66-15.44,5.56-5.43,2-10.8,4.2-16.18,6.34-5,2-10,4.26-15,6.41-1.91.82-3.85,1.59-5.73,2.46l-6.46,3-10.8,5c-1.9.88-3.85,1.69-5.71,2.65l-16,8.3-7.4,3.84c-1.47.76-2.89,1.62-4.32,2.44-6.45,3.67-12.92,7.31-19.3,11.1-1.92,1.14-.41,4,.55,5.28a9.93,9.93,0,0,0,1.24,1.44q-5.59-.17-11.19-.3c-1.89-.05-3.79,0-5.68,0l-29.08.05-7.39,0c-1.47,0-2.94.09-4.41.13l-27.24.81q-13,.39-26,.78c-3.21.09-6.43.26-9.64.43l-55,2.86-4,.21a11.27,11.27,0,0,0-1.19-1,14.93,14.93,0,0,0-5.89-2.33,11.28,11.28,0,0,0-4.7,0l-.08,0c-.39,0-.77.09-1.15.16a6,6,0,0,0-3,1.27,2.51,2.51,0,0,0-.76,1.17,10.2,10.2,0,0,0-2.22,1.75l-15.57.87q-21.12,1.17-42.23,2.26c-3.38.18-6.75.36-10.12.56C112,361.24,111.43,356.35,110.86,351.44Z" style="fill:#5ee62e"/><path d="M396.54,357.61h0Z" style="fill:#5ee62e"/><path d="M390.64,371.12h0Z" style="fill:#5ee62e"/><path d="M57.57,302.16c-1-9.89-13.2-27.54,1.65-31.48-1.83-5.26-.76-10.52,5.28-12-2.59-8.9-5-17.83-7-26.87-.08-9.74,15-9.54,21.93-8.06-.91-7.57-6.75-19.35,4.06-21.86-2.58-9.67-5.2-19.32-7.29-29.11-1.06-7,9-8.55,14-8.86-4-19.82-9.74-32.26,17.59-29.11,0-6.23-5.85-15.41-2.52-20.81q2.08-1.23,4.13-2.53c10.54-6.76,20.89-13.78,31-21.18,4.75-3.48,9.48-7,14.2-10.54l0,0a31.57,31.57,0,0,0,1.61,6.49c.91-.16,1.83-.28,2.73-.35a28.58,28.58,0,0,1,9.21.67c7.74-2.78,20.29-3.4,25,4.57,1.81,5.32,3.48,10.67,5.08,16.06-3.11-16.34-6.36-32.66-9.39-49l1.32-.7c9.39-4.87,19-9.62,28.71-13.72,8.78-3.69,17.68-7,26.61-10.33q3.55,15,7.11,30c.65-.1,1.26-.17,1.79-.21a30.17,30.17,0,0,1,6.37.13c6.32-3.4,13.2-3.56,19.84-1.77-.53-5.91-6-23.77-7.61-36.66q4-1,8-1.9c7.48-1.7,15-3.13,22.52-4.4q1.17,5,2.33,10c11.75.08,14.21,7.67,16.32,17.6,2.85-1.86,7.07-2.63,9.7-2.84a29.11,29.11,0,0,1,7.45.29c-.72-3.11-1.45-6.22-2.21-9.32C337.37,24,354,24.54,361.2,27c2.21.83,5.38,2.37,6,4.92q4.81,18.57,9.69,37.14,8.42,28.05,16.84,56.07c-6.08-23.14-11.95-46.47-15.24-70.21,2.57-9.14,16.85-8.51,24.26-6.15C413.63,53.94,417.2,75.6,422,86.35c2.67-2.67,8.1-3.72,11.13-4a32.3,32.3,0,0,1,4.06-.08c-1.19-10.14,15.13-10.17,21.94-8.51,14.4,1.77,27.06,56.56,33.71,70.8,25-8.48,28.8,12.74,37.37,30.45,6.67-.78,18-.69,20,7.27,1,10.83,3.46,21.47,5.63,32.12,2.21,12.25,6.8,24.19,7.07,36.71-1.12,6.52-9.95,7.43-15.38,7.64h0c4.36,14.15,7.92,28.67,6.64,43.58-1.62,7.76-12.91,7.91-19.25,7.37,2.68,7,5.06,17,3.58,24.82a24.44,24.44,0,0,0-7.19-1.57c-2.55-.17-5.67-.05-7.91,1.37l-1.47.95a3.18,3.18,0,0,0-.06-1.64c-.89-3-1.59-6.11-2.3-9.19-.59-2.53-1.14-5.1-1.57-7.65-.8-4.71-1.7-9.41-2.36-14.15L515,298l1.06-.34c.81-.26,1-1.29.88-2a6.87,6.87,0,0,0-1.41-3.23,12.37,12.37,0,0,0-1.53-1.72c-.16-1.25-.31-2.51-.45-3.77-.71-6.54-1.49-13.07-2.09-19.62a1.64,1.64,0,0,1,0,.23c-.18-2.12-.36-4.24-.56-6.36q10.43-5.19,20.94-10.16a1.55,1.55,0,0,0,.69-1.77,6,6,0,0,0-1.35-2.77,7.89,7.89,0,0,0-2.65-2.22,2.76,2.76,0,0,0-2.3-.31c-5.49,2.52-10.92,5.16-16.32,7.85a12,12,0,0,0-.4-2.7,10.59,10.59,0,0,0-1.3-2.84c-1.13-1.69-3.21-2.62-5.17-3.2q2.32-1.08,4.68-2.12a1.35,1.35,0,0,0,.61-1.53,5.23,5.23,0,0,0-1.14-2.41,6.94,6.94,0,0,0-2.28-2,2.44,2.44,0,0,0-2-.29c-7.63,3.22-15,7.09-22.31,10.93-3.3,1.73-6.54,3.56-9.79,5.39-2.64,1.49-5.3,2.94-7.88,4.54l-13.38,8.3c-1.05.65-2.12,1.26-3.14,1.95l-2.85,2-13.4,9.23-5.25,3.6c-.5.35-1,.69-1.5,1.06l-22.16,16.83c-1.68,1.28-3.33,2.6-5,3.92-4.37,3.49-8.71,7-12.9,10.74-2,1.8-4,3.62-6.08,5.42a40.16,40.16,0,0,0-4.91,5,7.21,7.21,0,0,0-1.62,2.92,3.18,3.18,0,0,0,.47,2,6.65,6.65,0,0,0,2.74,2.77,2.83,2.83,0,0,0,1.21.34.93.93,0,0,0,.87-.46,2.15,2.15,0,0,0-.21-1.95c.26-.43.55-.84.86-1.27a45,45,0,0,1,5.21-5.21c2.06-1.81,4.08-3.66,6.15-5.46,4.23-3.67,8.59-7.18,13-10.66,3.21-2.55,6.5-5,9.8-7.45l13.32-9.93c1.77-1.32,3.5-2.65,5.33-3.88,7.14-4.75,14.25-9.54,21.41-14.26q7.71-4.57,15.46-9.13c1-.58,2-1.21,3-1.75l5.17-2.74c3.41-1.81,6.82-3.63,10.27-5.38,3.94-2,7.87-4,11.83-6,0,0,0,.08,0,.12-.15.93.78,1.92,1.39,2.46a7.47,7.47,0,0,0,.89.68c0,1,0,2,0,3.07.09,1.59.16,3.17.21,4.76l-7.54,3.94c-3.41,1.78-6.75,3.66-10.11,5.54l-15.07,8.48c-.84.46-1.65,1-2.46,1.5l-7.32,4.49c-7.77,4.79-15.61,9.49-23.28,14.44l-16.81,10.87-7.27,4.69c-1,.64-2,1.26-3,1.93l.28-.19c-8.37,5.58-16.7,11.21-25.06,16.82q-2.22,1.5-4.38,3.11c-1-.12-2-.17-3-.21l-5.21-.21c-1.68-.06-3.36-.14-5-.16l-23.6-.29c-6.93-.08-13.86-.06-20.78-.09l-14.23-.06c-1.88,0-3.77-.06-5.65,0-6.52.11-13,.19-19.56.28l-28.8.41-6.08.09c-1.39,0-2.78.15-4.16.23q-26.5,1.51-53,3c-1.29.08-2.59.11-3.87.23l-6.88.64L148,339.48c-5,.47-10.06.9-15.08,1.43l-23,2.42c-.18-1.45-.36-2.9-.55-4.35,1.75-.45,3.49-1,5.26-1.33l22.34-4.8,9.68-2.08c1-.24,2.11-.39,3.18-.55,13.7-2.09,27.4-4.15,41.09-6.26,6.07-.52,12.14-1.12,18.21-1.68l25.89-2.4,6-.56c.26,0,.53,0,.8,0l3.06-.1,25.24-.8,11.59-.37,3.33-.1c.33,0,.66,0,1,0l21.6.39,9.33.18,1,0c2.19.11,4.38.2,6.58.33a94,94,0,0,1,13,1.61,13.73,13.73,0,0,1,3.28,1.14,3.52,3.52,0,0,1,.5.36,2.17,2.17,0,0,0,.47,1.44c.6.68,1.23-.21,1.39-.78a4.81,4.81,0,0,0,.22-1.95,4.66,4.66,0,0,0-.27-1.23,3.43,3.43,0,0,0-.74-1,6.44,6.44,0,0,0-2.63-1.43,23.82,23.82,0,0,0-2.89-.69c-2.23-.41-4.46-.77-6.71-1s-4.37-.38-6.57-.5-4.44-.27-6.66-.31l-9.7-.18-21.12-.39c-.38,0-.75,0-1.12,0l-3.5.11-11.78.37-25,.8c-1.19,0-2.41,0-3.6.13l-6.27.58-26,2.41q-8.82.82-17.65,1.63l-.93.13-3.09.48-11.32,1.72-24.94,3.8c-1.23.18-2.49.32-3.72.58l-8.3,1.76-23.63,5c-1.47.32-2.93.67-4.39,1l-2,.47c-.38-2.85-.72-5.72-1.17-8.57a109.82,109.82,0,0,0-2.32-11.8,13.94,13.94,0,0,0-1.69-4.13,6.32,6.32,0,0,0-2.41-1.93,10.12,10.12,0,0,0-6.81-.9c-1.49.4-2.78,1.58-1.76,3.13a4.52,4.52,0,0,0,.83.92,16.34,16.34,0,0,1,.73,2.21,137.63,137.63,0,0,1,2.67,17.38c.23,2.12.5,4.25.73,6.37Q83.53,341,69.46,344.43C65.37,330.38,61.35,316.3,57.57,302.16Zm83.69,7c-3.28.57-6.53,1.24-9.77,2-4,.92-7.92,1.91-11.8,3.13a36.59,36.59,0,0,0-8.11,3.19,1.06,1.06,0,0,0-.7,1.51,4.11,4.11,0,0,0,2,1.77,7.51,7.51,0,0,0,2.82.68,1.52,1.52,0,0,0,1.52-.71l.07,0c1.26-.55,2.56-1,3.87-1.44a185.36,185.36,0,0,1,21.69-5l15.72-2.38c3.9-.59,7.8-1.27,11.71-1.73l18.89-2.2c4.52-.53,9.05-1.15,13.58-1.58,11.82-1.12,23.64-2.19,35.46-3.3,1.28-.12,2.57-.16,3.86-.23l11-.62c5.5-.32,11-.65,16.52-.94,8.09,0,16.18-.14,24.26-.2,3,0,6,.26,9,.42,3.74.2,7.49.38,11.23.59q7.86.52,15.71,1.08c3,.21,6,.23,9,.33,2.21.07,4.43.21,6.65.19,5.78,0,11.56-.1,17.34-.19,4.81-.07,9.62-.33,14.43-.25,2.38.2,5.23.25,7.25-1.23a3.89,3.89,0,0,0,1.08-5,8.27,8.27,0,0,0-.66-1.16l6.13-4.35,7.42-5.26c1.47-1,3.07-1.92,4.6-2.88l17.62-11c1-.64,2.11-1.18,3.17-1.76l9.49-5.16c5-2.72,10-5.45,15-8.15l3.57-1.7,19.79-9.44c4.49-2.15,9.15-3.93,13.73-5.84l7.65-3.19c2.52-1.06,5.16-1.89,7.73-2.83l2.25-.83c2.1-.31,4.19-.64,6.29-1,4.91-.85,9.78-1.92,14.67-2.87a5.86,5.86,0,0,0,1.3-.25,7.06,7.06,0,0,0,3-1.7,12.07,12.07,0,0,0,1.88-2.14q2.77-.54,5.59-1c1.95-.28,3.89-.57,5.84-.89,2.4-.39,4.44-2.23,3.94-4.8s-2.64-4.45-4.53-5.86a23.89,23.89,0,0,0-6.3-3.32,31.3,31.3,0,0,0-1.2-10.21c-.77-2.6-2-5.51-4.25-7.19a5.65,5.65,0,0,0-4.47-1c-1.44,0-2.87.08-4.3.2l-.62-.53c-2.59-2-6-1.53-9.07-1.49-1.54,0-3.08,0-4.62,0l-10.76.13a14.91,14.91,0,0,0-1.44-1.83,26.19,26.19,0,0,0-10.11-6.42A25.74,25.74,0,0,0,472,179.36a39.77,39.77,0,0,0-5.84,1.08c-.92.25-1.82.54-2.75.76-2.07.5-4.13.91-6.21,1.29s-4.32.59-6.48.73l-8.37.53c-10.17.35-20.35.61-30.52.87-5.46.15-10.92.45-16.37.68-3.23.13-6.45.28-9.67.49q-5.55.36-11.05,1.1c-.56.07-1.11.15-1.66.24a7.52,7.52,0,0,0-1.31-4.4c-2.33-3.71-6.63-6.14-10.55-7.79A39.75,39.75,0,0,0,346,171.79h-.83a22.84,22.84,0,0,0-7.85,1.37,11.07,11.07,0,0,0-3.46,2,161.25,161.25,0,0,1-18,10.84c-2.88,1.4-5.74,2.84-8.66,4.13l-12.57,5.53c-3.1,1.36-6.25,2.59-9.38,3.88-3.51,1.45-7,2.95-10.52,4.34-9.14,3.59-18.34,7.05-27.41,10.83l-20.09,8.39q-11.94,5-23.53,10.7c-14,6.88-27.57,14.5-40.83,22.69-5.34,3.3-10.53,6.81-15.76,10.27l-14.59,9.64c-2.92,1.93-5.74,4-8.55,6.09-3.07,2.25-6.12,4.54-9.07,6.93a104,104,0,0,0-8.56,7.41,39.77,39.77,0,0,0-3.15,3.46,2.88,2.88,0,0,0-.75,2.4c.27,1.25,1.8,1.87,2.89,2.15l.11,0a9.65,9.65,0,0,0,1.92.18,7.06,7.06,0,0,0,1.75-.2,11.1,11.1,0,0,0,0,2,8.17,8.17,0,0,0,.73,3,3.08,3.08,0,0,0,1.06,1.36,2.4,2.4,0,0,0,1.31.48l.34,0a6.11,6.11,0,0,0,1.58-.57c.71-.32,1.42-.64,2.13-1,1.16-.56,2.32-1.13,3.46-1.73,2.57-1.35,5-3,7.51-4.36.77-.36,1.55-.72,2.32-1.06a10.11,10.11,0,0,0,3.5,5.5,5.94,5.94,0,0,0,3.59,1.07,16.8,16.8,0,0,0,3.35-.43c1.85-.38,3.73-.61,5.59-.89l7.33-1.13ZM132.79,136a22.78,22.78,0,0,0-.77,3.74c-.08,1-.15,2-.17,3q-.07,3.45.14,6.89c.15,2.38.38,4.74.65,7.1.15,1.29.28,2.58.46,3.86q.85,5.68,1.69,11.38c1,6.8,2.05,13.59,3.19,20.37a2.15,2.15,0,0,0,1.11,1.36,6.05,6.05,0,0,0,2.48.81,6.66,6.66,0,0,0,.78,0,3.73,3.73,0,0,0,1.52-.28c.44-.18,1-.59.87-1.14q-2-10-3.79-20c-.64-3.67-1.27-7.34-1.92-11-.44-2.55-.79-5.12-1.1-7.69a87,87,0,0,1-.74-12.7c0-.14,0-.28,0-.42.8-.05,1.74-.29,1.65-1.1a12,12,0,0,0-.31-1.79,11.67,11.67,0,0,0-.27-1.17,3,3,0,0,0-.76-1.13,4.25,4.25,0,0,0-2.75-1h-.16C134,135.11,133,135.25,132.79,136Z" style="fill:#5ee62e"/><path d="M129.17,287.77l-.12.44-2.19,1.35-1.69,1Q127.15,289.16,129.17,287.77Z" style="fill:#5ee62e"/><path d="M191.2,301.3c9.82-1.44,19.69-2.6,29.53-3.91,9.69-.94,19.39-2,29.08-3,3-.3,6-.48,8.94-.71l18.7-1.42c10.37-.79,20.75-1.38,31.13-2q16.74-1,33.48-2.18c10.25-.68,20.53-1.46,30.81-1.69,1.49,0,3-.08,4.46-.05a10.23,10.23,0,0,0,4-.31c1.45-.56,2.87-1.17,4.28-1.82,2.19-1,4.4-2,6.55-3.07,2.57-1.31,5.21-2.54,7.73-3.94l8.28-4.61c8.95-5,17.65-10.4,26.3-15.9,4.67-3,9.34-6,14-8.89,2.33-1.47,4.68-2.93,7-4.42l1-.63,4.91-1,2.71-.54c-2.51,1.33-5,2.7-7.51,4-4.86,2.61-9.72,5.2-14.57,7.82a1.71,1.71,0,0,1,.23-.13c-1.58.83-3.09,1.8-4.62,2.7l-9.92,5.81-9.3,5.45c-1.07.63-2.18,1.23-3.21,1.91L398.28,280c-1.58,1.05-3.25,2-4.76,3.15l-6.86,5.14-5.38,4c-.54-.37-1.09-.72-1.63-1A24.25,24.25,0,0,0,370,288a44.44,44.44,0,0,0-11.11.35c-2.75.42-5.49.9-8.23,1.38-1.88.32-3.77.67-5.66.89l-8.69,1c-2.07.25-4.17.27-6.26.37l-6.72.33q-12,0-24,0h-9.91c-1.62,0-3.25.12-4.87.2l-11.2.57c-4.21.21-8.43.37-12.63.74-10.72,1-21.48,1.72-32.16,3l-22.34,2.67c-3.58.43-7.16.82-10.73,1.32l-14.61,2Z" style="fill:#5ee62e"/><path d="M175.54,259.15c9.25-5.09,18.6-10,28.2-14.39,9.3-4.25,18.74-8.19,28.27-11.91h0l19-6.55c4.23-1.45,8.43-3,12.71-4.34l18.88-5.72L266.16,222c-4.89,1.72-9.72,3.61-14.56,5.41-4.2,1.57-8.39,3.12-12.56,4.71l-19.6,7.48c-4.76,1.81-9.4,4-14.09,6l-8.5,3.65c-5.38,2.32-10.64,5.07-15.78,7.88a162.23,162.23,0,0,0-19.67,12.35L159.33,271c-2.54.89-5.09,1.77-7.63,2.64l-1,.34C158.92,268.92,167.1,263.83,175.54,259.15Z" style="fill:#5ee62e"/><path d="M390.63,371.12h0Z" style="fill:#5ee62e"/><path d="M390.68,371.08l0,0,0,0Z" style="fill:#5ee62e"/><path d="M388.47,369.24h0Z" style="fill:#5ee62e"/><path d="M411.55,319.5l-.09.05Z" style="fill:#5ee62e"/><path d="M411.57,319.48h0Z" style="fill:#5ee62e"/><path d="M411.65,319.43Z" style="fill:#5ee62e"/><path d="M411.71,319.39Z" style="fill:#5ee62e"/><path d="M411.71,319.38h0Z" style="fill:#5ee62e"/><path d="M411.69,319.4Z" style="fill:#5ee62e"/><path d="M411.7,319.39Z" style="fill:#5ee62e"/><path d="M411.71,319.38l.1-.06h0l-.05,0h0l0,0Z" style="fill:#5ee62e"/><path d="M411.72,319.38h0Z" style="fill:#5ee62e"/><path d="M411.72,319.38h0Z" style="fill:#5ee62e"/><path d="M411.72,319.38Z" style="fill:#5ee62e"/><path d="M411.73,319.37h0Z" style="fill:#5ee62e"/><path d="M411.74,319.36h0Z" style="fill:#5ee62e"/><path d="M411.78,319.34h0l0,0h0l0,0h0l-.05,0Z" style="fill:#5ee62e"/><path d="M411.81,319.31Z" style="fill:#5ee62e"/><path d="M411.87,319.28l0,0h0Z" style="fill:#5ee62e"/><path d="M411.81,319.31Z" style="fill:#5ee62e"/><path d="M411.82,319.31Z" style="fill:#5ee62e"/><path d="M376.73,328l0,0Z" style="fill:#5ee62e"/><path d="M371.41,326.58l.06,0a1.14,1.14,0,0,0-.22.22h0Z" style="fill:#5ee62e"/><path d="M401.8,542.36c-12.22-.68-12.8-14.86-17.12-23.61-.36,13.58-12.14,20-24.62,17.18-26.69,10.85-31.16-13.17-39.95-32.11,3.61.22,7.22.38,10.83.36h1.11c7.45-.08,14.87-.33,22.31-.6,6.28-.11,12.57-.07,18.84-.45,3.22-.2,6.48-.38,9.67-.86s6.14-1.18,9.18-1.95c1.17-.3,2.59-.72,3-2s-.58-2.49-1.45-3.3a13.49,13.49,0,0,0-10.66-3l-2.41.33c-7.69.89-15.45,1.62-23.19,1.8-4.05.1-8.1.18-12.15.4s-8.16.54-12.24.63h-.75l-1.11,0h-2.69l-1,0h-.77c-.62,0-1.26,0-1.88,0h-.47c-1.57,0-3.16-.12-4.73-.18l-4.87-.17c-.51,0-1-.08-1.56-.1l-1.69-.13-4.92-.36h.07q-3.27-.24-6.54-.61c3.74-2.87,7.79-5.33,11.57-8.12,1.47-1.09,3-2.14,4.36-3.33a27.42,27.42,0,0,0,3.5-3.4c.89-1.08,2.06-2.46,2.25-3.92a5.39,5.39,0,0,0-.48-3.61,9.65,9.65,0,0,0-3.31-3.32,30.81,30.81,0,0,0-5.57-2.78c-10.57-4.25-21.86-6.36-33.16-7.37-5.66-.51-11.36-1-17-1.16-5.36-.18-10.72-.23-16.08-.33-10.77-.21-21.5-.78-32.23-1.63l-6.19-.67c-1.48-.16-3-.41-4.42-.66l-3.51-.76-.69-.2a47.77,47.77,0,0,1-3.21-6.09,41.51,41.51,0,0,1-2-8.22c-.62-4.92-1.09-9.86-1.45-14.81q11.52-1.08,23-2.12l-1,.07q25.14-1.85,50.27-3.89c2.17-.13,4.37-.07,6.54-.13l16-.35c7.66-.18,15.31-.38,23-.52L341,417.76c3.25.14,6.48.51,9.71.83,4.58.45,9.16.89,13.73,1.35,10.63,1.38,21.24,2.71,31.79,4.56q3.82.84,7.63,1.78c2.19.63,4.38,1.25,6.61,1.68a57.22,57.22,0,0,0,10.7,1.12A32.9,32.9,0,0,0,434,426.7c3.07-1.29,6.08-3.56,5.79-7.26-.24-3-2.53-5.49-4.7-7.31a29.84,29.84,0,0,0-8.12-4.68c1.26-.78,2.52-1.56,3.79-2.31l11.13-6.55c4.64-2.72,9.32-5.39,14-8.07q15.71-9,31.47-17.93c4.62-2.62,9.32-5.11,14-7.63,4.44-2.41,9-4.62,13.5-6.85,3.77-1.63,7.53-3.25,11.36-4.72,4.22,13.26,8.5,26.52,12.61,39.82,1,7.05,9.61,22.11,2.52,26.9-6,3.74-13.89,3.86-20.51,1.92,2.92,11.74,13.59,44.23,5.05,53.32-8.56,5-21.53,4.49-28.29-3.3-.54,7.46,4.1,19.36-5.79,21.88-12.13,4.16-29.41.21-31.75-14.24-.91.31-1.85.54-2.76.87,3.73,10.78-7,13-15.35,13.56,1.69,9.14,2.14,18.43,3.21,27.65-1.7,7.8-12.82,7.53-19.21,8.32-1,9.14-10.85,12.64-19.37,12.64A29.49,29.49,0,0,1,401.8,542.36Z" style="fill:#5ee62e"/><path d="M323.9,495.29h0Z" style="fill:#5ee62e"/><path d="M324,495.29h0Z" style="fill:#5ee62e"/><path d="M324.33,495.28h0Z" style="fill:#5ee62e"/><path d="M326.8,495.23h0Z" style="fill:#5ee62e"/><path d="M329.16,495.19h0Z" style="fill:#5ee62e"/><path d="M329.27,495.18h0Z" style="fill:#5ee62e"/><path d="M315.52,495l.22,0Z" style="fill:#5ee62e"/><path d="M315.4,495Z" style="fill:#5ee62e"/><path d="M315.39,495h0Z" style="fill:#5ee62e"/><path d="M315.19,495h0Z" style="fill:#5ee62e"/><path d="M315.17,495h0Z" style="fill:#5ee62e"/><path d="M314.28,494.91l.78.06h.11Z" style="fill:#5ee62e"/><path d="M315.14,495h0Z" style="fill:#5ee62e"/><path d="M315.06,495h0Z" style="fill:#5ee62e"/><path d="M308.7,470.37l0,.25Z" style="fill:#5ee62e"/><path d="M191.81,414.08c-.15-3.57-.25-7.17-.24-10.76l9-.83,10.77-1c1.25-.11,2.5-.28,3.76-.34l18.62-.8c5.15-.22,10.31-.51,15.46-.66h0l30.58-.88h.89c4.12-.11,8.25-.43,12.37-.65l11.75-.65c1.63-.09,3.27-.13,4.9-.27l19.73-1.65c5.33-.44,10.67-.92,16-1.39,5-.44,10-.74,15-1.1l7.45-.22h-.08l5.62.12,3.65.32,3.38.51-1.26-.19c1.37.25,2.74.51,4.11.8.74.19,1.48.39,2.22.61a12.8,12.8,0,0,0,6,.42c1.25-.25,2.79-.84,3.17-2.2a2,2,0,0,0,.06-.32,5.5,5.5,0,0,0,1,.09,3.55,3.55,0,0,0,1.49-.3,1.35,1.35,0,0,0,.61-.53l0,0,.42-.19a38.74,38.74,0,0,0,4.76-2.32l5.62-3c2.46-1.31,4.85-2.76,7.27-4.15l16.71-9.59c4.63-2.67,9.22-5.4,13.91-8l9.6-5.27c1.92-1.05,3.81-2.17,5.76-3.15,5.23-2.61,10.41-5.29,15.74-7.67,2.63-1.18,5.25-2.33,7.92-3.41,2.52-1,5.06-2,7.6-2.89,4.93-1.71,9.86-3.35,14.63-5.48a22.16,22.16,0,0,0,5,1.32,19.27,19.27,0,0,0,2.67.2,12.83,12.83,0,0,0,1.65-.1q-3.13,2.14-6.2,4.44c-3.29,2.46-6.51,5-9.79,7.49Q487.7,360,473.75,368.8c-4.93,3.11-9.81,6.29-14.79,9.32l-16,9.76-11.29,6.88-9.85,6c-2,1.24-4,2.54-6.07,3.76a31.37,31.37,0,0,0-5.55-.2c-1.36.09-2.72.15-4.09.16a69.67,69.67,0,0,0-9.23.52c-1.65.21-3.31.42-5,.6-2.69.31-5.39.53-8.08.75-3.35.13-6.72.36-10.07.36l-13.53,0c-9.22,0-18.43-.4-27.66-.35l-22.54.11c-3.06,0-6.1,0-9.16.2l-40.57,2.11c-3,.16-5.91.47-8.86.76l-22.4,2.16q-18.6,1.8-37.19,3.7Z" style="fill:#5ee62e"/><path d="M249.12,399.7h0Z" style="fill:#5ee62e"/><path d="M281,398.79h0Z" style="fill:#5ee62e"/><path d="M281.19,398.78h0Z" style="fill:#5ee62e"/><path d="M368.79,392.83l-.56,0Z" style="fill:#5ee62e"/><path d="M175.41,259.23l-.12.07Z" style="fill:#5ee62e"/><path d="M105.43,406.49v0l0,.07Z" style="fill:#5ee62e"/><path d="M451.56,221.28c-34.63-6.88-70.25-12.33-105.64-12.2-11.9-.57-23.66,5.93-35.26,1.83-26.91-16.37,42.14-18.1,50.33-17.12,36.3,2.67,73.3,6.12,108.59,15.18C488.13,218,460.32,226.59,451.56,221.28Z" style="fill:#5ee62e"/><path d="M313.78,295.61c-30.82-1.07-61.65-1.13-92.47-1.49-10.86-1.83-40,4.22-43.63-8.25,4.43-13.46,34.38-5.28,46-7,33.41,1.69,68.11-2.46,100.89,3.68C336.58,289.08,321.37,296.72,313.78,295.61Z" style="fill:#5ee62e"/><path d="M301.9,263.34c-71.53-8.41-4.18-56.59,32.83-41.23,11.13-8.66,41,.6,21.83,14.77,2.46,3,.6,6.8-2.25,8.68-.34,5.7-7.18,7.33-11.82,8A70.13,70.13,0,0,1,301.9,263.34Z" style="fill:#5ee62e"/><path d="M354.09,246.78c-18-7.56-3.55-20.78,10-19.39,6.75-.84,24.45,4.89,14.26,12.84C376.39,249.77,361.41,249.2,354.09,246.78Z" style="fill:#5ee62e"/><path d="M284.39,565.82c-46.26.2-91.28-13.29-130.9-36.9-24.16-12.85-48.66-25.77-65.21-48.38-18-19.53-34.2-40.47-42.91-65.89-13.08-27.95-28.06-56.26-26.26-88.1-.32-36.73,5.89-73,22.19-106.18,9.78-24.49,20.21-49.29,37.64-69.44,8.86-9.16,17.49-22.62,31.73-21.92,7.7-1,24.1,6.67,11.71,13.6-25,17.67-37.88,48.53-49.3,76.18-8,19.2-16.7,38.4-20.12,59.09-2.41,20.13-4,40.57-2.91,60.85.79,24.84,13.36,46.74,23.34,68.84,7.65,18.25,15.41,36.67,29.34,51.16,11,12.48,21,26,33.84,36.74C157,509.68,179.79,520.56,201.91,532c57.78,28.84,125.69,20.59,184-2.38,15.07-6.38,33.09-8.72,45-20.49,10.39-9.4,43.22-1.83,20.74,12.67-17,12-38.8,16-58.07,23.59C358.58,558.11,321.73,566.53,284.39,565.82Z" style="fill:#5ee62e"/><path d="M305.44,572.67c-22-1-44.55-2.5-65.62-9.28-8.54-3.68-18.09-4.64-26.39-8.5-5.54-3.38-1.9-9.46,3.3-10.65,16.26-5.49,34.78,6.52,49.78,9,23.22,4,47.65,6.55,71,2.26,26-7.64,51.51-17.15,77.14-25.93,101-47.22,174.56-166.08,165-278.05-5.47-44.59-28.83-65.45-56.11-97.92.51,11.23-24.42,11.13-29.49,3.6a108,108,0,0,0-46.22-48.06c-13-8.4-26.59-15.72-40-23.35-5.13-3.65-13.45-5.89-15.18-12.49,8.54-17.46,39-2.08,52.69,1.89,37.74,14.33,70.83,38.49,99.91,65.88,10.9,10.49,19.77,22.86,29.45,34.43A119,119,0,0,1,605.07,228c16.54,61.29-2.16,128-32.61,182-36,64.72-94,120.69-166.53,141C373.45,562.41,340.64,576.12,305.44,572.67Z" style="fill:#5ee62e"/><path d="M201.43,529.4C147.28,514.62,102.29,476.06,74.35,428c-36.52-7.6,18.44-28.55,25.93-10.29,22.66,17.44,37.58,42.92,60.28,60.35q8.94,6.89,18.39,13c4.49,3.08,15.77,7.61,8.74,13.9,8.07,4.33,16.71,7.42,25.4,10.25,3.44,1,7.67,1.81,9.82,5C226.17,530.64,208.1,531.3,201.43,529.4Z" style="fill:#5ee62e"/><path d="M171.38,111.25c-24.59-4.44,2.14-23.07,10.22-30.87,21.45-16.49,46.36-29.8,72.9-35.55,15.51-2.09,42.69-4.26,55.06,6.26,5.46,8.8-9.29,11.95-15.32,13.5,11,4.81,13.43,23.43,1.4,28-7.2,2.45-23.9,3-24.06-7.39,3.19-6.85,1.19-11.65-6.37-13.26C249,76.29,234.34,84.48,220,92.88,204.77,101,189.83,115.26,171.38,111.25Z" style="fill:#5ee62e"/></svg>