<svg id="social_map" xmlns="http://www.w3.org/2000/svg" viewBox="0 0 659.03 609.88"><path d="M308.89,581c-89.62-1.26-170.71-44-219.22-119.94-59.37-94.47-69-223.81,3.71-313.91,27.34-33.87,75.1-99.93,123.07-95.25C279.8,26.21,353.7,11.11,422,23.47q4.41,9,8.83,17.93c.14.3.28.59.43.88C396,32.41,357.41,32.77,321.91,39c-29.6,3.37-57.68,14.1-85.46,24.38-8.34,2.77-11,13.32-19.71,15.11-6.8,1.5-15.16,1.43-20.65-3.37-49.39,35.18-112,116.25-119.88,177.36C60,350.32,97.52,456.23,175.09,518.87c31.92,25.2,70.39,39.7,110.28,45a5.8,5.8,0,0,0,.31,1.19,7.4,7.4,0,0,0,3.31,4.11,15.24,15.24,0,0,0,4.22,1.67,26.06,26.06,0,0,0,6.23.71,40.23,40.23,0,0,0,17.69-4.27c.65-.34,1.27-.69,1.87-1.07,3.08,0,6.16,0,9.24-.08,31.62-2.15,62.07-13.43,90.21-27,25.1-16,46-37.61,68.18-57.29,38.17-33.94,65-79.47,82.48-127.11a310.09,310.09,0,0,0,9-37.18c4.89,8.28,9.79,16.57,14.51,24.95.94,2,1.85,4.17,3.74,5.41a9.16,9.16,0,0,0,5,1.48,242.41,242.41,0,0,1-20.8,50.37c-19.1,37.76-44.86,71.61-77.42,98.74-34.48,32.72-63.45,57.73-110.49,70.5-23.32,7.82-46.34,12.44-70.34,12.44Q315.66,581.49,308.89,581Z" style="fill:#ff2e32"/><path d="M379,597a18.92,18.92,0,0,1-9.4-9.1c-18.78,8.52-30.05-5.73-39.61-19.75q-2.65-3.54-5.28-7.12l0-.06c1.64-2.12,2.13-4.48,2.72-7q.66-2.52,1.41-5c3-9.87,8.06-18.91,12.85-28,5.14-9.77,10.05-19.65,14.9-29.57l-.1.22c8.48-17.29,16.53-34.79,24.69-52.23,4.36-9.32,8.69-18.65,13.06-28,2.15-4.6,4.06-9.33,6.09-14q2.21-5.1,4.43-10.19c.61-1.4,1.27-2.79,1.83-4.21l6.48-16.78c1.74-4.48,3.57-8.93,5.13-13.48,3.62-10.55,7.35-21.06,10.58-31.74q1.69-5.59,3.38-11.21c.48-1.58,1-3.16,1.43-4.77l4.6-18.92c1.24-5.07,1.84-10.32,2.69-15.47.36-2.2.72-4.36.91-6.58.3-3.52.61-7,.91-10.57.17-1.94.4-3.9.44-5.86.07-3.58.13-7.17.2-10.75.1-5.6-.32-11.17-.61-16.76A147.38,147.38,0,0,0,441,204.18a176.23,176.23,0,0,0-5.45-24c-4.69-15.21-11.7-30-22.39-42-11.06-12.37-25-21.76-40.07-28.54A180.13,180.13,0,0,0,349.49,101c-3.62-1-7.28-1.9-10.93-2.82a166.33,166.33,0,0,0-39.76-5.41H298c-6.76-16-13.81-31.93-20.29-48-.06-10.81,19.42-10.3,26.42-6.62-1.57-3.67-3.47-7.26-4.78-11-.18-9.75,15.16-9.62,22.06-8C332.65,21.68,344,49.72,352.14,59.7c-2.47-7.29-5.85-14.45-7.36-22,3.29-10,20.19-9.34,27.81-4.66,18.3,19.7,30.19,44.59,44.15,67.41-8.3-20.63-17.85-41.2-23.64-62.62,3.12-10.15,21.89-9.41,28.8-3.51,15.54,20.83,26.27,45,39.45,67.32-.37-1.16-.75-2.31-1.14-3.47q8.58,16,17.18,31.91,16.39,30.48,32.88,60.88,14,25.8,27.63,51.75,10.46,20.14,21,40.26c5.12,9.78,10.29,19.54,15.9,29.06,5.23,8.89,10.53,17.76,15.65,26.73-7.37,2.78-19.33.8-23.49-3.58a381.07,381.07,0,0,1,17.14,45.52c4.92,14.45-15,18-25,14,1.88,5.47,7.48,14.18,1.12,18.45-7.43,4.39-18.12,4.38-25.33-.51,2.66,9.39,21.37,41.64,12.1,47.57-7.77,4.51-20.31,4.83-26.78-2.1-11.91-21.54-23.33-43.46-36.87-64.12a535.44,535.44,0,0,1,27.24,60.57c6.55,17.28,8.23,28.82-14.75,26.94,6.06,11.59-8.12,17.31-17.62,15.84,1.77,6.37,8.86,17.41,2.09,22.36-7.53,4.37-18.9,4.58-25.86-1-7.2-7.6-11.45-17.52-17.52-26,9.1,20.07,21.94,40.57,23.61,62.8-3.59,9.3-16.9,9.81-25.27,8-8.23-1.52-11.94-9.56-16.61-15.58-5.5,8.54-19.81,7.58-28,3.79,4.45,13,17.31,27.2,14.27,41.24-2.76,4.74-8.37,6.49-14.11,6.49A31.07,31.07,0,0,1,379,597ZM464.42,231.4q24.06,43,50.47,84.53c-16.34-30.32-34.9-59.37-52.78-88.79C462.85,228.57,463.62,230,464.42,231.4Z" style="fill:#ff2e32"/><path d="M266.11,552.78c9.7,20.42-15.5,25.71-29.35,17.18-16.71-14.27-28.69-33.27-40.21-51.78,3.08,7.19,6.45,14.3,9.33,21.57,1.59,12.82-22.76,11.61-29.7,6.14-23.59-19.9-37.15-48.82-52-75.32-23.17-44.07-46-88.38-66.32-133.85-3.78-12.41-15-31.48-13.29-43.7,5.93-6.86,17.71-6.52,25.48-3.17,2.32,1.13,5.08,3.41,4.35,6.33,1.63,6.21,3.8,12.29,5.88,18.36,8.25,22.4,18.48,44,29,65.35C93.1,334.75,71.69,291.3,60.3,244.52c-.15-11.69,24-10.9,29.52-3.64C118.37,306,149.9,370.06,183,433.14Q129.61,319.47,77,205.42C64.79,189.2,100.5,185.88,105.14,198c-4.57-14.52-25.16-34.46,2.91-35.31-2.11-6.16-9.7-13.15-7.67-19.64,4.56-5.47,12.8-5.61,19.38-4.88-12.83-18.75,13.75-21.44,25.88-15,9.22,4.9,14.12,14.73,20.32,22.7-9.63-21.6-22.14-42.7-29.94-64.76,3-10.16,22-9.34,28.8-3.5A610.08,610.08,0,0,1,201,128.7a132.82,132.82,0,0,0-12.75,13.68c-9.91,12.27-17.7,26.52-21.1,42a91.32,91.32,0,0,0-2.37,23.87A130.31,130.31,0,0,0,167,226.32s0,0,0-.08,0,.12,0,.19l0,.12c.8,4.21,1.71,8.37,2.71,12.55s2.14,8,3.27,12a152.6,152.6,0,0,0,5.08,14.69c2,5.06,4,10.08,6.31,15q7.06,15.17,14.86,30,8.43,16.09,17.25,32c5.21,9.38,10.09,18.92,15,28.44,6.74,13.69,13.57,27.33,20.2,41.07q8.11,16.8,15.91,33.73c4.09,8.86,7.91,17.85,11.77,26.81.31.74.63,1.47.94,2.2,1.38,5,2.79,10,4.27,14.92.7,2.34,1.45,4.69,2.37,6.95.31.77.63,1.54,1,2.29a15.77,15.77,0,0,0,1.84,2.88,11.49,11.49,0,0,0,3.45,3l.35.81c2.2,5.13,4.31,10.29,6.25,15.51-.38.8-.76,1.6-1.15,2.4q-4.17-6.27-8.24-12.61c2.34,4.77,4.89,9.47,7.5,14.16-2.61,5.52-5.14,11-7.31,16.75-1.13,3-2,6-2.84,9.08-.73,2.59-1.4,5.23-2,7.86-.45,2-.92,4-.16,6.07a7.4,7.4,0,0,0,3.31,4.11,14.91,14.91,0,0,0,4.22,1.66,25.51,25.51,0,0,0,6.23.72,40.23,40.23,0,0,0,17.69-4.27c.59-.31,1.15-.63,1.71-1a103.3,103.3,0,0,1,3.54,11.5c1,6.39-7.72,8.35-12.58,8.76a27,27,0,0,1-4.87.46C286.27,587.06,277,565.75,266.11,552.78Z" style="fill:#ff2e32"/><path d="M344.13,329.52a19.12,19.12,0,0,0-1.31-1.92,10,10,0,0,0-1.1-1.17l.21-.07a72.37,72.37,0,0,0,8.21-3.34c-.93,2.42-1.91,4.82-2.91,7.19Z" style="fill:#ff2e32"/><path d="M319.44,303c-4.15-.94-8.26-2-12.31-3.27-3.29-1.09-6.54-2.3-9.73-3.66-3.41-1.53-6.76-3.17-10-5a96.08,96.08,0,0,1-8.52-5.8,83.33,83.33,0,0,1-8.34-7.6c-1.42-1.55-2.78-3.15-4.06-4.8q-1.48-3.18-2.73-6.49a99.5,99.5,0,0,1-5.16-26.85,90,90,0,0,1,.68-14.31q6.3,10.26,12.82,20.37-6-13.22-11.78-26.55c.29-1.42.63-2.83,1-4.23a77.77,77.77,0,0,1,8.53-18.8A86.61,86.61,0,0,1,282,181.46a74.1,74.1,0,0,1,8.93-6.94,64.71,64.71,0,0,1,6.22-3.29q3.24-1.33,6.58-2.4c1-.29,2.08-.56,3.12-.81,1.68,1.06,3.31,2.17,4.95,3.3h0c2.42,1.79,4.8,3.62,7.17,5.47a1.85,1.85,0,0,0,1.5.35c.41-.12.54-.46.17-.75l-.68-.53c-3.68-2.85-7.38-5.73-11.31-8.25l1.4-.3c1.52-.26,3.05-.48,4.58-.66,1.16-.08,2.31-.15,3.46-.18l1.85.05c.59.06,1.17.12,1.75.2.73.13,1.45.27,2.18.42s1.46.39,2.18.61c1,.35,2,.72,3,1.11,1.3.6,2.58,1.23,3.84,1.9,1.7,1,3.34,2,5,3.14a79.82,79.82,0,0,1,6.49,5.41,82.87,82.87,0,0,1,7.77,9.06,109.67,109.67,0,0,1,8.65,14.52q.28,4.85.53,9.7c.11,3.89.22,7.79.31,11.68-.3,1.82-.62,3.64-.94,5.46-1.41,6.88-2.83,13.8-4.79,20.55-1.16,4-2.32,8-3.71,11.92-.75,2.13-1.45,4.29-2.3,6.39a146,146,0,0,1-6.25,13.65,93.84,93.84,0,0,1-11.28,16.12,70,70,0,0,1-6.23,5.83C323.85,303.83,321.64,303.43,319.44,303Z" style="fill:#ff2e32"/><path d="M320.24,303.14l.57.13Z" style="fill:#ff2e32"/><path d="M311.8,171.3h0Z" style="fill:#ff2e32"/><path d="M335.45,139.41l4.37-1.25q2,1.26,4,2.57l1.54,1.09C342.08,140.86,338.78,140.08,335.45,139.41Z" style="fill:#ff2e32"/><path d="M368.75,126.39a103.44,103.44,0,0,0-16.53-8.79c-3.1-1.34-6.21-2.65-9.36-3.85-1-.39-2-.75-3-1.11l2.07.54q4.65,1.39,9.23,3c3.36,1.28,6.7,2.66,10,4.18q4,2,8,4.32c2.38,1.5,4.69,3.08,7,4.75s4.43,3.65,6.51,5.63q2.16,2.19,4.16,4.51A168,168,0,0,0,368.75,126.39Z" style="fill:#ff2e32"/><path d="M167,226.55l0-.12,0,.16Z" style="fill:#ff2e32"/><path d="M210.65,115.27a144.59,144.59,0,0,0-21.17-24.63c-3.38-3.92-9-6.41-10.93-11.33.18-10.67,16.93-9.47,24.35-7.68-2.61-7.91-6.54-15.28-9.14-23.17.18-11.23,20.42-10.3,27.36-5.74,4.57,4,5.57,10.76,8,16.18C236,71,239.76,85.17,249.44,95.27c-3.28-9.6-26-45-19.95-51.37,8.08-8.51,23.38-6,31.58,1.19C274.8,59,284.79,76,294.73,92.79a198,198,0,0,0-23.85,1.77A124.54,124.54,0,0,0,247.29,100a115.36,115.36,0,0,0-22.83,10.85c-3.82,2.37-7.56,4.91-11.18,7.62C212.42,117.38,211.55,116.32,210.65,115.27Z" style="fill:#ff2e32"/><path d="M538.28,243.42c.07.13.13.27.2.4C538.41,243.69,538.34,243.55,538.28,243.42Z" style="fill:#ff2e32"/><path d="M604.84,334.68c-16.34-2.13-33.17-45.71-42.56-59.75-21.69-39-42.24-78.51-62.53-118.22-20.51-38.78-42.39-77.13-59.52-117.51.38-11.68,29.69-11.45,30.64-.43,33.25,70,70.65,138.06,106.9,206.58,12.85,22.62,23.9,46.34,38.23,68.08,3,3.84,6,7.14,8.14,11.61C627.94,334.41,610.84,335.9,604.84,334.68Z" style="fill:#ff2e32"/><path d="M612,287.53c-10.94.23-30.41-52-38.33-63.46-26.57-44.65-48.92-91.84-74.85-136.71C489,76,525.51,66.72,533.2,91.29c24.53,47.62,50.69,94.35,76.39,141.33,6.41,12.3,12.15,24.95,19.16,36.93a104.58,104.58,0,0,1,5.33,10C634.32,289.25,618.88,289.13,612,287.53ZM527.2,82.27h0l-.45-.91c-.22-.25-.44-.51-.65-.77A7.66,7.66,0,0,1,527.2,82.27Z" style="fill:#ff2e32"/><path d="M617.08,237.91c-7.48-2.68-9.3-12.15-14.07-18-12.21-19.7-22.82-40.34-33.53-60.89-5.54-10.19-10.05-21.12-18.33-29.07-1.36-9.39,13.6-10.37,20.17-9.23,9.86.79,14.76,10.21,18.89,18,12.28,22.62,23.51,45.83,36.66,68,4.4,8.09,10.37,15.49,14.27,23.78C640.92,240.92,624.3,240.33,617.08,237.91Z" style="fill:#ff2e32"/><path d="M582.65,314c-10-2.31-10.42-28.34-15.34-37.74a625.34,625.34,0,0,0-48-112.77c-2.05-4.09-4.6-8.54-4.86-13.2,3-9.63,18.43-8.73,26-5.39,5.61,2.29,4.59,9.31,7.75,13.74A645.83,645.83,0,0,1,600.57,284c2.38,7.45,3.6,15.28,6.14,22.66C606.67,317,589.8,316.47,582.65,314Z" style="fill:#ff2e32"/><path d="M553.74,339.53c-8.29-2.16-6.34-12-9.92-18.17-6.29-15.63-11.88-31.52-17.62-47.35-19.85-56.91-51.34-110.4-62.94-169.89,2.52-11.06,31.22-10.53,30.85,2.3,15,64.06,48.71,122.11,69.24,184.46,4.44,13.87,11.57,27,14.45,41.26C577.74,342.5,560.9,342,553.74,339.53Z" style="fill:#ff2e32"/></svg>