<svg id="social_github" xmlns="http://www.w3.org/2000/svg" viewBox="0 0 659.03 609.88"><path d="M342.28,566.83c-7.68-5.13-9.34-15.92-14.1-23.51-15.68-31.67-32-63-47.67-94.7a18.41,18.41,0,0,0,2.6.52,11.7,11.7,0,0,0,1.19.07,15.77,15.77,0,0,0,5.36-1.1,16.14,16.14,0,0,0,4.62-2.62l.7,0a10.53,10.53,0,0,0,1.62-.12,8.1,8.1,0,0,0,3.49-1.31c.59-.43,1.4-1.21,1.21-2-.47-2.06-1-4.14-1.31-6.22s-.62-4.3-.89-6.45c-.22-1.8-.38-3.62-.56-5.42-.2-2-.3-4.13-.68-6.13-.16-.87-1.25-1.08-2.18-1.08a6.35,6.35,0,0,0-1,.07c-.86.14-2.55.6-2.7,1.68,0,.07,0,.12,0,.19-1.22-.52-2.41-1.11-3.61-1.66l-4.44-2a104.69,104.69,0,0,1-12.55-8.34,34.48,34.48,0,0,1-3.5-3.34c-1.17-1.34-2.3-2.71-3.42-4.09s-2.37-2.91-3.54-4.38c-.93-1.18-1.76-2.44-2.58-3.72-.54-.94-1.07-1.87-1.57-2.83a29.52,29.52,0,0,1-2.41-6.37,67.36,67.36,0,0,1-1.16-9.18A63.62,63.62,0,0,1,253,362.3a30,30,0,0,1,1.29-5.29,24.18,24.18,0,0,1,1.41-2.72,2.14,2.14,0,0,0-.48-2.84,4.07,4.07,0,0,0-1.9-.78,9.54,9.54,0,0,0,.62-2.24,4.44,4.44,0,0,0,.63,0,6.69,6.69,0,0,0,1.54-.19c.29.31.59.61.89.91a43.33,43.33,0,0,0,4.68,4.1c.68.51,1.37,1,2.08,1.4.72,1.15,1.44,2.31,2.19,3.44,2.2,3.32,4.57,6.47,7,9.61,2.24,2.91,4.71,5.64,7.22,8.32a29.11,29.11,0,0,0,3.82,3.46c.58.44,1.17.86,1.78,1.26a12.42,12.42,0,0,0,1.48.9,10.15,10.15,0,0,0,2.65.8,9,9,0,0,0,1.73.15,14.37,14.37,0,0,0,4-.62,13.83,13.83,0,0,0,4.27-2.06,5.54,5.54,0,0,0,2.17-2.68,2.16,2.16,0,0,0-.71-2.4,9.18,9.18,0,0,0-1.66-1l-.9-.37-.44-.2c.05-.67.09-1.35.14-2l.18-2.69a6.15,6.15,0,0,0,1.09-2.36c.1-.46.23-.92.31-1.39.19-1.06.35-2.13.49-3.2.27-2,.34-4,.56-6A48.31,48.31,0,0,1,302,350c.22-.93.47-1.85.66-2.79a5.45,5.45,0,0,0,.1-2.34,2.58,2.58,0,0,0-.34-.86c0-.08.06-.17.08-.24a8.41,8.41,0,0,0,.33-1.16c0-.21.08-.41.11-.62l-.12-.94c-.07-.52-.57-.85-1.09-1.05a4.3,4.3,0,0,0,1.28-1l0-.05c.45-.59.51-1.3-.22-1.7a2.64,2.64,0,0,0-.88-.26c-1.19-.59-2.41-1.12-3.63-1.65a49.5,49.5,0,0,1-4.46-2.31,55.3,55.3,0,0,1-7.38-5.83c-2.33-2.24-4.54-4.56-6.71-6.94-1.41-1.59-2.84-3.18-4.12-4.88-1.47-2-2.85-4-4.18-6A108.21,108.21,0,0,1,265,297.79L264.2,296a43.65,43.65,0,0,1-2.38-11.56,70.12,70.12,0,0,1,2.05-19.89c.69-2.07,1.47-4.11,2.2-6.17a23.22,23.22,0,0,0,1.14-4c.22-1.32.38-2.64.57-4,.27-1.85-1-3.14-2.5-4a11.28,11.28,0,0,0-3.23-1.08.86.86,0,0,0,.24-.64c0-.45-.46-.74-.87-.9a52.64,52.64,0,0,1,.15-12.85,66.12,66.12,0,0,1,2.36-9.18,67.6,67.6,0,0,1,3.14-8.11,42.15,42.15,0,0,1,3.68-6c.72-1,1.48-1.93,2.25-2.88a46.33,46.33,0,0,1,3.91-4,1.7,1.7,0,0,0,.34-2.23A4.11,4.11,0,0,0,275,197c1.08-.57,2.15-1.12,3.25-1.64l1.2-.52.12-.06c1.21-.53,2.41-1.08,3.61-1.62.18.5.37,1,.57,1.48a.68.68,0,0,0,0,.14,21.11,21.11,0,0,0-.24,2.51A3.38,3.38,0,0,0,282,198.5a5.42,5.42,0,0,0-.7,1.35,8.61,8.61,0,0,0-.23,1.1,9.38,9.38,0,0,0,0,1.59c.1,1.18.26,2.35.47,3.52a45.77,45.77,0,0,0,1.54,6.1q1.14,3.43,2.48,6.78c.4,1,.78,2,1.19,3,.31.74.59,1.5.93,2.24a6.78,6.78,0,0,0-.07,1.45,20.78,20.78,0,0,0,.34,3.34,24.79,24.79,0,0,0,.78,3.05,4.59,4.59,0,0,0,1.54,2.28,6.88,6.88,0,0,0,3.61,1.17,13.31,13.31,0,0,0,1.41.07,14.78,14.78,0,0,0,3.51-.42,9.92,9.92,0,0,0,4.93-2.44,17.85,17.85,0,0,0,5.83-2.36l.31-.22c1.49-.44,3-.94,4.5-1.29l4.38-1c5.26-1,10.52-2.19,15.83-2.92l1.94-.16h1.7c1.74.1,3.47.28,5.2.46s3.58.47,5.37.75q.81.18,1.62.39c1,.34,2,.73,3.05,1.14s2.07,1,3.09,1.54c1.17.74,2.31,1.5,3.42,2.34,1.58,1.38,3,2.89,4.52,4.31a30.42,30.42,0,0,0,7.41,5.14,16.13,16.13,0,0,0,7.09,1.45h.11a17.27,17.27,0,0,0,6-1c1.55-.58,3.48-1.58,4-3.3a3,3,0,0,0-1-3.16q-.8-.67-1.62-1.29c.1-.23.21-.45.31-.68.58-1.31,1.18-2.61,1.73-3.93.66-1.56,1.34-3.11,2-4.68a4.24,4.24,0,0,0,.28-.65l0-.09c.56-1.38,1.1-2.77,1.57-4.17,1.05-3.07,2.05-6.15,3.07-9.23.57-1.73,1.14-3.46,1.73-5.17.44-1.27.89-2.52,1.23-3.8l.24.16.28.27a30.35,30.35,0,0,1,3,5.28,60,60,0,0,1,2.27,5.94c.54,1.72,1.11,3.46,1.49,5.22.3,1.38.61,2.76.91,4.14.54,2.45.91,4.93,1.3,7.41.18,1.63.44,3.28.51,4.92l.12,2.56c0,.68.11,1.4.09,2.09-.05,1.51,0,3-.2,4.55s-.36,2.9-.62,4.35a40.89,40.89,0,0,1-1.33,4.24c-.23.61-.49,1.2-.73,1.8a8.12,8.12,0,0,0-.51,2.08,2.07,2.07,0,0,0,1,1.79c0,.53,0,1.06.07,1.59.06,1.31.18,2.62.28,3.92.21,2.48.37,5,.46,7.45.08,2.65.16,5.32,0,8s-.35,5.11-.69,7.66a110.9,110.9,0,0,1-4.24,15.31,5,5,0,0,0-1.26,1.73c-.25.58-.49,1.16-.74,1.73-.39.89-.75,1.78-1.15,2.66a50.05,50.05,0,0,1-2.51,4.75c-1,1.57-2.11,3.07-3.24,4.54a6.29,6.29,0,0,0-2.36,1.56c-.37.4-.72.83-1.06,1.24q-4.42-8-8.92-16,3.9,8.63,7.68,17.3c-1.5,1.48-3.06,2.86-4.69,4.19-2.89,2.13-5.92,4-9,5.87-.93.54-1.87,1.07-2.84,1.56-1.28.57-2.56,1.11-3.81,1.74l-.41,0c-1,.13-2.86.54-3.1,1.76a1.17,1.17,0,0,0,0,.32l-.91.65a18.9,18.9,0,0,0-1.57,1.23,5.42,5.42,0,0,0-1.63,2.55c-.39,1.2.59,2.28,1.55,2.92a1.59,1.59,0,0,0,.57.65,4.56,4.56,0,0,0,2.14.7c-.29,3.2-.64,6.39-.7,9.6,0,2.18-.06,4.36-.08,6.54-11.27-22.58-23.18-44.84-35.91-66.71C340.5,321.78,352,349,364.41,375.79c.23,6.65.55,13.28.75,19.93,0-.21,0-.41,0-.62.14,4.92.13,9.82-.11,14.73-.22,4.46-.51,8.92-.8,13.37q-.15,2.32-.33,4.65c-.37,1.1-.72,2.21-1,3.33a9.21,9.21,0,0,0-.63,4.33,4.77,4.77,0,0,0,.86,1.93c-.39,3.95-.95,7.88-1.3,11.82-.09,1.1,1.08,1.77,2,2a6.86,6.86,0,0,0,1.87.25,11.23,11.23,0,0,0,2.67-.36,13.74,13.74,0,0,0,3.46-1.32c.69-.18,1.37-.39,2.05-.59a46.94,46.94,0,0,0,4.91-1.89c1-.41,2-.83,2.91-1.26,3.53-1.17,7-2.47,10.51-3.72,1.69-.6,3.37-1.21,5-1.85,5.27,9.6,10.62,19.17,15.8,28.83q-6.27-15.06-12.75-30l.19-.08c1.38-.48,2.76-1,4.09-1.61.79-.36,1.58-.71,2.36-1.09,1.86-.82,3.69-1.7,5.48-2.67h0l.2-.12.16-.08,0,0c.8-.44,1.59-.89,2.38-1.34,4.25-2.41,8.32-5.15,12.31-8l-1,.67q1.69-1.17,3.36-2.4l1-.74.32-.23q5.56,12.81,11.35,25.55c10.34,24.46,22.16,49,27.45,75.13-3.16,11.46-23.49,11.31-30.6,3.7,2.91,10.57,11.78,23.13,7.08,33.92-6.92,7.25-22,7.22-28.94,0-3.7-5.41-5.91-11.76-8.92-17.58,1.25,5,5.92,11.67,2,16.28-8,6.1-24.78,6.56-30.08-3.25-25.83-58.69-57.14-114.71-85.79-172,14.26,34.32,28.67,68.57,44.28,102.3,9.52,21.27,20.46,42,27.92,64.12,1,4.62,4.3,11,.59,15a22.47,22.47,0,0,1-13.87,4.32A28,28,0,0,1,342.28,566.83Z" style="fill:#030f1b"/><path d="M295,340.43a3,3,0,0,0-.23-.52l.15,0,1.6.29a9.12,9.12,0,0,0-1.38.65A3.36,3.36,0,0,0,295,340.43Z" style="fill:#030f1b"/><path d="M276.89,188l.37.15-.75.16-.23.05Z" style="fill:#030f1b"/><path d="M380.09,228.91l.61,0c0,.13-.09.26-.13.39Z" style="fill:#030f1b"/><path d="M316.49,198.84l1-.09-.89.35C316.58,199,316.54,198.93,316.49,198.84Z" style="fill:#030f1b"/><path d="M400.1,197.15v0c.1.31.21.62.32.93a5.7,5.7,0,0,0-1.15.29C399.55,198,399.82,197.56,400.1,197.15Z" style="fill:#030f1b"/><path d="M411.55,259.5s0-.08,0-.12h.07v.18Z" style="fill:#030f1b"/><path d="M289.77,552.68c-4.07-5.25-7.16-11.2-10.71-16.81,8.85,19.11-12.86,23-25.89,15.93-8.8-8.3-13.92-19.95-20.92-29.75-18.39,8.25-27.89-3.35-37.26-17.49-12.13-16.26-23-33.42-34.14-50.35,4.32,13.56,13.68,26.61,14.73,40.77-4.45,7.68-16.56,7.34-24.06,4.92s-9.2-11-13.33-16.89c-26.52-42.54-54-84.6-74.66-130.48-5-14.91-27.68-48.95,2.51-48.58-1.79-7.48-14-27.38-6.11-32.42,19.74-9.1,28.11.8,36,17.86-11-26.87-22.74-53.48-32.8-80.69-1.75-10.59,29.21-15,34.2,4.69,19.4,39.93,39.65,79.39,59,119.33,9.88,20.95,20.15,41.75,29.18,63.09,5.11,11.92,9.73,24.08,17.46,34.61-22.39-49-42.11-99.13-64.26-148.21-15.51-32.49-31.71-64.67-45.15-98.1-6.21-10.29-1.48-16,9.8-16.74,21.13-3.07,26.33,23.62,35.72,37.55q15.81,30.38,30.72,61.19c-18.08-42.92-39.8-84.45-54.33-128.77.52-12.43,26.72-11.29,31.75-2.14q22.66,39.2,44.48,79c-15-37.14-31.68-73.61-47.31-110.49-.75-12.08,24.08-11.54,29.6-4.11,15.14,24.16,28.37,49.59,42.39,74.44q-21.75-49.49-43.7-98.89c-.24-9.73,15.18-9.62,22.06-8,11.57,2,17,27.49,23.92,37.3-2.84-9.73-28.28-57.93-22-62.72,11.23-8.49,29.12-4.12,33.49,9.81,20.27-12,34.94,6.53,44.67,22.39-2-9.76-13.56-34-6.37-41.48,9.32-7.13,24.87-5.18,31.65,4.61C313,28.65,329.6,35.28,336,48.47,345,61.6,353.6,75,362.43,88.26,355.11,72.78,345,57.71,339.79,41.58c2.09-8,13.37-8,20.07-7.23,12.88,2.27,19.19,16,27.49,24.8.31-8.55,12.1-9.44,18.67-9,18.52,1.6,24.8,23.17,33.26,36.76q30.47,55.07,56.88,112.22c27.92,51.14,47.91,105.21,64.94,160.69,7.78,20.18,15.21,40.48,22.53,60.83,1.2,5.42-6,7.79-10.19,8.47,4.25,16.35-17,19.32-27.71,12.89,1.37,9.17,16.69,40.86,5,44-7.41,3.27-17.15,3.31-23.93-1.49,3.2,11.07,6.26,22.19,8.84,33.42,2.7,8.9.91,16.55-9.53,17.44-7.51,1.26-18,0-21.49-7.83-25.26,4.85-24.5-18-33-34.92-8.7-21.83-17.52-43.6-27.22-65q-2.7-5.92-5.46-11.82c1.66-1.35,3.28-2.76,4.82-4.25s3.2-3.24,4.7-5c2.5-2.32,5-4.68,7.25-7.22,3-3.35,6.06-6.72,8.88-10.25A79.47,79.47,0,0,0,475,371.71a76.91,76.91,0,0,0,3.35-9.34c.07-.22.13-.45.2-.68l.45-.86c2.4-4.64,4.86-9.24,7-14s4.36-9.41,6.15-14.27c.86-2.39,1.64-4.8,2.32-7.25.6-2.17,1.16-4.36,1.75-6.53a70.78,70.78,0,0,0,1.71-7.74c.36-2.33.58-4.68.79-7a113.07,113.07,0,0,0,.46-15.06c-.12-2.57-.37-5.12-.69-7.67a67.58,67.58,0,0,0-1.39-6.88c-1.15-5-1.85-10.09-2.79-15.13a127.48,127.48,0,0,0-4.13-15.48c-.82-2.55-1.83-5.05-2.87-7.52s-2.23-5.17-3.5-7.67a105.68,105.68,0,0,0-8.29-13.93c-1.73-2.4-3.5-4.76-5.4-7s-3.64-4.23-5.48-6.33c-1.7-1.94-3.4-3.88-5.2-5.73s-3.71-3.63-5.56-5.45c-3.89-3.8-7.64-7.74-11.66-11.4s-8.3-6.95-12.6-10.26c-2-1.57-4.11-3.12-6.19-4.65s-4-3-6.05-4.43a59.62,59.62,0,0,0-14.3-7.58c-2.49-.87-4.91-1.88-7.38-2.81a70.87,70.87,0,0,0-7.28-2.19,81.42,81.42,0,0,0-8.55-2,24,24,0,0,0-5.74-.07,57.75,57.75,0,0,0-10.51-2.48c-2.76-.31-5.51-.57-8.28-.69a55.68,55.68,0,0,0-7.63.34c-5,.49-10,.85-14.94,1.67-2.73.45-5.44,1-8.16,1.49-2.5.5-5,.93-7.52,1.42a50.4,50.4,0,0,0-4.93,1.3c-1.2.36-2.42.71-3.6,1.13-2.41.84-4.81,1.7-7.2,2.56-5.26,1.89-10.64,3.46-15.77,5.69-2.42,1.06-4.83,2.12-7.21,3.28s-4.68,2.41-7,3.66a223.63,223.63,0,0,0-26.59,16.57h0l0,0h0l0,0h0l-.13.1-.1.08,0,0a.1.1,0,0,0-.05,0l0,0,0,0a2,2,0,0,0-.23.18l.21-.16c-3.5,2.63-6.81,5.47-10.07,8.39-2.94,2.63-5.83,5.29-8.54,8.15l.15-.16-.76.81.52-.55c-1,1.09-2,2.18-3,3.31-1.18.86-2.34,1.76-3.45,2.72-1.93,1.68-3.79,3.45-5.66,5.19s-3.9,3.69-5.71,5.69-3.42,4-5.13,6-3.6,4.17-5.39,6.27c-.91,1.07-1.79,2.17-2.7,3.25s-1.62,1.84-2.37,2.8a64.7,64.7,0,0,0-4.52,6.64,53.09,53.09,0,0,0-3.21,6.72c-.52,1.25-1.07,2.5-1.5,3.78s-.84,2.74-1.19,4.13c-.63,2.46-1,5-1.48,7.48s-.95,5.16-1.36,7.75c-.82,5.26-1.82,10.51-2.48,15.8a149.32,149.32,0,0,0-1.13,16.24,73.11,73.11,0,0,0,.28,8c.28,2.72.61,5.43.88,8.15a144,144,0,0,0,2.19,14.89c1.1,5.4,2,10.82,3.94,16a137.78,137.78,0,0,0,6.9,15c1.16,2.27,2.53,4.46,3.85,6.63,1.48,2.44,2.94,4.9,4.42,7.34a147.77,147.77,0,0,0,9.51,13.18c3.11,4,6.23,8.07,9.52,12,1.64,1.94,3.27,3.88,5,5.75s3.54,3.67,5.32,5.5c3.69,3.78,7.29,7.65,10.9,11.51a56.07,56.07,0,0,0,5.48,5.2c.91.74,1.9,1.38,2.86,2,1.21.82,2.41,1.66,3.65,2.43a121,121,0,0,0,13.09,7c2.12,1,4.25,2,6.46,2.76s4.35,1.44,6.53,2.16l.59.23c14,34.26,28.76,68.22,43.22,102.12-1.18,6.13-7.88,8.78-14.83,8.78C299,558.11,292.74,556.12,289.77,552.68Z" style="fill:#030f1b"/><path d="M244.27,181l0,0h0l-.06.05Z" style="fill:#030f1b"/><path d="M244.35,181l0,0Z" style="fill:#030f1b"/><path d="M374.9,349.24l-.21-.89.74-.05c-.15.46-.29.93-.42,1.4C375,349.55,374.94,349.4,374.9,349.24Z" style="fill:#030f1b"/><path d="M457.58,393.48Z" style="fill:#030f1b"/><path d="M244.35,181l.05,0Z" style="fill:#030f1b"/><path d="M244.4,180.92l0,0h0Z" style="fill:#030f1b"/><path d="M244.7,180.69h0Z" style="fill:#030f1b"/><path d="M244.75,180.66h0Z" style="fill:#030f1b"/><path d="M244.89,180.56l-.14.1Z" style="fill:#030f1b"/><path d="M279.48,194.87l-.3.12Z" style="fill:#030f1b"/><path d="M557.81,348.35C532.58,299.19,519.19,242.84,496,192.08c-9.58-21.26-20-42.14-29.89-63.27-2.6-7.58-9.11-15.29-8.33-23.38,2.6-4.64,9.83-6.93,16.65-6.59,4,7.84,8,15.68,12.15,23.45,5.74,10.77,11.38,21.61,17.23,32.32q9.16,16.72,18.38,33.42c5.26,9.58,10.77,19,16.17,28.54s10.76,18.9,16.14,28.35q5,8.75,9.86,17.53,3.68,8.18,7.38,16.32.34.76.69,1.5c3.92,15.64,7.61,31.33,10.81,47.12,1,5.44,2.76,10.88,2.18,16.45-1.89,5.64-8,7.8-14.35,7.8A26.94,26.94,0,0,1,557.81,348.35Z" style="fill:#030f1b"/><path d="M460.71,508.12c-17.2-2.8-16.56-25.78-22-38.83a362.4,362.4,0,0,0-16.09-41.57c1.61-1.08,3.2-2.18,4.78-3.28l-1,.66c1.11-.77,2.22-1.57,3.32-2.37l1.07-.77a116.61,116.61,0,0,0,12.93-10.41c.68-.64,1.33-1.3,2-2q10.68,24.65,20.66,49.55c4.22,11.95,6.38,24.65,11.5,36.29,7.94,8.9-3.92,13.18-12.63,13.18A19.19,19.19,0,0,1,460.71,508.12Z" style="fill:#030f1b"/><path d="M372.6,316.48c-3.46-7.5-7.1-14.93-10.75-22.34-1.8-3-4.8-6.84-1.27-9.8,7.47-5.82,21.34-6,28,1.1,2.16,3.15,3.61,6.82,5.28,10.24q2.72,5.82,5.41,11.63l-.25.57c-.75,1.64-1.61,3.2-2.52,4.76s-2.11,3.06-3.24,4.53a6.31,6.31,0,0,0-2.36,1.57c-.59.64-1.12,1.33-1.69,2a70.68,70.68,0,0,1-5.3,4.79c-1.77,1.29-3.58,2.51-5.43,3.68Q375.59,322.82,372.6,316.48Z" style="fill:#030f1b"/><path d="M356.21,558.28c-29.42,1.42-56.85-6.45-84-16.76-34.34-8.49-67.41-20.76-96.32-41.59a180.58,180.58,0,0,1-68.54-68.15c-23.41-37.11-40.72-79-42.86-123.21-1.24-49.09,9.5-99.43,40.07-138.85,15.64-22.26,30.89-45.13,50.06-64.56,21.07-18.38,44.29-36.61,71.49-44.56,7.42-3.28,32.26-1.19,23.64,11.05-15,11.1-32.23,19.39-45.8,32.65-48.29,43.11-100.36,95.85-106.28,163.62a314.57,314.57,0,0,0,2.21,44.46c.86,5.16,1.76,10.45,3.8,15.29,2.34,3.76-2,7.18-5.26,8.31,10.19,49.08,38.81,104.89,76.87,138,30.63,21.5,62.54,43,99.82,50.57,22.18,5.35,42.91,17.36,66,18.07,10.51.15,21.11,1,31.59.14,11.58-2.58,23.69-8,35.66-5.22,14.64,3.95,7.1,13.72-4.4,14.46C388.27,556.15,372.59,559.74,356.21,558.28Z" style="fill:#030f1b"/><path d="M399.5,553.21c-33-1.07-21.87-23.19,4.18-15.21C478.43,513.27,501.4,495.7,531,421.93c18.24-45,32.39-110.06,28.76-167.66q2.29,4.08,4.58,8.18,3.68,8.18,7.38,16.33c2.29,5,4.67,10.05,7,15.06,3,6.51,6,13.16,9.58,19.42C581.63,379,558.93,447,522.47,494.17c-14.26,19.12-35.8,29.59-57.05,39.07-20.44,8.57-41.42,20-64,20C400.75,553.24,400.13,553.23,399.5,553.21Z" style="fill:#030f1b"/><path d="M353.25,54.82c-27.65-4.32-57-5.55-84.29,1.27-18.43,5.55-32.73,18.82-47.69,30.28,8.94,6-3.39,12.49-9.62,12.17-7.54.74-24.78-3.67-24.28-12.34,4-7.63,13.65-10.89,19.72-16.93,10.28-8.59,21.37-16.31,33.74-21.59,39.84-16.09,89.25-13.56,130.83-5.44a296,296,0,0,1,89,29.1q5.2,10.81,10.69,21.51c2.72,5.28,5.42,10.59,8.14,15.87A260.52,260.52,0,0,0,353.25,54.82Z" style="fill:#030f1b"/><path d="M94.17,469.71c-4.41-1-11.06-5.15-8.68-10.35-6.15-12.47-11.72-25.17-18-37.56-5.66-14.5-21.58-32.08-17.59-47.93,5-7.69,32.07-8.05,29.4,4.3,2.15,14.4,12,26.79,17.61,39.77,5.06,10.15,10,20.39,14.71,30.72,1.68,5,6.34,9.68,5.37,15.15C113,471.48,101.59,471.32,94.17,469.71Z" style="fill:#030f1b"/><path d="M563.57,280.23c-34.86-60.65-63.54-126-87-191.73,1-11.44,37.51-10,31.21,3,22.18,56.63,46.26,112.73,74.52,166.62,9.72,1.06,9.66,11.38,11.27,18.9C591.15,288.28,570,287.6,563.57,280.23Z" style="fill:#030f1b"/><path d="M572.81,224.83c-9.66-1.58-10.89-13-14.62-20.36-7.8-18.59-15.19-37.35-23.34-55.78-4.9-1.07-7.67-5.28-7.23-10.21,3.53-11,23.09-10.65,30.1-3.66,15.16,21.75,21.49,48.86,32.91,72.75,1.18,2.71,2.24,5.48,3.66,8.08C597.91,225.88,579.12,226.72,572.81,224.83Z" style="fill:#030f1b"/><path d="M580.69,180.25a13.55,13.55,0,0,1-7.46-4.36l-.45-.55c-28.49-9,12.4-33.63,29.39-4.27C605.53,181.46,587.35,182.14,580.69,180.25Z" style="fill:#030f1b"/></svg>