<svg id="social_twitter" xmlns="http://www.w3.org/2000/svg" viewBox="0 0 659.03 609.88"><path d="M342,554.05c-105-2.69-219.3-56.15-253.48-161.91-24.07-79.48.76-171.26,55.82-232.31,21.42-30.64,44.49-62.28,78.79-79.77,39.7-26.71,89.23-43,136.35-27.57,31.24,8.75,63.54,16.67,91.67,33.34C477.24,102.14,497,127,510,154.66a371,371,0,0,1,32,65.76c51,112.1,21.25,242.71-93.83,299.39-27.55,24.63-55.32,34.93-90,34.93C353,554.74,347.59,554.5,342,554.05ZM184.94,418.92c-3.16.47-5.46,4-5.23,7.07.25,3.25,1.8,6.13,3.38,8.93a58.76,58.76,0,0,0,3,5.05,37.86,37.86,0,0,0,5.61,6.44,73.85,73.85,0,0,0,6.27,5.17,63.86,63.86,0,0,0,7.48,4.64,77.92,77.92,0,0,0,16,5.75,83.75,83.75,0,0,0,11.63,2.24l.38.05a2.27,2.27,0,0,0,1,1.13,10.31,10.31,0,0,0,4.12.86c.92.08,1.85.18,2.77.22,2.08.09,4.17.23,6.25.23h2.77c1.58,0,3.16,0,4.73-.07l7.88-.38c1.92-.09,3.84-.24,5.75-.38,2.14-.15,4.31-.24,6.45-.47,4.36-.49,8.74-.86,13.08-1.56l6.09-1c1.11-.18,2.24-.32,3.35-.57l9.06-2,1.06-.25a232.83,232.83,0,0,0,25.91-5.44c5-1.34,10.08-2.57,15.11-3.89A150.15,150.15,0,0,0,365,445.52c3-1.19,6-2.42,9-3.88a60.5,60.5,0,0,0,9.61-5.81l3.78-2.89a78.22,78.22,0,0,0,6.09-5.27c1.41-1.32,2.84-2.65,4.19-4a101.66,101.66,0,0,0,17.57-17.79c.46-.44.91-.88,1.34-1.35,1.76-1.89,3.59-3.75,5.27-5.72,3.85-4.54,7.65-9.1,11.1-14l2.69-3.78c1-1.37,1.8-2.85,2.69-4.26.64-1,1.34-2,1.91-3q1.2-2.22,2.41-4.43a153.61,153.61,0,0,0,7.13-16c2.06-5.15,3.65-10.5,5.3-15.79.41-1.28.74-2.59,1.1-3.88.31-1.13.68-2.26,1-3.41.69-2.9,1.46-5.8,2-8.73.5-2.75,1.05-5.48,1.36-8.25.2-1.81.49-3.64.53-5.46,0-1.47.07-2.93.1-4.4a77.76,77.76,0,0,0-.43-8.22c-.26-2.9-.57-5.78-1-8.66a9.24,9.24,0,0,0-10.4-7.73,8.79,8.79,0,0,0-1.37.31c.07-.17.15-.34.22-.52a9.25,9.25,0,0,0-.22-7v-.45c.1-1.29.22-2.56.41-3.84.22-.2.44-.41.65-.63a7.63,7.63,0,0,0,2.24-5.48,6.54,6.54,0,0,0-1.36-3.72,4.12,4.12,0,0,0-3.58-4.52,13.76,13.76,0,0,0-2,0l-3.83-.28c.64-.62,1.28-1.26,1.91-1.9a73.86,73.86,0,0,0,7.51-8.68,44.83,44.83,0,0,0,5.32-9.16c1.29-3.24,2.24-7.09.78-10.44a8.38,8.38,0,0,0-3.24-3.68,7.8,7.8,0,0,0-2.11-1,9,9,0,0,0-2.25-.22c-2.12,0-4.19,1.09-6.09,1.91L438.54,221c-2.24,1-4.46,2.05-6.68,3.1l-7.55,3.52-2.37,1.08a9.16,9.16,0,0,0-.39-5.63,40.51,40.51,0,0,0-1.88-4.07,41.91,41.91,0,0,0-2.39-3.76c-1.23-1.75-2.54-3.45-3.82-5.16-2.75-3.66-5.43-7.38-8.11-11.1-1.53-2.12-3-4.3-4.67-6.32a62.74,62.74,0,0,0-7.31-7.8,34.66,34.66,0,0,0-10-6,24.52,24.52,0,0,0-11-1.46,27.79,27.79,0,0,0-11.2,3.27,49.6,49.6,0,0,0-8.6,6.37c-5.54,4.91-10,10.93-14.22,17a157.37,157.37,0,0,0-11.77,20.22,133.16,133.16,0,0,0-8.43,21.34c-1.1,3.82-2.14,7.7-2.9,11.6-.73,3.71-1.27,7.46-1.68,11.21-.13,1.22-.25,2.42-.36,3.63a20.05,20.05,0,0,0-3.52.51c-.61.14-1.2.31-1.79.49l.12,0-.49.14c-.7.08-1.41.14-2.11.19-1.53,0-3-.11-4.55-.24-4.8-.77-9.47-1.91-14.18-3.1-3.23-.93-6.46-1.84-9.62-3l-8-2.81c-3.33-1.17-6.57-2.61-9.79-4a153.59,153.59,0,0,1-16.46-8.9l-.09-.06h0a178.44,178.44,0,0,1-17.38-12.57,169.19,169.19,0,0,1-14.21-13.22,115.53,115.53,0,0,1-8.82-10.54,96.07,96.07,0,0,1-5.48-8.59q-.36-.68-.66-1.38c-.07-.17-.12-.34-.18-.51a2.89,2.89,0,0,0,.4-2,3,3,0,0,0-3.83-2.33l-.13,0a3.38,3.38,0,0,0-2.71,3,8.13,8.13,0,0,0,0,1.91,3.7,3.7,0,0,0-1.16,1,4.2,4.2,0,0,0-2.13,3c-.06.34-.1.69-.13,1-.11.78-.24,1.56-.33,2.35-.12,1-.22,2-.3,2.93q-.27,3.16-.36,6.36A9.56,9.56,0,0,0,184,224.6a34.92,34.92,0,0,0-1,4.4A100,100,0,0,0,182,239.79a135.27,135.27,0,0,0,.89,22.22,199.09,199.09,0,0,0,4.25,23.22c.72,3,1.58,6,2.42,8.95,1.44,5.09,2.83,10.19,4.47,15.22,2.63,8.05,5.2,16.1,8.22,24a188.86,188.86,0,0,0,9.48,21.33A156.25,156.25,0,0,0,223.84,374c2.64,3.6,5.39,7.11,8.18,10.58,1.79,2.21,3.54,4.46,5.36,6.64q5.52,6.63,11.06,13.24c2.1,2.5,4.2,5,6.43,7.38a27.83,27.83,0,0,0,4.74,4c.35.24.71.46,1.08.68-.64.52-1.3,1-2,1.53-2.12,1.54-4.22,3.1-6.33,4.67l.63-.46a113,113,0,0,1-9.55,6.42c-1.22.66-2.45,1.28-3.71,1.87-1,.35-1.89.67-2.85,1-1.41.32-2.8.6-4.22.85-1.68.18-3.35.33-5,.37-1.22,0-2.42-.14-3.63-.29-3.28-.57-6.52-1.41-9.72-2.3-3.32-1-6.56-2.23-9.76-3.59-1.21-.54-2.41-1.09-3.6-1.67-2.2-1.06-4.37-2.15-6.57-3.24-1.05-.52-2.1-1-3.16-1.54-.67-.32-1.35-.61-2-.91a6.29,6.29,0,0,0-2.44-.46A12,12,0,0,0,184.94,418.92Zm237-237c.43.44.85.87,1.27,1.32.21.21.41.43.62.66-.63-.91-1.27-1.82-1.92-2.72C421.94,181.38,422,181.62,422,181.87ZM267.43,81.73a1.84,1.84,0,1,0,3.68.13,1.84,1.84,0,0,0-3.68-.13Z" style="fill:#1da1f2"/><path d="M374.77,438.75l.14-.07-.34.17Z" style="fill:#1da1f2"/><path d="M384.54,433.28l.17-.11-.78.52Z" style="fill:#1da1f2"/><path d="M402.66,417.94l-.42.48Z" style="fill:#1da1f2"/><path d="M267.21,424.49l0,.08-.13.11C267.11,424.62,267.16,424.55,267.21,424.49Z" style="fill:#1da1f2"/><path d="M437.33,231.85l1-.18.81-.15-1.06,1.35A6.55,6.55,0,0,0,437.33,231.85Z" style="fill:#1da1f2"/><path d="M188.13,257.47l.33.15c0,.69,0,1.37,0,2.05C188.36,258.94,188.24,258.2,188.13,257.47Z" style="fill:#1da1f2"/><path d="M221.86,248.83l.55.5-.63,0A3.31,3.31,0,0,0,221.86,248.83Z" style="fill:#1da1f2"/><path d="M243,251.43l.21.13Z" style="fill:#1da1f2"/><path d="M242.56,251.17l.11.06Z" style="fill:#1da1f2"/><path d="M210.85,225.2l.21.21Z" style="fill:#1da1f2"/><path d="M353.22,484.21c-15-.61-20-20.81-8.34-29.48,18.55-13.09,41.48-21.15,55-40.46,16.92-21.64,28-46.71,36.12-72.8,4.44-14.9,7.3-30.14,6.87-45.75,1.17-9.6-.61-19.76,2.59-28.87,3.75-7,10.47-15.56,19.49-12.65a11.3,11.3,0,0,1,7,14.25h0a18.61,18.61,0,0,1-1.16,2.47c14.38,5.71,13.49,27.86-4,24.29,1,52-20.54,105.63-52.4,146.24a154.28,154.28,0,0,1-39.23,31.89C368.36,477.8,362.15,485.17,353.22,484.21Z" style="fill:#1da1f2"/><path d="M191.85,530.5c-12.56-3.4-18.85-23.59-26.39-33.86-17.26,3.62-25.82-12.17-33-24.85-8.89-14.59-17.34-29.46-25.81-44.3C99,414.15,91.49,400.75,83.92,387.38,78,374.93,58.55,355,85,354c-6.88-14.73-12.74-29.9-18.12-45.24-1.78-6.48-8.6-16.24-1.63-21.51C75,281.53,90,283.1,95.4,294c-4.86-17.74-12.3-31.43,14-29.75-6.24-14.79-12-29.79-17-45-5.22-10.71,10.13-13.6,17.83-12.5-1.32-4.83-2.61-9.66-4.21-14.4-.73-9.6,15.6-9.63,22.06-8,10.54,1.76,10.11,14.73,14.51,22.42,10.24,25.17,21.85,49.74,33,74.52,17.83,36.07,27.78,76.52,49.37,110.47,16,11.55-16.77,16.53-23.7,9.66,7.06,18.69-9.66,24.58-25,19.89,10.4,23.73,20.89,47.42,30.87,71.34,3.95,10.69,10,22.7,8.22,34.15C209.78,533.11,199.31,532.85,191.85,530.5Z" style="fill:#1da1f2"/><path d="M371.7,574.42c-11-1.51-16.74-12.37-23.6-19.9a31.54,31.54,0,0,1-11.13.29c-3.12,11.55-20.16,11.45-28.76,6.4-7.1-4.38-11.13-12.12-16.47-18.31-21.28,5.76-32.45-17.12-45.58-29.46-4.22-4.52-8.22-9.49-13-13.38-3.27-1.23-8.2-4.49-5.46-8.56,13.06-12.93,32.72-1.46,41.84,10.81,8.26-3.38,20.16-3.34,26,4.28a26.76,26.76,0,0,1,3.65-1.2,28.38,28.38,0,0,1,9.45-.75c-2.93-10.34,15.92-10.73,22.45-8.69-9.56-12.08,8.17-19,18.24-16.33,8.11,1.19,14.07,7.93,20,13.09-4-11.87,12.31-14,20.52-12.15,6.35-5.79,16.78-5.54,24.37-2.54-14.4-16.54,5.07-22.7,19.25-18.17-10.16-16.79-25.69-35.12,7.11-33-6.09-10.89-14-21.1-18.18-32.89-1.47-4.55,4.73-7.14,8-8,12.81-3.88,24.37,4.23,32.68,13.27-3.84-9.25-27.05-40.4-24.08-47,6.62-7.13,20.25-6.77,27.83-1.3-9.23-17.39-33.34-43.26,4.81-38.9-8.84-15.88-17.06-32.08-25.31-48.28-1.58-4.89-7.91-11.36-3.51-16.06,5.76-4.84,14.53-4.88,21.48-3-7.67-15.15-15.41-30.26-23.65-45.12-1.9-3.43.25-5.9,3.22-7.5-2.48-.57-5.16-1.55-6.78-3.35-6.77-7.5-13.27-15.24-19.89-22.87a18.66,18.66,0,0,1-15-7.88c-10.08,4.5-22.93,2.56-29.11-7.14-15.38-16.56-31.19-32.72-46.84-49,11.81,19.29,24.45,38.06,37,56.88,4.4,11.79-22.64,12.25-28,5.92-19.22-20.39-36.55-42.7-56.05-62.92q12.1,23.64,26,46.31c3.23,5.29,6.38,10.67,9.88,15.81,3.36,9.8-13.25,10.84-19.7,9.59,4.59,9.74,9.15,19.51,14.15,29,2.73,5-2.94,7.9-7.38,9.13-8.75,6.25-22.47,4.84-30-2.75a395.87,395.87,0,0,1-43.32-77.09c-6-16.62-8.29-24.48,13.31-24.11a8.57,8.57,0,0,1,3.2-2.35c1.17-.52,2.28-1.12,3.47-1.59C244.09,92.38,237,81.19,236.38,68.75c1.76-17,23.91-16.65,34.73-8.25-12.15-20.4,3.13-30.29,22.38-23,11.48,6,19.36,17,28.85,25.61a27.29,27.29,0,0,1,13.71-1.5C362.67,48,372.72,79.49,387.78,95c2.8.52,6.23,1.49,8.15,3.63l4.55,5.1c22.79-14.86,44.15,7.87,55.86,26,18.81,25.28,35.85,51.88,52.75,78.45,11.89,18.9,23.16,38.18,35.23,57q5.14,8.16,10.75,16c3.38,9.61-12.82,10.78-19.18,9.67,14,24.23,29.47,47.57,44.1,71.43,5.16,9.89,22.8,29.91,1.89,32.3-5.49.82-11.19.47-16.28-2.09a22,22,0,0,1-5.42,1.57,29.72,29.72,0,0,1-9.74.06C559.23,409,563,426.3,539.37,424.67c4.74,14-11.57,19.52-22.62,16.24,5.84,17.67-12.28,21.24-25.39,16.5,9.23,15.22,7.21,26.43-12.79,24.83,10.5,16.37,17.37,38-11,34.73,6.95,18.75-16.93,20.12-28.42,14.08-1.29,2.72-5.25,4.2-7.81,4.87a27.87,27.87,0,0,1-12.1.44c5.15,16.07-20.66,18.17-30.13,11.65C398.43,565.68,392.19,577,371.7,574.42Z" style="fill:#1da1f2"/><path d="M549.51,270.36c-2.12-1-4.18-2.73-4.44-5.19-2-7.16-6.69-13.31-10.34-19.73-10.9-18.12-23.61-35.06-35.45-52.56-23.66-35.94-44-73.93-64.44-111.78-17.57-13,13.1-20.36,22.44-12.63C468,79.11,472.52,95,480.76,107.59c10.89,19.79,21.92,39.52,33.61,58.85,16.41,27.36,36.68,52.19,52.7,79.8,3.38,5.95,7.4,11.84,8.47,18.73C572.68,274.59,557.08,273.69,549.51,270.36Z" style="fill:#1da1f2"/><path d="M553.35,218.51c-12.59-3.88-16.93-23.39-24.35-33.57-11.91-21.66-23.1-43.7-34.68-65.53-9.85-3.33-13.27-15.81-16.45-24.56-1-4.66,4.32-7.08,8-8,15.18-4.85,27.21,6.54,32.85,19.62,15,26.9,28.22,54.74,43.53,81.47,4.22,7.09,7.76,14.68,12.54,21.39C578.21,219.71,560,220.39,553.35,218.51Z" style="fill:#1da1f2"/><path d="M563.39,160.76c-8.58-1.58-11.08-11.23-16-17.26-2.77-4.44-6.45-8.31-8.94-12.9-.1-10.71,18.88-10.11,25.85-6.63,4,1.91,5.71,6.57,8.58,9.78,4.19,5.82,8.09,11.84,12,17.83C588.84,161.63,569.51,162.71,563.39,160.76Z" style="fill:#1da1f2"/></svg>