<svg id="social_li" xmlns="http://www.w3.org/2000/svg" viewBox="0 0 659.03 609.88"><path d="M320.11,577.22c-14.87-.83-22.89-15.2-31.57-25.41-8,1.58-17.28.78-23.38-5.07-7.55,2.67-16.84,2.41-23.54-2.26-17.42,5.15-26.66-9.8-36.2-21.38,9.49,15.64-14.31,20-24.91,15.14-5-1.93-8.64-5.86-12.43-9.52-.58,4.61-7,6.43-10.74,7.07-11.53,2.42-20.85-3.81-28.72-11.17,1,17.79-32.43,14.3-38.57-1-7.48-10.66-14.31-21.76-22-32.3-3.57-3.91-.36-7.8,4-9.43-2.56-6.74-21.1-29.42-14.84-34.06,6.8-5.68,17.56-5.07,25.43-2.31C73.13,430.94,62,416.25,56,399.88c1.79-8.28,14-8.29,20.72-7.47,13.53,2.18,22.74,22.29,33.05,31.34C95.7,402.47,82,380.93,69.52,358.7c-2.08-5.64-9.67-12.28-7.23-18.3,4.68-5.61,13.5-5.94,20.22-5-7.63-13.92-25.78-29.57,2.63-30.91-4.28-6.89-8.44-13.86-12.78-20.71-5.46-6.81-5.1-12.16,4.31-14.56-9.79-19-31.71-42.23,7.12-38.68a274.75,274.75,0,0,1-16.17-29.05c-1.16-7.07,9-8.8,14.26-9.14C75.06,180.62,68.6,168.6,64.3,155.72,59.1,144,74,140.4,82.8,141.7c-7.2-16.39-31.07-46,4.19-43.23-2.48-7.4-10.48-17.06-5.25-24.56,9.75-7.42,28.51-6,32.89,7,28.13,8.8,47.48,43.18,66,67.05a42,42,0,0,0-5.7,6.68,45.23,45.23,0,0,0-7.27,22.11,38.69,38.69,0,0,0,.78,11.1,35.27,35.27,0,0,0,4.38,10.87c4.39,7.2,11.92,12.35,19.75,15.22,1.45.53,2.92,1,4.39,1.43.48.2,1,.39,1.46.57a55.37,55.37,0,0,0,14.48,3.31q2.91.24,5.83.24a59.51,59.51,0,0,0,28.36-6.79,40.79,40.79,0,0,0,11.22-8.86q7.17,9.68,14.55,19.22-6.47-10.48-13.15-20.92a35.23,35.23,0,0,0,4.59-7.64,39.2,39.2,0,0,0,2.53-23.56c-1.6-7.57-4.19-15.14-9.54-20.95a43.53,43.53,0,0,0-10.19-8.39,48.68,48.68,0,0,0-12.16-5.23A63.51,63.51,0,0,0,216,134.13c-15.1-24.14-29.44-48.65-41.59-74,.51-5,6.61-6.69,10.77-7.47,10.32-2.27,20.07,2.69,26.28,10.74q24.28,29.31,48.79,58.46c-13.57-25.47-31.44-48.9-44.08-74.64,3.6-10.87,22.71-9.31,30.69-4.14,15.3,17.56,27.38,38.27,42.1,56.54-6.14-13.65-10.79-27.9-15.42-42.11-.9-4.23-4.06-8.92-1.64-13.09,5.15-6.09,14.94-6.08,22.18-4.5,10.35,2.74,14.61,14.6,20.86,22.32,9.79-6,23-4.09,30.11,4.57C336.4,50.67,365,46.14,374.45,56.52c5.19,8.87,9.54,18.25,15.34,26.74,1.77-1.92,4.59-3,7-3.59a27.21,27.21,0,0,1,3.83-.71c-1.45-4-5.36-7.75-4.84-12.13,4.15-7.43,15.43-7.36,22.79-5.72,12.5,2.61,17.61,15.6,23.53,25.45a13.82,13.82,0,0,1,3.49-1.91c-1.81-6.3-14.55-22.18-9.07-26.88,8.64-6.65,23.46-5.81,30.73,2.58,9.28-4.7,23.31-4.21,29.25,5.38a29.29,29.29,0,0,1,10.92.66A15.27,15.27,0,0,1,514,69.71a31.09,31.09,0,0,1,4.91.42l.2,0c3.78-11.63,24-11.22,31.4-3.38,4,4.66,7.6,9.52,11.1,14.52,7.57-.06,16.71,3.17,15.61,12.24,2.55,10.68-7.64,16.08-17,15.36a14.22,14.22,0,0,1-9.94,6.55c3.21,7.69,19.33,21.46,5.75,26.52,4.28,7,13.26,17.75.31,21,3.14,6.49,12.87,15.47,10.63,22.71-5.52,6.41-16,6.2-23.53,4.12,6.76,9.74,14.33,18.89,20.77,28.85,3.88,6.76-7.44,9.83-12.05,10.24,3.61,7.77,21.35,29.57,15.32,36.73-9.29,7.14-24.76,5.47-32-3.87a19.14,19.14,0,0,1-3.9,1.48c-.5.13-1,.25-1.51.34,6.09,9.58,11.49,19.62,17,29.55,9,12.69-6.19,17.54-16.73,16.07,5.18,10.89,37.92,54.95,15.05,58.41-8.43,2.12-18.24.68-24.38-5.86q-8.91-11.91-17.53-24.05l-.35-1.91a87.29,87.29,0,0,0-2.55-9.78,111.45,111.45,0,0,0-3.76-10.57,92.55,92.55,0,0,0-10.85-19.56,77.68,77.68,0,0,0-5.12-6.18,58.76,58.76,0,0,0-6.61-7.21c-2.63-2.4-5.28-4.73-8.1-6.91-6.2-4.77-13.37-7.66-20.84-9.78l-.48-.14c-3.32-1.09-6.69-2-10.08-2.89a135,135,0,0,0-15.65-3.37,70,70,0,0,0-23.23.52,98.3,98.3,0,0,0-11.07,2.87,73,73,0,0,0-9.44,3.65,45.8,45.8,0,0,0-5.24,2.92c0-.05-.05-.09-.07-.14a20.21,20.21,0,0,0-2.18-4l-.35-.43,0-.67c-.06-1.62-.09-3.22-.29-4.83v.16a4.66,4.66,0,0,1,0-.83,1.19,1.19,0,0,0,.05-.53.85.85,0,0,0-.17-.29,1.43,1.43,0,0,0-.71-.48,2.89,2.89,0,0,0-.88-.14,2.82,2.82,0,0,0-.71.09,1.5,1.5,0,0,0-.89.43,3.21,3.21,0,0,0-.39,1.46c-.06.62-.13,1.24-.18,1.86a21.69,21.69,0,0,0-6.07-2.53l.3-.13c.66-.31,1.41-.89,1.42-1.69s-.75-1.37-1.4-1.7a6.86,6.86,0,0,0-2.68-.69,35.1,35.1,0,0,0-6.23.17c-1.31.08-2.61.12-3.93.17l-7,.06A711.23,711.23,0,0,0,285.43,191c13.81,21.18,27.21,42.62,40.61,64.07l-4.28.32c-1.08.09-2.16.15-3.24.23l-.67-.14c-.7-.16-1.38-.34-2.07-.56l.18.06-.51-.2a.4.4,0,0,0,.24-.35c0-.45-.77-.54-1.07-.54h0c-.84-.13-1.76-.33-2.34.43a.33.33,0,0,0,.07.43,6,6,0,0,0,1.17,1l.71.34c-.79.12-1.58.27-2.36.45-1.5.37-3.63,1.19-4.16,2.83a2.72,2.72,0,0,0,1.4,3,10.43,10.43,0,0,0,5.06,1.59c.33,0,.65.05,1,.06a14.69,14.69,0,0,0-.28,1.88c-.25,2.89-.45,5.76-.49,8.65-.11,7.59.35,15.16.67,22.73q.3,6.63.68,13.25.54,9.3,1.07,18.58c.34,5.85.47,11.72.7,17.58.17,4.33.35,8.64.39,13q.08,9.71.18,19.41c0,2.27-.11,4.55-.16,6.81l-.27,10.91c-.05,2-.2,4-.34,5.92-.19,3-.37,6.05-.59,9.07-.52,4.47-1,8.95-1.63,13.4s-1.26,9-1.94,13.56c-.73,4.93-1.48,9.85-2.42,14.74-.5,2.59-1,5.18-1.47,7.77a10.23,10.23,0,0,0-.18,4,6,6,0,0,0,.26.92c.17.49.22,1.23.66,1.57a4.19,4.19,0,0,0,1.41,1.46,8.51,8.51,0,0,0,2.29,1,15,15,0,0,0,4.27.55h.38a23,23,0,0,0,6.29-1,9.33,9.33,0,0,0,.56,1.64c1.14,2.39,2.95,3.66,5.2,5a18.89,18.89,0,0,0,7.65,2.07c1.59.11,3.15.19,4.71.19a38.72,38.72,0,0,0,5.34-.35c4.94-.7,11.13-2.41,15.41-5.87,9.08,12.16,18.07,24.38,26.56,36.94C394.8,517.2,402,525,402.9,534.39c-1.2,7-10.36,8.77-16.33,8.66-10.07.65-17.71-5.63-23.69-13-.33,6.78-8.8,8.73-14.4,9.17,5.72,9.89,6.2,20.58-7.53,22.23,3.36,11.31-7.94,16-17.46,16A26.44,26.44,0,0,1,320.11,577.22ZM214.78,457.46c5,.76,10,1.58,15.05,2.52,1.94.52,3.84,1.09,5.73,1.75l1.64.74a18.84,18.84,0,0,0,4.07,2,20.4,20.4,0,0,0,5.87.81,28.28,28.28,0,0,0,11.63-2.62A16.48,16.48,0,0,0,264,459l.13,0a31.22,31.22,0,0,0,7.48-2.45c3.21-1.56,6.94-4,7.6-7.8.45-2.59-.62-4.86-1.51-7.21-.54-1.42-1.06-2.85-1.55-4.29A157.25,157.25,0,0,1,271,411c-2.81-22.69-5.28-45.42-7.82-68.14-1.08-9.7-2.12-19.4-3.06-29.11-.65-6.86-1.33-13.7-2-20.55q-.54-5.49-.93-11c-.3-4.15-.48-8.3-.58-12.46,0-1.32,0-2.64,0-4a22,22,0,0,0,2.74-.39c1.17-.24,3.31-1.19,2.84-2.76s-2.94-2.07-4.36-2.25l-1-.11c0-.42.07-.84.11-1.26l.21-.91a1.84,1.84,0,0,0,.71-.47c.54-.57.26-1-.26-1.32-1-1.15-3.25-1.14-4.51-.52A3.86,3.86,0,0,0,251.2,258c-.18.49-.34,1-.48,1.49l-1.42-.21-1-.14a2.84,2.84,0,0,0-.69-3.56A12.22,12.22,0,0,0,245.5,254a12.43,12.43,0,0,0-2.42-.92,26.3,26.3,0,0,0-5.9-.88l-3.92-.09c-1.81-.06-3.63-.13-5.44-.13h-.37q-7,0-13.92.16-6.5.11-13,.46l-6.7.37a52.77,52.77,0,0,0-10.26,1.22c-2.29.58-5,1.55-6.4,3.62a3.78,3.78,0,0,0,.72,5,14.06,14.06,0,0,0,4.16,2.57,16.31,16.31,0,0,0,1.79.59,35.4,35.4,0,0,0-.59,4.22,191.56,191.56,0,0,0-.52,21.43c.33,10.27.54,20.54,1.06,30.8q.85,17,1.72,34.07.51,10,1,20c.28,5.4.25,10.83.36,16.23,0,2.31.21,4.64.15,6.94q-.12,4.38-.22,8.74c-.06,2.33,0,4.68-.22,7-.23,3-.45,6-.69,9.05-.47,3.77-.86,7.6-1.7,11.32-.75,3.29-1.53,6.57-2.39,9.84a5.9,5.9,0,0,0-1.88,3.16,5.49,5.49,0,0,0,.38,3.32,7,7,0,0,0,3.29,3,18.37,18.37,0,0,0,7.66,1.63h.65a31.6,31.6,0,0,0,8.74-1.34q.57-.16,1.14-.36C206.08,456.05,210.42,456.81,214.78,457.46Z" style="fill:#0072b1"/><path d="M402.77,299.65c.84-.4,1.69-.78,2.54-1.15l1.33-.45,1.69-.39,1.4-.21.45,0h.95c1.41.13,2.8.29,4.2.47s3.07.55,4.59.87c1.25.32,2.48.68,3.7,1.07l1.17.44A148.64,148.64,0,0,0,401,302.21c-1.31.21-2.62.42-3.93.65C398.92,301.75,400.84,300.68,402.77,299.65Z" style="fill:#0072b1"/><path d="M514.37,508.6c-10-7.76-15.69-20.31-24.2-29.73l-.57-.71a24.71,24.71,0,0,0,3.95-1.31,14,14,0,0,0,5.69-4,8.93,8.93,0,0,0,1.54-2.32c.22-.66.41-1.31.6-2a10.61,10.61,0,0,0,.24-1.48c.2-1.22.4-2.45.69-3.65.58-2.42,1.15-4.85,1.72-7.27s1.21-4.91,1.61-7.4c.48-3,.84-6,1.13-9.07l-.12,1.24q1.41-14.44,2-28.95c.36-8.83-.06-17.66-.45-26.49q-.23-5.28-.52-10.55c0-.73,0-1.46-.05-2.19l-.12-3.34a16.59,16.59,0,0,0-.44-4.22s0-.09-.05-.13c-.32-4.08-.7-8.15-1.18-12.21-.28-2.44-.49-4.9-.93-7.32-.13-.71-.27-1.43-.4-2.14,11.29,17,22.48,34.06,32.75,51.67,1.9,6,10.26,15.1,3.18,20-8.36,4.95-20.6,4.32-28.66-.93,12.59,19.36,25.26,38.69,36.41,58.93,6.32,12.4,17.61,30.59-5.25,31.06-2.7,5.37-8.62,7.25-14.8,7.25A37.39,37.39,0,0,1,514.37,508.6Z" style="fill:#0072b1"/><path d="M429.89,391.24c-13.27-19.49-26.15-39.25-39.11-59,.53-.46,1.06-.9,1.61-1.34,1.1-.8,2.22-1.54,3.38-2.24s2-1.06,3.09-1.55,1.89-.75,2.85-1.08c.8-.24,1.6-.46,2.41-.67.61-.12,1.22-.22,1.84-.33l1.31-.11h1.19l1.39.11,1.4.23.52.15c.66.24,1.31.51,2,.8,1.24.64,2.44,1.34,3.62,2.1a62,62,0,0,1,7.32,6.32,73.15,73.15,0,0,1,10,12.88,99,99,0,0,1,6.89,15.11c1.54,4.17,3,8.43,4.15,12.73,1.07,4.08,2.16,8.16,3.23,12.24.5,2.51,1,5,1.53,7.54.4,2,.9,4,1.17,6,.6,4.35,1.33,8.69,1.77,13-.32,1.55-.65,3.08-1,4.62s-.77,3.34-1.19,5C444.14,413,437.1,402,429.89,391.24Z" style="fill:#0072b1"/><path d="M462.7,537.55c-5.82-5.37-9.95-12.37-15-18.45-5.7,5.24-14.54,5.41-21.71,3.8-7.78-1.5-11.18-9.46-16.23-14.71-12.32-14-25-27.62-36.89-41.95a8.21,8.21,0,0,0,2.88-2.89,2.72,2.72,0,0,0-.51-3.59c-1.68-1.41-4.41-1.35-6.45-1.09l-.07,0q.07-3.26.1-6.51c.1-10.7.2-21.39.45-32.09.25-11.07.47-22.15.75-33.22q.18-6.69.55-13.36c.46-2.32,1-4.63,1.58-6.93a94.21,94.21,0,0,1,9.34-22.85c.23-.38.46-.75.7-1.12q2.73,4,5.49,8.06c19.52,30.53,39.83,60.88,58.82,92-.64,2.8-1.26,5.61-1.89,8.41s-1.21,5.33-1.76,8c-.68,3.27-1.63,6.62-.53,9.9a4.42,4.42,0,0,0,1.25,2.31l1.15.95a11.52,11.52,0,0,0,3.19,1.4,19.33,19.33,0,0,0,2.74.58c-.15.73-.29,1.47-.44,2.2-.32,1.64-.56,3.29-.91,4.92-.47,2.19,1.57,3.85,3.29,4.66a16.52,16.52,0,0,0,6.95,1.29h.09a24.66,24.66,0,0,0,11.26-2.58c7.22,13.25,14.06,26.69,20.35,40.4,6.19,11.25-4.15,16.85-14.61,16.85C471.3,541.91,465.93,540.45,462.7,537.55Z" style="fill:#0072b1"/><path d="M318.28,264.06c0,.05,0,.09,0,.14,0-.16,0-.31.05-.46a11.57,11.57,0,0,0,1.16-.29,10.56,10.56,0,0,0-1.24,1.52C318.25,264.67,318.27,264.37,318.28,264.06Z" style="fill:#0072b1"/><path d="M203.75,414c-.81-5-1.47-10-2.12-14.95q-1.29-9.76-2.55-19.55c-1.41-10.83-2.73-21.66-4.08-32.49-.6-4.81-1.12-9.63-1.67-14.44-.21-1.77-.43-3.54-.64-5.31.53,2.82,1.07,5.63,1.6,8.45,1.32,7.65,2.73,15.29,3.93,23,1.45,9.23,2.85,18.45,4.13,27.7,1.44,10.35,2.46,20.8,3.19,31.22.25,3.62.49,7.23.72,10.85C205.33,423.67,204.53,418.86,203.75,414Z" style="fill:#0072b1"/><path d="M236.19,376.88l0,.18Z" style="fill:#0072b1"/><path d="M236.07,376.3h0a.08.08,0,0,0,0,0Z" style="fill:#0072b1"/><path d="M216.85,285.37a37.73,37.73,0,0,1-.6-6.19L217,279l1.26-.28v.17c.18,4.11.47,8.21.82,12.31.24,2.68.49,5.37.74,8.05C218.8,294.63,217.79,290,216.85,285.37Z" style="fill:#0072b1"/><path d="M248.37,268.48c.1.41.19.82.28,1.23-.31-1.4-.6-2.8-1-4.18l-.1-.4,2.09.22c-.26,2.22-.43,4.44-.55,6.68C248.89,270.84,248.64,269.66,248.37,268.48Z" style="fill:#0072b1"/><path d="M188.24,266.77h0c1.47.1,2.92.16,4.39.18h.59c1.06,0,2.12,0,3.18-.06l-.26.07a20.59,20.59,0,0,0-7.24,3.37c-.28.22-.55.45-.82.68C188.1,269.59,188.13,268.18,188.24,266.77Z" style="fill:#0072b1"/><path d="M205,442.48l.36.15Z" style="fill:#0072b1"/><path d="M257.15,256.09a.66.66,0,0,0,.2.06l.13.08,0,0A2.92,2.92,0,0,0,257.15,256.09Z" style="fill:#0072b1"/><path d="M256.21,255.84l.2,0,.12,0Z" style="fill:#0072b1"/><path d="M224.31,169.28h0l0,0Z" style="fill:#0072b1"/><path d="M144.48,96.61c-3.15-6.09-15-17.88-12.3-24.27,7.81-8.1,23.7-7,31.41.85,15.83,20.06,30.77,40.79,45.54,61.67a55.48,55.48,0,0,0-11.7,2.9,48.26,48.26,0,0,0-14.14,7.75c-.77.65-1.52,1.32-2.25,2Q163.31,121.68,144.48,96.61Z" style="fill:#0072b1"/><path d="M461.87,581c-15.44-12.71-25.54-31.25-37.25-47.32-12-18.58-24.93-36.65-35.4-56.18-5.46-9.55-9.5-20.3-16.21-28.79-2.58-9.43,11.48-10.93,18.06-10.49,11-.45,15.56,9.62,19.58,18.1,6.33,12.51,12.87,25,20.49,36.73,17.29-10.83,32.39,1.37,43.29,14.73,12.91,14.1,26.09,28,39.82,41.28,27.4,9.39-12.19,27.32-27,8.13,1.93,6.65,6.77,15.67,1.54,21.81C481.52,584.87,470,585,461.87,581Z" style="fill:#0072b1"/><path d="M514.77,566.68c-12.91-4.11-29.62-36.64-40.26-48.13-5-1.17-7.56-5.4-9-10-2.18-13.16,22.74-12.68,29.49-6.3,15.21,17.3,27.38,37.1,42,55C540.41,567.93,521.65,568.62,514.77,566.68Z" style="fill:#0072b1"/><path d="M567.15,557.51c-9.67-.65-14.27-9.84-20-16.3-10.73-12.75-21.14-25.75-31.4-38.87-7-9.13-15-18-22.1-26.76-.72-9.85,14.6-10.15,21.51-8.82-5.18-9.33-9.8-18.94-14.63-28.44a7.7,7.7,0,0,0,1.6-.33c1.38-.43,2.76-1.08,2.94-2.67.08-.69.08-1.41.12-2.11.06-1.13.13-2.25.16-3.38l.21-7.54c0-.35,0-.69,0-1a1.42,1.42,0,0,0,.48-.77c.26-1.83.55-3.67.66-5.52.06-1,.12-2.09.17-3.14,6.08-.06,12.21,2,16.31,6.13-5-9-10.37-17.85-15.66-26.72l.06-3c.06-3.31.16-6.63.13-9.94,0-1.84,0-3.7-.07-5.54,0-1-.07-2-.11-3a28.58,28.58,0,0,1,21.71,2.06c-9.16-18.06-19.23-35.63-29.46-53.1-1.91-4-5.27-7.51-5.92-11.93,2.72-9.43,17.49-8.85,25.13-6.32-6.2-8.5-12.48-16.93-18.64-25.46-2.52-4.34-10.22-10.27-5.23-15.22,8.06-6.22,21.39-5.74,29.17.79-14.48-22.27-31.12-43.65-42.59-67.63-1.64-5.62,6.68-8,10.57-8.75,18.83-4.54,30.67,13.82,43.07,24.65-8.24-12.2-15.74-24.87-23.72-37.24-2.21-4.84-9.12-10-6.61-15.62,6.53-7.13,19.74-6.85,27.66-2.16,3.92,3.11,7.25,6.85,11,10.18-4.76-7.92-32.15-43.15-28-49.51,7.52-8,21.53-6.29,30.3-1.17-3.06-4.63-7.71-8.34-10.68-12.79.18-10.8,17.35-10,24.85-7.63,12.32,6.47,20,21.9,28.18,32.93,13.76,19.14,3.81,31.56-18.32,28.08,7.4,13.78,33.22,35.43,27.37,51.28-6.14,8-18.65,8-27.56,5.5,10.8,18,27.6,33.86,33.31,54.27-.43,5.67-7,8.14-11.88,8.77-13.09,2.6-23.81-5.78-33.56-13.29,10.84,15.65,23.35,30.18,33.17,46.51,10.81,15.57-9,21.5-21.34,18.12,4.23,8.24,24.78,28.73,17.47,37-8.29,6.79-21.3,6-30.1.5,7.61,14.6,15.24,29.18,22.16,44.11,8.57,16.45,4.33,26.86-15.3,25.68,8.14,16.71,19.41,32.55,24,50.66.55,12.59-18,12.94-26.72,9.83,6.5,13.59,12.43,27.47,19.57,40.75,10.81,17.16,9.65,24.08-8.85,24.08C570.31,557.63,568.78,557.59,567.15,557.51Z" style="fill:#0072b1"/></svg>