<svg id="logo_mensh" xmlns="http://www.w3.org/2000/svg" viewBox="0 0 1865.78 930.63"><g id="Vector_layer" data-name="Vector layer"><path d="M1367,833.16a92.88,92.88,0,0,0,2.81-9,63.62,63.62,0,0,1-4.86,7.21A7.75,7.75,0,0,1,1367,833.16Zm49.36-67.58c2.46.2,6.93,1.22,6.39,4.45-9.43,30.43-22.56,59.65-31.84,90.12,1.25,5.51-8.06,5.38-11.61,4.49-1.85-.42-4.64-1.75-4.08-4.07.19-.84.39-1.68.6-2.51-3.35,3.13-12,3.65-14.46-.76l-.49-.12c-4.57-.78-5.9-6.17-6.85-10-4.44,5.84-10.93,10.17-18.51,8-5.33-.38-6.16-4.62-4.72-9-4.5,5.66-17.62,7.22-21.23.38-.22-4.23.94-8.26,2.33-12.22-5.89,9.51-17.2,23.13-29,13.83-3.61-5.91,3.26-15,4.23-21.53-4.52,6.31-9.1,13.43-17.1,15.38-7.22,2.58-15-.66-12.34-9.34-4.27,4.91-12.82,7.66-17.91,2.53-3.64-6.59,3.12-14.48,4.21-21.34-3.7,5.7-13.7,8.72-18.21,2.59-.36-10.34,7.68-19.88,10.36-29.89,3.24-8.29,6.31-16.65,9-25.15,1.13-2.56.53-6.41,3.59-7.62,3.87-1.73,11.71-2.13,13.23,2.74a10.88,10.88,0,0,0,1.11,5.39c19.81-3.19,8.73,15.94,5.65,25.85,5.78-7.49,8-22.89,19.91-21.64,2.25.19,6.22,1,6.49,3.83-.22,13.18-8.06,25.33-12,37.77,7.69-9.64,13.32-26.61,23.91-32.42,3.58-.78,10.22-.92,11.32,3.44-2.18,14.1-9.13,27-13.15,40.66,6.58-9.18,10.31-21,18.9-28.42,24.77-10.79,10.69,19.27,7.43,30.67,3.19-4.64,6.29-11.55,10.55-16.07h0c-.64-2.51.17-6.16,2.11-10.6,3.64-11.12,7.33-22.23,11.27-33.25-15.17,2.48-10.14-8.24-7-17.44-4.71,3.08-17.16,2-15.43-5.67,2.75-11.46,5-23,8.13-34.42-18.28,3.65-12.11-9-9.84-20.3-4.36,3.75-13.44,5.71-17.14.28-1.64-4.77.82-9.6,1.55-14.34-5.45,2.77-17.36,1.37-15.79-6.85-10.23,2-13.53-2.72-10-12.21-3.87,2.24-11.29,2.57-13.82-1.72-2-4.47.62-9.36,1.07-14-4.93,1-11.88-1.3-10.3-7.51-12.24,2.16-13.56-3.34-10.13-13.71-6.68,2.24-17.58.84-13.56-8.65a41.83,41.83,0,0,1,2.44-8.7,6.46,6.46,0,0,1-2.72-2.38c-.35-9.78,5.74-19.29,8-28.81-2.06-1.58-.27-4,.57-5.77,2.55-5.36,10.29-5.5,15-2.82a12.6,12.6,0,0,1,7-1.16,12.43,12.43,0,0,1,3.45.73c5.76-3.52,16-1.58,14.5,6.78,3.29-6.08,14.92-6.9,18.67-1,1.67,5.84.67,12.14.33,18.12-1.72,5-9.91,4.54-13.82,2.4-3.41,6.24-6.71,14.81-12.59,18.38,1.75,1.9,2.26,4.91,1.31,8.62,7-1.52,13.13,2.36,10.45,10,3.62-3.11,10.19-3.09,13.91-.17,4.4,3.9.11,10.62-.21,15.52,8.86-1.13,11.91,4.57,9.32,12.44,4.74-2.88,17.12-2.76,15.64,5.14,1.76-7.18,19.9-8,18.44.83,3.77-2.44,12.48-2.93,14.12,2.19,1,15.42-6.43,30.17-9.31,45.17,4.68-6.74,8.66-24.81,16.73-25.82,17.41-1.79,9.07,10.83,6.15,20.55,20.7-3.84,5.52,21,3.31,30.76,3.58-2.61,14-3.19,14.25,2.68-2.45,10.71-7.49,20.57-11,30.93,5.16-8.6,9.33-22.7,22-20.31,2,.33,6,1.55,5.2,4.31a199.26,199.26,0,0,1-9.84,29.52C1406.47,768.36,1410.83,764.58,1416.39,765.58Z" style="fill:#f6df32"/><path d="M1506.21,676.33a4.09,4.09,0,0,1-.19-1.17c-.27.86-.56,1.76-.84,2.7A9.52,9.52,0,0,1,1506.21,676.33Zm218,10.83c1.86,2.87-2.89,4.6-4.9,4.9-11.16,5.7-20.09,21.9-34.68,16.43-10.06-3.67-.29-15.32,1-22.13-6.43,6.34-14.32,13.14-24,10.16-3.21-.32-6.64-2.61-4.72-6.21-4.75,4.06-9.32,8.74-15.21,11.1a23.36,23.36,0,0,1-2.64,1,3.71,3.71,0,0,1,1.53,3c-.87,3-1.73,6-2.85,8.88,18.76-4.28,10.11,13.72,6.23,23.34a10.36,10.36,0,0,1,10.77-5.36c2.14.18,7.24,1.27,6.39,4.46-3,12.43-9.7,23.6-14.64,35.34,3.2-3.34,14.86-3.86,14.9,2.11-1.19,3.59-2.27,7.21-3.59,10.75-7.43,18.48-16.21,36.4-23.48,55,4.78-7.61,18-14.62,24.32-5.11,2.62,6.34.21,13.8,2.2,20.43,0,5.28-8.64,5-12.22,3.75-4.73-1.31-3.53-7.41-4.23-11.23-7.37,7.38-14,20.36-26.18,18.14-2.57-.74-7.5-1.35-7.06-4.93,1.8-8.38,5.66-16.15,8.64-24.16-1.73,2.23-3.57,4.34-5.36,6.51-3.51,3.69-12.14,3.91-15-.59-1.26-3.24.94-6.31,2.48-9,3.61-7.5,7-15.08,10.62-22.6-8.8.73-10.87-5-6.72-12q4.14-11.61,8.36-23.2a14.08,14.08,0,0,1-12.34,2.59c-10.13-.91,3.31-20.41,4.37-26.37-22.25,2.28-5.53-17.56-2-27.8,5.27-8.75,7.59-26.71,21.56-21a4.82,4.82,0,0,1,.62-.56c-3.26-1.4-4.77-4.6-2-10.47-5.81,4.82-12.77,9-20.62,7.94-2.85,0-8.43-.64-8-4.51,1.82-7.26,7.83-12.54,11.7-18.77-7,4.95-13.84,11-22.25,13.39-11.19,1.77-21.81-.88-10.64-12.61-4.82,2.28-10.26,3.58-14.85.36-5.53,4.16-11.34,8.7-18.64,8.53-5.17.59-12.07-2-7.12-7.78-3.43,1.08-7.22,2-10.73,1.25-.64,1.76-1.45,3.53-1.87,5-4.5,10.76-9.06,21.51-13.91,32.12,17.81-.39,1.09,21.71-1.54,29.92,21.36-1.51,1.31,23.76-1.69,32.95,17.35-1.11.07,23.86-2.4,31.65,28.91-12.72,8.81,23.53,6,35.94-2,8-6.3,16-6.2,24.22-.08,5.28-8.56,5-12.22,3.76-9-3.44,2.69-23.71,3.62-30.84-4.7,6.37-11.18,14.42-20,12.71-9.64-1-3.2-12-.67-17.11-3.77,1.17-12.13,1.39-12.18-3.84,4.59-10.25,10-20.11,15-30.16-3.45.62-11.12.56-10.85-4.22,3.94-11.7,10.45-22.38,15.49-33.63-3,.28-9.82-.11-9.36-4.41,3.36-10.39,9.1-19.87,13.38-29.9-3.56,3-15,4.24-15.31-2.06,2.76-9.14,7.09-17.7,10.49-26.61-5.43,2.75-16.17,1.17-12.74-6.89,4.29-10.61,9.58-20.9,14.06-31.47-5.68,4-18.39,3-14.59-6.43,4.8-12.24,10.54-24.2,15.59-36.38-9.27,1.06-13.8-5.49-8.81-13.54,3.5-9.59,7.19-19.13,10.72-28.72-8.4,1.8-14.66-.58-10.13-10q5.18-13.11,9.86-26.42c-4.5,2-12.76,1.91-14.15-3.9,2.35-9.07,7.25-17.54,10-26.58-10.12,1.22-14.22-3.71-11.7-13.47,1.45-8.55,1.36-18,3.7-26.09,2.14-1.94,5.37-2.2,8.14-2,12.07.16,3.67,15.62,4.27,22.93a12.88,12.88,0,0,1,9.51-1.81c9,.74,4.53,11.43,3,17,19.38-1,4.81,24.81,2.71,34.7h0c3.36,0,10.24.12,10.12,4.71-1.41,9.54-5,18.51-8.3,27.51,3.7-2.52,14.1-3.25,14.37,2.68-6.25,15.69-12.55,31.35-19.16,46.89,3.48-3.25,14.26-3.79,14.74,2.22-2,11.42-8,21.69-12.16,32.45,9.72,0,10.51,3,9.14,8.29a25.29,25.29,0,0,1,6-6.7c4.32-5.54,11.48-9.71,18.21-5.52,4.45-4.19,13.61-6.78,17.66-.91,8.18-4.47,19.18-17.3,28.32-8.43,3.45-3.62,20.46-4.21,15.16,3.6,4.41-4,12.4-6.06,17-1.33,2.41,3.31-2.21,6.32-4.18,8.45-3.07,3.67-6.15,7.32-9.16,11,9.86-6.15,21.21-19.94,32.35-26,1.62-4.59,3.18-9.19,4.74-13.79-4.38,7-19.07,10.38-22.54,1.33,2.08-7.63,5.84-14.86,8.62-22.31-4.1,4-14.4,6.23-17.07-.14.83-16.39,10.69-31.59,15.86-47.09-8.27-3.2,3.89-19.57,5-25.69,5.38-13,10.89-25.88,16.43-38.78-5,7.2-17.88,13.44-22.84,3.18,2.77-10.54,10.11-19.82,14.5-29.89-21.36,5.62-12.19-10-6.74-21.13,4.91-9,8-19.46,13.82-27.81,5.56-4.94,22,0,11.81,7.21-.22.54-.45,1.07-.7,1.6l-1.11,2.33c3.9-2.21,14-3.2,14.41,2.83a98.38,98.38,0,0,1-4.12,11.54c3.65-3.32,13.2-3.89,15,1.46-2.59,17.88-13,33.75-19,50.63,2,.41,5.35,1.68,4.69,4.22q-12.54,28-24.46,56.24c4.41-7.76,8.58-19.45,19.74-17,1.87.31,6.07,1.58,5.2,4.3-5.75,19.2-14.44,37.34-22,55.84,3.69-4.89,10.26-7.08,15.94-4.33,6.18,5.14-.67,16.5-1.94,23.1-2.41,7.44-4.89,14.86-7.5,22.23a2.73,2.73,0,0,1-.35,2.77c-.58,1.15-1.2,2.27-1.85,3.38-.32.89-.64,1.77-1,2.66a5,5,0,0,1-2,2c-5.12,7.66-11.26,14.71-16.42,22.35,9.83-6.78,23.54-29.16,35.33-26.63,5.94.81,6.07,4.18,3.27,8.69-4.87,8.11-10.61,15.7-15.63,23.73,10.58-9.48,20.09-20.15,31-29.18,9.55-5.91,20.65.7,11.29,10.84,4.28-4.4,12-4.55,17-1.3,6.2,3.14-5.09,22.54-6.18,28.43C1705,687.18,1716.51,680.49,1724.24,687.16Z" style="fill:#f6df32"/><path d="M1765.45,819.54l4.3-6.17a4,4,0,0,1-2.12,1.2A37.69,37.69,0,0,1,1765.45,819.54Zm40.33-16.46a86.8,86.8,0,0,0-11-3.31,3.93,3.93,0,0,1,.11.92c-2,3.89-.85,9.58-6.75,9.92q-7.39,10.78-14.93,21.46C1784.19,822.78,1793.87,811.12,1805.78,803.08Zm-.15,67.08.12-.07c-2.65-6.54.13-16,7.48-28.65-9.88,7.74-17.77,19.45-29.79,23.78-27.13,4.16-5.12-16.5.67-27-9.94,7.67-19.63,21.2-33.53,19.33-.35-.08-.69-.17-1-.26.27,4.23,2.32,7.7,7.16,9.79C1772,872.5,1790,875.3,1805.63,870.16Zm19.86-53.86a31.83,31.83,0,0,0-7.06-6.71c-3.09,8.14-12.78,20.1-15.81,25.36C1810.16,829.45,1816.47,819.21,1825.49,816.3Zm-8.33-18.53c22.94,8.28,35.67,27.09,23.53,50.44a46.08,46.08,0,0,1-17.47,23.09,13.53,13.53,0,0,0,7.18,1.93c11.63-.64,19.69,7.36,3.51,8.22-9.63-.42-16.72-1.86-21.5-4.43a57.14,57.14,0,0,1-25.64,3.45c-16.86-1.86-47.81-1.38-52.74-21.64-.66-14.15,9.65-26.54,14.93-38.94,4-5.84,5.29-15.5,12.49-18,3.5-.86,11.32-.83,11.21,4.08-1.05,1.9-1.17,4.48-2.15,6.35l7.38-10.6C1769.29,799,1776.84,781.32,1817.16,797.77Z" style="fill:#f6df32"/><path d="M1090,739.84c2.1-8.18,4.26-16.34,6.4-24.5-3,5.1-5.07,12.3-10.43,15.25a15.46,15.46,0,0,1-4.65.78,29,29,0,0,1-.86,10.23A15.15,15.15,0,0,1,1090,739.84Zm27.82,77.51c-.84-13.69,5.38-37.47,5.63-45.5-2.11,5.87-7.17,11.14-13.45,11.37-1.94,19.83-5.55,39.58-7.38,59.39C1107.69,835.12,1110.77,822.72,1117.8,817.35Zm22.6-74.69c2.35,16.64-2.67,33.14-4.56,49.62-1.07,8.6-2.78,17.33-2.36,26,4.36,8.2-1.47,29.32-1.48,37.22-.73,8.56-2.9,17.19-2.84,25.72.11,5.27-8.72,5-12.23,3.76-5.13-1.37-3.07-7.34-2.74-11.17,1.23-10,2.54-19.91,3.72-29.88-5.55,11.18-19,37.81-32.79,21.56,0-12.17,2.53-24.53,3.6-36.73-4,12.49-6.3,32.07-24.25,23.66-4.1-5,2.51-25.18,2.7-32.73-4,3-9.92,2.73-14.4,1-5.66-3.6.69-18.37.74-24.48-2.27,8-11.27,10.87-18.68,8.46-8.79-1.27,4.41-41.54,4.69-49.7-3.37,8.57-13.42,18.71-22.33,10.78-3.87-6.67,4.16-30.72,4.83-40-5.54,10-8.82,27.77-23.79,24.42-13.73-.68-2.4-21.26-1.82-29.3-3.45,3.5-8.55,5.63-13.48,4.7-13.24-.58,2.54-29.85,3.37-37.79-2.68,7.1-11,10.56-18.09,8.09-7.71-2.15,2.58-21.35,3.2-27.28-2.44,5.53-8.81,9-14.13,7.76-1.91,6.37-3.87,12.29-4.13,15,15.61.05.19,27.83-.59,36.5,20.75-5.57,9.46,19.75,6.87,30,3.79-2,13.36-2.6,13.67,3.12-.82,3.7-1.54,7.4-2.61,11-5.08,16-11.48,31.58-17.35,47.31,4-1.78,13.53-2.82,14,3.13a225.38,225.38,0,0,1-9.3,31.13c26.25-12.56,13,26.35,10.57,38.76,3.9-1.6,9.57-1.58,12.5,1.69,1.18,5.08-8.34,7.79-11.85,10.21a16.48,16.48,0,0,1-14.14.13c-7.2-3.79-.57-13.62-.33-19.76-7.11,10.06-10.88,30.31-26.47,28.35-5.37-.66-6-3.72-4.24-8.32,3.08-9.18,6.49-18.27,9.71-27.41-3.46,3.43-9.15,3.8-13.46,1.85-5.53-3.59-.15-11.83,1.09-16.71-12.95,1.21-9.59-9.42-6.14-17.34,5.12-15.24,10.46-30.41,15.57-45.65-3.13,4.3-13.6,4.72-15.52-.73,1.76-14.14,8.5-27.37,12.31-41.09-2.69-.14-7.64-.94-7.22-4.51,1.38-6.46,3.34-12.78,5.15-19.12,6.54-22.76,13.32-45.46,18.95-68.46a11.1,11.1,0,0,1-5.6.11c-2.13-.36-5.74-1.5-5.2-4.3,1.78-9.32,5.67-18.09,8.43-27.15a12.65,12.65,0,0,1-12.67,5c-1.85-.31-6.08-1.59-5.2-4.3,2.53-8.59,6.8-16.52,10.28-24.74-12.32-.39-8.32-7.87-5.76-16.08,5-15.09,9.89-30.21,14.54-45.4-2.25-2.59,3.94-16.6,7.46-17.16,3.51-1.25,12.35-1.5,12.22,3.75-1.48,5.46-3.21,10.87-4.89,16.28,1.73-3.08,5.88-3.46,9.05-3.27,12.24.4,3,14.17,1.07,20.6,3-.17,9.08.32,8.79,4.46a157.62,157.62,0,0,1-5.3,19.84c14.75-4,13.4,9.82,10.77,19.68,2.64-5.46,5.62-13.09,12.92-12.29,2.7.09,6.38.51,7.66,3.25,3.49,10-3.47,20.45-5.28,30.34,2.79-6.64,10.28-10.26,17-7,6.48,5.69-1.09,19.92-2.34,27.34,3-4.14,13.56-4.5,15.32.89.13,16-7.26,31.25-10.51,46.81,3.83-6.16,4.74-15.75,12.46-18.24,3.87-1.53,11.61-2.12,13.09,2.81,1.2,12.55-2.62,24.79-4.68,37.07,3.65-7,5.53-19.16,15.54-18.63,2.63.11,6.49.5,7.66,3.25,3,13.53-3.09,27.21-4.82,40.64,3.83-7.5,4.82-18.33,12.46-22.92a22.85,22.85,0,0,1,3.82-.77c-.31-3.5,1.94-6.91,2.77-10.27,3.34-11.29,6.81-22.55,10.17-33.84-3.7,1.62-12.79,2.06-13-3.45,2.39-11.37,7-22.19,10.29-33.33-22.6,6.27-11.37-18.45-9.09-30.29,4.67-19.86,11.18-40,14.06-60.09,1.55-4.9,9.35-4.43,13.24-2.74,6.61,2.51-6.19,36.62-6.88,44.06,4.64-9,5.89-26,13.92-31.55,20.79-5.43,8.87,16.12,7,26.74,15,.37-2.79,44.81-3.72,54.5,2.57-5.3,14.06-6.09,16.16-.27-.14,20.7-8.91,40.68-13,60.92,3.8-3.59,10.89-3.42,15.41-1,4,5.95-4.34,27.19-5.2,35.37C1129.39,738.68,1138.24,737,1140.4,742.66Z" style="fill:#f6df32"/><path d="M843.1,879.66c12.57,6.19-9.65,10.18-13.51,4.11-4.58-5.39-2.22-13.33-2.27-19.8-5.8,11.22-10,31.56-26.66,27.6-7-1.14-3.38-9.59-2.7-14.31-3.09,6.57-7.67,15.29-16.2,14-2.27-.27-5.45-.82-6.4-3.2-1.67-7.49,2.24-14.82,3.29-22.2C775.39,874,763,882.32,756.07,874c-2.1-6.59,1.27-13.14,2.19-19.67-5.7,11-11.88,27.2-27.29,23.38-10-3.23-1.18-19.76-.77-27.23-4.15,9.62-14.05,29-25.94,17.32-2.33-9,3.5-18.32,4.61-27.37-3.4,6.85-7.86,16.65-17,15.36-2.27-.19-6.19-1-6.5-3.83-.92-9.74,4.16-19.12,5.8-28.66-3.18,7-8.15,16.56-17.21,15.37-10.94-.22-6.23-13.12-4.46-19.7-14,3.46-14.2-2.62-10.66-14.07,3-10.33,6.08-20.63,9.16-30.92-2.19,4.77-6.4,8.59-12,7.56-2.34-.19-7-1.22-6.39-4.45,5.72-24.17,14.65-47.52,20.91-71.56-5.27,9-10.76,23.34-23.17,22.68-2.41-.26-6.07-1-6.49-3.82-.13-14.88,7.63-28.91,10.89-43.34-2.88,5.42-14.23,6.68-16.63.61,2.72-16,9.45-31.21,13.83-46.86-2.84,7.78-16.92,9.95-19,.72,3.63-22,10.26-43.74,13-66a10.45,10.45,0,0,1-7.52,1.79c-8.08.09-7.56-7.23-4.3-12.52-3.74,1.59-12.69,2-12.88-3.5a82.17,82.17,0,0,1,3.82-9.59c5.3-8.55,5.95-26.77,19.39-24.66,3.92-5,15-6.43,18.75-.81,4.3-4.41,14.34-7.19,18.15-1,4-7.67,18.63-10.76,21.87-1.23,5.88-13.07,29-15.85,22,3.44,7.23-7.67,13-17.1,21.53-23.33,8.28-4.74,18.5.71,14,10.8,3.32-4.5,6.8-9.09,12.74-9.83,4.64-1.24,12.65-.28,11.38,6.18,4.57-7.48,13.53-16.62,22.5-10,5.57,3.86,1.88,11,1.37,16.39,5.18-5.75,10.81-13.67,19.66-11.74,2.07.35,5,1.25,5.3,3.68,1.59,7.78-1.39,15.46-2.07,23.19-.83,7.12-2.21,14.7,1,21.46,2,5.44-7.37,5.83-10.82,4.86-11.06-5.2-5.55-22.16-4.85-31.9-6.27,9.62-30.52,15.06-25.11-3-4.63,5.74-8.56,12.3-14.23,17.08-6,4.07-21.19,3.7-15.78-6.79-4.43,5.14-10.06,11.7-17.53,10.77-9.58-.3-7.6-9.09-4.52-15.15-9.32,9.3-16.58,26.67-32,25.05-4.3-.33-6.22-3.31-5.09-7.43-3.05,4.1-5.31,9.64-10.77,10.93-5.13,1.25-16,.48-12.13-7.21-3.81,6.15-8.55,14.12-17,12-2.06-.35-5.66-1.48-5.23-4.15a55.66,55.66,0,0,0-3,4.92c3.21,0,6.29,1.29,7.34,4,.15,7.57-1.45,15-2.8,22.42,3.09-6.64,10.8-10.92,17.78-7.45,8,8.87-.67,24.53-2.55,35,17.19-3.77,10,17.21,8,26.69-3.85,14.54-7.81,29.07-12.21,43.45,5.07-7.82,8.23-22.09,19.92-20.86,2.27.27,5.43.83,6.39,3.2,2.86,12.87-3.94,25.63-6.45,38.13,27.59-11.15,7.29,30.51,5.36,42.28.3.06.61.12.89.19,5.93-12.76,12-33.52,27.59-24.17,3.91-5,17.42-5.18,16.35,3.22,5-3.16,16-3.64,15.54,4.53,2.28-6.5,21.64-7.94,19.16.62,4.68-7.71,20.93-11.05,21.72.91,2.47-3.55,5.05-7.81,9.79-8.23,5-.74,12.44.14,13.51,6.16,1.77,5.85.84,12.22,3.18,17.88.49,1.17-.52,2.31-1.39,2.92-7.55,4.26-16.22.39-15.52-8.89-4.36,5.44-8.18,13.16-15.65,14.48-7,.83-15-.7-12.35-9.45C768.64,752.7,761,763,749.73,760.15c-1.9-.5-4.57-1.69-4.09-4.07l.27-1.39c-3.67,3.8-19.23,6.29-18.26-1.69-3.74,5.23-18.37,10.13-20.07,1.48-1.39,2.25-4.46,3.53-7.65,3.8-.91,5.29-3.15,11.1-3.51,15.42,3.92-4.9,11.76-4.61,17.14-2.61,5.4,3-.1,22.11-.82,28,4.29-3.66,15.59-5.83,18.21.48a78.88,78.88,0,0,1-2.14,22.34c3.64-8.76,13.1-10.6,20.4-4.87,4.75,8-1.75,19.31-2.3,28.16,6.18-9.77,8.84-22.75,17.77-30.29,16.6-6.9,15.76,7.66,13.26,19.37,2.83-8.33,8.19-17,18.34-14.93,7.31.34,5.06,8.06,4.91,13.08,2.61-6.77,16.82-10.14,20.15-2.93a106.64,106.64,0,0,1-.92,13.6c3.4-11.66,8.68-18.6,21.36-12.1C848.17,838.37,839.59,868.66,843.1,879.66Z" style="fill:#f6df32"/><path d="M502.49,339c-18.42-36-37.14-72-54.12-108.69-6.87.92-13.52-4.15-15.79-11.12a167.37,167.37,0,0,1,4.87,22.65c3.06.07,6.14,1.06,7.37,2.73C461.75,277.38,479.86,309.66,502.49,339ZM457.24,217.85c3.77,2.08,5.33,7.13,7.54,10.67-3.1-7.79-6.15-15.58-8.74-23.55-.59-1.72,1.08-2.91,2.65-3.58a22.45,22.45,0,0,1-6.7-12.27C452.43,196.28,457.09,208.46,457.24,217.85Zm33.9,17.43c-2.78-16.93-6.71-33.65-10.75-50.32a52.28,52.28,0,0,1-3.91,17.72,12.39,12.39,0,0,1-2.86,2.26C480.48,214.3,484.48,225.66,491.14,235.28Zm121,500.5c-.18,5.75-10.25,5.25-13.9,2.92C585.1,730,577.6,714.57,567,703c9.13,14.29,19.92,28.17,24.85,44.59.25,4.75-7.26,4.78-10.62,4.22,6,11,18.6,30.76-4.76,27.15,3.55,7.88,22.7,32.32,17.82,39.1,6,8.66,11.56,17.79,14.41,28-.09,4.77-7.49,5.73-11.27,5.53,3.12,6.28,4.61,13.15,6.42,19.87.68,2.31-2.33,3.65-4.08,4.07-12,3.35-25.67-1.06-32.54-11.64,3.57,5.71,6.15,11.92,9,18-.1,5-8,5.85-11.93,5.3-8.72-1.5-11.36-11.57-17.25-17.08.39,1.85.52,3.75.89,5.59-.39,5.61-10.64,5.56-14.85,4.74-7.71-2.52-12.77-9.91-18.79-15,7.21,10.4,7.31,22.79-8.71,17.44-10.59-5.24-15.86-17.63-23.79-26.07-6.61-8.58-13.48-17-20.19-25.46-1.85-5.28,7.42-5.68,10.8-4.74-2.48-4.48-6.49-7.93-8.63-12.54-.86-5.79,7.7-6.44,11.71-5.36,19,15,33.68,36.37,52.08,52.67-16.8-28.07-38.29-52.94-57.59-79.27-3.6-4.94-7.59-9.6-10.68-14.89-1.5-6.13,10.11-6.3,14.58-2.82-5.78-7.11-11.28-14.45-17-21.58-2.77-3.45-7.09-6.47-7.66-11.14,1.74-5.19,11-4.75,14.63-1.77,23,24.93,46.27,49.61,68.61,75.14-6.12-9.67-101.8-108.78-76.49-109,12-2.88,23.15,20.11,31.07,27.87,26.76,33,50.75,68.12,78.58,100.21-33-53.17-77.1-98.33-112.51-149.87-1.63-2.91,2.64-4.63,4.91-4.9,9-2.32,12.94,6.82,17.42,12.71,4.32,5.87,8.59,11.78,13,17.61q-19.11-26.5-37.73-53.38c-2.53-3.88-5-7.81-7.48-11.7-1.78-6.19,11-6.15,14.1-3.16-9.38-14-19.14-27.71-27.66-42.21-1.78-6.42,12.06-6.33,14.71-2.45,30.57,40.07,60.77,80.41,91.25,120.54C498.75,658.08,462,608.76,430.94,555.68c-1.74-3,2.79-4.55,4.91-4.9,8.92-2.28,12.62,6.63,17.08,12.46-5.91-9.39-11.89-18.72-17-28.56-1.41-2.57,1.74-4.13,3.79-4.67,11.84-2.9,19.21,10.35,26.08,17.82-13-20.12-28-39-38.63-60.49-1.72-6.45,12-6.31,14.71-2.45,30.25,50.21,66.57,96.05,105.35,140-28.66-38-57-76.17-81.74-116.88-5.64-9-10.91-18.26-16.4-27.37-3.17-5.32-6.08-10.79-9.08-16.2-1.2-2.15.94-3.67,2.77-4.35,13.82-4.74,20.11,12,25.67,21.44,11.23,17.3,23.25,34.12,35.33,50.83-26.48-41.52-54.2-84-73.57-129.11.16-6,12.09-5.57,15-1.85,11.07,15.4,21.61,31.18,32.32,46.84-13.47-22.32-27.2-44.47-40-67.16-2.31-7-24.29-31.79-9.77-33.4,3.27-.45,7.54-.29,9.8,2.46q18.28,27.64,36.46,55.36c20.25,28.59,41.07,56.81,63.38,83.84C512.2,445.24,485.44,402,460.7,357.69c-8.6-15.55-17.33-31-25.43-46.83-1.47-4.58-9.76-15.37-7.24-19,15.92-9.24,24.67,14.8,32.08,25C473.39,337,487,357,501.78,376.05c-17.61-29.86-34.26-60.27-51.26-90.46-4.25-7.84-8.63-15.61-12.81-23.48-1.17,5.59-3.93,9.24-9.23,8.82-5.23.6-8.35-3.11-9.63-7.76,0,15.84-17.83,13.15-22.76,1.53,2.71,12.32,15.55,39.1-7.44,37.12a86.45,86.45,0,0,1,5,32.11c-2.61,5.87-14.72,5.93-19.35,2.09,2.2,7.35,4.85,17.1-.49,23.55-8.6,5.07-17.74-2.07-21.37-9.92,2.22,10.2,18.95,40.53-1.77,39,.45,1.88.74,3.8,1.14,5.69-.42,6-11.2,5.46-14.64,2.27,1.16,4.77.37,9.6,0,14.4-1.92,5.45-11.08,4.57-15,1.68,4.13,9.48,8.39,19,10.3,29.23.11,5-7.73,4.88-11.21,4.07-5.36-1.34-6.73-8-9.43-12.2a11.89,11.89,0,0,1-1.18-.15c7.58,16.13,15.62,32.31,18.73,50-1,6.9-12.29,4.79-16.38,1.55a15.88,15.88,0,0,1-5.7.34c2.84,6.46,10.6,19.51,6.51,25.79-5.92,3-15.05,2.3-19.23-3.33.86,3.26.92,6.66,1.32,10-1.79,5.46-10.3,4.12-14.55,2.44,1.56,6.66-4.81,9.41-10.46,8.18-9.21-1.7-10.67-13-14.8-19.94-1.07-5.28-11.44-16.88-3.63-19.71-8.25-16.63-16.59-33.23-24.87-49.85-5.63-10.31-9.81-17.88,6.63-15.22-6.7-11.25-13.37-22.52-19.91-33.87-1.76-6.39,12.07-6.39,14.7-2.45,10.23,14.45,19.67,29.49,29.81,44-10.55-16.76-21-33.62-31.08-50.65-6.19-10.52-12.32-21.09-18.3-31.73-1.68-3,2.73-4.54,4.9-4.9,3.28-.45,7.54-.3,9.81,2.45,5.87,8.78,11.36,17.82,17.16,26.65Q257,397.44,273,421.2c-22.71-40.75-45.41-81.56-64.59-124.11-2.1-7.1-18.3-30.75-13.38-35.59,4-2.32,11.17-2.6,13.9,1.66,4.14,9,8.2,18.12,12.24,27.2,11.65,22,23.81,43.72,35.87,65.49-21.77-45.1-43-90.46-65-135.42-5.17-10.31-10-20.78-15.54-30.91-1.73-4.1,4.83-5.15,7.64-5.11a27.22,27.22,0,0,0-2.09-4.79c-11.79.42-18.17-15.13-26.2-22.41,9.44,19.49,23.82,37.27,28.94,58.49.58,2.36-2.26,3.59-4.09,4.07-5.48,1.75-10.8-1.13-14.8-4.72-13.37-13.3-26.31-27.07-38.64-41.35,17.71,35.08,39.26,68.51,53.56,105.18-1.05,7.1-12.7,4.56-17,1.47-12.12-13-23-27.54-34-41.62,12.68,25.87,25.51,50.77,38.73,76.24,2.45,6.71,16.8,27.56,14.27,32.59-3.63,2.87-10.16,3-13.77,0C154.55,331,143.16,311.73,130.1,294c12.66,24,26.91,47.24,37.71,72.13.09,5.21-8.63,5.05-12.22,3.75-6.15-1.55-8.36-7.8-11.84-12.39,8,15,18.73,28.68,25.39,44.23,3,8.87-9.34,11.26-14.79,6.81-15.66-16.23-29.66-34-43.74-51.59,11.83,22.3,24.77,44,38,65.54,7,12.76,17,24.32,21.15,38.43.83,2.74-3.31,4-5.2,4.31-12.41,2.77-21.29-19-29.21-26.82,8.76,14.26,17.79,28.35,26.32,42.74,3.59,7.5,11,15,11.72,23.1-5.94,5.73-15.16,1.9-18.65-4.71-6.64-9.18-13.38-18.29-20.06-27.44,11,18.64,22.79,36.78,34,55.3a96.24,96.24,0,0,1,7.94,17c.9,2.25-2.54,3.66-4.09,4.07-3.37.74-7.55.75-10.33-1.56,2.73,4.42,5,9.1,7.41,13.7,1.34,7.81-14.33,5.37-17.37.91,2.6,5.35,31.93,37.25,20.79,38.45-5.05,1.79-11,.25-15.08-3.11-11.18-12.66-22.38-25.36-33.48-38.12,17.84,27.46,37.1,54,53.81,82.21,1.08,1.78-.4,3.12-1.87,4-8.06,4.58-16.25-.66-19.68-8.27-15.51-19.67-31.09-39.27-47-58.6,18.36,29.59,40.67,57,56.57,88,1.36,4.19,4.89,9.81-1.79,10.92-6.18,1.95-12.1-1.85-16.23-6.18C150.89,678,180,714.37,164,715.15c-5.73,1.43-10.67-2.12-13.88-6.58,3.23,6.61,24.29,34,16.8,38.68,5.06,6.65,18.86,24.28,1.32,23-9.69-1.7-15.62-11.39-22.73-17.44,7.77,9.91,15.9,19.56,22.91,30,1.59,5.64-8.64,5.88-12.16,4.28,7.74,11.84,5.14,16.51-9,13.57-8-2.53-13.34-10-20-14.76,11.83,14.2,24.22,28,34.88,43.12,1.88,2.77,3.36,5.82,5,8.73,1.23,6.55-9.82,5.44-13.75,4,3.38,5.75,18.07,17.32,12.4,23.8-3.94,2.28-9.85,2.33-13.39-.71,6.09,6.72,9.07,14.48-3.4,13.79-8.16-1.09-13.23-9.1-19.21-14.05,8.26,9.7,33.05,35.79,2.9,29.72-11.09-6.4-20.1-16.22-29.82-24.53-.44,6.8-11.17,6.55-15.65,3.84-11.24-8.16-22.24-16.71-32.88-25.65,4.84,9.25,13.64,17.38,15.2,27.89-.21,2.43-3.27,3.34-5.3,3.68-10.51,2.58-16.87-7.67-24-13.43-7.15-6.61-28.09-24.27-4.74-22.48-1.7-4.72-13.2-17-8.46-20.69a14.82,14.82,0,0,1,15-.35c9.72,7.09,18.45,15.59,27.8,23.22-11-14.23-22.31-28.29-33.61-42.32-9-6.41-5.42-12.2,4.77-10.87,7.33,2,12.12,11.93,18.37,16.62q22.17,22.53,44.51,44.89C82.86,828.49,57,804.54,40.14,776.71c.24-2.43,3.28-3.34,5.29-3.68,6-1.51,10.51,2.58,14.54,6.32-7.71-9.63-16.65-18.47-23.6-28.64-1.35-2.59,1.69-4.11,3.79-4.66,10.4-3,16.53,8.23,23.4,14-11.61-13.56-24-26.49-35.12-40.44-1.83-6.22,11.2-6.18,14.24-3C62,733.15,78.89,752.4,97,770.29c-17.1-19.44-34.23-38.86-51.08-58.51-3.13-5.09-16-15.25-15.19-20.27,3.37-3.64,10.45-3.49,14.24-.56,25.52,25.55,50.93,51.24,77.79,75.4-27.95-32-57.78-62.54-82.27-97.34-1.38-2.07,1.1-3.73,2.78-4.35,17.72-4.1,27.56,19.27,39.35,28.86-13.76-18.23-27.27-36.69-40-55.67-2.08-6.25,12.27-6.39,14.71-2.44,19.23,23.12,38.6,46.16,58.76,68.46C91.72,674.35,68.38,644,47.26,612.12c-1.69-7.27,14.57-6.32,16.3-.33,14.06,18.82,29,36.93,43.67,55.32Q81.63,627.79,58,587.25c-3.15-5.37-6.42-10.7-9.38-16.18-1.62-3,2.69-4.54,4.91-4.91,3.28-.45,7.52-.28,9.8,2.46q19.4,28.11,39.78,55.52c-12.59-20-25-40.07-36.92-60.43-2.72-5-13.09-15.36-2.16-16.74,10-2.55,12.83,8.29,17.21,14.83,5.11,7.36,10.39,14.57,15.69,21.8C83.06,561.08,68,538.89,57.27,514.68c-.14-5.78,11.42-5.45,14.53-2.41,9.14,10.28,17.74,21,26.45,31.67-12.4-19.2-24.59-38.53-35.91-58.4-1.44-2.56,1.77-4.14,3.79-4.67,12.71-3.32,18,12.54,25.53,19.78-10.25-15-20.16-30.25-29-46.1-1.41-2.57,1.75-4.14,3.8-4.67,15.59-3.19,25.24,20.69,35.18,29.86-10.54-16.18-20.66-32.64-30.14-49.45-4-9.25-19.37-24.29,1.62-21.49,6.56,2.45,8.38,11.29,12.86,16.35,10.25,15.88,21.3,31.25,32.33,46.6-18.89-31.31-36.67-63.29-53.09-96-1.72-6,10.1-5.85,13.5-4-6.42-11-12.83-22-19.07-33.12-1.67-6.29,11.2-6.17,14.24-3,11.65,14.15,21.7,29.62,33.16,44-10.57-18.45-20.32-37.37-29.62-56.49-4.54-9.4-9.21-18.76-13.43-28.31-.64-2.76,3.08-4,5.2-4.3,11.76-3.54,22.21,21.32,29.77,29.1,9.35,12.74,19,25.26,28.64,37.77-20.72-35.2-40.73-71-56.58-108.69-.62-2.78,3.06-3.95,5.2-4.31,13.18-2.45,17.9,17.19,25.06,25.36-8-15.57-15.68-31.3-23.21-47.11-4.88-8.88-5.38-13.34,6.53-12.44,7.39,1.73,10.83,10.51,15.43,16q14,20.76,28.18,41.38c-7.9-15.59-15.51-31.32-23.07-47.09-5.65-11.82-11.13-23.73-16.22-35.8a2.3,2.3,0,0,1,.76-2.41c13.7-8.58,22.53,9.6,28.94,18.91,8.64,11.9,17.21,23.84,26.18,35.49-15.36-29.07-31.16-57.92-46.18-87.17Q92.7,137.94,87,126.35c0-5.07,8.44-5.22,12.17-4.39,8.93,2.18,11.09,12.39,16.8,18.37,13,16.06,26.35,31.89,40.4,47.06C132,143.3,108.31,98.74,83.93,54.77c-.61-2.77,3.07-4,5.2-4.3,6-1.4,11.24,2.11,13.26,7.71a292.62,292.62,0,0,0,24.94,40.13c-9.43-16.37-19.21-32.56-27.78-49.4.35-5.95,11-5.37,14.54-2.4,14.15,20.13,28.21,40.47,44.54,59-4.24-11.21-8.3-22.59-13.49-33.4-5-5.9,8.46-7.34,11.92-4.88,4.3,2.28,5,8,7.11,12,5.34,13.32,11.06,26.6,14.58,40.55,4.57,12.48-13.79,13.14-19.25,5.3,7.6,13.52,16.86,26.25,24.36,39.83,3.22-.36,6.63.46,8.67,2.66,13.87,28.21,27.36,56.7,42.65,84.25,2.41-.07,5.5.16,7.43,1.8-4.85-7.83-7.87-20.71-11.64-27.84-9.32-23.25-18.19-46.7-28.26-69.64-4.91-1.29-4.23-7.75-5.64-11.71,0-5,7.7-4.87,11.21-4.07,7.79,3.05,9,15.69,13.15,22.47,9.44,22.17,17.89,44.74,27,67.05,3.41,8.33,6.76,16.69,10.55,24.85,0,5.25-8.6,5-12.23,3.75a15,15,0,0,1-2.65-2.69q9.61,17.81,19.13,35.66c18.09,32.66,36.12,65.4,56.15,96.93-9.55-27-20.6-53.43-30.52-80.29a189.87,189.87,0,0,1-6.63-19.88c-.78-2.74,3.27-4,5.2-4.3,3.62-.51,8.56-.23,10.43,3.43,3.85-1.32,9.48-1.58,12.33,1.77,5.38,10.56,10.65,21.18,15.93,31.79-4.29-11.79-8.66-23.56-12.27-35.57-.09-5.79,11.4-5.46,14.53-2.41,11.74,14.76,18.33,33.05,28.85,48.72-10.39-32.48-25.48-63.34-35.31-96-.85-2.73,3.32-4,5.2-4.31,9.36-2.32,13.92,7.46,17.41,14.36,9.8,21.16,20.1,42.09,30.51,63-8.84-28.62-20.57-56.26-30.52-84.5-1-5.67-10.37-22.2-6.21-25.86,12.68-6.34,15.7,4.94,19.94,14.24,6.56,14.87,13.08,29.75,19.71,44.59-8.21-24.27-17.13-48.29-25.24-72.59C351,177,344,167,348.8,159.89c15.36-8.18,19.18,13.65,24.59,23.47,8.54,19.36,16.7,38.91,26.31,57.77-8.66-35.39-22.53-69.49-31.12-104.83-.7-7.64,12.62-8.38,15.8-3.09,11.36,27.53,21.08,55.68,31.78,83.47-8.55-28.63-18.73-56.74-27.34-85.35-1.87-9.15-11.92-40.6-7.29-47,18.83-8.54,21.89,20.34,27.37,32.19,9.66,26.83,19.24,53.69,29.17,80.4C432,168.26,424.23,140,417.27,111.6c-2.49-10.08-4.74-20.24-7-30.37-.51-5.5-4.64-11.68-1.56-16.87C426.65,52,429.59,81.8,434.33,93c10.06,29.63,19.19,59.58,30.59,88.74C462.24,134,445.35,88.16,439.77,41c1.09-4.41,7.77-4.19,11.31-3.44,9,3.71,8.68,19.7,12.73,27.83C472.36,91,480,117.27,491.7,141.71c3.25-25.22-2.35-50.93-8.06-75.44A2.67,2.67,0,0,1,485,63.35c3.93-2.3,11.27-2.61,13.9,1.67,3.2,11.32,4.95,23,6.85,34.61,2.11,16.39,4.84,34.06-.66,50-3.31,6.29-11.8,6.52-18,5.22-6.94-1.56-9.06-9.06-12.16-14.54,1.82,12.41,5.1,25.52,5.47,38.35,2.39-2.54,8.54-2.13,11.37-1.12-.37-4.71-8.09-16.68-4.14-19.38,3.95-2.3,11.22-2.62,13.9,1.66,4.13,11.27,7.52,22.81,11,34.3,3,10.31,9.82,31.46-8,29.86,2.59,11.54,8.11,39.56-12.33,32.79,4.06,9.72,8.45,19.31,12.21,29.15,2.94,7.89,13.12,21.72-.54,24.79,9.72,20.76,23.33,40.19,28.34,62.81-.41,6-10.59,5.22-14.32,2.67,2.76,8.45,38.62,54.11,21.14,54.78-10.94,1.92-17-10.68-23.62-17.22-7.36-8.89-15-17.53-21.93-26.78C511,417.17,528.93,447,546.5,477.12c6.7,11.3,13.13,22.93,16,35.85.69,2.33-2.36,3.62-4.09,4.08-19.38,2-30.82-21.58-42.65-33.69,14,22.88,29.83,44.83,40.67,69.48-1.13,7.24-13.31,4.52-17.58,1.25-11.39-13-21-27.7-31.64-41.38,17,26.48,35.07,52.27,51.93,78.85,5.23,9.3,22.57,29.22.31,27.56,10.71,14.35,21.21,28.89,30.42,44.26,9.36,13.19,5.14,21-10.73,15.08C592.09,696.26,605.13,714.73,612.13,735.78Z" style="fill:#f6df32"/></g><g id="Vector_layer-2" data-name="Vector layer"><path d="M1487.7,654.83q9.22-.11,18.44-.54c-6.59-53.93-14.16-107.76-23.71-161.17q.58,7.58,1.16,15.13C1487.14,557,1488.35,605.94,1487.7,654.83Zm21.08,21.45q-.84-7.21-1.72-14.43-7.2.43-14.4.76c-1.68,0-3.38,0-5.08,0,0,2.37-.08,4.73-.13,7.1C1494.58,671.79,1502,674.25,1508.78,676.28Zm12.47,178.51c4.38-40.19-2.63-80.69-6-120.75q-2.65-24.42-5.48-48.85-10.44-2.46-20.68-5.78a9.55,9.55,0,0,0-1.89-.81c-1.62,64.07-6.27,128.09-12.84,191.79,11-1.14,21.95-1.91,32.89-3.14C1516.94,866.76,1520.11,864.78,1521.25,854.79Zm85.93-164.16q1.53-18.61,3.12-37.24c-29.26,2.45-58.5,5.38-87.79,7.45q1.18,9.66,2.32,19.34l.88.1Q1566.56,684.81,1607.18,690.63Zm40.22,6.15q-.81-23.07-.78-46.07c-6.91.42-13.81.91-20.72,1.43q-1.71,20.37-3.4,40.75Q1634.95,694.77,1647.4,696.78Zm11.5,158.77c-1.38-38.86-8.57-77.57-9.39-116.6q-1.1-17-1.8-33.86-12.92-2.25-25.86-4.38c-4.64,56.73-8.91,113.48-11.76,170.33,11.08-5.53,23.31-8,35.44-10C1649.88,859.52,1658.07,861.41,1658.9,855.55Zm43.65-149.12c1.13-19.14,5.62-38.38,4-57.56-14.88-.11-29.74.27-44.58,1,0,16.51.43,33,1.09,49.53Q1682.83,702.73,1702.55,706.43Zm3.1-65.34c17.36-1.9,17.77,7.48,16.61,21.87-1,13.77-2.82,27.46-4,41.2,1.22,11.5-9.31,12.13-18,10.11-12.3-2.08-24.59-4.25-36.88-6.42,1.36,30.15,3.53,60.26,5.91,90.23,1.28,17.6,4.55,35,5.26,52.65,1.69,9.89-6.59,15.69-15.64,16.2-16.59,2.89-34.37,4.94-48,15.78-3,3.51-7.89,4.43-12.23,3.27-8.59-2.08-3-13.79-3.9-20.11q1.83-32.94,4-65.86c2.26-33.93,4.92-67.83,7.71-101.71-19.78-3-39.63-5.56-59.6-7.19q-10.64-.92-21.15-2.7.76,6.63,1.5,13.27c4.28,51.69,14.87,104,9,155.9-1.85,19.26-24.75,16.41-38.94,18.59-11.78-.12-24.22,4.6-35.64,1.42-2.39-1-4.12-3.09-3-5.75,2.79-22,4.32-44.13,6.37-66.19,3.23-43.46,5.57-87,6.67-130.55-9.19-2-17.51-4.59-12.77-8.54,3.16-1.29,7.69-1.26,13-.45,0-1.08,0-2.16.07-3.23-12.87.1-25.77-.43-38-4.26-12.23-6.47,8.23-12.23,12-5.31q13.05,1.19,26.1,1.45.66-40.54-.28-81.1c-1.73-34-3.72-68-6.54-102-.38-16.26-3.24-33.28.26-49.23,2.15-6.29,22.79-2.49,14.46,3.87-.85,8-.33,16.09-.28,24.13,3.26-2.92,8.74-2.72,12.5-1.08,4.76,2,.14,13.21,1.32,17.78q16.35,92.77,28,186.29c29.81-2,59.62-5.64,89.41-8.18,2.57-30.37,5.16-60.74,7.58-91.12,2.76-32.9,5.2-65.82,8-98.71,1-10.7,1.79-21.41,3-32.09.61-6.61,1.86-15.48,10.54-14.46,2.75,0,7.18.69,7.75,3.88-5.6,15.51-4,33.38-6.44,49.81-2.75,34-5.33,67.93-8.19,101.88q-3.23,39.81-6.64,79.59,10-.71,19.9-1.13h.18c.49-55.28,5-110.3,15-165.22,1.91-14.23,3.45-28.62,1.86-43,1.38-5.64,14.07-5.11,15.51,0,2.71,31.59-5.61,62.79-9.44,94-5.33,37.58-7.48,75.45-7.66,113.38C1676.53,641.36,1691.09,641,1705.65,641.09Z" style="fill:#f6df32"/><path d="M1356.87,713.43a103.25,103.25,0,0,1,13.56,66.05c-3.25,15.32-21,21.41-35,21.12-27.77-1.48-47.62-24.63-63-45.5-10.61,5.41-22.07,17.95-34.75,13.6-2.79-1.09-2.92-4.43,0-5.48,14.88-4.26,31.11-27.24,46.58-14.05,14.46,17.38,42,59.09,67.11,37.12,7.53-10.52,4.16-24.88,2.9-36.88-6.61-39.67-37.48-70-68.46-92.93-18.5-16.58-40.73-31.59-51.7-54.55-12.63-29,11.15-63.15,42.08-64.43a59.32,59.32,0,0,1,32.89,7.3c7.39,3.82,34.85,26.2,12.48,26-3.06-.17-6.41-1.46-7-4.81-5.89-8.77-14.68-16.08-24.81-19.32-30.47-9.63-53.36,31-39.38,56.28C1278.15,646.68,1332.26,666.69,1356.87,713.43Z" style="fill:#f6df32"/><path d="M1416.74,708.25c18.73,33.12,16.53,72.76,6.29,108.28-9.78,35.72-53.77,46-86.43,43.24-51-2.84-86.11-18.51-118.37-58.61-8.3-7.62,10.58-10.75,13.21-4.27,20.37,24.7,45.49,46.4,78.18,51.38,26,4.93,54.68,8.13,78.2-6.72,20.84-11,23.3-37.34,26.18-58.29,2.66-21.1,2.06-42.83-7.39-62.29-11.16-28.92-34.28-51.21-57.18-71.23-17.27-12.8-36.57-22.86-52.87-37-19.66-16.54-20.8-35.39,8.94-37.37,5.56,0,10.94-1.55,16.43-1.16,4.82.48,7.58,4.65,2.21,7.16-7.7,4.16-27.31-3.32-26.4,10.31,9.79,23.7,38.82,34.24,58.2,49.11C1379.76,659.16,1402.66,681.43,1416.74,708.25Z" style="fill:#f6df32"/><path d="M1145.37,547.66c2.74.52,5.54,2.9,4.09,5.89a78.72,78.72,0,0,0-4.24,16c-10.94,75.18.45,151.26,4.15,226.61-.57,18.52,10.52,85.18-6.73,92.72-21,3.41-42.82,2-64.12,2.29-20.13,2.89-28.81-36.32-37.17-50.58-22.7-48.38-48.09-95.48-72.14-143.19-3.09,61.88,7.72,122.82,16.59,183.79.25,9.37,6,24.37-4.91,29.44-16.94,3.43-34.72,3.75-52,4-9.06-.11-20.92-3.93-18.62-15.18.36-10.85.91-21.68,1.45-32.52,1.21-22.32,3.11-44.6,5.91-66.78,7.37-54.51,13.64-109.25,10.17-164.33-.11-3.41-.23-6.83-.31-10.25,1.55-4.91,9.34-4.43,13.23-2.74,1.07.55,2.23,1.43,2.27,2.74.32,16.16,1.19,32.31,1.23,48.46.43,62.33-13.44,123.55-16.56,185.67-.78,55.69-16,49.07,43.24,44.76,2.68-16.6-2.91-33.75-4.37-50.37-5.9-38.34-12.33-76.76-12.88-115.65-.24-16.13-.28-32.28.27-48.41.64-4.41-.15-10.07,3.35-13.33,20.51-12,30.82,31.34,39.75,43.71,19.07,37.78,38.88,75.2,57.13,113.39,7.93,16.65,14,34.55,24.85,49.59,16.49.37,33-.06,49.46-.72,1.49-.07,3-.13,4.47-.23,8.35-31.78.63-66,.13-98.52-3.29-75.42-16.42-152.68-.43-227.32-16.49.24-32.7-4.16-48.19-9.46-4.69,58.07-2.15,116.59-2.83,174.82,1,8.08-10.41,10.52-16,6.9C1045,711,1035.67,683.1,1022,660c-19.61-39.85-33.11-82.33-52.38-122.31-4.86-12.78-12.54-9.37-10.31-14.19,3.88-4.14,10.84-2.84,15.45-.62,8.66,5.64,11.1,16.94,15.83,25.6,8.72,19.13,16.08,38.83,24,58.31,14.2,35.83,31,70.73,51.58,103.38.06-40.33-.08-80.67.69-121,1.58-16.26-2.31-35.3,5.35-49.95,8.92-6.69,18.9,1.82,28,3.87,10.69,3.08,21.64,6.08,32.85,5.78C1137.12,548.48,1141.08,546.12,1145.37,547.66Z" style="fill:#f6df32"/><path d="M825.71,808.42c13.63-2.21,35.72-8.58,30.95,13.64-2.69,19,4.15,61.53-18.08,68.29-29.91,8.15-61.31,14.93-92.26,9.37-22.56-4.16-45.43-7.5-64.53-20.83-13.48-9-27.36-19.56-31.36-36.12-7.69-36-11.27-72.95-15-109.58-5.05-62.68-17.21-124.84-18.63-187.78-.92-9.29,21.88-8.48,15.77-.83.11,45.8,7.72,91.67,13,137.21,5.38,47.83,9.22,95.81,16.68,143.4,1.85,18.54,9.91,35.66,26.53,45.22,20,16.14,46.2,19.22,70.66,23.15,19.29,2.26,39.7-2.56,58.3-6.47,12.34-1.63,19.39-5.38,20.29-18.79,2.5-18,2.72-36.21,3.38-54.35-33.75,5.48-67.34,13.78-101.77,12.94-33,1-46.4-36.12-49.49-63.5-4.58-19.5,39.73-7.81,50.73-9.24,21.08.66,42-1.75,63-3.9-1.43-10.73-1-22-3.59-32.45-33.35-1.85-66,10.43-99.38,6.66-18.7-4-16.53-29.43-20.14-44.24-7-45.72-11.63-91.81-12.24-138.08.59-16.7,117-6.11,134.62-5.89,6.12,1.56,12.64-2,18.28,1.39,3.77,2.53-.65,6.41-3.75,6.79-33.21-.67-66.71-4.27-100.12-3.39-11.07.14-22.17,0-33.19,1.14-1,3.06.23,7.37,0,10.85.39,13.25.92,26.52,1.86,39.75,1.86,28.92,5.86,57.63,9.92,86.31,2.47,12.68,2.53,27.14,10.11,38,29.92,1.7,59.13-7.83,89.1-7.31,18-.53,22.39,4.44,22.42,22.12,2.49,26.89,5.95,24.88-21.79,27.05-30.09,4-60.33,3.22-90.51,1,2.43,21,9.14,53.84,33,59.17C767.94,820,796.84,813.53,825.71,808.42Z" style="fill:#f6df32"/><path d="M841.52,488c6.5,3.73,3.12,13.55,3.72,19.81-.43,10.7-1.13,21.4-1.8,32.1-1.58,4.9-9.34,4.44-13.23,2.74-1-.5-2.35-1.46-2.27-2.74.7-15.13,2.52-30.31,1.78-45.44-70.5,3.93-139,29.76-209.81,27.89-4.38.2-10.06-4.64-3.32-7,12.82-1.31,26.14.52,39.06-1.92,47.41-6.27,94.09-17.07,141.45-23.67C811.69,488.71,827.14,484.39,841.52,488Z" style="fill:#f6df32"/><path d="M620.13,879.5c2.4.75,3.94,2.32,3.19,4.62a17.91,17.91,0,0,1-2.87,4.07l0,1.72c-1.54,4.94-9.36,4.41-13.23,2.74l-.48-.26c-16.75-1-33.37-5-50.23-4.07-20.82,0-40.84,8.92-61.58,7.81-9.6-1.29-8.28-8.75,1-8.47,10.12,2,20.2-2.25,30.34-3.59,26-5.79,52.37-3.18,78.44.27-1.67-32.14-6.71-64.07-9.9-96.09-9.43-45.63-16.83-91.62-27.11-137.1-6.56-38.79-18.72-76.29-27.88-114.49-19.4-91.29-22.06-185-30.42-277.68-5-61.52-11.76-122.87-19.35-184.12-1.58-12.52-2.86-25.06-4.1-37.61-6.25.51-12.48,1.14-18.71,1.84-14.11,1.73-28.22,3.35-42.38,4.46-32.42,44-51.81,94.15-68.6,145.54C339,241.87,324.52,296,301.48,346.21a4,4,0,0,1-2,3.2c-.76,2-3,3.17-7.86,3.07-2.8.06-9.48-1.32-7.22-5.29-29.95-71.2-60.85-143.25-76.51-219.13,1.18-5.61,15.93-5.35,15.42.81,11.81,51.21,29,101.47,48.24,150.37C278.34,296,285.9,312.49,293,329.16a18.28,18.28,0,0,0,1.55-4.11c11-26.07,20-52.88,28.73-79.78C341,187.88,356.8,128.9,387.52,76.77c5.17-8.86,10.58-17.58,16.1-26.22,1.15-2,2.35-4,3.64-5.94l-4,.15c-4,1.72-9.19,1.59-12.63-1.2-3.7-7.25,13.76-6.8,23.49-7a19.12,19.12,0,0,1,13.35-5c6.09-.95,9.84.67,11.17,2.79,15.53-1.65,31-3.67,46.58-4.94-.9-6.27-2.11-13.48,5.44-14.53,3.41-1.39,14.4,1.39,9.55,6q.33,3.75.68,7.5c4-.16,7.92-.26,11.88-.26,3.69-1,15.34.51,10,5.92-6.46,3-14.12,1.54-21.17,2,7.33,76,18.34,151.79,23.79,228,8,90.19,10.84,181.25,29.5,270.07,13.52,50.37,25.9,100.91,35.82,152.11,5.48,22.57,8.83,45.57,12.61,68.42a430.18,430.18,0,0,1,11,69.72C616.2,842.82,619.12,861.1,620.13,879.5Z" style="fill:#f6df32"/><path d="M481.19,841.52c2.88,13,20.31,42.78-6.36,37.25-4.83-.72-5.63-5.59-.52-6.75-26.12-77.94-27.44-160.59-35.61-241.75C426,507.94,417.78,385.25,415,262.34c-12.82,23.78-22.7,49.54-34.21,74.07-19.7,46.66-36.2,94.58-55,141.61-6.65,17.33-14.19,34.3-22.06,51.11-5.57,8.23-9.43,24.38-18.87,28.56.12.44.24.87.35,1.31-1.56,4.91-9.35,4.43-13.23,2.74C247.38,512.56,239.45,455,226,401.51c-15.07-68.11-28.91-136.71-38.51-205.84-4.73,162.77-6.29,325.72-9.73,488.52-.75,52.25.41,104.56-2,156.77q-1.14,18.48-2.58,37c-.38,3.36-.23,7.32-1,10.51,16.1-4.14,16.34,11.18-6.06,8.46-49.06-.81-98-4-146.73-8.62-3.84.64-12.63-3.1-6.27-6.7l.15-.05c-3.37-20.27,3.39-41.15,5.14-61.43,14.92-137.8,29.72-275.63,41.08-413.78,8.92-116.58,7.06-233.84,15.84-350.42,1.43-10.11-2.67-23.65,14.23-18.07,5.2,1.92,0,21.94.38,27.28C84.54,161.29,82.17,257.69,78.68,354,71.14,469.5,58.88,584.65,46.59,699.75c-5.4,50.86-9.5,101.87-17.09,152.47-.9,9.45-3.1,19.49-.76,28.74,2.19.27,4.37.56,6.51.68,40.31,4.41,80.85,6.17,121.34,7.23,1.1-8.24,1.45-16.49,2.11-24.77,6-160.58,4.62-321.5,9.06-482.19,2-87.22,3.32-174.46,6.24-261.64.67-4.49-.82-11,3.52-13.63,3.53-2.66,16.51-.89,12.7,4.93q-.39,10.58-.75,21.15c6.53-.66,15.47,3,8.6,7.3-1.37,36.7,8.71,73.17,13.29,109.51,13,76,29.24,151.35,47.53,226.23,4.89,19.64,9.86,39.33,16.83,58.35,1.15,3.4,2.57,6.72,4,10,6.44-10.7,11.61-22.16,16.61-33.58,29-65.52,49.79-134.4,79.85-199.48,9.54-18.53,15.92-39.24,27.37-56.53,1.83-2.12,7.6-2.7,11.25-1.53q-.1-5-.19-10c-3.5-2.14-1.55-7.06,2.32-7.31,15.85-3.75,13.18,12.26,13.95,22.64.5,14.83.5,29.67,1,44.51,1.38,74.9,6.36,149.68,12.9,224.29,9,91.79,14.66,184,27,275.43C474.42,815.66,477.12,828.76,481.19,841.52Z" style="fill:#f6df32"/></g></svg>